G04 #@! TF.GenerationSoftware,KiCad,Pcbnew,(5.1.5)-2*
G04 #@! TF.CreationDate,2020-03-29T18:21:26+09:00*
G04 #@! TF.ProjectId,circuit_master_ver.2.1.0,63697263-7569-4745-9f6d-61737465725f,rev?*
G04 #@! TF.SameCoordinates,Original*
G04 #@! TF.FileFunction,Copper,L1,Top*
G04 #@! TF.FilePolarity,Positive*
%FSLAX46Y46*%
G04 Gerber Fmt 4.6, Leading zero omitted, Abs format (unit mm)*
G04 Created by KiCad (PCBNEW (5.1.5)-2) date 2020-03-29 18:21:26*
%MOMM*%
%LPD*%
G04 APERTURE LIST*
%ADD10C,0.100000*%
%ADD11C,1.500000*%
%ADD12C,2.500000*%
%ADD13R,1.600000X1.600000*%
%ADD14O,1.600000X1.600000*%
%ADD15C,1.600000*%
%ADD16C,1.800000*%
%ADD17R,1.800000X1.800000*%
%ADD18O,1.950000X1.700000*%
%ADD19R,1.500000X1.500000*%
%ADD20R,1.400000X1.400000*%
%ADD21C,1.400000*%
%ADD22C,2.000000*%
%ADD23O,2.400000X1.600000*%
%ADD24R,2.400000X1.600000*%
%ADD25R,1.700000X1.700000*%
%ADD26O,1.700000X1.700000*%
%ADD27C,1.200000*%
%ADD28C,0.400000*%
%ADD29C,0.800000*%
%ADD30C,0.254000*%
G04 APERTURE END LIST*
G04 #@! TA.AperFunction,ComponentPad*
D10*
G36*
X43024053Y-159751206D02*
G01*
X43048370Y-159754813D01*
X43072216Y-159760786D01*
X43095362Y-159769068D01*
X43117585Y-159779579D01*
X43138670Y-159792217D01*
X43158416Y-159806861D01*
X43176630Y-159823370D01*
X43193139Y-159841584D01*
X43207783Y-159861330D01*
X43220421Y-159882415D01*
X43230932Y-159904638D01*
X43239214Y-159927784D01*
X43245187Y-159951630D01*
X43248794Y-159975947D01*
X43250000Y-160000500D01*
X43250000Y-160999500D01*
X43248794Y-161024053D01*
X43245187Y-161048370D01*
X43239214Y-161072216D01*
X43230932Y-161095362D01*
X43220421Y-161117585D01*
X43207783Y-161138670D01*
X43193139Y-161158416D01*
X43176630Y-161176630D01*
X43158416Y-161193139D01*
X43138670Y-161207783D01*
X43117585Y-161220421D01*
X43095362Y-161230932D01*
X43072216Y-161239214D01*
X43048370Y-161245187D01*
X43024053Y-161248794D01*
X42999500Y-161250000D01*
X42000500Y-161250000D01*
X41975947Y-161248794D01*
X41951630Y-161245187D01*
X41927784Y-161239214D01*
X41904638Y-161230932D01*
X41882415Y-161220421D01*
X41861330Y-161207783D01*
X41841584Y-161193139D01*
X41823370Y-161176630D01*
X41806861Y-161158416D01*
X41792217Y-161138670D01*
X41779579Y-161117585D01*
X41769068Y-161095362D01*
X41760786Y-161072216D01*
X41754813Y-161048370D01*
X41751206Y-161024053D01*
X41750000Y-160999500D01*
X41750000Y-160000500D01*
X41751206Y-159975947D01*
X41754813Y-159951630D01*
X41760786Y-159927784D01*
X41769068Y-159904638D01*
X41779579Y-159882415D01*
X41792217Y-159861330D01*
X41806861Y-159841584D01*
X41823370Y-159823370D01*
X41841584Y-159806861D01*
X41861330Y-159792217D01*
X41882415Y-159779579D01*
X41904638Y-159769068D01*
X41927784Y-159760786D01*
X41951630Y-159754813D01*
X41975947Y-159751206D01*
X42000500Y-159750000D01*
X42999500Y-159750000D01*
X43024053Y-159751206D01*
G37*
G04 #@! TD.AperFunction*
D11*
X43770000Y-157960000D03*
X45040000Y-160500000D03*
X46310000Y-157960000D03*
X47580000Y-160500000D03*
X48850000Y-157960000D03*
X50120000Y-160500000D03*
D12*
X39070000Y-163800000D03*
D11*
X51390000Y-157960000D03*
D12*
X54820000Y-163800000D03*
D11*
X40620000Y-171930000D03*
X43160000Y-170230000D03*
X53270000Y-170230000D03*
X50730000Y-171930000D03*
D13*
X60555001Y-136085001D03*
D14*
X75795001Y-169105001D03*
X60555001Y-138625001D03*
X75795001Y-166565001D03*
X60555001Y-141165001D03*
X75795001Y-164025001D03*
X60555001Y-143705001D03*
X75795001Y-161485001D03*
X60555001Y-146245001D03*
X75795001Y-158945001D03*
X60555001Y-148785001D03*
X75795001Y-156405001D03*
X60555001Y-151325001D03*
X75795001Y-153865001D03*
X60555001Y-153865001D03*
X75795001Y-151325001D03*
X60555001Y-156405001D03*
X75795001Y-148785001D03*
X60555001Y-158945001D03*
X75795001Y-146245001D03*
X60555001Y-161485001D03*
X75795001Y-143705001D03*
X60555001Y-164025001D03*
X75795001Y-141165001D03*
X60555001Y-166565001D03*
X75795001Y-138625001D03*
X60555001Y-169105001D03*
X75795001Y-136085001D03*
X60555001Y-171645001D03*
X75795001Y-171645001D03*
D15*
X40000000Y-125500000D03*
X40000000Y-120500000D03*
D16*
X80560000Y-115800000D03*
D17*
X83100000Y-115800000D03*
X83100000Y-123500000D03*
D16*
X80560000Y-123500000D03*
G04 #@! TA.AperFunction,ComponentPad*
D10*
G36*
X84249504Y-143151204D02*
G01*
X84273773Y-143154804D01*
X84297571Y-143160765D01*
X84320671Y-143169030D01*
X84342849Y-143179520D01*
X84363893Y-143192133D01*
X84383598Y-143206747D01*
X84401777Y-143223223D01*
X84418253Y-143241402D01*
X84432867Y-143261107D01*
X84445480Y-143282151D01*
X84455970Y-143304329D01*
X84464235Y-143327429D01*
X84470196Y-143351227D01*
X84473796Y-143375496D01*
X84475000Y-143400000D01*
X84475000Y-144600000D01*
X84473796Y-144624504D01*
X84470196Y-144648773D01*
X84464235Y-144672571D01*
X84455970Y-144695671D01*
X84445480Y-144717849D01*
X84432867Y-144738893D01*
X84418253Y-144758598D01*
X84401777Y-144776777D01*
X84383598Y-144793253D01*
X84363893Y-144807867D01*
X84342849Y-144820480D01*
X84320671Y-144830970D01*
X84297571Y-144839235D01*
X84273773Y-144845196D01*
X84249504Y-144848796D01*
X84225000Y-144850000D01*
X82775000Y-144850000D01*
X82750496Y-144848796D01*
X82726227Y-144845196D01*
X82702429Y-144839235D01*
X82679329Y-144830970D01*
X82657151Y-144820480D01*
X82636107Y-144807867D01*
X82616402Y-144793253D01*
X82598223Y-144776777D01*
X82581747Y-144758598D01*
X82567133Y-144738893D01*
X82554520Y-144717849D01*
X82544030Y-144695671D01*
X82535765Y-144672571D01*
X82529804Y-144648773D01*
X82526204Y-144624504D01*
X82525000Y-144600000D01*
X82525000Y-143400000D01*
X82526204Y-143375496D01*
X82529804Y-143351227D01*
X82535765Y-143327429D01*
X82544030Y-143304329D01*
X82554520Y-143282151D01*
X82567133Y-143261107D01*
X82581747Y-143241402D01*
X82598223Y-143223223D01*
X82616402Y-143206747D01*
X82636107Y-143192133D01*
X82657151Y-143179520D01*
X82679329Y-143169030D01*
X82702429Y-143160765D01*
X82726227Y-143154804D01*
X82750496Y-143151204D01*
X82775000Y-143150000D01*
X84225000Y-143150000D01*
X84249504Y-143151204D01*
G37*
G04 #@! TD.AperFunction*
D18*
X83500000Y-146500000D03*
X83500000Y-149000000D03*
X83500000Y-151500000D03*
G04 #@! TA.AperFunction,ComponentPad*
D10*
G36*
X84249504Y-158151204D02*
G01*
X84273773Y-158154804D01*
X84297571Y-158160765D01*
X84320671Y-158169030D01*
X84342849Y-158179520D01*
X84363893Y-158192133D01*
X84383598Y-158206747D01*
X84401777Y-158223223D01*
X84418253Y-158241402D01*
X84432867Y-158261107D01*
X84445480Y-158282151D01*
X84455970Y-158304329D01*
X84464235Y-158327429D01*
X84470196Y-158351227D01*
X84473796Y-158375496D01*
X84475000Y-158400000D01*
X84475000Y-159600000D01*
X84473796Y-159624504D01*
X84470196Y-159648773D01*
X84464235Y-159672571D01*
X84455970Y-159695671D01*
X84445480Y-159717849D01*
X84432867Y-159738893D01*
X84418253Y-159758598D01*
X84401777Y-159776777D01*
X84383598Y-159793253D01*
X84363893Y-159807867D01*
X84342849Y-159820480D01*
X84320671Y-159830970D01*
X84297571Y-159839235D01*
X84273773Y-159845196D01*
X84249504Y-159848796D01*
X84225000Y-159850000D01*
X82775000Y-159850000D01*
X82750496Y-159848796D01*
X82726227Y-159845196D01*
X82702429Y-159839235D01*
X82679329Y-159830970D01*
X82657151Y-159820480D01*
X82636107Y-159807867D01*
X82616402Y-159793253D01*
X82598223Y-159776777D01*
X82581747Y-159758598D01*
X82567133Y-159738893D01*
X82554520Y-159717849D01*
X82544030Y-159695671D01*
X82535765Y-159672571D01*
X82529804Y-159648773D01*
X82526204Y-159624504D01*
X82525000Y-159600000D01*
X82525000Y-158400000D01*
X82526204Y-158375496D01*
X82529804Y-158351227D01*
X82535765Y-158327429D01*
X82544030Y-158304329D01*
X82554520Y-158282151D01*
X82567133Y-158261107D01*
X82581747Y-158241402D01*
X82598223Y-158223223D01*
X82616402Y-158206747D01*
X82636107Y-158192133D01*
X82657151Y-158179520D01*
X82679329Y-158169030D01*
X82702429Y-158160765D01*
X82726227Y-158154804D01*
X82750496Y-158151204D01*
X82775000Y-158150000D01*
X84225000Y-158150000D01*
X84249504Y-158151204D01*
G37*
G04 #@! TD.AperFunction*
D18*
X83500000Y-161500000D03*
X83500000Y-164000000D03*
X83500000Y-166500000D03*
X83500000Y-169000000D03*
D19*
X41000000Y-117000000D03*
D11*
X41000000Y-111920000D03*
X41000000Y-114460000D03*
D14*
X44500000Y-129000000D03*
D15*
X44500000Y-139160000D03*
X40000000Y-139160000D03*
D14*
X40000000Y-129000000D03*
D15*
X54500000Y-139160000D03*
D14*
X54500000Y-129000000D03*
X50000000Y-139160000D03*
D15*
X50000000Y-129000000D03*
D13*
X40000000Y-145000000D03*
D14*
X47620000Y-147540000D03*
X40000000Y-147540000D03*
X47620000Y-145000000D03*
D20*
X61200000Y-125900000D03*
D21*
X63700000Y-125900000D03*
X66200000Y-125900000D03*
X61200000Y-129200000D03*
X63700000Y-129200000D03*
X66200000Y-129200000D03*
D22*
X61100000Y-114100000D03*
X65600000Y-114100000D03*
X61100000Y-120600000D03*
X65600000Y-120600000D03*
X75100000Y-120600000D03*
X70600000Y-120600000D03*
X75100000Y-114100000D03*
X70600000Y-114100000D03*
D23*
X46380000Y-125500000D03*
X54000000Y-110260000D03*
X46380000Y-122960000D03*
X54000000Y-112800000D03*
X46380000Y-120420000D03*
X54000000Y-115340000D03*
X46380000Y-117880000D03*
X54000000Y-117880000D03*
X46380000Y-115340000D03*
X54000000Y-120420000D03*
X46380000Y-112800000D03*
X54000000Y-122960000D03*
X46380000Y-110260000D03*
D24*
X54000000Y-125500000D03*
D25*
X54000000Y-144000000D03*
D26*
X54000000Y-146540000D03*
X54000000Y-149080000D03*
X54000000Y-151620000D03*
D27*
X58800000Y-133900000D03*
X65900000Y-133900000D03*
X71200000Y-168700000D03*
X57650000Y-148600000D03*
X52000000Y-134200000D03*
X43050000Y-126200000D03*
D28*
X75795001Y-164025001D02*
X83574999Y-164025001D01*
D29*
X75795001Y-143705001D02*
X79500000Y-147410000D01*
X79500000Y-159275000D02*
X81725000Y-161500000D01*
X79500000Y-147410000D02*
X79500000Y-159275000D01*
X81725000Y-161500000D02*
X83500000Y-161500000D01*
X40000000Y-125500000D02*
X40000000Y-129000000D01*
X40000000Y-129000000D02*
X44400000Y-129000000D01*
X45631370Y-129000000D02*
X46350000Y-128281370D01*
X44500000Y-129000000D02*
X45631370Y-129000000D01*
X46350000Y-128281370D02*
X46350000Y-125500000D01*
X46350000Y-128281370D02*
X47068630Y-129000000D01*
X47068630Y-129000000D02*
X50000000Y-129000000D01*
X50000000Y-129000000D02*
X54500000Y-129000000D01*
X71450000Y-143700000D02*
X75800000Y-143700000D01*
X56750000Y-129000000D02*
X71450000Y-143700000D01*
X54500000Y-129000000D02*
X56750000Y-129000000D01*
X55202081Y-146540000D02*
X56300000Y-145442081D01*
X54000000Y-146540000D02*
X55202081Y-146540000D01*
X56300000Y-145442081D02*
X56300000Y-130800000D01*
X56300000Y-130800000D02*
X54500000Y-129000000D01*
D28*
X61686371Y-166565001D02*
X68621370Y-173500000D01*
X60555001Y-166565001D02*
X61686371Y-166565001D01*
X80250000Y-173500000D02*
X83500000Y-170250000D01*
X68621370Y-173500000D02*
X80250000Y-173500000D01*
X83500000Y-170250000D02*
X83500000Y-169000000D01*
D29*
X75795001Y-136085001D02*
X83500000Y-143790000D01*
X83500000Y-143790000D02*
X83500000Y-144000000D01*
D28*
X42500000Y-160500000D02*
X42500000Y-150100000D01*
X42500000Y-150100000D02*
X47600000Y-145000000D01*
X54500000Y-139160000D02*
X48660000Y-145000000D01*
X48660000Y-145000000D02*
X47650000Y-145000000D01*
X44150000Y-151000000D02*
X43750000Y-151400000D01*
X43750000Y-151400000D02*
X43750000Y-157950000D01*
X46810001Y-148339999D02*
X44150000Y-151000000D01*
X46810001Y-148339999D02*
X47600000Y-147550000D01*
X42060660Y-114460000D02*
X44150000Y-112370660D01*
X41000000Y-114460000D02*
X42060660Y-114460000D01*
X44150000Y-112370660D02*
X44150000Y-109550000D01*
X44150000Y-109550000D02*
X45250000Y-108450000D01*
X45250000Y-108450000D02*
X47550000Y-108450000D01*
X47550000Y-108450000D02*
X50600000Y-111500000D01*
X50600000Y-111500000D02*
X50600000Y-123850000D01*
X50600000Y-123850000D02*
X52300000Y-125550000D01*
X52300000Y-125550000D02*
X54000000Y-125550000D01*
X40000000Y-139160000D02*
X40000000Y-140291370D01*
X40000000Y-140291370D02*
X40000000Y-145000000D01*
X40000000Y-145000000D02*
X40000000Y-147550000D01*
X52400000Y-115340000D02*
X51800000Y-115940000D01*
X54000000Y-115340000D02*
X52400000Y-115340000D01*
X51800000Y-115940000D02*
X51800000Y-119850000D01*
X51800000Y-119850000D02*
X52400000Y-120450000D01*
X52400000Y-120450000D02*
X54000000Y-120450000D01*
X55600000Y-122960000D02*
X58540000Y-125900000D01*
X54000000Y-122960000D02*
X55600000Y-122960000D01*
X58540000Y-125900000D02*
X61200000Y-125900000D01*
X54000000Y-149080000D02*
X58725000Y-153805000D01*
X58725000Y-153805000D02*
X58725000Y-157150000D01*
X58725000Y-157150000D02*
X60550000Y-158975000D01*
X54000000Y-151620000D02*
X57075000Y-154695000D01*
X57075000Y-154695000D02*
X57075000Y-158025000D01*
X57075000Y-158025000D02*
X60550000Y-161500000D01*
D30*
G36*
X89340001Y-109967572D02*
G01*
X89340000Y-109967582D01*
X89340001Y-174340000D01*
X35660000Y-174340000D01*
X35660000Y-171793589D01*
X39235000Y-171793589D01*
X39235000Y-172066411D01*
X39288225Y-172333989D01*
X39392629Y-172586043D01*
X39544201Y-172812886D01*
X39737114Y-173005799D01*
X39963957Y-173157371D01*
X40216011Y-173261775D01*
X40483589Y-173315000D01*
X40756411Y-173315000D01*
X41023989Y-173261775D01*
X41276043Y-173157371D01*
X41502886Y-173005799D01*
X41695799Y-172812886D01*
X41847371Y-172586043D01*
X41951775Y-172333989D01*
X42005000Y-172066411D01*
X42005000Y-171793589D01*
X49345000Y-171793589D01*
X49345000Y-172066411D01*
X49398225Y-172333989D01*
X49502629Y-172586043D01*
X49654201Y-172812886D01*
X49847114Y-173005799D01*
X50073957Y-173157371D01*
X50326011Y-173261775D01*
X50593589Y-173315000D01*
X50866411Y-173315000D01*
X51133989Y-173261775D01*
X51386043Y-173157371D01*
X51612886Y-173005799D01*
X51805799Y-172812886D01*
X51957371Y-172586043D01*
X52061775Y-172333989D01*
X52115000Y-172066411D01*
X52115000Y-171793589D01*
X52061775Y-171526011D01*
X51957371Y-171273957D01*
X51805799Y-171047114D01*
X51612886Y-170854201D01*
X51386043Y-170702629D01*
X51133989Y-170598225D01*
X50866411Y-170545000D01*
X50593589Y-170545000D01*
X50326011Y-170598225D01*
X50073957Y-170702629D01*
X49847114Y-170854201D01*
X49654201Y-171047114D01*
X49502629Y-171273957D01*
X49398225Y-171526011D01*
X49345000Y-171793589D01*
X42005000Y-171793589D01*
X41951775Y-171526011D01*
X41847371Y-171273957D01*
X41695799Y-171047114D01*
X41502886Y-170854201D01*
X41276043Y-170702629D01*
X41023989Y-170598225D01*
X40756411Y-170545000D01*
X40483589Y-170545000D01*
X40216011Y-170598225D01*
X39963957Y-170702629D01*
X39737114Y-170854201D01*
X39544201Y-171047114D01*
X39392629Y-171273957D01*
X39288225Y-171526011D01*
X39235000Y-171793589D01*
X35660000Y-171793589D01*
X35660000Y-170093589D01*
X41775000Y-170093589D01*
X41775000Y-170366411D01*
X41828225Y-170633989D01*
X41932629Y-170886043D01*
X42084201Y-171112886D01*
X42277114Y-171305799D01*
X42503957Y-171457371D01*
X42756011Y-171561775D01*
X43023589Y-171615000D01*
X43296411Y-171615000D01*
X43563989Y-171561775D01*
X43816043Y-171457371D01*
X44042886Y-171305799D01*
X44235799Y-171112886D01*
X44387371Y-170886043D01*
X44491775Y-170633989D01*
X44545000Y-170366411D01*
X44545000Y-170093589D01*
X44491775Y-169826011D01*
X44387371Y-169573957D01*
X44235799Y-169347114D01*
X44042886Y-169154201D01*
X43816043Y-169002629D01*
X43563989Y-168898225D01*
X43296411Y-168845000D01*
X43023589Y-168845000D01*
X42756011Y-168898225D01*
X42503957Y-169002629D01*
X42277114Y-169154201D01*
X42084201Y-169347114D01*
X41932629Y-169573957D01*
X41828225Y-169826011D01*
X41775000Y-170093589D01*
X35660000Y-170093589D01*
X35660000Y-163614344D01*
X37185000Y-163614344D01*
X37185000Y-163985656D01*
X37257439Y-164349834D01*
X37399534Y-164692882D01*
X37605825Y-165001618D01*
X37868382Y-165264175D01*
X38177118Y-165470466D01*
X38520166Y-165612561D01*
X38884344Y-165685000D01*
X39255656Y-165685000D01*
X39295667Y-165677041D01*
X39227214Y-165779489D01*
X39056851Y-166190782D01*
X38970000Y-166627409D01*
X38970000Y-167072591D01*
X39056851Y-167509218D01*
X39227214Y-167920511D01*
X39474544Y-168290666D01*
X39789334Y-168605456D01*
X40159489Y-168852786D01*
X40570782Y-169023149D01*
X41007409Y-169110000D01*
X41452591Y-169110000D01*
X41889218Y-169023149D01*
X42300511Y-168852786D01*
X42670666Y-168605456D01*
X42985456Y-168290666D01*
X43232786Y-167920511D01*
X43403149Y-167509218D01*
X43490000Y-167072591D01*
X43490000Y-166627409D01*
X50400000Y-166627409D01*
X50400000Y-167072591D01*
X50486851Y-167509218D01*
X50657214Y-167920511D01*
X50904544Y-168290666D01*
X51219334Y-168605456D01*
X51589489Y-168852786D01*
X52000782Y-169023149D01*
X52437409Y-169110000D01*
X52453265Y-169110000D01*
X52387114Y-169154201D01*
X52194201Y-169347114D01*
X52042629Y-169573957D01*
X51938225Y-169826011D01*
X51885000Y-170093589D01*
X51885000Y-170366411D01*
X51938225Y-170633989D01*
X52042629Y-170886043D01*
X52194201Y-171112886D01*
X52387114Y-171305799D01*
X52613957Y-171457371D01*
X52866011Y-171561775D01*
X53133589Y-171615000D01*
X53406411Y-171615000D01*
X53673989Y-171561775D01*
X53926043Y-171457371D01*
X54152886Y-171305799D01*
X54345799Y-171112886D01*
X54497371Y-170886043D01*
X54601775Y-170633989D01*
X54655000Y-170366411D01*
X54655000Y-170093589D01*
X54601775Y-169826011D01*
X54497371Y-169573957D01*
X54345799Y-169347114D01*
X54152886Y-169154201D01*
X53926043Y-169002629D01*
X53673989Y-168898225D01*
X53638064Y-168891079D01*
X53730511Y-168852786D01*
X54100666Y-168605456D01*
X54415456Y-168290666D01*
X54662786Y-167920511D01*
X54833149Y-167509218D01*
X54920000Y-167072591D01*
X54920000Y-166627409D01*
X54833149Y-166190782D01*
X54662786Y-165779489D01*
X54594333Y-165677041D01*
X54634344Y-165685000D01*
X55005656Y-165685000D01*
X55369834Y-165612561D01*
X55712882Y-165470466D01*
X56021618Y-165264175D01*
X56284175Y-165001618D01*
X56490466Y-164692882D01*
X56632561Y-164349834D01*
X56705000Y-163985656D01*
X56705000Y-163614344D01*
X56632561Y-163250166D01*
X56490466Y-162907118D01*
X56284175Y-162598382D01*
X56021618Y-162335825D01*
X55712882Y-162129534D01*
X55369834Y-161987439D01*
X55005656Y-161915000D01*
X54634344Y-161915000D01*
X54270166Y-161987439D01*
X53927118Y-162129534D01*
X53618382Y-162335825D01*
X53355825Y-162598382D01*
X53149534Y-162907118D01*
X53007439Y-163250166D01*
X52935000Y-163614344D01*
X52935000Y-163985656D01*
X53007439Y-164349834D01*
X53127061Y-164638628D01*
X52882591Y-164590000D01*
X52437409Y-164590000D01*
X52000782Y-164676851D01*
X51589489Y-164847214D01*
X51219334Y-165094544D01*
X50904544Y-165409334D01*
X50657214Y-165779489D01*
X50486851Y-166190782D01*
X50400000Y-166627409D01*
X43490000Y-166627409D01*
X43403149Y-166190782D01*
X43232786Y-165779489D01*
X42985456Y-165409334D01*
X42670666Y-165094544D01*
X42300511Y-164847214D01*
X41889218Y-164676851D01*
X41452591Y-164590000D01*
X41007409Y-164590000D01*
X40762939Y-164638628D01*
X40882561Y-164349834D01*
X40955000Y-163985656D01*
X40955000Y-163614344D01*
X40882561Y-163250166D01*
X40740466Y-162907118D01*
X40534175Y-162598382D01*
X40271618Y-162335825D01*
X39962882Y-162129534D01*
X39619834Y-161987439D01*
X39255656Y-161915000D01*
X38884344Y-161915000D01*
X38520166Y-161987439D01*
X38177118Y-162129534D01*
X37868382Y-162335825D01*
X37605825Y-162598382D01*
X37399534Y-162907118D01*
X37257439Y-163250166D01*
X37185000Y-163614344D01*
X35660000Y-163614344D01*
X35660000Y-144200000D01*
X38561928Y-144200000D01*
X38561928Y-145800000D01*
X38574188Y-145924482D01*
X38610498Y-146044180D01*
X38669463Y-146154494D01*
X38748815Y-146251185D01*
X38845506Y-146330537D01*
X38955820Y-146389502D01*
X39075518Y-146425812D01*
X39083961Y-146426643D01*
X38885363Y-146625241D01*
X38728320Y-146860273D01*
X38620147Y-147121426D01*
X38565000Y-147398665D01*
X38565000Y-147681335D01*
X38620147Y-147958574D01*
X38728320Y-148219727D01*
X38885363Y-148454759D01*
X39085241Y-148654637D01*
X39320273Y-148811680D01*
X39581426Y-148919853D01*
X39858665Y-148975000D01*
X40141335Y-148975000D01*
X40418574Y-148919853D01*
X40679727Y-148811680D01*
X40914759Y-148654637D01*
X41114637Y-148454759D01*
X41271680Y-148219727D01*
X41379853Y-147958574D01*
X41435000Y-147681335D01*
X41435000Y-147398665D01*
X41379853Y-147121426D01*
X41271680Y-146860273D01*
X41114637Y-146625241D01*
X40916039Y-146426643D01*
X40924482Y-146425812D01*
X41044180Y-146389502D01*
X41154494Y-146330537D01*
X41251185Y-146251185D01*
X41330537Y-146154494D01*
X41389502Y-146044180D01*
X41425812Y-145924482D01*
X41438072Y-145800000D01*
X41438072Y-144200000D01*
X41425812Y-144075518D01*
X41389502Y-143955820D01*
X41330537Y-143845506D01*
X41251185Y-143748815D01*
X41154494Y-143669463D01*
X41044180Y-143610498D01*
X40924482Y-143574188D01*
X40835000Y-143565375D01*
X40835000Y-140327930D01*
X40914759Y-140274637D01*
X41114637Y-140074759D01*
X41271680Y-139839727D01*
X41379853Y-139578574D01*
X41435000Y-139301335D01*
X41435000Y-139018665D01*
X43065000Y-139018665D01*
X43065000Y-139301335D01*
X43120147Y-139578574D01*
X43228320Y-139839727D01*
X43385363Y-140074759D01*
X43585241Y-140274637D01*
X43820273Y-140431680D01*
X44081426Y-140539853D01*
X44358665Y-140595000D01*
X44641335Y-140595000D01*
X44918574Y-140539853D01*
X45179727Y-140431680D01*
X45414759Y-140274637D01*
X45614637Y-140074759D01*
X45771680Y-139839727D01*
X45879853Y-139578574D01*
X45935000Y-139301335D01*
X45935000Y-139018665D01*
X48565000Y-139018665D01*
X48565000Y-139301335D01*
X48620147Y-139578574D01*
X48728320Y-139839727D01*
X48885363Y-140074759D01*
X49085241Y-140274637D01*
X49320273Y-140431680D01*
X49581426Y-140539853D01*
X49858665Y-140595000D01*
X50141335Y-140595000D01*
X50418574Y-140539853D01*
X50679727Y-140431680D01*
X50914759Y-140274637D01*
X51114637Y-140074759D01*
X51271680Y-139839727D01*
X51379853Y-139578574D01*
X51435000Y-139301335D01*
X51435000Y-139018665D01*
X51379853Y-138741426D01*
X51271680Y-138480273D01*
X51114637Y-138245241D01*
X50914759Y-138045363D01*
X50679727Y-137888320D01*
X50418574Y-137780147D01*
X50141335Y-137725000D01*
X49858665Y-137725000D01*
X49581426Y-137780147D01*
X49320273Y-137888320D01*
X49085241Y-138045363D01*
X48885363Y-138245241D01*
X48728320Y-138480273D01*
X48620147Y-138741426D01*
X48565000Y-139018665D01*
X45935000Y-139018665D01*
X45879853Y-138741426D01*
X45771680Y-138480273D01*
X45614637Y-138245241D01*
X45414759Y-138045363D01*
X45179727Y-137888320D01*
X44918574Y-137780147D01*
X44641335Y-137725000D01*
X44358665Y-137725000D01*
X44081426Y-137780147D01*
X43820273Y-137888320D01*
X43585241Y-138045363D01*
X43385363Y-138245241D01*
X43228320Y-138480273D01*
X43120147Y-138741426D01*
X43065000Y-139018665D01*
X41435000Y-139018665D01*
X41379853Y-138741426D01*
X41271680Y-138480273D01*
X41114637Y-138245241D01*
X40914759Y-138045363D01*
X40679727Y-137888320D01*
X40418574Y-137780147D01*
X40141335Y-137725000D01*
X39858665Y-137725000D01*
X39581426Y-137780147D01*
X39320273Y-137888320D01*
X39085241Y-138045363D01*
X38885363Y-138245241D01*
X38728320Y-138480273D01*
X38620147Y-138741426D01*
X38565000Y-139018665D01*
X38565000Y-139301335D01*
X38620147Y-139578574D01*
X38728320Y-139839727D01*
X38885363Y-140074759D01*
X39085241Y-140274637D01*
X39165000Y-140327930D01*
X39165001Y-143565375D01*
X39075518Y-143574188D01*
X38955820Y-143610498D01*
X38845506Y-143669463D01*
X38748815Y-143748815D01*
X38669463Y-143845506D01*
X38610498Y-143955820D01*
X38574188Y-144075518D01*
X38561928Y-144200000D01*
X35660000Y-144200000D01*
X35660000Y-125358665D01*
X38565000Y-125358665D01*
X38565000Y-125641335D01*
X38620147Y-125918574D01*
X38728320Y-126179727D01*
X38885363Y-126414759D01*
X38965000Y-126494396D01*
X38965001Y-128005603D01*
X38885363Y-128085241D01*
X38728320Y-128320273D01*
X38620147Y-128581426D01*
X38565000Y-128858665D01*
X38565000Y-129141335D01*
X38620147Y-129418574D01*
X38728320Y-129679727D01*
X38885363Y-129914759D01*
X39085241Y-130114637D01*
X39320273Y-130271680D01*
X39581426Y-130379853D01*
X39858665Y-130435000D01*
X40141335Y-130435000D01*
X40418574Y-130379853D01*
X40679727Y-130271680D01*
X40914759Y-130114637D01*
X40994396Y-130035000D01*
X43505604Y-130035000D01*
X43585241Y-130114637D01*
X43820273Y-130271680D01*
X44081426Y-130379853D01*
X44358665Y-130435000D01*
X44641335Y-130435000D01*
X44918574Y-130379853D01*
X45179727Y-130271680D01*
X45414759Y-130114637D01*
X45494396Y-130035000D01*
X45580542Y-130035000D01*
X45631370Y-130040006D01*
X45682198Y-130035000D01*
X45682208Y-130035000D01*
X45834265Y-130020024D01*
X46029363Y-129960841D01*
X46209167Y-129864734D01*
X46350000Y-129749155D01*
X46372722Y-129767803D01*
X46490832Y-129864734D01*
X46584423Y-129914759D01*
X46670637Y-129960841D01*
X46865735Y-130020024D01*
X47017792Y-130035000D01*
X47017801Y-130035000D01*
X47068629Y-130040006D01*
X47119457Y-130035000D01*
X49005604Y-130035000D01*
X49085241Y-130114637D01*
X49320273Y-130271680D01*
X49581426Y-130379853D01*
X49858665Y-130435000D01*
X50141335Y-130435000D01*
X50418574Y-130379853D01*
X50679727Y-130271680D01*
X50914759Y-130114637D01*
X50994396Y-130035000D01*
X53505604Y-130035000D01*
X53585241Y-130114637D01*
X53820273Y-130271680D01*
X54081426Y-130379853D01*
X54358665Y-130435000D01*
X54471290Y-130435000D01*
X55265001Y-131228712D01*
X55265001Y-137945298D01*
X55179727Y-137888320D01*
X54918574Y-137780147D01*
X54641335Y-137725000D01*
X54358665Y-137725000D01*
X54081426Y-137780147D01*
X53820273Y-137888320D01*
X53585241Y-138045363D01*
X53385363Y-138245241D01*
X53228320Y-138480273D01*
X53120147Y-138741426D01*
X53065000Y-139018665D01*
X53065000Y-139301335D01*
X53083714Y-139395418D01*
X48564264Y-143914868D01*
X48534759Y-143885363D01*
X48299727Y-143728320D01*
X48038574Y-143620147D01*
X47761335Y-143565000D01*
X47478665Y-143565000D01*
X47201426Y-143620147D01*
X46940273Y-143728320D01*
X46705241Y-143885363D01*
X46505363Y-144085241D01*
X46348320Y-144320273D01*
X46240147Y-144581426D01*
X46185000Y-144858665D01*
X46185000Y-145141335D01*
X46200396Y-145218736D01*
X41938574Y-149480559D01*
X41906710Y-149506709D01*
X41880562Y-149538571D01*
X41802364Y-149633855D01*
X41724828Y-149778914D01*
X41677082Y-149936312D01*
X41660960Y-150100000D01*
X41665001Y-150141029D01*
X41665000Y-159178189D01*
X41660458Y-159179567D01*
X41506836Y-159261679D01*
X41372185Y-159372185D01*
X41261679Y-159506836D01*
X41179567Y-159660458D01*
X41129002Y-159827148D01*
X41111928Y-160000500D01*
X41111928Y-160999500D01*
X41129002Y-161172852D01*
X41179567Y-161339542D01*
X41261679Y-161493164D01*
X41372185Y-161627815D01*
X41506836Y-161738321D01*
X41660458Y-161820433D01*
X41827148Y-161870998D01*
X42000500Y-161888072D01*
X42999500Y-161888072D01*
X43172852Y-161870998D01*
X43339542Y-161820433D01*
X43493164Y-161738321D01*
X43627815Y-161627815D01*
X43738321Y-161493164D01*
X43757654Y-161456993D01*
X44262612Y-161456993D01*
X44328137Y-161695860D01*
X44575116Y-161811760D01*
X44839960Y-161877250D01*
X45112492Y-161889812D01*
X45382238Y-161848965D01*
X45638832Y-161756277D01*
X45751863Y-161695860D01*
X45817388Y-161456993D01*
X46802612Y-161456993D01*
X46868137Y-161695860D01*
X47115116Y-161811760D01*
X47379960Y-161877250D01*
X47652492Y-161889812D01*
X47922238Y-161848965D01*
X48178832Y-161756277D01*
X48291863Y-161695860D01*
X48357388Y-161456993D01*
X49342612Y-161456993D01*
X49408137Y-161695860D01*
X49655116Y-161811760D01*
X49919960Y-161877250D01*
X50192492Y-161889812D01*
X50462238Y-161848965D01*
X50718832Y-161756277D01*
X50831863Y-161695860D01*
X50897388Y-161456993D01*
X50120000Y-160679605D01*
X49342612Y-161456993D01*
X48357388Y-161456993D01*
X47580000Y-160679605D01*
X46802612Y-161456993D01*
X45817388Y-161456993D01*
X45040000Y-160679605D01*
X44262612Y-161456993D01*
X43757654Y-161456993D01*
X43820433Y-161339542D01*
X43858010Y-161215668D01*
X44083007Y-161277388D01*
X44860395Y-160500000D01*
X45219605Y-160500000D01*
X45996993Y-161277388D01*
X46235860Y-161211863D01*
X46308578Y-161056904D01*
X46323723Y-161098832D01*
X46384140Y-161211863D01*
X46623007Y-161277388D01*
X47400395Y-160500000D01*
X47759605Y-160500000D01*
X48536993Y-161277388D01*
X48775860Y-161211863D01*
X48848578Y-161056904D01*
X48863723Y-161098832D01*
X48924140Y-161211863D01*
X49163007Y-161277388D01*
X49940395Y-160500000D01*
X50299605Y-160500000D01*
X51076993Y-161277388D01*
X51315860Y-161211863D01*
X51431760Y-160964884D01*
X51497250Y-160700040D01*
X51509812Y-160427508D01*
X51468965Y-160157762D01*
X51376277Y-159901168D01*
X51315860Y-159788137D01*
X51076993Y-159722612D01*
X50299605Y-160500000D01*
X49940395Y-160500000D01*
X49163007Y-159722612D01*
X48924140Y-159788137D01*
X48851422Y-159943096D01*
X48836277Y-159901168D01*
X48775860Y-159788137D01*
X48536993Y-159722612D01*
X47759605Y-160500000D01*
X47400395Y-160500000D01*
X46623007Y-159722612D01*
X46384140Y-159788137D01*
X46311422Y-159943096D01*
X46296277Y-159901168D01*
X46235860Y-159788137D01*
X45996993Y-159722612D01*
X45219605Y-160500000D01*
X44860395Y-160500000D01*
X44083007Y-159722612D01*
X43858010Y-159784332D01*
X43820433Y-159660458D01*
X43757655Y-159543007D01*
X44262612Y-159543007D01*
X45040000Y-160320395D01*
X45817388Y-159543007D01*
X46802612Y-159543007D01*
X47580000Y-160320395D01*
X48357388Y-159543007D01*
X49342612Y-159543007D01*
X50120000Y-160320395D01*
X50897388Y-159543007D01*
X50831863Y-159304140D01*
X50584884Y-159188240D01*
X50320040Y-159122750D01*
X50047508Y-159110188D01*
X49777762Y-159151035D01*
X49521168Y-159243723D01*
X49408137Y-159304140D01*
X49342612Y-159543007D01*
X48357388Y-159543007D01*
X48291863Y-159304140D01*
X48044884Y-159188240D01*
X47780040Y-159122750D01*
X47507508Y-159110188D01*
X47237762Y-159151035D01*
X46981168Y-159243723D01*
X46868137Y-159304140D01*
X46802612Y-159543007D01*
X45817388Y-159543007D01*
X45751863Y-159304140D01*
X45504884Y-159188240D01*
X45240040Y-159122750D01*
X44967508Y-159110188D01*
X44697762Y-159151035D01*
X44441168Y-159243723D01*
X44328137Y-159304140D01*
X44262612Y-159543007D01*
X43757655Y-159543007D01*
X43738321Y-159506836D01*
X43627815Y-159372185D01*
X43582246Y-159334787D01*
X43633589Y-159345000D01*
X43906411Y-159345000D01*
X44173989Y-159291775D01*
X44426043Y-159187371D01*
X44652886Y-159035799D01*
X44771692Y-158916993D01*
X45532612Y-158916993D01*
X45598137Y-159155860D01*
X45845116Y-159271760D01*
X46109960Y-159337250D01*
X46382492Y-159349812D01*
X46652238Y-159308965D01*
X46908832Y-159216277D01*
X47021863Y-159155860D01*
X47087388Y-158916993D01*
X48072612Y-158916993D01*
X48138137Y-159155860D01*
X48385116Y-159271760D01*
X48649960Y-159337250D01*
X48922492Y-159349812D01*
X49192238Y-159308965D01*
X49448832Y-159216277D01*
X49561863Y-159155860D01*
X49627388Y-158916993D01*
X50612612Y-158916993D01*
X50678137Y-159155860D01*
X50925116Y-159271760D01*
X51189960Y-159337250D01*
X51462492Y-159349812D01*
X51732238Y-159308965D01*
X51988832Y-159216277D01*
X52101863Y-159155860D01*
X52167388Y-158916993D01*
X51390000Y-158139605D01*
X50612612Y-158916993D01*
X49627388Y-158916993D01*
X48850000Y-158139605D01*
X48072612Y-158916993D01*
X47087388Y-158916993D01*
X46310000Y-158139605D01*
X45532612Y-158916993D01*
X44771692Y-158916993D01*
X44845799Y-158842886D01*
X44997371Y-158616043D01*
X45038511Y-158516721D01*
X45053723Y-158558832D01*
X45114140Y-158671863D01*
X45353007Y-158737388D01*
X46130395Y-157960000D01*
X46489605Y-157960000D01*
X47266993Y-158737388D01*
X47505860Y-158671863D01*
X47578578Y-158516904D01*
X47593723Y-158558832D01*
X47654140Y-158671863D01*
X47893007Y-158737388D01*
X48670395Y-157960000D01*
X49029605Y-157960000D01*
X49806993Y-158737388D01*
X50045860Y-158671863D01*
X50118578Y-158516904D01*
X50133723Y-158558832D01*
X50194140Y-158671863D01*
X50433007Y-158737388D01*
X51210395Y-157960000D01*
X51569605Y-157960000D01*
X52346993Y-158737388D01*
X52585860Y-158671863D01*
X52701760Y-158424884D01*
X52767250Y-158160040D01*
X52779812Y-157887508D01*
X52738965Y-157617762D01*
X52646277Y-157361168D01*
X52585860Y-157248137D01*
X52346993Y-157182612D01*
X51569605Y-157960000D01*
X51210395Y-157960000D01*
X50433007Y-157182612D01*
X50194140Y-157248137D01*
X50121422Y-157403096D01*
X50106277Y-157361168D01*
X50045860Y-157248137D01*
X49806993Y-157182612D01*
X49029605Y-157960000D01*
X48670395Y-157960000D01*
X47893007Y-157182612D01*
X47654140Y-157248137D01*
X47581422Y-157403096D01*
X47566277Y-157361168D01*
X47505860Y-157248137D01*
X47266993Y-157182612D01*
X46489605Y-157960000D01*
X46130395Y-157960000D01*
X45353007Y-157182612D01*
X45114140Y-157248137D01*
X45039836Y-157406477D01*
X44997371Y-157303957D01*
X44845799Y-157077114D01*
X44771692Y-157003007D01*
X45532612Y-157003007D01*
X46310000Y-157780395D01*
X47087388Y-157003007D01*
X48072612Y-157003007D01*
X48850000Y-157780395D01*
X49627388Y-157003007D01*
X50612612Y-157003007D01*
X51390000Y-157780395D01*
X52167388Y-157003007D01*
X52101863Y-156764140D01*
X51854884Y-156648240D01*
X51590040Y-156582750D01*
X51317508Y-156570188D01*
X51047762Y-156611035D01*
X50791168Y-156703723D01*
X50678137Y-156764140D01*
X50612612Y-157003007D01*
X49627388Y-157003007D01*
X49561863Y-156764140D01*
X49314884Y-156648240D01*
X49050040Y-156582750D01*
X48777508Y-156570188D01*
X48507762Y-156611035D01*
X48251168Y-156703723D01*
X48138137Y-156764140D01*
X48072612Y-157003007D01*
X47087388Y-157003007D01*
X47021863Y-156764140D01*
X46774884Y-156648240D01*
X46510040Y-156582750D01*
X46237508Y-156570188D01*
X45967762Y-156611035D01*
X45711168Y-156703723D01*
X45598137Y-156764140D01*
X45532612Y-157003007D01*
X44771692Y-157003007D01*
X44652886Y-156884201D01*
X44585000Y-156838841D01*
X44585000Y-151745867D01*
X44769438Y-151561429D01*
X47376242Y-148954626D01*
X47478665Y-148975000D01*
X47761335Y-148975000D01*
X48038574Y-148919853D01*
X48299727Y-148811680D01*
X48534759Y-148654637D01*
X48734637Y-148454759D01*
X48891680Y-148219727D01*
X48999853Y-147958574D01*
X49055000Y-147681335D01*
X49055000Y-147398665D01*
X48999853Y-147121426D01*
X48891680Y-146860273D01*
X48734637Y-146625241D01*
X48534759Y-146425363D01*
X48302241Y-146270000D01*
X48534759Y-146114637D01*
X48734637Y-145914759D01*
X48794053Y-145825837D01*
X48823689Y-145822918D01*
X48981087Y-145775172D01*
X49126146Y-145697636D01*
X49253291Y-145593291D01*
X49279446Y-145561421D01*
X51013867Y-143827000D01*
X52627750Y-143827000D01*
X52673750Y-143873000D01*
X53873000Y-143873000D01*
X53873000Y-143853000D01*
X54127000Y-143853000D01*
X54127000Y-143873000D01*
X54147000Y-143873000D01*
X54147000Y-144127000D01*
X54127000Y-144127000D01*
X54127000Y-144147000D01*
X53873000Y-144147000D01*
X53873000Y-144127000D01*
X52673750Y-144127000D01*
X52515000Y-144285750D01*
X52511928Y-144850000D01*
X52524188Y-144974482D01*
X52560498Y-145094180D01*
X52619463Y-145204494D01*
X52698815Y-145301185D01*
X52795506Y-145380537D01*
X52905820Y-145439502D01*
X52978380Y-145461513D01*
X52846525Y-145593368D01*
X52684010Y-145836589D01*
X52572068Y-146106842D01*
X52515000Y-146393740D01*
X52515000Y-146686260D01*
X52572068Y-146973158D01*
X52684010Y-147243411D01*
X52846525Y-147486632D01*
X53053368Y-147693475D01*
X53227760Y-147810000D01*
X53053368Y-147926525D01*
X52846525Y-148133368D01*
X52684010Y-148376589D01*
X52572068Y-148646842D01*
X52515000Y-148933740D01*
X52515000Y-149226260D01*
X52572068Y-149513158D01*
X52684010Y-149783411D01*
X52846525Y-150026632D01*
X53053368Y-150233475D01*
X53227760Y-150350000D01*
X53053368Y-150466525D01*
X52846525Y-150673368D01*
X52684010Y-150916589D01*
X52572068Y-151186842D01*
X52515000Y-151473740D01*
X52515000Y-151766260D01*
X52572068Y-152053158D01*
X52684010Y-152323411D01*
X52846525Y-152566632D01*
X53053368Y-152773475D01*
X53296589Y-152935990D01*
X53566842Y-153047932D01*
X53853740Y-153105000D01*
X54146260Y-153105000D01*
X54277940Y-153078807D01*
X56240000Y-155040869D01*
X56240001Y-157983972D01*
X56235960Y-158025000D01*
X56252082Y-158188688D01*
X56299828Y-158346086D01*
X56377364Y-158491145D01*
X56400907Y-158519832D01*
X56481710Y-158618291D01*
X56513574Y-158644441D01*
X59135397Y-161266265D01*
X59120001Y-161343666D01*
X59120001Y-161626336D01*
X59175148Y-161903575D01*
X59283321Y-162164728D01*
X59440364Y-162399760D01*
X59640242Y-162599638D01*
X59872760Y-162755001D01*
X59640242Y-162910364D01*
X59440364Y-163110242D01*
X59283321Y-163345274D01*
X59175148Y-163606427D01*
X59120001Y-163883666D01*
X59120001Y-164166336D01*
X59175148Y-164443575D01*
X59283321Y-164704728D01*
X59440364Y-164939760D01*
X59640242Y-165139638D01*
X59872760Y-165295001D01*
X59640242Y-165450364D01*
X59440364Y-165650242D01*
X59283321Y-165885274D01*
X59175148Y-166146427D01*
X59120001Y-166423666D01*
X59120001Y-166706336D01*
X59175148Y-166983575D01*
X59283321Y-167244728D01*
X59440364Y-167479760D01*
X59640242Y-167679638D01*
X59872760Y-167835001D01*
X59640242Y-167990364D01*
X59440364Y-168190242D01*
X59283321Y-168425274D01*
X59175148Y-168686427D01*
X59120001Y-168963666D01*
X59120001Y-169246336D01*
X59175148Y-169523575D01*
X59283321Y-169784728D01*
X59440364Y-170019760D01*
X59640242Y-170219638D01*
X59872760Y-170375001D01*
X59640242Y-170530364D01*
X59440364Y-170730242D01*
X59283321Y-170965274D01*
X59175148Y-171226427D01*
X59120001Y-171503666D01*
X59120001Y-171786336D01*
X59175148Y-172063575D01*
X59283321Y-172324728D01*
X59440364Y-172559760D01*
X59640242Y-172759638D01*
X59875274Y-172916681D01*
X60136427Y-173024854D01*
X60413666Y-173080001D01*
X60696336Y-173080001D01*
X60973575Y-173024854D01*
X61234728Y-172916681D01*
X61469760Y-172759638D01*
X61669638Y-172559760D01*
X61826681Y-172324728D01*
X61934854Y-172063575D01*
X61990001Y-171786336D01*
X61990001Y-171503666D01*
X61934854Y-171226427D01*
X61826681Y-170965274D01*
X61669638Y-170730242D01*
X61469760Y-170530364D01*
X61237242Y-170375001D01*
X61469760Y-170219638D01*
X61669638Y-170019760D01*
X61826681Y-169784728D01*
X61934854Y-169523575D01*
X61990001Y-169246336D01*
X61990001Y-168963666D01*
X61934854Y-168686427D01*
X61826681Y-168425274D01*
X61669638Y-168190242D01*
X61469760Y-167990364D01*
X61237242Y-167835001D01*
X61469760Y-167679638D01*
X61544950Y-167604448D01*
X68001933Y-174061432D01*
X68028079Y-174093291D01*
X68155224Y-174197636D01*
X68300283Y-174275172D01*
X68457681Y-174322918D01*
X68580351Y-174335000D01*
X68580352Y-174335000D01*
X68621370Y-174339040D01*
X68662388Y-174335000D01*
X80208982Y-174335000D01*
X80250000Y-174339040D01*
X80291018Y-174335000D01*
X80291019Y-174335000D01*
X80413689Y-174322918D01*
X80571087Y-174275172D01*
X80716146Y-174197636D01*
X80843291Y-174093291D01*
X80869446Y-174061421D01*
X84061428Y-170869440D01*
X84093291Y-170843291D01*
X84197636Y-170716146D01*
X84275172Y-170571087D01*
X84322918Y-170413689D01*
X84326894Y-170373321D01*
X84333617Y-170305059D01*
X84454014Y-170240706D01*
X84680134Y-170055134D01*
X84865706Y-169829014D01*
X85003599Y-169571034D01*
X85088513Y-169291111D01*
X85117185Y-169000000D01*
X85088513Y-168708889D01*
X85003599Y-168428966D01*
X84865706Y-168170986D01*
X84680134Y-167944866D01*
X84454014Y-167759294D01*
X84436626Y-167750000D01*
X84454014Y-167740706D01*
X84680134Y-167555134D01*
X84865706Y-167329014D01*
X85003599Y-167071034D01*
X85088513Y-166791111D01*
X85117185Y-166500000D01*
X85088513Y-166208889D01*
X85003599Y-165928966D01*
X84865706Y-165670986D01*
X84680134Y-165444866D01*
X84454014Y-165259294D01*
X84436626Y-165250000D01*
X84454014Y-165240706D01*
X84680134Y-165055134D01*
X84865706Y-164829014D01*
X85003599Y-164571034D01*
X85088513Y-164291111D01*
X85117185Y-164000000D01*
X85088513Y-163708889D01*
X85003599Y-163428966D01*
X84865706Y-163170986D01*
X84680134Y-162944866D01*
X84454014Y-162759294D01*
X84436626Y-162750000D01*
X84454014Y-162740706D01*
X84680134Y-162555134D01*
X84865706Y-162329014D01*
X85003599Y-162071034D01*
X85088513Y-161791111D01*
X85117185Y-161500000D01*
X85088513Y-161208889D01*
X85003599Y-160928966D01*
X84865706Y-160670986D01*
X84684392Y-160450055D01*
X84719180Y-160439502D01*
X84829494Y-160380537D01*
X84926185Y-160301185D01*
X85005537Y-160204494D01*
X85064502Y-160094180D01*
X85100812Y-159974482D01*
X85113072Y-159850000D01*
X85110000Y-159285750D01*
X84951250Y-159127000D01*
X83627000Y-159127000D01*
X83627000Y-159147000D01*
X83373000Y-159147000D01*
X83373000Y-159127000D01*
X82048750Y-159127000D01*
X81890000Y-159285750D01*
X81886928Y-159850000D01*
X81899188Y-159974482D01*
X81935498Y-160094180D01*
X81994463Y-160204494D01*
X82073815Y-160301185D01*
X82170506Y-160380537D01*
X82280820Y-160439502D01*
X82315608Y-160450055D01*
X82303342Y-160465000D01*
X82153711Y-160465000D01*
X80535000Y-158846290D01*
X80535000Y-158150000D01*
X81886928Y-158150000D01*
X81890000Y-158714250D01*
X82048750Y-158873000D01*
X83373000Y-158873000D01*
X83373000Y-157673750D01*
X83627000Y-157673750D01*
X83627000Y-158873000D01*
X84951250Y-158873000D01*
X85110000Y-158714250D01*
X85113072Y-158150000D01*
X85100812Y-158025518D01*
X85064502Y-157905820D01*
X85005537Y-157795506D01*
X84926185Y-157698815D01*
X84829494Y-157619463D01*
X84719180Y-157560498D01*
X84599482Y-157524188D01*
X84475000Y-157511928D01*
X83785750Y-157515000D01*
X83627000Y-157673750D01*
X83373000Y-157673750D01*
X83214250Y-157515000D01*
X82525000Y-157511928D01*
X82400518Y-157524188D01*
X82280820Y-157560498D01*
X82170506Y-157619463D01*
X82073815Y-157698815D01*
X81994463Y-157795506D01*
X81935498Y-157905820D01*
X81899188Y-158025518D01*
X81886928Y-158150000D01*
X80535000Y-158150000D01*
X80535000Y-151856890D01*
X81933524Y-151856890D01*
X82025648Y-152119858D01*
X82172504Y-152371193D01*
X82365571Y-152589049D01*
X82597430Y-152765053D01*
X82859170Y-152892442D01*
X83140733Y-152966320D01*
X83373000Y-152826165D01*
X83373000Y-151627000D01*
X83627000Y-151627000D01*
X83627000Y-152826165D01*
X83859267Y-152966320D01*
X84140830Y-152892442D01*
X84402570Y-152765053D01*
X84634429Y-152589049D01*
X84827496Y-152371193D01*
X84974352Y-152119858D01*
X85066476Y-151856890D01*
X84945155Y-151627000D01*
X83627000Y-151627000D01*
X83373000Y-151627000D01*
X82054845Y-151627000D01*
X81933524Y-151856890D01*
X80535000Y-151856890D01*
X80535000Y-147527000D01*
X82296777Y-147527000D01*
X82319866Y-147555134D01*
X82545986Y-147740706D01*
X82563374Y-147750000D01*
X82545986Y-147759294D01*
X82319866Y-147944866D01*
X82134294Y-148170986D01*
X81996401Y-148428966D01*
X81911487Y-148708889D01*
X81882815Y-149000000D01*
X81911487Y-149291111D01*
X81996401Y-149571034D01*
X82134294Y-149829014D01*
X82319866Y-150055134D01*
X82545986Y-150240706D01*
X82571722Y-150254462D01*
X82365571Y-150410951D01*
X82172504Y-150628807D01*
X82025648Y-150880142D01*
X81933524Y-151143110D01*
X82054845Y-151373000D01*
X83373000Y-151373000D01*
X83373000Y-151353000D01*
X83627000Y-151353000D01*
X83627000Y-151373000D01*
X84945155Y-151373000D01*
X85066476Y-151143110D01*
X84974352Y-150880142D01*
X84827496Y-150628807D01*
X84634429Y-150410951D01*
X84428278Y-150254462D01*
X84454014Y-150240706D01*
X84680134Y-150055134D01*
X84865706Y-149829014D01*
X85003599Y-149571034D01*
X85088513Y-149291111D01*
X85117185Y-149000000D01*
X85088513Y-148708889D01*
X85003599Y-148428966D01*
X84865706Y-148170986D01*
X84680134Y-147944866D01*
X84454014Y-147759294D01*
X84436626Y-147750000D01*
X84454014Y-147740706D01*
X84680134Y-147555134D01*
X84865706Y-147329014D01*
X85003599Y-147071034D01*
X85088513Y-146791111D01*
X85117185Y-146500000D01*
X85088513Y-146208889D01*
X85003599Y-145928966D01*
X84865706Y-145670986D01*
X84680134Y-145444866D01*
X84616663Y-145392777D01*
X84718386Y-145338405D01*
X84852962Y-145227962D01*
X84963405Y-145093386D01*
X85045472Y-144939850D01*
X85096008Y-144773254D01*
X85113072Y-144600000D01*
X85113072Y-143400000D01*
X85096008Y-143226746D01*
X85045472Y-143060150D01*
X84963405Y-142906614D01*
X84852962Y-142772038D01*
X84718386Y-142661595D01*
X84564850Y-142579528D01*
X84398254Y-142528992D01*
X84225000Y-142511928D01*
X83685639Y-142511928D01*
X77230001Y-136056291D01*
X77230001Y-135943666D01*
X77174854Y-135666427D01*
X77066681Y-135405274D01*
X76909638Y-135170242D01*
X76709760Y-134970364D01*
X76474728Y-134813321D01*
X76213575Y-134705148D01*
X75936336Y-134650001D01*
X75653666Y-134650001D01*
X75376427Y-134705148D01*
X75115274Y-134813321D01*
X74880242Y-134970364D01*
X74680364Y-135170242D01*
X74523321Y-135405274D01*
X74415148Y-135666427D01*
X74360001Y-135943666D01*
X74360001Y-136226336D01*
X74415148Y-136503575D01*
X74523321Y-136764728D01*
X74680364Y-136999760D01*
X74880242Y-137199638D01*
X75115274Y-137356681D01*
X75125866Y-137361068D01*
X74939870Y-137472616D01*
X74731482Y-137661587D01*
X74563964Y-137887581D01*
X74443755Y-138141914D01*
X74403097Y-138275962D01*
X74525086Y-138498001D01*
X75668001Y-138498001D01*
X75668001Y-138478001D01*
X75922001Y-138478001D01*
X75922001Y-138498001D01*
X75942001Y-138498001D01*
X75942001Y-138752001D01*
X75922001Y-138752001D01*
X75922001Y-138772001D01*
X75668001Y-138772001D01*
X75668001Y-138752001D01*
X74525086Y-138752001D01*
X74403097Y-138974040D01*
X74443755Y-139108088D01*
X74563964Y-139362421D01*
X74731482Y-139588415D01*
X74939870Y-139777386D01*
X75125866Y-139888934D01*
X75115274Y-139893321D01*
X74880242Y-140050364D01*
X74680364Y-140250242D01*
X74523321Y-140485274D01*
X74415148Y-140746427D01*
X74360001Y-141023666D01*
X74360001Y-141306336D01*
X74415148Y-141583575D01*
X74523321Y-141844728D01*
X74680364Y-142079760D01*
X74880242Y-142279638D01*
X75112760Y-142435001D01*
X74880242Y-142590364D01*
X74805606Y-142665000D01*
X71878711Y-142665000D01*
X61493583Y-132279872D01*
X82265000Y-132279872D01*
X82265000Y-132720128D01*
X82350890Y-133151925D01*
X82519369Y-133558669D01*
X82763962Y-133924729D01*
X83075271Y-134236038D01*
X83441331Y-134480631D01*
X83848075Y-134649110D01*
X84279872Y-134735000D01*
X84720128Y-134735000D01*
X85151925Y-134649110D01*
X85558669Y-134480631D01*
X85924729Y-134236038D01*
X86236038Y-133924729D01*
X86480631Y-133558669D01*
X86649110Y-133151925D01*
X86735000Y-132720128D01*
X86735000Y-132279872D01*
X86649110Y-131848075D01*
X86480631Y-131441331D01*
X86236038Y-131075271D01*
X85924729Y-130763962D01*
X85558669Y-130519369D01*
X85151925Y-130350890D01*
X84720128Y-130265000D01*
X84279872Y-130265000D01*
X83848075Y-130350890D01*
X83441331Y-130519369D01*
X83075271Y-130763962D01*
X82763962Y-131075271D01*
X82519369Y-131441331D01*
X82350890Y-131848075D01*
X82265000Y-132279872D01*
X61493583Y-132279872D01*
X58282225Y-129068514D01*
X59865000Y-129068514D01*
X59865000Y-129331486D01*
X59916304Y-129589405D01*
X60016939Y-129832359D01*
X60163038Y-130051013D01*
X60348987Y-130236962D01*
X60567641Y-130383061D01*
X60810595Y-130483696D01*
X61068514Y-130535000D01*
X61331486Y-130535000D01*
X61589405Y-130483696D01*
X61832359Y-130383061D01*
X62051013Y-130236962D01*
X62236962Y-130051013D01*
X62383061Y-129832359D01*
X62450000Y-129670754D01*
X62516939Y-129832359D01*
X62663038Y-130051013D01*
X62848987Y-130236962D01*
X63067641Y-130383061D01*
X63310595Y-130483696D01*
X63568514Y-130535000D01*
X63831486Y-130535000D01*
X64089405Y-130483696D01*
X64332359Y-130383061D01*
X64551013Y-130236962D01*
X64736962Y-130051013D01*
X64883061Y-129832359D01*
X64950000Y-129670754D01*
X65016939Y-129832359D01*
X65163038Y-130051013D01*
X65348987Y-130236962D01*
X65567641Y-130383061D01*
X65810595Y-130483696D01*
X66068514Y-130535000D01*
X66331486Y-130535000D01*
X66589405Y-130483696D01*
X66832359Y-130383061D01*
X67051013Y-130236962D01*
X67236962Y-130051013D01*
X67383061Y-129832359D01*
X67483696Y-129589405D01*
X67535000Y-129331486D01*
X67535000Y-129068514D01*
X67483696Y-128810595D01*
X67383061Y-128567641D01*
X67236962Y-128348987D01*
X67051013Y-128163038D01*
X66832359Y-128016939D01*
X66589405Y-127916304D01*
X66331486Y-127865000D01*
X66068514Y-127865000D01*
X65810595Y-127916304D01*
X65567641Y-128016939D01*
X65348987Y-128163038D01*
X65163038Y-128348987D01*
X65016939Y-128567641D01*
X64950000Y-128729246D01*
X64883061Y-128567641D01*
X64736962Y-128348987D01*
X64551013Y-128163038D01*
X64332359Y-128016939D01*
X64089405Y-127916304D01*
X63831486Y-127865000D01*
X63568514Y-127865000D01*
X63310595Y-127916304D01*
X63067641Y-128016939D01*
X62848987Y-128163038D01*
X62663038Y-128348987D01*
X62516939Y-128567641D01*
X62450000Y-128729246D01*
X62383061Y-128567641D01*
X62236962Y-128348987D01*
X62051013Y-128163038D01*
X61832359Y-128016939D01*
X61589405Y-127916304D01*
X61331486Y-127865000D01*
X61068514Y-127865000D01*
X60810595Y-127916304D01*
X60567641Y-128016939D01*
X60348987Y-128163038D01*
X60163038Y-128348987D01*
X60016939Y-128567641D01*
X59916304Y-128810595D01*
X59865000Y-129068514D01*
X58282225Y-129068514D01*
X57517807Y-128304097D01*
X57485396Y-128264604D01*
X57327797Y-128135266D01*
X57147993Y-128039159D01*
X56952895Y-127979976D01*
X56800838Y-127965000D01*
X56800828Y-127965000D01*
X56750000Y-127959994D01*
X56699172Y-127965000D01*
X55827000Y-127965000D01*
X55827000Y-126412420D01*
X55838072Y-126300000D01*
X55838072Y-124700000D01*
X55827000Y-124587580D01*
X55827000Y-124367868D01*
X57920563Y-126461432D01*
X57946709Y-126493291D01*
X57978568Y-126519437D01*
X57978570Y-126519439D01*
X58073854Y-126597636D01*
X58218913Y-126675172D01*
X58376311Y-126722918D01*
X58392191Y-126724482D01*
X58540000Y-126739040D01*
X58581018Y-126735000D01*
X59877379Y-126735000D01*
X59910498Y-126844180D01*
X59969463Y-126954494D01*
X60048815Y-127051185D01*
X60145506Y-127130537D01*
X60255820Y-127189502D01*
X60375518Y-127225812D01*
X60500000Y-127238072D01*
X61900000Y-127238072D01*
X62024482Y-127225812D01*
X62144180Y-127189502D01*
X62254494Y-127130537D01*
X62351185Y-127051185D01*
X62430537Y-126954494D01*
X62489502Y-126844180D01*
X62525812Y-126724482D01*
X62538072Y-126600000D01*
X62538072Y-126563987D01*
X62663038Y-126751013D01*
X62848987Y-126936962D01*
X63067641Y-127083061D01*
X63310595Y-127183696D01*
X63568514Y-127235000D01*
X63831486Y-127235000D01*
X64089405Y-127183696D01*
X64332359Y-127083061D01*
X64551013Y-126936962D01*
X64736962Y-126751013D01*
X64883061Y-126532359D01*
X64950000Y-126370754D01*
X65016939Y-126532359D01*
X65163038Y-126751013D01*
X65348987Y-126936962D01*
X65567641Y-127083061D01*
X65810595Y-127183696D01*
X66068514Y-127235000D01*
X66331486Y-127235000D01*
X66589405Y-127183696D01*
X66832359Y-127083061D01*
X67051013Y-126936962D01*
X67236962Y-126751013D01*
X67383061Y-126532359D01*
X67483696Y-126289405D01*
X67535000Y-126031486D01*
X67535000Y-125768514D01*
X67483696Y-125510595D01*
X67383061Y-125267641D01*
X67236962Y-125048987D01*
X67051013Y-124863038D01*
X66832359Y-124716939D01*
X66589405Y-124616304D01*
X66331486Y-124565000D01*
X66068514Y-124565000D01*
X65810595Y-124616304D01*
X65567641Y-124716939D01*
X65348987Y-124863038D01*
X65163038Y-125048987D01*
X65016939Y-125267641D01*
X64950000Y-125429246D01*
X64883061Y-125267641D01*
X64736962Y-125048987D01*
X64551013Y-124863038D01*
X64332359Y-124716939D01*
X64089405Y-124616304D01*
X63831486Y-124565000D01*
X63568514Y-124565000D01*
X63310595Y-124616304D01*
X63067641Y-124716939D01*
X62848987Y-124863038D01*
X62663038Y-125048987D01*
X62538072Y-125236013D01*
X62538072Y-125200000D01*
X62525812Y-125075518D01*
X62489502Y-124955820D01*
X62430537Y-124845506D01*
X62351185Y-124748815D01*
X62254494Y-124669463D01*
X62144180Y-124610498D01*
X62024482Y-124574188D01*
X61900000Y-124561928D01*
X60500000Y-124561928D01*
X60375518Y-124574188D01*
X60255820Y-124610498D01*
X60145506Y-124669463D01*
X60048815Y-124748815D01*
X59969463Y-124845506D01*
X59910498Y-124955820D01*
X59877379Y-125065000D01*
X58885869Y-125065000D01*
X57169684Y-123348816D01*
X79025000Y-123348816D01*
X79025000Y-123651184D01*
X79083989Y-123947743D01*
X79199701Y-124227095D01*
X79367688Y-124478505D01*
X79581495Y-124692312D01*
X79832905Y-124860299D01*
X80112257Y-124976011D01*
X80408816Y-125035000D01*
X80711184Y-125035000D01*
X81007743Y-124976011D01*
X81287095Y-124860299D01*
X81538505Y-124692312D01*
X81604944Y-124625873D01*
X81610498Y-124644180D01*
X81669463Y-124754494D01*
X81748815Y-124851185D01*
X81845506Y-124930537D01*
X81955820Y-124989502D01*
X82075518Y-125025812D01*
X82200000Y-125038072D01*
X82814250Y-125035000D01*
X82973000Y-124876250D01*
X82973000Y-123627000D01*
X83227000Y-123627000D01*
X83227000Y-124876250D01*
X83385750Y-125035000D01*
X84000000Y-125038072D01*
X84124482Y-125025812D01*
X84244180Y-124989502D01*
X84354494Y-124930537D01*
X84451185Y-124851185D01*
X84530537Y-124754494D01*
X84589502Y-124644180D01*
X84625812Y-124524482D01*
X84638072Y-124400000D01*
X84635000Y-123785750D01*
X84476250Y-123627000D01*
X83227000Y-123627000D01*
X82973000Y-123627000D01*
X82953000Y-123627000D01*
X82953000Y-123373000D01*
X82973000Y-123373000D01*
X82973000Y-122123750D01*
X83227000Y-122123750D01*
X83227000Y-123373000D01*
X84476250Y-123373000D01*
X84635000Y-123214250D01*
X84638072Y-122600000D01*
X84625812Y-122475518D01*
X84589502Y-122355820D01*
X84530537Y-122245506D01*
X84451185Y-122148815D01*
X84354494Y-122069463D01*
X84244180Y-122010498D01*
X84124482Y-121974188D01*
X84000000Y-121961928D01*
X83385750Y-121965000D01*
X83227000Y-122123750D01*
X82973000Y-122123750D01*
X82814250Y-121965000D01*
X82200000Y-121961928D01*
X82075518Y-121974188D01*
X81955820Y-122010498D01*
X81845506Y-122069463D01*
X81748815Y-122148815D01*
X81669463Y-122245506D01*
X81610498Y-122355820D01*
X81604944Y-122374127D01*
X81538505Y-122307688D01*
X81287095Y-122139701D01*
X81007743Y-122023989D01*
X80711184Y-121965000D01*
X80408816Y-121965000D01*
X80112257Y-122023989D01*
X79832905Y-122139701D01*
X79581495Y-122307688D01*
X79367688Y-122521495D01*
X79199701Y-122772905D01*
X79083989Y-123052257D01*
X79025000Y-123348816D01*
X57169684Y-123348816D01*
X56219446Y-122398579D01*
X56193291Y-122366709D01*
X56066146Y-122262364D01*
X55921087Y-122184828D01*
X55763689Y-122137082D01*
X55641019Y-122125000D01*
X55641018Y-122125000D01*
X55600000Y-122120960D01*
X55570205Y-122123895D01*
X55419608Y-121940392D01*
X55201101Y-121761068D01*
X55068142Y-121690000D01*
X55201101Y-121618932D01*
X55419608Y-121439608D01*
X55598932Y-121221101D01*
X55732182Y-120971808D01*
X55814236Y-120701309D01*
X55840074Y-120438967D01*
X59465000Y-120438967D01*
X59465000Y-120761033D01*
X59527832Y-121076912D01*
X59651082Y-121374463D01*
X59830013Y-121642252D01*
X60057748Y-121869987D01*
X60325537Y-122048918D01*
X60623088Y-122172168D01*
X60938967Y-122235000D01*
X61261033Y-122235000D01*
X61576912Y-122172168D01*
X61874463Y-122048918D01*
X62142252Y-121869987D01*
X62276826Y-121735413D01*
X64644192Y-121735413D01*
X64739956Y-121999814D01*
X65029571Y-122140704D01*
X65341108Y-122222384D01*
X65662595Y-122241718D01*
X65981675Y-122197961D01*
X66286088Y-122092795D01*
X66460044Y-121999814D01*
X66555808Y-121735413D01*
X65600000Y-120779605D01*
X64644192Y-121735413D01*
X62276826Y-121735413D01*
X62369987Y-121642252D01*
X62548918Y-121374463D01*
X62672168Y-121076912D01*
X62735000Y-120761033D01*
X62735000Y-120662595D01*
X63958282Y-120662595D01*
X64002039Y-120981675D01*
X64107205Y-121286088D01*
X64200186Y-121460044D01*
X64464587Y-121555808D01*
X65420395Y-120600000D01*
X65779605Y-120600000D01*
X66735413Y-121555808D01*
X66999814Y-121460044D01*
X67140704Y-121170429D01*
X67222384Y-120858892D01*
X67241718Y-120537405D01*
X67228219Y-120438967D01*
X68965000Y-120438967D01*
X68965000Y-120761033D01*
X69027832Y-121076912D01*
X69151082Y-121374463D01*
X69330013Y-121642252D01*
X69557748Y-121869987D01*
X69825537Y-122048918D01*
X70123088Y-122172168D01*
X70438967Y-122235000D01*
X70761033Y-122235000D01*
X71076912Y-122172168D01*
X71374463Y-122048918D01*
X71642252Y-121869987D01*
X71776826Y-121735413D01*
X74144192Y-121735413D01*
X74239956Y-121999814D01*
X74529571Y-122140704D01*
X74841108Y-122222384D01*
X75162595Y-122241718D01*
X75481675Y-122197961D01*
X75786088Y-122092795D01*
X75960044Y-121999814D01*
X76055808Y-121735413D01*
X75100000Y-120779605D01*
X74144192Y-121735413D01*
X71776826Y-121735413D01*
X71869987Y-121642252D01*
X72048918Y-121374463D01*
X72172168Y-121076912D01*
X72235000Y-120761033D01*
X72235000Y-120662595D01*
X73458282Y-120662595D01*
X73502039Y-120981675D01*
X73607205Y-121286088D01*
X73700186Y-121460044D01*
X73964587Y-121555808D01*
X74920395Y-120600000D01*
X75279605Y-120600000D01*
X76235413Y-121555808D01*
X76499814Y-121460044D01*
X76640704Y-121170429D01*
X76722384Y-120858892D01*
X76741718Y-120537405D01*
X76697961Y-120218325D01*
X76592795Y-119913912D01*
X76499814Y-119739956D01*
X76235413Y-119644192D01*
X75279605Y-120600000D01*
X74920395Y-120600000D01*
X73964587Y-119644192D01*
X73700186Y-119739956D01*
X73559296Y-120029571D01*
X73477616Y-120341108D01*
X73458282Y-120662595D01*
X72235000Y-120662595D01*
X72235000Y-120438967D01*
X72172168Y-120123088D01*
X72048918Y-119825537D01*
X71869987Y-119557748D01*
X71776826Y-119464587D01*
X74144192Y-119464587D01*
X75100000Y-120420395D01*
X76055808Y-119464587D01*
X75960044Y-119200186D01*
X75670429Y-119059296D01*
X75358892Y-118977616D01*
X75037405Y-118958282D01*
X74718325Y-119002039D01*
X74413912Y-119107205D01*
X74239956Y-119200186D01*
X74144192Y-119464587D01*
X71776826Y-119464587D01*
X71642252Y-119330013D01*
X71374463Y-119151082D01*
X71076912Y-119027832D01*
X70761033Y-118965000D01*
X70438967Y-118965000D01*
X70123088Y-119027832D01*
X69825537Y-119151082D01*
X69557748Y-119330013D01*
X69330013Y-119557748D01*
X69151082Y-119825537D01*
X69027832Y-120123088D01*
X68965000Y-120438967D01*
X67228219Y-120438967D01*
X67197961Y-120218325D01*
X67092795Y-119913912D01*
X66999814Y-119739956D01*
X66735413Y-119644192D01*
X65779605Y-120600000D01*
X65420395Y-120600000D01*
X64464587Y-119644192D01*
X64200186Y-119739956D01*
X64059296Y-120029571D01*
X63977616Y-120341108D01*
X63958282Y-120662595D01*
X62735000Y-120662595D01*
X62735000Y-120438967D01*
X62672168Y-120123088D01*
X62548918Y-119825537D01*
X62369987Y-119557748D01*
X62276826Y-119464587D01*
X64644192Y-119464587D01*
X65600000Y-120420395D01*
X66555808Y-119464587D01*
X66460044Y-119200186D01*
X66170429Y-119059296D01*
X65858892Y-118977616D01*
X65537405Y-118958282D01*
X65218325Y-119002039D01*
X64913912Y-119107205D01*
X64739956Y-119200186D01*
X64644192Y-119464587D01*
X62276826Y-119464587D01*
X62142252Y-119330013D01*
X61874463Y-119151082D01*
X61576912Y-119027832D01*
X61261033Y-118965000D01*
X60938967Y-118965000D01*
X60623088Y-119027832D01*
X60325537Y-119151082D01*
X60057748Y-119330013D01*
X59830013Y-119557748D01*
X59651082Y-119825537D01*
X59527832Y-120123088D01*
X59465000Y-120438967D01*
X55840074Y-120438967D01*
X55841943Y-120420000D01*
X55814236Y-120138691D01*
X55732182Y-119868192D01*
X55598932Y-119618899D01*
X55419608Y-119400392D01*
X55201101Y-119221068D01*
X55068142Y-119150000D01*
X55201101Y-119078932D01*
X55419608Y-118899608D01*
X55598932Y-118681101D01*
X55732182Y-118431808D01*
X55814236Y-118161309D01*
X55841943Y-117880000D01*
X55814236Y-117598691D01*
X55732182Y-117328192D01*
X55598932Y-117078899D01*
X55419608Y-116860392D01*
X55201101Y-116681068D01*
X55068142Y-116610000D01*
X55201101Y-116538932D01*
X55419608Y-116359608D01*
X55598932Y-116141101D01*
X55732182Y-115891808D01*
X55814236Y-115621309D01*
X55841943Y-115340000D01*
X55814236Y-115058691D01*
X55732182Y-114788192D01*
X55598932Y-114538899D01*
X55419608Y-114320392D01*
X55201101Y-114141068D01*
X55068142Y-114070000D01*
X55201101Y-113998932D01*
X55274168Y-113938967D01*
X59465000Y-113938967D01*
X59465000Y-114261033D01*
X59527832Y-114576912D01*
X59651082Y-114874463D01*
X59830013Y-115142252D01*
X60057748Y-115369987D01*
X60325537Y-115548918D01*
X60623088Y-115672168D01*
X60938967Y-115735000D01*
X61261033Y-115735000D01*
X61576912Y-115672168D01*
X61874463Y-115548918D01*
X62142252Y-115369987D01*
X62276826Y-115235413D01*
X64644192Y-115235413D01*
X64739956Y-115499814D01*
X65029571Y-115640704D01*
X65341108Y-115722384D01*
X65662595Y-115741718D01*
X65981675Y-115697961D01*
X66286088Y-115592795D01*
X66460044Y-115499814D01*
X66555808Y-115235413D01*
X65600000Y-114279605D01*
X64644192Y-115235413D01*
X62276826Y-115235413D01*
X62369987Y-115142252D01*
X62548918Y-114874463D01*
X62672168Y-114576912D01*
X62735000Y-114261033D01*
X62735000Y-114162595D01*
X63958282Y-114162595D01*
X64002039Y-114481675D01*
X64107205Y-114786088D01*
X64200186Y-114960044D01*
X64464587Y-115055808D01*
X65420395Y-114100000D01*
X65779605Y-114100000D01*
X66735413Y-115055808D01*
X66999814Y-114960044D01*
X67140704Y-114670429D01*
X67222384Y-114358892D01*
X67241718Y-114037405D01*
X67228219Y-113938967D01*
X68965000Y-113938967D01*
X68965000Y-114261033D01*
X69027832Y-114576912D01*
X69151082Y-114874463D01*
X69330013Y-115142252D01*
X69557748Y-115369987D01*
X69825537Y-115548918D01*
X70123088Y-115672168D01*
X70438967Y-115735000D01*
X70761033Y-115735000D01*
X71076912Y-115672168D01*
X71374463Y-115548918D01*
X71642252Y-115369987D01*
X71776826Y-115235413D01*
X74144192Y-115235413D01*
X74239956Y-115499814D01*
X74529571Y-115640704D01*
X74841108Y-115722384D01*
X75162595Y-115741718D01*
X75481675Y-115697961D01*
X75623929Y-115648816D01*
X79025000Y-115648816D01*
X79025000Y-115951184D01*
X79083989Y-116247743D01*
X79199701Y-116527095D01*
X79367688Y-116778505D01*
X79581495Y-116992312D01*
X79832905Y-117160299D01*
X80112257Y-117276011D01*
X80408816Y-117335000D01*
X80711184Y-117335000D01*
X81007743Y-117276011D01*
X81287095Y-117160299D01*
X81538505Y-116992312D01*
X81604944Y-116925873D01*
X81610498Y-116944180D01*
X81669463Y-117054494D01*
X81748815Y-117151185D01*
X81845506Y-117230537D01*
X81955820Y-117289502D01*
X82075518Y-117325812D01*
X82200000Y-117338072D01*
X82814250Y-117335000D01*
X82973000Y-117176250D01*
X82973000Y-115927000D01*
X83227000Y-115927000D01*
X83227000Y-117176250D01*
X83385750Y-117335000D01*
X84000000Y-117338072D01*
X84124482Y-117325812D01*
X84244180Y-117289502D01*
X84354494Y-117230537D01*
X84451185Y-117151185D01*
X84530537Y-117054494D01*
X84589502Y-116944180D01*
X84625812Y-116824482D01*
X84638072Y-116700000D01*
X84635000Y-116085750D01*
X84476250Y-115927000D01*
X83227000Y-115927000D01*
X82973000Y-115927000D01*
X82953000Y-115927000D01*
X82953000Y-115673000D01*
X82973000Y-115673000D01*
X82973000Y-114423750D01*
X83227000Y-114423750D01*
X83227000Y-115673000D01*
X84476250Y-115673000D01*
X84635000Y-115514250D01*
X84638072Y-114900000D01*
X84625812Y-114775518D01*
X84589502Y-114655820D01*
X84530537Y-114545506D01*
X84451185Y-114448815D01*
X84354494Y-114369463D01*
X84244180Y-114310498D01*
X84124482Y-114274188D01*
X84000000Y-114261928D01*
X83385750Y-114265000D01*
X83227000Y-114423750D01*
X82973000Y-114423750D01*
X82814250Y-114265000D01*
X82200000Y-114261928D01*
X82075518Y-114274188D01*
X81955820Y-114310498D01*
X81845506Y-114369463D01*
X81748815Y-114448815D01*
X81669463Y-114545506D01*
X81610498Y-114655820D01*
X81604944Y-114674127D01*
X81538505Y-114607688D01*
X81287095Y-114439701D01*
X81007743Y-114323989D01*
X80711184Y-114265000D01*
X80408816Y-114265000D01*
X80112257Y-114323989D01*
X79832905Y-114439701D01*
X79581495Y-114607688D01*
X79367688Y-114821495D01*
X79199701Y-115072905D01*
X79083989Y-115352257D01*
X79025000Y-115648816D01*
X75623929Y-115648816D01*
X75786088Y-115592795D01*
X75960044Y-115499814D01*
X76055808Y-115235413D01*
X75100000Y-114279605D01*
X74144192Y-115235413D01*
X71776826Y-115235413D01*
X71869987Y-115142252D01*
X72048918Y-114874463D01*
X72172168Y-114576912D01*
X72235000Y-114261033D01*
X72235000Y-114162595D01*
X73458282Y-114162595D01*
X73502039Y-114481675D01*
X73607205Y-114786088D01*
X73700186Y-114960044D01*
X73964587Y-115055808D01*
X74920395Y-114100000D01*
X75279605Y-114100000D01*
X76235413Y-115055808D01*
X76499814Y-114960044D01*
X76640704Y-114670429D01*
X76722384Y-114358892D01*
X76741718Y-114037405D01*
X76697961Y-113718325D01*
X76592795Y-113413912D01*
X76499814Y-113239956D01*
X76235413Y-113144192D01*
X75279605Y-114100000D01*
X74920395Y-114100000D01*
X73964587Y-113144192D01*
X73700186Y-113239956D01*
X73559296Y-113529571D01*
X73477616Y-113841108D01*
X73458282Y-114162595D01*
X72235000Y-114162595D01*
X72235000Y-113938967D01*
X72172168Y-113623088D01*
X72048918Y-113325537D01*
X71869987Y-113057748D01*
X71776826Y-112964587D01*
X74144192Y-112964587D01*
X75100000Y-113920395D01*
X76055808Y-112964587D01*
X75960044Y-112700186D01*
X75670429Y-112559296D01*
X75358892Y-112477616D01*
X75037405Y-112458282D01*
X74718325Y-112502039D01*
X74413912Y-112607205D01*
X74239956Y-112700186D01*
X74144192Y-112964587D01*
X71776826Y-112964587D01*
X71642252Y-112830013D01*
X71374463Y-112651082D01*
X71076912Y-112527832D01*
X70761033Y-112465000D01*
X70438967Y-112465000D01*
X70123088Y-112527832D01*
X69825537Y-112651082D01*
X69557748Y-112830013D01*
X69330013Y-113057748D01*
X69151082Y-113325537D01*
X69027832Y-113623088D01*
X68965000Y-113938967D01*
X67228219Y-113938967D01*
X67197961Y-113718325D01*
X67092795Y-113413912D01*
X66999814Y-113239956D01*
X66735413Y-113144192D01*
X65779605Y-114100000D01*
X65420395Y-114100000D01*
X64464587Y-113144192D01*
X64200186Y-113239956D01*
X64059296Y-113529571D01*
X63977616Y-113841108D01*
X63958282Y-114162595D01*
X62735000Y-114162595D01*
X62735000Y-113938967D01*
X62672168Y-113623088D01*
X62548918Y-113325537D01*
X62369987Y-113057748D01*
X62276826Y-112964587D01*
X64644192Y-112964587D01*
X65600000Y-113920395D01*
X66555808Y-112964587D01*
X66460044Y-112700186D01*
X66170429Y-112559296D01*
X65858892Y-112477616D01*
X65537405Y-112458282D01*
X65218325Y-112502039D01*
X64913912Y-112607205D01*
X64739956Y-112700186D01*
X64644192Y-112964587D01*
X62276826Y-112964587D01*
X62142252Y-112830013D01*
X61874463Y-112651082D01*
X61576912Y-112527832D01*
X61261033Y-112465000D01*
X60938967Y-112465000D01*
X60623088Y-112527832D01*
X60325537Y-112651082D01*
X60057748Y-112830013D01*
X59830013Y-113057748D01*
X59651082Y-113325537D01*
X59527832Y-113623088D01*
X59465000Y-113938967D01*
X55274168Y-113938967D01*
X55419608Y-113819608D01*
X55598932Y-113601101D01*
X55732182Y-113351808D01*
X55814236Y-113081309D01*
X55841943Y-112800000D01*
X55814236Y-112518691D01*
X55732182Y-112248192D01*
X55598932Y-111998899D01*
X55419608Y-111780392D01*
X55201101Y-111601068D01*
X55073259Y-111532735D01*
X55302839Y-111382601D01*
X55504500Y-111184895D01*
X55663715Y-110951646D01*
X55774367Y-110691818D01*
X55791904Y-110609039D01*
X55669915Y-110387000D01*
X54127000Y-110387000D01*
X54127000Y-110407000D01*
X53873000Y-110407000D01*
X53873000Y-110387000D01*
X52330085Y-110387000D01*
X52208096Y-110609039D01*
X52225633Y-110691818D01*
X52336285Y-110951646D01*
X52495500Y-111184895D01*
X52697161Y-111382601D01*
X52926741Y-111532735D01*
X52798899Y-111601068D01*
X52580392Y-111780392D01*
X52401068Y-111998899D01*
X52267818Y-112248192D01*
X52185764Y-112518691D01*
X52158057Y-112800000D01*
X52185764Y-113081309D01*
X52267818Y-113351808D01*
X52401068Y-113601101D01*
X52580392Y-113819608D01*
X52798899Y-113998932D01*
X52931858Y-114070000D01*
X52798899Y-114141068D01*
X52580392Y-114320392D01*
X52429795Y-114503895D01*
X52399999Y-114500960D01*
X52358981Y-114505000D01*
X52236311Y-114517082D01*
X52078913Y-114564828D01*
X51933854Y-114642364D01*
X51806709Y-114746709D01*
X51780558Y-114778574D01*
X51435000Y-115124133D01*
X51435000Y-111541007D01*
X51439039Y-111499999D01*
X51435000Y-111458991D01*
X51435000Y-111458981D01*
X51422918Y-111336311D01*
X51375172Y-111178913D01*
X51297636Y-111033854D01*
X51193291Y-110906709D01*
X51161428Y-110880560D01*
X50191829Y-109910961D01*
X52208096Y-109910961D01*
X52330085Y-110133000D01*
X53873000Y-110133000D01*
X53873000Y-108825000D01*
X54127000Y-108825000D01*
X54127000Y-110133000D01*
X55669915Y-110133000D01*
X55791904Y-109910961D01*
X55774367Y-109828182D01*
X55663715Y-109568354D01*
X55504500Y-109335105D01*
X55302839Y-109137399D01*
X55066483Y-108982834D01*
X54804514Y-108877350D01*
X54527000Y-108825000D01*
X54127000Y-108825000D01*
X53873000Y-108825000D01*
X53473000Y-108825000D01*
X53195486Y-108877350D01*
X52933517Y-108982834D01*
X52697161Y-109137399D01*
X52495500Y-109335105D01*
X52336285Y-109568354D01*
X52225633Y-109828182D01*
X52208096Y-109910961D01*
X50191829Y-109910961D01*
X49060740Y-108779872D01*
X58765000Y-108779872D01*
X58765000Y-109220128D01*
X58850890Y-109651925D01*
X59019369Y-110058669D01*
X59263962Y-110424729D01*
X59575271Y-110736038D01*
X59941331Y-110980631D01*
X60348075Y-111149110D01*
X60779872Y-111235000D01*
X61220128Y-111235000D01*
X61651925Y-111149110D01*
X62058669Y-110980631D01*
X62424729Y-110736038D01*
X62736038Y-110424729D01*
X62980631Y-110058669D01*
X63149110Y-109651925D01*
X63235000Y-109220128D01*
X63235000Y-108779872D01*
X83765000Y-108779872D01*
X83765000Y-109220128D01*
X83850890Y-109651925D01*
X84019369Y-110058669D01*
X84263962Y-110424729D01*
X84575271Y-110736038D01*
X84941331Y-110980631D01*
X85348075Y-111149110D01*
X85779872Y-111235000D01*
X86220128Y-111235000D01*
X86651925Y-111149110D01*
X87058669Y-110980631D01*
X87424729Y-110736038D01*
X87736038Y-110424729D01*
X87980631Y-110058669D01*
X88149110Y-109651925D01*
X88235000Y-109220128D01*
X88235000Y-108779872D01*
X88149110Y-108348075D01*
X87980631Y-107941331D01*
X87736038Y-107575271D01*
X87424729Y-107263962D01*
X87058669Y-107019369D01*
X86651925Y-106850890D01*
X86220128Y-106765000D01*
X85779872Y-106765000D01*
X85348075Y-106850890D01*
X84941331Y-107019369D01*
X84575271Y-107263962D01*
X84263962Y-107575271D01*
X84019369Y-107941331D01*
X83850890Y-108348075D01*
X83765000Y-108779872D01*
X63235000Y-108779872D01*
X63149110Y-108348075D01*
X62980631Y-107941331D01*
X62736038Y-107575271D01*
X62424729Y-107263962D01*
X62058669Y-107019369D01*
X61651925Y-106850890D01*
X61220128Y-106765000D01*
X60779872Y-106765000D01*
X60348075Y-106850890D01*
X59941331Y-107019369D01*
X59575271Y-107263962D01*
X59263962Y-107575271D01*
X59019369Y-107941331D01*
X58850890Y-108348075D01*
X58765000Y-108779872D01*
X49060740Y-108779872D01*
X48169446Y-107888579D01*
X48143291Y-107856709D01*
X48016146Y-107752364D01*
X47871087Y-107674828D01*
X47713689Y-107627082D01*
X47591019Y-107615000D01*
X47591018Y-107615000D01*
X47550000Y-107610960D01*
X47508982Y-107615000D01*
X45291018Y-107615000D01*
X45250000Y-107610960D01*
X45208981Y-107615000D01*
X45086311Y-107627082D01*
X44928913Y-107674828D01*
X44783854Y-107752364D01*
X44656709Y-107856709D01*
X44630563Y-107888568D01*
X43588574Y-108930559D01*
X43556710Y-108956709D01*
X43530562Y-108988571D01*
X43452364Y-109083855D01*
X43374828Y-109228914D01*
X43327082Y-109386312D01*
X43310960Y-109550000D01*
X43315001Y-109591028D01*
X43315000Y-112024791D01*
X41919239Y-113420554D01*
X41882886Y-113384201D01*
X41656043Y-113232629D01*
X41553127Y-113190000D01*
X41656043Y-113147371D01*
X41882886Y-112995799D01*
X42075799Y-112802886D01*
X42227371Y-112576043D01*
X42331775Y-112323989D01*
X42385000Y-112056411D01*
X42385000Y-111783589D01*
X42331775Y-111516011D01*
X42227371Y-111263957D01*
X42075799Y-111037114D01*
X41882886Y-110844201D01*
X41656043Y-110692629D01*
X41403989Y-110588225D01*
X41136411Y-110535000D01*
X40863589Y-110535000D01*
X40596011Y-110588225D01*
X40343957Y-110692629D01*
X40117114Y-110844201D01*
X39924201Y-111037114D01*
X39772629Y-111263957D01*
X39668225Y-111516011D01*
X39615000Y-111783589D01*
X39615000Y-112056411D01*
X39668225Y-112323989D01*
X39772629Y-112576043D01*
X39924201Y-112802886D01*
X40117114Y-112995799D01*
X40343957Y-113147371D01*
X40446873Y-113190000D01*
X40343957Y-113232629D01*
X40117114Y-113384201D01*
X39924201Y-113577114D01*
X39772629Y-113803957D01*
X39668225Y-114056011D01*
X39615000Y-114323589D01*
X39615000Y-114596411D01*
X39668225Y-114863989D01*
X39772629Y-115116043D01*
X39924201Y-115342886D01*
X40117114Y-115535799D01*
X40233483Y-115613555D01*
X40125518Y-115624188D01*
X40005820Y-115660498D01*
X39895506Y-115719463D01*
X39798815Y-115798815D01*
X39719463Y-115895506D01*
X39660498Y-116005820D01*
X39624188Y-116125518D01*
X39611928Y-116250000D01*
X39615000Y-116714250D01*
X39773750Y-116873000D01*
X40873000Y-116873000D01*
X40873000Y-116853000D01*
X41127000Y-116853000D01*
X41127000Y-116873000D01*
X42226250Y-116873000D01*
X42385000Y-116714250D01*
X42388072Y-116250000D01*
X42375812Y-116125518D01*
X42339502Y-116005820D01*
X42280537Y-115895506D01*
X42201185Y-115798815D01*
X42104494Y-115719463D01*
X41994180Y-115660498D01*
X41874482Y-115624188D01*
X41766517Y-115613555D01*
X41882886Y-115535799D01*
X42075799Y-115342886D01*
X42108226Y-115294355D01*
X42224349Y-115282918D01*
X42381747Y-115235172D01*
X42526806Y-115157636D01*
X42653951Y-115053291D01*
X42680106Y-115021421D01*
X44578438Y-113123091D01*
X44647818Y-113351808D01*
X44781068Y-113601101D01*
X44960392Y-113819608D01*
X45178899Y-113998932D01*
X45311858Y-114070000D01*
X45178899Y-114141068D01*
X44960392Y-114320392D01*
X44781068Y-114538899D01*
X44647818Y-114788192D01*
X44565764Y-115058691D01*
X44538057Y-115340000D01*
X44565764Y-115621309D01*
X44647818Y-115891808D01*
X44781068Y-116141101D01*
X44960392Y-116359608D01*
X45178899Y-116538932D01*
X45311858Y-116610000D01*
X45178899Y-116681068D01*
X44960392Y-116860392D01*
X44781068Y-117078899D01*
X44647818Y-117328192D01*
X44565764Y-117598691D01*
X44538057Y-117880000D01*
X44565764Y-118161309D01*
X44647818Y-118431808D01*
X44781068Y-118681101D01*
X44960392Y-118899608D01*
X45178899Y-119078932D01*
X45311858Y-119150000D01*
X45178899Y-119221068D01*
X44960392Y-119400392D01*
X44781068Y-119618899D01*
X44647818Y-119868192D01*
X44565764Y-120138691D01*
X44538057Y-120420000D01*
X44565764Y-120701309D01*
X44647818Y-120971808D01*
X44781068Y-121221101D01*
X44960392Y-121439608D01*
X45178899Y-121618932D01*
X45311858Y-121690000D01*
X45178899Y-121761068D01*
X44960392Y-121940392D01*
X44781068Y-122158899D01*
X44647818Y-122408192D01*
X44565764Y-122678691D01*
X44538057Y-122960000D01*
X44565764Y-123241309D01*
X44647818Y-123511808D01*
X44781068Y-123761101D01*
X44960392Y-123979608D01*
X45178899Y-124158932D01*
X45311858Y-124230000D01*
X45178899Y-124301068D01*
X44960392Y-124480392D01*
X44781068Y-124698899D01*
X44647818Y-124948192D01*
X44565764Y-125218691D01*
X44538057Y-125500000D01*
X44565764Y-125781309D01*
X44647818Y-126051808D01*
X44781068Y-126301101D01*
X44960392Y-126519608D01*
X45178899Y-126698932D01*
X45315001Y-126771680D01*
X45315000Y-127818706D01*
X45179727Y-127728320D01*
X44918574Y-127620147D01*
X44641335Y-127565000D01*
X44358665Y-127565000D01*
X44081426Y-127620147D01*
X43820273Y-127728320D01*
X43585241Y-127885363D01*
X43505604Y-127965000D01*
X41035000Y-127965000D01*
X41035000Y-126494396D01*
X41114637Y-126414759D01*
X41271680Y-126179727D01*
X41379853Y-125918574D01*
X41435000Y-125641335D01*
X41435000Y-125358665D01*
X41379853Y-125081426D01*
X41271680Y-124820273D01*
X41114637Y-124585241D01*
X40914759Y-124385363D01*
X40679727Y-124228320D01*
X40418574Y-124120147D01*
X40141335Y-124065000D01*
X39858665Y-124065000D01*
X39581426Y-124120147D01*
X39320273Y-124228320D01*
X39085241Y-124385363D01*
X38885363Y-124585241D01*
X38728320Y-124820273D01*
X38620147Y-125081426D01*
X38565000Y-125358665D01*
X35660000Y-125358665D01*
X35660000Y-121492702D01*
X39186903Y-121492702D01*
X39258486Y-121736671D01*
X39513996Y-121857571D01*
X39788184Y-121926300D01*
X40070512Y-121940217D01*
X40350130Y-121898787D01*
X40616292Y-121803603D01*
X40741514Y-121736671D01*
X40813097Y-121492702D01*
X40000000Y-120679605D01*
X39186903Y-121492702D01*
X35660000Y-121492702D01*
X35660000Y-120570512D01*
X38559783Y-120570512D01*
X38601213Y-120850130D01*
X38696397Y-121116292D01*
X38763329Y-121241514D01*
X39007298Y-121313097D01*
X39820395Y-120500000D01*
X40179605Y-120500000D01*
X40992702Y-121313097D01*
X41236671Y-121241514D01*
X41357571Y-120986004D01*
X41426300Y-120711816D01*
X41440217Y-120429488D01*
X41398787Y-120149870D01*
X41303603Y-119883708D01*
X41236671Y-119758486D01*
X40992702Y-119686903D01*
X40179605Y-120500000D01*
X39820395Y-120500000D01*
X39007298Y-119686903D01*
X38763329Y-119758486D01*
X38642429Y-120013996D01*
X38573700Y-120288184D01*
X38559783Y-120570512D01*
X35660000Y-120570512D01*
X35660000Y-119507298D01*
X39186903Y-119507298D01*
X40000000Y-120320395D01*
X40813097Y-119507298D01*
X40741514Y-119263329D01*
X40486004Y-119142429D01*
X40211816Y-119073700D01*
X39929488Y-119059783D01*
X39649870Y-119101213D01*
X39383708Y-119196397D01*
X39258486Y-119263329D01*
X39186903Y-119507298D01*
X35660000Y-119507298D01*
X35660000Y-117750000D01*
X39611928Y-117750000D01*
X39624188Y-117874482D01*
X39660498Y-117994180D01*
X39719463Y-118104494D01*
X39798815Y-118201185D01*
X39895506Y-118280537D01*
X40005820Y-118339502D01*
X40125518Y-118375812D01*
X40250000Y-118388072D01*
X40714250Y-118385000D01*
X40873000Y-118226250D01*
X40873000Y-117127000D01*
X41127000Y-117127000D01*
X41127000Y-118226250D01*
X41285750Y-118385000D01*
X41750000Y-118388072D01*
X41874482Y-118375812D01*
X41994180Y-118339502D01*
X42104494Y-118280537D01*
X42201185Y-118201185D01*
X42280537Y-118104494D01*
X42339502Y-117994180D01*
X42375812Y-117874482D01*
X42388072Y-117750000D01*
X42385000Y-117285750D01*
X42226250Y-117127000D01*
X41127000Y-117127000D01*
X40873000Y-117127000D01*
X39773750Y-117127000D01*
X39615000Y-117285750D01*
X39611928Y-117750000D01*
X35660000Y-117750000D01*
X35660000Y-105660000D01*
X89340000Y-105660000D01*
X89340001Y-109967572D01*
G37*
X89340001Y-109967572D02*
X89340000Y-109967582D01*
X89340001Y-174340000D01*
X35660000Y-174340000D01*
X35660000Y-171793589D01*
X39235000Y-171793589D01*
X39235000Y-172066411D01*
X39288225Y-172333989D01*
X39392629Y-172586043D01*
X39544201Y-172812886D01*
X39737114Y-173005799D01*
X39963957Y-173157371D01*
X40216011Y-173261775D01*
X40483589Y-173315000D01*
X40756411Y-173315000D01*
X41023989Y-173261775D01*
X41276043Y-173157371D01*
X41502886Y-173005799D01*
X41695799Y-172812886D01*
X41847371Y-172586043D01*
X41951775Y-172333989D01*
X42005000Y-172066411D01*
X42005000Y-171793589D01*
X49345000Y-171793589D01*
X49345000Y-172066411D01*
X49398225Y-172333989D01*
X49502629Y-172586043D01*
X49654201Y-172812886D01*
X49847114Y-173005799D01*
X50073957Y-173157371D01*
X50326011Y-173261775D01*
X50593589Y-173315000D01*
X50866411Y-173315000D01*
X51133989Y-173261775D01*
X51386043Y-173157371D01*
X51612886Y-173005799D01*
X51805799Y-172812886D01*
X51957371Y-172586043D01*
X52061775Y-172333989D01*
X52115000Y-172066411D01*
X52115000Y-171793589D01*
X52061775Y-171526011D01*
X51957371Y-171273957D01*
X51805799Y-171047114D01*
X51612886Y-170854201D01*
X51386043Y-170702629D01*
X51133989Y-170598225D01*
X50866411Y-170545000D01*
X50593589Y-170545000D01*
X50326011Y-170598225D01*
X50073957Y-170702629D01*
X49847114Y-170854201D01*
X49654201Y-171047114D01*
X49502629Y-171273957D01*
X49398225Y-171526011D01*
X49345000Y-171793589D01*
X42005000Y-171793589D01*
X41951775Y-171526011D01*
X41847371Y-171273957D01*
X41695799Y-171047114D01*
X41502886Y-170854201D01*
X41276043Y-170702629D01*
X41023989Y-170598225D01*
X40756411Y-170545000D01*
X40483589Y-170545000D01*
X40216011Y-170598225D01*
X39963957Y-170702629D01*
X39737114Y-170854201D01*
X39544201Y-171047114D01*
X39392629Y-171273957D01*
X39288225Y-171526011D01*
X39235000Y-171793589D01*
X35660000Y-171793589D01*
X35660000Y-170093589D01*
X41775000Y-170093589D01*
X41775000Y-170366411D01*
X41828225Y-170633989D01*
X41932629Y-170886043D01*
X42084201Y-171112886D01*
X42277114Y-171305799D01*
X42503957Y-171457371D01*
X42756011Y-171561775D01*
X43023589Y-171615000D01*
X43296411Y-171615000D01*
X43563989Y-171561775D01*
X43816043Y-171457371D01*
X44042886Y-171305799D01*
X44235799Y-171112886D01*
X44387371Y-170886043D01*
X44491775Y-170633989D01*
X44545000Y-170366411D01*
X44545000Y-170093589D01*
X44491775Y-169826011D01*
X44387371Y-169573957D01*
X44235799Y-169347114D01*
X44042886Y-169154201D01*
X43816043Y-169002629D01*
X43563989Y-168898225D01*
X43296411Y-168845000D01*
X43023589Y-168845000D01*
X42756011Y-168898225D01*
X42503957Y-169002629D01*
X42277114Y-169154201D01*
X42084201Y-169347114D01*
X41932629Y-169573957D01*
X41828225Y-169826011D01*
X41775000Y-170093589D01*
X35660000Y-170093589D01*
X35660000Y-163614344D01*
X37185000Y-163614344D01*
X37185000Y-163985656D01*
X37257439Y-164349834D01*
X37399534Y-164692882D01*
X37605825Y-165001618D01*
X37868382Y-165264175D01*
X38177118Y-165470466D01*
X38520166Y-165612561D01*
X38884344Y-165685000D01*
X39255656Y-165685000D01*
X39295667Y-165677041D01*
X39227214Y-165779489D01*
X39056851Y-166190782D01*
X38970000Y-166627409D01*
X38970000Y-167072591D01*
X39056851Y-167509218D01*
X39227214Y-167920511D01*
X39474544Y-168290666D01*
X39789334Y-168605456D01*
X40159489Y-168852786D01*
X40570782Y-169023149D01*
X41007409Y-169110000D01*
X41452591Y-169110000D01*
X41889218Y-169023149D01*
X42300511Y-168852786D01*
X42670666Y-168605456D01*
X42985456Y-168290666D01*
X43232786Y-167920511D01*
X43403149Y-167509218D01*
X43490000Y-167072591D01*
X43490000Y-166627409D01*
X50400000Y-166627409D01*
X50400000Y-167072591D01*
X50486851Y-167509218D01*
X50657214Y-167920511D01*
X50904544Y-168290666D01*
X51219334Y-168605456D01*
X51589489Y-168852786D01*
X52000782Y-169023149D01*
X52437409Y-169110000D01*
X52453265Y-169110000D01*
X52387114Y-169154201D01*
X52194201Y-169347114D01*
X52042629Y-169573957D01*
X51938225Y-169826011D01*
X51885000Y-170093589D01*
X51885000Y-170366411D01*
X51938225Y-170633989D01*
X52042629Y-170886043D01*
X52194201Y-171112886D01*
X52387114Y-171305799D01*
X52613957Y-171457371D01*
X52866011Y-171561775D01*
X53133589Y-171615000D01*
X53406411Y-171615000D01*
X53673989Y-171561775D01*
X53926043Y-171457371D01*
X54152886Y-171305799D01*
X54345799Y-171112886D01*
X54497371Y-170886043D01*
X54601775Y-170633989D01*
X54655000Y-170366411D01*
X54655000Y-170093589D01*
X54601775Y-169826011D01*
X54497371Y-169573957D01*
X54345799Y-169347114D01*
X54152886Y-169154201D01*
X53926043Y-169002629D01*
X53673989Y-168898225D01*
X53638064Y-168891079D01*
X53730511Y-168852786D01*
X54100666Y-168605456D01*
X54415456Y-168290666D01*
X54662786Y-167920511D01*
X54833149Y-167509218D01*
X54920000Y-167072591D01*
X54920000Y-166627409D01*
X54833149Y-166190782D01*
X54662786Y-165779489D01*
X54594333Y-165677041D01*
X54634344Y-165685000D01*
X55005656Y-165685000D01*
X55369834Y-165612561D01*
X55712882Y-165470466D01*
X56021618Y-165264175D01*
X56284175Y-165001618D01*
X56490466Y-164692882D01*
X56632561Y-164349834D01*
X56705000Y-163985656D01*
X56705000Y-163614344D01*
X56632561Y-163250166D01*
X56490466Y-162907118D01*
X56284175Y-162598382D01*
X56021618Y-162335825D01*
X55712882Y-162129534D01*
X55369834Y-161987439D01*
X55005656Y-161915000D01*
X54634344Y-161915000D01*
X54270166Y-161987439D01*
X53927118Y-162129534D01*
X53618382Y-162335825D01*
X53355825Y-162598382D01*
X53149534Y-162907118D01*
X53007439Y-163250166D01*
X52935000Y-163614344D01*
X52935000Y-163985656D01*
X53007439Y-164349834D01*
X53127061Y-164638628D01*
X52882591Y-164590000D01*
X52437409Y-164590000D01*
X52000782Y-164676851D01*
X51589489Y-164847214D01*
X51219334Y-165094544D01*
X50904544Y-165409334D01*
X50657214Y-165779489D01*
X50486851Y-166190782D01*
X50400000Y-166627409D01*
X43490000Y-166627409D01*
X43403149Y-166190782D01*
X43232786Y-165779489D01*
X42985456Y-165409334D01*
X42670666Y-165094544D01*
X42300511Y-164847214D01*
X41889218Y-164676851D01*
X41452591Y-164590000D01*
X41007409Y-164590000D01*
X40762939Y-164638628D01*
X40882561Y-164349834D01*
X40955000Y-163985656D01*
X40955000Y-163614344D01*
X40882561Y-163250166D01*
X40740466Y-162907118D01*
X40534175Y-162598382D01*
X40271618Y-162335825D01*
X39962882Y-162129534D01*
X39619834Y-161987439D01*
X39255656Y-161915000D01*
X38884344Y-161915000D01*
X38520166Y-161987439D01*
X38177118Y-162129534D01*
X37868382Y-162335825D01*
X37605825Y-162598382D01*
X37399534Y-162907118D01*
X37257439Y-163250166D01*
X37185000Y-163614344D01*
X35660000Y-163614344D01*
X35660000Y-144200000D01*
X38561928Y-144200000D01*
X38561928Y-145800000D01*
X38574188Y-145924482D01*
X38610498Y-146044180D01*
X38669463Y-146154494D01*
X38748815Y-146251185D01*
X38845506Y-146330537D01*
X38955820Y-146389502D01*
X39075518Y-146425812D01*
X39083961Y-146426643D01*
X38885363Y-146625241D01*
X38728320Y-146860273D01*
X38620147Y-147121426D01*
X38565000Y-147398665D01*
X38565000Y-147681335D01*
X38620147Y-147958574D01*
X38728320Y-148219727D01*
X38885363Y-148454759D01*
X39085241Y-148654637D01*
X39320273Y-148811680D01*
X39581426Y-148919853D01*
X39858665Y-148975000D01*
X40141335Y-148975000D01*
X40418574Y-148919853D01*
X40679727Y-148811680D01*
X40914759Y-148654637D01*
X41114637Y-148454759D01*
X41271680Y-148219727D01*
X41379853Y-147958574D01*
X41435000Y-147681335D01*
X41435000Y-147398665D01*
X41379853Y-147121426D01*
X41271680Y-146860273D01*
X41114637Y-146625241D01*
X40916039Y-146426643D01*
X40924482Y-146425812D01*
X41044180Y-146389502D01*
X41154494Y-146330537D01*
X41251185Y-146251185D01*
X41330537Y-146154494D01*
X41389502Y-146044180D01*
X41425812Y-145924482D01*
X41438072Y-145800000D01*
X41438072Y-144200000D01*
X41425812Y-144075518D01*
X41389502Y-143955820D01*
X41330537Y-143845506D01*
X41251185Y-143748815D01*
X41154494Y-143669463D01*
X41044180Y-143610498D01*
X40924482Y-143574188D01*
X40835000Y-143565375D01*
X40835000Y-140327930D01*
X40914759Y-140274637D01*
X41114637Y-140074759D01*
X41271680Y-139839727D01*
X41379853Y-139578574D01*
X41435000Y-139301335D01*
X41435000Y-139018665D01*
X43065000Y-139018665D01*
X43065000Y-139301335D01*
X43120147Y-139578574D01*
X43228320Y-139839727D01*
X43385363Y-140074759D01*
X43585241Y-140274637D01*
X43820273Y-140431680D01*
X44081426Y-140539853D01*
X44358665Y-140595000D01*
X44641335Y-140595000D01*
X44918574Y-140539853D01*
X45179727Y-140431680D01*
X45414759Y-140274637D01*
X45614637Y-140074759D01*
X45771680Y-139839727D01*
X45879853Y-139578574D01*
X45935000Y-139301335D01*
X45935000Y-139018665D01*
X48565000Y-139018665D01*
X48565000Y-139301335D01*
X48620147Y-139578574D01*
X48728320Y-139839727D01*
X48885363Y-140074759D01*
X49085241Y-140274637D01*
X49320273Y-140431680D01*
X49581426Y-140539853D01*
X49858665Y-140595000D01*
X50141335Y-140595000D01*
X50418574Y-140539853D01*
X50679727Y-140431680D01*
X50914759Y-140274637D01*
X51114637Y-140074759D01*
X51271680Y-139839727D01*
X51379853Y-139578574D01*
X51435000Y-139301335D01*
X51435000Y-139018665D01*
X51379853Y-138741426D01*
X51271680Y-138480273D01*
X51114637Y-138245241D01*
X50914759Y-138045363D01*
X50679727Y-137888320D01*
X50418574Y-137780147D01*
X50141335Y-137725000D01*
X49858665Y-137725000D01*
X49581426Y-137780147D01*
X49320273Y-137888320D01*
X49085241Y-138045363D01*
X48885363Y-138245241D01*
X48728320Y-138480273D01*
X48620147Y-138741426D01*
X48565000Y-139018665D01*
X45935000Y-139018665D01*
X45879853Y-138741426D01*
X45771680Y-138480273D01*
X45614637Y-138245241D01*
X45414759Y-138045363D01*
X45179727Y-137888320D01*
X44918574Y-137780147D01*
X44641335Y-137725000D01*
X44358665Y-137725000D01*
X44081426Y-137780147D01*
X43820273Y-137888320D01*
X43585241Y-138045363D01*
X43385363Y-138245241D01*
X43228320Y-138480273D01*
X43120147Y-138741426D01*
X43065000Y-139018665D01*
X41435000Y-139018665D01*
X41379853Y-138741426D01*
X41271680Y-138480273D01*
X41114637Y-138245241D01*
X40914759Y-138045363D01*
X40679727Y-137888320D01*
X40418574Y-137780147D01*
X40141335Y-137725000D01*
X39858665Y-137725000D01*
X39581426Y-137780147D01*
X39320273Y-137888320D01*
X39085241Y-138045363D01*
X38885363Y-138245241D01*
X38728320Y-138480273D01*
X38620147Y-138741426D01*
X38565000Y-139018665D01*
X38565000Y-139301335D01*
X38620147Y-139578574D01*
X38728320Y-139839727D01*
X38885363Y-140074759D01*
X39085241Y-140274637D01*
X39165000Y-140327930D01*
X39165001Y-143565375D01*
X39075518Y-143574188D01*
X38955820Y-143610498D01*
X38845506Y-143669463D01*
X38748815Y-143748815D01*
X38669463Y-143845506D01*
X38610498Y-143955820D01*
X38574188Y-144075518D01*
X38561928Y-144200000D01*
X35660000Y-144200000D01*
X35660000Y-125358665D01*
X38565000Y-125358665D01*
X38565000Y-125641335D01*
X38620147Y-125918574D01*
X38728320Y-126179727D01*
X38885363Y-126414759D01*
X38965000Y-126494396D01*
X38965001Y-128005603D01*
X38885363Y-128085241D01*
X38728320Y-128320273D01*
X38620147Y-128581426D01*
X38565000Y-128858665D01*
X38565000Y-129141335D01*
X38620147Y-129418574D01*
X38728320Y-129679727D01*
X38885363Y-129914759D01*
X39085241Y-130114637D01*
X39320273Y-130271680D01*
X39581426Y-130379853D01*
X39858665Y-130435000D01*
X40141335Y-130435000D01*
X40418574Y-130379853D01*
X40679727Y-130271680D01*
X40914759Y-130114637D01*
X40994396Y-130035000D01*
X43505604Y-130035000D01*
X43585241Y-130114637D01*
X43820273Y-130271680D01*
X44081426Y-130379853D01*
X44358665Y-130435000D01*
X44641335Y-130435000D01*
X44918574Y-130379853D01*
X45179727Y-130271680D01*
X45414759Y-130114637D01*
X45494396Y-130035000D01*
X45580542Y-130035000D01*
X45631370Y-130040006D01*
X45682198Y-130035000D01*
X45682208Y-130035000D01*
X45834265Y-130020024D01*
X46029363Y-129960841D01*
X46209167Y-129864734D01*
X46350000Y-129749155D01*
X46372722Y-129767803D01*
X46490832Y-129864734D01*
X46584423Y-129914759D01*
X46670637Y-129960841D01*
X46865735Y-130020024D01*
X47017792Y-130035000D01*
X47017801Y-130035000D01*
X47068629Y-130040006D01*
X47119457Y-130035000D01*
X49005604Y-130035000D01*
X49085241Y-130114637D01*
X49320273Y-130271680D01*
X49581426Y-130379853D01*
X49858665Y-130435000D01*
X50141335Y-130435000D01*
X50418574Y-130379853D01*
X50679727Y-130271680D01*
X50914759Y-130114637D01*
X50994396Y-130035000D01*
X53505604Y-130035000D01*
X53585241Y-130114637D01*
X53820273Y-130271680D01*
X54081426Y-130379853D01*
X54358665Y-130435000D01*
X54471290Y-130435000D01*
X55265001Y-131228712D01*
X55265001Y-137945298D01*
X55179727Y-137888320D01*
X54918574Y-137780147D01*
X54641335Y-137725000D01*
X54358665Y-137725000D01*
X54081426Y-137780147D01*
X53820273Y-137888320D01*
X53585241Y-138045363D01*
X53385363Y-138245241D01*
X53228320Y-138480273D01*
X53120147Y-138741426D01*
X53065000Y-139018665D01*
X53065000Y-139301335D01*
X53083714Y-139395418D01*
X48564264Y-143914868D01*
X48534759Y-143885363D01*
X48299727Y-143728320D01*
X48038574Y-143620147D01*
X47761335Y-143565000D01*
X47478665Y-143565000D01*
X47201426Y-143620147D01*
X46940273Y-143728320D01*
X46705241Y-143885363D01*
X46505363Y-144085241D01*
X46348320Y-144320273D01*
X46240147Y-144581426D01*
X46185000Y-144858665D01*
X46185000Y-145141335D01*
X46200396Y-145218736D01*
X41938574Y-149480559D01*
X41906710Y-149506709D01*
X41880562Y-149538571D01*
X41802364Y-149633855D01*
X41724828Y-149778914D01*
X41677082Y-149936312D01*
X41660960Y-150100000D01*
X41665001Y-150141029D01*
X41665000Y-159178189D01*
X41660458Y-159179567D01*
X41506836Y-159261679D01*
X41372185Y-159372185D01*
X41261679Y-159506836D01*
X41179567Y-159660458D01*
X41129002Y-159827148D01*
X41111928Y-160000500D01*
X41111928Y-160999500D01*
X41129002Y-161172852D01*
X41179567Y-161339542D01*
X41261679Y-161493164D01*
X41372185Y-161627815D01*
X41506836Y-161738321D01*
X41660458Y-161820433D01*
X41827148Y-161870998D01*
X42000500Y-161888072D01*
X42999500Y-161888072D01*
X43172852Y-161870998D01*
X43339542Y-161820433D01*
X43493164Y-161738321D01*
X43627815Y-161627815D01*
X43738321Y-161493164D01*
X43757654Y-161456993D01*
X44262612Y-161456993D01*
X44328137Y-161695860D01*
X44575116Y-161811760D01*
X44839960Y-161877250D01*
X45112492Y-161889812D01*
X45382238Y-161848965D01*
X45638832Y-161756277D01*
X45751863Y-161695860D01*
X45817388Y-161456993D01*
X46802612Y-161456993D01*
X46868137Y-161695860D01*
X47115116Y-161811760D01*
X47379960Y-161877250D01*
X47652492Y-161889812D01*
X47922238Y-161848965D01*
X48178832Y-161756277D01*
X48291863Y-161695860D01*
X48357388Y-161456993D01*
X49342612Y-161456993D01*
X49408137Y-161695860D01*
X49655116Y-161811760D01*
X49919960Y-161877250D01*
X50192492Y-161889812D01*
X50462238Y-161848965D01*
X50718832Y-161756277D01*
X50831863Y-161695860D01*
X50897388Y-161456993D01*
X50120000Y-160679605D01*
X49342612Y-161456993D01*
X48357388Y-161456993D01*
X47580000Y-160679605D01*
X46802612Y-161456993D01*
X45817388Y-161456993D01*
X45040000Y-160679605D01*
X44262612Y-161456993D01*
X43757654Y-161456993D01*
X43820433Y-161339542D01*
X43858010Y-161215668D01*
X44083007Y-161277388D01*
X44860395Y-160500000D01*
X45219605Y-160500000D01*
X45996993Y-161277388D01*
X46235860Y-161211863D01*
X46308578Y-161056904D01*
X46323723Y-161098832D01*
X46384140Y-161211863D01*
X46623007Y-161277388D01*
X47400395Y-160500000D01*
X47759605Y-160500000D01*
X48536993Y-161277388D01*
X48775860Y-161211863D01*
X48848578Y-161056904D01*
X48863723Y-161098832D01*
X48924140Y-161211863D01*
X49163007Y-161277388D01*
X49940395Y-160500000D01*
X50299605Y-160500000D01*
X51076993Y-161277388D01*
X51315860Y-161211863D01*
X51431760Y-160964884D01*
X51497250Y-160700040D01*
X51509812Y-160427508D01*
X51468965Y-160157762D01*
X51376277Y-159901168D01*
X51315860Y-159788137D01*
X51076993Y-159722612D01*
X50299605Y-160500000D01*
X49940395Y-160500000D01*
X49163007Y-159722612D01*
X48924140Y-159788137D01*
X48851422Y-159943096D01*
X48836277Y-159901168D01*
X48775860Y-159788137D01*
X48536993Y-159722612D01*
X47759605Y-160500000D01*
X47400395Y-160500000D01*
X46623007Y-159722612D01*
X46384140Y-159788137D01*
X46311422Y-159943096D01*
X46296277Y-159901168D01*
X46235860Y-159788137D01*
X45996993Y-159722612D01*
X45219605Y-160500000D01*
X44860395Y-160500000D01*
X44083007Y-159722612D01*
X43858010Y-159784332D01*
X43820433Y-159660458D01*
X43757655Y-159543007D01*
X44262612Y-159543007D01*
X45040000Y-160320395D01*
X45817388Y-159543007D01*
X46802612Y-159543007D01*
X47580000Y-160320395D01*
X48357388Y-159543007D01*
X49342612Y-159543007D01*
X50120000Y-160320395D01*
X50897388Y-159543007D01*
X50831863Y-159304140D01*
X50584884Y-159188240D01*
X50320040Y-159122750D01*
X50047508Y-159110188D01*
X49777762Y-159151035D01*
X49521168Y-159243723D01*
X49408137Y-159304140D01*
X49342612Y-159543007D01*
X48357388Y-159543007D01*
X48291863Y-159304140D01*
X48044884Y-159188240D01*
X47780040Y-159122750D01*
X47507508Y-159110188D01*
X47237762Y-159151035D01*
X46981168Y-159243723D01*
X46868137Y-159304140D01*
X46802612Y-159543007D01*
X45817388Y-159543007D01*
X45751863Y-159304140D01*
X45504884Y-159188240D01*
X45240040Y-159122750D01*
X44967508Y-159110188D01*
X44697762Y-159151035D01*
X44441168Y-159243723D01*
X44328137Y-159304140D01*
X44262612Y-159543007D01*
X43757655Y-159543007D01*
X43738321Y-159506836D01*
X43627815Y-159372185D01*
X43582246Y-159334787D01*
X43633589Y-159345000D01*
X43906411Y-159345000D01*
X44173989Y-159291775D01*
X44426043Y-159187371D01*
X44652886Y-159035799D01*
X44771692Y-158916993D01*
X45532612Y-158916993D01*
X45598137Y-159155860D01*
X45845116Y-159271760D01*
X46109960Y-159337250D01*
X46382492Y-159349812D01*
X46652238Y-159308965D01*
X46908832Y-159216277D01*
X47021863Y-159155860D01*
X47087388Y-158916993D01*
X48072612Y-158916993D01*
X48138137Y-159155860D01*
X48385116Y-159271760D01*
X48649960Y-159337250D01*
X48922492Y-159349812D01*
X49192238Y-159308965D01*
X49448832Y-159216277D01*
X49561863Y-159155860D01*
X49627388Y-158916993D01*
X50612612Y-158916993D01*
X50678137Y-159155860D01*
X50925116Y-159271760D01*
X51189960Y-159337250D01*
X51462492Y-159349812D01*
X51732238Y-159308965D01*
X51988832Y-159216277D01*
X52101863Y-159155860D01*
X52167388Y-158916993D01*
X51390000Y-158139605D01*
X50612612Y-158916993D01*
X49627388Y-158916993D01*
X48850000Y-158139605D01*
X48072612Y-158916993D01*
X47087388Y-158916993D01*
X46310000Y-158139605D01*
X45532612Y-158916993D01*
X44771692Y-158916993D01*
X44845799Y-158842886D01*
X44997371Y-158616043D01*
X45038511Y-158516721D01*
X45053723Y-158558832D01*
X45114140Y-158671863D01*
X45353007Y-158737388D01*
X46130395Y-157960000D01*
X46489605Y-157960000D01*
X47266993Y-158737388D01*
X47505860Y-158671863D01*
X47578578Y-158516904D01*
X47593723Y-158558832D01*
X47654140Y-158671863D01*
X47893007Y-158737388D01*
X48670395Y-157960000D01*
X49029605Y-157960000D01*
X49806993Y-158737388D01*
X50045860Y-158671863D01*
X50118578Y-158516904D01*
X50133723Y-158558832D01*
X50194140Y-158671863D01*
X50433007Y-158737388D01*
X51210395Y-157960000D01*
X51569605Y-157960000D01*
X52346993Y-158737388D01*
X52585860Y-158671863D01*
X52701760Y-158424884D01*
X52767250Y-158160040D01*
X52779812Y-157887508D01*
X52738965Y-157617762D01*
X52646277Y-157361168D01*
X52585860Y-157248137D01*
X52346993Y-157182612D01*
X51569605Y-157960000D01*
X51210395Y-157960000D01*
X50433007Y-157182612D01*
X50194140Y-157248137D01*
X50121422Y-157403096D01*
X50106277Y-157361168D01*
X50045860Y-157248137D01*
X49806993Y-157182612D01*
X49029605Y-157960000D01*
X48670395Y-157960000D01*
X47893007Y-157182612D01*
X47654140Y-157248137D01*
X47581422Y-157403096D01*
X47566277Y-157361168D01*
X47505860Y-157248137D01*
X47266993Y-157182612D01*
X46489605Y-157960000D01*
X46130395Y-157960000D01*
X45353007Y-157182612D01*
X45114140Y-157248137D01*
X45039836Y-157406477D01*
X44997371Y-157303957D01*
X44845799Y-157077114D01*
X44771692Y-157003007D01*
X45532612Y-157003007D01*
X46310000Y-157780395D01*
X47087388Y-157003007D01*
X48072612Y-157003007D01*
X48850000Y-157780395D01*
X49627388Y-157003007D01*
X50612612Y-157003007D01*
X51390000Y-157780395D01*
X52167388Y-157003007D01*
X52101863Y-156764140D01*
X51854884Y-156648240D01*
X51590040Y-156582750D01*
X51317508Y-156570188D01*
X51047762Y-156611035D01*
X50791168Y-156703723D01*
X50678137Y-156764140D01*
X50612612Y-157003007D01*
X49627388Y-157003007D01*
X49561863Y-156764140D01*
X49314884Y-156648240D01*
X49050040Y-156582750D01*
X48777508Y-156570188D01*
X48507762Y-156611035D01*
X48251168Y-156703723D01*
X48138137Y-156764140D01*
X48072612Y-157003007D01*
X47087388Y-157003007D01*
X47021863Y-156764140D01*
X46774884Y-156648240D01*
X46510040Y-156582750D01*
X46237508Y-156570188D01*
X45967762Y-156611035D01*
X45711168Y-156703723D01*
X45598137Y-156764140D01*
X45532612Y-157003007D01*
X44771692Y-157003007D01*
X44652886Y-156884201D01*
X44585000Y-156838841D01*
X44585000Y-151745867D01*
X44769438Y-151561429D01*
X47376242Y-148954626D01*
X47478665Y-148975000D01*
X47761335Y-148975000D01*
X48038574Y-148919853D01*
X48299727Y-148811680D01*
X48534759Y-148654637D01*
X48734637Y-148454759D01*
X48891680Y-148219727D01*
X48999853Y-147958574D01*
X49055000Y-147681335D01*
X49055000Y-147398665D01*
X48999853Y-147121426D01*
X48891680Y-146860273D01*
X48734637Y-146625241D01*
X48534759Y-146425363D01*
X48302241Y-146270000D01*
X48534759Y-146114637D01*
X48734637Y-145914759D01*
X48794053Y-145825837D01*
X48823689Y-145822918D01*
X48981087Y-145775172D01*
X49126146Y-145697636D01*
X49253291Y-145593291D01*
X49279446Y-145561421D01*
X51013867Y-143827000D01*
X52627750Y-143827000D01*
X52673750Y-143873000D01*
X53873000Y-143873000D01*
X53873000Y-143853000D01*
X54127000Y-143853000D01*
X54127000Y-143873000D01*
X54147000Y-143873000D01*
X54147000Y-144127000D01*
X54127000Y-144127000D01*
X54127000Y-144147000D01*
X53873000Y-144147000D01*
X53873000Y-144127000D01*
X52673750Y-144127000D01*
X52515000Y-144285750D01*
X52511928Y-144850000D01*
X52524188Y-144974482D01*
X52560498Y-145094180D01*
X52619463Y-145204494D01*
X52698815Y-145301185D01*
X52795506Y-145380537D01*
X52905820Y-145439502D01*
X52978380Y-145461513D01*
X52846525Y-145593368D01*
X52684010Y-145836589D01*
X52572068Y-146106842D01*
X52515000Y-146393740D01*
X52515000Y-146686260D01*
X52572068Y-146973158D01*
X52684010Y-147243411D01*
X52846525Y-147486632D01*
X53053368Y-147693475D01*
X53227760Y-147810000D01*
X53053368Y-147926525D01*
X52846525Y-148133368D01*
X52684010Y-148376589D01*
X52572068Y-148646842D01*
X52515000Y-148933740D01*
X52515000Y-149226260D01*
X52572068Y-149513158D01*
X52684010Y-149783411D01*
X52846525Y-150026632D01*
X53053368Y-150233475D01*
X53227760Y-150350000D01*
X53053368Y-150466525D01*
X52846525Y-150673368D01*
X52684010Y-150916589D01*
X52572068Y-151186842D01*
X52515000Y-151473740D01*
X52515000Y-151766260D01*
X52572068Y-152053158D01*
X52684010Y-152323411D01*
X52846525Y-152566632D01*
X53053368Y-152773475D01*
X53296589Y-152935990D01*
X53566842Y-153047932D01*
X53853740Y-153105000D01*
X54146260Y-153105000D01*
X54277940Y-153078807D01*
X56240000Y-155040869D01*
X56240001Y-157983972D01*
X56235960Y-158025000D01*
X56252082Y-158188688D01*
X56299828Y-158346086D01*
X56377364Y-158491145D01*
X56400907Y-158519832D01*
X56481710Y-158618291D01*
X56513574Y-158644441D01*
X59135397Y-161266265D01*
X59120001Y-161343666D01*
X59120001Y-161626336D01*
X59175148Y-161903575D01*
X59283321Y-162164728D01*
X59440364Y-162399760D01*
X59640242Y-162599638D01*
X59872760Y-162755001D01*
X59640242Y-162910364D01*
X59440364Y-163110242D01*
X59283321Y-163345274D01*
X59175148Y-163606427D01*
X59120001Y-163883666D01*
X59120001Y-164166336D01*
X59175148Y-164443575D01*
X59283321Y-164704728D01*
X59440364Y-164939760D01*
X59640242Y-165139638D01*
X59872760Y-165295001D01*
X59640242Y-165450364D01*
X59440364Y-165650242D01*
X59283321Y-165885274D01*
X59175148Y-166146427D01*
X59120001Y-166423666D01*
X59120001Y-166706336D01*
X59175148Y-166983575D01*
X59283321Y-167244728D01*
X59440364Y-167479760D01*
X59640242Y-167679638D01*
X59872760Y-167835001D01*
X59640242Y-167990364D01*
X59440364Y-168190242D01*
X59283321Y-168425274D01*
X59175148Y-168686427D01*
X59120001Y-168963666D01*
X59120001Y-169246336D01*
X59175148Y-169523575D01*
X59283321Y-169784728D01*
X59440364Y-170019760D01*
X59640242Y-170219638D01*
X59872760Y-170375001D01*
X59640242Y-170530364D01*
X59440364Y-170730242D01*
X59283321Y-170965274D01*
X59175148Y-171226427D01*
X59120001Y-171503666D01*
X59120001Y-171786336D01*
X59175148Y-172063575D01*
X59283321Y-172324728D01*
X59440364Y-172559760D01*
X59640242Y-172759638D01*
X59875274Y-172916681D01*
X60136427Y-173024854D01*
X60413666Y-173080001D01*
X60696336Y-173080001D01*
X60973575Y-173024854D01*
X61234728Y-172916681D01*
X61469760Y-172759638D01*
X61669638Y-172559760D01*
X61826681Y-172324728D01*
X61934854Y-172063575D01*
X61990001Y-171786336D01*
X61990001Y-171503666D01*
X61934854Y-171226427D01*
X61826681Y-170965274D01*
X61669638Y-170730242D01*
X61469760Y-170530364D01*
X61237242Y-170375001D01*
X61469760Y-170219638D01*
X61669638Y-170019760D01*
X61826681Y-169784728D01*
X61934854Y-169523575D01*
X61990001Y-169246336D01*
X61990001Y-168963666D01*
X61934854Y-168686427D01*
X61826681Y-168425274D01*
X61669638Y-168190242D01*
X61469760Y-167990364D01*
X61237242Y-167835001D01*
X61469760Y-167679638D01*
X61544950Y-167604448D01*
X68001933Y-174061432D01*
X68028079Y-174093291D01*
X68155224Y-174197636D01*
X68300283Y-174275172D01*
X68457681Y-174322918D01*
X68580351Y-174335000D01*
X68580352Y-174335000D01*
X68621370Y-174339040D01*
X68662388Y-174335000D01*
X80208982Y-174335000D01*
X80250000Y-174339040D01*
X80291018Y-174335000D01*
X80291019Y-174335000D01*
X80413689Y-174322918D01*
X80571087Y-174275172D01*
X80716146Y-174197636D01*
X80843291Y-174093291D01*
X80869446Y-174061421D01*
X84061428Y-170869440D01*
X84093291Y-170843291D01*
X84197636Y-170716146D01*
X84275172Y-170571087D01*
X84322918Y-170413689D01*
X84326894Y-170373321D01*
X84333617Y-170305059D01*
X84454014Y-170240706D01*
X84680134Y-170055134D01*
X84865706Y-169829014D01*
X85003599Y-169571034D01*
X85088513Y-169291111D01*
X85117185Y-169000000D01*
X85088513Y-168708889D01*
X85003599Y-168428966D01*
X84865706Y-168170986D01*
X84680134Y-167944866D01*
X84454014Y-167759294D01*
X84436626Y-167750000D01*
X84454014Y-167740706D01*
X84680134Y-167555134D01*
X84865706Y-167329014D01*
X85003599Y-167071034D01*
X85088513Y-166791111D01*
X85117185Y-166500000D01*
X85088513Y-166208889D01*
X85003599Y-165928966D01*
X84865706Y-165670986D01*
X84680134Y-165444866D01*
X84454014Y-165259294D01*
X84436626Y-165250000D01*
X84454014Y-165240706D01*
X84680134Y-165055134D01*
X84865706Y-164829014D01*
X85003599Y-164571034D01*
X85088513Y-164291111D01*
X85117185Y-164000000D01*
X85088513Y-163708889D01*
X85003599Y-163428966D01*
X84865706Y-163170986D01*
X84680134Y-162944866D01*
X84454014Y-162759294D01*
X84436626Y-162750000D01*
X84454014Y-162740706D01*
X84680134Y-162555134D01*
X84865706Y-162329014D01*
X85003599Y-162071034D01*
X85088513Y-161791111D01*
X85117185Y-161500000D01*
X85088513Y-161208889D01*
X85003599Y-160928966D01*
X84865706Y-160670986D01*
X84684392Y-160450055D01*
X84719180Y-160439502D01*
X84829494Y-160380537D01*
X84926185Y-160301185D01*
X85005537Y-160204494D01*
X85064502Y-160094180D01*
X85100812Y-159974482D01*
X85113072Y-159850000D01*
X85110000Y-159285750D01*
X84951250Y-159127000D01*
X83627000Y-159127000D01*
X83627000Y-159147000D01*
X83373000Y-159147000D01*
X83373000Y-159127000D01*
X82048750Y-159127000D01*
X81890000Y-159285750D01*
X81886928Y-159850000D01*
X81899188Y-159974482D01*
X81935498Y-160094180D01*
X81994463Y-160204494D01*
X82073815Y-160301185D01*
X82170506Y-160380537D01*
X82280820Y-160439502D01*
X82315608Y-160450055D01*
X82303342Y-160465000D01*
X82153711Y-160465000D01*
X80535000Y-158846290D01*
X80535000Y-158150000D01*
X81886928Y-158150000D01*
X81890000Y-158714250D01*
X82048750Y-158873000D01*
X83373000Y-158873000D01*
X83373000Y-157673750D01*
X83627000Y-157673750D01*
X83627000Y-158873000D01*
X84951250Y-158873000D01*
X85110000Y-158714250D01*
X85113072Y-158150000D01*
X85100812Y-158025518D01*
X85064502Y-157905820D01*
X85005537Y-157795506D01*
X84926185Y-157698815D01*
X84829494Y-157619463D01*
X84719180Y-157560498D01*
X84599482Y-157524188D01*
X84475000Y-157511928D01*
X83785750Y-157515000D01*
X83627000Y-157673750D01*
X83373000Y-157673750D01*
X83214250Y-157515000D01*
X82525000Y-157511928D01*
X82400518Y-157524188D01*
X82280820Y-157560498D01*
X82170506Y-157619463D01*
X82073815Y-157698815D01*
X81994463Y-157795506D01*
X81935498Y-157905820D01*
X81899188Y-158025518D01*
X81886928Y-158150000D01*
X80535000Y-158150000D01*
X80535000Y-151856890D01*
X81933524Y-151856890D01*
X82025648Y-152119858D01*
X82172504Y-152371193D01*
X82365571Y-152589049D01*
X82597430Y-152765053D01*
X82859170Y-152892442D01*
X83140733Y-152966320D01*
X83373000Y-152826165D01*
X83373000Y-151627000D01*
X83627000Y-151627000D01*
X83627000Y-152826165D01*
X83859267Y-152966320D01*
X84140830Y-152892442D01*
X84402570Y-152765053D01*
X84634429Y-152589049D01*
X84827496Y-152371193D01*
X84974352Y-152119858D01*
X85066476Y-151856890D01*
X84945155Y-151627000D01*
X83627000Y-151627000D01*
X83373000Y-151627000D01*
X82054845Y-151627000D01*
X81933524Y-151856890D01*
X80535000Y-151856890D01*
X80535000Y-147527000D01*
X82296777Y-147527000D01*
X82319866Y-147555134D01*
X82545986Y-147740706D01*
X82563374Y-147750000D01*
X82545986Y-147759294D01*
X82319866Y-147944866D01*
X82134294Y-148170986D01*
X81996401Y-148428966D01*
X81911487Y-148708889D01*
X81882815Y-149000000D01*
X81911487Y-149291111D01*
X81996401Y-149571034D01*
X82134294Y-149829014D01*
X82319866Y-150055134D01*
X82545986Y-150240706D01*
X82571722Y-150254462D01*
X82365571Y-150410951D01*
X82172504Y-150628807D01*
X82025648Y-150880142D01*
X81933524Y-151143110D01*
X82054845Y-151373000D01*
X83373000Y-151373000D01*
X83373000Y-151353000D01*
X83627000Y-151353000D01*
X83627000Y-151373000D01*
X84945155Y-151373000D01*
X85066476Y-151143110D01*
X84974352Y-150880142D01*
X84827496Y-150628807D01*
X84634429Y-150410951D01*
X84428278Y-150254462D01*
X84454014Y-150240706D01*
X84680134Y-150055134D01*
X84865706Y-149829014D01*
X85003599Y-149571034D01*
X85088513Y-149291111D01*
X85117185Y-149000000D01*
X85088513Y-148708889D01*
X85003599Y-148428966D01*
X84865706Y-148170986D01*
X84680134Y-147944866D01*
X84454014Y-147759294D01*
X84436626Y-147750000D01*
X84454014Y-147740706D01*
X84680134Y-147555134D01*
X84865706Y-147329014D01*
X85003599Y-147071034D01*
X85088513Y-146791111D01*
X85117185Y-146500000D01*
X85088513Y-146208889D01*
X85003599Y-145928966D01*
X84865706Y-145670986D01*
X84680134Y-145444866D01*
X84616663Y-145392777D01*
X84718386Y-145338405D01*
X84852962Y-145227962D01*
X84963405Y-145093386D01*
X85045472Y-144939850D01*
X85096008Y-144773254D01*
X85113072Y-144600000D01*
X85113072Y-143400000D01*
X85096008Y-143226746D01*
X85045472Y-143060150D01*
X84963405Y-142906614D01*
X84852962Y-142772038D01*
X84718386Y-142661595D01*
X84564850Y-142579528D01*
X84398254Y-142528992D01*
X84225000Y-142511928D01*
X83685639Y-142511928D01*
X77230001Y-136056291D01*
X77230001Y-135943666D01*
X77174854Y-135666427D01*
X77066681Y-135405274D01*
X76909638Y-135170242D01*
X76709760Y-134970364D01*
X76474728Y-134813321D01*
X76213575Y-134705148D01*
X75936336Y-134650001D01*
X75653666Y-134650001D01*
X75376427Y-134705148D01*
X75115274Y-134813321D01*
X74880242Y-134970364D01*
X74680364Y-135170242D01*
X74523321Y-135405274D01*
X74415148Y-135666427D01*
X74360001Y-135943666D01*
X74360001Y-136226336D01*
X74415148Y-136503575D01*
X74523321Y-136764728D01*
X74680364Y-136999760D01*
X74880242Y-137199638D01*
X75115274Y-137356681D01*
X75125866Y-137361068D01*
X74939870Y-137472616D01*
X74731482Y-137661587D01*
X74563964Y-137887581D01*
X74443755Y-138141914D01*
X74403097Y-138275962D01*
X74525086Y-138498001D01*
X75668001Y-138498001D01*
X75668001Y-138478001D01*
X75922001Y-138478001D01*
X75922001Y-138498001D01*
X75942001Y-138498001D01*
X75942001Y-138752001D01*
X75922001Y-138752001D01*
X75922001Y-138772001D01*
X75668001Y-138772001D01*
X75668001Y-138752001D01*
X74525086Y-138752001D01*
X74403097Y-138974040D01*
X74443755Y-139108088D01*
X74563964Y-139362421D01*
X74731482Y-139588415D01*
X74939870Y-139777386D01*
X75125866Y-139888934D01*
X75115274Y-139893321D01*
X74880242Y-140050364D01*
X74680364Y-140250242D01*
X74523321Y-140485274D01*
X74415148Y-140746427D01*
X74360001Y-141023666D01*
X74360001Y-141306336D01*
X74415148Y-141583575D01*
X74523321Y-141844728D01*
X74680364Y-142079760D01*
X74880242Y-142279638D01*
X75112760Y-142435001D01*
X74880242Y-142590364D01*
X74805606Y-142665000D01*
X71878711Y-142665000D01*
X61493583Y-132279872D01*
X82265000Y-132279872D01*
X82265000Y-132720128D01*
X82350890Y-133151925D01*
X82519369Y-133558669D01*
X82763962Y-133924729D01*
X83075271Y-134236038D01*
X83441331Y-134480631D01*
X83848075Y-134649110D01*
X84279872Y-134735000D01*
X84720128Y-134735000D01*
X85151925Y-134649110D01*
X85558669Y-134480631D01*
X85924729Y-134236038D01*
X86236038Y-133924729D01*
X86480631Y-133558669D01*
X86649110Y-133151925D01*
X86735000Y-132720128D01*
X86735000Y-132279872D01*
X86649110Y-131848075D01*
X86480631Y-131441331D01*
X86236038Y-131075271D01*
X85924729Y-130763962D01*
X85558669Y-130519369D01*
X85151925Y-130350890D01*
X84720128Y-130265000D01*
X84279872Y-130265000D01*
X83848075Y-130350890D01*
X83441331Y-130519369D01*
X83075271Y-130763962D01*
X82763962Y-131075271D01*
X82519369Y-131441331D01*
X82350890Y-131848075D01*
X82265000Y-132279872D01*
X61493583Y-132279872D01*
X58282225Y-129068514D01*
X59865000Y-129068514D01*
X59865000Y-129331486D01*
X59916304Y-129589405D01*
X60016939Y-129832359D01*
X60163038Y-130051013D01*
X60348987Y-130236962D01*
X60567641Y-130383061D01*
X60810595Y-130483696D01*
X61068514Y-130535000D01*
X61331486Y-130535000D01*
X61589405Y-130483696D01*
X61832359Y-130383061D01*
X62051013Y-130236962D01*
X62236962Y-130051013D01*
X62383061Y-129832359D01*
X62450000Y-129670754D01*
X62516939Y-129832359D01*
X62663038Y-130051013D01*
X62848987Y-130236962D01*
X63067641Y-130383061D01*
X63310595Y-130483696D01*
X63568514Y-130535000D01*
X63831486Y-130535000D01*
X64089405Y-130483696D01*
X64332359Y-130383061D01*
X64551013Y-130236962D01*
X64736962Y-130051013D01*
X64883061Y-129832359D01*
X64950000Y-129670754D01*
X65016939Y-129832359D01*
X65163038Y-130051013D01*
X65348987Y-130236962D01*
X65567641Y-130383061D01*
X65810595Y-130483696D01*
X66068514Y-130535000D01*
X66331486Y-130535000D01*
X66589405Y-130483696D01*
X66832359Y-130383061D01*
X67051013Y-130236962D01*
X67236962Y-130051013D01*
X67383061Y-129832359D01*
X67483696Y-129589405D01*
X67535000Y-129331486D01*
X67535000Y-129068514D01*
X67483696Y-128810595D01*
X67383061Y-128567641D01*
X67236962Y-128348987D01*
X67051013Y-128163038D01*
X66832359Y-128016939D01*
X66589405Y-127916304D01*
X66331486Y-127865000D01*
X66068514Y-127865000D01*
X65810595Y-127916304D01*
X65567641Y-128016939D01*
X65348987Y-128163038D01*
X65163038Y-128348987D01*
X65016939Y-128567641D01*
X64950000Y-128729246D01*
X64883061Y-128567641D01*
X64736962Y-128348987D01*
X64551013Y-128163038D01*
X64332359Y-128016939D01*
X64089405Y-127916304D01*
X63831486Y-127865000D01*
X63568514Y-127865000D01*
X63310595Y-127916304D01*
X63067641Y-128016939D01*
X62848987Y-128163038D01*
X62663038Y-128348987D01*
X62516939Y-128567641D01*
X62450000Y-128729246D01*
X62383061Y-128567641D01*
X62236962Y-128348987D01*
X62051013Y-128163038D01*
X61832359Y-128016939D01*
X61589405Y-127916304D01*
X61331486Y-127865000D01*
X61068514Y-127865000D01*
X60810595Y-127916304D01*
X60567641Y-128016939D01*
X60348987Y-128163038D01*
X60163038Y-128348987D01*
X60016939Y-128567641D01*
X59916304Y-128810595D01*
X59865000Y-129068514D01*
X58282225Y-129068514D01*
X57517807Y-128304097D01*
X57485396Y-128264604D01*
X57327797Y-128135266D01*
X57147993Y-128039159D01*
X56952895Y-127979976D01*
X56800838Y-127965000D01*
X56800828Y-127965000D01*
X56750000Y-127959994D01*
X56699172Y-127965000D01*
X55827000Y-127965000D01*
X55827000Y-126412420D01*
X55838072Y-126300000D01*
X55838072Y-124700000D01*
X55827000Y-124587580D01*
X55827000Y-124367868D01*
X57920563Y-126461432D01*
X57946709Y-126493291D01*
X57978568Y-126519437D01*
X57978570Y-126519439D01*
X58073854Y-126597636D01*
X58218913Y-126675172D01*
X58376311Y-126722918D01*
X58392191Y-126724482D01*
X58540000Y-126739040D01*
X58581018Y-126735000D01*
X59877379Y-126735000D01*
X59910498Y-126844180D01*
X59969463Y-126954494D01*
X60048815Y-127051185D01*
X60145506Y-127130537D01*
X60255820Y-127189502D01*
X60375518Y-127225812D01*
X60500000Y-127238072D01*
X61900000Y-127238072D01*
X62024482Y-127225812D01*
X62144180Y-127189502D01*
X62254494Y-127130537D01*
X62351185Y-127051185D01*
X62430537Y-126954494D01*
X62489502Y-126844180D01*
X62525812Y-126724482D01*
X62538072Y-126600000D01*
X62538072Y-126563987D01*
X62663038Y-126751013D01*
X62848987Y-126936962D01*
X63067641Y-127083061D01*
X63310595Y-127183696D01*
X63568514Y-127235000D01*
X63831486Y-127235000D01*
X64089405Y-127183696D01*
X64332359Y-127083061D01*
X64551013Y-126936962D01*
X64736962Y-126751013D01*
X64883061Y-126532359D01*
X64950000Y-126370754D01*
X65016939Y-126532359D01*
X65163038Y-126751013D01*
X65348987Y-126936962D01*
X65567641Y-127083061D01*
X65810595Y-127183696D01*
X66068514Y-127235000D01*
X66331486Y-127235000D01*
X66589405Y-127183696D01*
X66832359Y-127083061D01*
X67051013Y-126936962D01*
X67236962Y-126751013D01*
X67383061Y-126532359D01*
X67483696Y-126289405D01*
X67535000Y-126031486D01*
X67535000Y-125768514D01*
X67483696Y-125510595D01*
X67383061Y-125267641D01*
X67236962Y-125048987D01*
X67051013Y-124863038D01*
X66832359Y-124716939D01*
X66589405Y-124616304D01*
X66331486Y-124565000D01*
X66068514Y-124565000D01*
X65810595Y-124616304D01*
X65567641Y-124716939D01*
X65348987Y-124863038D01*
X65163038Y-125048987D01*
X65016939Y-125267641D01*
X64950000Y-125429246D01*
X64883061Y-125267641D01*
X64736962Y-125048987D01*
X64551013Y-124863038D01*
X64332359Y-124716939D01*
X64089405Y-124616304D01*
X63831486Y-124565000D01*
X63568514Y-124565000D01*
X63310595Y-124616304D01*
X63067641Y-124716939D01*
X62848987Y-124863038D01*
X62663038Y-125048987D01*
X62538072Y-125236013D01*
X62538072Y-125200000D01*
X62525812Y-125075518D01*
X62489502Y-124955820D01*
X62430537Y-124845506D01*
X62351185Y-124748815D01*
X62254494Y-124669463D01*
X62144180Y-124610498D01*
X62024482Y-124574188D01*
X61900000Y-124561928D01*
X60500000Y-124561928D01*
X60375518Y-124574188D01*
X60255820Y-124610498D01*
X60145506Y-124669463D01*
X60048815Y-124748815D01*
X59969463Y-124845506D01*
X59910498Y-124955820D01*
X59877379Y-125065000D01*
X58885869Y-125065000D01*
X57169684Y-123348816D01*
X79025000Y-123348816D01*
X79025000Y-123651184D01*
X79083989Y-123947743D01*
X79199701Y-124227095D01*
X79367688Y-124478505D01*
X79581495Y-124692312D01*
X79832905Y-124860299D01*
X80112257Y-124976011D01*
X80408816Y-125035000D01*
X80711184Y-125035000D01*
X81007743Y-124976011D01*
X81287095Y-124860299D01*
X81538505Y-124692312D01*
X81604944Y-124625873D01*
X81610498Y-124644180D01*
X81669463Y-124754494D01*
X81748815Y-124851185D01*
X81845506Y-124930537D01*
X81955820Y-124989502D01*
X82075518Y-125025812D01*
X82200000Y-125038072D01*
X82814250Y-125035000D01*
X82973000Y-124876250D01*
X82973000Y-123627000D01*
X83227000Y-123627000D01*
X83227000Y-124876250D01*
X83385750Y-125035000D01*
X84000000Y-125038072D01*
X84124482Y-125025812D01*
X84244180Y-124989502D01*
X84354494Y-124930537D01*
X84451185Y-124851185D01*
X84530537Y-124754494D01*
X84589502Y-124644180D01*
X84625812Y-124524482D01*
X84638072Y-124400000D01*
X84635000Y-123785750D01*
X84476250Y-123627000D01*
X83227000Y-123627000D01*
X82973000Y-123627000D01*
X82953000Y-123627000D01*
X82953000Y-123373000D01*
X82973000Y-123373000D01*
X82973000Y-122123750D01*
X83227000Y-122123750D01*
X83227000Y-123373000D01*
X84476250Y-123373000D01*
X84635000Y-123214250D01*
X84638072Y-122600000D01*
X84625812Y-122475518D01*
X84589502Y-122355820D01*
X84530537Y-122245506D01*
X84451185Y-122148815D01*
X84354494Y-122069463D01*
X84244180Y-122010498D01*
X84124482Y-121974188D01*
X84000000Y-121961928D01*
X83385750Y-121965000D01*
X83227000Y-122123750D01*
X82973000Y-122123750D01*
X82814250Y-121965000D01*
X82200000Y-121961928D01*
X82075518Y-121974188D01*
X81955820Y-122010498D01*
X81845506Y-122069463D01*
X81748815Y-122148815D01*
X81669463Y-122245506D01*
X81610498Y-122355820D01*
X81604944Y-122374127D01*
X81538505Y-122307688D01*
X81287095Y-122139701D01*
X81007743Y-122023989D01*
X80711184Y-121965000D01*
X80408816Y-121965000D01*
X80112257Y-122023989D01*
X79832905Y-122139701D01*
X79581495Y-122307688D01*
X79367688Y-122521495D01*
X79199701Y-122772905D01*
X79083989Y-123052257D01*
X79025000Y-123348816D01*
X57169684Y-123348816D01*
X56219446Y-122398579D01*
X56193291Y-122366709D01*
X56066146Y-122262364D01*
X55921087Y-122184828D01*
X55763689Y-122137082D01*
X55641019Y-122125000D01*
X55641018Y-122125000D01*
X55600000Y-122120960D01*
X55570205Y-122123895D01*
X55419608Y-121940392D01*
X55201101Y-121761068D01*
X55068142Y-121690000D01*
X55201101Y-121618932D01*
X55419608Y-121439608D01*
X55598932Y-121221101D01*
X55732182Y-120971808D01*
X55814236Y-120701309D01*
X55840074Y-120438967D01*
X59465000Y-120438967D01*
X59465000Y-120761033D01*
X59527832Y-121076912D01*
X59651082Y-121374463D01*
X59830013Y-121642252D01*
X60057748Y-121869987D01*
X60325537Y-122048918D01*
X60623088Y-122172168D01*
X60938967Y-122235000D01*
X61261033Y-122235000D01*
X61576912Y-122172168D01*
X61874463Y-122048918D01*
X62142252Y-121869987D01*
X62276826Y-121735413D01*
X64644192Y-121735413D01*
X64739956Y-121999814D01*
X65029571Y-122140704D01*
X65341108Y-122222384D01*
X65662595Y-122241718D01*
X65981675Y-122197961D01*
X66286088Y-122092795D01*
X66460044Y-121999814D01*
X66555808Y-121735413D01*
X65600000Y-120779605D01*
X64644192Y-121735413D01*
X62276826Y-121735413D01*
X62369987Y-121642252D01*
X62548918Y-121374463D01*
X62672168Y-121076912D01*
X62735000Y-120761033D01*
X62735000Y-120662595D01*
X63958282Y-120662595D01*
X64002039Y-120981675D01*
X64107205Y-121286088D01*
X64200186Y-121460044D01*
X64464587Y-121555808D01*
X65420395Y-120600000D01*
X65779605Y-120600000D01*
X66735413Y-121555808D01*
X66999814Y-121460044D01*
X67140704Y-121170429D01*
X67222384Y-120858892D01*
X67241718Y-120537405D01*
X67228219Y-120438967D01*
X68965000Y-120438967D01*
X68965000Y-120761033D01*
X69027832Y-121076912D01*
X69151082Y-121374463D01*
X69330013Y-121642252D01*
X69557748Y-121869987D01*
X69825537Y-122048918D01*
X70123088Y-122172168D01*
X70438967Y-122235000D01*
X70761033Y-122235000D01*
X71076912Y-122172168D01*
X71374463Y-122048918D01*
X71642252Y-121869987D01*
X71776826Y-121735413D01*
X74144192Y-121735413D01*
X74239956Y-121999814D01*
X74529571Y-122140704D01*
X74841108Y-122222384D01*
X75162595Y-122241718D01*
X75481675Y-122197961D01*
X75786088Y-122092795D01*
X75960044Y-121999814D01*
X76055808Y-121735413D01*
X75100000Y-120779605D01*
X74144192Y-121735413D01*
X71776826Y-121735413D01*
X71869987Y-121642252D01*
X72048918Y-121374463D01*
X72172168Y-121076912D01*
X72235000Y-120761033D01*
X72235000Y-120662595D01*
X73458282Y-120662595D01*
X73502039Y-120981675D01*
X73607205Y-121286088D01*
X73700186Y-121460044D01*
X73964587Y-121555808D01*
X74920395Y-120600000D01*
X75279605Y-120600000D01*
X76235413Y-121555808D01*
X76499814Y-121460044D01*
X76640704Y-121170429D01*
X76722384Y-120858892D01*
X76741718Y-120537405D01*
X76697961Y-120218325D01*
X76592795Y-119913912D01*
X76499814Y-119739956D01*
X76235413Y-119644192D01*
X75279605Y-120600000D01*
X74920395Y-120600000D01*
X73964587Y-119644192D01*
X73700186Y-119739956D01*
X73559296Y-120029571D01*
X73477616Y-120341108D01*
X73458282Y-120662595D01*
X72235000Y-120662595D01*
X72235000Y-120438967D01*
X72172168Y-120123088D01*
X72048918Y-119825537D01*
X71869987Y-119557748D01*
X71776826Y-119464587D01*
X74144192Y-119464587D01*
X75100000Y-120420395D01*
X76055808Y-119464587D01*
X75960044Y-119200186D01*
X75670429Y-119059296D01*
X75358892Y-118977616D01*
X75037405Y-118958282D01*
X74718325Y-119002039D01*
X74413912Y-119107205D01*
X74239956Y-119200186D01*
X74144192Y-119464587D01*
X71776826Y-119464587D01*
X71642252Y-119330013D01*
X71374463Y-119151082D01*
X71076912Y-119027832D01*
X70761033Y-118965000D01*
X70438967Y-118965000D01*
X70123088Y-119027832D01*
X69825537Y-119151082D01*
X69557748Y-119330013D01*
X69330013Y-119557748D01*
X69151082Y-119825537D01*
X69027832Y-120123088D01*
X68965000Y-120438967D01*
X67228219Y-120438967D01*
X67197961Y-120218325D01*
X67092795Y-119913912D01*
X66999814Y-119739956D01*
X66735413Y-119644192D01*
X65779605Y-120600000D01*
X65420395Y-120600000D01*
X64464587Y-119644192D01*
X64200186Y-119739956D01*
X64059296Y-120029571D01*
X63977616Y-120341108D01*
X63958282Y-120662595D01*
X62735000Y-120662595D01*
X62735000Y-120438967D01*
X62672168Y-120123088D01*
X62548918Y-119825537D01*
X62369987Y-119557748D01*
X62276826Y-119464587D01*
X64644192Y-119464587D01*
X65600000Y-120420395D01*
X66555808Y-119464587D01*
X66460044Y-119200186D01*
X66170429Y-119059296D01*
X65858892Y-118977616D01*
X65537405Y-118958282D01*
X65218325Y-119002039D01*
X64913912Y-119107205D01*
X64739956Y-119200186D01*
X64644192Y-119464587D01*
X62276826Y-119464587D01*
X62142252Y-119330013D01*
X61874463Y-119151082D01*
X61576912Y-119027832D01*
X61261033Y-118965000D01*
X60938967Y-118965000D01*
X60623088Y-119027832D01*
X60325537Y-119151082D01*
X60057748Y-119330013D01*
X59830013Y-119557748D01*
X59651082Y-119825537D01*
X59527832Y-120123088D01*
X59465000Y-120438967D01*
X55840074Y-120438967D01*
X55841943Y-120420000D01*
X55814236Y-120138691D01*
X55732182Y-119868192D01*
X55598932Y-119618899D01*
X55419608Y-119400392D01*
X55201101Y-119221068D01*
X55068142Y-119150000D01*
X55201101Y-119078932D01*
X55419608Y-118899608D01*
X55598932Y-118681101D01*
X55732182Y-118431808D01*
X55814236Y-118161309D01*
X55841943Y-117880000D01*
X55814236Y-117598691D01*
X55732182Y-117328192D01*
X55598932Y-117078899D01*
X55419608Y-116860392D01*
X55201101Y-116681068D01*
X55068142Y-116610000D01*
X55201101Y-116538932D01*
X55419608Y-116359608D01*
X55598932Y-116141101D01*
X55732182Y-115891808D01*
X55814236Y-115621309D01*
X55841943Y-115340000D01*
X55814236Y-115058691D01*
X55732182Y-114788192D01*
X55598932Y-114538899D01*
X55419608Y-114320392D01*
X55201101Y-114141068D01*
X55068142Y-114070000D01*
X55201101Y-113998932D01*
X55274168Y-113938967D01*
X59465000Y-113938967D01*
X59465000Y-114261033D01*
X59527832Y-114576912D01*
X59651082Y-114874463D01*
X59830013Y-115142252D01*
X60057748Y-115369987D01*
X60325537Y-115548918D01*
X60623088Y-115672168D01*
X60938967Y-115735000D01*
X61261033Y-115735000D01*
X61576912Y-115672168D01*
X61874463Y-115548918D01*
X62142252Y-115369987D01*
X62276826Y-115235413D01*
X64644192Y-115235413D01*
X64739956Y-115499814D01*
X65029571Y-115640704D01*
X65341108Y-115722384D01*
X65662595Y-115741718D01*
X65981675Y-115697961D01*
X66286088Y-115592795D01*
X66460044Y-115499814D01*
X66555808Y-115235413D01*
X65600000Y-114279605D01*
X64644192Y-115235413D01*
X62276826Y-115235413D01*
X62369987Y-115142252D01*
X62548918Y-114874463D01*
X62672168Y-114576912D01*
X62735000Y-114261033D01*
X62735000Y-114162595D01*
X63958282Y-114162595D01*
X64002039Y-114481675D01*
X64107205Y-114786088D01*
X64200186Y-114960044D01*
X64464587Y-115055808D01*
X65420395Y-114100000D01*
X65779605Y-114100000D01*
X66735413Y-115055808D01*
X66999814Y-114960044D01*
X67140704Y-114670429D01*
X67222384Y-114358892D01*
X67241718Y-114037405D01*
X67228219Y-113938967D01*
X68965000Y-113938967D01*
X68965000Y-114261033D01*
X69027832Y-114576912D01*
X69151082Y-114874463D01*
X69330013Y-115142252D01*
X69557748Y-115369987D01*
X69825537Y-115548918D01*
X70123088Y-115672168D01*
X70438967Y-115735000D01*
X70761033Y-115735000D01*
X71076912Y-115672168D01*
X71374463Y-115548918D01*
X71642252Y-115369987D01*
X71776826Y-115235413D01*
X74144192Y-115235413D01*
X74239956Y-115499814D01*
X74529571Y-115640704D01*
X74841108Y-115722384D01*
X75162595Y-115741718D01*
X75481675Y-115697961D01*
X75623929Y-115648816D01*
X79025000Y-115648816D01*
X79025000Y-115951184D01*
X79083989Y-116247743D01*
X79199701Y-116527095D01*
X79367688Y-116778505D01*
X79581495Y-116992312D01*
X79832905Y-117160299D01*
X80112257Y-117276011D01*
X80408816Y-117335000D01*
X80711184Y-117335000D01*
X81007743Y-117276011D01*
X81287095Y-117160299D01*
X81538505Y-116992312D01*
X81604944Y-116925873D01*
X81610498Y-116944180D01*
X81669463Y-117054494D01*
X81748815Y-117151185D01*
X81845506Y-117230537D01*
X81955820Y-117289502D01*
X82075518Y-117325812D01*
X82200000Y-117338072D01*
X82814250Y-117335000D01*
X82973000Y-117176250D01*
X82973000Y-115927000D01*
X83227000Y-115927000D01*
X83227000Y-117176250D01*
X83385750Y-117335000D01*
X84000000Y-117338072D01*
X84124482Y-117325812D01*
X84244180Y-117289502D01*
X84354494Y-117230537D01*
X84451185Y-117151185D01*
X84530537Y-117054494D01*
X84589502Y-116944180D01*
X84625812Y-116824482D01*
X84638072Y-116700000D01*
X84635000Y-116085750D01*
X84476250Y-115927000D01*
X83227000Y-115927000D01*
X82973000Y-115927000D01*
X82953000Y-115927000D01*
X82953000Y-115673000D01*
X82973000Y-115673000D01*
X82973000Y-114423750D01*
X83227000Y-114423750D01*
X83227000Y-115673000D01*
X84476250Y-115673000D01*
X84635000Y-115514250D01*
X84638072Y-114900000D01*
X84625812Y-114775518D01*
X84589502Y-114655820D01*
X84530537Y-114545506D01*
X84451185Y-114448815D01*
X84354494Y-114369463D01*
X84244180Y-114310498D01*
X84124482Y-114274188D01*
X84000000Y-114261928D01*
X83385750Y-114265000D01*
X83227000Y-114423750D01*
X82973000Y-114423750D01*
X82814250Y-114265000D01*
X82200000Y-114261928D01*
X82075518Y-114274188D01*
X81955820Y-114310498D01*
X81845506Y-114369463D01*
X81748815Y-114448815D01*
X81669463Y-114545506D01*
X81610498Y-114655820D01*
X81604944Y-114674127D01*
X81538505Y-114607688D01*
X81287095Y-114439701D01*
X81007743Y-114323989D01*
X80711184Y-114265000D01*
X80408816Y-114265000D01*
X80112257Y-114323989D01*
X79832905Y-114439701D01*
X79581495Y-114607688D01*
X79367688Y-114821495D01*
X79199701Y-115072905D01*
X79083989Y-115352257D01*
X79025000Y-115648816D01*
X75623929Y-115648816D01*
X75786088Y-115592795D01*
X75960044Y-115499814D01*
X76055808Y-115235413D01*
X75100000Y-114279605D01*
X74144192Y-115235413D01*
X71776826Y-115235413D01*
X71869987Y-115142252D01*
X72048918Y-114874463D01*
X72172168Y-114576912D01*
X72235000Y-114261033D01*
X72235000Y-114162595D01*
X73458282Y-114162595D01*
X73502039Y-114481675D01*
X73607205Y-114786088D01*
X73700186Y-114960044D01*
X73964587Y-115055808D01*
X74920395Y-114100000D01*
X75279605Y-114100000D01*
X76235413Y-115055808D01*
X76499814Y-114960044D01*
X76640704Y-114670429D01*
X76722384Y-114358892D01*
X76741718Y-114037405D01*
X76697961Y-113718325D01*
X76592795Y-113413912D01*
X76499814Y-113239956D01*
X76235413Y-113144192D01*
X75279605Y-114100000D01*
X74920395Y-114100000D01*
X73964587Y-113144192D01*
X73700186Y-113239956D01*
X73559296Y-113529571D01*
X73477616Y-113841108D01*
X73458282Y-114162595D01*
X72235000Y-114162595D01*
X72235000Y-113938967D01*
X72172168Y-113623088D01*
X72048918Y-113325537D01*
X71869987Y-113057748D01*
X71776826Y-112964587D01*
X74144192Y-112964587D01*
X75100000Y-113920395D01*
X76055808Y-112964587D01*
X75960044Y-112700186D01*
X75670429Y-112559296D01*
X75358892Y-112477616D01*
X75037405Y-112458282D01*
X74718325Y-112502039D01*
X74413912Y-112607205D01*
X74239956Y-112700186D01*
X74144192Y-112964587D01*
X71776826Y-112964587D01*
X71642252Y-112830013D01*
X71374463Y-112651082D01*
X71076912Y-112527832D01*
X70761033Y-112465000D01*
X70438967Y-112465000D01*
X70123088Y-112527832D01*
X69825537Y-112651082D01*
X69557748Y-112830013D01*
X69330013Y-113057748D01*
X69151082Y-113325537D01*
X69027832Y-113623088D01*
X68965000Y-113938967D01*
X67228219Y-113938967D01*
X67197961Y-113718325D01*
X67092795Y-113413912D01*
X66999814Y-113239956D01*
X66735413Y-113144192D01*
X65779605Y-114100000D01*
X65420395Y-114100000D01*
X64464587Y-113144192D01*
X64200186Y-113239956D01*
X64059296Y-113529571D01*
X63977616Y-113841108D01*
X63958282Y-114162595D01*
X62735000Y-114162595D01*
X62735000Y-113938967D01*
X62672168Y-113623088D01*
X62548918Y-113325537D01*
X62369987Y-113057748D01*
X62276826Y-112964587D01*
X64644192Y-112964587D01*
X65600000Y-113920395D01*
X66555808Y-112964587D01*
X66460044Y-112700186D01*
X66170429Y-112559296D01*
X65858892Y-112477616D01*
X65537405Y-112458282D01*
X65218325Y-112502039D01*
X64913912Y-112607205D01*
X64739956Y-112700186D01*
X64644192Y-112964587D01*
X62276826Y-112964587D01*
X62142252Y-112830013D01*
X61874463Y-112651082D01*
X61576912Y-112527832D01*
X61261033Y-112465000D01*
X60938967Y-112465000D01*
X60623088Y-112527832D01*
X60325537Y-112651082D01*
X60057748Y-112830013D01*
X59830013Y-113057748D01*
X59651082Y-113325537D01*
X59527832Y-113623088D01*
X59465000Y-113938967D01*
X55274168Y-113938967D01*
X55419608Y-113819608D01*
X55598932Y-113601101D01*
X55732182Y-113351808D01*
X55814236Y-113081309D01*
X55841943Y-112800000D01*
X55814236Y-112518691D01*
X55732182Y-112248192D01*
X55598932Y-111998899D01*
X55419608Y-111780392D01*
X55201101Y-111601068D01*
X55073259Y-111532735D01*
X55302839Y-111382601D01*
X55504500Y-111184895D01*
X55663715Y-110951646D01*
X55774367Y-110691818D01*
X55791904Y-110609039D01*
X55669915Y-110387000D01*
X54127000Y-110387000D01*
X54127000Y-110407000D01*
X53873000Y-110407000D01*
X53873000Y-110387000D01*
X52330085Y-110387000D01*
X52208096Y-110609039D01*
X52225633Y-110691818D01*
X52336285Y-110951646D01*
X52495500Y-111184895D01*
X52697161Y-111382601D01*
X52926741Y-111532735D01*
X52798899Y-111601068D01*
X52580392Y-111780392D01*
X52401068Y-111998899D01*
X52267818Y-112248192D01*
X52185764Y-112518691D01*
X52158057Y-112800000D01*
X52185764Y-113081309D01*
X52267818Y-113351808D01*
X52401068Y-113601101D01*
X52580392Y-113819608D01*
X52798899Y-113998932D01*
X52931858Y-114070000D01*
X52798899Y-114141068D01*
X52580392Y-114320392D01*
X52429795Y-114503895D01*
X52399999Y-114500960D01*
X52358981Y-114505000D01*
X52236311Y-114517082D01*
X52078913Y-114564828D01*
X51933854Y-114642364D01*
X51806709Y-114746709D01*
X51780558Y-114778574D01*
X51435000Y-115124133D01*
X51435000Y-111541007D01*
X51439039Y-111499999D01*
X51435000Y-111458991D01*
X51435000Y-111458981D01*
X51422918Y-111336311D01*
X51375172Y-111178913D01*
X51297636Y-111033854D01*
X51193291Y-110906709D01*
X51161428Y-110880560D01*
X50191829Y-109910961D01*
X52208096Y-109910961D01*
X52330085Y-110133000D01*
X53873000Y-110133000D01*
X53873000Y-108825000D01*
X54127000Y-108825000D01*
X54127000Y-110133000D01*
X55669915Y-110133000D01*
X55791904Y-109910961D01*
X55774367Y-109828182D01*
X55663715Y-109568354D01*
X55504500Y-109335105D01*
X55302839Y-109137399D01*
X55066483Y-108982834D01*
X54804514Y-108877350D01*
X54527000Y-108825000D01*
X54127000Y-108825000D01*
X53873000Y-108825000D01*
X53473000Y-108825000D01*
X53195486Y-108877350D01*
X52933517Y-108982834D01*
X52697161Y-109137399D01*
X52495500Y-109335105D01*
X52336285Y-109568354D01*
X52225633Y-109828182D01*
X52208096Y-109910961D01*
X50191829Y-109910961D01*
X49060740Y-108779872D01*
X58765000Y-108779872D01*
X58765000Y-109220128D01*
X58850890Y-109651925D01*
X59019369Y-110058669D01*
X59263962Y-110424729D01*
X59575271Y-110736038D01*
X59941331Y-110980631D01*
X60348075Y-111149110D01*
X60779872Y-111235000D01*
X61220128Y-111235000D01*
X61651925Y-111149110D01*
X62058669Y-110980631D01*
X62424729Y-110736038D01*
X62736038Y-110424729D01*
X62980631Y-110058669D01*
X63149110Y-109651925D01*
X63235000Y-109220128D01*
X63235000Y-108779872D01*
X83765000Y-108779872D01*
X83765000Y-109220128D01*
X83850890Y-109651925D01*
X84019369Y-110058669D01*
X84263962Y-110424729D01*
X84575271Y-110736038D01*
X84941331Y-110980631D01*
X85348075Y-111149110D01*
X85779872Y-111235000D01*
X86220128Y-111235000D01*
X86651925Y-111149110D01*
X87058669Y-110980631D01*
X87424729Y-110736038D01*
X87736038Y-110424729D01*
X87980631Y-110058669D01*
X88149110Y-109651925D01*
X88235000Y-109220128D01*
X88235000Y-108779872D01*
X88149110Y-108348075D01*
X87980631Y-107941331D01*
X87736038Y-107575271D01*
X87424729Y-107263962D01*
X87058669Y-107019369D01*
X86651925Y-106850890D01*
X86220128Y-106765000D01*
X85779872Y-106765000D01*
X85348075Y-106850890D01*
X84941331Y-107019369D01*
X84575271Y-107263962D01*
X84263962Y-107575271D01*
X84019369Y-107941331D01*
X83850890Y-108348075D01*
X83765000Y-108779872D01*
X63235000Y-108779872D01*
X63149110Y-108348075D01*
X62980631Y-107941331D01*
X62736038Y-107575271D01*
X62424729Y-107263962D01*
X62058669Y-107019369D01*
X61651925Y-106850890D01*
X61220128Y-106765000D01*
X60779872Y-106765000D01*
X60348075Y-106850890D01*
X59941331Y-107019369D01*
X59575271Y-107263962D01*
X59263962Y-107575271D01*
X59019369Y-107941331D01*
X58850890Y-108348075D01*
X58765000Y-108779872D01*
X49060740Y-108779872D01*
X48169446Y-107888579D01*
X48143291Y-107856709D01*
X48016146Y-107752364D01*
X47871087Y-107674828D01*
X47713689Y-107627082D01*
X47591019Y-107615000D01*
X47591018Y-107615000D01*
X47550000Y-107610960D01*
X47508982Y-107615000D01*
X45291018Y-107615000D01*
X45250000Y-107610960D01*
X45208981Y-107615000D01*
X45086311Y-107627082D01*
X44928913Y-107674828D01*
X44783854Y-107752364D01*
X44656709Y-107856709D01*
X44630563Y-107888568D01*
X43588574Y-108930559D01*
X43556710Y-108956709D01*
X43530562Y-108988571D01*
X43452364Y-109083855D01*
X43374828Y-109228914D01*
X43327082Y-109386312D01*
X43310960Y-109550000D01*
X43315001Y-109591028D01*
X43315000Y-112024791D01*
X41919239Y-113420554D01*
X41882886Y-113384201D01*
X41656043Y-113232629D01*
X41553127Y-113190000D01*
X41656043Y-113147371D01*
X41882886Y-112995799D01*
X42075799Y-112802886D01*
X42227371Y-112576043D01*
X42331775Y-112323989D01*
X42385000Y-112056411D01*
X42385000Y-111783589D01*
X42331775Y-111516011D01*
X42227371Y-111263957D01*
X42075799Y-111037114D01*
X41882886Y-110844201D01*
X41656043Y-110692629D01*
X41403989Y-110588225D01*
X41136411Y-110535000D01*
X40863589Y-110535000D01*
X40596011Y-110588225D01*
X40343957Y-110692629D01*
X40117114Y-110844201D01*
X39924201Y-111037114D01*
X39772629Y-111263957D01*
X39668225Y-111516011D01*
X39615000Y-111783589D01*
X39615000Y-112056411D01*
X39668225Y-112323989D01*
X39772629Y-112576043D01*
X39924201Y-112802886D01*
X40117114Y-112995799D01*
X40343957Y-113147371D01*
X40446873Y-113190000D01*
X40343957Y-113232629D01*
X40117114Y-113384201D01*
X39924201Y-113577114D01*
X39772629Y-113803957D01*
X39668225Y-114056011D01*
X39615000Y-114323589D01*
X39615000Y-114596411D01*
X39668225Y-114863989D01*
X39772629Y-115116043D01*
X39924201Y-115342886D01*
X40117114Y-115535799D01*
X40233483Y-115613555D01*
X40125518Y-115624188D01*
X40005820Y-115660498D01*
X39895506Y-115719463D01*
X39798815Y-115798815D01*
X39719463Y-115895506D01*
X39660498Y-116005820D01*
X39624188Y-116125518D01*
X39611928Y-116250000D01*
X39615000Y-116714250D01*
X39773750Y-116873000D01*
X40873000Y-116873000D01*
X40873000Y-116853000D01*
X41127000Y-116853000D01*
X41127000Y-116873000D01*
X42226250Y-116873000D01*
X42385000Y-116714250D01*
X42388072Y-116250000D01*
X42375812Y-116125518D01*
X42339502Y-116005820D01*
X42280537Y-115895506D01*
X42201185Y-115798815D01*
X42104494Y-115719463D01*
X41994180Y-115660498D01*
X41874482Y-115624188D01*
X41766517Y-115613555D01*
X41882886Y-115535799D01*
X42075799Y-115342886D01*
X42108226Y-115294355D01*
X42224349Y-115282918D01*
X42381747Y-115235172D01*
X42526806Y-115157636D01*
X42653951Y-115053291D01*
X42680106Y-115021421D01*
X44578438Y-113123091D01*
X44647818Y-113351808D01*
X44781068Y-113601101D01*
X44960392Y-113819608D01*
X45178899Y-113998932D01*
X45311858Y-114070000D01*
X45178899Y-114141068D01*
X44960392Y-114320392D01*
X44781068Y-114538899D01*
X44647818Y-114788192D01*
X44565764Y-115058691D01*
X44538057Y-115340000D01*
X44565764Y-115621309D01*
X44647818Y-115891808D01*
X44781068Y-116141101D01*
X44960392Y-116359608D01*
X45178899Y-116538932D01*
X45311858Y-116610000D01*
X45178899Y-116681068D01*
X44960392Y-116860392D01*
X44781068Y-117078899D01*
X44647818Y-117328192D01*
X44565764Y-117598691D01*
X44538057Y-117880000D01*
X44565764Y-118161309D01*
X44647818Y-118431808D01*
X44781068Y-118681101D01*
X44960392Y-118899608D01*
X45178899Y-119078932D01*
X45311858Y-119150000D01*
X45178899Y-119221068D01*
X44960392Y-119400392D01*
X44781068Y-119618899D01*
X44647818Y-119868192D01*
X44565764Y-120138691D01*
X44538057Y-120420000D01*
X44565764Y-120701309D01*
X44647818Y-120971808D01*
X44781068Y-121221101D01*
X44960392Y-121439608D01*
X45178899Y-121618932D01*
X45311858Y-121690000D01*
X45178899Y-121761068D01*
X44960392Y-121940392D01*
X44781068Y-122158899D01*
X44647818Y-122408192D01*
X44565764Y-122678691D01*
X44538057Y-122960000D01*
X44565764Y-123241309D01*
X44647818Y-123511808D01*
X44781068Y-123761101D01*
X44960392Y-123979608D01*
X45178899Y-124158932D01*
X45311858Y-124230000D01*
X45178899Y-124301068D01*
X44960392Y-124480392D01*
X44781068Y-124698899D01*
X44647818Y-124948192D01*
X44565764Y-125218691D01*
X44538057Y-125500000D01*
X44565764Y-125781309D01*
X44647818Y-126051808D01*
X44781068Y-126301101D01*
X44960392Y-126519608D01*
X45178899Y-126698932D01*
X45315001Y-126771680D01*
X45315000Y-127818706D01*
X45179727Y-127728320D01*
X44918574Y-127620147D01*
X44641335Y-127565000D01*
X44358665Y-127565000D01*
X44081426Y-127620147D01*
X43820273Y-127728320D01*
X43585241Y-127885363D01*
X43505604Y-127965000D01*
X41035000Y-127965000D01*
X41035000Y-126494396D01*
X41114637Y-126414759D01*
X41271680Y-126179727D01*
X41379853Y-125918574D01*
X41435000Y-125641335D01*
X41435000Y-125358665D01*
X41379853Y-125081426D01*
X41271680Y-124820273D01*
X41114637Y-124585241D01*
X40914759Y-124385363D01*
X40679727Y-124228320D01*
X40418574Y-124120147D01*
X40141335Y-124065000D01*
X39858665Y-124065000D01*
X39581426Y-124120147D01*
X39320273Y-124228320D01*
X39085241Y-124385363D01*
X38885363Y-124585241D01*
X38728320Y-124820273D01*
X38620147Y-125081426D01*
X38565000Y-125358665D01*
X35660000Y-125358665D01*
X35660000Y-121492702D01*
X39186903Y-121492702D01*
X39258486Y-121736671D01*
X39513996Y-121857571D01*
X39788184Y-121926300D01*
X40070512Y-121940217D01*
X40350130Y-121898787D01*
X40616292Y-121803603D01*
X40741514Y-121736671D01*
X40813097Y-121492702D01*
X40000000Y-120679605D01*
X39186903Y-121492702D01*
X35660000Y-121492702D01*
X35660000Y-120570512D01*
X38559783Y-120570512D01*
X38601213Y-120850130D01*
X38696397Y-121116292D01*
X38763329Y-121241514D01*
X39007298Y-121313097D01*
X39820395Y-120500000D01*
X40179605Y-120500000D01*
X40992702Y-121313097D01*
X41236671Y-121241514D01*
X41357571Y-120986004D01*
X41426300Y-120711816D01*
X41440217Y-120429488D01*
X41398787Y-120149870D01*
X41303603Y-119883708D01*
X41236671Y-119758486D01*
X40992702Y-119686903D01*
X40179605Y-120500000D01*
X39820395Y-120500000D01*
X39007298Y-119686903D01*
X38763329Y-119758486D01*
X38642429Y-120013996D01*
X38573700Y-120288184D01*
X38559783Y-120570512D01*
X35660000Y-120570512D01*
X35660000Y-119507298D01*
X39186903Y-119507298D01*
X40000000Y-120320395D01*
X40813097Y-119507298D01*
X40741514Y-119263329D01*
X40486004Y-119142429D01*
X40211816Y-119073700D01*
X39929488Y-119059783D01*
X39649870Y-119101213D01*
X39383708Y-119196397D01*
X39258486Y-119263329D01*
X39186903Y-119507298D01*
X35660000Y-119507298D01*
X35660000Y-117750000D01*
X39611928Y-117750000D01*
X39624188Y-117874482D01*
X39660498Y-117994180D01*
X39719463Y-118104494D01*
X39798815Y-118201185D01*
X39895506Y-118280537D01*
X40005820Y-118339502D01*
X40125518Y-118375812D01*
X40250000Y-118388072D01*
X40714250Y-118385000D01*
X40873000Y-118226250D01*
X40873000Y-117127000D01*
X41127000Y-117127000D01*
X41127000Y-118226250D01*
X41285750Y-118385000D01*
X41750000Y-118388072D01*
X41874482Y-118375812D01*
X41994180Y-118339502D01*
X42104494Y-118280537D01*
X42201185Y-118201185D01*
X42280537Y-118104494D01*
X42339502Y-117994180D01*
X42375812Y-117874482D01*
X42388072Y-117750000D01*
X42385000Y-117285750D01*
X42226250Y-117127000D01*
X41127000Y-117127000D01*
X40873000Y-117127000D01*
X39773750Y-117127000D01*
X39615000Y-117285750D01*
X39611928Y-117750000D01*
X35660000Y-117750000D01*
X35660000Y-105660000D01*
X89340000Y-105660000D01*
X89340001Y-109967572D01*
G36*
X60933219Y-134646929D02*
G01*
X59755001Y-134646929D01*
X59630519Y-134659189D01*
X59510821Y-134695499D01*
X59400507Y-134754464D01*
X59303816Y-134833816D01*
X59224464Y-134930507D01*
X59165499Y-135040821D01*
X59129189Y-135160519D01*
X59116929Y-135285001D01*
X59116929Y-136885001D01*
X59129189Y-137009483D01*
X59165499Y-137129181D01*
X59224464Y-137239495D01*
X59303816Y-137336186D01*
X59400507Y-137415538D01*
X59510821Y-137474503D01*
X59630519Y-137510813D01*
X59638962Y-137511644D01*
X59440364Y-137710242D01*
X59283321Y-137945274D01*
X59175148Y-138206427D01*
X59120001Y-138483666D01*
X59120001Y-138766336D01*
X59175148Y-139043575D01*
X59283321Y-139304728D01*
X59440364Y-139539760D01*
X59640242Y-139739638D01*
X59872760Y-139895001D01*
X59640242Y-140050364D01*
X59440364Y-140250242D01*
X59283321Y-140485274D01*
X59175148Y-140746427D01*
X59120001Y-141023666D01*
X59120001Y-141306336D01*
X59175148Y-141583575D01*
X59283321Y-141844728D01*
X59440364Y-142079760D01*
X59640242Y-142279638D01*
X59875274Y-142436681D01*
X59885866Y-142441068D01*
X59699870Y-142552616D01*
X59491482Y-142741587D01*
X59323964Y-142967581D01*
X59203755Y-143221914D01*
X59163097Y-143355962D01*
X59285086Y-143578001D01*
X60428001Y-143578001D01*
X60428001Y-143558001D01*
X60682001Y-143558001D01*
X60682001Y-143578001D01*
X61824916Y-143578001D01*
X61946905Y-143355962D01*
X61906247Y-143221914D01*
X61786038Y-142967581D01*
X61618520Y-142741587D01*
X61410132Y-142552616D01*
X61224136Y-142441068D01*
X61234728Y-142436681D01*
X61469760Y-142279638D01*
X61669638Y-142079760D01*
X61826681Y-141844728D01*
X61934854Y-141583575D01*
X61990001Y-141306336D01*
X61990001Y-141023666D01*
X61934854Y-140746427D01*
X61826681Y-140485274D01*
X61669638Y-140250242D01*
X61469760Y-140050364D01*
X61237242Y-139895001D01*
X61469760Y-139739638D01*
X61669638Y-139539760D01*
X61826681Y-139304728D01*
X61934854Y-139043575D01*
X61990001Y-138766336D01*
X61990001Y-138483666D01*
X61934854Y-138206427D01*
X61826681Y-137945274D01*
X61669638Y-137710242D01*
X61471040Y-137511644D01*
X61479483Y-137510813D01*
X61599181Y-137474503D01*
X61709495Y-137415538D01*
X61806186Y-137336186D01*
X61885538Y-137239495D01*
X61944503Y-137129181D01*
X61980813Y-137009483D01*
X61993073Y-136885001D01*
X61993073Y-135706783D01*
X70682197Y-144395908D01*
X70714604Y-144435396D01*
X70754092Y-144467803D01*
X70872202Y-144564734D01*
X70938181Y-144600000D01*
X71052007Y-144660841D01*
X71247105Y-144720024D01*
X71399162Y-144735000D01*
X71399171Y-144735000D01*
X71449999Y-144740006D01*
X71500827Y-144735000D01*
X74795604Y-144735000D01*
X74880242Y-144819638D01*
X75112760Y-144975001D01*
X74880242Y-145130364D01*
X74680364Y-145330242D01*
X74523321Y-145565274D01*
X74415148Y-145826427D01*
X74360001Y-146103666D01*
X74360001Y-146386336D01*
X74415148Y-146663575D01*
X74523321Y-146924728D01*
X74680364Y-147159760D01*
X74880242Y-147359638D01*
X75112760Y-147515001D01*
X74880242Y-147670364D01*
X74680364Y-147870242D01*
X74523321Y-148105274D01*
X74415148Y-148366427D01*
X74360001Y-148643666D01*
X74360001Y-148926336D01*
X74415148Y-149203575D01*
X74523321Y-149464728D01*
X74680364Y-149699760D01*
X74880242Y-149899638D01*
X75112760Y-150055001D01*
X74880242Y-150210364D01*
X74680364Y-150410242D01*
X74523321Y-150645274D01*
X74415148Y-150906427D01*
X74360001Y-151183666D01*
X74360001Y-151466336D01*
X74415148Y-151743575D01*
X74523321Y-152004728D01*
X74680364Y-152239760D01*
X74880242Y-152439638D01*
X75112760Y-152595001D01*
X74880242Y-152750364D01*
X74680364Y-152950242D01*
X74523321Y-153185274D01*
X74415148Y-153446427D01*
X74360001Y-153723666D01*
X74360001Y-154006336D01*
X74415148Y-154283575D01*
X74523321Y-154544728D01*
X74680364Y-154779760D01*
X74880242Y-154979638D01*
X75112760Y-155135001D01*
X74880242Y-155290364D01*
X74680364Y-155490242D01*
X74523321Y-155725274D01*
X74415148Y-155986427D01*
X74360001Y-156263666D01*
X74360001Y-156546336D01*
X74415148Y-156823575D01*
X74523321Y-157084728D01*
X74680364Y-157319760D01*
X74880242Y-157519638D01*
X75112760Y-157675001D01*
X74880242Y-157830364D01*
X74680364Y-158030242D01*
X74523321Y-158265274D01*
X74415148Y-158526427D01*
X74360001Y-158803666D01*
X74360001Y-159086336D01*
X74415148Y-159363575D01*
X74523321Y-159624728D01*
X74680364Y-159859760D01*
X74880242Y-160059638D01*
X75112760Y-160215001D01*
X74880242Y-160370364D01*
X74680364Y-160570242D01*
X74523321Y-160805274D01*
X74415148Y-161066427D01*
X74360001Y-161343666D01*
X74360001Y-161626336D01*
X74415148Y-161903575D01*
X74523321Y-162164728D01*
X74680364Y-162399760D01*
X74880242Y-162599638D01*
X75112760Y-162755001D01*
X74880242Y-162910364D01*
X74680364Y-163110242D01*
X74523321Y-163345274D01*
X74415148Y-163606427D01*
X74360001Y-163883666D01*
X74360001Y-164166336D01*
X74415148Y-164443575D01*
X74523321Y-164704728D01*
X74680364Y-164939760D01*
X74880242Y-165139638D01*
X75112760Y-165295001D01*
X74880242Y-165450364D01*
X74680364Y-165650242D01*
X74523321Y-165885274D01*
X74415148Y-166146427D01*
X74360001Y-166423666D01*
X74360001Y-166706336D01*
X74415148Y-166983575D01*
X74523321Y-167244728D01*
X74680364Y-167479760D01*
X74880242Y-167679638D01*
X75112760Y-167835001D01*
X74880242Y-167990364D01*
X74680364Y-168190242D01*
X74523321Y-168425274D01*
X74415148Y-168686427D01*
X74360001Y-168963666D01*
X74360001Y-169246336D01*
X74415148Y-169523575D01*
X74523321Y-169784728D01*
X74680364Y-170019760D01*
X74880242Y-170219638D01*
X75112760Y-170375001D01*
X74880242Y-170530364D01*
X74680364Y-170730242D01*
X74523321Y-170965274D01*
X74415148Y-171226427D01*
X74360001Y-171503666D01*
X74360001Y-171786336D01*
X74415148Y-172063575D01*
X74523321Y-172324728D01*
X74680364Y-172559760D01*
X74785604Y-172665000D01*
X68967239Y-172665000D01*
X62305817Y-166003580D01*
X62279662Y-165971710D01*
X62152517Y-165867365D01*
X62007458Y-165789829D01*
X61850060Y-165742083D01*
X61727390Y-165730001D01*
X61727389Y-165730001D01*
X61722617Y-165729531D01*
X61669638Y-165650242D01*
X61469760Y-165450364D01*
X61237242Y-165295001D01*
X61469760Y-165139638D01*
X61669638Y-164939760D01*
X61826681Y-164704728D01*
X61934854Y-164443575D01*
X61990001Y-164166336D01*
X61990001Y-163883666D01*
X61934854Y-163606427D01*
X61826681Y-163345274D01*
X61669638Y-163110242D01*
X61469760Y-162910364D01*
X61237242Y-162755001D01*
X61469760Y-162599638D01*
X61669638Y-162399760D01*
X61826681Y-162164728D01*
X61934854Y-161903575D01*
X61990001Y-161626336D01*
X61990001Y-161343666D01*
X61934854Y-161066427D01*
X61826681Y-160805274D01*
X61669638Y-160570242D01*
X61469760Y-160370364D01*
X61237242Y-160215001D01*
X61469760Y-160059638D01*
X61669638Y-159859760D01*
X61826681Y-159624728D01*
X61934854Y-159363575D01*
X61990001Y-159086336D01*
X61990001Y-158803666D01*
X61934854Y-158526427D01*
X61826681Y-158265274D01*
X61669638Y-158030242D01*
X61469760Y-157830364D01*
X61237242Y-157675001D01*
X61469760Y-157519638D01*
X61669638Y-157319760D01*
X61826681Y-157084728D01*
X61934854Y-156823575D01*
X61990001Y-156546336D01*
X61990001Y-156263666D01*
X61934854Y-155986427D01*
X61826681Y-155725274D01*
X61669638Y-155490242D01*
X61469760Y-155290364D01*
X61237242Y-155135001D01*
X61469760Y-154979638D01*
X61669638Y-154779760D01*
X61826681Y-154544728D01*
X61934854Y-154283575D01*
X61990001Y-154006336D01*
X61990001Y-153723666D01*
X61934854Y-153446427D01*
X61826681Y-153185274D01*
X61669638Y-152950242D01*
X61469760Y-152750364D01*
X61237242Y-152595001D01*
X61469760Y-152439638D01*
X61669638Y-152239760D01*
X61826681Y-152004728D01*
X61934854Y-151743575D01*
X61990001Y-151466336D01*
X61990001Y-151183666D01*
X61934854Y-150906427D01*
X61826681Y-150645274D01*
X61669638Y-150410242D01*
X61469760Y-150210364D01*
X61237242Y-150055001D01*
X61469760Y-149899638D01*
X61669638Y-149699760D01*
X61826681Y-149464728D01*
X61934854Y-149203575D01*
X61990001Y-148926336D01*
X61990001Y-148643666D01*
X61934854Y-148366427D01*
X61826681Y-148105274D01*
X61669638Y-147870242D01*
X61469760Y-147670364D01*
X61237242Y-147515001D01*
X61469760Y-147359638D01*
X61669638Y-147159760D01*
X61826681Y-146924728D01*
X61934854Y-146663575D01*
X61990001Y-146386336D01*
X61990001Y-146103666D01*
X61934854Y-145826427D01*
X61826681Y-145565274D01*
X61669638Y-145330242D01*
X61469760Y-145130364D01*
X61234728Y-144973321D01*
X61224136Y-144968934D01*
X61410132Y-144857386D01*
X61618520Y-144668415D01*
X61786038Y-144442421D01*
X61906247Y-144188088D01*
X61946905Y-144054040D01*
X61824916Y-143832001D01*
X60682001Y-143832001D01*
X60682001Y-143852001D01*
X60428001Y-143852001D01*
X60428001Y-143832001D01*
X59285086Y-143832001D01*
X59163097Y-144054040D01*
X59203755Y-144188088D01*
X59323964Y-144442421D01*
X59491482Y-144668415D01*
X59699870Y-144857386D01*
X59885866Y-144968934D01*
X59875274Y-144973321D01*
X59640242Y-145130364D01*
X59440364Y-145330242D01*
X59283321Y-145565274D01*
X59175148Y-145826427D01*
X59120001Y-146103666D01*
X59120001Y-146386336D01*
X59175148Y-146663575D01*
X59283321Y-146924728D01*
X59440364Y-147159760D01*
X59640242Y-147359638D01*
X59872760Y-147515001D01*
X59640242Y-147670364D01*
X59440364Y-147870242D01*
X59283321Y-148105274D01*
X59175148Y-148366427D01*
X59120001Y-148643666D01*
X59120001Y-148926336D01*
X59175148Y-149203575D01*
X59283321Y-149464728D01*
X59440364Y-149699760D01*
X59640242Y-149899638D01*
X59872760Y-150055001D01*
X59640242Y-150210364D01*
X59440364Y-150410242D01*
X59283321Y-150645274D01*
X59175148Y-150906427D01*
X59120001Y-151183666D01*
X59120001Y-151466336D01*
X59175148Y-151743575D01*
X59283321Y-152004728D01*
X59440364Y-152239760D01*
X59640242Y-152439638D01*
X59872760Y-152595001D01*
X59640242Y-152750364D01*
X59440364Y-152950242D01*
X59284451Y-153183583D01*
X56177000Y-150076133D01*
X56177000Y-147100000D01*
X56174560Y-147075224D01*
X56167333Y-147051399D01*
X56162825Y-147042966D01*
X56995908Y-146209884D01*
X57035396Y-146177477D01*
X57067803Y-146137989D01*
X57164734Y-146019879D01*
X57220921Y-145914759D01*
X57260841Y-145840074D01*
X57320024Y-145644976D01*
X57335000Y-145492919D01*
X57335000Y-145492917D01*
X57340007Y-145442081D01*
X57335000Y-145391246D01*
X57335000Y-131048710D01*
X60933219Y-134646929D01*
G37*
X60933219Y-134646929D02*
X59755001Y-134646929D01*
X59630519Y-134659189D01*
X59510821Y-134695499D01*
X59400507Y-134754464D01*
X59303816Y-134833816D01*
X59224464Y-134930507D01*
X59165499Y-135040821D01*
X59129189Y-135160519D01*
X59116929Y-135285001D01*
X59116929Y-136885001D01*
X59129189Y-137009483D01*
X59165499Y-137129181D01*
X59224464Y-137239495D01*
X59303816Y-137336186D01*
X59400507Y-137415538D01*
X59510821Y-137474503D01*
X59630519Y-137510813D01*
X59638962Y-137511644D01*
X59440364Y-137710242D01*
X59283321Y-137945274D01*
X59175148Y-138206427D01*
X59120001Y-138483666D01*
X59120001Y-138766336D01*
X59175148Y-139043575D01*
X59283321Y-139304728D01*
X59440364Y-139539760D01*
X59640242Y-139739638D01*
X59872760Y-139895001D01*
X59640242Y-140050364D01*
X59440364Y-140250242D01*
X59283321Y-140485274D01*
X59175148Y-140746427D01*
X59120001Y-141023666D01*
X59120001Y-141306336D01*
X59175148Y-141583575D01*
X59283321Y-141844728D01*
X59440364Y-142079760D01*
X59640242Y-142279638D01*
X59875274Y-142436681D01*
X59885866Y-142441068D01*
X59699870Y-142552616D01*
X59491482Y-142741587D01*
X59323964Y-142967581D01*
X59203755Y-143221914D01*
X59163097Y-143355962D01*
X59285086Y-143578001D01*
X60428001Y-143578001D01*
X60428001Y-143558001D01*
X60682001Y-143558001D01*
X60682001Y-143578001D01*
X61824916Y-143578001D01*
X61946905Y-143355962D01*
X61906247Y-143221914D01*
X61786038Y-142967581D01*
X61618520Y-142741587D01*
X61410132Y-142552616D01*
X61224136Y-142441068D01*
X61234728Y-142436681D01*
X61469760Y-142279638D01*
X61669638Y-142079760D01*
X61826681Y-141844728D01*
X61934854Y-141583575D01*
X61990001Y-141306336D01*
X61990001Y-141023666D01*
X61934854Y-140746427D01*
X61826681Y-140485274D01*
X61669638Y-140250242D01*
X61469760Y-140050364D01*
X61237242Y-139895001D01*
X61469760Y-139739638D01*
X61669638Y-139539760D01*
X61826681Y-139304728D01*
X61934854Y-139043575D01*
X61990001Y-138766336D01*
X61990001Y-138483666D01*
X61934854Y-138206427D01*
X61826681Y-137945274D01*
X61669638Y-137710242D01*
X61471040Y-137511644D01*
X61479483Y-137510813D01*
X61599181Y-137474503D01*
X61709495Y-137415538D01*
X61806186Y-137336186D01*
X61885538Y-137239495D01*
X61944503Y-137129181D01*
X61980813Y-137009483D01*
X61993073Y-136885001D01*
X61993073Y-135706783D01*
X70682197Y-144395908D01*
X70714604Y-144435396D01*
X70754092Y-144467803D01*
X70872202Y-144564734D01*
X70938181Y-144600000D01*
X71052007Y-144660841D01*
X71247105Y-144720024D01*
X71399162Y-144735000D01*
X71399171Y-144735000D01*
X71449999Y-144740006D01*
X71500827Y-144735000D01*
X74795604Y-144735000D01*
X74880242Y-144819638D01*
X75112760Y-144975001D01*
X74880242Y-145130364D01*
X74680364Y-145330242D01*
X74523321Y-145565274D01*
X74415148Y-145826427D01*
X74360001Y-146103666D01*
X74360001Y-146386336D01*
X74415148Y-146663575D01*
X74523321Y-146924728D01*
X74680364Y-147159760D01*
X74880242Y-147359638D01*
X75112760Y-147515001D01*
X74880242Y-147670364D01*
X74680364Y-147870242D01*
X74523321Y-148105274D01*
X74415148Y-148366427D01*
X74360001Y-148643666D01*
X74360001Y-148926336D01*
X74415148Y-149203575D01*
X74523321Y-149464728D01*
X74680364Y-149699760D01*
X74880242Y-149899638D01*
X75112760Y-150055001D01*
X74880242Y-150210364D01*
X74680364Y-150410242D01*
X74523321Y-150645274D01*
X74415148Y-150906427D01*
X74360001Y-151183666D01*
X74360001Y-151466336D01*
X74415148Y-151743575D01*
X74523321Y-152004728D01*
X74680364Y-152239760D01*
X74880242Y-152439638D01*
X75112760Y-152595001D01*
X74880242Y-152750364D01*
X74680364Y-152950242D01*
X74523321Y-153185274D01*
X74415148Y-153446427D01*
X74360001Y-153723666D01*
X74360001Y-154006336D01*
X74415148Y-154283575D01*
X74523321Y-154544728D01*
X74680364Y-154779760D01*
X74880242Y-154979638D01*
X75112760Y-155135001D01*
X74880242Y-155290364D01*
X74680364Y-155490242D01*
X74523321Y-155725274D01*
X74415148Y-155986427D01*
X74360001Y-156263666D01*
X74360001Y-156546336D01*
X74415148Y-156823575D01*
X74523321Y-157084728D01*
X74680364Y-157319760D01*
X74880242Y-157519638D01*
X75112760Y-157675001D01*
X74880242Y-157830364D01*
X74680364Y-158030242D01*
X74523321Y-158265274D01*
X74415148Y-158526427D01*
X74360001Y-158803666D01*
X74360001Y-159086336D01*
X74415148Y-159363575D01*
X74523321Y-159624728D01*
X74680364Y-159859760D01*
X74880242Y-160059638D01*
X75112760Y-160215001D01*
X74880242Y-160370364D01*
X74680364Y-160570242D01*
X74523321Y-160805274D01*
X74415148Y-161066427D01*
X74360001Y-161343666D01*
X74360001Y-161626336D01*
X74415148Y-161903575D01*
X74523321Y-162164728D01*
X74680364Y-162399760D01*
X74880242Y-162599638D01*
X75112760Y-162755001D01*
X74880242Y-162910364D01*
X74680364Y-163110242D01*
X74523321Y-163345274D01*
X74415148Y-163606427D01*
X74360001Y-163883666D01*
X74360001Y-164166336D01*
X74415148Y-164443575D01*
X74523321Y-164704728D01*
X74680364Y-164939760D01*
X74880242Y-165139638D01*
X75112760Y-165295001D01*
X74880242Y-165450364D01*
X74680364Y-165650242D01*
X74523321Y-165885274D01*
X74415148Y-166146427D01*
X74360001Y-166423666D01*
X74360001Y-166706336D01*
X74415148Y-166983575D01*
X74523321Y-167244728D01*
X74680364Y-167479760D01*
X74880242Y-167679638D01*
X75112760Y-167835001D01*
X74880242Y-167990364D01*
X74680364Y-168190242D01*
X74523321Y-168425274D01*
X74415148Y-168686427D01*
X74360001Y-168963666D01*
X74360001Y-169246336D01*
X74415148Y-169523575D01*
X74523321Y-169784728D01*
X74680364Y-170019760D01*
X74880242Y-170219638D01*
X75112760Y-170375001D01*
X74880242Y-170530364D01*
X74680364Y-170730242D01*
X74523321Y-170965274D01*
X74415148Y-171226427D01*
X74360001Y-171503666D01*
X74360001Y-171786336D01*
X74415148Y-172063575D01*
X74523321Y-172324728D01*
X74680364Y-172559760D01*
X74785604Y-172665000D01*
X68967239Y-172665000D01*
X62305817Y-166003580D01*
X62279662Y-165971710D01*
X62152517Y-165867365D01*
X62007458Y-165789829D01*
X61850060Y-165742083D01*
X61727390Y-165730001D01*
X61727389Y-165730001D01*
X61722617Y-165729531D01*
X61669638Y-165650242D01*
X61469760Y-165450364D01*
X61237242Y-165295001D01*
X61469760Y-165139638D01*
X61669638Y-164939760D01*
X61826681Y-164704728D01*
X61934854Y-164443575D01*
X61990001Y-164166336D01*
X61990001Y-163883666D01*
X61934854Y-163606427D01*
X61826681Y-163345274D01*
X61669638Y-163110242D01*
X61469760Y-162910364D01*
X61237242Y-162755001D01*
X61469760Y-162599638D01*
X61669638Y-162399760D01*
X61826681Y-162164728D01*
X61934854Y-161903575D01*
X61990001Y-161626336D01*
X61990001Y-161343666D01*
X61934854Y-161066427D01*
X61826681Y-160805274D01*
X61669638Y-160570242D01*
X61469760Y-160370364D01*
X61237242Y-160215001D01*
X61469760Y-160059638D01*
X61669638Y-159859760D01*
X61826681Y-159624728D01*
X61934854Y-159363575D01*
X61990001Y-159086336D01*
X61990001Y-158803666D01*
X61934854Y-158526427D01*
X61826681Y-158265274D01*
X61669638Y-158030242D01*
X61469760Y-157830364D01*
X61237242Y-157675001D01*
X61469760Y-157519638D01*
X61669638Y-157319760D01*
X61826681Y-157084728D01*
X61934854Y-156823575D01*
X61990001Y-156546336D01*
X61990001Y-156263666D01*
X61934854Y-155986427D01*
X61826681Y-155725274D01*
X61669638Y-155490242D01*
X61469760Y-155290364D01*
X61237242Y-155135001D01*
X61469760Y-154979638D01*
X61669638Y-154779760D01*
X61826681Y-154544728D01*
X61934854Y-154283575D01*
X61990001Y-154006336D01*
X61990001Y-153723666D01*
X61934854Y-153446427D01*
X61826681Y-153185274D01*
X61669638Y-152950242D01*
X61469760Y-152750364D01*
X61237242Y-152595001D01*
X61469760Y-152439638D01*
X61669638Y-152239760D01*
X61826681Y-152004728D01*
X61934854Y-151743575D01*
X61990001Y-151466336D01*
X61990001Y-151183666D01*
X61934854Y-150906427D01*
X61826681Y-150645274D01*
X61669638Y-150410242D01*
X61469760Y-150210364D01*
X61237242Y-150055001D01*
X61469760Y-149899638D01*
X61669638Y-149699760D01*
X61826681Y-149464728D01*
X61934854Y-149203575D01*
X61990001Y-148926336D01*
X61990001Y-148643666D01*
X61934854Y-148366427D01*
X61826681Y-148105274D01*
X61669638Y-147870242D01*
X61469760Y-147670364D01*
X61237242Y-147515001D01*
X61469760Y-147359638D01*
X61669638Y-147159760D01*
X61826681Y-146924728D01*
X61934854Y-146663575D01*
X61990001Y-146386336D01*
X61990001Y-146103666D01*
X61934854Y-145826427D01*
X61826681Y-145565274D01*
X61669638Y-145330242D01*
X61469760Y-145130364D01*
X61234728Y-144973321D01*
X61224136Y-144968934D01*
X61410132Y-144857386D01*
X61618520Y-144668415D01*
X61786038Y-144442421D01*
X61906247Y-144188088D01*
X61946905Y-144054040D01*
X61824916Y-143832001D01*
X60682001Y-143832001D01*
X60682001Y-143852001D01*
X60428001Y-143852001D01*
X60428001Y-143832001D01*
X59285086Y-143832001D01*
X59163097Y-144054040D01*
X59203755Y-144188088D01*
X59323964Y-144442421D01*
X59491482Y-144668415D01*
X59699870Y-144857386D01*
X59885866Y-144968934D01*
X59875274Y-144973321D01*
X59640242Y-145130364D01*
X59440364Y-145330242D01*
X59283321Y-145565274D01*
X59175148Y-145826427D01*
X59120001Y-146103666D01*
X59120001Y-146386336D01*
X59175148Y-146663575D01*
X59283321Y-146924728D01*
X59440364Y-147159760D01*
X59640242Y-147359638D01*
X59872760Y-147515001D01*
X59640242Y-147670364D01*
X59440364Y-147870242D01*
X59283321Y-148105274D01*
X59175148Y-148366427D01*
X59120001Y-148643666D01*
X59120001Y-148926336D01*
X59175148Y-149203575D01*
X59283321Y-149464728D01*
X59440364Y-149699760D01*
X59640242Y-149899638D01*
X59872760Y-150055001D01*
X59640242Y-150210364D01*
X59440364Y-150410242D01*
X59283321Y-150645274D01*
X59175148Y-150906427D01*
X59120001Y-151183666D01*
X59120001Y-151466336D01*
X59175148Y-151743575D01*
X59283321Y-152004728D01*
X59440364Y-152239760D01*
X59640242Y-152439638D01*
X59872760Y-152595001D01*
X59640242Y-152750364D01*
X59440364Y-152950242D01*
X59284451Y-153183583D01*
X56177000Y-150076133D01*
X56177000Y-147100000D01*
X56174560Y-147075224D01*
X56167333Y-147051399D01*
X56162825Y-147042966D01*
X56995908Y-146209884D01*
X57035396Y-146177477D01*
X57067803Y-146137989D01*
X57164734Y-146019879D01*
X57220921Y-145914759D01*
X57260841Y-145840074D01*
X57320024Y-145644976D01*
X57335000Y-145492919D01*
X57335000Y-145492917D01*
X57340007Y-145442081D01*
X57335000Y-145391246D01*
X57335000Y-131048710D01*
X60933219Y-134646929D01*
M02*
