M48
; DRILL file {KiCad (5.1.5)-2} date 2020/03/29 18:21:29
; FORMAT={-:-/ absolute / metric / decimal}
; #@! TF.CreationDate,2020-03-29T18:21:29+09:00
; #@! TF.GenerationSoftware,Kicad,Pcbnew,(5.1.5)-2
FMAT,2
METRIC
T1C0.600
T2C0.800
T3C0.900
T4C0.950
T5C1.000
T6C1.020
T7C1.100
T8C1.600
T9C3.200
T10C3.250
%
G90
G05
T1
X43.05Y-126.2
X52.0Y-134.2
X57.65Y-148.6
X58.8Y-133.9
X65.9Y-133.9
X71.2Y-168.7
T2
X41.0Y-111.92
X41.0Y-114.46
X41.0Y-117.0
X40.0Y-120.5
X40.0Y-125.5
X50.0Y-129.0
X50.0Y-139.16
X40.0Y-129.0
X40.0Y-139.16
X46.38Y-110.26
X46.38Y-112.8
X46.38Y-115.34
X46.38Y-117.88
X46.38Y-120.42
X46.38Y-122.96
X46.38Y-125.5
X54.0Y-110.26
X54.0Y-112.8
X54.0Y-115.34
X54.0Y-117.88
X54.0Y-120.42
X54.0Y-122.96
X54.0Y-125.5
X60.555Y-136.085
X60.555Y-138.625
X60.555Y-141.165
X60.555Y-143.705
X60.555Y-146.245
X60.555Y-148.785
X60.555Y-151.325
X60.555Y-153.865
X60.555Y-156.405
X60.555Y-158.945
X60.555Y-161.485
X60.555Y-164.025
X60.555Y-166.565
X60.555Y-169.105
X60.555Y-171.645
X75.795Y-136.085
X75.795Y-138.625
X75.795Y-141.165
X75.795Y-143.705
X75.795Y-146.245
X75.795Y-148.785
X75.795Y-151.325
X75.795Y-153.865
X75.795Y-156.405
X75.795Y-158.945
X75.795Y-161.485
X75.795Y-164.025
X75.795Y-166.565
X75.795Y-169.105
X75.795Y-171.645
X54.5Y-129.0
X54.5Y-139.16
X40.0Y-145.0
X40.0Y-147.54
X47.62Y-145.0
X47.62Y-147.54
X44.5Y-129.0
X44.5Y-139.16
T3
X80.56Y-123.5
X83.1Y-123.5
X61.2Y-125.9
X61.2Y-129.2
X63.7Y-125.9
X63.7Y-129.2
X66.2Y-125.9
X66.2Y-129.2
X80.56Y-115.8
X83.1Y-115.8
X42.5Y-160.5
X43.77Y-157.96
X45.04Y-160.5
X46.31Y-157.96
X47.58Y-160.5
X48.85Y-157.96
X50.12Y-160.5
X51.39Y-157.96
T4
X83.5Y-144.0
X83.5Y-146.5
X83.5Y-149.0
X83.5Y-151.5
X83.5Y-159.0
X83.5Y-161.5
X83.5Y-164.0
X83.5Y-166.5
X83.5Y-169.0
T5
X54.0Y-144.0
X54.0Y-146.54
X54.0Y-149.08
X54.0Y-151.62
T6
X40.62Y-171.93
X43.16Y-170.23
X50.73Y-171.93
X53.27Y-170.23
T7
X61.1Y-114.1
X61.1Y-120.6
X65.6Y-114.1
X65.6Y-120.6
X70.6Y-114.1
X70.6Y-120.6
X75.1Y-114.1
X75.1Y-120.6
T8
X39.07Y-163.8
X54.82Y-163.8
T9
X86.0Y-109.0
X84.5Y-132.5
X61.0Y-109.0
T10
X41.23Y-166.85
X52.66Y-166.85
T0
M30
