G04 #@! TF.GenerationSoftware,KiCad,Pcbnew,(5.1.5)-2*
G04 #@! TF.CreationDate,2020-03-29T18:21:27+09:00*
G04 #@! TF.ProjectId,circuit_master_ver.2.1.0,63697263-7569-4745-9f6d-61737465725f,rev?*
G04 #@! TF.SameCoordinates,Original*
G04 #@! TF.FileFunction,Legend,Top*
G04 #@! TF.FilePolarity,Positive*
%FSLAX46Y46*%
G04 Gerber Fmt 4.6, Leading zero omitted, Abs format (unit mm)*
G04 Created by KiCad (PCBNEW (5.1.5)-2) date 2020-03-29 18:21:27*
%MOMM*%
%LPD*%
G04 APERTURE LIST*
%ADD10C,0.200000*%
%ADD11C,0.150000*%
%ADD12C,0.120000*%
G04 APERTURE END LIST*
D10*
X51000000Y-144761904D02*
X50952380Y-144857142D01*
X50952380Y-145000000D01*
X51000000Y-145142857D01*
X51095238Y-145238095D01*
X51190476Y-145285714D01*
X51380952Y-145333333D01*
X51523809Y-145333333D01*
X51714285Y-145285714D01*
X51809523Y-145238095D01*
X51904761Y-145142857D01*
X51952380Y-145000000D01*
X51952380Y-144904761D01*
X51904761Y-144761904D01*
X51857142Y-144714285D01*
X51523809Y-144714285D01*
X51523809Y-144904761D01*
X51952380Y-144285714D02*
X50952380Y-144285714D01*
X51952380Y-143714285D01*
X50952380Y-143714285D01*
X51952380Y-143238095D02*
X50952380Y-143238095D01*
X50952380Y-143000000D01*
X51000000Y-142857142D01*
X51095238Y-142761904D01*
X51190476Y-142714285D01*
X51380952Y-142666666D01*
X51523809Y-142666666D01*
X51714285Y-142714285D01*
X51809523Y-142761904D01*
X51904761Y-142857142D01*
X51952380Y-143000000D01*
X51952380Y-143238095D01*
X56904761Y-151607142D02*
X56952380Y-151464285D01*
X56952380Y-151226190D01*
X56904761Y-151130952D01*
X56857142Y-151083333D01*
X56761904Y-151035714D01*
X56666666Y-151035714D01*
X56571428Y-151083333D01*
X56523809Y-151130952D01*
X56476190Y-151226190D01*
X56428571Y-151416666D01*
X56380952Y-151511904D01*
X56333333Y-151559523D01*
X56238095Y-151607142D01*
X56142857Y-151607142D01*
X56047619Y-151559523D01*
X56000000Y-151511904D01*
X55952380Y-151416666D01*
X55952380Y-151178571D01*
X56000000Y-151035714D01*
X56952380Y-150464285D02*
X56904761Y-150559523D01*
X56857142Y-150607142D01*
X56761904Y-150654761D01*
X56476190Y-150654761D01*
X56380952Y-150607142D01*
X56333333Y-150559523D01*
X56285714Y-150464285D01*
X56285714Y-150321428D01*
X56333333Y-150226190D01*
X56380952Y-150178571D01*
X56476190Y-150130952D01*
X56761904Y-150130952D01*
X56857142Y-150178571D01*
X56904761Y-150226190D01*
X56952380Y-150321428D01*
X56952380Y-150464285D01*
X56285714Y-149845238D02*
X56285714Y-149464285D01*
X56952380Y-149702380D02*
X56095238Y-149702380D01*
X56000000Y-149654761D01*
X55952380Y-149559523D01*
X55952380Y-149464285D01*
X56285714Y-149273809D02*
X56285714Y-148892857D01*
X55952380Y-149130952D02*
X56809523Y-149130952D01*
X56904761Y-149083333D01*
X56952380Y-148988095D01*
X56952380Y-148892857D01*
X56904761Y-147845238D02*
X56952380Y-147702380D01*
X56952380Y-147464285D01*
X56904761Y-147369047D01*
X56857142Y-147321428D01*
X56761904Y-147273809D01*
X56666666Y-147273809D01*
X56571428Y-147321428D01*
X56523809Y-147369047D01*
X56476190Y-147464285D01*
X56428571Y-147654761D01*
X56380952Y-147750000D01*
X56333333Y-147797619D01*
X56238095Y-147845238D01*
X56142857Y-147845238D01*
X56047619Y-147797619D01*
X56000000Y-147750000D01*
X55952380Y-147654761D01*
X55952380Y-147416666D01*
X56000000Y-147273809D01*
X56904761Y-146464285D02*
X56952380Y-146559523D01*
X56952380Y-146750000D01*
X56904761Y-146845238D01*
X56809523Y-146892857D01*
X56428571Y-146892857D01*
X56333333Y-146845238D01*
X56285714Y-146750000D01*
X56285714Y-146559523D01*
X56333333Y-146464285D01*
X56428571Y-146416666D01*
X56523809Y-146416666D01*
X56619047Y-146892857D01*
X56952380Y-145988095D02*
X56285714Y-145988095D01*
X56476190Y-145988095D02*
X56380952Y-145940476D01*
X56333333Y-145892857D01*
X56285714Y-145797619D01*
X56285714Y-145702380D01*
X56952380Y-145369047D02*
X56285714Y-145369047D01*
X55952380Y-145369047D02*
X56000000Y-145416666D01*
X56047619Y-145369047D01*
X56000000Y-145321428D01*
X55952380Y-145369047D01*
X56047619Y-145369047D01*
X56952380Y-144464285D02*
X56428571Y-144464285D01*
X56333333Y-144511904D01*
X56285714Y-144607142D01*
X56285714Y-144797619D01*
X56333333Y-144892857D01*
X56904761Y-144464285D02*
X56952380Y-144559523D01*
X56952380Y-144797619D01*
X56904761Y-144892857D01*
X56809523Y-144940476D01*
X56714285Y-144940476D01*
X56619047Y-144892857D01*
X56571428Y-144797619D01*
X56571428Y-144559523D01*
X56523809Y-144464285D01*
X56952380Y-143845238D02*
X56904761Y-143940476D01*
X56809523Y-143988095D01*
X55952380Y-143988095D01*
D11*
X79452380Y-149476190D02*
X78452380Y-149476190D01*
X79166666Y-149142857D01*
X78452380Y-148809523D01*
X79452380Y-148809523D01*
X79452380Y-147904761D02*
X78928571Y-147904761D01*
X78833333Y-147952380D01*
X78785714Y-148047619D01*
X78785714Y-148238095D01*
X78833333Y-148333333D01*
X79404761Y-147904761D02*
X79452380Y-148000000D01*
X79452380Y-148238095D01*
X79404761Y-148333333D01*
X79309523Y-148380952D01*
X79214285Y-148380952D01*
X79119047Y-148333333D01*
X79071428Y-148238095D01*
X79071428Y-148000000D01*
X79023809Y-147904761D01*
X79452380Y-147428571D02*
X78785714Y-147428571D01*
X78452380Y-147428571D02*
X78500000Y-147476190D01*
X78547619Y-147428571D01*
X78500000Y-147380952D01*
X78452380Y-147428571D01*
X78547619Y-147428571D01*
X78785714Y-146952380D02*
X79452380Y-146952380D01*
X78880952Y-146952380D02*
X78833333Y-146904761D01*
X78785714Y-146809523D01*
X78785714Y-146666666D01*
X78833333Y-146571428D01*
X78928571Y-146523809D01*
X79452380Y-146523809D01*
X78452380Y-166452380D02*
X79166666Y-166452380D01*
X79309523Y-166500000D01*
X79404761Y-166595238D01*
X79452380Y-166738095D01*
X79452380Y-166833333D01*
X79452380Y-165833333D02*
X79404761Y-165928571D01*
X79357142Y-165976190D01*
X79261904Y-166023809D01*
X78976190Y-166023809D01*
X78880952Y-165976190D01*
X78833333Y-165928571D01*
X78785714Y-165833333D01*
X78785714Y-165690476D01*
X78833333Y-165595238D01*
X78880952Y-165547619D01*
X78976190Y-165500000D01*
X79261904Y-165500000D01*
X79357142Y-165547619D01*
X79404761Y-165595238D01*
X79452380Y-165690476D01*
X79452380Y-165833333D01*
X78785714Y-165166666D02*
X79452380Y-164928571D01*
X78785714Y-164690476D02*
X79452380Y-164928571D01*
X79690476Y-165023809D01*
X79738095Y-165071428D01*
X79785714Y-165166666D01*
X79404761Y-164357142D02*
X79452380Y-164261904D01*
X79452380Y-164071428D01*
X79404761Y-163976190D01*
X79309523Y-163928571D01*
X79261904Y-163928571D01*
X79166666Y-163976190D01*
X79119047Y-164071428D01*
X79119047Y-164214285D01*
X79071428Y-164309523D01*
X78976190Y-164357142D01*
X78928571Y-164357142D01*
X78833333Y-164309523D01*
X78785714Y-164214285D01*
X78785714Y-164071428D01*
X78833333Y-163976190D01*
X78785714Y-163642857D02*
X78785714Y-163261904D01*
X78452380Y-163500000D02*
X79309523Y-163500000D01*
X79404761Y-163452380D01*
X79452380Y-163357142D01*
X79452380Y-163261904D01*
X79452380Y-162928571D02*
X78785714Y-162928571D01*
X78452380Y-162928571D02*
X78500000Y-162976190D01*
X78547619Y-162928571D01*
X78500000Y-162880952D01*
X78452380Y-162928571D01*
X78547619Y-162928571D01*
X79404761Y-162023809D02*
X79452380Y-162119047D01*
X79452380Y-162309523D01*
X79404761Y-162404761D01*
X79357142Y-162452380D01*
X79261904Y-162500000D01*
X78976190Y-162500000D01*
X78880952Y-162452380D01*
X78833333Y-162404761D01*
X78785714Y-162309523D01*
X78785714Y-162119047D01*
X78833333Y-162023809D01*
X79452380Y-161595238D02*
X78452380Y-161595238D01*
X79071428Y-161500000D02*
X79452380Y-161214285D01*
X78785714Y-161214285D02*
X79166666Y-161595238D01*
D10*
X86500000Y-159761904D02*
X86452380Y-159857142D01*
X86452380Y-160000000D01*
X86500000Y-160142857D01*
X86595238Y-160238095D01*
X86690476Y-160285714D01*
X86880952Y-160333333D01*
X87023809Y-160333333D01*
X87214285Y-160285714D01*
X87309523Y-160238095D01*
X87404761Y-160142857D01*
X87452380Y-160000000D01*
X87452380Y-159904761D01*
X87404761Y-159761904D01*
X87357142Y-159714285D01*
X87023809Y-159714285D01*
X87023809Y-159904761D01*
X87452380Y-159285714D02*
X86452380Y-159285714D01*
X87452380Y-158714285D01*
X86452380Y-158714285D01*
X87452380Y-158238095D02*
X86452380Y-158238095D01*
X86452380Y-158000000D01*
X86500000Y-157857142D01*
X86595238Y-157761904D01*
X86690476Y-157714285D01*
X86880952Y-157666666D01*
X87023809Y-157666666D01*
X87214285Y-157714285D01*
X87309523Y-157761904D01*
X87404761Y-157857142D01*
X87452380Y-158000000D01*
X87452380Y-158238095D01*
X37904761Y-151488095D02*
X37952380Y-151345238D01*
X37952380Y-151107142D01*
X37904761Y-151011904D01*
X37857142Y-150964285D01*
X37761904Y-150916666D01*
X37666666Y-150916666D01*
X37571428Y-150964285D01*
X37523809Y-151011904D01*
X37476190Y-151107142D01*
X37428571Y-151297619D01*
X37380952Y-151392857D01*
X37333333Y-151440476D01*
X37238095Y-151488095D01*
X37142857Y-151488095D01*
X37047619Y-151440476D01*
X37000000Y-151392857D01*
X36952380Y-151297619D01*
X36952380Y-151059523D01*
X37000000Y-150916666D01*
X37904761Y-150107142D02*
X37952380Y-150202380D01*
X37952380Y-150392857D01*
X37904761Y-150488095D01*
X37809523Y-150535714D01*
X37428571Y-150535714D01*
X37333333Y-150488095D01*
X37285714Y-150392857D01*
X37285714Y-150202380D01*
X37333333Y-150107142D01*
X37428571Y-150059523D01*
X37523809Y-150059523D01*
X37619047Y-150535714D01*
X37952380Y-149630952D02*
X37285714Y-149630952D01*
X37476190Y-149630952D02*
X37380952Y-149583333D01*
X37333333Y-149535714D01*
X37285714Y-149440476D01*
X37285714Y-149345238D01*
X37285714Y-149107142D02*
X37952380Y-148869047D01*
X37285714Y-148630952D01*
X37952380Y-148107142D02*
X37904761Y-148202380D01*
X37857142Y-148250000D01*
X37761904Y-148297619D01*
X37476190Y-148297619D01*
X37380952Y-148250000D01*
X37333333Y-148202380D01*
X37285714Y-148107142D01*
X37285714Y-147964285D01*
X37333333Y-147869047D01*
X37380952Y-147821428D01*
X37476190Y-147773809D01*
X37761904Y-147773809D01*
X37857142Y-147821428D01*
X37904761Y-147869047D01*
X37952380Y-147964285D01*
X37952380Y-148107142D01*
X37904761Y-146630952D02*
X37952380Y-146535714D01*
X37952380Y-146345238D01*
X37904761Y-146250000D01*
X37809523Y-146202380D01*
X37761904Y-146202380D01*
X37666666Y-146250000D01*
X37619047Y-146345238D01*
X37619047Y-146488095D01*
X37571428Y-146583333D01*
X37476190Y-146630952D01*
X37428571Y-146630952D01*
X37333333Y-146583333D01*
X37285714Y-146488095D01*
X37285714Y-146345238D01*
X37333333Y-146250000D01*
X37904761Y-145392857D02*
X37952380Y-145488095D01*
X37952380Y-145678571D01*
X37904761Y-145773809D01*
X37809523Y-145821428D01*
X37428571Y-145821428D01*
X37333333Y-145773809D01*
X37285714Y-145678571D01*
X37285714Y-145488095D01*
X37333333Y-145392857D01*
X37428571Y-145345238D01*
X37523809Y-145345238D01*
X37619047Y-145821428D01*
X37952380Y-144773809D02*
X37904761Y-144869047D01*
X37809523Y-144916666D01*
X36952380Y-144916666D01*
X37904761Y-144011904D02*
X37952380Y-144107142D01*
X37952380Y-144297619D01*
X37904761Y-144392857D01*
X37809523Y-144440476D01*
X37428571Y-144440476D01*
X37333333Y-144392857D01*
X37285714Y-144297619D01*
X37285714Y-144107142D01*
X37333333Y-144011904D01*
X37428571Y-143964285D01*
X37523809Y-143964285D01*
X37619047Y-144440476D01*
X37904761Y-143107142D02*
X37952380Y-143202380D01*
X37952380Y-143392857D01*
X37904761Y-143488095D01*
X37857142Y-143535714D01*
X37761904Y-143583333D01*
X37476190Y-143583333D01*
X37380952Y-143535714D01*
X37333333Y-143488095D01*
X37285714Y-143392857D01*
X37285714Y-143202380D01*
X37333333Y-143107142D01*
X37285714Y-142821428D02*
X37285714Y-142440476D01*
X36952380Y-142678571D02*
X37809523Y-142678571D01*
X37904761Y-142630952D01*
X37952380Y-142535714D01*
X37952380Y-142440476D01*
X37952380Y-141964285D02*
X37904761Y-142059523D01*
X37857142Y-142107142D01*
X37761904Y-142154761D01*
X37476190Y-142154761D01*
X37380952Y-142107142D01*
X37333333Y-142059523D01*
X37285714Y-141964285D01*
X37285714Y-141821428D01*
X37333333Y-141726190D01*
X37380952Y-141678571D01*
X37476190Y-141630952D01*
X37761904Y-141630952D01*
X37857142Y-141678571D01*
X37904761Y-141726190D01*
X37952380Y-141821428D01*
X37952380Y-141964285D01*
X37952380Y-141202380D02*
X37285714Y-141202380D01*
X37476190Y-141202380D02*
X37380952Y-141154761D01*
X37333333Y-141107142D01*
X37285714Y-141011904D01*
X37285714Y-140916666D01*
X60023809Y-124404761D02*
X60166666Y-124452380D01*
X60404761Y-124452380D01*
X60500000Y-124404761D01*
X60547619Y-124357142D01*
X60595238Y-124261904D01*
X60595238Y-124166666D01*
X60547619Y-124071428D01*
X60500000Y-124023809D01*
X60404761Y-123976190D01*
X60214285Y-123928571D01*
X60119047Y-123880952D01*
X60071428Y-123833333D01*
X60023809Y-123738095D01*
X60023809Y-123642857D01*
X60071428Y-123547619D01*
X60119047Y-123500000D01*
X60214285Y-123452380D01*
X60452380Y-123452380D01*
X60595238Y-123500000D01*
X61404761Y-124404761D02*
X61309523Y-124452380D01*
X61119047Y-124452380D01*
X61023809Y-124404761D01*
X60976190Y-124309523D01*
X60976190Y-123928571D01*
X61023809Y-123833333D01*
X61119047Y-123785714D01*
X61309523Y-123785714D01*
X61404761Y-123833333D01*
X61452380Y-123928571D01*
X61452380Y-124023809D01*
X60976190Y-124119047D01*
X61880952Y-124452380D02*
X61880952Y-123785714D01*
X61880952Y-123976190D02*
X61928571Y-123880952D01*
X61976190Y-123833333D01*
X62071428Y-123785714D01*
X62166666Y-123785714D01*
X62404761Y-123785714D02*
X62642857Y-124452380D01*
X62880952Y-123785714D01*
X63404761Y-124452380D02*
X63309523Y-124404761D01*
X63261904Y-124357142D01*
X63214285Y-124261904D01*
X63214285Y-123976190D01*
X63261904Y-123880952D01*
X63309523Y-123833333D01*
X63404761Y-123785714D01*
X63547619Y-123785714D01*
X63642857Y-123833333D01*
X63690476Y-123880952D01*
X63738095Y-123976190D01*
X63738095Y-124261904D01*
X63690476Y-124357142D01*
X63642857Y-124404761D01*
X63547619Y-124452380D01*
X63404761Y-124452380D01*
X64166666Y-124071428D02*
X64928571Y-124071428D01*
X64738095Y-124261904D02*
X64928571Y-124071428D01*
X64738095Y-123880952D01*
X64357142Y-123880952D02*
X64166666Y-124071428D01*
X64357142Y-124261904D01*
X65404761Y-124452380D02*
X65404761Y-123452380D01*
X65785714Y-123452380D01*
X65880952Y-123500000D01*
X65928571Y-123547619D01*
X65976190Y-123642857D01*
X65976190Y-123785714D01*
X65928571Y-123880952D01*
X65880952Y-123928571D01*
X65785714Y-123976190D01*
X65404761Y-123976190D01*
X66976190Y-124357142D02*
X66928571Y-124404761D01*
X66785714Y-124452380D01*
X66690476Y-124452380D01*
X66547619Y-124404761D01*
X66452380Y-124309523D01*
X66404761Y-124214285D01*
X66357142Y-124023809D01*
X66357142Y-123880952D01*
X66404761Y-123690476D01*
X66452380Y-123595238D01*
X66547619Y-123500000D01*
X66690476Y-123452380D01*
X66785714Y-123452380D01*
X66928571Y-123500000D01*
X66976190Y-123547619D01*
D12*
X42500000Y-156190000D02*
X55060000Y-156190000D01*
X55060000Y-156190000D02*
X55060000Y-162310000D01*
X38830000Y-160500000D02*
X38830000Y-162310000D01*
X38830000Y-165300000D02*
X38830000Y-177710000D01*
X55060000Y-177710000D02*
X38830000Y-177710000D01*
X55060000Y-165290000D02*
X55060000Y-177710000D01*
X61825001Y-137355001D02*
X61825001Y-134815001D01*
X61825001Y-134815001D02*
X59155001Y-134815001D01*
X59155001Y-137355001D02*
X59155001Y-175585001D01*
X59155001Y-132145001D02*
X59155001Y-134815001D01*
X74525001Y-134815001D02*
X77195001Y-134815001D01*
X74525001Y-134815001D02*
X74525001Y-172915001D01*
X74525001Y-172915001D02*
X77195001Y-172915001D01*
X61825001Y-137355001D02*
X59155001Y-137355001D01*
X61825001Y-137355001D02*
X61825001Y-172915001D01*
X61825001Y-172915001D02*
X59155001Y-172915001D01*
X59155001Y-175585001D02*
X77195001Y-175585001D01*
X77195001Y-175585001D02*
X77195001Y-132145001D01*
X77195001Y-132145001D02*
X59155001Y-132145001D01*
X38945000Y-125470000D02*
X38630000Y-125470000D01*
X41370000Y-125470000D02*
X41055000Y-125470000D01*
X38945000Y-120530000D02*
X38630000Y-120530000D01*
X41370000Y-120530000D02*
X41055000Y-120530000D01*
X38630000Y-120530000D02*
X38630000Y-125470000D01*
X41370000Y-120530000D02*
X41370000Y-125470000D01*
X84390000Y-117345000D02*
X84390000Y-114255000D01*
X84330000Y-115800000D02*
G75*
G03X84330000Y-115800000I-2500000J0D01*
G01*
X78840000Y-115800462D02*
G75*
G02X84390000Y-114255170I2990000J462D01*
G01*
X78840000Y-115799538D02*
G75*
G03X84390000Y-117344830I2990000J-462D01*
G01*
X78840000Y-123499538D02*
G75*
G03X84390000Y-125044830I2990000J-462D01*
G01*
X78840000Y-123500462D02*
G75*
G02X84390000Y-121955170I2990000J462D01*
G01*
X84330000Y-123500000D02*
G75*
G03X84330000Y-123500000I-2500000J0D01*
G01*
X84390000Y-125045000D02*
X84390000Y-121955000D01*
X85960000Y-141440000D02*
X79990000Y-141440000D01*
X79990000Y-141440000D02*
X79990000Y-154060000D01*
X79990000Y-154060000D02*
X85960000Y-154060000D01*
X85960000Y-154060000D02*
X85960000Y-141440000D01*
X85950000Y-144750000D02*
X85200000Y-144750000D01*
X85200000Y-144750000D02*
X85200000Y-150750000D01*
X85200000Y-150750000D02*
X85950000Y-150750000D01*
X85950000Y-150750000D02*
X85950000Y-144750000D01*
X85950000Y-141450000D02*
X85200000Y-141450000D01*
X85200000Y-141450000D02*
X85200000Y-143250000D01*
X85200000Y-143250000D02*
X85950000Y-143250000D01*
X85950000Y-143250000D02*
X85950000Y-141450000D01*
X85950000Y-152250000D02*
X85200000Y-152250000D01*
X85200000Y-152250000D02*
X85200000Y-154050000D01*
X85200000Y-154050000D02*
X85950000Y-154050000D01*
X85950000Y-154050000D02*
X85950000Y-152250000D01*
X83700000Y-141450000D02*
X83700000Y-142200000D01*
X83700000Y-142200000D02*
X80750000Y-142200000D01*
X80750000Y-142200000D02*
X80750000Y-147750000D01*
X83700000Y-154050000D02*
X83700000Y-153300000D01*
X83700000Y-153300000D02*
X80750000Y-153300000D01*
X80750000Y-153300000D02*
X80750000Y-147750000D01*
X86250000Y-142400000D02*
X86250000Y-141150000D01*
X86250000Y-141150000D02*
X85000000Y-141150000D01*
X85960000Y-156440000D02*
X79990000Y-156440000D01*
X79990000Y-156440000D02*
X79990000Y-171560000D01*
X79990000Y-171560000D02*
X85960000Y-171560000D01*
X85960000Y-171560000D02*
X85960000Y-156440000D01*
X85950000Y-159750000D02*
X85200000Y-159750000D01*
X85200000Y-159750000D02*
X85200000Y-168250000D01*
X85200000Y-168250000D02*
X85950000Y-168250000D01*
X85950000Y-168250000D02*
X85950000Y-159750000D01*
X85950000Y-156450000D02*
X85200000Y-156450000D01*
X85200000Y-156450000D02*
X85200000Y-158250000D01*
X85200000Y-158250000D02*
X85950000Y-158250000D01*
X85950000Y-158250000D02*
X85950000Y-156450000D01*
X85950000Y-169750000D02*
X85200000Y-169750000D01*
X85200000Y-169750000D02*
X85200000Y-171550000D01*
X85200000Y-171550000D02*
X85950000Y-171550000D01*
X85950000Y-171550000D02*
X85950000Y-169750000D01*
X83700000Y-156450000D02*
X83700000Y-157200000D01*
X83700000Y-157200000D02*
X80750000Y-157200000D01*
X80750000Y-157200000D02*
X80750000Y-164000000D01*
X83700000Y-171550000D02*
X83700000Y-170800000D01*
X83700000Y-170800000D02*
X80750000Y-170800000D01*
X80750000Y-170800000D02*
X80750000Y-164000000D01*
X86250000Y-157400000D02*
X86250000Y-156150000D01*
X86250000Y-156150000D02*
X85000000Y-156150000D01*
X42122795Y-112135816D02*
G75*
G02X42850000Y-112660000I-1122795J-2324184D01*
G01*
X39901193Y-112103600D02*
G75*
G03X38400000Y-114460000I1098807J-2356400D01*
G01*
X39901193Y-116816400D02*
G75*
G02X38400000Y-114460000I1098807J2356400D01*
G01*
X42122795Y-116784184D02*
G75*
G03X42850000Y-116260000I-1122795J2324184D01*
G01*
X42850000Y-116260000D02*
X42850000Y-112660000D01*
X44500000Y-130040000D02*
X44500000Y-130810000D01*
X44500000Y-138120000D02*
X44500000Y-137350000D01*
X43130000Y-130810000D02*
X43130000Y-137350000D01*
X45870000Y-130810000D02*
X43130000Y-130810000D01*
X45870000Y-137350000D02*
X45870000Y-130810000D01*
X43130000Y-137350000D02*
X45870000Y-137350000D01*
X38630000Y-137350000D02*
X41370000Y-137350000D01*
X41370000Y-137350000D02*
X41370000Y-130810000D01*
X41370000Y-130810000D02*
X38630000Y-130810000D01*
X38630000Y-130810000D02*
X38630000Y-137350000D01*
X40000000Y-138120000D02*
X40000000Y-137350000D01*
X40000000Y-130040000D02*
X40000000Y-130810000D01*
X53130000Y-137350000D02*
X55870000Y-137350000D01*
X55870000Y-137350000D02*
X55870000Y-130810000D01*
X55870000Y-130810000D02*
X53130000Y-130810000D01*
X53130000Y-130810000D02*
X53130000Y-137350000D01*
X54500000Y-138120000D02*
X54500000Y-137350000D01*
X54500000Y-130040000D02*
X54500000Y-130810000D01*
X50000000Y-138120000D02*
X50000000Y-137350000D01*
X50000000Y-130040000D02*
X50000000Y-130810000D01*
X51370000Y-137350000D02*
X51370000Y-130810000D01*
X48630000Y-137350000D02*
X51370000Y-137350000D01*
X48630000Y-130810000D02*
X48630000Y-137350000D01*
X51370000Y-130810000D02*
X48630000Y-130810000D01*
X38860000Y-142580000D02*
X48760000Y-142580000D01*
X38860000Y-149960000D02*
X48760000Y-149960000D01*
X38860000Y-142580000D02*
X38860000Y-149960000D01*
X48760000Y-142580000D02*
X48760000Y-149960000D01*
X38620000Y-142340000D02*
X40004000Y-142340000D01*
X38620000Y-142340000D02*
X38620000Y-143723000D01*
X41780000Y-144365000D02*
X41780000Y-145635000D01*
X41780000Y-145635000D02*
X45840000Y-145635000D01*
X45840000Y-145635000D02*
X45840000Y-144365000D01*
X45840000Y-144365000D02*
X41780000Y-144365000D01*
X41780000Y-144485000D02*
X43133333Y-144485000D01*
X41780000Y-144605000D02*
X43133333Y-144605000D01*
X41780000Y-144725000D02*
X43133333Y-144725000D01*
X41780000Y-144845000D02*
X43133333Y-144845000D01*
X41780000Y-144965000D02*
X43133333Y-144965000D01*
X41780000Y-145085000D02*
X43133333Y-145085000D01*
X41780000Y-145205000D02*
X43133333Y-145205000D01*
X41780000Y-145325000D02*
X43133333Y-145325000D01*
X41780000Y-145445000D02*
X43133333Y-145445000D01*
X41780000Y-145565000D02*
X43133333Y-145565000D01*
X43133333Y-144365000D02*
X43133333Y-145635000D01*
X41780000Y-146905000D02*
X41780000Y-148175000D01*
X41780000Y-148175000D02*
X45840000Y-148175000D01*
X45840000Y-148175000D02*
X45840000Y-146905000D01*
X45840000Y-146905000D02*
X41780000Y-146905000D01*
X41780000Y-147025000D02*
X43133333Y-147025000D01*
X41780000Y-147145000D02*
X43133333Y-147145000D01*
X41780000Y-147265000D02*
X43133333Y-147265000D01*
X41780000Y-147385000D02*
X43133333Y-147385000D01*
X41780000Y-147505000D02*
X43133333Y-147505000D01*
X41780000Y-147625000D02*
X43133333Y-147625000D01*
X41780000Y-147745000D02*
X43133333Y-147745000D01*
X41780000Y-147865000D02*
X43133333Y-147865000D01*
X41780000Y-147985000D02*
X43133333Y-147985000D01*
X41780000Y-148105000D02*
X43133333Y-148105000D01*
X43133333Y-146905000D02*
X43133333Y-148175000D01*
X58800000Y-125150000D02*
X58800000Y-126350000D01*
X60000000Y-125150000D02*
X58800000Y-125150000D01*
X68300000Y-129650000D02*
X67100000Y-129650000D01*
X68300000Y-125450000D02*
X68300000Y-129650000D01*
X67100000Y-125450000D02*
X68300000Y-125450000D01*
X59100000Y-129650000D02*
X60300000Y-129650000D01*
X59100000Y-125450000D02*
X59100000Y-129650000D01*
X60300000Y-125450000D02*
X59100000Y-125450000D01*
X64100000Y-113850000D02*
X62600000Y-113850000D01*
X60100000Y-115100000D02*
X60100000Y-119600000D01*
X62600000Y-120850000D02*
X64100000Y-120850000D01*
X66600000Y-119600000D02*
X66600000Y-115100000D01*
X76100000Y-119600000D02*
X76100000Y-115100000D01*
X72100000Y-120850000D02*
X73600000Y-120850000D01*
X69600000Y-115100000D02*
X69600000Y-119600000D01*
X73600000Y-113850000D02*
X72100000Y-113850000D01*
X44940000Y-126890000D02*
X55440000Y-126890000D01*
X44940000Y-108870000D02*
X44940000Y-126890000D01*
X55440000Y-108870000D02*
X44940000Y-108870000D01*
X55440000Y-126890000D02*
X55440000Y-108870000D01*
X47940000Y-126830000D02*
X49190000Y-126830000D01*
X47940000Y-108930000D02*
X47940000Y-126830000D01*
X52440000Y-108930000D02*
X47940000Y-108930000D01*
X52440000Y-126830000D02*
X52440000Y-108930000D01*
X51190000Y-126830000D02*
X52440000Y-126830000D01*
X49190000Y-126830000D02*
G75*
G02X51190000Y-126830000I1000000J0D01*
G01*
X52670000Y-152950000D02*
X55330000Y-152950000D01*
X52670000Y-145270000D02*
X52670000Y-152950000D01*
X55330000Y-145270000D02*
X55330000Y-152950000D01*
X52670000Y-145270000D02*
X55330000Y-145270000D01*
X52670000Y-144000000D02*
X52670000Y-142670000D01*
X52670000Y-142670000D02*
X54000000Y-142670000D01*
D11*
X47166666Y-163452380D02*
X47166666Y-164166666D01*
X47119047Y-164309523D01*
X47023809Y-164404761D01*
X46880952Y-164452380D01*
X46785714Y-164452380D01*
X48166666Y-164452380D02*
X47595238Y-164452380D01*
X47880952Y-164452380D02*
X47880952Y-163452380D01*
X47785714Y-163595238D01*
X47690476Y-163690476D01*
X47595238Y-163738095D01*
X67460715Y-136166666D02*
X67936905Y-136166666D01*
X67365477Y-136452380D02*
X67698810Y-135452380D01*
X68032143Y-136452380D01*
X68889286Y-136452380D02*
X68317858Y-136452380D01*
X68603572Y-136452380D02*
X68603572Y-135452380D01*
X68508334Y-135595238D01*
X68413096Y-135690476D01*
X68317858Y-135738095D01*
X40357142Y-123166666D02*
X40404761Y-123214285D01*
X40452380Y-123357142D01*
X40452380Y-123452380D01*
X40404761Y-123595238D01*
X40309523Y-123690476D01*
X40214285Y-123738095D01*
X40023809Y-123785714D01*
X39880952Y-123785714D01*
X39690476Y-123738095D01*
X39595238Y-123690476D01*
X39500000Y-123595238D01*
X39452380Y-123452380D01*
X39452380Y-123357142D01*
X39500000Y-123214285D01*
X39547619Y-123166666D01*
X40452380Y-122214285D02*
X40452380Y-122785714D01*
X40452380Y-122500000D02*
X39452380Y-122500000D01*
X39595238Y-122595238D01*
X39690476Y-122690476D01*
X39738095Y-122785714D01*
X81091904Y-120212380D02*
X81091904Y-119212380D01*
X81330000Y-119212380D01*
X81472857Y-119260000D01*
X81568095Y-119355238D01*
X81615714Y-119450476D01*
X81663333Y-119640952D01*
X81663333Y-119783809D01*
X81615714Y-119974285D01*
X81568095Y-120069523D01*
X81472857Y-120164761D01*
X81330000Y-120212380D01*
X81091904Y-120212380D01*
X82615714Y-120212380D02*
X82044285Y-120212380D01*
X82330000Y-120212380D02*
X82330000Y-119212380D01*
X82234761Y-119355238D01*
X82139523Y-119450476D01*
X82044285Y-119498095D01*
X81091904Y-127912380D02*
X81091904Y-126912380D01*
X81330000Y-126912380D01*
X81472857Y-126960000D01*
X81568095Y-127055238D01*
X81615714Y-127150476D01*
X81663333Y-127340952D01*
X81663333Y-127483809D01*
X81615714Y-127674285D01*
X81568095Y-127769523D01*
X81472857Y-127864761D01*
X81330000Y-127912380D01*
X81091904Y-127912380D01*
X82044285Y-127007619D02*
X82091904Y-126960000D01*
X82187142Y-126912380D01*
X82425238Y-126912380D01*
X82520476Y-126960000D01*
X82568095Y-127007619D01*
X82615714Y-127102857D01*
X82615714Y-127198095D01*
X82568095Y-127340952D01*
X81996666Y-127912380D01*
X82615714Y-127912380D01*
X80952380Y-148083333D02*
X81666666Y-148083333D01*
X81809523Y-148130952D01*
X81904761Y-148226190D01*
X81952380Y-148369047D01*
X81952380Y-148464285D01*
X81047619Y-147654761D02*
X81000000Y-147607142D01*
X80952380Y-147511904D01*
X80952380Y-147273809D01*
X81000000Y-147178571D01*
X81047619Y-147130952D01*
X81142857Y-147083333D01*
X81238095Y-147083333D01*
X81380952Y-147130952D01*
X81952380Y-147702380D01*
X81952380Y-147083333D01*
X80952380Y-164333333D02*
X81666666Y-164333333D01*
X81809523Y-164380952D01*
X81904761Y-164476190D01*
X81952380Y-164619047D01*
X81952380Y-164714285D01*
X80952380Y-163952380D02*
X80952380Y-163333333D01*
X81333333Y-163666666D01*
X81333333Y-163523809D01*
X81380952Y-163428571D01*
X81428571Y-163380952D01*
X81523809Y-163333333D01*
X81761904Y-163333333D01*
X81857142Y-163380952D01*
X81904761Y-163428571D01*
X81952380Y-163523809D01*
X81952380Y-163809523D01*
X81904761Y-163904761D01*
X81857142Y-163952380D01*
X37987619Y-114555238D02*
X37940000Y-114650476D01*
X37844761Y-114745714D01*
X37701904Y-114888571D01*
X37654285Y-114983809D01*
X37654285Y-115079047D01*
X37892380Y-115031428D02*
X37844761Y-115126666D01*
X37749523Y-115221904D01*
X37559047Y-115269523D01*
X37225714Y-115269523D01*
X37035238Y-115221904D01*
X36940000Y-115126666D01*
X36892380Y-115031428D01*
X36892380Y-114840952D01*
X36940000Y-114745714D01*
X37035238Y-114650476D01*
X37225714Y-114602857D01*
X37559047Y-114602857D01*
X37749523Y-114650476D01*
X37844761Y-114745714D01*
X37892380Y-114840952D01*
X37892380Y-115031428D01*
X37892380Y-113650476D02*
X37892380Y-114221904D01*
X37892380Y-113936190D02*
X36892380Y-113936190D01*
X37035238Y-114031428D01*
X37130476Y-114126666D01*
X37178095Y-114221904D01*
X44952380Y-134166666D02*
X44476190Y-134500000D01*
X44952380Y-134738095D02*
X43952380Y-134738095D01*
X43952380Y-134357142D01*
X44000000Y-134261904D01*
X44047619Y-134214285D01*
X44142857Y-134166666D01*
X44285714Y-134166666D01*
X44380952Y-134214285D01*
X44428571Y-134261904D01*
X44476190Y-134357142D01*
X44476190Y-134738095D01*
X44952380Y-133214285D02*
X44952380Y-133785714D01*
X44952380Y-133500000D02*
X43952380Y-133500000D01*
X44095238Y-133595238D01*
X44190476Y-133690476D01*
X44238095Y-133785714D01*
X40452380Y-134246666D02*
X39976190Y-134580000D01*
X40452380Y-134818095D02*
X39452380Y-134818095D01*
X39452380Y-134437142D01*
X39500000Y-134341904D01*
X39547619Y-134294285D01*
X39642857Y-134246666D01*
X39785714Y-134246666D01*
X39880952Y-134294285D01*
X39928571Y-134341904D01*
X39976190Y-134437142D01*
X39976190Y-134818095D01*
X39547619Y-133865714D02*
X39500000Y-133818095D01*
X39452380Y-133722857D01*
X39452380Y-133484761D01*
X39500000Y-133389523D01*
X39547619Y-133341904D01*
X39642857Y-133294285D01*
X39738095Y-133294285D01*
X39880952Y-133341904D01*
X40452380Y-133913333D01*
X40452380Y-133294285D01*
X54952380Y-134166666D02*
X54476190Y-134500000D01*
X54952380Y-134738095D02*
X53952380Y-134738095D01*
X53952380Y-134357142D01*
X54000000Y-134261904D01*
X54047619Y-134214285D01*
X54142857Y-134166666D01*
X54285714Y-134166666D01*
X54380952Y-134214285D01*
X54428571Y-134261904D01*
X54476190Y-134357142D01*
X54476190Y-134738095D01*
X53952380Y-133261904D02*
X53952380Y-133738095D01*
X54428571Y-133785714D01*
X54380952Y-133738095D01*
X54333333Y-133642857D01*
X54333333Y-133404761D01*
X54380952Y-133309523D01*
X54428571Y-133261904D01*
X54523809Y-133214285D01*
X54761904Y-133214285D01*
X54857142Y-133261904D01*
X54904761Y-133309523D01*
X54952380Y-133404761D01*
X54952380Y-133642857D01*
X54904761Y-133738095D01*
X54857142Y-133785714D01*
X50452380Y-134166666D02*
X49976190Y-134500000D01*
X50452380Y-134738095D02*
X49452380Y-134738095D01*
X49452380Y-134357142D01*
X49500000Y-134261904D01*
X49547619Y-134214285D01*
X49642857Y-134166666D01*
X49785714Y-134166666D01*
X49880952Y-134214285D01*
X49928571Y-134261904D01*
X49976190Y-134357142D01*
X49976190Y-134738095D01*
X49452380Y-133309523D02*
X49452380Y-133500000D01*
X49500000Y-133595238D01*
X49547619Y-133642857D01*
X49690476Y-133738095D01*
X49880952Y-133785714D01*
X50261904Y-133785714D01*
X50357142Y-133738095D01*
X50404761Y-133690476D01*
X50452380Y-133595238D01*
X50452380Y-133404761D01*
X50404761Y-133309523D01*
X50357142Y-133261904D01*
X50261904Y-133214285D01*
X50023809Y-133214285D01*
X49928571Y-133261904D01*
X49880952Y-133309523D01*
X49833333Y-133404761D01*
X49833333Y-133595238D01*
X49880952Y-133690476D01*
X49928571Y-133738095D01*
X50023809Y-133785714D01*
X42666666Y-143904761D02*
X42809523Y-143952380D01*
X43047619Y-143952380D01*
X43142857Y-143904761D01*
X43190476Y-143857142D01*
X43238095Y-143761904D01*
X43238095Y-143666666D01*
X43190476Y-143571428D01*
X43142857Y-143523809D01*
X43047619Y-143476190D01*
X42857142Y-143428571D01*
X42761904Y-143380952D01*
X42714285Y-143333333D01*
X42666666Y-143238095D01*
X42666666Y-143142857D01*
X42714285Y-143047619D01*
X42761904Y-143000000D01*
X42857142Y-142952380D01*
X43095238Y-142952380D01*
X43238095Y-143000000D01*
X43571428Y-142952380D02*
X43809523Y-143952380D01*
X44000000Y-143238095D01*
X44190476Y-143952380D01*
X44428571Y-142952380D01*
X45333333Y-143952380D02*
X44761904Y-143952380D01*
X45047619Y-143952380D02*
X45047619Y-142952380D01*
X44952380Y-143095238D01*
X44857142Y-143190476D01*
X44761904Y-143238095D01*
X62616666Y-127904761D02*
X62759523Y-127952380D01*
X62997619Y-127952380D01*
X63092857Y-127904761D01*
X63140476Y-127857142D01*
X63188095Y-127761904D01*
X63188095Y-127666666D01*
X63140476Y-127571428D01*
X63092857Y-127523809D01*
X62997619Y-127476190D01*
X62807142Y-127428571D01*
X62711904Y-127380952D01*
X62664285Y-127333333D01*
X62616666Y-127238095D01*
X62616666Y-127142857D01*
X62664285Y-127047619D01*
X62711904Y-127000000D01*
X62807142Y-126952380D01*
X63045238Y-126952380D01*
X63188095Y-127000000D01*
X63521428Y-126952380D02*
X63759523Y-127952380D01*
X63950000Y-127238095D01*
X64140476Y-127952380D01*
X64378571Y-126952380D01*
X64711904Y-127047619D02*
X64759523Y-127000000D01*
X64854761Y-126952380D01*
X65092857Y-126952380D01*
X65188095Y-127000000D01*
X65235714Y-127047619D01*
X65283333Y-127142857D01*
X65283333Y-127238095D01*
X65235714Y-127380952D01*
X64664285Y-127952380D01*
X65283333Y-127952380D01*
X59404761Y-118683333D02*
X59452380Y-118540476D01*
X59452380Y-118302380D01*
X59404761Y-118207142D01*
X59357142Y-118159523D01*
X59261904Y-118111904D01*
X59166666Y-118111904D01*
X59071428Y-118159523D01*
X59023809Y-118207142D01*
X58976190Y-118302380D01*
X58928571Y-118492857D01*
X58880952Y-118588095D01*
X58833333Y-118635714D01*
X58738095Y-118683333D01*
X58642857Y-118683333D01*
X58547619Y-118635714D01*
X58500000Y-118588095D01*
X58452380Y-118492857D01*
X58452380Y-118254761D01*
X58500000Y-118111904D01*
X58452380Y-117778571D02*
X59452380Y-117540476D01*
X58738095Y-117350000D01*
X59452380Y-117159523D01*
X58452380Y-116921428D01*
X58452380Y-116635714D02*
X58452380Y-116016666D01*
X58833333Y-116350000D01*
X58833333Y-116207142D01*
X58880952Y-116111904D01*
X58928571Y-116064285D01*
X59023809Y-116016666D01*
X59261904Y-116016666D01*
X59357142Y-116064285D01*
X59404761Y-116111904D01*
X59452380Y-116207142D01*
X59452380Y-116492857D01*
X59404761Y-116588095D01*
X59357142Y-116635714D01*
X68904761Y-118683333D02*
X68952380Y-118540476D01*
X68952380Y-118302380D01*
X68904761Y-118207142D01*
X68857142Y-118159523D01*
X68761904Y-118111904D01*
X68666666Y-118111904D01*
X68571428Y-118159523D01*
X68523809Y-118207142D01*
X68476190Y-118302380D01*
X68428571Y-118492857D01*
X68380952Y-118588095D01*
X68333333Y-118635714D01*
X68238095Y-118683333D01*
X68142857Y-118683333D01*
X68047619Y-118635714D01*
X68000000Y-118588095D01*
X67952380Y-118492857D01*
X67952380Y-118254761D01*
X68000000Y-118111904D01*
X67952380Y-117778571D02*
X68952380Y-117540476D01*
X68238095Y-117350000D01*
X68952380Y-117159523D01*
X67952380Y-116921428D01*
X68285714Y-116111904D02*
X68952380Y-116111904D01*
X67904761Y-116350000D02*
X68619047Y-116588095D01*
X68619047Y-115969047D01*
X49428095Y-117452380D02*
X49428095Y-118261904D01*
X49475714Y-118357142D01*
X49523333Y-118404761D01*
X49618571Y-118452380D01*
X49809047Y-118452380D01*
X49904285Y-118404761D01*
X49951904Y-118357142D01*
X49999523Y-118261904D01*
X49999523Y-117452380D01*
X50999523Y-118452380D02*
X50428095Y-118452380D01*
X50713809Y-118452380D02*
X50713809Y-117452380D01*
X50618571Y-117595238D01*
X50523333Y-117690476D01*
X50428095Y-117738095D01*
M02*
