M48
; DRILL file {KiCad (5.1.5)-2} date 2019/12/11 14:25:50
; FORMAT={-:-/ absolute / metric / decimal}
; #@! TF.CreationDate,2019-12-11T14:25:50+09:00
; #@! TF.GenerationSoftware,Kicad,Pcbnew,(5.1.5)-2
FMAT,2
METRIC
T1C0.600
T2C0.750
T3C0.800
T4C0.900
T5C0.950
T6C1.020
T7C1.600
T8C3.250
%
G90
G05
T1
X40.0Y-170.0
X45.0Y-120.0
X45.0Y-140.0
X55.0Y-115.0
X65.0Y-170.0
X66.5Y-133.0
X67.0Y-145.5
X73.0Y-126.0
X73.0Y-140.0
X73.5Y-131.5
X77.5Y-152.0
X81.0Y-150.0
X90.0Y-115.0
X90.0Y-140.0
X90.0Y-170.0
T2
X61.0Y-124.5
X63.54Y-124.5
X66.08Y-124.5
T3
X74.905Y-129.675
X85.065Y-129.675
X38.955Y-114.525
X49.115Y-114.525
X38.955Y-122.625
X49.115Y-122.625
X74.905Y-141.825
X79.905Y-141.825
X74.905Y-137.775
X85.065Y-137.775
X39.0Y-130.5
X39.0Y-133.04
X39.0Y-135.58
X39.0Y-138.12
X39.0Y-140.66
X39.0Y-143.2
X39.0Y-145.74
X39.0Y-148.28
X39.0Y-150.82
X39.0Y-153.36
X39.0Y-155.9
X39.0Y-158.44
X39.0Y-160.98
X39.0Y-163.52
X39.0Y-166.06
X54.24Y-130.5
X54.24Y-133.04
X54.24Y-135.58
X54.24Y-138.12
X54.24Y-140.66
X54.24Y-143.2
X54.24Y-145.74
X54.24Y-148.28
X54.24Y-150.82
X54.24Y-153.36
X54.24Y-155.9
X54.24Y-158.44
X54.24Y-160.98
X54.24Y-163.52
X54.24Y-166.06
X62.5Y-131.5
X62.5Y-134.04
X62.5Y-136.58
X62.5Y-139.12
X62.5Y-141.66
X62.5Y-144.2
X62.5Y-146.74
X70.12Y-131.5
X70.12Y-134.04
X70.12Y-136.58
X70.12Y-139.12
X70.12Y-141.66
X70.12Y-144.2
X70.12Y-146.74
X77.5Y-120.0
X77.5Y-122.54
X85.12Y-120.0
X85.12Y-122.54
X38.955Y-118.575
X49.115Y-118.575
X74.905Y-133.725
X85.065Y-133.725
T4
X65.0Y-155.0
X66.27Y-152.46
X67.54Y-155.0
X68.81Y-152.46
X70.08Y-155.0
X71.35Y-152.46
X72.62Y-155.0
X73.89Y-152.46
T5
X86.0Y-144.5
X86.0Y-147.0
X86.0Y-149.5
X86.0Y-152.0
X86.0Y-159.5
X86.0Y-162.0
X86.0Y-164.5
X86.0Y-167.0
X86.0Y-169.5
T6
X63.12Y-166.43
X65.66Y-164.73
X73.23Y-166.43
X75.77Y-164.73
T7
X61.57Y-158.3
X77.32Y-158.3
T8
X63.73Y-161.35
X75.16Y-161.35
T0
M30
