G04 #@! TF.GenerationSoftware,KiCad,Pcbnew,(5.1.5)-2*
G04 #@! TF.CreationDate,2019-12-11T14:25:45+09:00*
G04 #@! TF.ProjectId,circuit_master_ver.1.0.0,63697263-7569-4745-9f6d-61737465725f,rev?*
G04 #@! TF.SameCoordinates,Original*
G04 #@! TF.FileFunction,Soldermask,Top*
G04 #@! TF.FilePolarity,Negative*
%FSLAX46Y46*%
G04 Gerber Fmt 4.6, Leading zero omitted, Abs format (unit mm)*
G04 Created by KiCad (PCBNEW (5.1.5)-2) date 2019-12-11 14:25:45*
%MOMM*%
%LPD*%
G04 APERTURE LIST*
%ADD10C,0.100000*%
G04 APERTURE END LIST*
D10*
G36*
X86883600Y-168602989D02*
G01*
X86916652Y-168613015D01*
X86947103Y-168629292D01*
X86973799Y-168651201D01*
X86995708Y-168677897D01*
X87011985Y-168708348D01*
X87022011Y-168741400D01*
X87026000Y-168781903D01*
X87026000Y-170218097D01*
X87022011Y-170258600D01*
X87011985Y-170291652D01*
X86995708Y-170322103D01*
X86973799Y-170348799D01*
X86947103Y-170370708D01*
X86916652Y-170386985D01*
X86883600Y-170397011D01*
X86843097Y-170401000D01*
X85156903Y-170401000D01*
X85116400Y-170397011D01*
X85083348Y-170386985D01*
X85052897Y-170370708D01*
X85026201Y-170348799D01*
X85004292Y-170322103D01*
X84988015Y-170291652D01*
X84977989Y-170258600D01*
X84974000Y-170218097D01*
X84974000Y-168781903D01*
X84977989Y-168741400D01*
X84988015Y-168708348D01*
X85004292Y-168677897D01*
X85026201Y-168651201D01*
X85052897Y-168629292D01*
X85083348Y-168613015D01*
X85116400Y-168602989D01*
X85156903Y-168599000D01*
X86843097Y-168599000D01*
X86883600Y-168602989D01*
G37*
G36*
X86235443Y-166105519D02*
G01*
X86301627Y-166112037D01*
X86471466Y-166163557D01*
X86627991Y-166247222D01*
X86663729Y-166276552D01*
X86765186Y-166359814D01*
X86848448Y-166461271D01*
X86877778Y-166497009D01*
X86961443Y-166653534D01*
X87012963Y-166823373D01*
X87030359Y-167000000D01*
X87012963Y-167176627D01*
X86961443Y-167346466D01*
X86877778Y-167502991D01*
X86848448Y-167538729D01*
X86765186Y-167640186D01*
X86663729Y-167723448D01*
X86627991Y-167752778D01*
X86471466Y-167836443D01*
X86301627Y-167887963D01*
X86235443Y-167894481D01*
X86169260Y-167901000D01*
X85830740Y-167901000D01*
X85764557Y-167894481D01*
X85698373Y-167887963D01*
X85528534Y-167836443D01*
X85372009Y-167752778D01*
X85336271Y-167723448D01*
X85234814Y-167640186D01*
X85151552Y-167538729D01*
X85122222Y-167502991D01*
X85038557Y-167346466D01*
X84987037Y-167176627D01*
X84969641Y-167000000D01*
X84987037Y-166823373D01*
X85038557Y-166653534D01*
X85122222Y-166497009D01*
X85151552Y-166461271D01*
X85234814Y-166359814D01*
X85336271Y-166276552D01*
X85372009Y-166247222D01*
X85528534Y-166163557D01*
X85698373Y-166112037D01*
X85764557Y-166105519D01*
X85830740Y-166099000D01*
X86169260Y-166099000D01*
X86235443Y-166105519D01*
G37*
G36*
X63353642Y-165659781D02*
G01*
X63499414Y-165720162D01*
X63499416Y-165720163D01*
X63630608Y-165807822D01*
X63742178Y-165919392D01*
X63829837Y-166050584D01*
X63829838Y-166050586D01*
X63890219Y-166196358D01*
X63921000Y-166351107D01*
X63921000Y-166508893D01*
X63890219Y-166663642D01*
X63866454Y-166721015D01*
X63829837Y-166809416D01*
X63742178Y-166940608D01*
X63630608Y-167052178D01*
X63499416Y-167139837D01*
X63499415Y-167139838D01*
X63499414Y-167139838D01*
X63353642Y-167200219D01*
X63198893Y-167231000D01*
X63041107Y-167231000D01*
X62886358Y-167200219D01*
X62740586Y-167139838D01*
X62740585Y-167139838D01*
X62740584Y-167139837D01*
X62609392Y-167052178D01*
X62497822Y-166940608D01*
X62410163Y-166809416D01*
X62373546Y-166721015D01*
X62349781Y-166663642D01*
X62319000Y-166508893D01*
X62319000Y-166351107D01*
X62349781Y-166196358D01*
X62410162Y-166050586D01*
X62410163Y-166050584D01*
X62497822Y-165919392D01*
X62609392Y-165807822D01*
X62740584Y-165720163D01*
X62740586Y-165720162D01*
X62886358Y-165659781D01*
X63041107Y-165629000D01*
X63198893Y-165629000D01*
X63353642Y-165659781D01*
G37*
G36*
X73463642Y-165659781D02*
G01*
X73609414Y-165720162D01*
X73609416Y-165720163D01*
X73740608Y-165807822D01*
X73852178Y-165919392D01*
X73939837Y-166050584D01*
X73939838Y-166050586D01*
X74000219Y-166196358D01*
X74031000Y-166351107D01*
X74031000Y-166508893D01*
X74000219Y-166663642D01*
X73976454Y-166721015D01*
X73939837Y-166809416D01*
X73852178Y-166940608D01*
X73740608Y-167052178D01*
X73609416Y-167139837D01*
X73609415Y-167139838D01*
X73609414Y-167139838D01*
X73463642Y-167200219D01*
X73308893Y-167231000D01*
X73151107Y-167231000D01*
X72996358Y-167200219D01*
X72850586Y-167139838D01*
X72850585Y-167139838D01*
X72850584Y-167139837D01*
X72719392Y-167052178D01*
X72607822Y-166940608D01*
X72520163Y-166809416D01*
X72483546Y-166721015D01*
X72459781Y-166663642D01*
X72429000Y-166508893D01*
X72429000Y-166351107D01*
X72459781Y-166196358D01*
X72520162Y-166050586D01*
X72520163Y-166050584D01*
X72607822Y-165919392D01*
X72719392Y-165807822D01*
X72850584Y-165720163D01*
X72850586Y-165720162D01*
X72996358Y-165659781D01*
X73151107Y-165629000D01*
X73308893Y-165629000D01*
X73463642Y-165659781D01*
G37*
G36*
X39248228Y-165241703D02*
G01*
X39403100Y-165305853D01*
X39542481Y-165398985D01*
X39661015Y-165517519D01*
X39754147Y-165656900D01*
X39818297Y-165811772D01*
X39851000Y-165976184D01*
X39851000Y-166143816D01*
X39818297Y-166308228D01*
X39754147Y-166463100D01*
X39661015Y-166602481D01*
X39542481Y-166721015D01*
X39403100Y-166814147D01*
X39248228Y-166878297D01*
X39083816Y-166911000D01*
X38916184Y-166911000D01*
X38751772Y-166878297D01*
X38596900Y-166814147D01*
X38457519Y-166721015D01*
X38338985Y-166602481D01*
X38245853Y-166463100D01*
X38181703Y-166308228D01*
X38149000Y-166143816D01*
X38149000Y-165976184D01*
X38181703Y-165811772D01*
X38245853Y-165656900D01*
X38338985Y-165517519D01*
X38457519Y-165398985D01*
X38596900Y-165305853D01*
X38751772Y-165241703D01*
X38916184Y-165209000D01*
X39083816Y-165209000D01*
X39248228Y-165241703D01*
G37*
G36*
X54488228Y-165241703D02*
G01*
X54643100Y-165305853D01*
X54782481Y-165398985D01*
X54901015Y-165517519D01*
X54994147Y-165656900D01*
X55058297Y-165811772D01*
X55091000Y-165976184D01*
X55091000Y-166143816D01*
X55058297Y-166308228D01*
X54994147Y-166463100D01*
X54901015Y-166602481D01*
X54782481Y-166721015D01*
X54643100Y-166814147D01*
X54488228Y-166878297D01*
X54323816Y-166911000D01*
X54156184Y-166911000D01*
X53991772Y-166878297D01*
X53836900Y-166814147D01*
X53697519Y-166721015D01*
X53578985Y-166602481D01*
X53485853Y-166463100D01*
X53421703Y-166308228D01*
X53389000Y-166143816D01*
X53389000Y-165976184D01*
X53421703Y-165811772D01*
X53485853Y-165656900D01*
X53578985Y-165517519D01*
X53697519Y-165398985D01*
X53836900Y-165305853D01*
X53991772Y-165241703D01*
X54156184Y-165209000D01*
X54323816Y-165209000D01*
X54488228Y-165241703D01*
G37*
G36*
X65893642Y-163959781D02*
G01*
X66039414Y-164020162D01*
X66039416Y-164020163D01*
X66170608Y-164107822D01*
X66282178Y-164219392D01*
X66361627Y-164338297D01*
X66369838Y-164350586D01*
X66430219Y-164496358D01*
X66461000Y-164651107D01*
X66461000Y-164808893D01*
X66430219Y-164963642D01*
X66413920Y-165002991D01*
X66369837Y-165109416D01*
X66282178Y-165240608D01*
X66170608Y-165352178D01*
X66039416Y-165439837D01*
X66039415Y-165439838D01*
X66039414Y-165439838D01*
X65893642Y-165500219D01*
X65738893Y-165531000D01*
X65581107Y-165531000D01*
X65426358Y-165500219D01*
X65280586Y-165439838D01*
X65280585Y-165439838D01*
X65280584Y-165439837D01*
X65149392Y-165352178D01*
X65037822Y-165240608D01*
X64950163Y-165109416D01*
X64906080Y-165002991D01*
X64889781Y-164963642D01*
X64859000Y-164808893D01*
X64859000Y-164651107D01*
X64889781Y-164496358D01*
X64950162Y-164350586D01*
X64958373Y-164338297D01*
X65037822Y-164219392D01*
X65149392Y-164107822D01*
X65280584Y-164020163D01*
X65280586Y-164020162D01*
X65426358Y-163959781D01*
X65581107Y-163929000D01*
X65738893Y-163929000D01*
X65893642Y-163959781D01*
G37*
G36*
X76003642Y-163959781D02*
G01*
X76149414Y-164020162D01*
X76149416Y-164020163D01*
X76280608Y-164107822D01*
X76392178Y-164219392D01*
X76471627Y-164338297D01*
X76479838Y-164350586D01*
X76540219Y-164496358D01*
X76571000Y-164651107D01*
X76571000Y-164808893D01*
X76540219Y-164963642D01*
X76523920Y-165002991D01*
X76479837Y-165109416D01*
X76392178Y-165240608D01*
X76280608Y-165352178D01*
X76149416Y-165439837D01*
X76149415Y-165439838D01*
X76149414Y-165439838D01*
X76003642Y-165500219D01*
X75848893Y-165531000D01*
X75691107Y-165531000D01*
X75536358Y-165500219D01*
X75390586Y-165439838D01*
X75390585Y-165439838D01*
X75390584Y-165439837D01*
X75259392Y-165352178D01*
X75147822Y-165240608D01*
X75060163Y-165109416D01*
X75016080Y-165002991D01*
X74999781Y-164963642D01*
X74969000Y-164808893D01*
X74969000Y-164651107D01*
X74999781Y-164496358D01*
X75060162Y-164350586D01*
X75068373Y-164338297D01*
X75147822Y-164219392D01*
X75259392Y-164107822D01*
X75390584Y-164020163D01*
X75390586Y-164020162D01*
X75536358Y-163959781D01*
X75691107Y-163929000D01*
X75848893Y-163929000D01*
X76003642Y-163959781D01*
G37*
G36*
X86235443Y-163605519D02*
G01*
X86301627Y-163612037D01*
X86471466Y-163663557D01*
X86627991Y-163747222D01*
X86653588Y-163768229D01*
X86765186Y-163859814D01*
X86847226Y-163959781D01*
X86877778Y-163997009D01*
X86961443Y-164153534D01*
X87012963Y-164323373D01*
X87030359Y-164500000D01*
X87012963Y-164676627D01*
X86961443Y-164846466D01*
X86877778Y-165002991D01*
X86848448Y-165038729D01*
X86765186Y-165140186D01*
X86663729Y-165223448D01*
X86627991Y-165252778D01*
X86471466Y-165336443D01*
X86301627Y-165387963D01*
X86235442Y-165394482D01*
X86169260Y-165401000D01*
X85830740Y-165401000D01*
X85764558Y-165394482D01*
X85698373Y-165387963D01*
X85528534Y-165336443D01*
X85372009Y-165252778D01*
X85336271Y-165223448D01*
X85234814Y-165140186D01*
X85151552Y-165038729D01*
X85122222Y-165002991D01*
X85038557Y-164846466D01*
X84987037Y-164676627D01*
X84969641Y-164500000D01*
X84987037Y-164323373D01*
X85038557Y-164153534D01*
X85122222Y-163997009D01*
X85152774Y-163959781D01*
X85234814Y-163859814D01*
X85346412Y-163768229D01*
X85372009Y-163747222D01*
X85528534Y-163663557D01*
X85698373Y-163612037D01*
X85764557Y-163605519D01*
X85830740Y-163599000D01*
X86169260Y-163599000D01*
X86235443Y-163605519D01*
G37*
G36*
X54488228Y-162701703D02*
G01*
X54643100Y-162765853D01*
X54782481Y-162858985D01*
X54901015Y-162977519D01*
X54994147Y-163116900D01*
X55058297Y-163271772D01*
X55091000Y-163436184D01*
X55091000Y-163603816D01*
X55058297Y-163768228D01*
X54994147Y-163923100D01*
X54901015Y-164062481D01*
X54782481Y-164181015D01*
X54643100Y-164274147D01*
X54488228Y-164338297D01*
X54323816Y-164371000D01*
X54156184Y-164371000D01*
X53991772Y-164338297D01*
X53836900Y-164274147D01*
X53697519Y-164181015D01*
X53578985Y-164062481D01*
X53485853Y-163923100D01*
X53421703Y-163768228D01*
X53389000Y-163603816D01*
X53389000Y-163436184D01*
X53421703Y-163271772D01*
X53485853Y-163116900D01*
X53578985Y-162977519D01*
X53697519Y-162858985D01*
X53836900Y-162765853D01*
X53991772Y-162701703D01*
X54156184Y-162669000D01*
X54323816Y-162669000D01*
X54488228Y-162701703D01*
G37*
G36*
X39248228Y-162701703D02*
G01*
X39403100Y-162765853D01*
X39542481Y-162858985D01*
X39661015Y-162977519D01*
X39754147Y-163116900D01*
X39818297Y-163271772D01*
X39851000Y-163436184D01*
X39851000Y-163603816D01*
X39818297Y-163768228D01*
X39754147Y-163923100D01*
X39661015Y-164062481D01*
X39542481Y-164181015D01*
X39403100Y-164274147D01*
X39248228Y-164338297D01*
X39083816Y-164371000D01*
X38916184Y-164371000D01*
X38751772Y-164338297D01*
X38596900Y-164274147D01*
X38457519Y-164181015D01*
X38338985Y-164062481D01*
X38245853Y-163923100D01*
X38181703Y-163768228D01*
X38149000Y-163603816D01*
X38149000Y-163436184D01*
X38181703Y-163271772D01*
X38245853Y-163116900D01*
X38338985Y-162977519D01*
X38457519Y-162858985D01*
X38596900Y-162765853D01*
X38751772Y-162701703D01*
X38916184Y-162669000D01*
X39083816Y-162669000D01*
X39248228Y-162701703D01*
G37*
G36*
X64056971Y-159706204D02*
G01*
X64218871Y-159738408D01*
X64523883Y-159864748D01*
X64798387Y-160048166D01*
X65031834Y-160281613D01*
X65215252Y-160556117D01*
X65341592Y-160861129D01*
X65341592Y-160861130D01*
X65406000Y-161184927D01*
X65406000Y-161515073D01*
X65404526Y-161522481D01*
X65341592Y-161838871D01*
X65215252Y-162143883D01*
X65031834Y-162418387D01*
X64798387Y-162651834D01*
X64523883Y-162835252D01*
X64218871Y-162961592D01*
X63895073Y-163026000D01*
X63564927Y-163026000D01*
X63241129Y-162961592D01*
X62936117Y-162835252D01*
X62661613Y-162651834D01*
X62428166Y-162418387D01*
X62244748Y-162143883D01*
X62118408Y-161838871D01*
X62055474Y-161522481D01*
X62054000Y-161515073D01*
X62054000Y-161184927D01*
X62118408Y-160861130D01*
X62118408Y-160861129D01*
X62244748Y-160556117D01*
X62428166Y-160281613D01*
X62661613Y-160048166D01*
X62936117Y-159864748D01*
X63241129Y-159738408D01*
X63403029Y-159706204D01*
X63564927Y-159674000D01*
X63895073Y-159674000D01*
X64056971Y-159706204D01*
G37*
G36*
X75486971Y-159706204D02*
G01*
X75648871Y-159738408D01*
X75953883Y-159864748D01*
X76228387Y-160048166D01*
X76461834Y-160281613D01*
X76645252Y-160556117D01*
X76771592Y-160861129D01*
X76771592Y-160861130D01*
X76836000Y-161184927D01*
X76836000Y-161515073D01*
X76834526Y-161522481D01*
X76771592Y-161838871D01*
X76645252Y-162143883D01*
X76461834Y-162418387D01*
X76228387Y-162651834D01*
X75953883Y-162835252D01*
X75648871Y-162961592D01*
X75325073Y-163026000D01*
X74994927Y-163026000D01*
X74671129Y-162961592D01*
X74366117Y-162835252D01*
X74091613Y-162651834D01*
X73858166Y-162418387D01*
X73674748Y-162143883D01*
X73548408Y-161838871D01*
X73485474Y-161522481D01*
X73484000Y-161515073D01*
X73484000Y-161184927D01*
X73548408Y-160861130D01*
X73548408Y-160861129D01*
X73674748Y-160556117D01*
X73858166Y-160281613D01*
X74091613Y-160048166D01*
X74366117Y-159864748D01*
X74671129Y-159738408D01*
X74833029Y-159706204D01*
X74994927Y-159674000D01*
X75325073Y-159674000D01*
X75486971Y-159706204D01*
G37*
G36*
X86235443Y-161105519D02*
G01*
X86301627Y-161112037D01*
X86471466Y-161163557D01*
X86627991Y-161247222D01*
X86663729Y-161276552D01*
X86765186Y-161359814D01*
X86848448Y-161461271D01*
X86877778Y-161497009D01*
X86961443Y-161653534D01*
X87012963Y-161823373D01*
X87030359Y-162000000D01*
X87012963Y-162176627D01*
X86961443Y-162346466D01*
X86877778Y-162502991D01*
X86848448Y-162538729D01*
X86765186Y-162640186D01*
X86663729Y-162723448D01*
X86627991Y-162752778D01*
X86471466Y-162836443D01*
X86301627Y-162887963D01*
X86235443Y-162894481D01*
X86169260Y-162901000D01*
X85830740Y-162901000D01*
X85764557Y-162894481D01*
X85698373Y-162887963D01*
X85528534Y-162836443D01*
X85372009Y-162752778D01*
X85336271Y-162723448D01*
X85234814Y-162640186D01*
X85151552Y-162538729D01*
X85122222Y-162502991D01*
X85038557Y-162346466D01*
X84987037Y-162176627D01*
X84969641Y-162000000D01*
X84987037Y-161823373D01*
X85038557Y-161653534D01*
X85122222Y-161497009D01*
X85151552Y-161461271D01*
X85234814Y-161359814D01*
X85336271Y-161276552D01*
X85372009Y-161247222D01*
X85528534Y-161163557D01*
X85698373Y-161112037D01*
X85764557Y-161105519D01*
X85830740Y-161099000D01*
X86169260Y-161099000D01*
X86235443Y-161105519D01*
G37*
G36*
X39248228Y-160161703D02*
G01*
X39403100Y-160225853D01*
X39542481Y-160318985D01*
X39661015Y-160437519D01*
X39754147Y-160576900D01*
X39818297Y-160731772D01*
X39851000Y-160896184D01*
X39851000Y-161063816D01*
X39818297Y-161228228D01*
X39754147Y-161383100D01*
X39661015Y-161522481D01*
X39542481Y-161641015D01*
X39403100Y-161734147D01*
X39248228Y-161798297D01*
X39083816Y-161831000D01*
X38916184Y-161831000D01*
X38751772Y-161798297D01*
X38596900Y-161734147D01*
X38457519Y-161641015D01*
X38338985Y-161522481D01*
X38245853Y-161383100D01*
X38181703Y-161228228D01*
X38149000Y-161063816D01*
X38149000Y-160896184D01*
X38181703Y-160731772D01*
X38245853Y-160576900D01*
X38338985Y-160437519D01*
X38457519Y-160318985D01*
X38596900Y-160225853D01*
X38751772Y-160161703D01*
X38916184Y-160129000D01*
X39083816Y-160129000D01*
X39248228Y-160161703D01*
G37*
G36*
X54488228Y-160161703D02*
G01*
X54643100Y-160225853D01*
X54782481Y-160318985D01*
X54901015Y-160437519D01*
X54994147Y-160576900D01*
X55058297Y-160731772D01*
X55091000Y-160896184D01*
X55091000Y-161063816D01*
X55058297Y-161228228D01*
X54994147Y-161383100D01*
X54901015Y-161522481D01*
X54782481Y-161641015D01*
X54643100Y-161734147D01*
X54488228Y-161798297D01*
X54323816Y-161831000D01*
X54156184Y-161831000D01*
X53991772Y-161798297D01*
X53836900Y-161734147D01*
X53697519Y-161641015D01*
X53578985Y-161522481D01*
X53485853Y-161383100D01*
X53421703Y-161228228D01*
X53389000Y-161063816D01*
X53389000Y-160896184D01*
X53421703Y-160731772D01*
X53485853Y-160576900D01*
X53578985Y-160437519D01*
X53697519Y-160318985D01*
X53836900Y-160225853D01*
X53991772Y-160161703D01*
X54156184Y-160129000D01*
X54323816Y-160129000D01*
X54488228Y-160161703D01*
G37*
G36*
X86235442Y-158605518D02*
G01*
X86301627Y-158612037D01*
X86471466Y-158663557D01*
X86627991Y-158747222D01*
X86663729Y-158776552D01*
X86765186Y-158859814D01*
X86848448Y-158961271D01*
X86877778Y-158997009D01*
X86961443Y-159153534D01*
X87012963Y-159323373D01*
X87030359Y-159500000D01*
X87012963Y-159676627D01*
X86961443Y-159846466D01*
X86877778Y-160002991D01*
X86848448Y-160038729D01*
X86765186Y-160140186D01*
X86663729Y-160223448D01*
X86627991Y-160252778D01*
X86471466Y-160336443D01*
X86301627Y-160387963D01*
X86235443Y-160394481D01*
X86169260Y-160401000D01*
X85830740Y-160401000D01*
X85764557Y-160394481D01*
X85698373Y-160387963D01*
X85528534Y-160336443D01*
X85372009Y-160252778D01*
X85336271Y-160223448D01*
X85234814Y-160140186D01*
X85151552Y-160038729D01*
X85122222Y-160002991D01*
X85038557Y-159846466D01*
X84987037Y-159676627D01*
X84969641Y-159500000D01*
X84987037Y-159323373D01*
X85038557Y-159153534D01*
X85122222Y-158997009D01*
X85151552Y-158961271D01*
X85234814Y-158859814D01*
X85336271Y-158776552D01*
X85372009Y-158747222D01*
X85528534Y-158663557D01*
X85698373Y-158612037D01*
X85764558Y-158605518D01*
X85830740Y-158599000D01*
X86169260Y-158599000D01*
X86235442Y-158605518D01*
G37*
G36*
X77699487Y-157048996D02*
G01*
X77936253Y-157147068D01*
X77936255Y-157147069D01*
X78149339Y-157289447D01*
X78330553Y-157470661D01*
X78472932Y-157683747D01*
X78571004Y-157920513D01*
X78621000Y-158171861D01*
X78621000Y-158428139D01*
X78571004Y-158679487D01*
X78542947Y-158747222D01*
X78472931Y-158916255D01*
X78330553Y-159129339D01*
X78149339Y-159310553D01*
X77936255Y-159452931D01*
X77936254Y-159452932D01*
X77936253Y-159452932D01*
X77699487Y-159551004D01*
X77448139Y-159601000D01*
X77191861Y-159601000D01*
X76940513Y-159551004D01*
X76703747Y-159452932D01*
X76703746Y-159452932D01*
X76703745Y-159452931D01*
X76490661Y-159310553D01*
X76309447Y-159129339D01*
X76167069Y-158916255D01*
X76097053Y-158747222D01*
X76068996Y-158679487D01*
X76019000Y-158428139D01*
X76019000Y-158171861D01*
X76068996Y-157920513D01*
X76167068Y-157683747D01*
X76309447Y-157470661D01*
X76490661Y-157289447D01*
X76703745Y-157147069D01*
X76703747Y-157147068D01*
X76940513Y-157048996D01*
X77191861Y-156999000D01*
X77448139Y-156999000D01*
X77699487Y-157048996D01*
G37*
G36*
X61949487Y-157048996D02*
G01*
X62186253Y-157147068D01*
X62186255Y-157147069D01*
X62399339Y-157289447D01*
X62580553Y-157470661D01*
X62722932Y-157683747D01*
X62821004Y-157920513D01*
X62871000Y-158171861D01*
X62871000Y-158428139D01*
X62821004Y-158679487D01*
X62792947Y-158747222D01*
X62722931Y-158916255D01*
X62580553Y-159129339D01*
X62399339Y-159310553D01*
X62186255Y-159452931D01*
X62186254Y-159452932D01*
X62186253Y-159452932D01*
X61949487Y-159551004D01*
X61698139Y-159601000D01*
X61441861Y-159601000D01*
X61190513Y-159551004D01*
X60953747Y-159452932D01*
X60953746Y-159452932D01*
X60953745Y-159452931D01*
X60740661Y-159310553D01*
X60559447Y-159129339D01*
X60417069Y-158916255D01*
X60347053Y-158747222D01*
X60318996Y-158679487D01*
X60269000Y-158428139D01*
X60269000Y-158171861D01*
X60318996Y-157920513D01*
X60417068Y-157683747D01*
X60559447Y-157470661D01*
X60740661Y-157289447D01*
X60953745Y-157147069D01*
X60953747Y-157147068D01*
X61190513Y-157048996D01*
X61441861Y-156999000D01*
X61698139Y-156999000D01*
X61949487Y-157048996D01*
G37*
G36*
X54488228Y-157621703D02*
G01*
X54643100Y-157685853D01*
X54782481Y-157778985D01*
X54901015Y-157897519D01*
X54994147Y-158036900D01*
X55058297Y-158191772D01*
X55091000Y-158356184D01*
X55091000Y-158523816D01*
X55058297Y-158688228D01*
X54994147Y-158843100D01*
X54901015Y-158982481D01*
X54782481Y-159101015D01*
X54643100Y-159194147D01*
X54488228Y-159258297D01*
X54323816Y-159291000D01*
X54156184Y-159291000D01*
X53991772Y-159258297D01*
X53836900Y-159194147D01*
X53697519Y-159101015D01*
X53578985Y-158982481D01*
X53485853Y-158843100D01*
X53421703Y-158688228D01*
X53389000Y-158523816D01*
X53389000Y-158356184D01*
X53421703Y-158191772D01*
X53485853Y-158036900D01*
X53578985Y-157897519D01*
X53697519Y-157778985D01*
X53836900Y-157685853D01*
X53991772Y-157621703D01*
X54156184Y-157589000D01*
X54323816Y-157589000D01*
X54488228Y-157621703D01*
G37*
G36*
X39248228Y-157621703D02*
G01*
X39403100Y-157685853D01*
X39542481Y-157778985D01*
X39661015Y-157897519D01*
X39754147Y-158036900D01*
X39818297Y-158191772D01*
X39851000Y-158356184D01*
X39851000Y-158523816D01*
X39818297Y-158688228D01*
X39754147Y-158843100D01*
X39661015Y-158982481D01*
X39542481Y-159101015D01*
X39403100Y-159194147D01*
X39248228Y-159258297D01*
X39083816Y-159291000D01*
X38916184Y-159291000D01*
X38751772Y-159258297D01*
X38596900Y-159194147D01*
X38457519Y-159101015D01*
X38338985Y-158982481D01*
X38245853Y-158843100D01*
X38181703Y-158688228D01*
X38149000Y-158523816D01*
X38149000Y-158356184D01*
X38181703Y-158191772D01*
X38245853Y-158036900D01*
X38338985Y-157897519D01*
X38457519Y-157778985D01*
X38596900Y-157685853D01*
X38751772Y-157621703D01*
X38916184Y-157589000D01*
X39083816Y-157589000D01*
X39248228Y-157621703D01*
G37*
G36*
X54488228Y-155081703D02*
G01*
X54643100Y-155145853D01*
X54782481Y-155238985D01*
X54901015Y-155357519D01*
X54994147Y-155496900D01*
X55058297Y-155651772D01*
X55091000Y-155816184D01*
X55091000Y-155983816D01*
X55058297Y-156148228D01*
X54994147Y-156303100D01*
X54901015Y-156442481D01*
X54782481Y-156561015D01*
X54643100Y-156654147D01*
X54488228Y-156718297D01*
X54323816Y-156751000D01*
X54156184Y-156751000D01*
X53991772Y-156718297D01*
X53836900Y-156654147D01*
X53697519Y-156561015D01*
X53578985Y-156442481D01*
X53485853Y-156303100D01*
X53421703Y-156148228D01*
X53389000Y-155983816D01*
X53389000Y-155816184D01*
X53421703Y-155651772D01*
X53485853Y-155496900D01*
X53578985Y-155357519D01*
X53697519Y-155238985D01*
X53836900Y-155145853D01*
X53991772Y-155081703D01*
X54156184Y-155049000D01*
X54323816Y-155049000D01*
X54488228Y-155081703D01*
G37*
G36*
X39248228Y-155081703D02*
G01*
X39403100Y-155145853D01*
X39542481Y-155238985D01*
X39661015Y-155357519D01*
X39754147Y-155496900D01*
X39818297Y-155651772D01*
X39851000Y-155816184D01*
X39851000Y-155983816D01*
X39818297Y-156148228D01*
X39754147Y-156303100D01*
X39661015Y-156442481D01*
X39542481Y-156561015D01*
X39403100Y-156654147D01*
X39248228Y-156718297D01*
X39083816Y-156751000D01*
X38916184Y-156751000D01*
X38751772Y-156718297D01*
X38596900Y-156654147D01*
X38457519Y-156561015D01*
X38338985Y-156442481D01*
X38245853Y-156303100D01*
X38181703Y-156148228D01*
X38149000Y-155983816D01*
X38149000Y-155816184D01*
X38181703Y-155651772D01*
X38245853Y-155496900D01*
X38338985Y-155357519D01*
X38457519Y-155238985D01*
X38596900Y-155145853D01*
X38751772Y-155081703D01*
X38916184Y-155049000D01*
X39083816Y-155049000D01*
X39248228Y-155081703D01*
G37*
G36*
X72853642Y-154229781D02*
G01*
X72977872Y-154281239D01*
X72999416Y-154290163D01*
X73130608Y-154377822D01*
X73242178Y-154489392D01*
X73329837Y-154620584D01*
X73329838Y-154620586D01*
X73390219Y-154766358D01*
X73421000Y-154921107D01*
X73421000Y-155078893D01*
X73390219Y-155233642D01*
X73338907Y-155357519D01*
X73329837Y-155379416D01*
X73242178Y-155510608D01*
X73130608Y-155622178D01*
X72999416Y-155709837D01*
X72999415Y-155709838D01*
X72999414Y-155709838D01*
X72853642Y-155770219D01*
X72698893Y-155801000D01*
X72541107Y-155801000D01*
X72386358Y-155770219D01*
X72240586Y-155709838D01*
X72240585Y-155709838D01*
X72240584Y-155709837D01*
X72109392Y-155622178D01*
X71997822Y-155510608D01*
X71910163Y-155379416D01*
X71901093Y-155357519D01*
X71849781Y-155233642D01*
X71819000Y-155078893D01*
X71819000Y-154921107D01*
X71849781Y-154766358D01*
X71910162Y-154620586D01*
X71910163Y-154620584D01*
X71997822Y-154489392D01*
X72109392Y-154377822D01*
X72240584Y-154290163D01*
X72262128Y-154281239D01*
X72386358Y-154229781D01*
X72541107Y-154199000D01*
X72698893Y-154199000D01*
X72853642Y-154229781D01*
G37*
G36*
X70313642Y-154229781D02*
G01*
X70437872Y-154281239D01*
X70459416Y-154290163D01*
X70590608Y-154377822D01*
X70702178Y-154489392D01*
X70789837Y-154620584D01*
X70789838Y-154620586D01*
X70850219Y-154766358D01*
X70881000Y-154921107D01*
X70881000Y-155078893D01*
X70850219Y-155233642D01*
X70798907Y-155357519D01*
X70789837Y-155379416D01*
X70702178Y-155510608D01*
X70590608Y-155622178D01*
X70459416Y-155709837D01*
X70459415Y-155709838D01*
X70459414Y-155709838D01*
X70313642Y-155770219D01*
X70158893Y-155801000D01*
X70001107Y-155801000D01*
X69846358Y-155770219D01*
X69700586Y-155709838D01*
X69700585Y-155709838D01*
X69700584Y-155709837D01*
X69569392Y-155622178D01*
X69457822Y-155510608D01*
X69370163Y-155379416D01*
X69361093Y-155357519D01*
X69309781Y-155233642D01*
X69279000Y-155078893D01*
X69279000Y-154921107D01*
X69309781Y-154766358D01*
X69370162Y-154620586D01*
X69370163Y-154620584D01*
X69457822Y-154489392D01*
X69569392Y-154377822D01*
X69700584Y-154290163D01*
X69722128Y-154281239D01*
X69846358Y-154229781D01*
X70001107Y-154199000D01*
X70158893Y-154199000D01*
X70313642Y-154229781D01*
G37*
G36*
X67773642Y-154229781D02*
G01*
X67897872Y-154281239D01*
X67919416Y-154290163D01*
X68050608Y-154377822D01*
X68162178Y-154489392D01*
X68249837Y-154620584D01*
X68249838Y-154620586D01*
X68310219Y-154766358D01*
X68341000Y-154921107D01*
X68341000Y-155078893D01*
X68310219Y-155233642D01*
X68258907Y-155357519D01*
X68249837Y-155379416D01*
X68162178Y-155510608D01*
X68050608Y-155622178D01*
X67919416Y-155709837D01*
X67919415Y-155709838D01*
X67919414Y-155709838D01*
X67773642Y-155770219D01*
X67618893Y-155801000D01*
X67461107Y-155801000D01*
X67306358Y-155770219D01*
X67160586Y-155709838D01*
X67160585Y-155709838D01*
X67160584Y-155709837D01*
X67029392Y-155622178D01*
X66917822Y-155510608D01*
X66830163Y-155379416D01*
X66821093Y-155357519D01*
X66769781Y-155233642D01*
X66739000Y-155078893D01*
X66739000Y-154921107D01*
X66769781Y-154766358D01*
X66830162Y-154620586D01*
X66830163Y-154620584D01*
X66917822Y-154489392D01*
X67029392Y-154377822D01*
X67160584Y-154290163D01*
X67182128Y-154281239D01*
X67306358Y-154229781D01*
X67461107Y-154199000D01*
X67618893Y-154199000D01*
X67773642Y-154229781D01*
G37*
G36*
X65652546Y-154203134D02*
G01*
X65687010Y-154213589D01*
X65718761Y-154230560D01*
X65746597Y-154253403D01*
X65769440Y-154281239D01*
X65786411Y-154312990D01*
X65796866Y-154347454D01*
X65801000Y-154389425D01*
X65801000Y-155610575D01*
X65796866Y-155652546D01*
X65786411Y-155687010D01*
X65769440Y-155718761D01*
X65746597Y-155746597D01*
X65718761Y-155769440D01*
X65687010Y-155786411D01*
X65652546Y-155796866D01*
X65610575Y-155801000D01*
X64389425Y-155801000D01*
X64347454Y-155796866D01*
X64312990Y-155786411D01*
X64281239Y-155769440D01*
X64253403Y-155746597D01*
X64230560Y-155718761D01*
X64213589Y-155687010D01*
X64203134Y-155652546D01*
X64199000Y-155610575D01*
X64199000Y-154389425D01*
X64203134Y-154347454D01*
X64213589Y-154312990D01*
X64230560Y-154281239D01*
X64253403Y-154253403D01*
X64281239Y-154230560D01*
X64312990Y-154213589D01*
X64347454Y-154203134D01*
X64389425Y-154199000D01*
X65610575Y-154199000D01*
X65652546Y-154203134D01*
G37*
G36*
X39248228Y-152541703D02*
G01*
X39403100Y-152605853D01*
X39542481Y-152698985D01*
X39661015Y-152817519D01*
X39754147Y-152956900D01*
X39818297Y-153111772D01*
X39851000Y-153276184D01*
X39851000Y-153443816D01*
X39818297Y-153608228D01*
X39754147Y-153763100D01*
X39661015Y-153902481D01*
X39542481Y-154021015D01*
X39403100Y-154114147D01*
X39248228Y-154178297D01*
X39083816Y-154211000D01*
X38916184Y-154211000D01*
X38751772Y-154178297D01*
X38596900Y-154114147D01*
X38457519Y-154021015D01*
X38338985Y-153902481D01*
X38245853Y-153763100D01*
X38181703Y-153608228D01*
X38149000Y-153443816D01*
X38149000Y-153276184D01*
X38181703Y-153111772D01*
X38245853Y-152956900D01*
X38338985Y-152817519D01*
X38457519Y-152698985D01*
X38596900Y-152605853D01*
X38751772Y-152541703D01*
X38916184Y-152509000D01*
X39083816Y-152509000D01*
X39248228Y-152541703D01*
G37*
G36*
X54488228Y-152541703D02*
G01*
X54643100Y-152605853D01*
X54782481Y-152698985D01*
X54901015Y-152817519D01*
X54994147Y-152956900D01*
X55058297Y-153111772D01*
X55091000Y-153276184D01*
X55091000Y-153443816D01*
X55058297Y-153608228D01*
X54994147Y-153763100D01*
X54901015Y-153902481D01*
X54782481Y-154021015D01*
X54643100Y-154114147D01*
X54488228Y-154178297D01*
X54323816Y-154211000D01*
X54156184Y-154211000D01*
X53991772Y-154178297D01*
X53836900Y-154114147D01*
X53697519Y-154021015D01*
X53578985Y-153902481D01*
X53485853Y-153763100D01*
X53421703Y-153608228D01*
X53389000Y-153443816D01*
X53389000Y-153276184D01*
X53421703Y-153111772D01*
X53485853Y-152956900D01*
X53578985Y-152817519D01*
X53697519Y-152698985D01*
X53836900Y-152605853D01*
X53991772Y-152541703D01*
X54156184Y-152509000D01*
X54323816Y-152509000D01*
X54488228Y-152541703D01*
G37*
G36*
X69043642Y-151689781D02*
G01*
X69189414Y-151750162D01*
X69189416Y-151750163D01*
X69320608Y-151837822D01*
X69432178Y-151949392D01*
X69519837Y-152080584D01*
X69519838Y-152080586D01*
X69580219Y-152226358D01*
X69611000Y-152381107D01*
X69611000Y-152538893D01*
X69580219Y-152693642D01*
X69528907Y-152817519D01*
X69519837Y-152839416D01*
X69432178Y-152970608D01*
X69320608Y-153082178D01*
X69189416Y-153169837D01*
X69189415Y-153169838D01*
X69189414Y-153169838D01*
X69043642Y-153230219D01*
X68888893Y-153261000D01*
X68731107Y-153261000D01*
X68576358Y-153230219D01*
X68430586Y-153169838D01*
X68430585Y-153169838D01*
X68430584Y-153169837D01*
X68299392Y-153082178D01*
X68187822Y-152970608D01*
X68100163Y-152839416D01*
X68091093Y-152817519D01*
X68039781Y-152693642D01*
X68009000Y-152538893D01*
X68009000Y-152381107D01*
X68039781Y-152226358D01*
X68100162Y-152080586D01*
X68100163Y-152080584D01*
X68187822Y-151949392D01*
X68299392Y-151837822D01*
X68430584Y-151750163D01*
X68430586Y-151750162D01*
X68576358Y-151689781D01*
X68731107Y-151659000D01*
X68888893Y-151659000D01*
X69043642Y-151689781D01*
G37*
G36*
X66503642Y-151689781D02*
G01*
X66649414Y-151750162D01*
X66649416Y-151750163D01*
X66780608Y-151837822D01*
X66892178Y-151949392D01*
X66979837Y-152080584D01*
X66979838Y-152080586D01*
X67040219Y-152226358D01*
X67071000Y-152381107D01*
X67071000Y-152538893D01*
X67040219Y-152693642D01*
X66988907Y-152817519D01*
X66979837Y-152839416D01*
X66892178Y-152970608D01*
X66780608Y-153082178D01*
X66649416Y-153169837D01*
X66649415Y-153169838D01*
X66649414Y-153169838D01*
X66503642Y-153230219D01*
X66348893Y-153261000D01*
X66191107Y-153261000D01*
X66036358Y-153230219D01*
X65890586Y-153169838D01*
X65890585Y-153169838D01*
X65890584Y-153169837D01*
X65759392Y-153082178D01*
X65647822Y-152970608D01*
X65560163Y-152839416D01*
X65551093Y-152817519D01*
X65499781Y-152693642D01*
X65469000Y-152538893D01*
X65469000Y-152381107D01*
X65499781Y-152226358D01*
X65560162Y-152080586D01*
X65560163Y-152080584D01*
X65647822Y-151949392D01*
X65759392Y-151837822D01*
X65890584Y-151750163D01*
X65890586Y-151750162D01*
X66036358Y-151689781D01*
X66191107Y-151659000D01*
X66348893Y-151659000D01*
X66503642Y-151689781D01*
G37*
G36*
X71583642Y-151689781D02*
G01*
X71729414Y-151750162D01*
X71729416Y-151750163D01*
X71860608Y-151837822D01*
X71972178Y-151949392D01*
X72059837Y-152080584D01*
X72059838Y-152080586D01*
X72120219Y-152226358D01*
X72151000Y-152381107D01*
X72151000Y-152538893D01*
X72120219Y-152693642D01*
X72068907Y-152817519D01*
X72059837Y-152839416D01*
X71972178Y-152970608D01*
X71860608Y-153082178D01*
X71729416Y-153169837D01*
X71729415Y-153169838D01*
X71729414Y-153169838D01*
X71583642Y-153230219D01*
X71428893Y-153261000D01*
X71271107Y-153261000D01*
X71116358Y-153230219D01*
X70970586Y-153169838D01*
X70970585Y-153169838D01*
X70970584Y-153169837D01*
X70839392Y-153082178D01*
X70727822Y-152970608D01*
X70640163Y-152839416D01*
X70631093Y-152817519D01*
X70579781Y-152693642D01*
X70549000Y-152538893D01*
X70549000Y-152381107D01*
X70579781Y-152226358D01*
X70640162Y-152080586D01*
X70640163Y-152080584D01*
X70727822Y-151949392D01*
X70839392Y-151837822D01*
X70970584Y-151750163D01*
X70970586Y-151750162D01*
X71116358Y-151689781D01*
X71271107Y-151659000D01*
X71428893Y-151659000D01*
X71583642Y-151689781D01*
G37*
G36*
X74123642Y-151689781D02*
G01*
X74269414Y-151750162D01*
X74269416Y-151750163D01*
X74400608Y-151837822D01*
X74512178Y-151949392D01*
X74599837Y-152080584D01*
X74599838Y-152080586D01*
X74660219Y-152226358D01*
X74691000Y-152381107D01*
X74691000Y-152538893D01*
X74660219Y-152693642D01*
X74608907Y-152817519D01*
X74599837Y-152839416D01*
X74512178Y-152970608D01*
X74400608Y-153082178D01*
X74269416Y-153169837D01*
X74269415Y-153169838D01*
X74269414Y-153169838D01*
X74123642Y-153230219D01*
X73968893Y-153261000D01*
X73811107Y-153261000D01*
X73656358Y-153230219D01*
X73510586Y-153169838D01*
X73510585Y-153169838D01*
X73510584Y-153169837D01*
X73379392Y-153082178D01*
X73267822Y-152970608D01*
X73180163Y-152839416D01*
X73171093Y-152817519D01*
X73119781Y-152693642D01*
X73089000Y-152538893D01*
X73089000Y-152381107D01*
X73119781Y-152226358D01*
X73180162Y-152080586D01*
X73180163Y-152080584D01*
X73267822Y-151949392D01*
X73379392Y-151837822D01*
X73510584Y-151750163D01*
X73510586Y-151750162D01*
X73656358Y-151689781D01*
X73811107Y-151659000D01*
X73968893Y-151659000D01*
X74123642Y-151689781D01*
G37*
G36*
X86883600Y-151102989D02*
G01*
X86916652Y-151113015D01*
X86947103Y-151129292D01*
X86973799Y-151151201D01*
X86995708Y-151177897D01*
X87011985Y-151208348D01*
X87022011Y-151241400D01*
X87026000Y-151281903D01*
X87026000Y-152718097D01*
X87022011Y-152758600D01*
X87011985Y-152791652D01*
X86995708Y-152822103D01*
X86973799Y-152848799D01*
X86947103Y-152870708D01*
X86916652Y-152886985D01*
X86883600Y-152897011D01*
X86843097Y-152901000D01*
X85156903Y-152901000D01*
X85116400Y-152897011D01*
X85083348Y-152886985D01*
X85052897Y-152870708D01*
X85026201Y-152848799D01*
X85004292Y-152822103D01*
X84988015Y-152791652D01*
X84977989Y-152758600D01*
X84974000Y-152718097D01*
X84974000Y-151281903D01*
X84977989Y-151241400D01*
X84988015Y-151208348D01*
X85004292Y-151177897D01*
X85026201Y-151151201D01*
X85052897Y-151129292D01*
X85083348Y-151113015D01*
X85116400Y-151102989D01*
X85156903Y-151099000D01*
X86843097Y-151099000D01*
X86883600Y-151102989D01*
G37*
G36*
X39248228Y-150001703D02*
G01*
X39403100Y-150065853D01*
X39542481Y-150158985D01*
X39661015Y-150277519D01*
X39754147Y-150416900D01*
X39818297Y-150571772D01*
X39851000Y-150736184D01*
X39851000Y-150903816D01*
X39818297Y-151068228D01*
X39754147Y-151223100D01*
X39661015Y-151362481D01*
X39542481Y-151481015D01*
X39403100Y-151574147D01*
X39248228Y-151638297D01*
X39083816Y-151671000D01*
X38916184Y-151671000D01*
X38751772Y-151638297D01*
X38596900Y-151574147D01*
X38457519Y-151481015D01*
X38338985Y-151362481D01*
X38245853Y-151223100D01*
X38181703Y-151068228D01*
X38149000Y-150903816D01*
X38149000Y-150736184D01*
X38181703Y-150571772D01*
X38245853Y-150416900D01*
X38338985Y-150277519D01*
X38457519Y-150158985D01*
X38596900Y-150065853D01*
X38751772Y-150001703D01*
X38916184Y-149969000D01*
X39083816Y-149969000D01*
X39248228Y-150001703D01*
G37*
G36*
X54488228Y-150001703D02*
G01*
X54643100Y-150065853D01*
X54782481Y-150158985D01*
X54901015Y-150277519D01*
X54994147Y-150416900D01*
X55058297Y-150571772D01*
X55091000Y-150736184D01*
X55091000Y-150903816D01*
X55058297Y-151068228D01*
X54994147Y-151223100D01*
X54901015Y-151362481D01*
X54782481Y-151481015D01*
X54643100Y-151574147D01*
X54488228Y-151638297D01*
X54323816Y-151671000D01*
X54156184Y-151671000D01*
X53991772Y-151638297D01*
X53836900Y-151574147D01*
X53697519Y-151481015D01*
X53578985Y-151362481D01*
X53485853Y-151223100D01*
X53421703Y-151068228D01*
X53389000Y-150903816D01*
X53389000Y-150736184D01*
X53421703Y-150571772D01*
X53485853Y-150416900D01*
X53578985Y-150277519D01*
X53697519Y-150158985D01*
X53836900Y-150065853D01*
X53991772Y-150001703D01*
X54156184Y-149969000D01*
X54323816Y-149969000D01*
X54488228Y-150001703D01*
G37*
G36*
X86235442Y-148605518D02*
G01*
X86301627Y-148612037D01*
X86471466Y-148663557D01*
X86471468Y-148663558D01*
X86508028Y-148683100D01*
X86627991Y-148747222D01*
X86663729Y-148776552D01*
X86765186Y-148859814D01*
X86831825Y-148941015D01*
X86877778Y-148997009D01*
X86961443Y-149153534D01*
X87012963Y-149323373D01*
X87030359Y-149500000D01*
X87012963Y-149676627D01*
X86961443Y-149846466D01*
X86877778Y-150002991D01*
X86848448Y-150038729D01*
X86765186Y-150140186D01*
X86663729Y-150223448D01*
X86627991Y-150252778D01*
X86471466Y-150336443D01*
X86301627Y-150387963D01*
X86235443Y-150394481D01*
X86169260Y-150401000D01*
X85830740Y-150401000D01*
X85764557Y-150394481D01*
X85698373Y-150387963D01*
X85528534Y-150336443D01*
X85372009Y-150252778D01*
X85336271Y-150223448D01*
X85234814Y-150140186D01*
X85151552Y-150038729D01*
X85122222Y-150002991D01*
X85038557Y-149846466D01*
X84987037Y-149676627D01*
X84969641Y-149500000D01*
X84987037Y-149323373D01*
X85038557Y-149153534D01*
X85122222Y-148997009D01*
X85168175Y-148941015D01*
X85234814Y-148859814D01*
X85336271Y-148776552D01*
X85372009Y-148747222D01*
X85491972Y-148683100D01*
X85528532Y-148663558D01*
X85528534Y-148663557D01*
X85698373Y-148612037D01*
X85764558Y-148605518D01*
X85830740Y-148599000D01*
X86169260Y-148599000D01*
X86235442Y-148605518D01*
G37*
G36*
X54488228Y-147461703D02*
G01*
X54643100Y-147525853D01*
X54782481Y-147618985D01*
X54901015Y-147737519D01*
X54994147Y-147876900D01*
X55058297Y-148031772D01*
X55091000Y-148196184D01*
X55091000Y-148363816D01*
X55058297Y-148528228D01*
X54994147Y-148683100D01*
X54901015Y-148822481D01*
X54782481Y-148941015D01*
X54643100Y-149034147D01*
X54488228Y-149098297D01*
X54323816Y-149131000D01*
X54156184Y-149131000D01*
X53991772Y-149098297D01*
X53836900Y-149034147D01*
X53697519Y-148941015D01*
X53578985Y-148822481D01*
X53485853Y-148683100D01*
X53421703Y-148528228D01*
X53389000Y-148363816D01*
X53389000Y-148196184D01*
X53421703Y-148031772D01*
X53485853Y-147876900D01*
X53578985Y-147737519D01*
X53697519Y-147618985D01*
X53836900Y-147525853D01*
X53991772Y-147461703D01*
X54156184Y-147429000D01*
X54323816Y-147429000D01*
X54488228Y-147461703D01*
G37*
G36*
X39248228Y-147461703D02*
G01*
X39403100Y-147525853D01*
X39542481Y-147618985D01*
X39661015Y-147737519D01*
X39754147Y-147876900D01*
X39818297Y-148031772D01*
X39851000Y-148196184D01*
X39851000Y-148363816D01*
X39818297Y-148528228D01*
X39754147Y-148683100D01*
X39661015Y-148822481D01*
X39542481Y-148941015D01*
X39403100Y-149034147D01*
X39248228Y-149098297D01*
X39083816Y-149131000D01*
X38916184Y-149131000D01*
X38751772Y-149098297D01*
X38596900Y-149034147D01*
X38457519Y-148941015D01*
X38338985Y-148822481D01*
X38245853Y-148683100D01*
X38181703Y-148528228D01*
X38149000Y-148363816D01*
X38149000Y-148196184D01*
X38181703Y-148031772D01*
X38245853Y-147876900D01*
X38338985Y-147737519D01*
X38457519Y-147618985D01*
X38596900Y-147525853D01*
X38751772Y-147461703D01*
X38916184Y-147429000D01*
X39083816Y-147429000D01*
X39248228Y-147461703D01*
G37*
G36*
X86235443Y-146105519D02*
G01*
X86301627Y-146112037D01*
X86471466Y-146163557D01*
X86627991Y-146247222D01*
X86663729Y-146276552D01*
X86765186Y-146359814D01*
X86848448Y-146461271D01*
X86877778Y-146497009D01*
X86961443Y-146653534D01*
X87012963Y-146823373D01*
X87030359Y-147000000D01*
X87012963Y-147176627D01*
X86961443Y-147346466D01*
X86877778Y-147502991D01*
X86848448Y-147538729D01*
X86765186Y-147640186D01*
X86663729Y-147723448D01*
X86627991Y-147752778D01*
X86471466Y-147836443D01*
X86301627Y-147887963D01*
X86235442Y-147894482D01*
X86169260Y-147901000D01*
X85830740Y-147901000D01*
X85764558Y-147894482D01*
X85698373Y-147887963D01*
X85528534Y-147836443D01*
X85372009Y-147752778D01*
X85336271Y-147723448D01*
X85234814Y-147640186D01*
X85151552Y-147538729D01*
X85122222Y-147502991D01*
X85038557Y-147346466D01*
X84987037Y-147176627D01*
X84969641Y-147000000D01*
X84987037Y-146823373D01*
X85038557Y-146653534D01*
X85122222Y-146497009D01*
X85151552Y-146461271D01*
X85234814Y-146359814D01*
X85336271Y-146276552D01*
X85372009Y-146247222D01*
X85528534Y-146163557D01*
X85698373Y-146112037D01*
X85764557Y-146105519D01*
X85830740Y-146099000D01*
X86169260Y-146099000D01*
X86235443Y-146105519D01*
G37*
G36*
X63066823Y-145901313D02*
G01*
X63227242Y-145949976D01*
X63298806Y-145988228D01*
X63375078Y-146028996D01*
X63504659Y-146135341D01*
X63611004Y-146264922D01*
X63611005Y-146264924D01*
X63690024Y-146412758D01*
X63738687Y-146573177D01*
X63755117Y-146740000D01*
X63738687Y-146906823D01*
X63690024Y-147067242D01*
X63631556Y-147176627D01*
X63611004Y-147215078D01*
X63504659Y-147344659D01*
X63375078Y-147451004D01*
X63375076Y-147451005D01*
X63227242Y-147530024D01*
X63066823Y-147578687D01*
X62941804Y-147591000D01*
X62058196Y-147591000D01*
X61933177Y-147578687D01*
X61772758Y-147530024D01*
X61624924Y-147451005D01*
X61624922Y-147451004D01*
X61495341Y-147344659D01*
X61388996Y-147215078D01*
X61368444Y-147176627D01*
X61309976Y-147067242D01*
X61261313Y-146906823D01*
X61244883Y-146740000D01*
X61261313Y-146573177D01*
X61309976Y-146412758D01*
X61388995Y-146264924D01*
X61388996Y-146264922D01*
X61495341Y-146135341D01*
X61624922Y-146028996D01*
X61701194Y-145988228D01*
X61772758Y-145949976D01*
X61933177Y-145901313D01*
X62058196Y-145889000D01*
X62941804Y-145889000D01*
X63066823Y-145901313D01*
G37*
G36*
X70686823Y-145901313D02*
G01*
X70847242Y-145949976D01*
X70918806Y-145988228D01*
X70995078Y-146028996D01*
X71124659Y-146135341D01*
X71231004Y-146264922D01*
X71231005Y-146264924D01*
X71310024Y-146412758D01*
X71358687Y-146573177D01*
X71375117Y-146740000D01*
X71358687Y-146906823D01*
X71310024Y-147067242D01*
X71251556Y-147176627D01*
X71231004Y-147215078D01*
X71124659Y-147344659D01*
X70995078Y-147451004D01*
X70995076Y-147451005D01*
X70847242Y-147530024D01*
X70686823Y-147578687D01*
X70561804Y-147591000D01*
X69678196Y-147591000D01*
X69553177Y-147578687D01*
X69392758Y-147530024D01*
X69244924Y-147451005D01*
X69244922Y-147451004D01*
X69115341Y-147344659D01*
X69008996Y-147215078D01*
X68988444Y-147176627D01*
X68929976Y-147067242D01*
X68881313Y-146906823D01*
X68864883Y-146740000D01*
X68881313Y-146573177D01*
X68929976Y-146412758D01*
X69008995Y-146264924D01*
X69008996Y-146264922D01*
X69115341Y-146135341D01*
X69244922Y-146028996D01*
X69321194Y-145988228D01*
X69392758Y-145949976D01*
X69553177Y-145901313D01*
X69678196Y-145889000D01*
X70561804Y-145889000D01*
X70686823Y-145901313D01*
G37*
G36*
X39248228Y-144921703D02*
G01*
X39403100Y-144985853D01*
X39542481Y-145078985D01*
X39661015Y-145197519D01*
X39754147Y-145336900D01*
X39818297Y-145491772D01*
X39851000Y-145656184D01*
X39851000Y-145823816D01*
X39818297Y-145988228D01*
X39754147Y-146143100D01*
X39661015Y-146282481D01*
X39542481Y-146401015D01*
X39403100Y-146494147D01*
X39248228Y-146558297D01*
X39083816Y-146591000D01*
X38916184Y-146591000D01*
X38751772Y-146558297D01*
X38596900Y-146494147D01*
X38457519Y-146401015D01*
X38338985Y-146282481D01*
X38245853Y-146143100D01*
X38181703Y-145988228D01*
X38149000Y-145823816D01*
X38149000Y-145656184D01*
X38181703Y-145491772D01*
X38245853Y-145336900D01*
X38338985Y-145197519D01*
X38457519Y-145078985D01*
X38596900Y-144985853D01*
X38751772Y-144921703D01*
X38916184Y-144889000D01*
X39083816Y-144889000D01*
X39248228Y-144921703D01*
G37*
G36*
X54488228Y-144921703D02*
G01*
X54643100Y-144985853D01*
X54782481Y-145078985D01*
X54901015Y-145197519D01*
X54994147Y-145336900D01*
X55058297Y-145491772D01*
X55091000Y-145656184D01*
X55091000Y-145823816D01*
X55058297Y-145988228D01*
X54994147Y-146143100D01*
X54901015Y-146282481D01*
X54782481Y-146401015D01*
X54643100Y-146494147D01*
X54488228Y-146558297D01*
X54323816Y-146591000D01*
X54156184Y-146591000D01*
X53991772Y-146558297D01*
X53836900Y-146494147D01*
X53697519Y-146401015D01*
X53578985Y-146282481D01*
X53485853Y-146143100D01*
X53421703Y-145988228D01*
X53389000Y-145823816D01*
X53389000Y-145656184D01*
X53421703Y-145491772D01*
X53485853Y-145336900D01*
X53578985Y-145197519D01*
X53697519Y-145078985D01*
X53836900Y-144985853D01*
X53991772Y-144921703D01*
X54156184Y-144889000D01*
X54323816Y-144889000D01*
X54488228Y-144921703D01*
G37*
G36*
X86210887Y-143603100D02*
G01*
X86301627Y-143612037D01*
X86471466Y-143663557D01*
X86627991Y-143747222D01*
X86663729Y-143776552D01*
X86765186Y-143859814D01*
X86842602Y-143954147D01*
X86877778Y-143997009D01*
X86961443Y-144153534D01*
X87012963Y-144323373D01*
X87030359Y-144500000D01*
X87012963Y-144676627D01*
X86961443Y-144846466D01*
X86877778Y-145002991D01*
X86848484Y-145038686D01*
X86765186Y-145140186D01*
X86695323Y-145197520D01*
X86627991Y-145252778D01*
X86471466Y-145336443D01*
X86301627Y-145387963D01*
X86235443Y-145394481D01*
X86169260Y-145401000D01*
X85830740Y-145401000D01*
X85764557Y-145394481D01*
X85698373Y-145387963D01*
X85528534Y-145336443D01*
X85372009Y-145252778D01*
X85304677Y-145197520D01*
X85234814Y-145140186D01*
X85151516Y-145038686D01*
X85122222Y-145002991D01*
X85038557Y-144846466D01*
X84987037Y-144676627D01*
X84969641Y-144500000D01*
X84987037Y-144323373D01*
X85038557Y-144153534D01*
X85122222Y-143997009D01*
X85157398Y-143954147D01*
X85234814Y-143859814D01*
X85336271Y-143776552D01*
X85372009Y-143747222D01*
X85528534Y-143663557D01*
X85698373Y-143612037D01*
X85789113Y-143603100D01*
X85830740Y-143599000D01*
X86169260Y-143599000D01*
X86210887Y-143603100D01*
G37*
G36*
X63066823Y-143361313D02*
G01*
X63227242Y-143409976D01*
X63298806Y-143448228D01*
X63375078Y-143488996D01*
X63504659Y-143595341D01*
X63611004Y-143724922D01*
X63611005Y-143724924D01*
X63690024Y-143872758D01*
X63738687Y-144033177D01*
X63755117Y-144200000D01*
X63738687Y-144366823D01*
X63690024Y-144527242D01*
X63619114Y-144659906D01*
X63611004Y-144675078D01*
X63504659Y-144804659D01*
X63375078Y-144911004D01*
X63375076Y-144911005D01*
X63227242Y-144990024D01*
X63066823Y-145038687D01*
X62941804Y-145051000D01*
X62058196Y-145051000D01*
X61933177Y-145038687D01*
X61772758Y-144990024D01*
X61624924Y-144911005D01*
X61624922Y-144911004D01*
X61495341Y-144804659D01*
X61388996Y-144675078D01*
X61380886Y-144659906D01*
X61309976Y-144527242D01*
X61261313Y-144366823D01*
X61244883Y-144200000D01*
X61261313Y-144033177D01*
X61309976Y-143872758D01*
X61388995Y-143724924D01*
X61388996Y-143724922D01*
X61495341Y-143595341D01*
X61624922Y-143488996D01*
X61701194Y-143448228D01*
X61772758Y-143409976D01*
X61933177Y-143361313D01*
X62058196Y-143349000D01*
X62941804Y-143349000D01*
X63066823Y-143361313D01*
G37*
G36*
X70686823Y-143361313D02*
G01*
X70847242Y-143409976D01*
X70918806Y-143448228D01*
X70995078Y-143488996D01*
X71124659Y-143595341D01*
X71231004Y-143724922D01*
X71231005Y-143724924D01*
X71310024Y-143872758D01*
X71358687Y-144033177D01*
X71375117Y-144200000D01*
X71358687Y-144366823D01*
X71310024Y-144527242D01*
X71239114Y-144659906D01*
X71231004Y-144675078D01*
X71124659Y-144804659D01*
X70995078Y-144911004D01*
X70995076Y-144911005D01*
X70847242Y-144990024D01*
X70686823Y-145038687D01*
X70561804Y-145051000D01*
X69678196Y-145051000D01*
X69553177Y-145038687D01*
X69392758Y-144990024D01*
X69244924Y-144911005D01*
X69244922Y-144911004D01*
X69115341Y-144804659D01*
X69008996Y-144675078D01*
X69000886Y-144659906D01*
X68929976Y-144527242D01*
X68881313Y-144366823D01*
X68864883Y-144200000D01*
X68881313Y-144033177D01*
X68929976Y-143872758D01*
X69008995Y-143724924D01*
X69008996Y-143724922D01*
X69115341Y-143595341D01*
X69244922Y-143488996D01*
X69321194Y-143448228D01*
X69392758Y-143409976D01*
X69553177Y-143361313D01*
X69678196Y-143349000D01*
X70561804Y-143349000D01*
X70686823Y-143361313D01*
G37*
G36*
X54488228Y-142381703D02*
G01*
X54643100Y-142445853D01*
X54782481Y-142538985D01*
X54901015Y-142657519D01*
X54994147Y-142796900D01*
X55058297Y-142951772D01*
X55091000Y-143116184D01*
X55091000Y-143283816D01*
X55058297Y-143448228D01*
X54994147Y-143603100D01*
X54901015Y-143742481D01*
X54782481Y-143861015D01*
X54643100Y-143954147D01*
X54488228Y-144018297D01*
X54323816Y-144051000D01*
X54156184Y-144051000D01*
X53991772Y-144018297D01*
X53836900Y-143954147D01*
X53697519Y-143861015D01*
X53578985Y-143742481D01*
X53485853Y-143603100D01*
X53421703Y-143448228D01*
X53389000Y-143283816D01*
X53389000Y-143116184D01*
X53421703Y-142951772D01*
X53485853Y-142796900D01*
X53578985Y-142657519D01*
X53697519Y-142538985D01*
X53836900Y-142445853D01*
X53991772Y-142381703D01*
X54156184Y-142349000D01*
X54323816Y-142349000D01*
X54488228Y-142381703D01*
G37*
G36*
X39248228Y-142381703D02*
G01*
X39403100Y-142445853D01*
X39542481Y-142538985D01*
X39661015Y-142657519D01*
X39754147Y-142796900D01*
X39818297Y-142951772D01*
X39851000Y-143116184D01*
X39851000Y-143283816D01*
X39818297Y-143448228D01*
X39754147Y-143603100D01*
X39661015Y-143742481D01*
X39542481Y-143861015D01*
X39403100Y-143954147D01*
X39248228Y-144018297D01*
X39083816Y-144051000D01*
X38916184Y-144051000D01*
X38751772Y-144018297D01*
X38596900Y-143954147D01*
X38457519Y-143861015D01*
X38338985Y-143742481D01*
X38245853Y-143603100D01*
X38181703Y-143448228D01*
X38149000Y-143283816D01*
X38149000Y-143116184D01*
X38181703Y-142951772D01*
X38245853Y-142796900D01*
X38338985Y-142657519D01*
X38457519Y-142538985D01*
X38596900Y-142445853D01*
X38751772Y-142381703D01*
X38916184Y-142349000D01*
X39083816Y-142349000D01*
X39248228Y-142381703D01*
G37*
G36*
X80153228Y-141006703D02*
G01*
X80308100Y-141070853D01*
X80447481Y-141163985D01*
X80566015Y-141282519D01*
X80659147Y-141421900D01*
X80723297Y-141576772D01*
X80756000Y-141741184D01*
X80756000Y-141908816D01*
X80723297Y-142073228D01*
X80659147Y-142228100D01*
X80566015Y-142367481D01*
X80447481Y-142486015D01*
X80308100Y-142579147D01*
X80153228Y-142643297D01*
X79988816Y-142676000D01*
X79821184Y-142676000D01*
X79656772Y-142643297D01*
X79501900Y-142579147D01*
X79362519Y-142486015D01*
X79243985Y-142367481D01*
X79150853Y-142228100D01*
X79086703Y-142073228D01*
X79054000Y-141908816D01*
X79054000Y-141741184D01*
X79086703Y-141576772D01*
X79150853Y-141421900D01*
X79243985Y-141282519D01*
X79362519Y-141163985D01*
X79501900Y-141070853D01*
X79656772Y-141006703D01*
X79821184Y-140974000D01*
X79988816Y-140974000D01*
X80153228Y-141006703D01*
G37*
G36*
X75153228Y-141006703D02*
G01*
X75308100Y-141070853D01*
X75447481Y-141163985D01*
X75566015Y-141282519D01*
X75659147Y-141421900D01*
X75723297Y-141576772D01*
X75756000Y-141741184D01*
X75756000Y-141908816D01*
X75723297Y-142073228D01*
X75659147Y-142228100D01*
X75566015Y-142367481D01*
X75447481Y-142486015D01*
X75308100Y-142579147D01*
X75153228Y-142643297D01*
X74988816Y-142676000D01*
X74821184Y-142676000D01*
X74656772Y-142643297D01*
X74501900Y-142579147D01*
X74362519Y-142486015D01*
X74243985Y-142367481D01*
X74150853Y-142228100D01*
X74086703Y-142073228D01*
X74054000Y-141908816D01*
X74054000Y-141741184D01*
X74086703Y-141576772D01*
X74150853Y-141421900D01*
X74243985Y-141282519D01*
X74362519Y-141163985D01*
X74501900Y-141070853D01*
X74656772Y-141006703D01*
X74821184Y-140974000D01*
X74988816Y-140974000D01*
X75153228Y-141006703D01*
G37*
G36*
X70686823Y-140821313D02*
G01*
X70847242Y-140869976D01*
X70918806Y-140908228D01*
X70995078Y-140948996D01*
X71124659Y-141055341D01*
X71231004Y-141184922D01*
X71231005Y-141184924D01*
X71310024Y-141332758D01*
X71358687Y-141493177D01*
X71375117Y-141660000D01*
X71358687Y-141826823D01*
X71310024Y-141987242D01*
X71264063Y-142073228D01*
X71231004Y-142135078D01*
X71124659Y-142264659D01*
X70995078Y-142371004D01*
X70995076Y-142371005D01*
X70847242Y-142450024D01*
X70686823Y-142498687D01*
X70561804Y-142511000D01*
X69678196Y-142511000D01*
X69553177Y-142498687D01*
X69392758Y-142450024D01*
X69244924Y-142371005D01*
X69244922Y-142371004D01*
X69115341Y-142264659D01*
X69008996Y-142135078D01*
X68975937Y-142073228D01*
X68929976Y-141987242D01*
X68881313Y-141826823D01*
X68864883Y-141660000D01*
X68881313Y-141493177D01*
X68929976Y-141332758D01*
X69008995Y-141184924D01*
X69008996Y-141184922D01*
X69115341Y-141055341D01*
X69244922Y-140948996D01*
X69321194Y-140908228D01*
X69392758Y-140869976D01*
X69553177Y-140821313D01*
X69678196Y-140809000D01*
X70561804Y-140809000D01*
X70686823Y-140821313D01*
G37*
G36*
X63066823Y-140821313D02*
G01*
X63227242Y-140869976D01*
X63298806Y-140908228D01*
X63375078Y-140948996D01*
X63504659Y-141055341D01*
X63611004Y-141184922D01*
X63611005Y-141184924D01*
X63690024Y-141332758D01*
X63738687Y-141493177D01*
X63755117Y-141660000D01*
X63738687Y-141826823D01*
X63690024Y-141987242D01*
X63644063Y-142073228D01*
X63611004Y-142135078D01*
X63504659Y-142264659D01*
X63375078Y-142371004D01*
X63375076Y-142371005D01*
X63227242Y-142450024D01*
X63066823Y-142498687D01*
X62941804Y-142511000D01*
X62058196Y-142511000D01*
X61933177Y-142498687D01*
X61772758Y-142450024D01*
X61624924Y-142371005D01*
X61624922Y-142371004D01*
X61495341Y-142264659D01*
X61388996Y-142135078D01*
X61355937Y-142073228D01*
X61309976Y-141987242D01*
X61261313Y-141826823D01*
X61244883Y-141660000D01*
X61261313Y-141493177D01*
X61309976Y-141332758D01*
X61388995Y-141184924D01*
X61388996Y-141184922D01*
X61495341Y-141055341D01*
X61624922Y-140948996D01*
X61701194Y-140908228D01*
X61772758Y-140869976D01*
X61933177Y-140821313D01*
X62058196Y-140809000D01*
X62941804Y-140809000D01*
X63066823Y-140821313D01*
G37*
G36*
X39248228Y-139841703D02*
G01*
X39403100Y-139905853D01*
X39542481Y-139998985D01*
X39661015Y-140117519D01*
X39754147Y-140256900D01*
X39818297Y-140411772D01*
X39851000Y-140576184D01*
X39851000Y-140743816D01*
X39818297Y-140908228D01*
X39754147Y-141063100D01*
X39661015Y-141202481D01*
X39542481Y-141321015D01*
X39403100Y-141414147D01*
X39248228Y-141478297D01*
X39083816Y-141511000D01*
X38916184Y-141511000D01*
X38751772Y-141478297D01*
X38596900Y-141414147D01*
X38457519Y-141321015D01*
X38338985Y-141202481D01*
X38245853Y-141063100D01*
X38181703Y-140908228D01*
X38149000Y-140743816D01*
X38149000Y-140576184D01*
X38181703Y-140411772D01*
X38245853Y-140256900D01*
X38338985Y-140117519D01*
X38457519Y-139998985D01*
X38596900Y-139905853D01*
X38751772Y-139841703D01*
X38916184Y-139809000D01*
X39083816Y-139809000D01*
X39248228Y-139841703D01*
G37*
G36*
X54488228Y-139841703D02*
G01*
X54643100Y-139905853D01*
X54782481Y-139998985D01*
X54901015Y-140117519D01*
X54994147Y-140256900D01*
X55058297Y-140411772D01*
X55091000Y-140576184D01*
X55091000Y-140743816D01*
X55058297Y-140908228D01*
X54994147Y-141063100D01*
X54901015Y-141202481D01*
X54782481Y-141321015D01*
X54643100Y-141414147D01*
X54488228Y-141478297D01*
X54323816Y-141511000D01*
X54156184Y-141511000D01*
X53991772Y-141478297D01*
X53836900Y-141414147D01*
X53697519Y-141321015D01*
X53578985Y-141202481D01*
X53485853Y-141063100D01*
X53421703Y-140908228D01*
X53389000Y-140743816D01*
X53389000Y-140576184D01*
X53421703Y-140411772D01*
X53485853Y-140256900D01*
X53578985Y-140117519D01*
X53697519Y-139998985D01*
X53836900Y-139905853D01*
X53991772Y-139841703D01*
X54156184Y-139809000D01*
X54323816Y-139809000D01*
X54488228Y-139841703D01*
G37*
G36*
X63066823Y-138281313D02*
G01*
X63227242Y-138329976D01*
X63298806Y-138368228D01*
X63375078Y-138408996D01*
X63504659Y-138515341D01*
X63611004Y-138644922D01*
X63611005Y-138644924D01*
X63690024Y-138792758D01*
X63738687Y-138953177D01*
X63755117Y-139120000D01*
X63738687Y-139286823D01*
X63690024Y-139447242D01*
X63619114Y-139579906D01*
X63611004Y-139595078D01*
X63504659Y-139724659D01*
X63375078Y-139831004D01*
X63375076Y-139831005D01*
X63227242Y-139910024D01*
X63066823Y-139958687D01*
X62941804Y-139971000D01*
X62058196Y-139971000D01*
X61933177Y-139958687D01*
X61772758Y-139910024D01*
X61624924Y-139831005D01*
X61624922Y-139831004D01*
X61495341Y-139724659D01*
X61388996Y-139595078D01*
X61380886Y-139579906D01*
X61309976Y-139447242D01*
X61261313Y-139286823D01*
X61244883Y-139120000D01*
X61261313Y-138953177D01*
X61309976Y-138792758D01*
X61388995Y-138644924D01*
X61388996Y-138644922D01*
X61495341Y-138515341D01*
X61624922Y-138408996D01*
X61701194Y-138368228D01*
X61772758Y-138329976D01*
X61933177Y-138281313D01*
X62058196Y-138269000D01*
X62941804Y-138269000D01*
X63066823Y-138281313D01*
G37*
G36*
X70686823Y-138281313D02*
G01*
X70847242Y-138329976D01*
X70918806Y-138368228D01*
X70995078Y-138408996D01*
X71124659Y-138515341D01*
X71231004Y-138644922D01*
X71231005Y-138644924D01*
X71310024Y-138792758D01*
X71358687Y-138953177D01*
X71375117Y-139120000D01*
X71358687Y-139286823D01*
X71310024Y-139447242D01*
X71239114Y-139579906D01*
X71231004Y-139595078D01*
X71124659Y-139724659D01*
X70995078Y-139831004D01*
X70995076Y-139831005D01*
X70847242Y-139910024D01*
X70686823Y-139958687D01*
X70561804Y-139971000D01*
X69678196Y-139971000D01*
X69553177Y-139958687D01*
X69392758Y-139910024D01*
X69244924Y-139831005D01*
X69244922Y-139831004D01*
X69115341Y-139724659D01*
X69008996Y-139595078D01*
X69000886Y-139579906D01*
X68929976Y-139447242D01*
X68881313Y-139286823D01*
X68864883Y-139120000D01*
X68881313Y-138953177D01*
X68929976Y-138792758D01*
X69008995Y-138644924D01*
X69008996Y-138644922D01*
X69115341Y-138515341D01*
X69244922Y-138408996D01*
X69321194Y-138368228D01*
X69392758Y-138329976D01*
X69553177Y-138281313D01*
X69678196Y-138269000D01*
X70561804Y-138269000D01*
X70686823Y-138281313D01*
G37*
G36*
X54488228Y-137301703D02*
G01*
X54643100Y-137365853D01*
X54782481Y-137458985D01*
X54901015Y-137577519D01*
X54994147Y-137716900D01*
X55058297Y-137871772D01*
X55091000Y-138036184D01*
X55091000Y-138203816D01*
X55058297Y-138368228D01*
X54994147Y-138523100D01*
X54901015Y-138662481D01*
X54782481Y-138781015D01*
X54643100Y-138874147D01*
X54488228Y-138938297D01*
X54323816Y-138971000D01*
X54156184Y-138971000D01*
X53991772Y-138938297D01*
X53836900Y-138874147D01*
X53697519Y-138781015D01*
X53578985Y-138662481D01*
X53485853Y-138523100D01*
X53421703Y-138368228D01*
X53389000Y-138203816D01*
X53389000Y-138036184D01*
X53421703Y-137871772D01*
X53485853Y-137716900D01*
X53578985Y-137577519D01*
X53697519Y-137458985D01*
X53836900Y-137365853D01*
X53991772Y-137301703D01*
X54156184Y-137269000D01*
X54323816Y-137269000D01*
X54488228Y-137301703D01*
G37*
G36*
X39248228Y-137301703D02*
G01*
X39403100Y-137365853D01*
X39542481Y-137458985D01*
X39661015Y-137577519D01*
X39754147Y-137716900D01*
X39818297Y-137871772D01*
X39851000Y-138036184D01*
X39851000Y-138203816D01*
X39818297Y-138368228D01*
X39754147Y-138523100D01*
X39661015Y-138662481D01*
X39542481Y-138781015D01*
X39403100Y-138874147D01*
X39248228Y-138938297D01*
X39083816Y-138971000D01*
X38916184Y-138971000D01*
X38751772Y-138938297D01*
X38596900Y-138874147D01*
X38457519Y-138781015D01*
X38338985Y-138662481D01*
X38245853Y-138523100D01*
X38181703Y-138368228D01*
X38149000Y-138203816D01*
X38149000Y-138036184D01*
X38181703Y-137871772D01*
X38245853Y-137716900D01*
X38338985Y-137577519D01*
X38457519Y-137458985D01*
X38596900Y-137365853D01*
X38751772Y-137301703D01*
X38916184Y-137269000D01*
X39083816Y-137269000D01*
X39248228Y-137301703D01*
G37*
G36*
X75153228Y-136956703D02*
G01*
X75308100Y-137020853D01*
X75447481Y-137113985D01*
X75566015Y-137232519D01*
X75659147Y-137371900D01*
X75723297Y-137526772D01*
X75756000Y-137691184D01*
X75756000Y-137858816D01*
X75723297Y-138023228D01*
X75659147Y-138178100D01*
X75566015Y-138317481D01*
X75447481Y-138436015D01*
X75308100Y-138529147D01*
X75153228Y-138593297D01*
X74988816Y-138626000D01*
X74821184Y-138626000D01*
X74656772Y-138593297D01*
X74501900Y-138529147D01*
X74362519Y-138436015D01*
X74243985Y-138317481D01*
X74150853Y-138178100D01*
X74086703Y-138023228D01*
X74054000Y-137858816D01*
X74054000Y-137691184D01*
X74086703Y-137526772D01*
X74150853Y-137371900D01*
X74243985Y-137232519D01*
X74362519Y-137113985D01*
X74501900Y-137020853D01*
X74656772Y-136956703D01*
X74821184Y-136924000D01*
X74988816Y-136924000D01*
X75153228Y-136956703D01*
G37*
G36*
X85313228Y-136956703D02*
G01*
X85468100Y-137020853D01*
X85607481Y-137113985D01*
X85726015Y-137232519D01*
X85819147Y-137371900D01*
X85883297Y-137526772D01*
X85916000Y-137691184D01*
X85916000Y-137858816D01*
X85883297Y-138023228D01*
X85819147Y-138178100D01*
X85726015Y-138317481D01*
X85607481Y-138436015D01*
X85468100Y-138529147D01*
X85313228Y-138593297D01*
X85148816Y-138626000D01*
X84981184Y-138626000D01*
X84816772Y-138593297D01*
X84661900Y-138529147D01*
X84522519Y-138436015D01*
X84403985Y-138317481D01*
X84310853Y-138178100D01*
X84246703Y-138023228D01*
X84214000Y-137858816D01*
X84214000Y-137691184D01*
X84246703Y-137526772D01*
X84310853Y-137371900D01*
X84403985Y-137232519D01*
X84522519Y-137113985D01*
X84661900Y-137020853D01*
X84816772Y-136956703D01*
X84981184Y-136924000D01*
X85148816Y-136924000D01*
X85313228Y-136956703D01*
G37*
G36*
X63066823Y-135741313D02*
G01*
X63227242Y-135789976D01*
X63298806Y-135828228D01*
X63375078Y-135868996D01*
X63504659Y-135975341D01*
X63611004Y-136104922D01*
X63611005Y-136104924D01*
X63690024Y-136252758D01*
X63738687Y-136413177D01*
X63755117Y-136580000D01*
X63738687Y-136746823D01*
X63690024Y-136907242D01*
X63663585Y-136956705D01*
X63611004Y-137055078D01*
X63504659Y-137184659D01*
X63375078Y-137291004D01*
X63375076Y-137291005D01*
X63227242Y-137370024D01*
X63066823Y-137418687D01*
X62941804Y-137431000D01*
X62058196Y-137431000D01*
X61933177Y-137418687D01*
X61772758Y-137370024D01*
X61624924Y-137291005D01*
X61624922Y-137291004D01*
X61495341Y-137184659D01*
X61388996Y-137055078D01*
X61336415Y-136956705D01*
X61309976Y-136907242D01*
X61261313Y-136746823D01*
X61244883Y-136580000D01*
X61261313Y-136413177D01*
X61309976Y-136252758D01*
X61388995Y-136104924D01*
X61388996Y-136104922D01*
X61495341Y-135975341D01*
X61624922Y-135868996D01*
X61701194Y-135828228D01*
X61772758Y-135789976D01*
X61933177Y-135741313D01*
X62058196Y-135729000D01*
X62941804Y-135729000D01*
X63066823Y-135741313D01*
G37*
G36*
X70686823Y-135741313D02*
G01*
X70847242Y-135789976D01*
X70918806Y-135828228D01*
X70995078Y-135868996D01*
X71124659Y-135975341D01*
X71231004Y-136104922D01*
X71231005Y-136104924D01*
X71310024Y-136252758D01*
X71358687Y-136413177D01*
X71375117Y-136580000D01*
X71358687Y-136746823D01*
X71310024Y-136907242D01*
X71283585Y-136956705D01*
X71231004Y-137055078D01*
X71124659Y-137184659D01*
X70995078Y-137291004D01*
X70995076Y-137291005D01*
X70847242Y-137370024D01*
X70686823Y-137418687D01*
X70561804Y-137431000D01*
X69678196Y-137431000D01*
X69553177Y-137418687D01*
X69392758Y-137370024D01*
X69244924Y-137291005D01*
X69244922Y-137291004D01*
X69115341Y-137184659D01*
X69008996Y-137055078D01*
X68956415Y-136956705D01*
X68929976Y-136907242D01*
X68881313Y-136746823D01*
X68864883Y-136580000D01*
X68881313Y-136413177D01*
X68929976Y-136252758D01*
X69008995Y-136104924D01*
X69008996Y-136104922D01*
X69115341Y-135975341D01*
X69244922Y-135868996D01*
X69321194Y-135828228D01*
X69392758Y-135789976D01*
X69553177Y-135741313D01*
X69678196Y-135729000D01*
X70561804Y-135729000D01*
X70686823Y-135741313D01*
G37*
G36*
X54488228Y-134761703D02*
G01*
X54643100Y-134825853D01*
X54782481Y-134918985D01*
X54901015Y-135037519D01*
X54994147Y-135176900D01*
X55058297Y-135331772D01*
X55091000Y-135496184D01*
X55091000Y-135663816D01*
X55058297Y-135828228D01*
X54994147Y-135983100D01*
X54901015Y-136122481D01*
X54782481Y-136241015D01*
X54643100Y-136334147D01*
X54488228Y-136398297D01*
X54323816Y-136431000D01*
X54156184Y-136431000D01*
X53991772Y-136398297D01*
X53836900Y-136334147D01*
X53697519Y-136241015D01*
X53578985Y-136122481D01*
X53485853Y-135983100D01*
X53421703Y-135828228D01*
X53389000Y-135663816D01*
X53389000Y-135496184D01*
X53421703Y-135331772D01*
X53485853Y-135176900D01*
X53578985Y-135037519D01*
X53697519Y-134918985D01*
X53836900Y-134825853D01*
X53991772Y-134761703D01*
X54156184Y-134729000D01*
X54323816Y-134729000D01*
X54488228Y-134761703D01*
G37*
G36*
X39248228Y-134761703D02*
G01*
X39403100Y-134825853D01*
X39542481Y-134918985D01*
X39661015Y-135037519D01*
X39754147Y-135176900D01*
X39818297Y-135331772D01*
X39851000Y-135496184D01*
X39851000Y-135663816D01*
X39818297Y-135828228D01*
X39754147Y-135983100D01*
X39661015Y-136122481D01*
X39542481Y-136241015D01*
X39403100Y-136334147D01*
X39248228Y-136398297D01*
X39083816Y-136431000D01*
X38916184Y-136431000D01*
X38751772Y-136398297D01*
X38596900Y-136334147D01*
X38457519Y-136241015D01*
X38338985Y-136122481D01*
X38245853Y-135983100D01*
X38181703Y-135828228D01*
X38149000Y-135663816D01*
X38149000Y-135496184D01*
X38181703Y-135331772D01*
X38245853Y-135176900D01*
X38338985Y-135037519D01*
X38457519Y-134918985D01*
X38596900Y-134825853D01*
X38751772Y-134761703D01*
X38916184Y-134729000D01*
X39083816Y-134729000D01*
X39248228Y-134761703D01*
G37*
G36*
X70686823Y-133201313D02*
G01*
X70847242Y-133249976D01*
X70918806Y-133288228D01*
X70995078Y-133328996D01*
X71124659Y-133435341D01*
X71231004Y-133564922D01*
X71231005Y-133564924D01*
X71310024Y-133712758D01*
X71358687Y-133873177D01*
X71375117Y-134040000D01*
X71358687Y-134206823D01*
X71310024Y-134367242D01*
X71250209Y-134479147D01*
X71231004Y-134515078D01*
X71124659Y-134644659D01*
X70995078Y-134751004D01*
X70995076Y-134751005D01*
X70847242Y-134830024D01*
X70686823Y-134878687D01*
X70561804Y-134891000D01*
X69678196Y-134891000D01*
X69553177Y-134878687D01*
X69392758Y-134830024D01*
X69244924Y-134751005D01*
X69244922Y-134751004D01*
X69115341Y-134644659D01*
X69008996Y-134515078D01*
X68989791Y-134479147D01*
X68929976Y-134367242D01*
X68881313Y-134206823D01*
X68864883Y-134040000D01*
X68881313Y-133873177D01*
X68929976Y-133712758D01*
X69008995Y-133564924D01*
X69008996Y-133564922D01*
X69115341Y-133435341D01*
X69244922Y-133328996D01*
X69321194Y-133288228D01*
X69392758Y-133249976D01*
X69553177Y-133201313D01*
X69678196Y-133189000D01*
X70561804Y-133189000D01*
X70686823Y-133201313D01*
G37*
G36*
X63066823Y-133201313D02*
G01*
X63227242Y-133249976D01*
X63298806Y-133288228D01*
X63375078Y-133328996D01*
X63504659Y-133435341D01*
X63611004Y-133564922D01*
X63611005Y-133564924D01*
X63690024Y-133712758D01*
X63738687Y-133873177D01*
X63755117Y-134040000D01*
X63738687Y-134206823D01*
X63690024Y-134367242D01*
X63630209Y-134479147D01*
X63611004Y-134515078D01*
X63504659Y-134644659D01*
X63375078Y-134751004D01*
X63375076Y-134751005D01*
X63227242Y-134830024D01*
X63066823Y-134878687D01*
X62941804Y-134891000D01*
X62058196Y-134891000D01*
X61933177Y-134878687D01*
X61772758Y-134830024D01*
X61624924Y-134751005D01*
X61624922Y-134751004D01*
X61495341Y-134644659D01*
X61388996Y-134515078D01*
X61369791Y-134479147D01*
X61309976Y-134367242D01*
X61261313Y-134206823D01*
X61244883Y-134040000D01*
X61261313Y-133873177D01*
X61309976Y-133712758D01*
X61388995Y-133564924D01*
X61388996Y-133564922D01*
X61495341Y-133435341D01*
X61624922Y-133328996D01*
X61701194Y-133288228D01*
X61772758Y-133249976D01*
X61933177Y-133201313D01*
X62058196Y-133189000D01*
X62941804Y-133189000D01*
X63066823Y-133201313D01*
G37*
G36*
X75153228Y-132906703D02*
G01*
X75308100Y-132970853D01*
X75447481Y-133063985D01*
X75566015Y-133182519D01*
X75659147Y-133321900D01*
X75723297Y-133476772D01*
X75756000Y-133641184D01*
X75756000Y-133808816D01*
X75723297Y-133973228D01*
X75659147Y-134128100D01*
X75566015Y-134267481D01*
X75447481Y-134386015D01*
X75308100Y-134479147D01*
X75153228Y-134543297D01*
X74988816Y-134576000D01*
X74821184Y-134576000D01*
X74656772Y-134543297D01*
X74501900Y-134479147D01*
X74362519Y-134386015D01*
X74243985Y-134267481D01*
X74150853Y-134128100D01*
X74086703Y-133973228D01*
X74054000Y-133808816D01*
X74054000Y-133641184D01*
X74086703Y-133476772D01*
X74150853Y-133321900D01*
X74243985Y-133182519D01*
X74362519Y-133063985D01*
X74501900Y-132970853D01*
X74656772Y-132906703D01*
X74821184Y-132874000D01*
X74988816Y-132874000D01*
X75153228Y-132906703D01*
G37*
G36*
X85313228Y-132906703D02*
G01*
X85468100Y-132970853D01*
X85607481Y-133063985D01*
X85726015Y-133182519D01*
X85819147Y-133321900D01*
X85883297Y-133476772D01*
X85916000Y-133641184D01*
X85916000Y-133808816D01*
X85883297Y-133973228D01*
X85819147Y-134128100D01*
X85726015Y-134267481D01*
X85607481Y-134386015D01*
X85468100Y-134479147D01*
X85313228Y-134543297D01*
X85148816Y-134576000D01*
X84981184Y-134576000D01*
X84816772Y-134543297D01*
X84661900Y-134479147D01*
X84522519Y-134386015D01*
X84403985Y-134267481D01*
X84310853Y-134128100D01*
X84246703Y-133973228D01*
X84214000Y-133808816D01*
X84214000Y-133641184D01*
X84246703Y-133476772D01*
X84310853Y-133321900D01*
X84403985Y-133182519D01*
X84522519Y-133063985D01*
X84661900Y-132970853D01*
X84816772Y-132906703D01*
X84981184Y-132874000D01*
X85148816Y-132874000D01*
X85313228Y-132906703D01*
G37*
G36*
X39248228Y-132221703D02*
G01*
X39403100Y-132285853D01*
X39542481Y-132378985D01*
X39661015Y-132497519D01*
X39754147Y-132636900D01*
X39818297Y-132791772D01*
X39851000Y-132956184D01*
X39851000Y-133123816D01*
X39818297Y-133288228D01*
X39754147Y-133443100D01*
X39661015Y-133582481D01*
X39542481Y-133701015D01*
X39403100Y-133794147D01*
X39248228Y-133858297D01*
X39083816Y-133891000D01*
X38916184Y-133891000D01*
X38751772Y-133858297D01*
X38596900Y-133794147D01*
X38457519Y-133701015D01*
X38338985Y-133582481D01*
X38245853Y-133443100D01*
X38181703Y-133288228D01*
X38149000Y-133123816D01*
X38149000Y-132956184D01*
X38181703Y-132791772D01*
X38245853Y-132636900D01*
X38338985Y-132497519D01*
X38457519Y-132378985D01*
X38596900Y-132285853D01*
X38751772Y-132221703D01*
X38916184Y-132189000D01*
X39083816Y-132189000D01*
X39248228Y-132221703D01*
G37*
G36*
X54488228Y-132221703D02*
G01*
X54643100Y-132285853D01*
X54782481Y-132378985D01*
X54901015Y-132497519D01*
X54994147Y-132636900D01*
X55058297Y-132791772D01*
X55091000Y-132956184D01*
X55091000Y-133123816D01*
X55058297Y-133288228D01*
X54994147Y-133443100D01*
X54901015Y-133582481D01*
X54782481Y-133701015D01*
X54643100Y-133794147D01*
X54488228Y-133858297D01*
X54323816Y-133891000D01*
X54156184Y-133891000D01*
X53991772Y-133858297D01*
X53836900Y-133794147D01*
X53697519Y-133701015D01*
X53578985Y-133582481D01*
X53485853Y-133443100D01*
X53421703Y-133288228D01*
X53389000Y-133123816D01*
X53389000Y-132956184D01*
X53421703Y-132791772D01*
X53485853Y-132636900D01*
X53578985Y-132497519D01*
X53697519Y-132378985D01*
X53836900Y-132285853D01*
X53991772Y-132221703D01*
X54156184Y-132189000D01*
X54323816Y-132189000D01*
X54488228Y-132221703D01*
G37*
G36*
X63751000Y-132351000D02*
G01*
X61249000Y-132351000D01*
X61249000Y-130649000D01*
X63751000Y-130649000D01*
X63751000Y-132351000D01*
G37*
G36*
X70686823Y-130661313D02*
G01*
X70847242Y-130709976D01*
X70918806Y-130748228D01*
X70995078Y-130788996D01*
X71124659Y-130895341D01*
X71231004Y-131024922D01*
X71231005Y-131024924D01*
X71310024Y-131172758D01*
X71358687Y-131333177D01*
X71375117Y-131500000D01*
X71358687Y-131666823D01*
X71310024Y-131827242D01*
X71239114Y-131959906D01*
X71231004Y-131975078D01*
X71124659Y-132104659D01*
X70995078Y-132211004D01*
X70995076Y-132211005D01*
X70847242Y-132290024D01*
X70686823Y-132338687D01*
X70561804Y-132351000D01*
X69678196Y-132351000D01*
X69553177Y-132338687D01*
X69392758Y-132290024D01*
X69244924Y-132211005D01*
X69244922Y-132211004D01*
X69115341Y-132104659D01*
X69008996Y-131975078D01*
X69000886Y-131959906D01*
X68929976Y-131827242D01*
X68881313Y-131666823D01*
X68864883Y-131500000D01*
X68881313Y-131333177D01*
X68929976Y-131172758D01*
X69008995Y-131024924D01*
X69008996Y-131024922D01*
X69115341Y-130895341D01*
X69244922Y-130788996D01*
X69321194Y-130748228D01*
X69392758Y-130709976D01*
X69553177Y-130661313D01*
X69678196Y-130649000D01*
X70561804Y-130649000D01*
X70686823Y-130661313D01*
G37*
G36*
X39851000Y-131351000D02*
G01*
X38149000Y-131351000D01*
X38149000Y-129649000D01*
X39851000Y-129649000D01*
X39851000Y-131351000D01*
G37*
G36*
X54488228Y-129681703D02*
G01*
X54643100Y-129745853D01*
X54782481Y-129838985D01*
X54901015Y-129957519D01*
X54994147Y-130096900D01*
X55058297Y-130251772D01*
X55091000Y-130416184D01*
X55091000Y-130583816D01*
X55058297Y-130748228D01*
X54994147Y-130903100D01*
X54901015Y-131042481D01*
X54782481Y-131161015D01*
X54643100Y-131254147D01*
X54488228Y-131318297D01*
X54323816Y-131351000D01*
X54156184Y-131351000D01*
X53991772Y-131318297D01*
X53836900Y-131254147D01*
X53697519Y-131161015D01*
X53578985Y-131042481D01*
X53485853Y-130903100D01*
X53421703Y-130748228D01*
X53389000Y-130583816D01*
X53389000Y-130416184D01*
X53421703Y-130251772D01*
X53485853Y-130096900D01*
X53578985Y-129957519D01*
X53697519Y-129838985D01*
X53836900Y-129745853D01*
X53991772Y-129681703D01*
X54156184Y-129649000D01*
X54323816Y-129649000D01*
X54488228Y-129681703D01*
G37*
G36*
X85313228Y-128856703D02*
G01*
X85468100Y-128920853D01*
X85607481Y-129013985D01*
X85726015Y-129132519D01*
X85819147Y-129271900D01*
X85883297Y-129426772D01*
X85916000Y-129591184D01*
X85916000Y-129758816D01*
X85883297Y-129923228D01*
X85819147Y-130078100D01*
X85726015Y-130217481D01*
X85607481Y-130336015D01*
X85468100Y-130429147D01*
X85313228Y-130493297D01*
X85148816Y-130526000D01*
X84981184Y-130526000D01*
X84816772Y-130493297D01*
X84661900Y-130429147D01*
X84522519Y-130336015D01*
X84403985Y-130217481D01*
X84310853Y-130078100D01*
X84246703Y-129923228D01*
X84214000Y-129758816D01*
X84214000Y-129591184D01*
X84246703Y-129426772D01*
X84310853Y-129271900D01*
X84403985Y-129132519D01*
X84522519Y-129013985D01*
X84661900Y-128920853D01*
X84816772Y-128856703D01*
X84981184Y-128824000D01*
X85148816Y-128824000D01*
X85313228Y-128856703D01*
G37*
G36*
X75153228Y-128856703D02*
G01*
X75308100Y-128920853D01*
X75447481Y-129013985D01*
X75566015Y-129132519D01*
X75659147Y-129271900D01*
X75723297Y-129426772D01*
X75756000Y-129591184D01*
X75756000Y-129758816D01*
X75723297Y-129923228D01*
X75659147Y-130078100D01*
X75566015Y-130217481D01*
X75447481Y-130336015D01*
X75308100Y-130429147D01*
X75153228Y-130493297D01*
X74988816Y-130526000D01*
X74821184Y-130526000D01*
X74656772Y-130493297D01*
X74501900Y-130429147D01*
X74362519Y-130336015D01*
X74243985Y-130217481D01*
X74150853Y-130078100D01*
X74086703Y-129923228D01*
X74054000Y-129758816D01*
X74054000Y-129591184D01*
X74086703Y-129426772D01*
X74150853Y-129271900D01*
X74243985Y-129132519D01*
X74362519Y-129013985D01*
X74501900Y-128920853D01*
X74656772Y-128856703D01*
X74821184Y-128824000D01*
X74988816Y-128824000D01*
X75153228Y-128856703D01*
G37*
G36*
X66192916Y-123807334D02*
G01*
X66301492Y-123840271D01*
X66301495Y-123840272D01*
X66337601Y-123859571D01*
X66401557Y-123893756D01*
X66489264Y-123965736D01*
X66561244Y-124053443D01*
X66595429Y-124117400D01*
X66614728Y-124153506D01*
X66614729Y-124153509D01*
X66647666Y-124262085D01*
X66656000Y-124346703D01*
X66656000Y-124653298D01*
X66647666Y-124737916D01*
X66614729Y-124846491D01*
X66614728Y-124846495D01*
X66595429Y-124882601D01*
X66561244Y-124946557D01*
X66489264Y-125034264D01*
X66401556Y-125106244D01*
X66337600Y-125140429D01*
X66301494Y-125159728D01*
X66301491Y-125159729D01*
X66192915Y-125192666D01*
X66080000Y-125203787D01*
X65967084Y-125192666D01*
X65858508Y-125159729D01*
X65858505Y-125159728D01*
X65822399Y-125140429D01*
X65758443Y-125106244D01*
X65670736Y-125034264D01*
X65598756Y-124946556D01*
X65545273Y-124846495D01*
X65545272Y-124846494D01*
X65545271Y-124846491D01*
X65512334Y-124737915D01*
X65504000Y-124653297D01*
X65504000Y-124346702D01*
X65512334Y-124262084D01*
X65545271Y-124153508D01*
X65545272Y-124153506D01*
X65545272Y-124153505D01*
X65598756Y-124053445D01*
X65598757Y-124053443D01*
X65670737Y-123965736D01*
X65758444Y-123893756D01*
X65822400Y-123859571D01*
X65858506Y-123840272D01*
X65858509Y-123840271D01*
X65967085Y-123807334D01*
X66080000Y-123796213D01*
X66192916Y-123807334D01*
G37*
G36*
X63652916Y-123807334D02*
G01*
X63761492Y-123840271D01*
X63761495Y-123840272D01*
X63797601Y-123859571D01*
X63861557Y-123893756D01*
X63949264Y-123965736D01*
X64021244Y-124053443D01*
X64055429Y-124117400D01*
X64074728Y-124153506D01*
X64074729Y-124153509D01*
X64107666Y-124262085D01*
X64116000Y-124346703D01*
X64116000Y-124653298D01*
X64107666Y-124737916D01*
X64074729Y-124846491D01*
X64074728Y-124846495D01*
X64055429Y-124882601D01*
X64021244Y-124946557D01*
X63949264Y-125034264D01*
X63861556Y-125106244D01*
X63797600Y-125140429D01*
X63761494Y-125159728D01*
X63761491Y-125159729D01*
X63652915Y-125192666D01*
X63540000Y-125203787D01*
X63427084Y-125192666D01*
X63318508Y-125159729D01*
X63318505Y-125159728D01*
X63282399Y-125140429D01*
X63218443Y-125106244D01*
X63130736Y-125034264D01*
X63058756Y-124946556D01*
X63005273Y-124846495D01*
X63005272Y-124846494D01*
X63005271Y-124846491D01*
X62972334Y-124737915D01*
X62964000Y-124653297D01*
X62964000Y-124346702D01*
X62972334Y-124262084D01*
X63005271Y-124153508D01*
X63005272Y-124153506D01*
X63005272Y-124153505D01*
X63058756Y-124053445D01*
X63058757Y-124053443D01*
X63130737Y-123965736D01*
X63218444Y-123893756D01*
X63282400Y-123859571D01*
X63318506Y-123840272D01*
X63318509Y-123840271D01*
X63427085Y-123807334D01*
X63540000Y-123796213D01*
X63652916Y-123807334D01*
G37*
G36*
X61576000Y-125201000D02*
G01*
X60424000Y-125201000D01*
X60424000Y-123799000D01*
X61576000Y-123799000D01*
X61576000Y-125201000D01*
G37*
G36*
X49363228Y-121806703D02*
G01*
X49518100Y-121870853D01*
X49657481Y-121963985D01*
X49776015Y-122082519D01*
X49869147Y-122221900D01*
X49933297Y-122376772D01*
X49966000Y-122541184D01*
X49966000Y-122708816D01*
X49933297Y-122873228D01*
X49869147Y-123028100D01*
X49776015Y-123167481D01*
X49657481Y-123286015D01*
X49518100Y-123379147D01*
X49363228Y-123443297D01*
X49198816Y-123476000D01*
X49031184Y-123476000D01*
X48866772Y-123443297D01*
X48711900Y-123379147D01*
X48572519Y-123286015D01*
X48453985Y-123167481D01*
X48360853Y-123028100D01*
X48296703Y-122873228D01*
X48264000Y-122708816D01*
X48264000Y-122541184D01*
X48296703Y-122376772D01*
X48360853Y-122221900D01*
X48453985Y-122082519D01*
X48572519Y-121963985D01*
X48711900Y-121870853D01*
X48866772Y-121806703D01*
X49031184Y-121774000D01*
X49198816Y-121774000D01*
X49363228Y-121806703D01*
G37*
G36*
X39203228Y-121806703D02*
G01*
X39358100Y-121870853D01*
X39497481Y-121963985D01*
X39616015Y-122082519D01*
X39709147Y-122221900D01*
X39773297Y-122376772D01*
X39806000Y-122541184D01*
X39806000Y-122708816D01*
X39773297Y-122873228D01*
X39709147Y-123028100D01*
X39616015Y-123167481D01*
X39497481Y-123286015D01*
X39358100Y-123379147D01*
X39203228Y-123443297D01*
X39038816Y-123476000D01*
X38871184Y-123476000D01*
X38706772Y-123443297D01*
X38551900Y-123379147D01*
X38412519Y-123286015D01*
X38293985Y-123167481D01*
X38200853Y-123028100D01*
X38136703Y-122873228D01*
X38104000Y-122708816D01*
X38104000Y-122541184D01*
X38136703Y-122376772D01*
X38200853Y-122221900D01*
X38293985Y-122082519D01*
X38412519Y-121963985D01*
X38551900Y-121870853D01*
X38706772Y-121806703D01*
X38871184Y-121774000D01*
X39038816Y-121774000D01*
X39203228Y-121806703D01*
G37*
G36*
X85368228Y-121721703D02*
G01*
X85523100Y-121785853D01*
X85662481Y-121878985D01*
X85781015Y-121997519D01*
X85874147Y-122136900D01*
X85938297Y-122291772D01*
X85971000Y-122456184D01*
X85971000Y-122623816D01*
X85938297Y-122788228D01*
X85874147Y-122943100D01*
X85781015Y-123082481D01*
X85662481Y-123201015D01*
X85523100Y-123294147D01*
X85368228Y-123358297D01*
X85203816Y-123391000D01*
X85036184Y-123391000D01*
X84871772Y-123358297D01*
X84716900Y-123294147D01*
X84577519Y-123201015D01*
X84458985Y-123082481D01*
X84365853Y-122943100D01*
X84301703Y-122788228D01*
X84269000Y-122623816D01*
X84269000Y-122456184D01*
X84301703Y-122291772D01*
X84365853Y-122136900D01*
X84458985Y-121997519D01*
X84577519Y-121878985D01*
X84716900Y-121785853D01*
X84871772Y-121721703D01*
X85036184Y-121689000D01*
X85203816Y-121689000D01*
X85368228Y-121721703D01*
G37*
G36*
X77748228Y-121721703D02*
G01*
X77903100Y-121785853D01*
X78042481Y-121878985D01*
X78161015Y-121997519D01*
X78254147Y-122136900D01*
X78318297Y-122291772D01*
X78351000Y-122456184D01*
X78351000Y-122623816D01*
X78318297Y-122788228D01*
X78254147Y-122943100D01*
X78161015Y-123082481D01*
X78042481Y-123201015D01*
X77903100Y-123294147D01*
X77748228Y-123358297D01*
X77583816Y-123391000D01*
X77416184Y-123391000D01*
X77251772Y-123358297D01*
X77096900Y-123294147D01*
X76957519Y-123201015D01*
X76838985Y-123082481D01*
X76745853Y-122943100D01*
X76681703Y-122788228D01*
X76649000Y-122623816D01*
X76649000Y-122456184D01*
X76681703Y-122291772D01*
X76745853Y-122136900D01*
X76838985Y-121997519D01*
X76957519Y-121878985D01*
X77096900Y-121785853D01*
X77251772Y-121721703D01*
X77416184Y-121689000D01*
X77583816Y-121689000D01*
X77748228Y-121721703D01*
G37*
G36*
X78351000Y-120851000D02*
G01*
X76649000Y-120851000D01*
X76649000Y-119149000D01*
X78351000Y-119149000D01*
X78351000Y-120851000D01*
G37*
G36*
X85368228Y-119181703D02*
G01*
X85523100Y-119245853D01*
X85662481Y-119338985D01*
X85781015Y-119457519D01*
X85874147Y-119596900D01*
X85938297Y-119751772D01*
X85971000Y-119916184D01*
X85971000Y-120083816D01*
X85938297Y-120248228D01*
X85874147Y-120403100D01*
X85781015Y-120542481D01*
X85662481Y-120661015D01*
X85523100Y-120754147D01*
X85368228Y-120818297D01*
X85203816Y-120851000D01*
X85036184Y-120851000D01*
X84871772Y-120818297D01*
X84716900Y-120754147D01*
X84577519Y-120661015D01*
X84458985Y-120542481D01*
X84365853Y-120403100D01*
X84301703Y-120248228D01*
X84269000Y-120083816D01*
X84269000Y-119916184D01*
X84301703Y-119751772D01*
X84365853Y-119596900D01*
X84458985Y-119457519D01*
X84577519Y-119338985D01*
X84716900Y-119245853D01*
X84871772Y-119181703D01*
X85036184Y-119149000D01*
X85203816Y-119149000D01*
X85368228Y-119181703D01*
G37*
G36*
X49363228Y-117756703D02*
G01*
X49518100Y-117820853D01*
X49657481Y-117913985D01*
X49776015Y-118032519D01*
X49869147Y-118171900D01*
X49933297Y-118326772D01*
X49966000Y-118491184D01*
X49966000Y-118658816D01*
X49933297Y-118823228D01*
X49869147Y-118978100D01*
X49776015Y-119117481D01*
X49657481Y-119236015D01*
X49518100Y-119329147D01*
X49363228Y-119393297D01*
X49198816Y-119426000D01*
X49031184Y-119426000D01*
X48866772Y-119393297D01*
X48711900Y-119329147D01*
X48572519Y-119236015D01*
X48453985Y-119117481D01*
X48360853Y-118978100D01*
X48296703Y-118823228D01*
X48264000Y-118658816D01*
X48264000Y-118491184D01*
X48296703Y-118326772D01*
X48360853Y-118171900D01*
X48453985Y-118032519D01*
X48572519Y-117913985D01*
X48711900Y-117820853D01*
X48866772Y-117756703D01*
X49031184Y-117724000D01*
X49198816Y-117724000D01*
X49363228Y-117756703D01*
G37*
G36*
X39203228Y-117756703D02*
G01*
X39358100Y-117820853D01*
X39497481Y-117913985D01*
X39616015Y-118032519D01*
X39709147Y-118171900D01*
X39773297Y-118326772D01*
X39806000Y-118491184D01*
X39806000Y-118658816D01*
X39773297Y-118823228D01*
X39709147Y-118978100D01*
X39616015Y-119117481D01*
X39497481Y-119236015D01*
X39358100Y-119329147D01*
X39203228Y-119393297D01*
X39038816Y-119426000D01*
X38871184Y-119426000D01*
X38706772Y-119393297D01*
X38551900Y-119329147D01*
X38412519Y-119236015D01*
X38293985Y-119117481D01*
X38200853Y-118978100D01*
X38136703Y-118823228D01*
X38104000Y-118658816D01*
X38104000Y-118491184D01*
X38136703Y-118326772D01*
X38200853Y-118171900D01*
X38293985Y-118032519D01*
X38412519Y-117913985D01*
X38551900Y-117820853D01*
X38706772Y-117756703D01*
X38871184Y-117724000D01*
X39038816Y-117724000D01*
X39203228Y-117756703D01*
G37*
G36*
X39203228Y-113706703D02*
G01*
X39358100Y-113770853D01*
X39497481Y-113863985D01*
X39616015Y-113982519D01*
X39709147Y-114121900D01*
X39773297Y-114276772D01*
X39806000Y-114441184D01*
X39806000Y-114608816D01*
X39773297Y-114773228D01*
X39709147Y-114928100D01*
X39616015Y-115067481D01*
X39497481Y-115186015D01*
X39358100Y-115279147D01*
X39203228Y-115343297D01*
X39038816Y-115376000D01*
X38871184Y-115376000D01*
X38706772Y-115343297D01*
X38551900Y-115279147D01*
X38412519Y-115186015D01*
X38293985Y-115067481D01*
X38200853Y-114928100D01*
X38136703Y-114773228D01*
X38104000Y-114608816D01*
X38104000Y-114441184D01*
X38136703Y-114276772D01*
X38200853Y-114121900D01*
X38293985Y-113982519D01*
X38412519Y-113863985D01*
X38551900Y-113770853D01*
X38706772Y-113706703D01*
X38871184Y-113674000D01*
X39038816Y-113674000D01*
X39203228Y-113706703D01*
G37*
G36*
X49363228Y-113706703D02*
G01*
X49518100Y-113770853D01*
X49657481Y-113863985D01*
X49776015Y-113982519D01*
X49869147Y-114121900D01*
X49933297Y-114276772D01*
X49966000Y-114441184D01*
X49966000Y-114608816D01*
X49933297Y-114773228D01*
X49869147Y-114928100D01*
X49776015Y-115067481D01*
X49657481Y-115186015D01*
X49518100Y-115279147D01*
X49363228Y-115343297D01*
X49198816Y-115376000D01*
X49031184Y-115376000D01*
X48866772Y-115343297D01*
X48711900Y-115279147D01*
X48572519Y-115186015D01*
X48453985Y-115067481D01*
X48360853Y-114928100D01*
X48296703Y-114773228D01*
X48264000Y-114608816D01*
X48264000Y-114441184D01*
X48296703Y-114276772D01*
X48360853Y-114121900D01*
X48453985Y-113982519D01*
X48572519Y-113863985D01*
X48711900Y-113770853D01*
X48866772Y-113706703D01*
X49031184Y-113674000D01*
X49198816Y-113674000D01*
X49363228Y-113706703D01*
G37*
M02*
