G04 #@! TF.GenerationSoftware,KiCad,Pcbnew,(5.1.5)-2*
G04 #@! TF.CreationDate,2019-12-11T14:25:45+09:00*
G04 #@! TF.ProjectId,circuit_master_ver.1.0.0,63697263-7569-4745-9f6d-61737465725f,rev?*
G04 #@! TF.SameCoordinates,Original*
G04 #@! TF.FileFunction,Copper,L1,Top*
G04 #@! TF.FilePolarity,Positive*
%FSLAX46Y46*%
G04 Gerber Fmt 4.6, Leading zero omitted, Abs format (unit mm)*
G04 Created by KiCad (PCBNEW (5.1.5)-2) date 2019-12-11 14:25:45*
%MOMM*%
%LPD*%
G04 APERTURE LIST*
%ADD10O,1.050000X1.300000*%
%ADD11R,1.050000X1.300000*%
%ADD12R,1.600000X1.600000*%
%ADD13O,1.600000X1.600000*%
%ADD14C,1.600000*%
%ADD15C,0.100000*%
%ADD16C,1.500000*%
%ADD17C,2.500000*%
%ADD18O,1.950000X1.700000*%
%ADD19R,2.400000X1.600000*%
%ADD20O,2.400000X1.600000*%
%ADD21C,1.200000*%
%ADD22C,0.300000*%
%ADD23C,0.600000*%
%ADD24C,0.400000*%
%ADD25C,0.254000*%
G04 APERTURE END LIST*
D10*
X63540000Y-124500000D03*
X66080000Y-124500000D03*
D11*
X61000000Y-124500000D03*
D12*
X39000000Y-130500000D03*
D13*
X54240000Y-163520000D03*
X39000000Y-133040000D03*
X54240000Y-160980000D03*
X39000000Y-135580000D03*
X54240000Y-158440000D03*
X39000000Y-138120000D03*
X54240000Y-155900000D03*
X39000000Y-140660000D03*
X54240000Y-153360000D03*
X39000000Y-143200000D03*
X54240000Y-150820000D03*
X39000000Y-145740000D03*
X54240000Y-148280000D03*
X39000000Y-148280000D03*
X54240000Y-145740000D03*
X39000000Y-150820000D03*
X54240000Y-143200000D03*
X39000000Y-153360000D03*
X54240000Y-140660000D03*
X39000000Y-155900000D03*
X54240000Y-138120000D03*
X39000000Y-158440000D03*
X54240000Y-135580000D03*
X39000000Y-160980000D03*
X54240000Y-133040000D03*
X39000000Y-163520000D03*
X54240000Y-130500000D03*
X39000000Y-166060000D03*
X54240000Y-166060000D03*
D14*
X74905000Y-141825000D03*
X79905000Y-141825000D03*
G04 #@! TA.AperFunction,ComponentPad*
D15*
G36*
X65524053Y-154251206D02*
G01*
X65548370Y-154254813D01*
X65572216Y-154260786D01*
X65595362Y-154269068D01*
X65617585Y-154279579D01*
X65638670Y-154292217D01*
X65658416Y-154306861D01*
X65676630Y-154323370D01*
X65693139Y-154341584D01*
X65707783Y-154361330D01*
X65720421Y-154382415D01*
X65730932Y-154404638D01*
X65739214Y-154427784D01*
X65745187Y-154451630D01*
X65748794Y-154475947D01*
X65750000Y-154500500D01*
X65750000Y-155499500D01*
X65748794Y-155524053D01*
X65745187Y-155548370D01*
X65739214Y-155572216D01*
X65730932Y-155595362D01*
X65720421Y-155617585D01*
X65707783Y-155638670D01*
X65693139Y-155658416D01*
X65676630Y-155676630D01*
X65658416Y-155693139D01*
X65638670Y-155707783D01*
X65617585Y-155720421D01*
X65595362Y-155730932D01*
X65572216Y-155739214D01*
X65548370Y-155745187D01*
X65524053Y-155748794D01*
X65499500Y-155750000D01*
X64500500Y-155750000D01*
X64475947Y-155748794D01*
X64451630Y-155745187D01*
X64427784Y-155739214D01*
X64404638Y-155730932D01*
X64382415Y-155720421D01*
X64361330Y-155707783D01*
X64341584Y-155693139D01*
X64323370Y-155676630D01*
X64306861Y-155658416D01*
X64292217Y-155638670D01*
X64279579Y-155617585D01*
X64269068Y-155595362D01*
X64260786Y-155572216D01*
X64254813Y-155548370D01*
X64251206Y-155524053D01*
X64250000Y-155499500D01*
X64250000Y-154500500D01*
X64251206Y-154475947D01*
X64254813Y-154451630D01*
X64260786Y-154427784D01*
X64269068Y-154404638D01*
X64279579Y-154382415D01*
X64292217Y-154361330D01*
X64306861Y-154341584D01*
X64323370Y-154323370D01*
X64341584Y-154306861D01*
X64361330Y-154292217D01*
X64382415Y-154279579D01*
X64404638Y-154269068D01*
X64427784Y-154260786D01*
X64451630Y-154254813D01*
X64475947Y-154251206D01*
X64500500Y-154250000D01*
X65499500Y-154250000D01*
X65524053Y-154251206D01*
G37*
G04 #@! TD.AperFunction*
D16*
X66270000Y-152460000D03*
X67540000Y-155000000D03*
X68810000Y-152460000D03*
X70080000Y-155000000D03*
X71350000Y-152460000D03*
X72620000Y-155000000D03*
D17*
X61570000Y-158300000D03*
D16*
X73890000Y-152460000D03*
D17*
X77320000Y-158300000D03*
D16*
X63120000Y-166430000D03*
X65660000Y-164730000D03*
X75770000Y-164730000D03*
X73230000Y-166430000D03*
G04 #@! TA.AperFunction,ComponentPad*
D15*
G36*
X86749504Y-151151204D02*
G01*
X86773773Y-151154804D01*
X86797571Y-151160765D01*
X86820671Y-151169030D01*
X86842849Y-151179520D01*
X86863893Y-151192133D01*
X86883598Y-151206747D01*
X86901777Y-151223223D01*
X86918253Y-151241402D01*
X86932867Y-151261107D01*
X86945480Y-151282151D01*
X86955970Y-151304329D01*
X86964235Y-151327429D01*
X86970196Y-151351227D01*
X86973796Y-151375496D01*
X86975000Y-151400000D01*
X86975000Y-152600000D01*
X86973796Y-152624504D01*
X86970196Y-152648773D01*
X86964235Y-152672571D01*
X86955970Y-152695671D01*
X86945480Y-152717849D01*
X86932867Y-152738893D01*
X86918253Y-152758598D01*
X86901777Y-152776777D01*
X86883598Y-152793253D01*
X86863893Y-152807867D01*
X86842849Y-152820480D01*
X86820671Y-152830970D01*
X86797571Y-152839235D01*
X86773773Y-152845196D01*
X86749504Y-152848796D01*
X86725000Y-152850000D01*
X85275000Y-152850000D01*
X85250496Y-152848796D01*
X85226227Y-152845196D01*
X85202429Y-152839235D01*
X85179329Y-152830970D01*
X85157151Y-152820480D01*
X85136107Y-152807867D01*
X85116402Y-152793253D01*
X85098223Y-152776777D01*
X85081747Y-152758598D01*
X85067133Y-152738893D01*
X85054520Y-152717849D01*
X85044030Y-152695671D01*
X85035765Y-152672571D01*
X85029804Y-152648773D01*
X85026204Y-152624504D01*
X85025000Y-152600000D01*
X85025000Y-151400000D01*
X85026204Y-151375496D01*
X85029804Y-151351227D01*
X85035765Y-151327429D01*
X85044030Y-151304329D01*
X85054520Y-151282151D01*
X85067133Y-151261107D01*
X85081747Y-151241402D01*
X85098223Y-151223223D01*
X85116402Y-151206747D01*
X85136107Y-151192133D01*
X85157151Y-151179520D01*
X85179329Y-151169030D01*
X85202429Y-151160765D01*
X85226227Y-151154804D01*
X85250496Y-151151204D01*
X85275000Y-151150000D01*
X86725000Y-151150000D01*
X86749504Y-151151204D01*
G37*
G04 #@! TD.AperFunction*
D18*
X86000000Y-149500000D03*
X86000000Y-147000000D03*
X86000000Y-144500000D03*
G04 #@! TA.AperFunction,ComponentPad*
D15*
G36*
X86749504Y-168651204D02*
G01*
X86773773Y-168654804D01*
X86797571Y-168660765D01*
X86820671Y-168669030D01*
X86842849Y-168679520D01*
X86863893Y-168692133D01*
X86883598Y-168706747D01*
X86901777Y-168723223D01*
X86918253Y-168741402D01*
X86932867Y-168761107D01*
X86945480Y-168782151D01*
X86955970Y-168804329D01*
X86964235Y-168827429D01*
X86970196Y-168851227D01*
X86973796Y-168875496D01*
X86975000Y-168900000D01*
X86975000Y-170100000D01*
X86973796Y-170124504D01*
X86970196Y-170148773D01*
X86964235Y-170172571D01*
X86955970Y-170195671D01*
X86945480Y-170217849D01*
X86932867Y-170238893D01*
X86918253Y-170258598D01*
X86901777Y-170276777D01*
X86883598Y-170293253D01*
X86863893Y-170307867D01*
X86842849Y-170320480D01*
X86820671Y-170330970D01*
X86797571Y-170339235D01*
X86773773Y-170345196D01*
X86749504Y-170348796D01*
X86725000Y-170350000D01*
X85275000Y-170350000D01*
X85250496Y-170348796D01*
X85226227Y-170345196D01*
X85202429Y-170339235D01*
X85179329Y-170330970D01*
X85157151Y-170320480D01*
X85136107Y-170307867D01*
X85116402Y-170293253D01*
X85098223Y-170276777D01*
X85081747Y-170258598D01*
X85067133Y-170238893D01*
X85054520Y-170217849D01*
X85044030Y-170195671D01*
X85035765Y-170172571D01*
X85029804Y-170148773D01*
X85026204Y-170124504D01*
X85025000Y-170100000D01*
X85025000Y-168900000D01*
X85026204Y-168875496D01*
X85029804Y-168851227D01*
X85035765Y-168827429D01*
X85044030Y-168804329D01*
X85054520Y-168782151D01*
X85067133Y-168761107D01*
X85081747Y-168741402D01*
X85098223Y-168723223D01*
X85116402Y-168706747D01*
X85136107Y-168692133D01*
X85157151Y-168679520D01*
X85179329Y-168669030D01*
X85202429Y-168660765D01*
X85226227Y-168654804D01*
X85250496Y-168651204D01*
X85275000Y-168650000D01*
X86725000Y-168650000D01*
X86749504Y-168651204D01*
G37*
G04 #@! TD.AperFunction*
D18*
X86000000Y-167000000D03*
X86000000Y-164500000D03*
X86000000Y-162000000D03*
X86000000Y-159500000D03*
D13*
X85065000Y-129675000D03*
D14*
X74905000Y-129675000D03*
X38955000Y-114525000D03*
D13*
X49115000Y-114525000D03*
X49115000Y-118575000D03*
D14*
X38955000Y-118575000D03*
X38955000Y-122625000D03*
D13*
X49115000Y-122625000D03*
D14*
X74905000Y-133725000D03*
D13*
X85065000Y-133725000D03*
X85065000Y-137775000D03*
D14*
X74905000Y-137775000D03*
D12*
X77500000Y-120000000D03*
D13*
X85120000Y-122540000D03*
X77500000Y-122540000D03*
X85120000Y-120000000D03*
D19*
X62500000Y-131500000D03*
D20*
X70120000Y-146740000D03*
X62500000Y-134040000D03*
X70120000Y-144200000D03*
X62500000Y-136580000D03*
X70120000Y-141660000D03*
X62500000Y-139120000D03*
X70120000Y-139120000D03*
X62500000Y-141660000D03*
X70120000Y-136580000D03*
X62500000Y-144200000D03*
X70120000Y-134040000D03*
X62500000Y-146740000D03*
X70120000Y-131500000D03*
D21*
X90000000Y-115000000D03*
X55000000Y-115000000D03*
X73000000Y-126000000D03*
X66500000Y-133000000D03*
X73500000Y-131500000D03*
X73000000Y-140000000D03*
X67000000Y-145500000D03*
X90000000Y-140000000D03*
X90000000Y-170000000D03*
X65000000Y-170000000D03*
X40000000Y-170000000D03*
X45000000Y-140000000D03*
X45000000Y-120000000D03*
X77500000Y-152000000D03*
X81000000Y-150000000D03*
D22*
X54240000Y-158440000D02*
X55490300Y-158440000D01*
X55490300Y-158440000D02*
X60527700Y-163477400D01*
X60527700Y-163477400D02*
X84977400Y-163477400D01*
X84977400Y-163477400D02*
X86000000Y-164500000D01*
D23*
X67540000Y-155000000D02*
X70080000Y-155000000D01*
D22*
X54240000Y-155900000D02*
X55490300Y-155900000D01*
X86000000Y-162000000D02*
X80418000Y-156418000D01*
X80418000Y-156418000D02*
X56008300Y-156418000D01*
X56008300Y-156418000D02*
X55490300Y-155900000D01*
X39000000Y-155900000D02*
X40250300Y-155900000D01*
X40250300Y-155900000D02*
X44040700Y-152109600D01*
X44040700Y-152109600D02*
X60725600Y-152109600D01*
D24*
X62835200Y-150000000D02*
X81000000Y-150000000D01*
X60725600Y-152109600D02*
X62835200Y-150000000D01*
D22*
X54520700Y-121181000D02*
X52950400Y-122751300D01*
X54520700Y-121181000D02*
X59548100Y-121181000D01*
X59548100Y-121181000D02*
X62057700Y-123690600D01*
X62057700Y-123690600D02*
X62057700Y-125088000D01*
X62057700Y-125088000D02*
X68469700Y-131500000D01*
X49115000Y-115775300D02*
X54520700Y-121181000D01*
X70120000Y-131500000D02*
X68469700Y-131500000D01*
X49115000Y-114525000D02*
X49115000Y-115775300D01*
X85065000Y-133725000D02*
X83814700Y-133725000D01*
X79905000Y-137775000D02*
X74905000Y-137775000D01*
X83814700Y-133725000D02*
X83814700Y-133865300D01*
X83814700Y-133865300D02*
X79905000Y-137775000D01*
X79905000Y-137775000D02*
X79905000Y-141825000D01*
X52950400Y-122751300D02*
X52900000Y-136100000D01*
X52900000Y-136780000D02*
X52900000Y-136100000D01*
X54240000Y-138120000D02*
X52900000Y-136780000D01*
X39000000Y-158440000D02*
X40250300Y-158440000D01*
X40250300Y-158440000D02*
X44060200Y-154630100D01*
X44060200Y-154630100D02*
X57866500Y-154630100D01*
X57866500Y-154630100D02*
X58752800Y-153743800D01*
X58752800Y-153743800D02*
X81756200Y-153743800D01*
X87475010Y-149600010D02*
X87375000Y-149500000D01*
X86641878Y-153743800D02*
X87475010Y-152910668D01*
X87375000Y-149500000D02*
X86000000Y-149500000D01*
X87475010Y-152910668D02*
X87475010Y-149600010D01*
X81756200Y-153743800D02*
X86641878Y-153743800D01*
X39000000Y-160980000D02*
X40250300Y-160980000D01*
X86000000Y-167000000D02*
X84574700Y-167000000D01*
X84574700Y-167000000D02*
X83890900Y-167683800D01*
X83890900Y-167683800D02*
X46954100Y-167683800D01*
X46954100Y-167683800D02*
X40250300Y-160980000D01*
D23*
X86000000Y-152000000D02*
X85025000Y-152000000D01*
X60099690Y-136359690D02*
X54240000Y-130500000D01*
X85025000Y-152000000D02*
X81165010Y-148140010D01*
X81165010Y-148140010D02*
X61520097Y-148140010D01*
X61520097Y-148140010D02*
X60099690Y-146719603D01*
X60099690Y-146719603D02*
X60099690Y-136359690D01*
D22*
X62500000Y-139120000D02*
X60849700Y-139120000D01*
X60849700Y-139120000D02*
X60849700Y-125750600D01*
X61000000Y-124500000D02*
X61000000Y-125600300D01*
X60849700Y-125750600D02*
X61000000Y-125600300D01*
D25*
G36*
X94340001Y-174340000D02*
G01*
X35660000Y-174340000D01*
X35660000Y-140518665D01*
X37565000Y-140518665D01*
X37565000Y-140801335D01*
X37620147Y-141078574D01*
X37728320Y-141339727D01*
X37885363Y-141574759D01*
X38085241Y-141774637D01*
X38317759Y-141930000D01*
X38085241Y-142085363D01*
X37885363Y-142285241D01*
X37728320Y-142520273D01*
X37620147Y-142781426D01*
X37565000Y-143058665D01*
X37565000Y-143341335D01*
X37620147Y-143618574D01*
X37728320Y-143879727D01*
X37885363Y-144114759D01*
X38085241Y-144314637D01*
X38317759Y-144470000D01*
X38085241Y-144625363D01*
X37885363Y-144825241D01*
X37728320Y-145060273D01*
X37620147Y-145321426D01*
X37565000Y-145598665D01*
X37565000Y-145881335D01*
X37620147Y-146158574D01*
X37728320Y-146419727D01*
X37885363Y-146654759D01*
X38085241Y-146854637D01*
X38317759Y-147010000D01*
X38085241Y-147165363D01*
X37885363Y-147365241D01*
X37728320Y-147600273D01*
X37620147Y-147861426D01*
X37565000Y-148138665D01*
X37565000Y-148421335D01*
X37620147Y-148698574D01*
X37728320Y-148959727D01*
X37885363Y-149194759D01*
X38085241Y-149394637D01*
X38317759Y-149550000D01*
X38085241Y-149705363D01*
X37885363Y-149905241D01*
X37728320Y-150140273D01*
X37620147Y-150401426D01*
X37565000Y-150678665D01*
X37565000Y-150961335D01*
X37620147Y-151238574D01*
X37728320Y-151499727D01*
X37885363Y-151734759D01*
X38085241Y-151934637D01*
X38317759Y-152090000D01*
X38085241Y-152245363D01*
X37885363Y-152445241D01*
X37728320Y-152680273D01*
X37620147Y-152941426D01*
X37565000Y-153218665D01*
X37565000Y-153501335D01*
X37620147Y-153778574D01*
X37728320Y-154039727D01*
X37885363Y-154274759D01*
X38085241Y-154474637D01*
X38317759Y-154630000D01*
X38085241Y-154785363D01*
X37885363Y-154985241D01*
X37728320Y-155220273D01*
X37620147Y-155481426D01*
X37565000Y-155758665D01*
X37565000Y-156041335D01*
X37620147Y-156318574D01*
X37728320Y-156579727D01*
X37885363Y-156814759D01*
X38085241Y-157014637D01*
X38317759Y-157170000D01*
X38085241Y-157325363D01*
X37885363Y-157525241D01*
X37728320Y-157760273D01*
X37620147Y-158021426D01*
X37565000Y-158298665D01*
X37565000Y-158581335D01*
X37620147Y-158858574D01*
X37728320Y-159119727D01*
X37885363Y-159354759D01*
X38085241Y-159554637D01*
X38317759Y-159710000D01*
X38085241Y-159865363D01*
X37885363Y-160065241D01*
X37728320Y-160300273D01*
X37620147Y-160561426D01*
X37565000Y-160838665D01*
X37565000Y-161121335D01*
X37620147Y-161398574D01*
X37728320Y-161659727D01*
X37885363Y-161894759D01*
X38085241Y-162094637D01*
X38317759Y-162250000D01*
X38085241Y-162405363D01*
X37885363Y-162605241D01*
X37728320Y-162840273D01*
X37620147Y-163101426D01*
X37565000Y-163378665D01*
X37565000Y-163661335D01*
X37620147Y-163938574D01*
X37728320Y-164199727D01*
X37885363Y-164434759D01*
X38085241Y-164634637D01*
X38317759Y-164790000D01*
X38085241Y-164945363D01*
X37885363Y-165145241D01*
X37728320Y-165380273D01*
X37620147Y-165641426D01*
X37565000Y-165918665D01*
X37565000Y-166201335D01*
X37620147Y-166478574D01*
X37728320Y-166739727D01*
X37885363Y-166974759D01*
X38085241Y-167174637D01*
X38320273Y-167331680D01*
X38581426Y-167439853D01*
X38858665Y-167495000D01*
X39141335Y-167495000D01*
X39418574Y-167439853D01*
X39679727Y-167331680D01*
X39914759Y-167174637D01*
X40114637Y-166974759D01*
X40271680Y-166739727D01*
X40379853Y-166478574D01*
X40435000Y-166201335D01*
X40435000Y-165918665D01*
X40379853Y-165641426D01*
X40271680Y-165380273D01*
X40114637Y-165145241D01*
X39914759Y-164945363D01*
X39682241Y-164790000D01*
X39914759Y-164634637D01*
X40114637Y-164434759D01*
X40271680Y-164199727D01*
X40379853Y-163938574D01*
X40435000Y-163661335D01*
X40435000Y-163378665D01*
X40379853Y-163101426D01*
X40271680Y-162840273D01*
X40114637Y-162605241D01*
X39914759Y-162405363D01*
X39682241Y-162250000D01*
X39914759Y-162094637D01*
X40084770Y-161924627D01*
X46371753Y-168211610D01*
X46396336Y-168241564D01*
X46515867Y-168339662D01*
X46641127Y-168406614D01*
X46652240Y-168412554D01*
X46800213Y-168457442D01*
X46875126Y-168464820D01*
X46915539Y-168468800D01*
X46915544Y-168468800D01*
X46954100Y-168472597D01*
X46992656Y-168468800D01*
X83852347Y-168468800D01*
X83890900Y-168472597D01*
X83929453Y-168468800D01*
X83929461Y-168468800D01*
X84044787Y-168457441D01*
X84192760Y-168412554D01*
X84329133Y-168339662D01*
X84448664Y-168241564D01*
X84473247Y-168211611D01*
X84734158Y-167950699D01*
X84819866Y-168055134D01*
X84883337Y-168107223D01*
X84781614Y-168161595D01*
X84647038Y-168272038D01*
X84536595Y-168406614D01*
X84454528Y-168560150D01*
X84403992Y-168726746D01*
X84386928Y-168900000D01*
X84386928Y-170100000D01*
X84403992Y-170273254D01*
X84454528Y-170439850D01*
X84536595Y-170593386D01*
X84647038Y-170727962D01*
X84781614Y-170838405D01*
X84935150Y-170920472D01*
X85101746Y-170971008D01*
X85275000Y-170988072D01*
X86725000Y-170988072D01*
X86898254Y-170971008D01*
X87064850Y-170920472D01*
X87218386Y-170838405D01*
X87352962Y-170727962D01*
X87463405Y-170593386D01*
X87545472Y-170439850D01*
X87596008Y-170273254D01*
X87613072Y-170100000D01*
X87613072Y-168900000D01*
X87596008Y-168726746D01*
X87545472Y-168560150D01*
X87463405Y-168406614D01*
X87352962Y-168272038D01*
X87218386Y-168161595D01*
X87116663Y-168107223D01*
X87180134Y-168055134D01*
X87365706Y-167829014D01*
X87503599Y-167571034D01*
X87588513Y-167291111D01*
X87617185Y-167000000D01*
X87588513Y-166708889D01*
X87503599Y-166428966D01*
X87365706Y-166170986D01*
X87180134Y-165944866D01*
X86954014Y-165759294D01*
X86936626Y-165750000D01*
X86954014Y-165740706D01*
X87180134Y-165555134D01*
X87365706Y-165329014D01*
X87503599Y-165071034D01*
X87588513Y-164791111D01*
X87617185Y-164500000D01*
X87588513Y-164208889D01*
X87503599Y-163928966D01*
X87365706Y-163670986D01*
X87180134Y-163444866D01*
X86954014Y-163259294D01*
X86936626Y-163250000D01*
X86954014Y-163240706D01*
X87180134Y-163055134D01*
X87365706Y-162829014D01*
X87503599Y-162571034D01*
X87588513Y-162291111D01*
X87617185Y-162000000D01*
X87588513Y-161708889D01*
X87503599Y-161428966D01*
X87365706Y-161170986D01*
X87180134Y-160944866D01*
X86954014Y-160759294D01*
X86928278Y-160745538D01*
X87134429Y-160589049D01*
X87327496Y-160371193D01*
X87474352Y-160119858D01*
X87566476Y-159856890D01*
X87445155Y-159627000D01*
X86127000Y-159627000D01*
X86127000Y-159647000D01*
X85873000Y-159647000D01*
X85873000Y-159627000D01*
X85853000Y-159627000D01*
X85853000Y-159373000D01*
X85873000Y-159373000D01*
X85873000Y-158173835D01*
X86127000Y-158173835D01*
X86127000Y-159373000D01*
X87445155Y-159373000D01*
X87566476Y-159143110D01*
X87474352Y-158880142D01*
X87327496Y-158628807D01*
X87134429Y-158410951D01*
X86902570Y-158234947D01*
X86640830Y-158107558D01*
X86359267Y-158033680D01*
X86127000Y-158173835D01*
X85873000Y-158173835D01*
X85640733Y-158033680D01*
X85359170Y-158107558D01*
X85097430Y-158234947D01*
X84865571Y-158410951D01*
X84672504Y-158628807D01*
X84525648Y-158880142D01*
X84433524Y-159143110D01*
X84554844Y-159372998D01*
X84483156Y-159372998D01*
X81000346Y-155890189D01*
X80975764Y-155860236D01*
X80856233Y-155762138D01*
X80719860Y-155689246D01*
X80571887Y-155644359D01*
X80456561Y-155633000D01*
X80456553Y-155633000D01*
X80418000Y-155629203D01*
X80379447Y-155633000D01*
X73852868Y-155633000D01*
X73931760Y-155464884D01*
X73997250Y-155200040D01*
X74009812Y-154927508D01*
X73968965Y-154657762D01*
X73922381Y-154528800D01*
X86603325Y-154528800D01*
X86641878Y-154532597D01*
X86680431Y-154528800D01*
X86680439Y-154528800D01*
X86795765Y-154517441D01*
X86943738Y-154472554D01*
X87080111Y-154399662D01*
X87199642Y-154301564D01*
X87224225Y-154271610D01*
X88002821Y-153493014D01*
X88032774Y-153468432D01*
X88130872Y-153348901D01*
X88203764Y-153212528D01*
X88219257Y-153161455D01*
X88248652Y-153064555D01*
X88256030Y-152989642D01*
X88260010Y-152949229D01*
X88260010Y-152949224D01*
X88263807Y-152910668D01*
X88260010Y-152872112D01*
X88260010Y-149638562D01*
X88263807Y-149600009D01*
X88260010Y-149561456D01*
X88260010Y-149561449D01*
X88248651Y-149446123D01*
X88203764Y-149298150D01*
X88130872Y-149161777D01*
X88032774Y-149042246D01*
X88002820Y-149017663D01*
X87957347Y-148972190D01*
X87932764Y-148942236D01*
X87813233Y-148844138D01*
X87676860Y-148771246D01*
X87528887Y-148726359D01*
X87413561Y-148715000D01*
X87413553Y-148715000D01*
X87387880Y-148712472D01*
X87365706Y-148670986D01*
X87180134Y-148444866D01*
X86954014Y-148259294D01*
X86936626Y-148250000D01*
X86954014Y-148240706D01*
X87180134Y-148055134D01*
X87365706Y-147829014D01*
X87503599Y-147571034D01*
X87588513Y-147291111D01*
X87617185Y-147000000D01*
X87588513Y-146708889D01*
X87503599Y-146428966D01*
X87365706Y-146170986D01*
X87180134Y-145944866D01*
X86954014Y-145759294D01*
X86928278Y-145745538D01*
X87134429Y-145589049D01*
X87327496Y-145371193D01*
X87474352Y-145119858D01*
X87566476Y-144856890D01*
X87445155Y-144627000D01*
X86127000Y-144627000D01*
X86127000Y-144647000D01*
X85873000Y-144647000D01*
X85873000Y-144627000D01*
X84554845Y-144627000D01*
X84433524Y-144856890D01*
X84525648Y-145119858D01*
X84672504Y-145371193D01*
X84865571Y-145589049D01*
X85071722Y-145745538D01*
X85045986Y-145759294D01*
X84819866Y-145944866D01*
X84634294Y-146170986D01*
X84496401Y-146428966D01*
X84411487Y-146708889D01*
X84382815Y-147000000D01*
X84411487Y-147291111D01*
X84496401Y-147571034D01*
X84634294Y-147829014D01*
X84819866Y-148055134D01*
X85045986Y-148240706D01*
X85063374Y-148250000D01*
X85045986Y-148259294D01*
X84819866Y-148444866D01*
X84634294Y-148670986D01*
X84496401Y-148928966D01*
X84411487Y-149208889D01*
X84382815Y-149500000D01*
X84411487Y-149791111D01*
X84496401Y-150071034D01*
X84586055Y-150238766D01*
X81858640Y-147511351D01*
X81829354Y-147475666D01*
X81686982Y-147358824D01*
X81524550Y-147272003D01*
X81348302Y-147218539D01*
X81210942Y-147205010D01*
X81165010Y-147200486D01*
X81119078Y-147205010D01*
X71878512Y-147205010D01*
X71934236Y-147021309D01*
X71961943Y-146740000D01*
X71934236Y-146458691D01*
X71852182Y-146188192D01*
X71718932Y-145938899D01*
X71539608Y-145720392D01*
X71321101Y-145541068D01*
X71188142Y-145470000D01*
X71321101Y-145398932D01*
X71539608Y-145219608D01*
X71718932Y-145001101D01*
X71852182Y-144751808D01*
X71934236Y-144481309D01*
X71961943Y-144200000D01*
X71956340Y-144143110D01*
X84433524Y-144143110D01*
X84554845Y-144373000D01*
X85873000Y-144373000D01*
X85873000Y-143173835D01*
X86127000Y-143173835D01*
X86127000Y-144373000D01*
X87445155Y-144373000D01*
X87566476Y-144143110D01*
X87474352Y-143880142D01*
X87327496Y-143628807D01*
X87134429Y-143410951D01*
X86902570Y-143234947D01*
X86640830Y-143107558D01*
X86359267Y-143033680D01*
X86127000Y-143173835D01*
X85873000Y-143173835D01*
X85640733Y-143033680D01*
X85359170Y-143107558D01*
X85097430Y-143234947D01*
X84865571Y-143410951D01*
X84672504Y-143628807D01*
X84525648Y-143880142D01*
X84433524Y-144143110D01*
X71956340Y-144143110D01*
X71934236Y-143918691D01*
X71852182Y-143648192D01*
X71718932Y-143398899D01*
X71539608Y-143180392D01*
X71321101Y-143001068D01*
X71188142Y-142930000D01*
X71321101Y-142858932D01*
X71371339Y-142817702D01*
X74091903Y-142817702D01*
X74163486Y-143061671D01*
X74418996Y-143182571D01*
X74693184Y-143251300D01*
X74975512Y-143265217D01*
X75255130Y-143223787D01*
X75521292Y-143128603D01*
X75646514Y-143061671D01*
X75718097Y-142817702D01*
X74905000Y-142004605D01*
X74091903Y-142817702D01*
X71371339Y-142817702D01*
X71539608Y-142679608D01*
X71718932Y-142461101D01*
X71852182Y-142211808D01*
X71934236Y-141941309D01*
X71938746Y-141895512D01*
X73464783Y-141895512D01*
X73506213Y-142175130D01*
X73601397Y-142441292D01*
X73668329Y-142566514D01*
X73912298Y-142638097D01*
X74725395Y-141825000D01*
X75084605Y-141825000D01*
X75897702Y-142638097D01*
X76141671Y-142566514D01*
X76262571Y-142311004D01*
X76331300Y-142036816D01*
X76345217Y-141754488D01*
X76303787Y-141474870D01*
X76208603Y-141208708D01*
X76141671Y-141083486D01*
X75897702Y-141011903D01*
X75084605Y-141825000D01*
X74725395Y-141825000D01*
X73912298Y-141011903D01*
X73668329Y-141083486D01*
X73547429Y-141338996D01*
X73478700Y-141613184D01*
X73464783Y-141895512D01*
X71938746Y-141895512D01*
X71961943Y-141660000D01*
X71934236Y-141378691D01*
X71852182Y-141108192D01*
X71718932Y-140858899D01*
X71697102Y-140832298D01*
X74091903Y-140832298D01*
X74905000Y-141645395D01*
X75718097Y-140832298D01*
X75646514Y-140588329D01*
X75391004Y-140467429D01*
X75116816Y-140398700D01*
X74834488Y-140384783D01*
X74554870Y-140426213D01*
X74288708Y-140521397D01*
X74163486Y-140588329D01*
X74091903Y-140832298D01*
X71697102Y-140832298D01*
X71539608Y-140640392D01*
X71321101Y-140461068D01*
X71188142Y-140390000D01*
X71321101Y-140318932D01*
X71539608Y-140139608D01*
X71718932Y-139921101D01*
X71852182Y-139671808D01*
X71934236Y-139401309D01*
X71961943Y-139120000D01*
X71934236Y-138838691D01*
X71852182Y-138568192D01*
X71718932Y-138318899D01*
X71539608Y-138100392D01*
X71321101Y-137921068D01*
X71188142Y-137850000D01*
X71321101Y-137778932D01*
X71498109Y-137633665D01*
X73470000Y-137633665D01*
X73470000Y-137916335D01*
X73525147Y-138193574D01*
X73633320Y-138454727D01*
X73790363Y-138689759D01*
X73990241Y-138889637D01*
X74225273Y-139046680D01*
X74486426Y-139154853D01*
X74763665Y-139210000D01*
X75046335Y-139210000D01*
X75323574Y-139154853D01*
X75584727Y-139046680D01*
X75819759Y-138889637D01*
X76019637Y-138689759D01*
X76106339Y-138560000D01*
X79120000Y-138560000D01*
X79120001Y-140623661D01*
X78990241Y-140710363D01*
X78790363Y-140910241D01*
X78633320Y-141145273D01*
X78525147Y-141406426D01*
X78470000Y-141683665D01*
X78470000Y-141966335D01*
X78525147Y-142243574D01*
X78633320Y-142504727D01*
X78790363Y-142739759D01*
X78990241Y-142939637D01*
X79225273Y-143096680D01*
X79486426Y-143204853D01*
X79763665Y-143260000D01*
X80046335Y-143260000D01*
X80323574Y-143204853D01*
X80584727Y-143096680D01*
X80819759Y-142939637D01*
X81019637Y-142739759D01*
X81176680Y-142504727D01*
X81284853Y-142243574D01*
X81340000Y-141966335D01*
X81340000Y-141683665D01*
X81284853Y-141406426D01*
X81176680Y-141145273D01*
X81019637Y-140910241D01*
X80819759Y-140710363D01*
X80690000Y-140623661D01*
X80690000Y-138100157D01*
X81156492Y-137633665D01*
X83630000Y-137633665D01*
X83630000Y-137916335D01*
X83685147Y-138193574D01*
X83793320Y-138454727D01*
X83950363Y-138689759D01*
X84150241Y-138889637D01*
X84385273Y-139046680D01*
X84646426Y-139154853D01*
X84923665Y-139210000D01*
X85206335Y-139210000D01*
X85483574Y-139154853D01*
X85744727Y-139046680D01*
X85979759Y-138889637D01*
X86179637Y-138689759D01*
X86336680Y-138454727D01*
X86444853Y-138193574D01*
X86500000Y-137916335D01*
X86500000Y-137633665D01*
X86444853Y-137356426D01*
X86336680Y-137095273D01*
X86179637Y-136860241D01*
X85979759Y-136660363D01*
X85744727Y-136503320D01*
X85483574Y-136395147D01*
X85206335Y-136340000D01*
X84923665Y-136340000D01*
X84646426Y-136395147D01*
X84385273Y-136503320D01*
X84150241Y-136660363D01*
X83950363Y-136860241D01*
X83793320Y-137095273D01*
X83685147Y-137356426D01*
X83630000Y-137633665D01*
X81156492Y-137633665D01*
X84050381Y-134739777D01*
X84150241Y-134839637D01*
X84385273Y-134996680D01*
X84646426Y-135104853D01*
X84923665Y-135160000D01*
X85206335Y-135160000D01*
X85483574Y-135104853D01*
X85744727Y-134996680D01*
X85979759Y-134839637D01*
X86179637Y-134639759D01*
X86336680Y-134404727D01*
X86444853Y-134143574D01*
X86500000Y-133866335D01*
X86500000Y-133583665D01*
X86444853Y-133306426D01*
X86336680Y-133045273D01*
X86179637Y-132810241D01*
X85979759Y-132610363D01*
X85744727Y-132453320D01*
X85483574Y-132345147D01*
X85206335Y-132290000D01*
X84923665Y-132290000D01*
X84646426Y-132345147D01*
X84385273Y-132453320D01*
X84150241Y-132610363D01*
X83950363Y-132810241D01*
X83863661Y-132940000D01*
X83853260Y-132940000D01*
X83814700Y-132936202D01*
X83776139Y-132940000D01*
X83660813Y-132951359D01*
X83512840Y-132996246D01*
X83376467Y-133069138D01*
X83256936Y-133167236D01*
X83158838Y-133286767D01*
X83085946Y-133423140D01*
X83059490Y-133510353D01*
X79579843Y-136990000D01*
X76106339Y-136990000D01*
X76019637Y-136860241D01*
X75819759Y-136660363D01*
X75584727Y-136503320D01*
X75323574Y-136395147D01*
X75046335Y-136340000D01*
X74763665Y-136340000D01*
X74486426Y-136395147D01*
X74225273Y-136503320D01*
X73990241Y-136660363D01*
X73790363Y-136860241D01*
X73633320Y-137095273D01*
X73525147Y-137356426D01*
X73470000Y-137633665D01*
X71498109Y-137633665D01*
X71539608Y-137599608D01*
X71718932Y-137381101D01*
X71852182Y-137131808D01*
X71934236Y-136861309D01*
X71961943Y-136580000D01*
X71934236Y-136298691D01*
X71852182Y-136028192D01*
X71718932Y-135778899D01*
X71539608Y-135560392D01*
X71321101Y-135381068D01*
X71188142Y-135310000D01*
X71321101Y-135238932D01*
X71539608Y-135059608D01*
X71718932Y-134841101D01*
X71852182Y-134591808D01*
X71934236Y-134321309D01*
X71961943Y-134040000D01*
X71934236Y-133758691D01*
X71881144Y-133583665D01*
X73470000Y-133583665D01*
X73470000Y-133866335D01*
X73525147Y-134143574D01*
X73633320Y-134404727D01*
X73790363Y-134639759D01*
X73990241Y-134839637D01*
X74225273Y-134996680D01*
X74486426Y-135104853D01*
X74763665Y-135160000D01*
X75046335Y-135160000D01*
X75323574Y-135104853D01*
X75584727Y-134996680D01*
X75819759Y-134839637D01*
X76019637Y-134639759D01*
X76176680Y-134404727D01*
X76284853Y-134143574D01*
X76340000Y-133866335D01*
X76340000Y-133583665D01*
X76284853Y-133306426D01*
X76176680Y-133045273D01*
X76019637Y-132810241D01*
X75819759Y-132610363D01*
X75584727Y-132453320D01*
X75323574Y-132345147D01*
X75046335Y-132290000D01*
X74763665Y-132290000D01*
X74486426Y-132345147D01*
X74225273Y-132453320D01*
X73990241Y-132610363D01*
X73790363Y-132810241D01*
X73633320Y-133045273D01*
X73525147Y-133306426D01*
X73470000Y-133583665D01*
X71881144Y-133583665D01*
X71852182Y-133488192D01*
X71718932Y-133238899D01*
X71539608Y-133020392D01*
X71321101Y-132841068D01*
X71188142Y-132770000D01*
X71321101Y-132698932D01*
X71539608Y-132519608D01*
X71718932Y-132301101D01*
X71852182Y-132051808D01*
X71934236Y-131781309D01*
X71961943Y-131500000D01*
X71934236Y-131218691D01*
X71852182Y-130948192D01*
X71718932Y-130698899D01*
X71539608Y-130480392D01*
X71321101Y-130301068D01*
X71071808Y-130167818D01*
X70801309Y-130085764D01*
X70590492Y-130065000D01*
X69649508Y-130065000D01*
X69438691Y-130085764D01*
X69168192Y-130167818D01*
X68918899Y-130301068D01*
X68700392Y-130480392D01*
X68637222Y-130557364D01*
X67613523Y-129533665D01*
X73470000Y-129533665D01*
X73470000Y-129816335D01*
X73525147Y-130093574D01*
X73633320Y-130354727D01*
X73790363Y-130589759D01*
X73990241Y-130789637D01*
X74225273Y-130946680D01*
X74486426Y-131054853D01*
X74763665Y-131110000D01*
X75046335Y-131110000D01*
X75323574Y-131054853D01*
X75584727Y-130946680D01*
X75819759Y-130789637D01*
X76019637Y-130589759D01*
X76176680Y-130354727D01*
X76284853Y-130093574D01*
X76340000Y-129816335D01*
X76340000Y-129533665D01*
X83630000Y-129533665D01*
X83630000Y-129816335D01*
X83685147Y-130093574D01*
X83793320Y-130354727D01*
X83950363Y-130589759D01*
X84150241Y-130789637D01*
X84385273Y-130946680D01*
X84646426Y-131054853D01*
X84923665Y-131110000D01*
X85206335Y-131110000D01*
X85483574Y-131054853D01*
X85744727Y-130946680D01*
X85979759Y-130789637D01*
X86179637Y-130589759D01*
X86336680Y-130354727D01*
X86444853Y-130093574D01*
X86500000Y-129816335D01*
X86500000Y-129533665D01*
X86444853Y-129256426D01*
X86336680Y-128995273D01*
X86179637Y-128760241D01*
X85979759Y-128560363D01*
X85744727Y-128403320D01*
X85483574Y-128295147D01*
X85206335Y-128240000D01*
X84923665Y-128240000D01*
X84646426Y-128295147D01*
X84385273Y-128403320D01*
X84150241Y-128560363D01*
X83950363Y-128760241D01*
X83793320Y-128995273D01*
X83685147Y-129256426D01*
X83630000Y-129533665D01*
X76340000Y-129533665D01*
X76284853Y-129256426D01*
X76176680Y-128995273D01*
X76019637Y-128760241D01*
X75819759Y-128560363D01*
X75584727Y-128403320D01*
X75323574Y-128295147D01*
X75046335Y-128240000D01*
X74763665Y-128240000D01*
X74486426Y-128295147D01*
X74225273Y-128403320D01*
X73990241Y-128560363D01*
X73790363Y-128760241D01*
X73633320Y-128995273D01*
X73525147Y-129256426D01*
X73470000Y-129533665D01*
X67613523Y-129533665D01*
X63771637Y-125691780D01*
X63845810Y-125743964D01*
X64023784Y-125679184D01*
X64220149Y-125564547D01*
X64390377Y-125413803D01*
X64527925Y-125232746D01*
X64627508Y-125028334D01*
X64685298Y-124808422D01*
X64541141Y-124627000D01*
X63667000Y-124627000D01*
X63667000Y-124647000D01*
X63413000Y-124647000D01*
X63413000Y-124627000D01*
X63393000Y-124627000D01*
X63393000Y-124373000D01*
X63413000Y-124373000D01*
X63413000Y-123381837D01*
X63667000Y-123381837D01*
X63667000Y-124373000D01*
X64541141Y-124373000D01*
X64584827Y-124318021D01*
X64920000Y-124318021D01*
X64920000Y-124681978D01*
X64936785Y-124852399D01*
X65003115Y-125071059D01*
X65110829Y-125272578D01*
X65255788Y-125449212D01*
X65432421Y-125594171D01*
X65633940Y-125701885D01*
X65852600Y-125768215D01*
X66080000Y-125790612D01*
X66307399Y-125768215D01*
X66526059Y-125701885D01*
X66727578Y-125594171D01*
X66904212Y-125449212D01*
X67049171Y-125272579D01*
X67156885Y-125071060D01*
X67223215Y-124852400D01*
X67240000Y-124681979D01*
X67240000Y-124318022D01*
X67223215Y-124147601D01*
X67156885Y-123928941D01*
X67049171Y-123727422D01*
X66904212Y-123550788D01*
X66727579Y-123405829D01*
X66526060Y-123298115D01*
X66307400Y-123231785D01*
X66080000Y-123209388D01*
X65852601Y-123231785D01*
X65633941Y-123298115D01*
X65432422Y-123405829D01*
X65255789Y-123550788D01*
X65110829Y-123727421D01*
X65003115Y-123928940D01*
X64936785Y-124147600D01*
X64920000Y-124318021D01*
X64584827Y-124318021D01*
X64685298Y-124191578D01*
X64627508Y-123971666D01*
X64527925Y-123767254D01*
X64390377Y-123586197D01*
X64220149Y-123435453D01*
X64023784Y-123320816D01*
X63845810Y-123256036D01*
X63667000Y-123381837D01*
X63413000Y-123381837D01*
X63234190Y-123256036D01*
X63056216Y-123320816D01*
X62859851Y-123435453D01*
X62813165Y-123476795D01*
X62786454Y-123388740D01*
X62713562Y-123252367D01*
X62615464Y-123132836D01*
X62585517Y-123108259D01*
X60130447Y-120653190D01*
X60105864Y-120623236D01*
X59986333Y-120525138D01*
X59849960Y-120452246D01*
X59701987Y-120407359D01*
X59586661Y-120396000D01*
X59586653Y-120396000D01*
X59548100Y-120392203D01*
X59509547Y-120396000D01*
X54845858Y-120396000D01*
X53649858Y-119200000D01*
X76061928Y-119200000D01*
X76061928Y-120800000D01*
X76074188Y-120924482D01*
X76110498Y-121044180D01*
X76169463Y-121154494D01*
X76248815Y-121251185D01*
X76345506Y-121330537D01*
X76455820Y-121389502D01*
X76575518Y-121425812D01*
X76583961Y-121426643D01*
X76385363Y-121625241D01*
X76228320Y-121860273D01*
X76120147Y-122121426D01*
X76065000Y-122398665D01*
X76065000Y-122681335D01*
X76120147Y-122958574D01*
X76228320Y-123219727D01*
X76385363Y-123454759D01*
X76585241Y-123654637D01*
X76820273Y-123811680D01*
X77081426Y-123919853D01*
X77358665Y-123975000D01*
X77641335Y-123975000D01*
X77918574Y-123919853D01*
X78179727Y-123811680D01*
X78414759Y-123654637D01*
X78614637Y-123454759D01*
X78771680Y-123219727D01*
X78879853Y-122958574D01*
X78935000Y-122681335D01*
X78935000Y-122398665D01*
X78879853Y-122121426D01*
X78771680Y-121860273D01*
X78614637Y-121625241D01*
X78416039Y-121426643D01*
X78424482Y-121425812D01*
X78544180Y-121389502D01*
X78654494Y-121330537D01*
X78751185Y-121251185D01*
X78830537Y-121154494D01*
X78889502Y-121044180D01*
X78925812Y-120924482D01*
X78938072Y-120800000D01*
X78938072Y-119858665D01*
X83685000Y-119858665D01*
X83685000Y-120141335D01*
X83740147Y-120418574D01*
X83848320Y-120679727D01*
X84005363Y-120914759D01*
X84205241Y-121114637D01*
X84437759Y-121270000D01*
X84205241Y-121425363D01*
X84005363Y-121625241D01*
X83848320Y-121860273D01*
X83740147Y-122121426D01*
X83685000Y-122398665D01*
X83685000Y-122681335D01*
X83740147Y-122958574D01*
X83848320Y-123219727D01*
X84005363Y-123454759D01*
X84205241Y-123654637D01*
X84440273Y-123811680D01*
X84701426Y-123919853D01*
X84978665Y-123975000D01*
X85261335Y-123975000D01*
X85538574Y-123919853D01*
X85799727Y-123811680D01*
X86034759Y-123654637D01*
X86234637Y-123454759D01*
X86391680Y-123219727D01*
X86499853Y-122958574D01*
X86555000Y-122681335D01*
X86555000Y-122398665D01*
X86499853Y-122121426D01*
X86391680Y-121860273D01*
X86234637Y-121625241D01*
X86034759Y-121425363D01*
X85802241Y-121270000D01*
X86034759Y-121114637D01*
X86234637Y-120914759D01*
X86391680Y-120679727D01*
X86499853Y-120418574D01*
X86555000Y-120141335D01*
X86555000Y-119858665D01*
X86499853Y-119581426D01*
X86391680Y-119320273D01*
X86234637Y-119085241D01*
X86034759Y-118885363D01*
X85799727Y-118728320D01*
X85538574Y-118620147D01*
X85261335Y-118565000D01*
X84978665Y-118565000D01*
X84701426Y-118620147D01*
X84440273Y-118728320D01*
X84205241Y-118885363D01*
X84005363Y-119085241D01*
X83848320Y-119320273D01*
X83740147Y-119581426D01*
X83685000Y-119858665D01*
X78938072Y-119858665D01*
X78938072Y-119200000D01*
X78925812Y-119075518D01*
X78889502Y-118955820D01*
X78830537Y-118845506D01*
X78751185Y-118748815D01*
X78654494Y-118669463D01*
X78544180Y-118610498D01*
X78424482Y-118574188D01*
X78300000Y-118561928D01*
X76700000Y-118561928D01*
X76575518Y-118574188D01*
X76455820Y-118610498D01*
X76345506Y-118669463D01*
X76248815Y-118748815D01*
X76169463Y-118845506D01*
X76110498Y-118955820D01*
X76074188Y-119075518D01*
X76061928Y-119200000D01*
X53649858Y-119200000D01*
X50059627Y-115609769D01*
X50229637Y-115439759D01*
X50386680Y-115204727D01*
X50494853Y-114943574D01*
X50550000Y-114666335D01*
X50550000Y-114383665D01*
X50494853Y-114106426D01*
X50386680Y-113845273D01*
X50229637Y-113610241D01*
X50029759Y-113410363D01*
X49794727Y-113253320D01*
X49533574Y-113145147D01*
X49256335Y-113090000D01*
X48973665Y-113090000D01*
X48696426Y-113145147D01*
X48435273Y-113253320D01*
X48200241Y-113410363D01*
X48000363Y-113610241D01*
X47843320Y-113845273D01*
X47735147Y-114106426D01*
X47680000Y-114383665D01*
X47680000Y-114666335D01*
X47735147Y-114943574D01*
X47843320Y-115204727D01*
X48000363Y-115439759D01*
X48200241Y-115639637D01*
X48330001Y-115726340D01*
X48330001Y-115736738D01*
X48326203Y-115775300D01*
X48341359Y-115929186D01*
X48386246Y-116077159D01*
X48386247Y-116077160D01*
X48459139Y-116213533D01*
X48499690Y-116262944D01*
X48532655Y-116303112D01*
X48532659Y-116303116D01*
X48557237Y-116333064D01*
X48587185Y-116357642D01*
X49397653Y-117168110D01*
X49256335Y-117140000D01*
X48973665Y-117140000D01*
X48696426Y-117195147D01*
X48435273Y-117303320D01*
X48200241Y-117460363D01*
X48000363Y-117660241D01*
X47843320Y-117895273D01*
X47735147Y-118156426D01*
X47680000Y-118433665D01*
X47680000Y-118716335D01*
X47735147Y-118993574D01*
X47843320Y-119254727D01*
X48000363Y-119489759D01*
X48200241Y-119689637D01*
X48435273Y-119846680D01*
X48696426Y-119954853D01*
X48973665Y-120010000D01*
X49256335Y-120010000D01*
X49533574Y-119954853D01*
X49794727Y-119846680D01*
X50029759Y-119689637D01*
X50229637Y-119489759D01*
X50386680Y-119254727D01*
X50494853Y-118993574D01*
X50550000Y-118716335D01*
X50550000Y-118433665D01*
X50521890Y-118292347D01*
X53410543Y-121181000D01*
X52423634Y-122167909D01*
X52394746Y-122191435D01*
X52369109Y-122222434D01*
X52368055Y-122223488D01*
X52344523Y-122252162D01*
X52296198Y-122310594D01*
X52295486Y-122311914D01*
X52294539Y-122313068D01*
X52258845Y-122379847D01*
X52222791Y-122446691D01*
X52222351Y-122448122D01*
X52221646Y-122449441D01*
X52199620Y-122522051D01*
X52177346Y-122594494D01*
X52177194Y-122595980D01*
X52176759Y-122597414D01*
X52169321Y-122672933D01*
X52165552Y-122709776D01*
X52165546Y-122711261D01*
X52161603Y-122751300D01*
X52165255Y-122788383D01*
X52115147Y-136059950D01*
X52115000Y-136061439D01*
X52115000Y-136098781D01*
X52114861Y-136135596D01*
X52115000Y-136137064D01*
X52115000Y-136741447D01*
X52111203Y-136780000D01*
X52115000Y-136818553D01*
X52115000Y-136818560D01*
X52126359Y-136933886D01*
X52171246Y-137081859D01*
X52244138Y-137218232D01*
X52342236Y-137337764D01*
X52372190Y-137362347D01*
X52835446Y-137825604D01*
X52805000Y-137978665D01*
X52805000Y-138261335D01*
X52860147Y-138538574D01*
X52968320Y-138799727D01*
X53125363Y-139034759D01*
X53325241Y-139234637D01*
X53557759Y-139390000D01*
X53325241Y-139545363D01*
X53125363Y-139745241D01*
X52968320Y-139980273D01*
X52860147Y-140241426D01*
X52805000Y-140518665D01*
X52805000Y-140801335D01*
X52860147Y-141078574D01*
X52968320Y-141339727D01*
X53125363Y-141574759D01*
X53325241Y-141774637D01*
X53557759Y-141930000D01*
X53325241Y-142085363D01*
X53125363Y-142285241D01*
X52968320Y-142520273D01*
X52860147Y-142781426D01*
X52805000Y-143058665D01*
X52805000Y-143341335D01*
X52860147Y-143618574D01*
X52968320Y-143879727D01*
X53125363Y-144114759D01*
X53325241Y-144314637D01*
X53557759Y-144470000D01*
X53325241Y-144625363D01*
X53125363Y-144825241D01*
X52968320Y-145060273D01*
X52860147Y-145321426D01*
X52805000Y-145598665D01*
X52805000Y-145881335D01*
X52860147Y-146158574D01*
X52968320Y-146419727D01*
X53125363Y-146654759D01*
X53325241Y-146854637D01*
X53557759Y-147010000D01*
X53325241Y-147165363D01*
X53125363Y-147365241D01*
X52968320Y-147600273D01*
X52860147Y-147861426D01*
X52805000Y-148138665D01*
X52805000Y-148421335D01*
X52860147Y-148698574D01*
X52968320Y-148959727D01*
X53125363Y-149194759D01*
X53325241Y-149394637D01*
X53557759Y-149550000D01*
X53325241Y-149705363D01*
X53125363Y-149905241D01*
X52968320Y-150140273D01*
X52860147Y-150401426D01*
X52805000Y-150678665D01*
X52805000Y-150961335D01*
X52860147Y-151238574D01*
X52895780Y-151324600D01*
X44079252Y-151324600D01*
X44040699Y-151320803D01*
X44002146Y-151324600D01*
X44002139Y-151324600D01*
X43901190Y-151334543D01*
X43886812Y-151335959D01*
X43770200Y-151371333D01*
X43738840Y-151380846D01*
X43602467Y-151453738D01*
X43546430Y-151499727D01*
X43512887Y-151527255D01*
X43512884Y-151527258D01*
X43482936Y-151551836D01*
X43458358Y-151581784D01*
X40084769Y-154955373D01*
X39914759Y-154785363D01*
X39682241Y-154630000D01*
X39914759Y-154474637D01*
X40114637Y-154274759D01*
X40271680Y-154039727D01*
X40379853Y-153778574D01*
X40435000Y-153501335D01*
X40435000Y-153218665D01*
X40379853Y-152941426D01*
X40271680Y-152680273D01*
X40114637Y-152445241D01*
X39914759Y-152245363D01*
X39682241Y-152090000D01*
X39914759Y-151934637D01*
X40114637Y-151734759D01*
X40271680Y-151499727D01*
X40379853Y-151238574D01*
X40435000Y-150961335D01*
X40435000Y-150678665D01*
X40379853Y-150401426D01*
X40271680Y-150140273D01*
X40114637Y-149905241D01*
X39914759Y-149705363D01*
X39682241Y-149550000D01*
X39914759Y-149394637D01*
X40114637Y-149194759D01*
X40271680Y-148959727D01*
X40379853Y-148698574D01*
X40435000Y-148421335D01*
X40435000Y-148138665D01*
X40379853Y-147861426D01*
X40271680Y-147600273D01*
X40114637Y-147365241D01*
X39914759Y-147165363D01*
X39682241Y-147010000D01*
X39914759Y-146854637D01*
X40114637Y-146654759D01*
X40271680Y-146419727D01*
X40379853Y-146158574D01*
X40435000Y-145881335D01*
X40435000Y-145598665D01*
X40379853Y-145321426D01*
X40271680Y-145060273D01*
X40114637Y-144825241D01*
X39914759Y-144625363D01*
X39682241Y-144470000D01*
X39914759Y-144314637D01*
X40114637Y-144114759D01*
X40271680Y-143879727D01*
X40379853Y-143618574D01*
X40435000Y-143341335D01*
X40435000Y-143058665D01*
X40379853Y-142781426D01*
X40271680Y-142520273D01*
X40114637Y-142285241D01*
X39914759Y-142085363D01*
X39682241Y-141930000D01*
X39914759Y-141774637D01*
X40114637Y-141574759D01*
X40271680Y-141339727D01*
X40379853Y-141078574D01*
X40435000Y-140801335D01*
X40435000Y-140518665D01*
X40379853Y-140241426D01*
X40271680Y-139980273D01*
X40114637Y-139745241D01*
X39914759Y-139545363D01*
X39679727Y-139388320D01*
X39669135Y-139383933D01*
X39855131Y-139272385D01*
X40063519Y-139083414D01*
X40231037Y-138857420D01*
X40351246Y-138603087D01*
X40391904Y-138469039D01*
X40269915Y-138247000D01*
X39127000Y-138247000D01*
X39127000Y-138267000D01*
X38873000Y-138267000D01*
X38873000Y-138247000D01*
X37730085Y-138247000D01*
X37608096Y-138469039D01*
X37648754Y-138603087D01*
X37768963Y-138857420D01*
X37936481Y-139083414D01*
X38144869Y-139272385D01*
X38330865Y-139383933D01*
X38320273Y-139388320D01*
X38085241Y-139545363D01*
X37885363Y-139745241D01*
X37728320Y-139980273D01*
X37620147Y-140241426D01*
X37565000Y-140518665D01*
X35660000Y-140518665D01*
X35660000Y-129700000D01*
X37561928Y-129700000D01*
X37561928Y-131300000D01*
X37574188Y-131424482D01*
X37610498Y-131544180D01*
X37669463Y-131654494D01*
X37748815Y-131751185D01*
X37845506Y-131830537D01*
X37955820Y-131889502D01*
X38075518Y-131925812D01*
X38083961Y-131926643D01*
X37885363Y-132125241D01*
X37728320Y-132360273D01*
X37620147Y-132621426D01*
X37565000Y-132898665D01*
X37565000Y-133181335D01*
X37620147Y-133458574D01*
X37728320Y-133719727D01*
X37885363Y-133954759D01*
X38085241Y-134154637D01*
X38317759Y-134310000D01*
X38085241Y-134465363D01*
X37885363Y-134665241D01*
X37728320Y-134900273D01*
X37620147Y-135161426D01*
X37565000Y-135438665D01*
X37565000Y-135721335D01*
X37620147Y-135998574D01*
X37728320Y-136259727D01*
X37885363Y-136494759D01*
X38085241Y-136694637D01*
X38320273Y-136851680D01*
X38330865Y-136856067D01*
X38144869Y-136967615D01*
X37936481Y-137156586D01*
X37768963Y-137382580D01*
X37648754Y-137636913D01*
X37608096Y-137770961D01*
X37730085Y-137993000D01*
X38873000Y-137993000D01*
X38873000Y-137973000D01*
X39127000Y-137973000D01*
X39127000Y-137993000D01*
X40269915Y-137993000D01*
X40391904Y-137770961D01*
X40351246Y-137636913D01*
X40231037Y-137382580D01*
X40063519Y-137156586D01*
X39855131Y-136967615D01*
X39669135Y-136856067D01*
X39679727Y-136851680D01*
X39914759Y-136694637D01*
X40114637Y-136494759D01*
X40271680Y-136259727D01*
X40379853Y-135998574D01*
X40435000Y-135721335D01*
X40435000Y-135438665D01*
X40379853Y-135161426D01*
X40271680Y-134900273D01*
X40114637Y-134665241D01*
X39914759Y-134465363D01*
X39682241Y-134310000D01*
X39914759Y-134154637D01*
X40114637Y-133954759D01*
X40271680Y-133719727D01*
X40379853Y-133458574D01*
X40435000Y-133181335D01*
X40435000Y-132898665D01*
X40379853Y-132621426D01*
X40271680Y-132360273D01*
X40114637Y-132125241D01*
X39916039Y-131926643D01*
X39924482Y-131925812D01*
X40044180Y-131889502D01*
X40154494Y-131830537D01*
X40251185Y-131751185D01*
X40330537Y-131654494D01*
X40389502Y-131544180D01*
X40425812Y-131424482D01*
X40438072Y-131300000D01*
X40438072Y-129700000D01*
X40425812Y-129575518D01*
X40389502Y-129455820D01*
X40330537Y-129345506D01*
X40251185Y-129248815D01*
X40154494Y-129169463D01*
X40044180Y-129110498D01*
X39924482Y-129074188D01*
X39800000Y-129061928D01*
X38200000Y-129061928D01*
X38075518Y-129074188D01*
X37955820Y-129110498D01*
X37845506Y-129169463D01*
X37748815Y-129248815D01*
X37669463Y-129345506D01*
X37610498Y-129455820D01*
X37574188Y-129575518D01*
X37561928Y-129700000D01*
X35660000Y-129700000D01*
X35660000Y-122483665D01*
X37520000Y-122483665D01*
X37520000Y-122766335D01*
X37575147Y-123043574D01*
X37683320Y-123304727D01*
X37840363Y-123539759D01*
X38040241Y-123739637D01*
X38275273Y-123896680D01*
X38536426Y-124004853D01*
X38813665Y-124060000D01*
X39096335Y-124060000D01*
X39373574Y-124004853D01*
X39634727Y-123896680D01*
X39869759Y-123739637D01*
X40069637Y-123539759D01*
X40226680Y-123304727D01*
X40334853Y-123043574D01*
X40348684Y-122974039D01*
X47723096Y-122974039D01*
X47763754Y-123108087D01*
X47883963Y-123362420D01*
X48051481Y-123588414D01*
X48259869Y-123777385D01*
X48501119Y-123922070D01*
X48765960Y-124016909D01*
X48988000Y-123895624D01*
X48988000Y-122752000D01*
X49242000Y-122752000D01*
X49242000Y-123895624D01*
X49464040Y-124016909D01*
X49728881Y-123922070D01*
X49970131Y-123777385D01*
X50178519Y-123588414D01*
X50346037Y-123362420D01*
X50466246Y-123108087D01*
X50506904Y-122974039D01*
X50384915Y-122752000D01*
X49242000Y-122752000D01*
X48988000Y-122752000D01*
X47845085Y-122752000D01*
X47723096Y-122974039D01*
X40348684Y-122974039D01*
X40390000Y-122766335D01*
X40390000Y-122483665D01*
X40348685Y-122275961D01*
X47723096Y-122275961D01*
X47845085Y-122498000D01*
X48988000Y-122498000D01*
X48988000Y-121354376D01*
X49242000Y-121354376D01*
X49242000Y-122498000D01*
X50384915Y-122498000D01*
X50506904Y-122275961D01*
X50466246Y-122141913D01*
X50346037Y-121887580D01*
X50178519Y-121661586D01*
X49970131Y-121472615D01*
X49728881Y-121327930D01*
X49464040Y-121233091D01*
X49242000Y-121354376D01*
X48988000Y-121354376D01*
X48765960Y-121233091D01*
X48501119Y-121327930D01*
X48259869Y-121472615D01*
X48051481Y-121661586D01*
X47883963Y-121887580D01*
X47763754Y-122141913D01*
X47723096Y-122275961D01*
X40348685Y-122275961D01*
X40334853Y-122206426D01*
X40226680Y-121945273D01*
X40069637Y-121710241D01*
X39869759Y-121510363D01*
X39634727Y-121353320D01*
X39373574Y-121245147D01*
X39096335Y-121190000D01*
X38813665Y-121190000D01*
X38536426Y-121245147D01*
X38275273Y-121353320D01*
X38040241Y-121510363D01*
X37840363Y-121710241D01*
X37683320Y-121945273D01*
X37575147Y-122206426D01*
X37520000Y-122483665D01*
X35660000Y-122483665D01*
X35660000Y-119567702D01*
X38141903Y-119567702D01*
X38213486Y-119811671D01*
X38468996Y-119932571D01*
X38743184Y-120001300D01*
X39025512Y-120015217D01*
X39305130Y-119973787D01*
X39571292Y-119878603D01*
X39696514Y-119811671D01*
X39768097Y-119567702D01*
X38955000Y-118754605D01*
X38141903Y-119567702D01*
X35660000Y-119567702D01*
X35660000Y-118645512D01*
X37514783Y-118645512D01*
X37556213Y-118925130D01*
X37651397Y-119191292D01*
X37718329Y-119316514D01*
X37962298Y-119388097D01*
X38775395Y-118575000D01*
X39134605Y-118575000D01*
X39947702Y-119388097D01*
X40191671Y-119316514D01*
X40312571Y-119061004D01*
X40381300Y-118786816D01*
X40395217Y-118504488D01*
X40353787Y-118224870D01*
X40258603Y-117958708D01*
X40191671Y-117833486D01*
X39947702Y-117761903D01*
X39134605Y-118575000D01*
X38775395Y-118575000D01*
X37962298Y-117761903D01*
X37718329Y-117833486D01*
X37597429Y-118088996D01*
X37528700Y-118363184D01*
X37514783Y-118645512D01*
X35660000Y-118645512D01*
X35660000Y-117582298D01*
X38141903Y-117582298D01*
X38955000Y-118395395D01*
X39768097Y-117582298D01*
X39696514Y-117338329D01*
X39441004Y-117217429D01*
X39166816Y-117148700D01*
X38884488Y-117134783D01*
X38604870Y-117176213D01*
X38338708Y-117271397D01*
X38213486Y-117338329D01*
X38141903Y-117582298D01*
X35660000Y-117582298D01*
X35660000Y-114383665D01*
X37520000Y-114383665D01*
X37520000Y-114666335D01*
X37575147Y-114943574D01*
X37683320Y-115204727D01*
X37840363Y-115439759D01*
X38040241Y-115639637D01*
X38275273Y-115796680D01*
X38536426Y-115904853D01*
X38813665Y-115960000D01*
X39096335Y-115960000D01*
X39373574Y-115904853D01*
X39634727Y-115796680D01*
X39869759Y-115639637D01*
X40069637Y-115439759D01*
X40226680Y-115204727D01*
X40334853Y-114943574D01*
X40390000Y-114666335D01*
X40390000Y-114383665D01*
X40334853Y-114106426D01*
X40226680Y-113845273D01*
X40069637Y-113610241D01*
X39869759Y-113410363D01*
X39634727Y-113253320D01*
X39373574Y-113145147D01*
X39096335Y-113090000D01*
X38813665Y-113090000D01*
X38536426Y-113145147D01*
X38275273Y-113253320D01*
X38040241Y-113410363D01*
X37840363Y-113610241D01*
X37683320Y-113845273D01*
X37575147Y-114106426D01*
X37520000Y-114383665D01*
X35660000Y-114383665D01*
X35660000Y-110660000D01*
X94340000Y-110660000D01*
X94340001Y-174340000D01*
G37*
X94340001Y-174340000D02*
X35660000Y-174340000D01*
X35660000Y-140518665D01*
X37565000Y-140518665D01*
X37565000Y-140801335D01*
X37620147Y-141078574D01*
X37728320Y-141339727D01*
X37885363Y-141574759D01*
X38085241Y-141774637D01*
X38317759Y-141930000D01*
X38085241Y-142085363D01*
X37885363Y-142285241D01*
X37728320Y-142520273D01*
X37620147Y-142781426D01*
X37565000Y-143058665D01*
X37565000Y-143341335D01*
X37620147Y-143618574D01*
X37728320Y-143879727D01*
X37885363Y-144114759D01*
X38085241Y-144314637D01*
X38317759Y-144470000D01*
X38085241Y-144625363D01*
X37885363Y-144825241D01*
X37728320Y-145060273D01*
X37620147Y-145321426D01*
X37565000Y-145598665D01*
X37565000Y-145881335D01*
X37620147Y-146158574D01*
X37728320Y-146419727D01*
X37885363Y-146654759D01*
X38085241Y-146854637D01*
X38317759Y-147010000D01*
X38085241Y-147165363D01*
X37885363Y-147365241D01*
X37728320Y-147600273D01*
X37620147Y-147861426D01*
X37565000Y-148138665D01*
X37565000Y-148421335D01*
X37620147Y-148698574D01*
X37728320Y-148959727D01*
X37885363Y-149194759D01*
X38085241Y-149394637D01*
X38317759Y-149550000D01*
X38085241Y-149705363D01*
X37885363Y-149905241D01*
X37728320Y-150140273D01*
X37620147Y-150401426D01*
X37565000Y-150678665D01*
X37565000Y-150961335D01*
X37620147Y-151238574D01*
X37728320Y-151499727D01*
X37885363Y-151734759D01*
X38085241Y-151934637D01*
X38317759Y-152090000D01*
X38085241Y-152245363D01*
X37885363Y-152445241D01*
X37728320Y-152680273D01*
X37620147Y-152941426D01*
X37565000Y-153218665D01*
X37565000Y-153501335D01*
X37620147Y-153778574D01*
X37728320Y-154039727D01*
X37885363Y-154274759D01*
X38085241Y-154474637D01*
X38317759Y-154630000D01*
X38085241Y-154785363D01*
X37885363Y-154985241D01*
X37728320Y-155220273D01*
X37620147Y-155481426D01*
X37565000Y-155758665D01*
X37565000Y-156041335D01*
X37620147Y-156318574D01*
X37728320Y-156579727D01*
X37885363Y-156814759D01*
X38085241Y-157014637D01*
X38317759Y-157170000D01*
X38085241Y-157325363D01*
X37885363Y-157525241D01*
X37728320Y-157760273D01*
X37620147Y-158021426D01*
X37565000Y-158298665D01*
X37565000Y-158581335D01*
X37620147Y-158858574D01*
X37728320Y-159119727D01*
X37885363Y-159354759D01*
X38085241Y-159554637D01*
X38317759Y-159710000D01*
X38085241Y-159865363D01*
X37885363Y-160065241D01*
X37728320Y-160300273D01*
X37620147Y-160561426D01*
X37565000Y-160838665D01*
X37565000Y-161121335D01*
X37620147Y-161398574D01*
X37728320Y-161659727D01*
X37885363Y-161894759D01*
X38085241Y-162094637D01*
X38317759Y-162250000D01*
X38085241Y-162405363D01*
X37885363Y-162605241D01*
X37728320Y-162840273D01*
X37620147Y-163101426D01*
X37565000Y-163378665D01*
X37565000Y-163661335D01*
X37620147Y-163938574D01*
X37728320Y-164199727D01*
X37885363Y-164434759D01*
X38085241Y-164634637D01*
X38317759Y-164790000D01*
X38085241Y-164945363D01*
X37885363Y-165145241D01*
X37728320Y-165380273D01*
X37620147Y-165641426D01*
X37565000Y-165918665D01*
X37565000Y-166201335D01*
X37620147Y-166478574D01*
X37728320Y-166739727D01*
X37885363Y-166974759D01*
X38085241Y-167174637D01*
X38320273Y-167331680D01*
X38581426Y-167439853D01*
X38858665Y-167495000D01*
X39141335Y-167495000D01*
X39418574Y-167439853D01*
X39679727Y-167331680D01*
X39914759Y-167174637D01*
X40114637Y-166974759D01*
X40271680Y-166739727D01*
X40379853Y-166478574D01*
X40435000Y-166201335D01*
X40435000Y-165918665D01*
X40379853Y-165641426D01*
X40271680Y-165380273D01*
X40114637Y-165145241D01*
X39914759Y-164945363D01*
X39682241Y-164790000D01*
X39914759Y-164634637D01*
X40114637Y-164434759D01*
X40271680Y-164199727D01*
X40379853Y-163938574D01*
X40435000Y-163661335D01*
X40435000Y-163378665D01*
X40379853Y-163101426D01*
X40271680Y-162840273D01*
X40114637Y-162605241D01*
X39914759Y-162405363D01*
X39682241Y-162250000D01*
X39914759Y-162094637D01*
X40084770Y-161924627D01*
X46371753Y-168211610D01*
X46396336Y-168241564D01*
X46515867Y-168339662D01*
X46641127Y-168406614D01*
X46652240Y-168412554D01*
X46800213Y-168457442D01*
X46875126Y-168464820D01*
X46915539Y-168468800D01*
X46915544Y-168468800D01*
X46954100Y-168472597D01*
X46992656Y-168468800D01*
X83852347Y-168468800D01*
X83890900Y-168472597D01*
X83929453Y-168468800D01*
X83929461Y-168468800D01*
X84044787Y-168457441D01*
X84192760Y-168412554D01*
X84329133Y-168339662D01*
X84448664Y-168241564D01*
X84473247Y-168211611D01*
X84734158Y-167950699D01*
X84819866Y-168055134D01*
X84883337Y-168107223D01*
X84781614Y-168161595D01*
X84647038Y-168272038D01*
X84536595Y-168406614D01*
X84454528Y-168560150D01*
X84403992Y-168726746D01*
X84386928Y-168900000D01*
X84386928Y-170100000D01*
X84403992Y-170273254D01*
X84454528Y-170439850D01*
X84536595Y-170593386D01*
X84647038Y-170727962D01*
X84781614Y-170838405D01*
X84935150Y-170920472D01*
X85101746Y-170971008D01*
X85275000Y-170988072D01*
X86725000Y-170988072D01*
X86898254Y-170971008D01*
X87064850Y-170920472D01*
X87218386Y-170838405D01*
X87352962Y-170727962D01*
X87463405Y-170593386D01*
X87545472Y-170439850D01*
X87596008Y-170273254D01*
X87613072Y-170100000D01*
X87613072Y-168900000D01*
X87596008Y-168726746D01*
X87545472Y-168560150D01*
X87463405Y-168406614D01*
X87352962Y-168272038D01*
X87218386Y-168161595D01*
X87116663Y-168107223D01*
X87180134Y-168055134D01*
X87365706Y-167829014D01*
X87503599Y-167571034D01*
X87588513Y-167291111D01*
X87617185Y-167000000D01*
X87588513Y-166708889D01*
X87503599Y-166428966D01*
X87365706Y-166170986D01*
X87180134Y-165944866D01*
X86954014Y-165759294D01*
X86936626Y-165750000D01*
X86954014Y-165740706D01*
X87180134Y-165555134D01*
X87365706Y-165329014D01*
X87503599Y-165071034D01*
X87588513Y-164791111D01*
X87617185Y-164500000D01*
X87588513Y-164208889D01*
X87503599Y-163928966D01*
X87365706Y-163670986D01*
X87180134Y-163444866D01*
X86954014Y-163259294D01*
X86936626Y-163250000D01*
X86954014Y-163240706D01*
X87180134Y-163055134D01*
X87365706Y-162829014D01*
X87503599Y-162571034D01*
X87588513Y-162291111D01*
X87617185Y-162000000D01*
X87588513Y-161708889D01*
X87503599Y-161428966D01*
X87365706Y-161170986D01*
X87180134Y-160944866D01*
X86954014Y-160759294D01*
X86928278Y-160745538D01*
X87134429Y-160589049D01*
X87327496Y-160371193D01*
X87474352Y-160119858D01*
X87566476Y-159856890D01*
X87445155Y-159627000D01*
X86127000Y-159627000D01*
X86127000Y-159647000D01*
X85873000Y-159647000D01*
X85873000Y-159627000D01*
X85853000Y-159627000D01*
X85853000Y-159373000D01*
X85873000Y-159373000D01*
X85873000Y-158173835D01*
X86127000Y-158173835D01*
X86127000Y-159373000D01*
X87445155Y-159373000D01*
X87566476Y-159143110D01*
X87474352Y-158880142D01*
X87327496Y-158628807D01*
X87134429Y-158410951D01*
X86902570Y-158234947D01*
X86640830Y-158107558D01*
X86359267Y-158033680D01*
X86127000Y-158173835D01*
X85873000Y-158173835D01*
X85640733Y-158033680D01*
X85359170Y-158107558D01*
X85097430Y-158234947D01*
X84865571Y-158410951D01*
X84672504Y-158628807D01*
X84525648Y-158880142D01*
X84433524Y-159143110D01*
X84554844Y-159372998D01*
X84483156Y-159372998D01*
X81000346Y-155890189D01*
X80975764Y-155860236D01*
X80856233Y-155762138D01*
X80719860Y-155689246D01*
X80571887Y-155644359D01*
X80456561Y-155633000D01*
X80456553Y-155633000D01*
X80418000Y-155629203D01*
X80379447Y-155633000D01*
X73852868Y-155633000D01*
X73931760Y-155464884D01*
X73997250Y-155200040D01*
X74009812Y-154927508D01*
X73968965Y-154657762D01*
X73922381Y-154528800D01*
X86603325Y-154528800D01*
X86641878Y-154532597D01*
X86680431Y-154528800D01*
X86680439Y-154528800D01*
X86795765Y-154517441D01*
X86943738Y-154472554D01*
X87080111Y-154399662D01*
X87199642Y-154301564D01*
X87224225Y-154271610D01*
X88002821Y-153493014D01*
X88032774Y-153468432D01*
X88130872Y-153348901D01*
X88203764Y-153212528D01*
X88219257Y-153161455D01*
X88248652Y-153064555D01*
X88256030Y-152989642D01*
X88260010Y-152949229D01*
X88260010Y-152949224D01*
X88263807Y-152910668D01*
X88260010Y-152872112D01*
X88260010Y-149638562D01*
X88263807Y-149600009D01*
X88260010Y-149561456D01*
X88260010Y-149561449D01*
X88248651Y-149446123D01*
X88203764Y-149298150D01*
X88130872Y-149161777D01*
X88032774Y-149042246D01*
X88002820Y-149017663D01*
X87957347Y-148972190D01*
X87932764Y-148942236D01*
X87813233Y-148844138D01*
X87676860Y-148771246D01*
X87528887Y-148726359D01*
X87413561Y-148715000D01*
X87413553Y-148715000D01*
X87387880Y-148712472D01*
X87365706Y-148670986D01*
X87180134Y-148444866D01*
X86954014Y-148259294D01*
X86936626Y-148250000D01*
X86954014Y-148240706D01*
X87180134Y-148055134D01*
X87365706Y-147829014D01*
X87503599Y-147571034D01*
X87588513Y-147291111D01*
X87617185Y-147000000D01*
X87588513Y-146708889D01*
X87503599Y-146428966D01*
X87365706Y-146170986D01*
X87180134Y-145944866D01*
X86954014Y-145759294D01*
X86928278Y-145745538D01*
X87134429Y-145589049D01*
X87327496Y-145371193D01*
X87474352Y-145119858D01*
X87566476Y-144856890D01*
X87445155Y-144627000D01*
X86127000Y-144627000D01*
X86127000Y-144647000D01*
X85873000Y-144647000D01*
X85873000Y-144627000D01*
X84554845Y-144627000D01*
X84433524Y-144856890D01*
X84525648Y-145119858D01*
X84672504Y-145371193D01*
X84865571Y-145589049D01*
X85071722Y-145745538D01*
X85045986Y-145759294D01*
X84819866Y-145944866D01*
X84634294Y-146170986D01*
X84496401Y-146428966D01*
X84411487Y-146708889D01*
X84382815Y-147000000D01*
X84411487Y-147291111D01*
X84496401Y-147571034D01*
X84634294Y-147829014D01*
X84819866Y-148055134D01*
X85045986Y-148240706D01*
X85063374Y-148250000D01*
X85045986Y-148259294D01*
X84819866Y-148444866D01*
X84634294Y-148670986D01*
X84496401Y-148928966D01*
X84411487Y-149208889D01*
X84382815Y-149500000D01*
X84411487Y-149791111D01*
X84496401Y-150071034D01*
X84586055Y-150238766D01*
X81858640Y-147511351D01*
X81829354Y-147475666D01*
X81686982Y-147358824D01*
X81524550Y-147272003D01*
X81348302Y-147218539D01*
X81210942Y-147205010D01*
X81165010Y-147200486D01*
X81119078Y-147205010D01*
X71878512Y-147205010D01*
X71934236Y-147021309D01*
X71961943Y-146740000D01*
X71934236Y-146458691D01*
X71852182Y-146188192D01*
X71718932Y-145938899D01*
X71539608Y-145720392D01*
X71321101Y-145541068D01*
X71188142Y-145470000D01*
X71321101Y-145398932D01*
X71539608Y-145219608D01*
X71718932Y-145001101D01*
X71852182Y-144751808D01*
X71934236Y-144481309D01*
X71961943Y-144200000D01*
X71956340Y-144143110D01*
X84433524Y-144143110D01*
X84554845Y-144373000D01*
X85873000Y-144373000D01*
X85873000Y-143173835D01*
X86127000Y-143173835D01*
X86127000Y-144373000D01*
X87445155Y-144373000D01*
X87566476Y-144143110D01*
X87474352Y-143880142D01*
X87327496Y-143628807D01*
X87134429Y-143410951D01*
X86902570Y-143234947D01*
X86640830Y-143107558D01*
X86359267Y-143033680D01*
X86127000Y-143173835D01*
X85873000Y-143173835D01*
X85640733Y-143033680D01*
X85359170Y-143107558D01*
X85097430Y-143234947D01*
X84865571Y-143410951D01*
X84672504Y-143628807D01*
X84525648Y-143880142D01*
X84433524Y-144143110D01*
X71956340Y-144143110D01*
X71934236Y-143918691D01*
X71852182Y-143648192D01*
X71718932Y-143398899D01*
X71539608Y-143180392D01*
X71321101Y-143001068D01*
X71188142Y-142930000D01*
X71321101Y-142858932D01*
X71371339Y-142817702D01*
X74091903Y-142817702D01*
X74163486Y-143061671D01*
X74418996Y-143182571D01*
X74693184Y-143251300D01*
X74975512Y-143265217D01*
X75255130Y-143223787D01*
X75521292Y-143128603D01*
X75646514Y-143061671D01*
X75718097Y-142817702D01*
X74905000Y-142004605D01*
X74091903Y-142817702D01*
X71371339Y-142817702D01*
X71539608Y-142679608D01*
X71718932Y-142461101D01*
X71852182Y-142211808D01*
X71934236Y-141941309D01*
X71938746Y-141895512D01*
X73464783Y-141895512D01*
X73506213Y-142175130D01*
X73601397Y-142441292D01*
X73668329Y-142566514D01*
X73912298Y-142638097D01*
X74725395Y-141825000D01*
X75084605Y-141825000D01*
X75897702Y-142638097D01*
X76141671Y-142566514D01*
X76262571Y-142311004D01*
X76331300Y-142036816D01*
X76345217Y-141754488D01*
X76303787Y-141474870D01*
X76208603Y-141208708D01*
X76141671Y-141083486D01*
X75897702Y-141011903D01*
X75084605Y-141825000D01*
X74725395Y-141825000D01*
X73912298Y-141011903D01*
X73668329Y-141083486D01*
X73547429Y-141338996D01*
X73478700Y-141613184D01*
X73464783Y-141895512D01*
X71938746Y-141895512D01*
X71961943Y-141660000D01*
X71934236Y-141378691D01*
X71852182Y-141108192D01*
X71718932Y-140858899D01*
X71697102Y-140832298D01*
X74091903Y-140832298D01*
X74905000Y-141645395D01*
X75718097Y-140832298D01*
X75646514Y-140588329D01*
X75391004Y-140467429D01*
X75116816Y-140398700D01*
X74834488Y-140384783D01*
X74554870Y-140426213D01*
X74288708Y-140521397D01*
X74163486Y-140588329D01*
X74091903Y-140832298D01*
X71697102Y-140832298D01*
X71539608Y-140640392D01*
X71321101Y-140461068D01*
X71188142Y-140390000D01*
X71321101Y-140318932D01*
X71539608Y-140139608D01*
X71718932Y-139921101D01*
X71852182Y-139671808D01*
X71934236Y-139401309D01*
X71961943Y-139120000D01*
X71934236Y-138838691D01*
X71852182Y-138568192D01*
X71718932Y-138318899D01*
X71539608Y-138100392D01*
X71321101Y-137921068D01*
X71188142Y-137850000D01*
X71321101Y-137778932D01*
X71498109Y-137633665D01*
X73470000Y-137633665D01*
X73470000Y-137916335D01*
X73525147Y-138193574D01*
X73633320Y-138454727D01*
X73790363Y-138689759D01*
X73990241Y-138889637D01*
X74225273Y-139046680D01*
X74486426Y-139154853D01*
X74763665Y-139210000D01*
X75046335Y-139210000D01*
X75323574Y-139154853D01*
X75584727Y-139046680D01*
X75819759Y-138889637D01*
X76019637Y-138689759D01*
X76106339Y-138560000D01*
X79120000Y-138560000D01*
X79120001Y-140623661D01*
X78990241Y-140710363D01*
X78790363Y-140910241D01*
X78633320Y-141145273D01*
X78525147Y-141406426D01*
X78470000Y-141683665D01*
X78470000Y-141966335D01*
X78525147Y-142243574D01*
X78633320Y-142504727D01*
X78790363Y-142739759D01*
X78990241Y-142939637D01*
X79225273Y-143096680D01*
X79486426Y-143204853D01*
X79763665Y-143260000D01*
X80046335Y-143260000D01*
X80323574Y-143204853D01*
X80584727Y-143096680D01*
X80819759Y-142939637D01*
X81019637Y-142739759D01*
X81176680Y-142504727D01*
X81284853Y-142243574D01*
X81340000Y-141966335D01*
X81340000Y-141683665D01*
X81284853Y-141406426D01*
X81176680Y-141145273D01*
X81019637Y-140910241D01*
X80819759Y-140710363D01*
X80690000Y-140623661D01*
X80690000Y-138100157D01*
X81156492Y-137633665D01*
X83630000Y-137633665D01*
X83630000Y-137916335D01*
X83685147Y-138193574D01*
X83793320Y-138454727D01*
X83950363Y-138689759D01*
X84150241Y-138889637D01*
X84385273Y-139046680D01*
X84646426Y-139154853D01*
X84923665Y-139210000D01*
X85206335Y-139210000D01*
X85483574Y-139154853D01*
X85744727Y-139046680D01*
X85979759Y-138889637D01*
X86179637Y-138689759D01*
X86336680Y-138454727D01*
X86444853Y-138193574D01*
X86500000Y-137916335D01*
X86500000Y-137633665D01*
X86444853Y-137356426D01*
X86336680Y-137095273D01*
X86179637Y-136860241D01*
X85979759Y-136660363D01*
X85744727Y-136503320D01*
X85483574Y-136395147D01*
X85206335Y-136340000D01*
X84923665Y-136340000D01*
X84646426Y-136395147D01*
X84385273Y-136503320D01*
X84150241Y-136660363D01*
X83950363Y-136860241D01*
X83793320Y-137095273D01*
X83685147Y-137356426D01*
X83630000Y-137633665D01*
X81156492Y-137633665D01*
X84050381Y-134739777D01*
X84150241Y-134839637D01*
X84385273Y-134996680D01*
X84646426Y-135104853D01*
X84923665Y-135160000D01*
X85206335Y-135160000D01*
X85483574Y-135104853D01*
X85744727Y-134996680D01*
X85979759Y-134839637D01*
X86179637Y-134639759D01*
X86336680Y-134404727D01*
X86444853Y-134143574D01*
X86500000Y-133866335D01*
X86500000Y-133583665D01*
X86444853Y-133306426D01*
X86336680Y-133045273D01*
X86179637Y-132810241D01*
X85979759Y-132610363D01*
X85744727Y-132453320D01*
X85483574Y-132345147D01*
X85206335Y-132290000D01*
X84923665Y-132290000D01*
X84646426Y-132345147D01*
X84385273Y-132453320D01*
X84150241Y-132610363D01*
X83950363Y-132810241D01*
X83863661Y-132940000D01*
X83853260Y-132940000D01*
X83814700Y-132936202D01*
X83776139Y-132940000D01*
X83660813Y-132951359D01*
X83512840Y-132996246D01*
X83376467Y-133069138D01*
X83256936Y-133167236D01*
X83158838Y-133286767D01*
X83085946Y-133423140D01*
X83059490Y-133510353D01*
X79579843Y-136990000D01*
X76106339Y-136990000D01*
X76019637Y-136860241D01*
X75819759Y-136660363D01*
X75584727Y-136503320D01*
X75323574Y-136395147D01*
X75046335Y-136340000D01*
X74763665Y-136340000D01*
X74486426Y-136395147D01*
X74225273Y-136503320D01*
X73990241Y-136660363D01*
X73790363Y-136860241D01*
X73633320Y-137095273D01*
X73525147Y-137356426D01*
X73470000Y-137633665D01*
X71498109Y-137633665D01*
X71539608Y-137599608D01*
X71718932Y-137381101D01*
X71852182Y-137131808D01*
X71934236Y-136861309D01*
X71961943Y-136580000D01*
X71934236Y-136298691D01*
X71852182Y-136028192D01*
X71718932Y-135778899D01*
X71539608Y-135560392D01*
X71321101Y-135381068D01*
X71188142Y-135310000D01*
X71321101Y-135238932D01*
X71539608Y-135059608D01*
X71718932Y-134841101D01*
X71852182Y-134591808D01*
X71934236Y-134321309D01*
X71961943Y-134040000D01*
X71934236Y-133758691D01*
X71881144Y-133583665D01*
X73470000Y-133583665D01*
X73470000Y-133866335D01*
X73525147Y-134143574D01*
X73633320Y-134404727D01*
X73790363Y-134639759D01*
X73990241Y-134839637D01*
X74225273Y-134996680D01*
X74486426Y-135104853D01*
X74763665Y-135160000D01*
X75046335Y-135160000D01*
X75323574Y-135104853D01*
X75584727Y-134996680D01*
X75819759Y-134839637D01*
X76019637Y-134639759D01*
X76176680Y-134404727D01*
X76284853Y-134143574D01*
X76340000Y-133866335D01*
X76340000Y-133583665D01*
X76284853Y-133306426D01*
X76176680Y-133045273D01*
X76019637Y-132810241D01*
X75819759Y-132610363D01*
X75584727Y-132453320D01*
X75323574Y-132345147D01*
X75046335Y-132290000D01*
X74763665Y-132290000D01*
X74486426Y-132345147D01*
X74225273Y-132453320D01*
X73990241Y-132610363D01*
X73790363Y-132810241D01*
X73633320Y-133045273D01*
X73525147Y-133306426D01*
X73470000Y-133583665D01*
X71881144Y-133583665D01*
X71852182Y-133488192D01*
X71718932Y-133238899D01*
X71539608Y-133020392D01*
X71321101Y-132841068D01*
X71188142Y-132770000D01*
X71321101Y-132698932D01*
X71539608Y-132519608D01*
X71718932Y-132301101D01*
X71852182Y-132051808D01*
X71934236Y-131781309D01*
X71961943Y-131500000D01*
X71934236Y-131218691D01*
X71852182Y-130948192D01*
X71718932Y-130698899D01*
X71539608Y-130480392D01*
X71321101Y-130301068D01*
X71071808Y-130167818D01*
X70801309Y-130085764D01*
X70590492Y-130065000D01*
X69649508Y-130065000D01*
X69438691Y-130085764D01*
X69168192Y-130167818D01*
X68918899Y-130301068D01*
X68700392Y-130480392D01*
X68637222Y-130557364D01*
X67613523Y-129533665D01*
X73470000Y-129533665D01*
X73470000Y-129816335D01*
X73525147Y-130093574D01*
X73633320Y-130354727D01*
X73790363Y-130589759D01*
X73990241Y-130789637D01*
X74225273Y-130946680D01*
X74486426Y-131054853D01*
X74763665Y-131110000D01*
X75046335Y-131110000D01*
X75323574Y-131054853D01*
X75584727Y-130946680D01*
X75819759Y-130789637D01*
X76019637Y-130589759D01*
X76176680Y-130354727D01*
X76284853Y-130093574D01*
X76340000Y-129816335D01*
X76340000Y-129533665D01*
X83630000Y-129533665D01*
X83630000Y-129816335D01*
X83685147Y-130093574D01*
X83793320Y-130354727D01*
X83950363Y-130589759D01*
X84150241Y-130789637D01*
X84385273Y-130946680D01*
X84646426Y-131054853D01*
X84923665Y-131110000D01*
X85206335Y-131110000D01*
X85483574Y-131054853D01*
X85744727Y-130946680D01*
X85979759Y-130789637D01*
X86179637Y-130589759D01*
X86336680Y-130354727D01*
X86444853Y-130093574D01*
X86500000Y-129816335D01*
X86500000Y-129533665D01*
X86444853Y-129256426D01*
X86336680Y-128995273D01*
X86179637Y-128760241D01*
X85979759Y-128560363D01*
X85744727Y-128403320D01*
X85483574Y-128295147D01*
X85206335Y-128240000D01*
X84923665Y-128240000D01*
X84646426Y-128295147D01*
X84385273Y-128403320D01*
X84150241Y-128560363D01*
X83950363Y-128760241D01*
X83793320Y-128995273D01*
X83685147Y-129256426D01*
X83630000Y-129533665D01*
X76340000Y-129533665D01*
X76284853Y-129256426D01*
X76176680Y-128995273D01*
X76019637Y-128760241D01*
X75819759Y-128560363D01*
X75584727Y-128403320D01*
X75323574Y-128295147D01*
X75046335Y-128240000D01*
X74763665Y-128240000D01*
X74486426Y-128295147D01*
X74225273Y-128403320D01*
X73990241Y-128560363D01*
X73790363Y-128760241D01*
X73633320Y-128995273D01*
X73525147Y-129256426D01*
X73470000Y-129533665D01*
X67613523Y-129533665D01*
X63771637Y-125691780D01*
X63845810Y-125743964D01*
X64023784Y-125679184D01*
X64220149Y-125564547D01*
X64390377Y-125413803D01*
X64527925Y-125232746D01*
X64627508Y-125028334D01*
X64685298Y-124808422D01*
X64541141Y-124627000D01*
X63667000Y-124627000D01*
X63667000Y-124647000D01*
X63413000Y-124647000D01*
X63413000Y-124627000D01*
X63393000Y-124627000D01*
X63393000Y-124373000D01*
X63413000Y-124373000D01*
X63413000Y-123381837D01*
X63667000Y-123381837D01*
X63667000Y-124373000D01*
X64541141Y-124373000D01*
X64584827Y-124318021D01*
X64920000Y-124318021D01*
X64920000Y-124681978D01*
X64936785Y-124852399D01*
X65003115Y-125071059D01*
X65110829Y-125272578D01*
X65255788Y-125449212D01*
X65432421Y-125594171D01*
X65633940Y-125701885D01*
X65852600Y-125768215D01*
X66080000Y-125790612D01*
X66307399Y-125768215D01*
X66526059Y-125701885D01*
X66727578Y-125594171D01*
X66904212Y-125449212D01*
X67049171Y-125272579D01*
X67156885Y-125071060D01*
X67223215Y-124852400D01*
X67240000Y-124681979D01*
X67240000Y-124318022D01*
X67223215Y-124147601D01*
X67156885Y-123928941D01*
X67049171Y-123727422D01*
X66904212Y-123550788D01*
X66727579Y-123405829D01*
X66526060Y-123298115D01*
X66307400Y-123231785D01*
X66080000Y-123209388D01*
X65852601Y-123231785D01*
X65633941Y-123298115D01*
X65432422Y-123405829D01*
X65255789Y-123550788D01*
X65110829Y-123727421D01*
X65003115Y-123928940D01*
X64936785Y-124147600D01*
X64920000Y-124318021D01*
X64584827Y-124318021D01*
X64685298Y-124191578D01*
X64627508Y-123971666D01*
X64527925Y-123767254D01*
X64390377Y-123586197D01*
X64220149Y-123435453D01*
X64023784Y-123320816D01*
X63845810Y-123256036D01*
X63667000Y-123381837D01*
X63413000Y-123381837D01*
X63234190Y-123256036D01*
X63056216Y-123320816D01*
X62859851Y-123435453D01*
X62813165Y-123476795D01*
X62786454Y-123388740D01*
X62713562Y-123252367D01*
X62615464Y-123132836D01*
X62585517Y-123108259D01*
X60130447Y-120653190D01*
X60105864Y-120623236D01*
X59986333Y-120525138D01*
X59849960Y-120452246D01*
X59701987Y-120407359D01*
X59586661Y-120396000D01*
X59586653Y-120396000D01*
X59548100Y-120392203D01*
X59509547Y-120396000D01*
X54845858Y-120396000D01*
X53649858Y-119200000D01*
X76061928Y-119200000D01*
X76061928Y-120800000D01*
X76074188Y-120924482D01*
X76110498Y-121044180D01*
X76169463Y-121154494D01*
X76248815Y-121251185D01*
X76345506Y-121330537D01*
X76455820Y-121389502D01*
X76575518Y-121425812D01*
X76583961Y-121426643D01*
X76385363Y-121625241D01*
X76228320Y-121860273D01*
X76120147Y-122121426D01*
X76065000Y-122398665D01*
X76065000Y-122681335D01*
X76120147Y-122958574D01*
X76228320Y-123219727D01*
X76385363Y-123454759D01*
X76585241Y-123654637D01*
X76820273Y-123811680D01*
X77081426Y-123919853D01*
X77358665Y-123975000D01*
X77641335Y-123975000D01*
X77918574Y-123919853D01*
X78179727Y-123811680D01*
X78414759Y-123654637D01*
X78614637Y-123454759D01*
X78771680Y-123219727D01*
X78879853Y-122958574D01*
X78935000Y-122681335D01*
X78935000Y-122398665D01*
X78879853Y-122121426D01*
X78771680Y-121860273D01*
X78614637Y-121625241D01*
X78416039Y-121426643D01*
X78424482Y-121425812D01*
X78544180Y-121389502D01*
X78654494Y-121330537D01*
X78751185Y-121251185D01*
X78830537Y-121154494D01*
X78889502Y-121044180D01*
X78925812Y-120924482D01*
X78938072Y-120800000D01*
X78938072Y-119858665D01*
X83685000Y-119858665D01*
X83685000Y-120141335D01*
X83740147Y-120418574D01*
X83848320Y-120679727D01*
X84005363Y-120914759D01*
X84205241Y-121114637D01*
X84437759Y-121270000D01*
X84205241Y-121425363D01*
X84005363Y-121625241D01*
X83848320Y-121860273D01*
X83740147Y-122121426D01*
X83685000Y-122398665D01*
X83685000Y-122681335D01*
X83740147Y-122958574D01*
X83848320Y-123219727D01*
X84005363Y-123454759D01*
X84205241Y-123654637D01*
X84440273Y-123811680D01*
X84701426Y-123919853D01*
X84978665Y-123975000D01*
X85261335Y-123975000D01*
X85538574Y-123919853D01*
X85799727Y-123811680D01*
X86034759Y-123654637D01*
X86234637Y-123454759D01*
X86391680Y-123219727D01*
X86499853Y-122958574D01*
X86555000Y-122681335D01*
X86555000Y-122398665D01*
X86499853Y-122121426D01*
X86391680Y-121860273D01*
X86234637Y-121625241D01*
X86034759Y-121425363D01*
X85802241Y-121270000D01*
X86034759Y-121114637D01*
X86234637Y-120914759D01*
X86391680Y-120679727D01*
X86499853Y-120418574D01*
X86555000Y-120141335D01*
X86555000Y-119858665D01*
X86499853Y-119581426D01*
X86391680Y-119320273D01*
X86234637Y-119085241D01*
X86034759Y-118885363D01*
X85799727Y-118728320D01*
X85538574Y-118620147D01*
X85261335Y-118565000D01*
X84978665Y-118565000D01*
X84701426Y-118620147D01*
X84440273Y-118728320D01*
X84205241Y-118885363D01*
X84005363Y-119085241D01*
X83848320Y-119320273D01*
X83740147Y-119581426D01*
X83685000Y-119858665D01*
X78938072Y-119858665D01*
X78938072Y-119200000D01*
X78925812Y-119075518D01*
X78889502Y-118955820D01*
X78830537Y-118845506D01*
X78751185Y-118748815D01*
X78654494Y-118669463D01*
X78544180Y-118610498D01*
X78424482Y-118574188D01*
X78300000Y-118561928D01*
X76700000Y-118561928D01*
X76575518Y-118574188D01*
X76455820Y-118610498D01*
X76345506Y-118669463D01*
X76248815Y-118748815D01*
X76169463Y-118845506D01*
X76110498Y-118955820D01*
X76074188Y-119075518D01*
X76061928Y-119200000D01*
X53649858Y-119200000D01*
X50059627Y-115609769D01*
X50229637Y-115439759D01*
X50386680Y-115204727D01*
X50494853Y-114943574D01*
X50550000Y-114666335D01*
X50550000Y-114383665D01*
X50494853Y-114106426D01*
X50386680Y-113845273D01*
X50229637Y-113610241D01*
X50029759Y-113410363D01*
X49794727Y-113253320D01*
X49533574Y-113145147D01*
X49256335Y-113090000D01*
X48973665Y-113090000D01*
X48696426Y-113145147D01*
X48435273Y-113253320D01*
X48200241Y-113410363D01*
X48000363Y-113610241D01*
X47843320Y-113845273D01*
X47735147Y-114106426D01*
X47680000Y-114383665D01*
X47680000Y-114666335D01*
X47735147Y-114943574D01*
X47843320Y-115204727D01*
X48000363Y-115439759D01*
X48200241Y-115639637D01*
X48330001Y-115726340D01*
X48330001Y-115736738D01*
X48326203Y-115775300D01*
X48341359Y-115929186D01*
X48386246Y-116077159D01*
X48386247Y-116077160D01*
X48459139Y-116213533D01*
X48499690Y-116262944D01*
X48532655Y-116303112D01*
X48532659Y-116303116D01*
X48557237Y-116333064D01*
X48587185Y-116357642D01*
X49397653Y-117168110D01*
X49256335Y-117140000D01*
X48973665Y-117140000D01*
X48696426Y-117195147D01*
X48435273Y-117303320D01*
X48200241Y-117460363D01*
X48000363Y-117660241D01*
X47843320Y-117895273D01*
X47735147Y-118156426D01*
X47680000Y-118433665D01*
X47680000Y-118716335D01*
X47735147Y-118993574D01*
X47843320Y-119254727D01*
X48000363Y-119489759D01*
X48200241Y-119689637D01*
X48435273Y-119846680D01*
X48696426Y-119954853D01*
X48973665Y-120010000D01*
X49256335Y-120010000D01*
X49533574Y-119954853D01*
X49794727Y-119846680D01*
X50029759Y-119689637D01*
X50229637Y-119489759D01*
X50386680Y-119254727D01*
X50494853Y-118993574D01*
X50550000Y-118716335D01*
X50550000Y-118433665D01*
X50521890Y-118292347D01*
X53410543Y-121181000D01*
X52423634Y-122167909D01*
X52394746Y-122191435D01*
X52369109Y-122222434D01*
X52368055Y-122223488D01*
X52344523Y-122252162D01*
X52296198Y-122310594D01*
X52295486Y-122311914D01*
X52294539Y-122313068D01*
X52258845Y-122379847D01*
X52222791Y-122446691D01*
X52222351Y-122448122D01*
X52221646Y-122449441D01*
X52199620Y-122522051D01*
X52177346Y-122594494D01*
X52177194Y-122595980D01*
X52176759Y-122597414D01*
X52169321Y-122672933D01*
X52165552Y-122709776D01*
X52165546Y-122711261D01*
X52161603Y-122751300D01*
X52165255Y-122788383D01*
X52115147Y-136059950D01*
X52115000Y-136061439D01*
X52115000Y-136098781D01*
X52114861Y-136135596D01*
X52115000Y-136137064D01*
X52115000Y-136741447D01*
X52111203Y-136780000D01*
X52115000Y-136818553D01*
X52115000Y-136818560D01*
X52126359Y-136933886D01*
X52171246Y-137081859D01*
X52244138Y-137218232D01*
X52342236Y-137337764D01*
X52372190Y-137362347D01*
X52835446Y-137825604D01*
X52805000Y-137978665D01*
X52805000Y-138261335D01*
X52860147Y-138538574D01*
X52968320Y-138799727D01*
X53125363Y-139034759D01*
X53325241Y-139234637D01*
X53557759Y-139390000D01*
X53325241Y-139545363D01*
X53125363Y-139745241D01*
X52968320Y-139980273D01*
X52860147Y-140241426D01*
X52805000Y-140518665D01*
X52805000Y-140801335D01*
X52860147Y-141078574D01*
X52968320Y-141339727D01*
X53125363Y-141574759D01*
X53325241Y-141774637D01*
X53557759Y-141930000D01*
X53325241Y-142085363D01*
X53125363Y-142285241D01*
X52968320Y-142520273D01*
X52860147Y-142781426D01*
X52805000Y-143058665D01*
X52805000Y-143341335D01*
X52860147Y-143618574D01*
X52968320Y-143879727D01*
X53125363Y-144114759D01*
X53325241Y-144314637D01*
X53557759Y-144470000D01*
X53325241Y-144625363D01*
X53125363Y-144825241D01*
X52968320Y-145060273D01*
X52860147Y-145321426D01*
X52805000Y-145598665D01*
X52805000Y-145881335D01*
X52860147Y-146158574D01*
X52968320Y-146419727D01*
X53125363Y-146654759D01*
X53325241Y-146854637D01*
X53557759Y-147010000D01*
X53325241Y-147165363D01*
X53125363Y-147365241D01*
X52968320Y-147600273D01*
X52860147Y-147861426D01*
X52805000Y-148138665D01*
X52805000Y-148421335D01*
X52860147Y-148698574D01*
X52968320Y-148959727D01*
X53125363Y-149194759D01*
X53325241Y-149394637D01*
X53557759Y-149550000D01*
X53325241Y-149705363D01*
X53125363Y-149905241D01*
X52968320Y-150140273D01*
X52860147Y-150401426D01*
X52805000Y-150678665D01*
X52805000Y-150961335D01*
X52860147Y-151238574D01*
X52895780Y-151324600D01*
X44079252Y-151324600D01*
X44040699Y-151320803D01*
X44002146Y-151324600D01*
X44002139Y-151324600D01*
X43901190Y-151334543D01*
X43886812Y-151335959D01*
X43770200Y-151371333D01*
X43738840Y-151380846D01*
X43602467Y-151453738D01*
X43546430Y-151499727D01*
X43512887Y-151527255D01*
X43512884Y-151527258D01*
X43482936Y-151551836D01*
X43458358Y-151581784D01*
X40084769Y-154955373D01*
X39914759Y-154785363D01*
X39682241Y-154630000D01*
X39914759Y-154474637D01*
X40114637Y-154274759D01*
X40271680Y-154039727D01*
X40379853Y-153778574D01*
X40435000Y-153501335D01*
X40435000Y-153218665D01*
X40379853Y-152941426D01*
X40271680Y-152680273D01*
X40114637Y-152445241D01*
X39914759Y-152245363D01*
X39682241Y-152090000D01*
X39914759Y-151934637D01*
X40114637Y-151734759D01*
X40271680Y-151499727D01*
X40379853Y-151238574D01*
X40435000Y-150961335D01*
X40435000Y-150678665D01*
X40379853Y-150401426D01*
X40271680Y-150140273D01*
X40114637Y-149905241D01*
X39914759Y-149705363D01*
X39682241Y-149550000D01*
X39914759Y-149394637D01*
X40114637Y-149194759D01*
X40271680Y-148959727D01*
X40379853Y-148698574D01*
X40435000Y-148421335D01*
X40435000Y-148138665D01*
X40379853Y-147861426D01*
X40271680Y-147600273D01*
X40114637Y-147365241D01*
X39914759Y-147165363D01*
X39682241Y-147010000D01*
X39914759Y-146854637D01*
X40114637Y-146654759D01*
X40271680Y-146419727D01*
X40379853Y-146158574D01*
X40435000Y-145881335D01*
X40435000Y-145598665D01*
X40379853Y-145321426D01*
X40271680Y-145060273D01*
X40114637Y-144825241D01*
X39914759Y-144625363D01*
X39682241Y-144470000D01*
X39914759Y-144314637D01*
X40114637Y-144114759D01*
X40271680Y-143879727D01*
X40379853Y-143618574D01*
X40435000Y-143341335D01*
X40435000Y-143058665D01*
X40379853Y-142781426D01*
X40271680Y-142520273D01*
X40114637Y-142285241D01*
X39914759Y-142085363D01*
X39682241Y-141930000D01*
X39914759Y-141774637D01*
X40114637Y-141574759D01*
X40271680Y-141339727D01*
X40379853Y-141078574D01*
X40435000Y-140801335D01*
X40435000Y-140518665D01*
X40379853Y-140241426D01*
X40271680Y-139980273D01*
X40114637Y-139745241D01*
X39914759Y-139545363D01*
X39679727Y-139388320D01*
X39669135Y-139383933D01*
X39855131Y-139272385D01*
X40063519Y-139083414D01*
X40231037Y-138857420D01*
X40351246Y-138603087D01*
X40391904Y-138469039D01*
X40269915Y-138247000D01*
X39127000Y-138247000D01*
X39127000Y-138267000D01*
X38873000Y-138267000D01*
X38873000Y-138247000D01*
X37730085Y-138247000D01*
X37608096Y-138469039D01*
X37648754Y-138603087D01*
X37768963Y-138857420D01*
X37936481Y-139083414D01*
X38144869Y-139272385D01*
X38330865Y-139383933D01*
X38320273Y-139388320D01*
X38085241Y-139545363D01*
X37885363Y-139745241D01*
X37728320Y-139980273D01*
X37620147Y-140241426D01*
X37565000Y-140518665D01*
X35660000Y-140518665D01*
X35660000Y-129700000D01*
X37561928Y-129700000D01*
X37561928Y-131300000D01*
X37574188Y-131424482D01*
X37610498Y-131544180D01*
X37669463Y-131654494D01*
X37748815Y-131751185D01*
X37845506Y-131830537D01*
X37955820Y-131889502D01*
X38075518Y-131925812D01*
X38083961Y-131926643D01*
X37885363Y-132125241D01*
X37728320Y-132360273D01*
X37620147Y-132621426D01*
X37565000Y-132898665D01*
X37565000Y-133181335D01*
X37620147Y-133458574D01*
X37728320Y-133719727D01*
X37885363Y-133954759D01*
X38085241Y-134154637D01*
X38317759Y-134310000D01*
X38085241Y-134465363D01*
X37885363Y-134665241D01*
X37728320Y-134900273D01*
X37620147Y-135161426D01*
X37565000Y-135438665D01*
X37565000Y-135721335D01*
X37620147Y-135998574D01*
X37728320Y-136259727D01*
X37885363Y-136494759D01*
X38085241Y-136694637D01*
X38320273Y-136851680D01*
X38330865Y-136856067D01*
X38144869Y-136967615D01*
X37936481Y-137156586D01*
X37768963Y-137382580D01*
X37648754Y-137636913D01*
X37608096Y-137770961D01*
X37730085Y-137993000D01*
X38873000Y-137993000D01*
X38873000Y-137973000D01*
X39127000Y-137973000D01*
X39127000Y-137993000D01*
X40269915Y-137993000D01*
X40391904Y-137770961D01*
X40351246Y-137636913D01*
X40231037Y-137382580D01*
X40063519Y-137156586D01*
X39855131Y-136967615D01*
X39669135Y-136856067D01*
X39679727Y-136851680D01*
X39914759Y-136694637D01*
X40114637Y-136494759D01*
X40271680Y-136259727D01*
X40379853Y-135998574D01*
X40435000Y-135721335D01*
X40435000Y-135438665D01*
X40379853Y-135161426D01*
X40271680Y-134900273D01*
X40114637Y-134665241D01*
X39914759Y-134465363D01*
X39682241Y-134310000D01*
X39914759Y-134154637D01*
X40114637Y-133954759D01*
X40271680Y-133719727D01*
X40379853Y-133458574D01*
X40435000Y-133181335D01*
X40435000Y-132898665D01*
X40379853Y-132621426D01*
X40271680Y-132360273D01*
X40114637Y-132125241D01*
X39916039Y-131926643D01*
X39924482Y-131925812D01*
X40044180Y-131889502D01*
X40154494Y-131830537D01*
X40251185Y-131751185D01*
X40330537Y-131654494D01*
X40389502Y-131544180D01*
X40425812Y-131424482D01*
X40438072Y-131300000D01*
X40438072Y-129700000D01*
X40425812Y-129575518D01*
X40389502Y-129455820D01*
X40330537Y-129345506D01*
X40251185Y-129248815D01*
X40154494Y-129169463D01*
X40044180Y-129110498D01*
X39924482Y-129074188D01*
X39800000Y-129061928D01*
X38200000Y-129061928D01*
X38075518Y-129074188D01*
X37955820Y-129110498D01*
X37845506Y-129169463D01*
X37748815Y-129248815D01*
X37669463Y-129345506D01*
X37610498Y-129455820D01*
X37574188Y-129575518D01*
X37561928Y-129700000D01*
X35660000Y-129700000D01*
X35660000Y-122483665D01*
X37520000Y-122483665D01*
X37520000Y-122766335D01*
X37575147Y-123043574D01*
X37683320Y-123304727D01*
X37840363Y-123539759D01*
X38040241Y-123739637D01*
X38275273Y-123896680D01*
X38536426Y-124004853D01*
X38813665Y-124060000D01*
X39096335Y-124060000D01*
X39373574Y-124004853D01*
X39634727Y-123896680D01*
X39869759Y-123739637D01*
X40069637Y-123539759D01*
X40226680Y-123304727D01*
X40334853Y-123043574D01*
X40348684Y-122974039D01*
X47723096Y-122974039D01*
X47763754Y-123108087D01*
X47883963Y-123362420D01*
X48051481Y-123588414D01*
X48259869Y-123777385D01*
X48501119Y-123922070D01*
X48765960Y-124016909D01*
X48988000Y-123895624D01*
X48988000Y-122752000D01*
X49242000Y-122752000D01*
X49242000Y-123895624D01*
X49464040Y-124016909D01*
X49728881Y-123922070D01*
X49970131Y-123777385D01*
X50178519Y-123588414D01*
X50346037Y-123362420D01*
X50466246Y-123108087D01*
X50506904Y-122974039D01*
X50384915Y-122752000D01*
X49242000Y-122752000D01*
X48988000Y-122752000D01*
X47845085Y-122752000D01*
X47723096Y-122974039D01*
X40348684Y-122974039D01*
X40390000Y-122766335D01*
X40390000Y-122483665D01*
X40348685Y-122275961D01*
X47723096Y-122275961D01*
X47845085Y-122498000D01*
X48988000Y-122498000D01*
X48988000Y-121354376D01*
X49242000Y-121354376D01*
X49242000Y-122498000D01*
X50384915Y-122498000D01*
X50506904Y-122275961D01*
X50466246Y-122141913D01*
X50346037Y-121887580D01*
X50178519Y-121661586D01*
X49970131Y-121472615D01*
X49728881Y-121327930D01*
X49464040Y-121233091D01*
X49242000Y-121354376D01*
X48988000Y-121354376D01*
X48765960Y-121233091D01*
X48501119Y-121327930D01*
X48259869Y-121472615D01*
X48051481Y-121661586D01*
X47883963Y-121887580D01*
X47763754Y-122141913D01*
X47723096Y-122275961D01*
X40348685Y-122275961D01*
X40334853Y-122206426D01*
X40226680Y-121945273D01*
X40069637Y-121710241D01*
X39869759Y-121510363D01*
X39634727Y-121353320D01*
X39373574Y-121245147D01*
X39096335Y-121190000D01*
X38813665Y-121190000D01*
X38536426Y-121245147D01*
X38275273Y-121353320D01*
X38040241Y-121510363D01*
X37840363Y-121710241D01*
X37683320Y-121945273D01*
X37575147Y-122206426D01*
X37520000Y-122483665D01*
X35660000Y-122483665D01*
X35660000Y-119567702D01*
X38141903Y-119567702D01*
X38213486Y-119811671D01*
X38468996Y-119932571D01*
X38743184Y-120001300D01*
X39025512Y-120015217D01*
X39305130Y-119973787D01*
X39571292Y-119878603D01*
X39696514Y-119811671D01*
X39768097Y-119567702D01*
X38955000Y-118754605D01*
X38141903Y-119567702D01*
X35660000Y-119567702D01*
X35660000Y-118645512D01*
X37514783Y-118645512D01*
X37556213Y-118925130D01*
X37651397Y-119191292D01*
X37718329Y-119316514D01*
X37962298Y-119388097D01*
X38775395Y-118575000D01*
X39134605Y-118575000D01*
X39947702Y-119388097D01*
X40191671Y-119316514D01*
X40312571Y-119061004D01*
X40381300Y-118786816D01*
X40395217Y-118504488D01*
X40353787Y-118224870D01*
X40258603Y-117958708D01*
X40191671Y-117833486D01*
X39947702Y-117761903D01*
X39134605Y-118575000D01*
X38775395Y-118575000D01*
X37962298Y-117761903D01*
X37718329Y-117833486D01*
X37597429Y-118088996D01*
X37528700Y-118363184D01*
X37514783Y-118645512D01*
X35660000Y-118645512D01*
X35660000Y-117582298D01*
X38141903Y-117582298D01*
X38955000Y-118395395D01*
X39768097Y-117582298D01*
X39696514Y-117338329D01*
X39441004Y-117217429D01*
X39166816Y-117148700D01*
X38884488Y-117134783D01*
X38604870Y-117176213D01*
X38338708Y-117271397D01*
X38213486Y-117338329D01*
X38141903Y-117582298D01*
X35660000Y-117582298D01*
X35660000Y-114383665D01*
X37520000Y-114383665D01*
X37520000Y-114666335D01*
X37575147Y-114943574D01*
X37683320Y-115204727D01*
X37840363Y-115439759D01*
X38040241Y-115639637D01*
X38275273Y-115796680D01*
X38536426Y-115904853D01*
X38813665Y-115960000D01*
X39096335Y-115960000D01*
X39373574Y-115904853D01*
X39634727Y-115796680D01*
X39869759Y-115639637D01*
X40069637Y-115439759D01*
X40226680Y-115204727D01*
X40334853Y-114943574D01*
X40390000Y-114666335D01*
X40390000Y-114383665D01*
X40334853Y-114106426D01*
X40226680Y-113845273D01*
X40069637Y-113610241D01*
X39869759Y-113410363D01*
X39634727Y-113253320D01*
X39373574Y-113145147D01*
X39096335Y-113090000D01*
X38813665Y-113090000D01*
X38536426Y-113145147D01*
X38275273Y-113253320D01*
X38040241Y-113410363D01*
X37840363Y-113610241D01*
X37683320Y-113845273D01*
X37575147Y-114106426D01*
X37520000Y-114383665D01*
X35660000Y-114383665D01*
X35660000Y-110660000D01*
X94340000Y-110660000D01*
X94340001Y-174340000D01*
G36*
X72813748Y-154985858D02*
G01*
X72799605Y-155000000D01*
X72813748Y-155014143D01*
X72634143Y-155193748D01*
X72620000Y-155179605D01*
X72605858Y-155193748D01*
X72426253Y-155014143D01*
X72440395Y-155000000D01*
X72426253Y-154985858D01*
X72605858Y-154806253D01*
X72620000Y-154820395D01*
X72634143Y-154806253D01*
X72813748Y-154985858D01*
G37*
X72813748Y-154985858D02*
X72799605Y-155000000D01*
X72813748Y-155014143D01*
X72634143Y-155193748D01*
X72620000Y-155179605D01*
X72605858Y-155193748D01*
X72426253Y-155014143D01*
X72440395Y-155000000D01*
X72426253Y-154985858D01*
X72605858Y-154806253D01*
X72620000Y-154820395D01*
X72634143Y-154806253D01*
X72813748Y-154985858D01*
G36*
X67733748Y-154985858D02*
G01*
X67719605Y-155000000D01*
X67733748Y-155014143D01*
X67554143Y-155193748D01*
X67540000Y-155179605D01*
X67525858Y-155193748D01*
X67346253Y-155014143D01*
X67360395Y-155000000D01*
X67346253Y-154985858D01*
X67525858Y-154806253D01*
X67540000Y-154820395D01*
X67554143Y-154806253D01*
X67733748Y-154985858D01*
G37*
X67733748Y-154985858D02*
X67719605Y-155000000D01*
X67733748Y-155014143D01*
X67554143Y-155193748D01*
X67540000Y-155179605D01*
X67525858Y-155193748D01*
X67346253Y-155014143D01*
X67360395Y-155000000D01*
X67346253Y-154985858D01*
X67525858Y-154806253D01*
X67540000Y-154820395D01*
X67554143Y-154806253D01*
X67733748Y-154985858D01*
G36*
X70273748Y-154985858D02*
G01*
X70259605Y-155000000D01*
X70273748Y-155014143D01*
X70094143Y-155193748D01*
X70080000Y-155179605D01*
X70065858Y-155193748D01*
X69886253Y-155014143D01*
X69900395Y-155000000D01*
X69886253Y-154985858D01*
X70065858Y-154806253D01*
X70080000Y-154820395D01*
X70094143Y-154806253D01*
X70273748Y-154985858D01*
G37*
X70273748Y-154985858D02*
X70259605Y-155000000D01*
X70273748Y-155014143D01*
X70094143Y-155193748D01*
X70080000Y-155179605D01*
X70065858Y-155193748D01*
X69886253Y-155014143D01*
X69900395Y-155000000D01*
X69886253Y-154985858D01*
X70065858Y-154806253D01*
X70080000Y-154820395D01*
X70094143Y-154806253D01*
X70273748Y-154985858D01*
G36*
X84331374Y-152628664D02*
G01*
X84360656Y-152664344D01*
X84396133Y-152693459D01*
X84403992Y-152773254D01*
X84454528Y-152939850D01*
X84464657Y-152958800D01*
X75185844Y-152958800D01*
X75201760Y-152924884D01*
X75267250Y-152660040D01*
X75279812Y-152387508D01*
X75238965Y-152117762D01*
X75146277Y-151861168D01*
X75085860Y-151748137D01*
X74846993Y-151682612D01*
X74069605Y-152460000D01*
X74083748Y-152474143D01*
X73904143Y-152653748D01*
X73890000Y-152639605D01*
X73875858Y-152653748D01*
X73696253Y-152474143D01*
X73710395Y-152460000D01*
X72933007Y-151682612D01*
X72694140Y-151748137D01*
X72621422Y-151903096D01*
X72606277Y-151861168D01*
X72545860Y-151748137D01*
X72306993Y-151682612D01*
X71529605Y-152460000D01*
X71543748Y-152474143D01*
X71364143Y-152653748D01*
X71350000Y-152639605D01*
X71335858Y-152653748D01*
X71156253Y-152474143D01*
X71170395Y-152460000D01*
X70393007Y-151682612D01*
X70154140Y-151748137D01*
X70081422Y-151903096D01*
X70066277Y-151861168D01*
X70005860Y-151748137D01*
X69766993Y-151682612D01*
X68989605Y-152460000D01*
X69003748Y-152474143D01*
X68824143Y-152653748D01*
X68810000Y-152639605D01*
X68795858Y-152653748D01*
X68616253Y-152474143D01*
X68630395Y-152460000D01*
X67853007Y-151682612D01*
X67614140Y-151748137D01*
X67539836Y-151906477D01*
X67497371Y-151803957D01*
X67345799Y-151577114D01*
X67271692Y-151503007D01*
X68032612Y-151503007D01*
X68810000Y-152280395D01*
X69587388Y-151503007D01*
X70572612Y-151503007D01*
X71350000Y-152280395D01*
X72127388Y-151503007D01*
X73112612Y-151503007D01*
X73890000Y-152280395D01*
X74667388Y-151503007D01*
X74601863Y-151264140D01*
X74354884Y-151148240D01*
X74090040Y-151082750D01*
X73817508Y-151070188D01*
X73547762Y-151111035D01*
X73291168Y-151203723D01*
X73178137Y-151264140D01*
X73112612Y-151503007D01*
X72127388Y-151503007D01*
X72061863Y-151264140D01*
X71814884Y-151148240D01*
X71550040Y-151082750D01*
X71277508Y-151070188D01*
X71007762Y-151111035D01*
X70751168Y-151203723D01*
X70638137Y-151264140D01*
X70572612Y-151503007D01*
X69587388Y-151503007D01*
X69521863Y-151264140D01*
X69274884Y-151148240D01*
X69010040Y-151082750D01*
X68737508Y-151070188D01*
X68467762Y-151111035D01*
X68211168Y-151203723D01*
X68098137Y-151264140D01*
X68032612Y-151503007D01*
X67271692Y-151503007D01*
X67152886Y-151384201D01*
X66926043Y-151232629D01*
X66673989Y-151128225D01*
X66406411Y-151075000D01*
X66133589Y-151075000D01*
X65866011Y-151128225D01*
X65613957Y-151232629D01*
X65387114Y-151384201D01*
X65194201Y-151577114D01*
X65042629Y-151803957D01*
X64938225Y-152056011D01*
X64885000Y-152323589D01*
X64885000Y-152596411D01*
X64938225Y-152863989D01*
X64977497Y-152958800D01*
X58791352Y-152958800D01*
X58752799Y-152955003D01*
X58714246Y-152958800D01*
X58714239Y-152958800D01*
X58613290Y-152968743D01*
X58598912Y-152970159D01*
X58564472Y-152980606D01*
X58450940Y-153015046D01*
X58314567Y-153087938D01*
X58242553Y-153147039D01*
X58224987Y-153161455D01*
X58224984Y-153161458D01*
X58195036Y-153186036D01*
X58170457Y-153215985D01*
X57541343Y-153845100D01*
X55592297Y-153845100D01*
X55619853Y-153778574D01*
X55675000Y-153501335D01*
X55675000Y-153218665D01*
X55619853Y-152941426D01*
X55600457Y-152894600D01*
X60436913Y-152894600D01*
X60561912Y-152932518D01*
X60725600Y-152948640D01*
X60889288Y-152932518D01*
X61046686Y-152884772D01*
X61191745Y-152807236D01*
X61287029Y-152729038D01*
X63181069Y-150835000D01*
X80088446Y-150835000D01*
X80212733Y-150959287D01*
X80415008Y-151094443D01*
X80639764Y-151187540D01*
X80878363Y-151235000D01*
X81121637Y-151235000D01*
X81360236Y-151187540D01*
X81584992Y-151094443D01*
X81787267Y-150959287D01*
X81959287Y-150787267D01*
X82094443Y-150584992D01*
X82151047Y-150448337D01*
X84331374Y-152628664D01*
G37*
X84331374Y-152628664D02*
X84360656Y-152664344D01*
X84396133Y-152693459D01*
X84403992Y-152773254D01*
X84454528Y-152939850D01*
X84464657Y-152958800D01*
X75185844Y-152958800D01*
X75201760Y-152924884D01*
X75267250Y-152660040D01*
X75279812Y-152387508D01*
X75238965Y-152117762D01*
X75146277Y-151861168D01*
X75085860Y-151748137D01*
X74846993Y-151682612D01*
X74069605Y-152460000D01*
X74083748Y-152474143D01*
X73904143Y-152653748D01*
X73890000Y-152639605D01*
X73875858Y-152653748D01*
X73696253Y-152474143D01*
X73710395Y-152460000D01*
X72933007Y-151682612D01*
X72694140Y-151748137D01*
X72621422Y-151903096D01*
X72606277Y-151861168D01*
X72545860Y-151748137D01*
X72306993Y-151682612D01*
X71529605Y-152460000D01*
X71543748Y-152474143D01*
X71364143Y-152653748D01*
X71350000Y-152639605D01*
X71335858Y-152653748D01*
X71156253Y-152474143D01*
X71170395Y-152460000D01*
X70393007Y-151682612D01*
X70154140Y-151748137D01*
X70081422Y-151903096D01*
X70066277Y-151861168D01*
X70005860Y-151748137D01*
X69766993Y-151682612D01*
X68989605Y-152460000D01*
X69003748Y-152474143D01*
X68824143Y-152653748D01*
X68810000Y-152639605D01*
X68795858Y-152653748D01*
X68616253Y-152474143D01*
X68630395Y-152460000D01*
X67853007Y-151682612D01*
X67614140Y-151748137D01*
X67539836Y-151906477D01*
X67497371Y-151803957D01*
X67345799Y-151577114D01*
X67271692Y-151503007D01*
X68032612Y-151503007D01*
X68810000Y-152280395D01*
X69587388Y-151503007D01*
X70572612Y-151503007D01*
X71350000Y-152280395D01*
X72127388Y-151503007D01*
X73112612Y-151503007D01*
X73890000Y-152280395D01*
X74667388Y-151503007D01*
X74601863Y-151264140D01*
X74354884Y-151148240D01*
X74090040Y-151082750D01*
X73817508Y-151070188D01*
X73547762Y-151111035D01*
X73291168Y-151203723D01*
X73178137Y-151264140D01*
X73112612Y-151503007D01*
X72127388Y-151503007D01*
X72061863Y-151264140D01*
X71814884Y-151148240D01*
X71550040Y-151082750D01*
X71277508Y-151070188D01*
X71007762Y-151111035D01*
X70751168Y-151203723D01*
X70638137Y-151264140D01*
X70572612Y-151503007D01*
X69587388Y-151503007D01*
X69521863Y-151264140D01*
X69274884Y-151148240D01*
X69010040Y-151082750D01*
X68737508Y-151070188D01*
X68467762Y-151111035D01*
X68211168Y-151203723D01*
X68098137Y-151264140D01*
X68032612Y-151503007D01*
X67271692Y-151503007D01*
X67152886Y-151384201D01*
X66926043Y-151232629D01*
X66673989Y-151128225D01*
X66406411Y-151075000D01*
X66133589Y-151075000D01*
X65866011Y-151128225D01*
X65613957Y-151232629D01*
X65387114Y-151384201D01*
X65194201Y-151577114D01*
X65042629Y-151803957D01*
X64938225Y-152056011D01*
X64885000Y-152323589D01*
X64885000Y-152596411D01*
X64938225Y-152863989D01*
X64977497Y-152958800D01*
X58791352Y-152958800D01*
X58752799Y-152955003D01*
X58714246Y-152958800D01*
X58714239Y-152958800D01*
X58613290Y-152968743D01*
X58598912Y-152970159D01*
X58564472Y-152980606D01*
X58450940Y-153015046D01*
X58314567Y-153087938D01*
X58242553Y-153147039D01*
X58224987Y-153161455D01*
X58224984Y-153161458D01*
X58195036Y-153186036D01*
X58170457Y-153215985D01*
X57541343Y-153845100D01*
X55592297Y-153845100D01*
X55619853Y-153778574D01*
X55675000Y-153501335D01*
X55675000Y-153218665D01*
X55619853Y-152941426D01*
X55600457Y-152894600D01*
X60436913Y-152894600D01*
X60561912Y-152932518D01*
X60725600Y-152948640D01*
X60889288Y-152932518D01*
X61046686Y-152884772D01*
X61191745Y-152807236D01*
X61287029Y-152729038D01*
X63181069Y-150835000D01*
X80088446Y-150835000D01*
X80212733Y-150959287D01*
X80415008Y-151094443D01*
X80639764Y-151187540D01*
X80878363Y-151235000D01*
X81121637Y-151235000D01*
X81360236Y-151187540D01*
X81584992Y-151094443D01*
X81787267Y-150959287D01*
X81959287Y-150787267D01*
X82094443Y-150584992D01*
X82151047Y-150448337D01*
X84331374Y-152628664D01*
G36*
X67887358Y-132027816D02*
G01*
X67911936Y-132057764D01*
X67941884Y-132082342D01*
X67941887Y-132082345D01*
X67971259Y-132106450D01*
X68031467Y-132155862D01*
X68167840Y-132228754D01*
X68281372Y-132263194D01*
X68315812Y-132273641D01*
X68330190Y-132275057D01*
X68431139Y-132285000D01*
X68431146Y-132285000D01*
X68469699Y-132288797D01*
X68508252Y-132285000D01*
X68512462Y-132285000D01*
X68521068Y-132301101D01*
X68700392Y-132519608D01*
X68918899Y-132698932D01*
X69051858Y-132770000D01*
X68918899Y-132841068D01*
X68700392Y-133020392D01*
X68521068Y-133238899D01*
X68387818Y-133488192D01*
X68305764Y-133758691D01*
X68278057Y-134040000D01*
X68305764Y-134321309D01*
X68387818Y-134591808D01*
X68521068Y-134841101D01*
X68700392Y-135059608D01*
X68918899Y-135238932D01*
X69051858Y-135310000D01*
X68918899Y-135381068D01*
X68700392Y-135560392D01*
X68521068Y-135778899D01*
X68387818Y-136028192D01*
X68305764Y-136298691D01*
X68278057Y-136580000D01*
X68305764Y-136861309D01*
X68387818Y-137131808D01*
X68521068Y-137381101D01*
X68700392Y-137599608D01*
X68918899Y-137778932D01*
X69051858Y-137850000D01*
X68918899Y-137921068D01*
X68700392Y-138100392D01*
X68521068Y-138318899D01*
X68387818Y-138568192D01*
X68305764Y-138838691D01*
X68278057Y-139120000D01*
X68305764Y-139401309D01*
X68387818Y-139671808D01*
X68521068Y-139921101D01*
X68700392Y-140139608D01*
X68918899Y-140318932D01*
X69051858Y-140390000D01*
X68918899Y-140461068D01*
X68700392Y-140640392D01*
X68521068Y-140858899D01*
X68387818Y-141108192D01*
X68305764Y-141378691D01*
X68278057Y-141660000D01*
X68305764Y-141941309D01*
X68387818Y-142211808D01*
X68521068Y-142461101D01*
X68700392Y-142679608D01*
X68918899Y-142858932D01*
X69051858Y-142930000D01*
X68918899Y-143001068D01*
X68700392Y-143180392D01*
X68521068Y-143398899D01*
X68387818Y-143648192D01*
X68305764Y-143918691D01*
X68278057Y-144200000D01*
X68305764Y-144481309D01*
X68387818Y-144751808D01*
X68521068Y-145001101D01*
X68700392Y-145219608D01*
X68918899Y-145398932D01*
X69051858Y-145470000D01*
X68918899Y-145541068D01*
X68700392Y-145720392D01*
X68521068Y-145938899D01*
X68387818Y-146188192D01*
X68305764Y-146458691D01*
X68278057Y-146740000D01*
X68305764Y-147021309D01*
X68361488Y-147205010D01*
X64260232Y-147205010D01*
X64274367Y-147171818D01*
X64291904Y-147089039D01*
X64169915Y-146867000D01*
X62627000Y-146867000D01*
X62627000Y-146887000D01*
X62373000Y-146887000D01*
X62373000Y-146867000D01*
X62353000Y-146867000D01*
X62353000Y-146613000D01*
X62373000Y-146613000D01*
X62373000Y-146593000D01*
X62627000Y-146593000D01*
X62627000Y-146613000D01*
X64169915Y-146613000D01*
X64291904Y-146390961D01*
X64274367Y-146308182D01*
X64163715Y-146048354D01*
X64004500Y-145815105D01*
X63802839Y-145617399D01*
X63573259Y-145467265D01*
X63701101Y-145398932D01*
X63919608Y-145219608D01*
X64098932Y-145001101D01*
X64232182Y-144751808D01*
X64314236Y-144481309D01*
X64341943Y-144200000D01*
X64314236Y-143918691D01*
X64232182Y-143648192D01*
X64098932Y-143398899D01*
X63919608Y-143180392D01*
X63701101Y-143001068D01*
X63568142Y-142930000D01*
X63701101Y-142858932D01*
X63919608Y-142679608D01*
X64098932Y-142461101D01*
X64232182Y-142211808D01*
X64314236Y-141941309D01*
X64341943Y-141660000D01*
X64314236Y-141378691D01*
X64232182Y-141108192D01*
X64098932Y-140858899D01*
X63919608Y-140640392D01*
X63701101Y-140461068D01*
X63568142Y-140390000D01*
X63701101Y-140318932D01*
X63919608Y-140139608D01*
X64098932Y-139921101D01*
X64232182Y-139671808D01*
X64314236Y-139401309D01*
X64341943Y-139120000D01*
X64314236Y-138838691D01*
X64232182Y-138568192D01*
X64098932Y-138318899D01*
X63919608Y-138100392D01*
X63701101Y-137921068D01*
X63568142Y-137850000D01*
X63701101Y-137778932D01*
X63919608Y-137599608D01*
X64098932Y-137381101D01*
X64232182Y-137131808D01*
X64314236Y-136861309D01*
X64341943Y-136580000D01*
X64314236Y-136298691D01*
X64232182Y-136028192D01*
X64098932Y-135778899D01*
X63919608Y-135560392D01*
X63701101Y-135381068D01*
X63568142Y-135310000D01*
X63701101Y-135238932D01*
X63919608Y-135059608D01*
X64098932Y-134841101D01*
X64232182Y-134591808D01*
X64314236Y-134321309D01*
X64341943Y-134040000D01*
X64314236Y-133758691D01*
X64232182Y-133488192D01*
X64098932Y-133238899D01*
X63919608Y-133020392D01*
X63806518Y-132927581D01*
X63824482Y-132925812D01*
X63944180Y-132889502D01*
X64054494Y-132830537D01*
X64151185Y-132751185D01*
X64230537Y-132654494D01*
X64289502Y-132544180D01*
X64325812Y-132424482D01*
X64338072Y-132300000D01*
X64338072Y-130700000D01*
X64325812Y-130575518D01*
X64289502Y-130455820D01*
X64230537Y-130345506D01*
X64151185Y-130248815D01*
X64054494Y-130169463D01*
X63944180Y-130110498D01*
X63824482Y-130074188D01*
X63700000Y-130061928D01*
X61634700Y-130061928D01*
X61634700Y-126064319D01*
X61655862Y-126038533D01*
X61728754Y-125902160D01*
X61736423Y-125876880D01*
X67887358Y-132027816D01*
G37*
X67887358Y-132027816D02*
X67911936Y-132057764D01*
X67941884Y-132082342D01*
X67941887Y-132082345D01*
X67971259Y-132106450D01*
X68031467Y-132155862D01*
X68167840Y-132228754D01*
X68281372Y-132263194D01*
X68315812Y-132273641D01*
X68330190Y-132275057D01*
X68431139Y-132285000D01*
X68431146Y-132285000D01*
X68469699Y-132288797D01*
X68508252Y-132285000D01*
X68512462Y-132285000D01*
X68521068Y-132301101D01*
X68700392Y-132519608D01*
X68918899Y-132698932D01*
X69051858Y-132770000D01*
X68918899Y-132841068D01*
X68700392Y-133020392D01*
X68521068Y-133238899D01*
X68387818Y-133488192D01*
X68305764Y-133758691D01*
X68278057Y-134040000D01*
X68305764Y-134321309D01*
X68387818Y-134591808D01*
X68521068Y-134841101D01*
X68700392Y-135059608D01*
X68918899Y-135238932D01*
X69051858Y-135310000D01*
X68918899Y-135381068D01*
X68700392Y-135560392D01*
X68521068Y-135778899D01*
X68387818Y-136028192D01*
X68305764Y-136298691D01*
X68278057Y-136580000D01*
X68305764Y-136861309D01*
X68387818Y-137131808D01*
X68521068Y-137381101D01*
X68700392Y-137599608D01*
X68918899Y-137778932D01*
X69051858Y-137850000D01*
X68918899Y-137921068D01*
X68700392Y-138100392D01*
X68521068Y-138318899D01*
X68387818Y-138568192D01*
X68305764Y-138838691D01*
X68278057Y-139120000D01*
X68305764Y-139401309D01*
X68387818Y-139671808D01*
X68521068Y-139921101D01*
X68700392Y-140139608D01*
X68918899Y-140318932D01*
X69051858Y-140390000D01*
X68918899Y-140461068D01*
X68700392Y-140640392D01*
X68521068Y-140858899D01*
X68387818Y-141108192D01*
X68305764Y-141378691D01*
X68278057Y-141660000D01*
X68305764Y-141941309D01*
X68387818Y-142211808D01*
X68521068Y-142461101D01*
X68700392Y-142679608D01*
X68918899Y-142858932D01*
X69051858Y-142930000D01*
X68918899Y-143001068D01*
X68700392Y-143180392D01*
X68521068Y-143398899D01*
X68387818Y-143648192D01*
X68305764Y-143918691D01*
X68278057Y-144200000D01*
X68305764Y-144481309D01*
X68387818Y-144751808D01*
X68521068Y-145001101D01*
X68700392Y-145219608D01*
X68918899Y-145398932D01*
X69051858Y-145470000D01*
X68918899Y-145541068D01*
X68700392Y-145720392D01*
X68521068Y-145938899D01*
X68387818Y-146188192D01*
X68305764Y-146458691D01*
X68278057Y-146740000D01*
X68305764Y-147021309D01*
X68361488Y-147205010D01*
X64260232Y-147205010D01*
X64274367Y-147171818D01*
X64291904Y-147089039D01*
X64169915Y-146867000D01*
X62627000Y-146867000D01*
X62627000Y-146887000D01*
X62373000Y-146887000D01*
X62373000Y-146867000D01*
X62353000Y-146867000D01*
X62353000Y-146613000D01*
X62373000Y-146613000D01*
X62373000Y-146593000D01*
X62627000Y-146593000D01*
X62627000Y-146613000D01*
X64169915Y-146613000D01*
X64291904Y-146390961D01*
X64274367Y-146308182D01*
X64163715Y-146048354D01*
X64004500Y-145815105D01*
X63802839Y-145617399D01*
X63573259Y-145467265D01*
X63701101Y-145398932D01*
X63919608Y-145219608D01*
X64098932Y-145001101D01*
X64232182Y-144751808D01*
X64314236Y-144481309D01*
X64341943Y-144200000D01*
X64314236Y-143918691D01*
X64232182Y-143648192D01*
X64098932Y-143398899D01*
X63919608Y-143180392D01*
X63701101Y-143001068D01*
X63568142Y-142930000D01*
X63701101Y-142858932D01*
X63919608Y-142679608D01*
X64098932Y-142461101D01*
X64232182Y-142211808D01*
X64314236Y-141941309D01*
X64341943Y-141660000D01*
X64314236Y-141378691D01*
X64232182Y-141108192D01*
X64098932Y-140858899D01*
X63919608Y-140640392D01*
X63701101Y-140461068D01*
X63568142Y-140390000D01*
X63701101Y-140318932D01*
X63919608Y-140139608D01*
X64098932Y-139921101D01*
X64232182Y-139671808D01*
X64314236Y-139401309D01*
X64341943Y-139120000D01*
X64314236Y-138838691D01*
X64232182Y-138568192D01*
X64098932Y-138318899D01*
X63919608Y-138100392D01*
X63701101Y-137921068D01*
X63568142Y-137850000D01*
X63701101Y-137778932D01*
X63919608Y-137599608D01*
X64098932Y-137381101D01*
X64232182Y-137131808D01*
X64314236Y-136861309D01*
X64341943Y-136580000D01*
X64314236Y-136298691D01*
X64232182Y-136028192D01*
X64098932Y-135778899D01*
X63919608Y-135560392D01*
X63701101Y-135381068D01*
X63568142Y-135310000D01*
X63701101Y-135238932D01*
X63919608Y-135059608D01*
X64098932Y-134841101D01*
X64232182Y-134591808D01*
X64314236Y-134321309D01*
X64341943Y-134040000D01*
X64314236Y-133758691D01*
X64232182Y-133488192D01*
X64098932Y-133238899D01*
X63919608Y-133020392D01*
X63806518Y-132927581D01*
X63824482Y-132925812D01*
X63944180Y-132889502D01*
X64054494Y-132830537D01*
X64151185Y-132751185D01*
X64230537Y-132654494D01*
X64289502Y-132544180D01*
X64325812Y-132424482D01*
X64338072Y-132300000D01*
X64338072Y-130700000D01*
X64325812Y-130575518D01*
X64289502Y-130455820D01*
X64230537Y-130345506D01*
X64151185Y-130248815D01*
X64054494Y-130169463D01*
X63944180Y-130110498D01*
X63824482Y-130074188D01*
X63700000Y-130061928D01*
X61634700Y-130061928D01*
X61634700Y-126064319D01*
X61655862Y-126038533D01*
X61728754Y-125902160D01*
X61736423Y-125876880D01*
X67887358Y-132027816D01*
G36*
X54367000Y-132913000D02*
G01*
X54387000Y-132913000D01*
X54387000Y-133167000D01*
X54367000Y-133167000D01*
X54367000Y-133187000D01*
X54113000Y-133187000D01*
X54113000Y-133167000D01*
X54093000Y-133167000D01*
X54093000Y-132913000D01*
X54113000Y-132913000D01*
X54113000Y-132893000D01*
X54367000Y-132893000D01*
X54367000Y-132913000D01*
G37*
X54367000Y-132913000D02*
X54387000Y-132913000D01*
X54387000Y-133167000D01*
X54367000Y-133167000D01*
X54367000Y-133187000D01*
X54113000Y-133187000D01*
X54113000Y-133167000D01*
X54093000Y-133167000D01*
X54093000Y-132913000D01*
X54113000Y-132913000D01*
X54113000Y-132893000D01*
X54367000Y-132893000D01*
X54367000Y-132913000D01*
M02*
