G04 #@! TF.GenerationSoftware,KiCad,Pcbnew,(5.1.5)-2*
G04 #@! TF.CreationDate,2019-12-11T14:25:45+09:00*
G04 #@! TF.ProjectId,circuit_master_ver.1.0.0,63697263-7569-4745-9f6d-61737465725f,rev?*
G04 #@! TF.SameCoordinates,Original*
G04 #@! TF.FileFunction,Legend,Top*
G04 #@! TF.FilePolarity,Positive*
%FSLAX46Y46*%
G04 Gerber Fmt 4.6, Leading zero omitted, Abs format (unit mm)*
G04 Created by KiCad (PCBNEW (5.1.5)-2) date 2019-12-11 14:25:45*
%MOMM*%
%LPD*%
G04 APERTURE LIST*
%ADD10C,0.120000*%
%ADD11C,0.150000*%
G04 APERTURE END LIST*
D10*
X62070000Y-122900000D02*
X61700000Y-123800000D01*
X65020000Y-122900000D02*
X62070000Y-122900000D01*
X65350000Y-123800000D02*
X65020000Y-122900000D01*
X65470000Y-125350000D02*
X65500000Y-125200000D01*
X61620000Y-125350000D02*
X65470000Y-125350000D01*
X40270000Y-131770000D02*
X40270000Y-129230000D01*
X40270000Y-129230000D02*
X37600000Y-129230000D01*
X37600000Y-131770000D02*
X37600000Y-170000000D01*
X37600000Y-126560000D02*
X37600000Y-129230000D01*
X52970000Y-129230000D02*
X55640000Y-129230000D01*
X52970000Y-129230000D02*
X52970000Y-167330000D01*
X52970000Y-167330000D02*
X55640000Y-167330000D01*
X40270000Y-131770000D02*
X37600000Y-131770000D01*
X40270000Y-131770000D02*
X40270000Y-167330000D01*
X40270000Y-167330000D02*
X37600000Y-167330000D01*
X37600000Y-170000000D02*
X55640000Y-170000000D01*
X55640000Y-170000000D02*
X55640000Y-126560000D01*
X55640000Y-126560000D02*
X37600000Y-126560000D01*
X74935000Y-140455000D02*
X79875000Y-140455000D01*
X74935000Y-143195000D02*
X79875000Y-143195000D01*
X74935000Y-140455000D02*
X74935000Y-140770000D01*
X74935000Y-142880000D02*
X74935000Y-143195000D01*
X79875000Y-140455000D02*
X79875000Y-140770000D01*
X79875000Y-142880000D02*
X79875000Y-143195000D01*
X65000000Y-150690000D02*
X77560000Y-150690000D01*
X77560000Y-150690000D02*
X77560000Y-156810000D01*
X61330000Y-155000000D02*
X61330000Y-156810000D01*
X61330000Y-159800000D02*
X61330000Y-172210000D01*
X77560000Y-172210000D02*
X61330000Y-172210000D01*
X77560000Y-159790000D02*
X77560000Y-172210000D01*
X83540000Y-154560000D02*
X89510000Y-154560000D01*
X89510000Y-154560000D02*
X89510000Y-141940000D01*
X89510000Y-141940000D02*
X83540000Y-141940000D01*
X83540000Y-141940000D02*
X83540000Y-154560000D01*
X83550000Y-151250000D02*
X84300000Y-151250000D01*
X84300000Y-151250000D02*
X84300000Y-145250000D01*
X84300000Y-145250000D02*
X83550000Y-145250000D01*
X83550000Y-145250000D02*
X83550000Y-151250000D01*
X83550000Y-154550000D02*
X84300000Y-154550000D01*
X84300000Y-154550000D02*
X84300000Y-152750000D01*
X84300000Y-152750000D02*
X83550000Y-152750000D01*
X83550000Y-152750000D02*
X83550000Y-154550000D01*
X83550000Y-143750000D02*
X84300000Y-143750000D01*
X84300000Y-143750000D02*
X84300000Y-141950000D01*
X84300000Y-141950000D02*
X83550000Y-141950000D01*
X83550000Y-141950000D02*
X83550000Y-143750000D01*
X85800000Y-154550000D02*
X85800000Y-153800000D01*
X85800000Y-153800000D02*
X88750000Y-153800000D01*
X88750000Y-153800000D02*
X88750000Y-148250000D01*
X85800000Y-141950000D02*
X85800000Y-142700000D01*
X85800000Y-142700000D02*
X88750000Y-142700000D01*
X88750000Y-142700000D02*
X88750000Y-148250000D01*
X83250000Y-153600000D02*
X83250000Y-154850000D01*
X83250000Y-154850000D02*
X84500000Y-154850000D01*
X83540000Y-172060000D02*
X89510000Y-172060000D01*
X89510000Y-172060000D02*
X89510000Y-156940000D01*
X89510000Y-156940000D02*
X83540000Y-156940000D01*
X83540000Y-156940000D02*
X83540000Y-172060000D01*
X83550000Y-168750000D02*
X84300000Y-168750000D01*
X84300000Y-168750000D02*
X84300000Y-160250000D01*
X84300000Y-160250000D02*
X83550000Y-160250000D01*
X83550000Y-160250000D02*
X83550000Y-168750000D01*
X83550000Y-172050000D02*
X84300000Y-172050000D01*
X84300000Y-172050000D02*
X84300000Y-170250000D01*
X84300000Y-170250000D02*
X83550000Y-170250000D01*
X83550000Y-170250000D02*
X83550000Y-172050000D01*
X83550000Y-158750000D02*
X84300000Y-158750000D01*
X84300000Y-158750000D02*
X84300000Y-156950000D01*
X84300000Y-156950000D02*
X83550000Y-156950000D01*
X83550000Y-156950000D02*
X83550000Y-158750000D01*
X85800000Y-172050000D02*
X85800000Y-171300000D01*
X85800000Y-171300000D02*
X88750000Y-171300000D01*
X88750000Y-171300000D02*
X88750000Y-164500000D01*
X85800000Y-156950000D02*
X85800000Y-157700000D01*
X85800000Y-157700000D02*
X88750000Y-157700000D01*
X88750000Y-157700000D02*
X88750000Y-164500000D01*
X83250000Y-171100000D02*
X83250000Y-172350000D01*
X83250000Y-172350000D02*
X84500000Y-172350000D01*
X84025000Y-129675000D02*
X83255000Y-129675000D01*
X75945000Y-129675000D02*
X76715000Y-129675000D01*
X83255000Y-128305000D02*
X76715000Y-128305000D01*
X83255000Y-131045000D02*
X83255000Y-128305000D01*
X76715000Y-131045000D02*
X83255000Y-131045000D01*
X76715000Y-128305000D02*
X76715000Y-131045000D01*
X40765000Y-113155000D02*
X40765000Y-115895000D01*
X40765000Y-115895000D02*
X47305000Y-115895000D01*
X47305000Y-115895000D02*
X47305000Y-113155000D01*
X47305000Y-113155000D02*
X40765000Y-113155000D01*
X39995000Y-114525000D02*
X40765000Y-114525000D01*
X48075000Y-114525000D02*
X47305000Y-114525000D01*
X48075000Y-118575000D02*
X47305000Y-118575000D01*
X39995000Y-118575000D02*
X40765000Y-118575000D01*
X47305000Y-117205000D02*
X40765000Y-117205000D01*
X47305000Y-119945000D02*
X47305000Y-117205000D01*
X40765000Y-119945000D02*
X47305000Y-119945000D01*
X40765000Y-117205000D02*
X40765000Y-119945000D01*
X40765000Y-121255000D02*
X40765000Y-123995000D01*
X40765000Y-123995000D02*
X47305000Y-123995000D01*
X47305000Y-123995000D02*
X47305000Y-121255000D01*
X47305000Y-121255000D02*
X40765000Y-121255000D01*
X39995000Y-122625000D02*
X40765000Y-122625000D01*
X48075000Y-122625000D02*
X47305000Y-122625000D01*
X76715000Y-132355000D02*
X76715000Y-135095000D01*
X76715000Y-135095000D02*
X83255000Y-135095000D01*
X83255000Y-135095000D02*
X83255000Y-132355000D01*
X83255000Y-132355000D02*
X76715000Y-132355000D01*
X75945000Y-133725000D02*
X76715000Y-133725000D01*
X84025000Y-133725000D02*
X83255000Y-133725000D01*
X84025000Y-137775000D02*
X83255000Y-137775000D01*
X75945000Y-137775000D02*
X76715000Y-137775000D01*
X83255000Y-136405000D02*
X76715000Y-136405000D01*
X83255000Y-139145000D02*
X83255000Y-136405000D01*
X76715000Y-139145000D02*
X83255000Y-139145000D01*
X76715000Y-136405000D02*
X76715000Y-139145000D01*
X76360000Y-117580000D02*
X86260000Y-117580000D01*
X76360000Y-124960000D02*
X86260000Y-124960000D01*
X76360000Y-117580000D02*
X76360000Y-124960000D01*
X86260000Y-117580000D02*
X86260000Y-124960000D01*
X76120000Y-117340000D02*
X77504000Y-117340000D01*
X76120000Y-117340000D02*
X76120000Y-118723000D01*
X79280000Y-119365000D02*
X79280000Y-120635000D01*
X79280000Y-120635000D02*
X83340000Y-120635000D01*
X83340000Y-120635000D02*
X83340000Y-119365000D01*
X83340000Y-119365000D02*
X79280000Y-119365000D01*
X79280000Y-119485000D02*
X80633333Y-119485000D01*
X79280000Y-119605000D02*
X80633333Y-119605000D01*
X79280000Y-119725000D02*
X80633333Y-119725000D01*
X79280000Y-119845000D02*
X80633333Y-119845000D01*
X79280000Y-119965000D02*
X80633333Y-119965000D01*
X79280000Y-120085000D02*
X80633333Y-120085000D01*
X79280000Y-120205000D02*
X80633333Y-120205000D01*
X79280000Y-120325000D02*
X80633333Y-120325000D01*
X79280000Y-120445000D02*
X80633333Y-120445000D01*
X79280000Y-120565000D02*
X80633333Y-120565000D01*
X80633333Y-119365000D02*
X80633333Y-120635000D01*
X79280000Y-121905000D02*
X79280000Y-123175000D01*
X79280000Y-123175000D02*
X83340000Y-123175000D01*
X83340000Y-123175000D02*
X83340000Y-121905000D01*
X83340000Y-121905000D02*
X79280000Y-121905000D01*
X79280000Y-122025000D02*
X80633333Y-122025000D01*
X79280000Y-122145000D02*
X80633333Y-122145000D01*
X79280000Y-122265000D02*
X80633333Y-122265000D01*
X79280000Y-122385000D02*
X80633333Y-122385000D01*
X79280000Y-122505000D02*
X80633333Y-122505000D01*
X79280000Y-122625000D02*
X80633333Y-122625000D01*
X79280000Y-122745000D02*
X80633333Y-122745000D01*
X79280000Y-122865000D02*
X80633333Y-122865000D01*
X79280000Y-122985000D02*
X80633333Y-122985000D01*
X79280000Y-123105000D02*
X80633333Y-123105000D01*
X80633333Y-121905000D02*
X80633333Y-123175000D01*
X67310000Y-130170000D02*
G75*
G02X65310000Y-130170000I-1000000J0D01*
G01*
X65310000Y-130170000D02*
X64060000Y-130170000D01*
X64060000Y-130170000D02*
X64060000Y-148070000D01*
X64060000Y-148070000D02*
X68560000Y-148070000D01*
X68560000Y-148070000D02*
X68560000Y-130170000D01*
X68560000Y-130170000D02*
X67310000Y-130170000D01*
X61060000Y-130110000D02*
X61060000Y-148130000D01*
X61060000Y-148130000D02*
X71560000Y-148130000D01*
X71560000Y-148130000D02*
X71560000Y-130110000D01*
X71560000Y-130110000D02*
X61060000Y-130110000D01*
D11*
X63444761Y-122697619D02*
X63349523Y-122650000D01*
X63254285Y-122554761D01*
X63111428Y-122411904D01*
X63016190Y-122364285D01*
X62920952Y-122364285D01*
X62968571Y-122602380D02*
X62873333Y-122554761D01*
X62778095Y-122459523D01*
X62730476Y-122269047D01*
X62730476Y-121935714D01*
X62778095Y-121745238D01*
X62873333Y-121650000D01*
X62968571Y-121602380D01*
X63159047Y-121602380D01*
X63254285Y-121650000D01*
X63349523Y-121745238D01*
X63397142Y-121935714D01*
X63397142Y-122269047D01*
X63349523Y-122459523D01*
X63254285Y-122554761D01*
X63159047Y-122602380D01*
X62968571Y-122602380D01*
X64349523Y-122602380D02*
X63778095Y-122602380D01*
X64063809Y-122602380D02*
X64063809Y-121602380D01*
X63968571Y-121745238D01*
X63873333Y-121840476D01*
X63778095Y-121888095D01*
X45905714Y-125586666D02*
X46381904Y-125586666D01*
X45810476Y-125872380D02*
X46143809Y-124872380D01*
X46477142Y-125872380D01*
X47334285Y-125872380D02*
X46762857Y-125872380D01*
X47048571Y-125872380D02*
X47048571Y-124872380D01*
X46953333Y-125015238D01*
X46858095Y-125110476D01*
X46762857Y-125158095D01*
X77238333Y-139682142D02*
X77190714Y-139729761D01*
X77047857Y-139777380D01*
X76952619Y-139777380D01*
X76809761Y-139729761D01*
X76714523Y-139634523D01*
X76666904Y-139539285D01*
X76619285Y-139348809D01*
X76619285Y-139205952D01*
X76666904Y-139015476D01*
X76714523Y-138920238D01*
X76809761Y-138825000D01*
X76952619Y-138777380D01*
X77047857Y-138777380D01*
X77190714Y-138825000D01*
X77238333Y-138872619D01*
X78190714Y-139777380D02*
X77619285Y-139777380D01*
X77905000Y-139777380D02*
X77905000Y-138777380D01*
X77809761Y-138920238D01*
X77714523Y-139015476D01*
X77619285Y-139063095D01*
X69666666Y-149452380D02*
X69666666Y-150166666D01*
X69619047Y-150309523D01*
X69523809Y-150404761D01*
X69380952Y-150452380D01*
X69285714Y-150452380D01*
X70666666Y-150452380D02*
X70095238Y-150452380D01*
X70380952Y-150452380D02*
X70380952Y-149452380D01*
X70285714Y-149595238D01*
X70190476Y-149690476D01*
X70095238Y-149738095D01*
X81902380Y-148583333D02*
X82616666Y-148583333D01*
X82759523Y-148630952D01*
X82854761Y-148726190D01*
X82902380Y-148869047D01*
X82902380Y-148964285D01*
X81997619Y-148154761D02*
X81950000Y-148107142D01*
X81902380Y-148011904D01*
X81902380Y-147773809D01*
X81950000Y-147678571D01*
X81997619Y-147630952D01*
X82092857Y-147583333D01*
X82188095Y-147583333D01*
X82330952Y-147630952D01*
X82902380Y-148202380D01*
X82902380Y-147583333D01*
X81902380Y-164833333D02*
X82616666Y-164833333D01*
X82759523Y-164880952D01*
X82854761Y-164976190D01*
X82902380Y-165119047D01*
X82902380Y-165214285D01*
X81902380Y-164452380D02*
X81902380Y-163833333D01*
X82283333Y-164166666D01*
X82283333Y-164023809D01*
X82330952Y-163928571D01*
X82378571Y-163880952D01*
X82473809Y-163833333D01*
X82711904Y-163833333D01*
X82807142Y-163880952D01*
X82854761Y-163928571D01*
X82902380Y-164023809D01*
X82902380Y-164309523D01*
X82854761Y-164404761D01*
X82807142Y-164452380D01*
X79818333Y-127757380D02*
X79485000Y-127281190D01*
X79246904Y-127757380D02*
X79246904Y-126757380D01*
X79627857Y-126757380D01*
X79723095Y-126805000D01*
X79770714Y-126852619D01*
X79818333Y-126947857D01*
X79818333Y-127090714D01*
X79770714Y-127185952D01*
X79723095Y-127233571D01*
X79627857Y-127281190D01*
X79246904Y-127281190D01*
X80770714Y-127757380D02*
X80199285Y-127757380D01*
X80485000Y-127757380D02*
X80485000Y-126757380D01*
X80389761Y-126900238D01*
X80294523Y-126995476D01*
X80199285Y-127043095D01*
X43868333Y-112607380D02*
X43535000Y-112131190D01*
X43296904Y-112607380D02*
X43296904Y-111607380D01*
X43677857Y-111607380D01*
X43773095Y-111655000D01*
X43820714Y-111702619D01*
X43868333Y-111797857D01*
X43868333Y-111940714D01*
X43820714Y-112035952D01*
X43773095Y-112083571D01*
X43677857Y-112131190D01*
X43296904Y-112131190D01*
X44249285Y-111702619D02*
X44296904Y-111655000D01*
X44392142Y-111607380D01*
X44630238Y-111607380D01*
X44725476Y-111655000D01*
X44773095Y-111702619D01*
X44820714Y-111797857D01*
X44820714Y-111893095D01*
X44773095Y-112035952D01*
X44201666Y-112607380D01*
X44820714Y-112607380D01*
X43868333Y-116657380D02*
X43535000Y-116181190D01*
X43296904Y-116657380D02*
X43296904Y-115657380D01*
X43677857Y-115657380D01*
X43773095Y-115705000D01*
X43820714Y-115752619D01*
X43868333Y-115847857D01*
X43868333Y-115990714D01*
X43820714Y-116085952D01*
X43773095Y-116133571D01*
X43677857Y-116181190D01*
X43296904Y-116181190D01*
X44201666Y-115657380D02*
X44820714Y-115657380D01*
X44487380Y-116038333D01*
X44630238Y-116038333D01*
X44725476Y-116085952D01*
X44773095Y-116133571D01*
X44820714Y-116228809D01*
X44820714Y-116466904D01*
X44773095Y-116562142D01*
X44725476Y-116609761D01*
X44630238Y-116657380D01*
X44344523Y-116657380D01*
X44249285Y-116609761D01*
X44201666Y-116562142D01*
X43868333Y-120707380D02*
X43535000Y-120231190D01*
X43296904Y-120707380D02*
X43296904Y-119707380D01*
X43677857Y-119707380D01*
X43773095Y-119755000D01*
X43820714Y-119802619D01*
X43868333Y-119897857D01*
X43868333Y-120040714D01*
X43820714Y-120135952D01*
X43773095Y-120183571D01*
X43677857Y-120231190D01*
X43296904Y-120231190D01*
X44725476Y-120040714D02*
X44725476Y-120707380D01*
X44487380Y-119659761D02*
X44249285Y-120374047D01*
X44868333Y-120374047D01*
X79818333Y-131807380D02*
X79485000Y-131331190D01*
X79246904Y-131807380D02*
X79246904Y-130807380D01*
X79627857Y-130807380D01*
X79723095Y-130855000D01*
X79770714Y-130902619D01*
X79818333Y-130997857D01*
X79818333Y-131140714D01*
X79770714Y-131235952D01*
X79723095Y-131283571D01*
X79627857Y-131331190D01*
X79246904Y-131331190D01*
X80723095Y-130807380D02*
X80246904Y-130807380D01*
X80199285Y-131283571D01*
X80246904Y-131235952D01*
X80342142Y-131188333D01*
X80580238Y-131188333D01*
X80675476Y-131235952D01*
X80723095Y-131283571D01*
X80770714Y-131378809D01*
X80770714Y-131616904D01*
X80723095Y-131712142D01*
X80675476Y-131759761D01*
X80580238Y-131807380D01*
X80342142Y-131807380D01*
X80246904Y-131759761D01*
X80199285Y-131712142D01*
X79818333Y-135857380D02*
X79485000Y-135381190D01*
X79246904Y-135857380D02*
X79246904Y-134857380D01*
X79627857Y-134857380D01*
X79723095Y-134905000D01*
X79770714Y-134952619D01*
X79818333Y-135047857D01*
X79818333Y-135190714D01*
X79770714Y-135285952D01*
X79723095Y-135333571D01*
X79627857Y-135381190D01*
X79246904Y-135381190D01*
X80675476Y-134857380D02*
X80485000Y-134857380D01*
X80389761Y-134905000D01*
X80342142Y-134952619D01*
X80246904Y-135095476D01*
X80199285Y-135285952D01*
X80199285Y-135666904D01*
X80246904Y-135762142D01*
X80294523Y-135809761D01*
X80389761Y-135857380D01*
X80580238Y-135857380D01*
X80675476Y-135809761D01*
X80723095Y-135762142D01*
X80770714Y-135666904D01*
X80770714Y-135428809D01*
X80723095Y-135333571D01*
X80675476Y-135285952D01*
X80580238Y-135238333D01*
X80389761Y-135238333D01*
X80294523Y-135285952D01*
X80246904Y-135333571D01*
X80199285Y-135428809D01*
X79976666Y-116984761D02*
X80119523Y-117032380D01*
X80357619Y-117032380D01*
X80452857Y-116984761D01*
X80500476Y-116937142D01*
X80548095Y-116841904D01*
X80548095Y-116746666D01*
X80500476Y-116651428D01*
X80452857Y-116603809D01*
X80357619Y-116556190D01*
X80167142Y-116508571D01*
X80071904Y-116460952D01*
X80024285Y-116413333D01*
X79976666Y-116318095D01*
X79976666Y-116222857D01*
X80024285Y-116127619D01*
X80071904Y-116080000D01*
X80167142Y-116032380D01*
X80405238Y-116032380D01*
X80548095Y-116080000D01*
X80881428Y-116032380D02*
X81119523Y-117032380D01*
X81310000Y-116318095D01*
X81500476Y-117032380D01*
X81738571Y-116032380D01*
X82643333Y-117032380D02*
X82071904Y-117032380D01*
X82357619Y-117032380D02*
X82357619Y-116032380D01*
X82262380Y-116175238D01*
X82167142Y-116270476D01*
X82071904Y-116318095D01*
X65548095Y-128622380D02*
X65548095Y-129431904D01*
X65595714Y-129527142D01*
X65643333Y-129574761D01*
X65738571Y-129622380D01*
X65929047Y-129622380D01*
X66024285Y-129574761D01*
X66071904Y-129527142D01*
X66119523Y-129431904D01*
X66119523Y-128622380D01*
X67119523Y-129622380D02*
X66548095Y-129622380D01*
X66833809Y-129622380D02*
X66833809Y-128622380D01*
X66738571Y-128765238D01*
X66643333Y-128860476D01*
X66548095Y-128908095D01*
M02*
