G04 #@! TF.GenerationSoftware,KiCad,Pcbnew,(5.1.5)-2*
G04 #@! TF.CreationDate,2019-12-11T14:25:45+09:00*
G04 #@! TF.ProjectId,circuit_master_ver.1.0.0,63697263-7569-4745-9f6d-61737465725f,rev?*
G04 #@! TF.SameCoordinates,Original*
G04 #@! TF.FileFunction,Copper,L2,Bot*
G04 #@! TF.FilePolarity,Positive*
%FSLAX46Y46*%
G04 Gerber Fmt 4.6, Leading zero omitted, Abs format (unit mm)*
G04 Created by KiCad (PCBNEW (5.1.5)-2) date 2019-12-11 14:25:45*
%MOMM*%
%LPD*%
G04 APERTURE LIST*
%ADD10O,1.050000X1.300000*%
%ADD11R,1.050000X1.300000*%
%ADD12R,1.600000X1.600000*%
%ADD13O,1.600000X1.600000*%
%ADD14C,1.600000*%
%ADD15C,0.100000*%
%ADD16C,1.500000*%
%ADD17C,2.500000*%
%ADD18O,1.950000X1.700000*%
%ADD19R,2.400000X1.600000*%
%ADD20O,2.400000X1.600000*%
%ADD21C,1.200000*%
%ADD22C,0.300000*%
%ADD23C,0.254000*%
G04 APERTURE END LIST*
D10*
X63540000Y-124500000D03*
X66080000Y-124500000D03*
D11*
X61000000Y-124500000D03*
D12*
X39000000Y-130500000D03*
D13*
X54240000Y-163520000D03*
X39000000Y-133040000D03*
X54240000Y-160980000D03*
X39000000Y-135580000D03*
X54240000Y-158440000D03*
X39000000Y-138120000D03*
X54240000Y-155900000D03*
X39000000Y-140660000D03*
X54240000Y-153360000D03*
X39000000Y-143200000D03*
X54240000Y-150820000D03*
X39000000Y-145740000D03*
X54240000Y-148280000D03*
X39000000Y-148280000D03*
X54240000Y-145740000D03*
X39000000Y-150820000D03*
X54240000Y-143200000D03*
X39000000Y-153360000D03*
X54240000Y-140660000D03*
X39000000Y-155900000D03*
X54240000Y-138120000D03*
X39000000Y-158440000D03*
X54240000Y-135580000D03*
X39000000Y-160980000D03*
X54240000Y-133040000D03*
X39000000Y-163520000D03*
X54240000Y-130500000D03*
X39000000Y-166060000D03*
X54240000Y-166060000D03*
D14*
X74905000Y-141825000D03*
X79905000Y-141825000D03*
G04 #@! TA.AperFunction,ComponentPad*
D15*
G36*
X65524053Y-154251206D02*
G01*
X65548370Y-154254813D01*
X65572216Y-154260786D01*
X65595362Y-154269068D01*
X65617585Y-154279579D01*
X65638670Y-154292217D01*
X65658416Y-154306861D01*
X65676630Y-154323370D01*
X65693139Y-154341584D01*
X65707783Y-154361330D01*
X65720421Y-154382415D01*
X65730932Y-154404638D01*
X65739214Y-154427784D01*
X65745187Y-154451630D01*
X65748794Y-154475947D01*
X65750000Y-154500500D01*
X65750000Y-155499500D01*
X65748794Y-155524053D01*
X65745187Y-155548370D01*
X65739214Y-155572216D01*
X65730932Y-155595362D01*
X65720421Y-155617585D01*
X65707783Y-155638670D01*
X65693139Y-155658416D01*
X65676630Y-155676630D01*
X65658416Y-155693139D01*
X65638670Y-155707783D01*
X65617585Y-155720421D01*
X65595362Y-155730932D01*
X65572216Y-155739214D01*
X65548370Y-155745187D01*
X65524053Y-155748794D01*
X65499500Y-155750000D01*
X64500500Y-155750000D01*
X64475947Y-155748794D01*
X64451630Y-155745187D01*
X64427784Y-155739214D01*
X64404638Y-155730932D01*
X64382415Y-155720421D01*
X64361330Y-155707783D01*
X64341584Y-155693139D01*
X64323370Y-155676630D01*
X64306861Y-155658416D01*
X64292217Y-155638670D01*
X64279579Y-155617585D01*
X64269068Y-155595362D01*
X64260786Y-155572216D01*
X64254813Y-155548370D01*
X64251206Y-155524053D01*
X64250000Y-155499500D01*
X64250000Y-154500500D01*
X64251206Y-154475947D01*
X64254813Y-154451630D01*
X64260786Y-154427784D01*
X64269068Y-154404638D01*
X64279579Y-154382415D01*
X64292217Y-154361330D01*
X64306861Y-154341584D01*
X64323370Y-154323370D01*
X64341584Y-154306861D01*
X64361330Y-154292217D01*
X64382415Y-154279579D01*
X64404638Y-154269068D01*
X64427784Y-154260786D01*
X64451630Y-154254813D01*
X64475947Y-154251206D01*
X64500500Y-154250000D01*
X65499500Y-154250000D01*
X65524053Y-154251206D01*
G37*
G04 #@! TD.AperFunction*
D16*
X66270000Y-152460000D03*
X67540000Y-155000000D03*
X68810000Y-152460000D03*
X70080000Y-155000000D03*
X71350000Y-152460000D03*
X72620000Y-155000000D03*
D17*
X61570000Y-158300000D03*
D16*
X73890000Y-152460000D03*
D17*
X77320000Y-158300000D03*
D16*
X63120000Y-166430000D03*
X65660000Y-164730000D03*
X75770000Y-164730000D03*
X73230000Y-166430000D03*
G04 #@! TA.AperFunction,ComponentPad*
D15*
G36*
X86749504Y-151151204D02*
G01*
X86773773Y-151154804D01*
X86797571Y-151160765D01*
X86820671Y-151169030D01*
X86842849Y-151179520D01*
X86863893Y-151192133D01*
X86883598Y-151206747D01*
X86901777Y-151223223D01*
X86918253Y-151241402D01*
X86932867Y-151261107D01*
X86945480Y-151282151D01*
X86955970Y-151304329D01*
X86964235Y-151327429D01*
X86970196Y-151351227D01*
X86973796Y-151375496D01*
X86975000Y-151400000D01*
X86975000Y-152600000D01*
X86973796Y-152624504D01*
X86970196Y-152648773D01*
X86964235Y-152672571D01*
X86955970Y-152695671D01*
X86945480Y-152717849D01*
X86932867Y-152738893D01*
X86918253Y-152758598D01*
X86901777Y-152776777D01*
X86883598Y-152793253D01*
X86863893Y-152807867D01*
X86842849Y-152820480D01*
X86820671Y-152830970D01*
X86797571Y-152839235D01*
X86773773Y-152845196D01*
X86749504Y-152848796D01*
X86725000Y-152850000D01*
X85275000Y-152850000D01*
X85250496Y-152848796D01*
X85226227Y-152845196D01*
X85202429Y-152839235D01*
X85179329Y-152830970D01*
X85157151Y-152820480D01*
X85136107Y-152807867D01*
X85116402Y-152793253D01*
X85098223Y-152776777D01*
X85081747Y-152758598D01*
X85067133Y-152738893D01*
X85054520Y-152717849D01*
X85044030Y-152695671D01*
X85035765Y-152672571D01*
X85029804Y-152648773D01*
X85026204Y-152624504D01*
X85025000Y-152600000D01*
X85025000Y-151400000D01*
X85026204Y-151375496D01*
X85029804Y-151351227D01*
X85035765Y-151327429D01*
X85044030Y-151304329D01*
X85054520Y-151282151D01*
X85067133Y-151261107D01*
X85081747Y-151241402D01*
X85098223Y-151223223D01*
X85116402Y-151206747D01*
X85136107Y-151192133D01*
X85157151Y-151179520D01*
X85179329Y-151169030D01*
X85202429Y-151160765D01*
X85226227Y-151154804D01*
X85250496Y-151151204D01*
X85275000Y-151150000D01*
X86725000Y-151150000D01*
X86749504Y-151151204D01*
G37*
G04 #@! TD.AperFunction*
D18*
X86000000Y-149500000D03*
X86000000Y-147000000D03*
X86000000Y-144500000D03*
G04 #@! TA.AperFunction,ComponentPad*
D15*
G36*
X86749504Y-168651204D02*
G01*
X86773773Y-168654804D01*
X86797571Y-168660765D01*
X86820671Y-168669030D01*
X86842849Y-168679520D01*
X86863893Y-168692133D01*
X86883598Y-168706747D01*
X86901777Y-168723223D01*
X86918253Y-168741402D01*
X86932867Y-168761107D01*
X86945480Y-168782151D01*
X86955970Y-168804329D01*
X86964235Y-168827429D01*
X86970196Y-168851227D01*
X86973796Y-168875496D01*
X86975000Y-168900000D01*
X86975000Y-170100000D01*
X86973796Y-170124504D01*
X86970196Y-170148773D01*
X86964235Y-170172571D01*
X86955970Y-170195671D01*
X86945480Y-170217849D01*
X86932867Y-170238893D01*
X86918253Y-170258598D01*
X86901777Y-170276777D01*
X86883598Y-170293253D01*
X86863893Y-170307867D01*
X86842849Y-170320480D01*
X86820671Y-170330970D01*
X86797571Y-170339235D01*
X86773773Y-170345196D01*
X86749504Y-170348796D01*
X86725000Y-170350000D01*
X85275000Y-170350000D01*
X85250496Y-170348796D01*
X85226227Y-170345196D01*
X85202429Y-170339235D01*
X85179329Y-170330970D01*
X85157151Y-170320480D01*
X85136107Y-170307867D01*
X85116402Y-170293253D01*
X85098223Y-170276777D01*
X85081747Y-170258598D01*
X85067133Y-170238893D01*
X85054520Y-170217849D01*
X85044030Y-170195671D01*
X85035765Y-170172571D01*
X85029804Y-170148773D01*
X85026204Y-170124504D01*
X85025000Y-170100000D01*
X85025000Y-168900000D01*
X85026204Y-168875496D01*
X85029804Y-168851227D01*
X85035765Y-168827429D01*
X85044030Y-168804329D01*
X85054520Y-168782151D01*
X85067133Y-168761107D01*
X85081747Y-168741402D01*
X85098223Y-168723223D01*
X85116402Y-168706747D01*
X85136107Y-168692133D01*
X85157151Y-168679520D01*
X85179329Y-168669030D01*
X85202429Y-168660765D01*
X85226227Y-168654804D01*
X85250496Y-168651204D01*
X85275000Y-168650000D01*
X86725000Y-168650000D01*
X86749504Y-168651204D01*
G37*
G04 #@! TD.AperFunction*
D18*
X86000000Y-167000000D03*
X86000000Y-164500000D03*
X86000000Y-162000000D03*
X86000000Y-159500000D03*
D13*
X85065000Y-129675000D03*
D14*
X74905000Y-129675000D03*
X38955000Y-114525000D03*
D13*
X49115000Y-114525000D03*
X49115000Y-118575000D03*
D14*
X38955000Y-118575000D03*
X38955000Y-122625000D03*
D13*
X49115000Y-122625000D03*
D14*
X74905000Y-133725000D03*
D13*
X85065000Y-133725000D03*
X85065000Y-137775000D03*
D14*
X74905000Y-137775000D03*
D12*
X77500000Y-120000000D03*
D13*
X85120000Y-122540000D03*
X77500000Y-122540000D03*
X85120000Y-120000000D03*
D19*
X62500000Y-131500000D03*
D20*
X70120000Y-146740000D03*
X62500000Y-134040000D03*
X70120000Y-144200000D03*
X62500000Y-136580000D03*
X70120000Y-141660000D03*
X62500000Y-139120000D03*
X70120000Y-139120000D03*
X62500000Y-141660000D03*
X70120000Y-136580000D03*
X62500000Y-144200000D03*
X70120000Y-134040000D03*
X62500000Y-146740000D03*
X70120000Y-131500000D03*
D21*
X90000000Y-115000000D03*
X55000000Y-115000000D03*
X73000000Y-126000000D03*
X66500000Y-133000000D03*
X73500000Y-131500000D03*
X73000000Y-140000000D03*
X67000000Y-145500000D03*
X90000000Y-140000000D03*
X90000000Y-170000000D03*
X65000000Y-170000000D03*
X40000000Y-170000000D03*
X45000000Y-140000000D03*
X45000000Y-120000000D03*
X77500000Y-152000000D03*
X81000000Y-150000000D03*
D22*
X49115000Y-119825300D02*
X49115000Y-118575000D01*
X55529600Y-126239900D02*
X49115000Y-119825300D01*
X54240000Y-158440000D02*
X55529600Y-157150400D01*
X55529600Y-157150400D02*
X55529600Y-126239900D01*
X54240000Y-155900000D02*
X52989700Y-154649700D01*
X52989700Y-136659700D02*
X38955000Y-122625000D01*
X52989700Y-154649700D02*
X52989700Y-136659700D01*
X81000000Y-150000000D02*
X84000000Y-147000000D01*
X84000000Y-147000000D02*
X86000000Y-147000000D01*
X85065000Y-133725000D02*
X85065000Y-129675000D01*
X70120000Y-131500000D02*
X71770300Y-131500000D01*
X71770300Y-131500000D02*
X71770300Y-134640300D01*
X71770300Y-134640300D02*
X74905000Y-137775000D01*
X86000000Y-169500000D02*
X79905000Y-163405000D01*
X79905000Y-163405000D02*
X79905000Y-141825000D01*
X39000000Y-163520000D02*
X40250300Y-163520000D01*
X62500000Y-144200000D02*
X60849700Y-144200000D01*
X60849700Y-144200000D02*
X60849700Y-153654900D01*
X60849700Y-153654900D02*
X54794600Y-159710000D01*
X54794600Y-159710000D02*
X44060300Y-159710000D01*
X44060300Y-159710000D02*
X40250300Y-163520000D01*
X39000000Y-166060000D02*
X40250300Y-166060000D01*
X62500000Y-134040000D02*
X64150300Y-134040000D01*
X64150300Y-134040000D02*
X64755900Y-134645600D01*
X64755900Y-134645600D02*
X64755900Y-151640300D01*
X64755900Y-151640300D02*
X58851700Y-157544500D01*
X58851700Y-157544500D02*
X58851700Y-163253100D01*
X58851700Y-163253100D02*
X54754500Y-167350300D01*
X54754500Y-167350300D02*
X41540600Y-167350300D01*
X41540600Y-167350300D02*
X40250300Y-166060000D01*
X62500000Y-139120000D02*
X64150300Y-139120000D01*
X64150300Y-139120000D02*
X64150300Y-151203400D01*
X64150300Y-151203400D02*
X55529600Y-159824100D01*
X55529600Y-159824100D02*
X55529600Y-164038200D01*
X55540001Y-164759999D02*
X55540001Y-164038200D01*
X54240000Y-166060000D02*
X55540001Y-164759999D01*
X85120000Y-121250300D02*
X84573000Y-121250300D01*
X84573000Y-121250300D02*
X78132400Y-127690900D01*
X78132400Y-127690900D02*
X78132400Y-130497600D01*
X78132400Y-130497600D02*
X74905000Y-133725000D01*
X85120000Y-120000000D02*
X85120000Y-121250300D01*
X74905000Y-133725000D02*
X76182900Y-135002900D01*
X76182900Y-135002900D02*
X76182900Y-142870000D01*
X76182900Y-142870000D02*
X67540000Y-151512900D01*
X67540000Y-151512900D02*
X67540000Y-152895800D01*
X67540000Y-152895800D02*
X65435800Y-155000000D01*
X65435800Y-155000000D02*
X65000000Y-155000000D01*
X84217000Y-135676700D02*
X83799700Y-135259400D01*
X83799700Y-135259400D02*
X83799700Y-125110600D01*
X83799700Y-125110600D02*
X85120000Y-123790300D01*
X85065000Y-136524700D02*
X84217000Y-135676700D01*
X84217000Y-135676700D02*
X77338900Y-142554800D01*
X77338900Y-142554800D02*
X77338900Y-143627900D01*
X77338900Y-143627900D02*
X70080000Y-150886800D01*
X70080000Y-150886800D02*
X70080000Y-153199800D01*
X70080000Y-153199800D02*
X68810000Y-154469800D01*
X68810000Y-154469800D02*
X68810000Y-155490900D01*
X68810000Y-155490900D02*
X68069500Y-156231400D01*
X68069500Y-156231400D02*
X64239100Y-156231400D01*
X64239100Y-156231400D02*
X63798700Y-155791000D01*
X63798700Y-155791000D02*
X63798700Y-154150600D01*
X63798700Y-154150600D02*
X65489300Y-152460000D01*
X65489300Y-152460000D02*
X66270000Y-152460000D01*
X85065000Y-137775000D02*
X85065000Y-136524700D01*
X85120000Y-122540000D02*
X85120000Y-123790300D01*
X66080000Y-124500000D02*
X65104700Y-124500000D01*
X62500000Y-131500000D02*
X64150300Y-131500000D01*
X64150300Y-131500000D02*
X64150300Y-125454400D01*
X64150300Y-125454400D02*
X65104700Y-124500000D01*
X66080000Y-124500000D02*
X67055300Y-124500000D01*
X74905000Y-129675000D02*
X72230300Y-129675000D01*
X72230300Y-129675000D02*
X67055300Y-124500000D01*
X59846000Y-127495200D02*
X46875700Y-114525000D01*
X46875700Y-114525000D02*
X38955000Y-114525000D01*
X60849700Y-136580000D02*
X60849700Y-128499000D01*
X60849700Y-128499000D02*
X59846000Y-127495200D01*
X59846000Y-127495200D02*
X62057700Y-125283500D01*
X62057700Y-125283500D02*
X62057700Y-124462500D01*
X62057700Y-124462500D02*
X63980200Y-122540000D01*
X63980200Y-122540000D02*
X77500000Y-122540000D01*
X60999800Y-136580000D02*
X60849700Y-136580000D01*
X62500000Y-136580000D02*
X60999800Y-136580000D01*
X62500000Y-141660000D02*
X60849700Y-141660000D01*
X60849700Y-141660000D02*
X60849700Y-136580000D01*
X77500000Y-122540000D02*
X77500000Y-120000000D01*
D23*
G36*
X94340001Y-174340000D02*
G01*
X35660000Y-174340000D01*
X35660000Y-129700000D01*
X37561928Y-129700000D01*
X37561928Y-131300000D01*
X37574188Y-131424482D01*
X37610498Y-131544180D01*
X37669463Y-131654494D01*
X37748815Y-131751185D01*
X37845506Y-131830537D01*
X37955820Y-131889502D01*
X38075518Y-131925812D01*
X38083961Y-131926643D01*
X37885363Y-132125241D01*
X37728320Y-132360273D01*
X37620147Y-132621426D01*
X37565000Y-132898665D01*
X37565000Y-133181335D01*
X37620147Y-133458574D01*
X37728320Y-133719727D01*
X37885363Y-133954759D01*
X38085241Y-134154637D01*
X38317759Y-134310000D01*
X38085241Y-134465363D01*
X37885363Y-134665241D01*
X37728320Y-134900273D01*
X37620147Y-135161426D01*
X37565000Y-135438665D01*
X37565000Y-135721335D01*
X37620147Y-135998574D01*
X37728320Y-136259727D01*
X37885363Y-136494759D01*
X38085241Y-136694637D01*
X38320273Y-136851680D01*
X38330865Y-136856067D01*
X38144869Y-136967615D01*
X37936481Y-137156586D01*
X37768963Y-137382580D01*
X37648754Y-137636913D01*
X37608096Y-137770961D01*
X37730085Y-137993000D01*
X38873000Y-137993000D01*
X38873000Y-137973000D01*
X39127000Y-137973000D01*
X39127000Y-137993000D01*
X40269915Y-137993000D01*
X40391904Y-137770961D01*
X40351246Y-137636913D01*
X40231037Y-137382580D01*
X40063519Y-137156586D01*
X39855131Y-136967615D01*
X39669135Y-136856067D01*
X39679727Y-136851680D01*
X39914759Y-136694637D01*
X40114637Y-136494759D01*
X40271680Y-136259727D01*
X40379853Y-135998574D01*
X40435000Y-135721335D01*
X40435000Y-135438665D01*
X40379853Y-135161426D01*
X40271680Y-134900273D01*
X40114637Y-134665241D01*
X39914759Y-134465363D01*
X39682241Y-134310000D01*
X39914759Y-134154637D01*
X40114637Y-133954759D01*
X40271680Y-133719727D01*
X40379853Y-133458574D01*
X40435000Y-133181335D01*
X40435000Y-132898665D01*
X40379853Y-132621426D01*
X40271680Y-132360273D01*
X40114637Y-132125241D01*
X39916039Y-131926643D01*
X39924482Y-131925812D01*
X40044180Y-131889502D01*
X40154494Y-131830537D01*
X40251185Y-131751185D01*
X40330537Y-131654494D01*
X40389502Y-131544180D01*
X40425812Y-131424482D01*
X40438072Y-131300000D01*
X40438072Y-129700000D01*
X40425812Y-129575518D01*
X40389502Y-129455820D01*
X40330537Y-129345506D01*
X40251185Y-129248815D01*
X40154494Y-129169463D01*
X40044180Y-129110498D01*
X39924482Y-129074188D01*
X39800000Y-129061928D01*
X38200000Y-129061928D01*
X38075518Y-129074188D01*
X37955820Y-129110498D01*
X37845506Y-129169463D01*
X37748815Y-129248815D01*
X37669463Y-129345506D01*
X37610498Y-129455820D01*
X37574188Y-129575518D01*
X37561928Y-129700000D01*
X35660000Y-129700000D01*
X35660000Y-119567702D01*
X38141903Y-119567702D01*
X38213486Y-119811671D01*
X38468996Y-119932571D01*
X38743184Y-120001300D01*
X39025512Y-120015217D01*
X39305130Y-119973787D01*
X39571292Y-119878603D01*
X39696514Y-119811671D01*
X39768097Y-119567702D01*
X38955000Y-118754605D01*
X38141903Y-119567702D01*
X35660000Y-119567702D01*
X35660000Y-118645512D01*
X37514783Y-118645512D01*
X37556213Y-118925130D01*
X37651397Y-119191292D01*
X37718329Y-119316514D01*
X37962298Y-119388097D01*
X38775395Y-118575000D01*
X39134605Y-118575000D01*
X39947702Y-119388097D01*
X40191671Y-119316514D01*
X40312571Y-119061004D01*
X40381300Y-118786816D01*
X40395217Y-118504488D01*
X40353787Y-118224870D01*
X40258603Y-117958708D01*
X40191671Y-117833486D01*
X39947702Y-117761903D01*
X39134605Y-118575000D01*
X38775395Y-118575000D01*
X37962298Y-117761903D01*
X37718329Y-117833486D01*
X37597429Y-118088996D01*
X37528700Y-118363184D01*
X37514783Y-118645512D01*
X35660000Y-118645512D01*
X35660000Y-117582298D01*
X38141903Y-117582298D01*
X38955000Y-118395395D01*
X39768097Y-117582298D01*
X39696514Y-117338329D01*
X39441004Y-117217429D01*
X39166816Y-117148700D01*
X38884488Y-117134783D01*
X38604870Y-117176213D01*
X38338708Y-117271397D01*
X38213486Y-117338329D01*
X38141903Y-117582298D01*
X35660000Y-117582298D01*
X35660000Y-114383665D01*
X37520000Y-114383665D01*
X37520000Y-114666335D01*
X37575147Y-114943574D01*
X37683320Y-115204727D01*
X37840363Y-115439759D01*
X38040241Y-115639637D01*
X38275273Y-115796680D01*
X38536426Y-115904853D01*
X38813665Y-115960000D01*
X39096335Y-115960000D01*
X39373574Y-115904853D01*
X39634727Y-115796680D01*
X39869759Y-115639637D01*
X40069637Y-115439759D01*
X40156339Y-115310000D01*
X46550545Y-115310000D01*
X48512070Y-117271510D01*
X48435273Y-117303320D01*
X48200241Y-117460363D01*
X48000363Y-117660241D01*
X47843320Y-117895273D01*
X47735147Y-118156426D01*
X47680000Y-118433665D01*
X47680000Y-118716335D01*
X47735147Y-118993574D01*
X47843320Y-119254727D01*
X48000363Y-119489759D01*
X48200241Y-119689637D01*
X48330000Y-119776339D01*
X48330000Y-119786747D01*
X48326203Y-119825300D01*
X48330000Y-119863853D01*
X48330000Y-119863860D01*
X48341359Y-119979186D01*
X48386246Y-120127159D01*
X48459138Y-120263532D01*
X48557236Y-120383064D01*
X48587190Y-120407647D01*
X49430794Y-121251251D01*
X49242000Y-121354376D01*
X49242000Y-122498000D01*
X50384915Y-122498000D01*
X50488678Y-122309135D01*
X54744601Y-126565059D01*
X54744601Y-129155780D01*
X54658574Y-129120147D01*
X54381335Y-129065000D01*
X54098665Y-129065000D01*
X53821426Y-129120147D01*
X53560273Y-129228320D01*
X53325241Y-129385363D01*
X53125363Y-129585241D01*
X52968320Y-129820273D01*
X52860147Y-130081426D01*
X52805000Y-130358665D01*
X52805000Y-130641335D01*
X52860147Y-130918574D01*
X52968320Y-131179727D01*
X53125363Y-131414759D01*
X53325241Y-131614637D01*
X53560273Y-131771680D01*
X53570865Y-131776067D01*
X53384869Y-131887615D01*
X53176481Y-132076586D01*
X53008963Y-132302580D01*
X52888754Y-132556913D01*
X52848096Y-132690961D01*
X52970085Y-132913000D01*
X54113000Y-132913000D01*
X54113000Y-132893000D01*
X54367000Y-132893000D01*
X54367000Y-132913000D01*
X54387000Y-132913000D01*
X54387000Y-133167000D01*
X54367000Y-133167000D01*
X54367000Y-133187000D01*
X54113000Y-133187000D01*
X54113000Y-133167000D01*
X52970085Y-133167000D01*
X52848096Y-133389039D01*
X52888754Y-133523087D01*
X53008963Y-133777420D01*
X53176481Y-134003414D01*
X53384869Y-134192385D01*
X53570865Y-134303933D01*
X53560273Y-134308320D01*
X53325241Y-134465363D01*
X53125363Y-134665241D01*
X52968320Y-134900273D01*
X52860147Y-135161426D01*
X52817248Y-135377090D01*
X40414197Y-122974039D01*
X47723096Y-122974039D01*
X47763754Y-123108087D01*
X47883963Y-123362420D01*
X48051481Y-123588414D01*
X48259869Y-123777385D01*
X48501119Y-123922070D01*
X48765960Y-124016909D01*
X48988000Y-123895624D01*
X48988000Y-122752000D01*
X49242000Y-122752000D01*
X49242000Y-123895624D01*
X49464040Y-124016909D01*
X49728881Y-123922070D01*
X49970131Y-123777385D01*
X50178519Y-123588414D01*
X50346037Y-123362420D01*
X50466246Y-123108087D01*
X50506904Y-122974039D01*
X50384915Y-122752000D01*
X49242000Y-122752000D01*
X48988000Y-122752000D01*
X47845085Y-122752000D01*
X47723096Y-122974039D01*
X40414197Y-122974039D01*
X40359554Y-122919397D01*
X40390000Y-122766335D01*
X40390000Y-122483665D01*
X40348685Y-122275961D01*
X47723096Y-122275961D01*
X47845085Y-122498000D01*
X48988000Y-122498000D01*
X48988000Y-121354376D01*
X48765960Y-121233091D01*
X48501119Y-121327930D01*
X48259869Y-121472615D01*
X48051481Y-121661586D01*
X47883963Y-121887580D01*
X47763754Y-122141913D01*
X47723096Y-122275961D01*
X40348685Y-122275961D01*
X40334853Y-122206426D01*
X40226680Y-121945273D01*
X40069637Y-121710241D01*
X39869759Y-121510363D01*
X39634727Y-121353320D01*
X39373574Y-121245147D01*
X39096335Y-121190000D01*
X38813665Y-121190000D01*
X38536426Y-121245147D01*
X38275273Y-121353320D01*
X38040241Y-121510363D01*
X37840363Y-121710241D01*
X37683320Y-121945273D01*
X37575147Y-122206426D01*
X37520000Y-122483665D01*
X37520000Y-122766335D01*
X37575147Y-123043574D01*
X37683320Y-123304727D01*
X37840363Y-123539759D01*
X38040241Y-123739637D01*
X38275273Y-123896680D01*
X38536426Y-124004853D01*
X38813665Y-124060000D01*
X39096335Y-124060000D01*
X39249397Y-124029554D01*
X52204701Y-136984859D01*
X52204700Y-154611147D01*
X52200903Y-154649700D01*
X52204700Y-154688253D01*
X52204700Y-154688260D01*
X52216059Y-154803586D01*
X52260946Y-154951559D01*
X52333838Y-155087932D01*
X52431936Y-155207464D01*
X52461890Y-155232047D01*
X52835446Y-155605604D01*
X52805000Y-155758665D01*
X52805000Y-156041335D01*
X52860147Y-156318574D01*
X52968320Y-156579727D01*
X53125363Y-156814759D01*
X53325241Y-157014637D01*
X53557759Y-157170000D01*
X53325241Y-157325363D01*
X53125363Y-157525241D01*
X52968320Y-157760273D01*
X52860147Y-158021426D01*
X52805000Y-158298665D01*
X52805000Y-158581335D01*
X52860147Y-158858574D01*
X52887662Y-158925000D01*
X44098856Y-158925000D01*
X44060300Y-158921203D01*
X44021744Y-158925000D01*
X44021739Y-158925000D01*
X43981326Y-158928980D01*
X43906413Y-158936358D01*
X43758440Y-158981246D01*
X43622067Y-159054138D01*
X43502536Y-159152236D01*
X43477955Y-159182188D01*
X40084770Y-162575374D01*
X39914759Y-162405363D01*
X39682241Y-162250000D01*
X39914759Y-162094637D01*
X40114637Y-161894759D01*
X40271680Y-161659727D01*
X40379853Y-161398574D01*
X40435000Y-161121335D01*
X40435000Y-160838665D01*
X40379853Y-160561426D01*
X40271680Y-160300273D01*
X40114637Y-160065241D01*
X39914759Y-159865363D01*
X39682241Y-159710000D01*
X39914759Y-159554637D01*
X40114637Y-159354759D01*
X40271680Y-159119727D01*
X40379853Y-158858574D01*
X40435000Y-158581335D01*
X40435000Y-158298665D01*
X40379853Y-158021426D01*
X40271680Y-157760273D01*
X40114637Y-157525241D01*
X39914759Y-157325363D01*
X39682241Y-157170000D01*
X39914759Y-157014637D01*
X40114637Y-156814759D01*
X40271680Y-156579727D01*
X40379853Y-156318574D01*
X40435000Y-156041335D01*
X40435000Y-155758665D01*
X40379853Y-155481426D01*
X40271680Y-155220273D01*
X40114637Y-154985241D01*
X39914759Y-154785363D01*
X39682241Y-154630000D01*
X39914759Y-154474637D01*
X40114637Y-154274759D01*
X40271680Y-154039727D01*
X40379853Y-153778574D01*
X40435000Y-153501335D01*
X40435000Y-153218665D01*
X40379853Y-152941426D01*
X40271680Y-152680273D01*
X40114637Y-152445241D01*
X39914759Y-152245363D01*
X39682241Y-152090000D01*
X39914759Y-151934637D01*
X40114637Y-151734759D01*
X40271680Y-151499727D01*
X40379853Y-151238574D01*
X40435000Y-150961335D01*
X40435000Y-150678665D01*
X40379853Y-150401426D01*
X40271680Y-150140273D01*
X40114637Y-149905241D01*
X39914759Y-149705363D01*
X39682241Y-149550000D01*
X39914759Y-149394637D01*
X40114637Y-149194759D01*
X40271680Y-148959727D01*
X40379853Y-148698574D01*
X40435000Y-148421335D01*
X40435000Y-148138665D01*
X40379853Y-147861426D01*
X40271680Y-147600273D01*
X40114637Y-147365241D01*
X39914759Y-147165363D01*
X39682241Y-147010000D01*
X39914759Y-146854637D01*
X40114637Y-146654759D01*
X40271680Y-146419727D01*
X40379853Y-146158574D01*
X40435000Y-145881335D01*
X40435000Y-145598665D01*
X40379853Y-145321426D01*
X40271680Y-145060273D01*
X40114637Y-144825241D01*
X39914759Y-144625363D01*
X39682241Y-144470000D01*
X39914759Y-144314637D01*
X40114637Y-144114759D01*
X40271680Y-143879727D01*
X40379853Y-143618574D01*
X40435000Y-143341335D01*
X40435000Y-143058665D01*
X40379853Y-142781426D01*
X40271680Y-142520273D01*
X40114637Y-142285241D01*
X39914759Y-142085363D01*
X39682241Y-141930000D01*
X39914759Y-141774637D01*
X40114637Y-141574759D01*
X40271680Y-141339727D01*
X40379853Y-141078574D01*
X40435000Y-140801335D01*
X40435000Y-140518665D01*
X40379853Y-140241426D01*
X40271680Y-139980273D01*
X40114637Y-139745241D01*
X39914759Y-139545363D01*
X39679727Y-139388320D01*
X39669135Y-139383933D01*
X39855131Y-139272385D01*
X40063519Y-139083414D01*
X40231037Y-138857420D01*
X40351246Y-138603087D01*
X40391904Y-138469039D01*
X40269915Y-138247000D01*
X39127000Y-138247000D01*
X39127000Y-138267000D01*
X38873000Y-138267000D01*
X38873000Y-138247000D01*
X37730085Y-138247000D01*
X37608096Y-138469039D01*
X37648754Y-138603087D01*
X37768963Y-138857420D01*
X37936481Y-139083414D01*
X38144869Y-139272385D01*
X38330865Y-139383933D01*
X38320273Y-139388320D01*
X38085241Y-139545363D01*
X37885363Y-139745241D01*
X37728320Y-139980273D01*
X37620147Y-140241426D01*
X37565000Y-140518665D01*
X37565000Y-140801335D01*
X37620147Y-141078574D01*
X37728320Y-141339727D01*
X37885363Y-141574759D01*
X38085241Y-141774637D01*
X38317759Y-141930000D01*
X38085241Y-142085363D01*
X37885363Y-142285241D01*
X37728320Y-142520273D01*
X37620147Y-142781426D01*
X37565000Y-143058665D01*
X37565000Y-143341335D01*
X37620147Y-143618574D01*
X37728320Y-143879727D01*
X37885363Y-144114759D01*
X38085241Y-144314637D01*
X38317759Y-144470000D01*
X38085241Y-144625363D01*
X37885363Y-144825241D01*
X37728320Y-145060273D01*
X37620147Y-145321426D01*
X37565000Y-145598665D01*
X37565000Y-145881335D01*
X37620147Y-146158574D01*
X37728320Y-146419727D01*
X37885363Y-146654759D01*
X38085241Y-146854637D01*
X38317759Y-147010000D01*
X38085241Y-147165363D01*
X37885363Y-147365241D01*
X37728320Y-147600273D01*
X37620147Y-147861426D01*
X37565000Y-148138665D01*
X37565000Y-148421335D01*
X37620147Y-148698574D01*
X37728320Y-148959727D01*
X37885363Y-149194759D01*
X38085241Y-149394637D01*
X38317759Y-149550000D01*
X38085241Y-149705363D01*
X37885363Y-149905241D01*
X37728320Y-150140273D01*
X37620147Y-150401426D01*
X37565000Y-150678665D01*
X37565000Y-150961335D01*
X37620147Y-151238574D01*
X37728320Y-151499727D01*
X37885363Y-151734759D01*
X38085241Y-151934637D01*
X38317759Y-152090000D01*
X38085241Y-152245363D01*
X37885363Y-152445241D01*
X37728320Y-152680273D01*
X37620147Y-152941426D01*
X37565000Y-153218665D01*
X37565000Y-153501335D01*
X37620147Y-153778574D01*
X37728320Y-154039727D01*
X37885363Y-154274759D01*
X38085241Y-154474637D01*
X38317759Y-154630000D01*
X38085241Y-154785363D01*
X37885363Y-154985241D01*
X37728320Y-155220273D01*
X37620147Y-155481426D01*
X37565000Y-155758665D01*
X37565000Y-156041335D01*
X37620147Y-156318574D01*
X37728320Y-156579727D01*
X37885363Y-156814759D01*
X38085241Y-157014637D01*
X38317759Y-157170000D01*
X38085241Y-157325363D01*
X37885363Y-157525241D01*
X37728320Y-157760273D01*
X37620147Y-158021426D01*
X37565000Y-158298665D01*
X37565000Y-158581335D01*
X37620147Y-158858574D01*
X37728320Y-159119727D01*
X37885363Y-159354759D01*
X38085241Y-159554637D01*
X38317759Y-159710000D01*
X38085241Y-159865363D01*
X37885363Y-160065241D01*
X37728320Y-160300273D01*
X37620147Y-160561426D01*
X37565000Y-160838665D01*
X37565000Y-161121335D01*
X37620147Y-161398574D01*
X37728320Y-161659727D01*
X37885363Y-161894759D01*
X38085241Y-162094637D01*
X38317759Y-162250000D01*
X38085241Y-162405363D01*
X37885363Y-162605241D01*
X37728320Y-162840273D01*
X37620147Y-163101426D01*
X37565000Y-163378665D01*
X37565000Y-163661335D01*
X37620147Y-163938574D01*
X37728320Y-164199727D01*
X37885363Y-164434759D01*
X38085241Y-164634637D01*
X38317759Y-164790000D01*
X38085241Y-164945363D01*
X37885363Y-165145241D01*
X37728320Y-165380273D01*
X37620147Y-165641426D01*
X37565000Y-165918665D01*
X37565000Y-166201335D01*
X37620147Y-166478574D01*
X37728320Y-166739727D01*
X37885363Y-166974759D01*
X38085241Y-167174637D01*
X38320273Y-167331680D01*
X38581426Y-167439853D01*
X38858665Y-167495000D01*
X39141335Y-167495000D01*
X39418574Y-167439853D01*
X39679727Y-167331680D01*
X39914759Y-167174637D01*
X40084770Y-167004627D01*
X40958253Y-167878110D01*
X40982836Y-167908064D01*
X41102367Y-168006162D01*
X41238740Y-168079054D01*
X41386713Y-168123942D01*
X41461626Y-168131320D01*
X41502039Y-168135300D01*
X41502044Y-168135300D01*
X41540600Y-168139097D01*
X41579156Y-168135300D01*
X54715947Y-168135300D01*
X54754500Y-168139097D01*
X54793053Y-168135300D01*
X54793061Y-168135300D01*
X54908387Y-168123941D01*
X55056360Y-168079054D01*
X55192733Y-168006162D01*
X55312264Y-167908064D01*
X55336847Y-167878110D01*
X56921368Y-166293589D01*
X61735000Y-166293589D01*
X61735000Y-166566411D01*
X61788225Y-166833989D01*
X61892629Y-167086043D01*
X62044201Y-167312886D01*
X62237114Y-167505799D01*
X62463957Y-167657371D01*
X62716011Y-167761775D01*
X62983589Y-167815000D01*
X63256411Y-167815000D01*
X63523989Y-167761775D01*
X63776043Y-167657371D01*
X64002886Y-167505799D01*
X64195799Y-167312886D01*
X64347371Y-167086043D01*
X64451775Y-166833989D01*
X64505000Y-166566411D01*
X64505000Y-166293589D01*
X71845000Y-166293589D01*
X71845000Y-166566411D01*
X71898225Y-166833989D01*
X72002629Y-167086043D01*
X72154201Y-167312886D01*
X72347114Y-167505799D01*
X72573957Y-167657371D01*
X72826011Y-167761775D01*
X73093589Y-167815000D01*
X73366411Y-167815000D01*
X73633989Y-167761775D01*
X73886043Y-167657371D01*
X74112886Y-167505799D01*
X74305799Y-167312886D01*
X74457371Y-167086043D01*
X74561775Y-166833989D01*
X74615000Y-166566411D01*
X74615000Y-166293589D01*
X74561775Y-166026011D01*
X74457371Y-165773957D01*
X74305799Y-165547114D01*
X74112886Y-165354201D01*
X73886043Y-165202629D01*
X73633989Y-165098225D01*
X73366411Y-165045000D01*
X73093589Y-165045000D01*
X72826011Y-165098225D01*
X72573957Y-165202629D01*
X72347114Y-165354201D01*
X72154201Y-165547114D01*
X72002629Y-165773957D01*
X71898225Y-166026011D01*
X71845000Y-166293589D01*
X64505000Y-166293589D01*
X64451775Y-166026011D01*
X64347371Y-165773957D01*
X64195799Y-165547114D01*
X64002886Y-165354201D01*
X63776043Y-165202629D01*
X63523989Y-165098225D01*
X63256411Y-165045000D01*
X62983589Y-165045000D01*
X62716011Y-165098225D01*
X62463957Y-165202629D01*
X62237114Y-165354201D01*
X62044201Y-165547114D01*
X61892629Y-165773957D01*
X61788225Y-166026011D01*
X61735000Y-166293589D01*
X56921368Y-166293589D01*
X58621368Y-164593589D01*
X64275000Y-164593589D01*
X64275000Y-164866411D01*
X64328225Y-165133989D01*
X64432629Y-165386043D01*
X64584201Y-165612886D01*
X64777114Y-165805799D01*
X65003957Y-165957371D01*
X65256011Y-166061775D01*
X65523589Y-166115000D01*
X65796411Y-166115000D01*
X66063989Y-166061775D01*
X66316043Y-165957371D01*
X66542886Y-165805799D01*
X66735799Y-165612886D01*
X66887371Y-165386043D01*
X66991775Y-165133989D01*
X67045000Y-164866411D01*
X67045000Y-164593589D01*
X66991775Y-164326011D01*
X66887371Y-164073957D01*
X66735799Y-163847114D01*
X66542886Y-163654201D01*
X66316043Y-163502629D01*
X66063989Y-163398225D01*
X65796411Y-163345000D01*
X65523589Y-163345000D01*
X65256011Y-163398225D01*
X65003957Y-163502629D01*
X64777114Y-163654201D01*
X64584201Y-163847114D01*
X64432629Y-164073957D01*
X64328225Y-164326011D01*
X64275000Y-164593589D01*
X58621368Y-164593589D01*
X59379510Y-163835447D01*
X59409464Y-163810864D01*
X59507562Y-163691333D01*
X59580454Y-163554960D01*
X59591059Y-163520000D01*
X59625342Y-163406987D01*
X59634948Y-163309446D01*
X59636700Y-163291661D01*
X59636700Y-163291656D01*
X59640497Y-163253100D01*
X59636700Y-163214544D01*
X59636700Y-157869657D01*
X59758321Y-157748036D01*
X59757439Y-157750166D01*
X59685000Y-158114344D01*
X59685000Y-158485656D01*
X59757439Y-158849834D01*
X59899534Y-159192882D01*
X60105825Y-159501618D01*
X60368382Y-159764175D01*
X60677118Y-159970466D01*
X61020166Y-160112561D01*
X61384344Y-160185000D01*
X61755656Y-160185000D01*
X61795667Y-160177041D01*
X61727214Y-160279489D01*
X61556851Y-160690782D01*
X61470000Y-161127409D01*
X61470000Y-161572591D01*
X61556851Y-162009218D01*
X61727214Y-162420511D01*
X61974544Y-162790666D01*
X62289334Y-163105456D01*
X62659489Y-163352786D01*
X63070782Y-163523149D01*
X63507409Y-163610000D01*
X63952591Y-163610000D01*
X64389218Y-163523149D01*
X64800511Y-163352786D01*
X65170666Y-163105456D01*
X65485456Y-162790666D01*
X65732786Y-162420511D01*
X65903149Y-162009218D01*
X65990000Y-161572591D01*
X65990000Y-161127409D01*
X65903149Y-160690782D01*
X65732786Y-160279489D01*
X65485456Y-159909334D01*
X65170666Y-159594544D01*
X64800511Y-159347214D01*
X64389218Y-159176851D01*
X63952591Y-159090000D01*
X63507409Y-159090000D01*
X63262939Y-159138628D01*
X63382561Y-158849834D01*
X63455000Y-158485656D01*
X63455000Y-158114344D01*
X63382561Y-157750166D01*
X63240466Y-157407118D01*
X63034175Y-157098382D01*
X62771618Y-156835825D01*
X62462882Y-156629534D01*
X62119834Y-156487439D01*
X61755656Y-156415000D01*
X61384344Y-156415000D01*
X61020166Y-156487439D01*
X61018036Y-156488321D01*
X63013701Y-154492656D01*
X63013700Y-155752447D01*
X63009903Y-155791000D01*
X63013700Y-155829553D01*
X63013700Y-155829560D01*
X63025059Y-155944886D01*
X63069946Y-156092859D01*
X63142838Y-156229232D01*
X63240936Y-156348764D01*
X63270890Y-156373347D01*
X63656749Y-156759205D01*
X63681336Y-156789164D01*
X63800867Y-156887262D01*
X63937240Y-156960154D01*
X64085213Y-157005042D01*
X64160126Y-157012420D01*
X64200539Y-157016400D01*
X64200544Y-157016400D01*
X64239100Y-157020197D01*
X64277656Y-157016400D01*
X68030947Y-157016400D01*
X68069500Y-157020197D01*
X68108053Y-157016400D01*
X68108061Y-157016400D01*
X68223387Y-157005041D01*
X68371360Y-156960154D01*
X68507733Y-156887262D01*
X68627264Y-156789164D01*
X68651847Y-156759211D01*
X69335215Y-156075843D01*
X69368137Y-156195860D01*
X69615116Y-156311760D01*
X69879960Y-156377250D01*
X70152492Y-156389812D01*
X70422238Y-156348965D01*
X70678832Y-156256277D01*
X70791863Y-156195860D01*
X70857388Y-155956993D01*
X71842612Y-155956993D01*
X71908137Y-156195860D01*
X72155116Y-156311760D01*
X72419960Y-156377250D01*
X72692492Y-156389812D01*
X72962238Y-156348965D01*
X73218832Y-156256277D01*
X73331863Y-156195860D01*
X73397388Y-155956993D01*
X72620000Y-155179605D01*
X71842612Y-155956993D01*
X70857388Y-155956993D01*
X70080000Y-155179605D01*
X70065858Y-155193748D01*
X69886253Y-155014143D01*
X69900395Y-155000000D01*
X70259605Y-155000000D01*
X71036993Y-155777388D01*
X71275860Y-155711863D01*
X71348578Y-155556904D01*
X71363723Y-155598832D01*
X71424140Y-155711863D01*
X71663007Y-155777388D01*
X72440395Y-155000000D01*
X72799605Y-155000000D01*
X73576993Y-155777388D01*
X73815860Y-155711863D01*
X73931760Y-155464884D01*
X73997250Y-155200040D01*
X74009812Y-154927508D01*
X73968965Y-154657762D01*
X73876277Y-154401168D01*
X73815860Y-154288137D01*
X73576993Y-154222612D01*
X72799605Y-155000000D01*
X72440395Y-155000000D01*
X71663007Y-154222612D01*
X71424140Y-154288137D01*
X71351422Y-154443096D01*
X71336277Y-154401168D01*
X71275860Y-154288137D01*
X71036993Y-154222612D01*
X70259605Y-155000000D01*
X69900395Y-155000000D01*
X69886253Y-154985858D01*
X70065858Y-154806253D01*
X70080000Y-154820395D01*
X70857388Y-154043007D01*
X71842612Y-154043007D01*
X72620000Y-154820395D01*
X73397388Y-154043007D01*
X73331863Y-153804140D01*
X73084884Y-153688240D01*
X72820040Y-153622750D01*
X72547508Y-153610188D01*
X72277762Y-153651035D01*
X72021168Y-153743723D01*
X71908137Y-153804140D01*
X71842612Y-154043007D01*
X70857388Y-154043007D01*
X70791863Y-153804140D01*
X70653014Y-153738982D01*
X70698128Y-153684012D01*
X70885116Y-153771760D01*
X71149960Y-153837250D01*
X71422492Y-153849812D01*
X71692238Y-153808965D01*
X71948832Y-153716277D01*
X72061863Y-153655860D01*
X72127388Y-153416993D01*
X73112612Y-153416993D01*
X73178137Y-153655860D01*
X73425116Y-153771760D01*
X73689960Y-153837250D01*
X73962492Y-153849812D01*
X74232238Y-153808965D01*
X74488832Y-153716277D01*
X74601863Y-153655860D01*
X74667388Y-153416993D01*
X73890000Y-152639605D01*
X73112612Y-153416993D01*
X72127388Y-153416993D01*
X71350000Y-152639605D01*
X71335858Y-152653748D01*
X71156253Y-152474143D01*
X71170395Y-152460000D01*
X71529605Y-152460000D01*
X72306993Y-153237388D01*
X72545860Y-153171863D01*
X72618578Y-153016904D01*
X72633723Y-153058832D01*
X72694140Y-153171863D01*
X72933007Y-153237388D01*
X73710395Y-152460000D01*
X74069605Y-152460000D01*
X74846993Y-153237388D01*
X75085860Y-153171863D01*
X75201760Y-152924884D01*
X75267250Y-152660040D01*
X75279812Y-152387508D01*
X75238965Y-152117762D01*
X75146277Y-151861168D01*
X75085860Y-151748137D01*
X74846993Y-151682612D01*
X74069605Y-152460000D01*
X73710395Y-152460000D01*
X72933007Y-151682612D01*
X72694140Y-151748137D01*
X72621422Y-151903096D01*
X72606277Y-151861168D01*
X72545860Y-151748137D01*
X72306993Y-151682612D01*
X71529605Y-152460000D01*
X71170395Y-152460000D01*
X71156253Y-152445858D01*
X71335858Y-152266253D01*
X71350000Y-152280395D01*
X72127388Y-151503007D01*
X73112612Y-151503007D01*
X73890000Y-152280395D01*
X74667388Y-151503007D01*
X74601863Y-151264140D01*
X74354884Y-151148240D01*
X74090040Y-151082750D01*
X73817508Y-151070188D01*
X73547762Y-151111035D01*
X73291168Y-151203723D01*
X73178137Y-151264140D01*
X73112612Y-151503007D01*
X72127388Y-151503007D01*
X72061863Y-151264140D01*
X71814884Y-151148240D01*
X71550040Y-151082750D01*
X71277508Y-151070188D01*
X71007762Y-151111035D01*
X70942262Y-151134695D01*
X77866710Y-144210247D01*
X77896664Y-144185664D01*
X77994762Y-144066133D01*
X78067654Y-143929760D01*
X78071012Y-143918691D01*
X78112542Y-143781787D01*
X78119920Y-143706874D01*
X78123900Y-143666461D01*
X78123900Y-143666456D01*
X78127697Y-143627900D01*
X78123900Y-143589344D01*
X78123900Y-142879957D01*
X78594017Y-142409840D01*
X78633320Y-142504727D01*
X78790363Y-142739759D01*
X78990241Y-142939637D01*
X79120001Y-143026340D01*
X79120000Y-157719842D01*
X78990466Y-157407118D01*
X78784175Y-157098382D01*
X78521618Y-156835825D01*
X78212882Y-156629534D01*
X77869834Y-156487439D01*
X77505656Y-156415000D01*
X77134344Y-156415000D01*
X76770166Y-156487439D01*
X76427118Y-156629534D01*
X76118382Y-156835825D01*
X75855825Y-157098382D01*
X75649534Y-157407118D01*
X75507439Y-157750166D01*
X75435000Y-158114344D01*
X75435000Y-158485656D01*
X75507439Y-158849834D01*
X75627061Y-159138628D01*
X75382591Y-159090000D01*
X74937409Y-159090000D01*
X74500782Y-159176851D01*
X74089489Y-159347214D01*
X73719334Y-159594544D01*
X73404544Y-159909334D01*
X73157214Y-160279489D01*
X72986851Y-160690782D01*
X72900000Y-161127409D01*
X72900000Y-161572591D01*
X72986851Y-162009218D01*
X73157214Y-162420511D01*
X73404544Y-162790666D01*
X73719334Y-163105456D01*
X74089489Y-163352786D01*
X74500782Y-163523149D01*
X74937409Y-163610000D01*
X74953265Y-163610000D01*
X74887114Y-163654201D01*
X74694201Y-163847114D01*
X74542629Y-164073957D01*
X74438225Y-164326011D01*
X74385000Y-164593589D01*
X74385000Y-164866411D01*
X74438225Y-165133989D01*
X74542629Y-165386043D01*
X74694201Y-165612886D01*
X74887114Y-165805799D01*
X75113957Y-165957371D01*
X75366011Y-166061775D01*
X75633589Y-166115000D01*
X75906411Y-166115000D01*
X76173989Y-166061775D01*
X76426043Y-165957371D01*
X76652886Y-165805799D01*
X76845799Y-165612886D01*
X76997371Y-165386043D01*
X77101775Y-165133989D01*
X77155000Y-164866411D01*
X77155000Y-164593589D01*
X77101775Y-164326011D01*
X76997371Y-164073957D01*
X76845799Y-163847114D01*
X76652886Y-163654201D01*
X76426043Y-163502629D01*
X76173989Y-163398225D01*
X76138064Y-163391079D01*
X76230511Y-163352786D01*
X76600666Y-163105456D01*
X76915456Y-162790666D01*
X77162786Y-162420511D01*
X77333149Y-162009218D01*
X77420000Y-161572591D01*
X77420000Y-161127409D01*
X77333149Y-160690782D01*
X77162786Y-160279489D01*
X77094333Y-160177041D01*
X77134344Y-160185000D01*
X77505656Y-160185000D01*
X77869834Y-160112561D01*
X78212882Y-159970466D01*
X78521618Y-159764175D01*
X78784175Y-159501618D01*
X78990466Y-159192882D01*
X79120000Y-158880158D01*
X79120000Y-163366447D01*
X79116203Y-163405000D01*
X79120000Y-163443553D01*
X79120000Y-163443560D01*
X79131359Y-163558886D01*
X79176246Y-163706859D01*
X79249138Y-163843232D01*
X79347236Y-163962764D01*
X79377190Y-163987347D01*
X84386928Y-168997085D01*
X84386928Y-170100000D01*
X84403992Y-170273254D01*
X84454528Y-170439850D01*
X84536595Y-170593386D01*
X84647038Y-170727962D01*
X84781614Y-170838405D01*
X84935150Y-170920472D01*
X85101746Y-170971008D01*
X85275000Y-170988072D01*
X86725000Y-170988072D01*
X86898254Y-170971008D01*
X87064850Y-170920472D01*
X87218386Y-170838405D01*
X87352962Y-170727962D01*
X87463405Y-170593386D01*
X87545472Y-170439850D01*
X87596008Y-170273254D01*
X87613072Y-170100000D01*
X87613072Y-168900000D01*
X87596008Y-168726746D01*
X87545472Y-168560150D01*
X87463405Y-168406614D01*
X87352962Y-168272038D01*
X87218386Y-168161595D01*
X87116663Y-168107223D01*
X87180134Y-168055134D01*
X87365706Y-167829014D01*
X87503599Y-167571034D01*
X87588513Y-167291111D01*
X87617185Y-167000000D01*
X87588513Y-166708889D01*
X87503599Y-166428966D01*
X87365706Y-166170986D01*
X87180134Y-165944866D01*
X86954014Y-165759294D01*
X86936626Y-165750000D01*
X86954014Y-165740706D01*
X87180134Y-165555134D01*
X87365706Y-165329014D01*
X87503599Y-165071034D01*
X87588513Y-164791111D01*
X87617185Y-164500000D01*
X87588513Y-164208889D01*
X87503599Y-163928966D01*
X87365706Y-163670986D01*
X87180134Y-163444866D01*
X86954014Y-163259294D01*
X86936626Y-163250000D01*
X86954014Y-163240706D01*
X87180134Y-163055134D01*
X87365706Y-162829014D01*
X87503599Y-162571034D01*
X87588513Y-162291111D01*
X87617185Y-162000000D01*
X87588513Y-161708889D01*
X87503599Y-161428966D01*
X87365706Y-161170986D01*
X87180134Y-160944866D01*
X86954014Y-160759294D01*
X86928278Y-160745538D01*
X87134429Y-160589049D01*
X87327496Y-160371193D01*
X87474352Y-160119858D01*
X87566476Y-159856890D01*
X87445155Y-159627000D01*
X86127000Y-159627000D01*
X86127000Y-159647000D01*
X85873000Y-159647000D01*
X85873000Y-159627000D01*
X84554845Y-159627000D01*
X84433524Y-159856890D01*
X84525648Y-160119858D01*
X84672504Y-160371193D01*
X84865571Y-160589049D01*
X85071722Y-160745538D01*
X85045986Y-160759294D01*
X84819866Y-160944866D01*
X84634294Y-161170986D01*
X84496401Y-161428966D01*
X84411487Y-161708889D01*
X84382815Y-162000000D01*
X84411487Y-162291111D01*
X84496401Y-162571034D01*
X84634294Y-162829014D01*
X84819866Y-163055134D01*
X85045986Y-163240706D01*
X85063374Y-163250000D01*
X85045986Y-163259294D01*
X84819866Y-163444866D01*
X84634294Y-163670986D01*
X84496401Y-163928966D01*
X84411487Y-164208889D01*
X84382815Y-164500000D01*
X84411487Y-164791111D01*
X84496401Y-165071034D01*
X84634294Y-165329014D01*
X84819866Y-165555134D01*
X85045986Y-165740706D01*
X85063374Y-165750000D01*
X85045986Y-165759294D01*
X84819866Y-165944866D01*
X84634294Y-166170986D01*
X84496401Y-166428966D01*
X84411487Y-166708889D01*
X84403199Y-166793042D01*
X80690000Y-163079843D01*
X80690000Y-159143110D01*
X84433524Y-159143110D01*
X84554845Y-159373000D01*
X85873000Y-159373000D01*
X85873000Y-158173835D01*
X86127000Y-158173835D01*
X86127000Y-159373000D01*
X87445155Y-159373000D01*
X87566476Y-159143110D01*
X87474352Y-158880142D01*
X87327496Y-158628807D01*
X87134429Y-158410951D01*
X86902570Y-158234947D01*
X86640830Y-158107558D01*
X86359267Y-158033680D01*
X86127000Y-158173835D01*
X85873000Y-158173835D01*
X85640733Y-158033680D01*
X85359170Y-158107558D01*
X85097430Y-158234947D01*
X84865571Y-158410951D01*
X84672504Y-158628807D01*
X84525648Y-158880142D01*
X84433524Y-159143110D01*
X80690000Y-159143110D01*
X80690000Y-151197533D01*
X80878363Y-151235000D01*
X81121637Y-151235000D01*
X81360236Y-151187540D01*
X81584992Y-151094443D01*
X81787267Y-150959287D01*
X81959287Y-150787267D01*
X82094443Y-150584992D01*
X82187540Y-150360236D01*
X82235000Y-150121637D01*
X82235000Y-149878363D01*
X82234468Y-149875689D01*
X84325157Y-147785000D01*
X84610768Y-147785000D01*
X84634294Y-147829014D01*
X84819866Y-148055134D01*
X85045986Y-148240706D01*
X85063374Y-148250000D01*
X85045986Y-148259294D01*
X84819866Y-148444866D01*
X84634294Y-148670986D01*
X84496401Y-148928966D01*
X84411487Y-149208889D01*
X84382815Y-149500000D01*
X84411487Y-149791111D01*
X84496401Y-150071034D01*
X84634294Y-150329014D01*
X84819866Y-150555134D01*
X84883337Y-150607223D01*
X84781614Y-150661595D01*
X84647038Y-150772038D01*
X84536595Y-150906614D01*
X84454528Y-151060150D01*
X84403992Y-151226746D01*
X84386928Y-151400000D01*
X84386928Y-152600000D01*
X84403992Y-152773254D01*
X84454528Y-152939850D01*
X84536595Y-153093386D01*
X84647038Y-153227962D01*
X84781614Y-153338405D01*
X84935150Y-153420472D01*
X85101746Y-153471008D01*
X85275000Y-153488072D01*
X86725000Y-153488072D01*
X86898254Y-153471008D01*
X87064850Y-153420472D01*
X87218386Y-153338405D01*
X87352962Y-153227962D01*
X87463405Y-153093386D01*
X87545472Y-152939850D01*
X87596008Y-152773254D01*
X87613072Y-152600000D01*
X87613072Y-151400000D01*
X87596008Y-151226746D01*
X87545472Y-151060150D01*
X87463405Y-150906614D01*
X87352962Y-150772038D01*
X87218386Y-150661595D01*
X87116663Y-150607223D01*
X87180134Y-150555134D01*
X87365706Y-150329014D01*
X87503599Y-150071034D01*
X87588513Y-149791111D01*
X87617185Y-149500000D01*
X87588513Y-149208889D01*
X87503599Y-148928966D01*
X87365706Y-148670986D01*
X87180134Y-148444866D01*
X86954014Y-148259294D01*
X86936626Y-148250000D01*
X86954014Y-148240706D01*
X87180134Y-148055134D01*
X87365706Y-147829014D01*
X87503599Y-147571034D01*
X87588513Y-147291111D01*
X87617185Y-147000000D01*
X87588513Y-146708889D01*
X87503599Y-146428966D01*
X87365706Y-146170986D01*
X87180134Y-145944866D01*
X86954014Y-145759294D01*
X86928278Y-145745538D01*
X87134429Y-145589049D01*
X87327496Y-145371193D01*
X87474352Y-145119858D01*
X87566476Y-144856890D01*
X87445155Y-144627000D01*
X86127000Y-144627000D01*
X86127000Y-144647000D01*
X85873000Y-144647000D01*
X85873000Y-144627000D01*
X84554845Y-144627000D01*
X84433524Y-144856890D01*
X84525648Y-145119858D01*
X84672504Y-145371193D01*
X84865571Y-145589049D01*
X85071722Y-145745538D01*
X85045986Y-145759294D01*
X84819866Y-145944866D01*
X84634294Y-146170986D01*
X84610768Y-146215000D01*
X84038556Y-146215000D01*
X84000000Y-146211203D01*
X83961444Y-146215000D01*
X83961439Y-146215000D01*
X83921026Y-146218980D01*
X83846113Y-146226358D01*
X83698140Y-146271246D01*
X83561767Y-146344138D01*
X83442236Y-146442236D01*
X83417653Y-146472190D01*
X81124311Y-148765532D01*
X81121637Y-148765000D01*
X80878363Y-148765000D01*
X80690000Y-148802467D01*
X80690000Y-144143110D01*
X84433524Y-144143110D01*
X84554845Y-144373000D01*
X85873000Y-144373000D01*
X85873000Y-143173835D01*
X86127000Y-143173835D01*
X86127000Y-144373000D01*
X87445155Y-144373000D01*
X87566476Y-144143110D01*
X87474352Y-143880142D01*
X87327496Y-143628807D01*
X87134429Y-143410951D01*
X86902570Y-143234947D01*
X86640830Y-143107558D01*
X86359267Y-143033680D01*
X86127000Y-143173835D01*
X85873000Y-143173835D01*
X85640733Y-143033680D01*
X85359170Y-143107558D01*
X85097430Y-143234947D01*
X84865571Y-143410951D01*
X84672504Y-143628807D01*
X84525648Y-143880142D01*
X84433524Y-144143110D01*
X80690000Y-144143110D01*
X80690000Y-143026339D01*
X80819759Y-142939637D01*
X81019637Y-142739759D01*
X81176680Y-142504727D01*
X81284853Y-142243574D01*
X81340000Y-141966335D01*
X81340000Y-141683665D01*
X81284853Y-141406426D01*
X81176680Y-141145273D01*
X81019637Y-140910241D01*
X80819759Y-140710363D01*
X80584727Y-140553320D01*
X80489841Y-140514017D01*
X83711816Y-137292042D01*
X83685147Y-137356426D01*
X83630000Y-137633665D01*
X83630000Y-137916335D01*
X83685147Y-138193574D01*
X83793320Y-138454727D01*
X83950363Y-138689759D01*
X84150241Y-138889637D01*
X84385273Y-139046680D01*
X84646426Y-139154853D01*
X84923665Y-139210000D01*
X85206335Y-139210000D01*
X85483574Y-139154853D01*
X85744727Y-139046680D01*
X85979759Y-138889637D01*
X86179637Y-138689759D01*
X86336680Y-138454727D01*
X86444853Y-138193574D01*
X86500000Y-137916335D01*
X86500000Y-137633665D01*
X86444853Y-137356426D01*
X86336680Y-137095273D01*
X86179637Y-136860241D01*
X85979759Y-136660363D01*
X85850000Y-136573661D01*
X85850000Y-136563252D01*
X85853797Y-136524699D01*
X85850000Y-136486146D01*
X85850000Y-136486139D01*
X85838641Y-136370813D01*
X85827038Y-136332561D01*
X85793754Y-136222840D01*
X85783958Y-136204513D01*
X85720862Y-136086467D01*
X85668148Y-136022236D01*
X85647345Y-135996887D01*
X85647342Y-135996884D01*
X85622764Y-135966936D01*
X85592815Y-135942357D01*
X84799344Y-135148887D01*
X84785989Y-135132614D01*
X84923665Y-135160000D01*
X85206335Y-135160000D01*
X85483574Y-135104853D01*
X85744727Y-134996680D01*
X85979759Y-134839637D01*
X86179637Y-134639759D01*
X86336680Y-134404727D01*
X86444853Y-134143574D01*
X86500000Y-133866335D01*
X86500000Y-133583665D01*
X86444853Y-133306426D01*
X86336680Y-133045273D01*
X86179637Y-132810241D01*
X85979759Y-132610363D01*
X85850000Y-132523661D01*
X85850000Y-130876339D01*
X85979759Y-130789637D01*
X86179637Y-130589759D01*
X86336680Y-130354727D01*
X86444853Y-130093574D01*
X86500000Y-129816335D01*
X86500000Y-129533665D01*
X86444853Y-129256426D01*
X86336680Y-128995273D01*
X86179637Y-128760241D01*
X85979759Y-128560363D01*
X85744727Y-128403320D01*
X85483574Y-128295147D01*
X85206335Y-128240000D01*
X84923665Y-128240000D01*
X84646426Y-128295147D01*
X84584700Y-128320715D01*
X84584700Y-125435757D01*
X85647815Y-124372642D01*
X85677764Y-124348064D01*
X85702420Y-124318022D01*
X85726450Y-124288741D01*
X85775862Y-124228533D01*
X85848754Y-124092160D01*
X85884294Y-123975000D01*
X85893641Y-123944188D01*
X85898424Y-123895624D01*
X85905000Y-123828861D01*
X85905000Y-123828854D01*
X85908797Y-123790301D01*
X85905000Y-123751748D01*
X85905000Y-123741339D01*
X86034759Y-123654637D01*
X86234637Y-123454759D01*
X86391680Y-123219727D01*
X86499853Y-122958574D01*
X86555000Y-122681335D01*
X86555000Y-122398665D01*
X86499853Y-122121426D01*
X86391680Y-121860273D01*
X86234637Y-121625241D01*
X86034759Y-121425363D01*
X85900398Y-121335586D01*
X85905000Y-121288861D01*
X85908798Y-121250300D01*
X85905000Y-121211739D01*
X85905000Y-121201339D01*
X86034759Y-121114637D01*
X86234637Y-120914759D01*
X86391680Y-120679727D01*
X86499853Y-120418574D01*
X86555000Y-120141335D01*
X86555000Y-119858665D01*
X86499853Y-119581426D01*
X86391680Y-119320273D01*
X86234637Y-119085241D01*
X86034759Y-118885363D01*
X85799727Y-118728320D01*
X85538574Y-118620147D01*
X85261335Y-118565000D01*
X84978665Y-118565000D01*
X84701426Y-118620147D01*
X84440273Y-118728320D01*
X84205241Y-118885363D01*
X84005363Y-119085241D01*
X83848320Y-119320273D01*
X83740147Y-119581426D01*
X83685000Y-119858665D01*
X83685000Y-120141335D01*
X83740147Y-120418574D01*
X83848320Y-120679727D01*
X83922459Y-120790684D01*
X77604590Y-127108553D01*
X77574636Y-127133136D01*
X77476538Y-127252668D01*
X77403646Y-127389041D01*
X77358759Y-127537014D01*
X77347400Y-127652340D01*
X77347400Y-127652347D01*
X77343603Y-127690900D01*
X77347400Y-127729453D01*
X77347401Y-130172442D01*
X75199397Y-132320446D01*
X75046335Y-132290000D01*
X74763665Y-132290000D01*
X74486426Y-132345147D01*
X74225273Y-132453320D01*
X73990241Y-132610363D01*
X73790363Y-132810241D01*
X73633320Y-133045273D01*
X73525147Y-133306426D01*
X73470000Y-133583665D01*
X73470000Y-133866335D01*
X73525147Y-134143574D01*
X73633320Y-134404727D01*
X73790363Y-134639759D01*
X73990241Y-134839637D01*
X74225273Y-134996680D01*
X74486426Y-135104853D01*
X74763665Y-135160000D01*
X75046335Y-135160000D01*
X75199397Y-135129554D01*
X75397900Y-135328057D01*
X75397900Y-136425934D01*
X75323574Y-136395147D01*
X75046335Y-136340000D01*
X74763665Y-136340000D01*
X74610604Y-136370446D01*
X72555300Y-134315143D01*
X72555300Y-131538560D01*
X72559098Y-131500000D01*
X72543941Y-131346113D01*
X72499054Y-131198140D01*
X72426162Y-131061767D01*
X72328064Y-130942236D01*
X72208533Y-130844138D01*
X72072160Y-130771246D01*
X71924187Y-130726359D01*
X71808861Y-130715000D01*
X71808860Y-130715000D01*
X71770300Y-130711202D01*
X71731739Y-130715000D01*
X71727538Y-130715000D01*
X71718932Y-130698899D01*
X71539608Y-130480392D01*
X71321101Y-130301068D01*
X71071808Y-130167818D01*
X70801309Y-130085764D01*
X70590492Y-130065000D01*
X69649508Y-130065000D01*
X69438691Y-130085764D01*
X69168192Y-130167818D01*
X68918899Y-130301068D01*
X68700392Y-130480392D01*
X68521068Y-130698899D01*
X68387818Y-130948192D01*
X68305764Y-131218691D01*
X68278057Y-131500000D01*
X68305764Y-131781309D01*
X68387818Y-132051808D01*
X68521068Y-132301101D01*
X68700392Y-132519608D01*
X68918899Y-132698932D01*
X69051858Y-132770000D01*
X68918899Y-132841068D01*
X68700392Y-133020392D01*
X68521068Y-133238899D01*
X68387818Y-133488192D01*
X68305764Y-133758691D01*
X68278057Y-134040000D01*
X68305764Y-134321309D01*
X68387818Y-134591808D01*
X68521068Y-134841101D01*
X68700392Y-135059608D01*
X68918899Y-135238932D01*
X69051858Y-135310000D01*
X68918899Y-135381068D01*
X68700392Y-135560392D01*
X68521068Y-135778899D01*
X68387818Y-136028192D01*
X68305764Y-136298691D01*
X68278057Y-136580000D01*
X68305764Y-136861309D01*
X68387818Y-137131808D01*
X68521068Y-137381101D01*
X68700392Y-137599608D01*
X68918899Y-137778932D01*
X69051858Y-137850000D01*
X68918899Y-137921068D01*
X68700392Y-138100392D01*
X68521068Y-138318899D01*
X68387818Y-138568192D01*
X68305764Y-138838691D01*
X68278057Y-139120000D01*
X68305764Y-139401309D01*
X68387818Y-139671808D01*
X68521068Y-139921101D01*
X68700392Y-140139608D01*
X68918899Y-140318932D01*
X69051858Y-140390000D01*
X68918899Y-140461068D01*
X68700392Y-140640392D01*
X68521068Y-140858899D01*
X68387818Y-141108192D01*
X68305764Y-141378691D01*
X68278057Y-141660000D01*
X68305764Y-141941309D01*
X68387818Y-142211808D01*
X68521068Y-142461101D01*
X68700392Y-142679608D01*
X68918899Y-142858932D01*
X69051858Y-142930000D01*
X68918899Y-143001068D01*
X68700392Y-143180392D01*
X68521068Y-143398899D01*
X68387818Y-143648192D01*
X68305764Y-143918691D01*
X68278057Y-144200000D01*
X68305764Y-144481309D01*
X68387818Y-144751808D01*
X68521068Y-145001101D01*
X68700392Y-145219608D01*
X68918899Y-145398932D01*
X69051858Y-145470000D01*
X68918899Y-145541068D01*
X68700392Y-145720392D01*
X68521068Y-145938899D01*
X68387818Y-146188192D01*
X68305764Y-146458691D01*
X68278057Y-146740000D01*
X68305764Y-147021309D01*
X68387818Y-147291808D01*
X68521068Y-147541101D01*
X68700392Y-147759608D01*
X68918899Y-147938932D01*
X69168192Y-148072182D01*
X69438691Y-148154236D01*
X69649508Y-148175000D01*
X69767743Y-148175000D01*
X67012190Y-150930553D01*
X66982236Y-150955136D01*
X66884138Y-151074668D01*
X66822608Y-151189785D01*
X66673989Y-151128225D01*
X66406411Y-151075000D01*
X66133589Y-151075000D01*
X65866011Y-151128225D01*
X65613957Y-151232629D01*
X65540900Y-151281444D01*
X65540900Y-134684156D01*
X65544697Y-134645600D01*
X65540900Y-134607040D01*
X65540900Y-134607039D01*
X65533376Y-134530646D01*
X65529542Y-134491713D01*
X65484654Y-134343740D01*
X65481089Y-134337070D01*
X65411762Y-134207367D01*
X65313664Y-134087836D01*
X65283711Y-134063254D01*
X64732647Y-133512190D01*
X64708064Y-133482236D01*
X64588533Y-133384138D01*
X64452160Y-133311246D01*
X64304187Y-133266359D01*
X64188861Y-133255000D01*
X64188853Y-133255000D01*
X64150300Y-133251203D01*
X64111747Y-133255000D01*
X64107538Y-133255000D01*
X64098932Y-133238899D01*
X63919608Y-133020392D01*
X63806518Y-132927581D01*
X63824482Y-132925812D01*
X63944180Y-132889502D01*
X64054494Y-132830537D01*
X64151185Y-132751185D01*
X64230537Y-132654494D01*
X64289502Y-132544180D01*
X64325812Y-132424482D01*
X64338072Y-132300000D01*
X64338072Y-132263362D01*
X64452160Y-132228754D01*
X64588533Y-132155862D01*
X64708064Y-132057764D01*
X64806162Y-131938233D01*
X64879054Y-131801860D01*
X64923941Y-131653887D01*
X64939098Y-131500000D01*
X64935300Y-131461439D01*
X64935300Y-125779557D01*
X65261202Y-125453655D01*
X65432421Y-125594171D01*
X65633940Y-125701885D01*
X65852600Y-125768215D01*
X66080000Y-125790612D01*
X66307399Y-125768215D01*
X66526059Y-125701885D01*
X66727578Y-125594171D01*
X66898798Y-125453655D01*
X71647958Y-130202816D01*
X71672536Y-130232764D01*
X71702484Y-130257342D01*
X71702487Y-130257345D01*
X71731859Y-130281450D01*
X71792067Y-130330862D01*
X71928440Y-130403754D01*
X72076412Y-130448641D01*
X72090790Y-130450057D01*
X72191739Y-130460000D01*
X72191746Y-130460000D01*
X72230299Y-130463797D01*
X72268852Y-130460000D01*
X73703661Y-130460000D01*
X73790363Y-130589759D01*
X73990241Y-130789637D01*
X74225273Y-130946680D01*
X74486426Y-131054853D01*
X74763665Y-131110000D01*
X75046335Y-131110000D01*
X75323574Y-131054853D01*
X75584727Y-130946680D01*
X75819759Y-130789637D01*
X76019637Y-130589759D01*
X76176680Y-130354727D01*
X76284853Y-130093574D01*
X76340000Y-129816335D01*
X76340000Y-129533665D01*
X76284853Y-129256426D01*
X76176680Y-128995273D01*
X76019637Y-128760241D01*
X75819759Y-128560363D01*
X75584727Y-128403320D01*
X75323574Y-128295147D01*
X75046335Y-128240000D01*
X74763665Y-128240000D01*
X74486426Y-128295147D01*
X74225273Y-128403320D01*
X73990241Y-128560363D01*
X73790363Y-128760241D01*
X73703661Y-128890000D01*
X72555458Y-128890000D01*
X67637647Y-123972190D01*
X67613064Y-123942236D01*
X67493533Y-123844138D01*
X67357160Y-123771246D01*
X67209187Y-123726359D01*
X67093861Y-123715000D01*
X67093853Y-123715000D01*
X67055300Y-123711203D01*
X67037314Y-123712974D01*
X66904212Y-123550788D01*
X66727579Y-123405829D01*
X66576358Y-123325000D01*
X76298661Y-123325000D01*
X76385363Y-123454759D01*
X76585241Y-123654637D01*
X76820273Y-123811680D01*
X77081426Y-123919853D01*
X77358665Y-123975000D01*
X77641335Y-123975000D01*
X77918574Y-123919853D01*
X78179727Y-123811680D01*
X78414759Y-123654637D01*
X78614637Y-123454759D01*
X78771680Y-123219727D01*
X78879853Y-122958574D01*
X78935000Y-122681335D01*
X78935000Y-122398665D01*
X78879853Y-122121426D01*
X78771680Y-121860273D01*
X78614637Y-121625241D01*
X78416039Y-121426643D01*
X78424482Y-121425812D01*
X78544180Y-121389502D01*
X78654494Y-121330537D01*
X78751185Y-121251185D01*
X78830537Y-121154494D01*
X78889502Y-121044180D01*
X78925812Y-120924482D01*
X78938072Y-120800000D01*
X78938072Y-119200000D01*
X78925812Y-119075518D01*
X78889502Y-118955820D01*
X78830537Y-118845506D01*
X78751185Y-118748815D01*
X78654494Y-118669463D01*
X78544180Y-118610498D01*
X78424482Y-118574188D01*
X78300000Y-118561928D01*
X76700000Y-118561928D01*
X76575518Y-118574188D01*
X76455820Y-118610498D01*
X76345506Y-118669463D01*
X76248815Y-118748815D01*
X76169463Y-118845506D01*
X76110498Y-118955820D01*
X76074188Y-119075518D01*
X76061928Y-119200000D01*
X76061928Y-120800000D01*
X76074188Y-120924482D01*
X76110498Y-121044180D01*
X76169463Y-121154494D01*
X76248815Y-121251185D01*
X76345506Y-121330537D01*
X76455820Y-121389502D01*
X76575518Y-121425812D01*
X76583961Y-121426643D01*
X76385363Y-121625241D01*
X76298661Y-121755000D01*
X64018756Y-121755000D01*
X63980200Y-121751203D01*
X63941644Y-121755000D01*
X63941639Y-121755000D01*
X63901226Y-121758980D01*
X63826313Y-121766358D01*
X63678340Y-121811246D01*
X63541967Y-121884138D01*
X63422436Y-121982236D01*
X63397853Y-122012190D01*
X61991981Y-123418062D01*
X61976185Y-123398815D01*
X61879494Y-123319463D01*
X61769180Y-123260498D01*
X61649482Y-123224188D01*
X61525000Y-123211928D01*
X60475000Y-123211928D01*
X60350518Y-123224188D01*
X60230820Y-123260498D01*
X60120506Y-123319463D01*
X60023815Y-123398815D01*
X59944463Y-123495506D01*
X59885498Y-123605820D01*
X59849188Y-123725518D01*
X59836928Y-123850000D01*
X59836928Y-125150000D01*
X59849188Y-125274482D01*
X59885498Y-125394180D01*
X59944463Y-125504494D01*
X60023815Y-125601185D01*
X60120506Y-125680537D01*
X60230820Y-125739502D01*
X60350518Y-125775812D01*
X60445842Y-125785200D01*
X59845998Y-126385045D01*
X49393573Y-115932701D01*
X49533574Y-115904853D01*
X49794727Y-115796680D01*
X50029759Y-115639637D01*
X50229637Y-115439759D01*
X50386680Y-115204727D01*
X50494853Y-114943574D01*
X50550000Y-114666335D01*
X50550000Y-114383665D01*
X50494853Y-114106426D01*
X50386680Y-113845273D01*
X50229637Y-113610241D01*
X50029759Y-113410363D01*
X49794727Y-113253320D01*
X49533574Y-113145147D01*
X49256335Y-113090000D01*
X48973665Y-113090000D01*
X48696426Y-113145147D01*
X48435273Y-113253320D01*
X48200241Y-113410363D01*
X48000363Y-113610241D01*
X47843320Y-113845273D01*
X47735147Y-114106426D01*
X47707296Y-114246438D01*
X47458049Y-113997193D01*
X47433464Y-113967236D01*
X47313933Y-113869138D01*
X47177560Y-113796246D01*
X47029587Y-113751359D01*
X47029586Y-113751359D01*
X47029583Y-113751358D01*
X46981898Y-113746662D01*
X46914261Y-113740000D01*
X46914252Y-113740000D01*
X46875697Y-113736203D01*
X46837144Y-113740000D01*
X40156339Y-113740000D01*
X40069637Y-113610241D01*
X39869759Y-113410363D01*
X39634727Y-113253320D01*
X39373574Y-113145147D01*
X39096335Y-113090000D01*
X38813665Y-113090000D01*
X38536426Y-113145147D01*
X38275273Y-113253320D01*
X38040241Y-113410363D01*
X37840363Y-113610241D01*
X37683320Y-113845273D01*
X37575147Y-114106426D01*
X37520000Y-114383665D01*
X35660000Y-114383665D01*
X35660000Y-110660000D01*
X94340000Y-110660000D01*
X94340001Y-174340000D01*
G37*
X94340001Y-174340000D02*
X35660000Y-174340000D01*
X35660000Y-129700000D01*
X37561928Y-129700000D01*
X37561928Y-131300000D01*
X37574188Y-131424482D01*
X37610498Y-131544180D01*
X37669463Y-131654494D01*
X37748815Y-131751185D01*
X37845506Y-131830537D01*
X37955820Y-131889502D01*
X38075518Y-131925812D01*
X38083961Y-131926643D01*
X37885363Y-132125241D01*
X37728320Y-132360273D01*
X37620147Y-132621426D01*
X37565000Y-132898665D01*
X37565000Y-133181335D01*
X37620147Y-133458574D01*
X37728320Y-133719727D01*
X37885363Y-133954759D01*
X38085241Y-134154637D01*
X38317759Y-134310000D01*
X38085241Y-134465363D01*
X37885363Y-134665241D01*
X37728320Y-134900273D01*
X37620147Y-135161426D01*
X37565000Y-135438665D01*
X37565000Y-135721335D01*
X37620147Y-135998574D01*
X37728320Y-136259727D01*
X37885363Y-136494759D01*
X38085241Y-136694637D01*
X38320273Y-136851680D01*
X38330865Y-136856067D01*
X38144869Y-136967615D01*
X37936481Y-137156586D01*
X37768963Y-137382580D01*
X37648754Y-137636913D01*
X37608096Y-137770961D01*
X37730085Y-137993000D01*
X38873000Y-137993000D01*
X38873000Y-137973000D01*
X39127000Y-137973000D01*
X39127000Y-137993000D01*
X40269915Y-137993000D01*
X40391904Y-137770961D01*
X40351246Y-137636913D01*
X40231037Y-137382580D01*
X40063519Y-137156586D01*
X39855131Y-136967615D01*
X39669135Y-136856067D01*
X39679727Y-136851680D01*
X39914759Y-136694637D01*
X40114637Y-136494759D01*
X40271680Y-136259727D01*
X40379853Y-135998574D01*
X40435000Y-135721335D01*
X40435000Y-135438665D01*
X40379853Y-135161426D01*
X40271680Y-134900273D01*
X40114637Y-134665241D01*
X39914759Y-134465363D01*
X39682241Y-134310000D01*
X39914759Y-134154637D01*
X40114637Y-133954759D01*
X40271680Y-133719727D01*
X40379853Y-133458574D01*
X40435000Y-133181335D01*
X40435000Y-132898665D01*
X40379853Y-132621426D01*
X40271680Y-132360273D01*
X40114637Y-132125241D01*
X39916039Y-131926643D01*
X39924482Y-131925812D01*
X40044180Y-131889502D01*
X40154494Y-131830537D01*
X40251185Y-131751185D01*
X40330537Y-131654494D01*
X40389502Y-131544180D01*
X40425812Y-131424482D01*
X40438072Y-131300000D01*
X40438072Y-129700000D01*
X40425812Y-129575518D01*
X40389502Y-129455820D01*
X40330537Y-129345506D01*
X40251185Y-129248815D01*
X40154494Y-129169463D01*
X40044180Y-129110498D01*
X39924482Y-129074188D01*
X39800000Y-129061928D01*
X38200000Y-129061928D01*
X38075518Y-129074188D01*
X37955820Y-129110498D01*
X37845506Y-129169463D01*
X37748815Y-129248815D01*
X37669463Y-129345506D01*
X37610498Y-129455820D01*
X37574188Y-129575518D01*
X37561928Y-129700000D01*
X35660000Y-129700000D01*
X35660000Y-119567702D01*
X38141903Y-119567702D01*
X38213486Y-119811671D01*
X38468996Y-119932571D01*
X38743184Y-120001300D01*
X39025512Y-120015217D01*
X39305130Y-119973787D01*
X39571292Y-119878603D01*
X39696514Y-119811671D01*
X39768097Y-119567702D01*
X38955000Y-118754605D01*
X38141903Y-119567702D01*
X35660000Y-119567702D01*
X35660000Y-118645512D01*
X37514783Y-118645512D01*
X37556213Y-118925130D01*
X37651397Y-119191292D01*
X37718329Y-119316514D01*
X37962298Y-119388097D01*
X38775395Y-118575000D01*
X39134605Y-118575000D01*
X39947702Y-119388097D01*
X40191671Y-119316514D01*
X40312571Y-119061004D01*
X40381300Y-118786816D01*
X40395217Y-118504488D01*
X40353787Y-118224870D01*
X40258603Y-117958708D01*
X40191671Y-117833486D01*
X39947702Y-117761903D01*
X39134605Y-118575000D01*
X38775395Y-118575000D01*
X37962298Y-117761903D01*
X37718329Y-117833486D01*
X37597429Y-118088996D01*
X37528700Y-118363184D01*
X37514783Y-118645512D01*
X35660000Y-118645512D01*
X35660000Y-117582298D01*
X38141903Y-117582298D01*
X38955000Y-118395395D01*
X39768097Y-117582298D01*
X39696514Y-117338329D01*
X39441004Y-117217429D01*
X39166816Y-117148700D01*
X38884488Y-117134783D01*
X38604870Y-117176213D01*
X38338708Y-117271397D01*
X38213486Y-117338329D01*
X38141903Y-117582298D01*
X35660000Y-117582298D01*
X35660000Y-114383665D01*
X37520000Y-114383665D01*
X37520000Y-114666335D01*
X37575147Y-114943574D01*
X37683320Y-115204727D01*
X37840363Y-115439759D01*
X38040241Y-115639637D01*
X38275273Y-115796680D01*
X38536426Y-115904853D01*
X38813665Y-115960000D01*
X39096335Y-115960000D01*
X39373574Y-115904853D01*
X39634727Y-115796680D01*
X39869759Y-115639637D01*
X40069637Y-115439759D01*
X40156339Y-115310000D01*
X46550545Y-115310000D01*
X48512070Y-117271510D01*
X48435273Y-117303320D01*
X48200241Y-117460363D01*
X48000363Y-117660241D01*
X47843320Y-117895273D01*
X47735147Y-118156426D01*
X47680000Y-118433665D01*
X47680000Y-118716335D01*
X47735147Y-118993574D01*
X47843320Y-119254727D01*
X48000363Y-119489759D01*
X48200241Y-119689637D01*
X48330000Y-119776339D01*
X48330000Y-119786747D01*
X48326203Y-119825300D01*
X48330000Y-119863853D01*
X48330000Y-119863860D01*
X48341359Y-119979186D01*
X48386246Y-120127159D01*
X48459138Y-120263532D01*
X48557236Y-120383064D01*
X48587190Y-120407647D01*
X49430794Y-121251251D01*
X49242000Y-121354376D01*
X49242000Y-122498000D01*
X50384915Y-122498000D01*
X50488678Y-122309135D01*
X54744601Y-126565059D01*
X54744601Y-129155780D01*
X54658574Y-129120147D01*
X54381335Y-129065000D01*
X54098665Y-129065000D01*
X53821426Y-129120147D01*
X53560273Y-129228320D01*
X53325241Y-129385363D01*
X53125363Y-129585241D01*
X52968320Y-129820273D01*
X52860147Y-130081426D01*
X52805000Y-130358665D01*
X52805000Y-130641335D01*
X52860147Y-130918574D01*
X52968320Y-131179727D01*
X53125363Y-131414759D01*
X53325241Y-131614637D01*
X53560273Y-131771680D01*
X53570865Y-131776067D01*
X53384869Y-131887615D01*
X53176481Y-132076586D01*
X53008963Y-132302580D01*
X52888754Y-132556913D01*
X52848096Y-132690961D01*
X52970085Y-132913000D01*
X54113000Y-132913000D01*
X54113000Y-132893000D01*
X54367000Y-132893000D01*
X54367000Y-132913000D01*
X54387000Y-132913000D01*
X54387000Y-133167000D01*
X54367000Y-133167000D01*
X54367000Y-133187000D01*
X54113000Y-133187000D01*
X54113000Y-133167000D01*
X52970085Y-133167000D01*
X52848096Y-133389039D01*
X52888754Y-133523087D01*
X53008963Y-133777420D01*
X53176481Y-134003414D01*
X53384869Y-134192385D01*
X53570865Y-134303933D01*
X53560273Y-134308320D01*
X53325241Y-134465363D01*
X53125363Y-134665241D01*
X52968320Y-134900273D01*
X52860147Y-135161426D01*
X52817248Y-135377090D01*
X40414197Y-122974039D01*
X47723096Y-122974039D01*
X47763754Y-123108087D01*
X47883963Y-123362420D01*
X48051481Y-123588414D01*
X48259869Y-123777385D01*
X48501119Y-123922070D01*
X48765960Y-124016909D01*
X48988000Y-123895624D01*
X48988000Y-122752000D01*
X49242000Y-122752000D01*
X49242000Y-123895624D01*
X49464040Y-124016909D01*
X49728881Y-123922070D01*
X49970131Y-123777385D01*
X50178519Y-123588414D01*
X50346037Y-123362420D01*
X50466246Y-123108087D01*
X50506904Y-122974039D01*
X50384915Y-122752000D01*
X49242000Y-122752000D01*
X48988000Y-122752000D01*
X47845085Y-122752000D01*
X47723096Y-122974039D01*
X40414197Y-122974039D01*
X40359554Y-122919397D01*
X40390000Y-122766335D01*
X40390000Y-122483665D01*
X40348685Y-122275961D01*
X47723096Y-122275961D01*
X47845085Y-122498000D01*
X48988000Y-122498000D01*
X48988000Y-121354376D01*
X48765960Y-121233091D01*
X48501119Y-121327930D01*
X48259869Y-121472615D01*
X48051481Y-121661586D01*
X47883963Y-121887580D01*
X47763754Y-122141913D01*
X47723096Y-122275961D01*
X40348685Y-122275961D01*
X40334853Y-122206426D01*
X40226680Y-121945273D01*
X40069637Y-121710241D01*
X39869759Y-121510363D01*
X39634727Y-121353320D01*
X39373574Y-121245147D01*
X39096335Y-121190000D01*
X38813665Y-121190000D01*
X38536426Y-121245147D01*
X38275273Y-121353320D01*
X38040241Y-121510363D01*
X37840363Y-121710241D01*
X37683320Y-121945273D01*
X37575147Y-122206426D01*
X37520000Y-122483665D01*
X37520000Y-122766335D01*
X37575147Y-123043574D01*
X37683320Y-123304727D01*
X37840363Y-123539759D01*
X38040241Y-123739637D01*
X38275273Y-123896680D01*
X38536426Y-124004853D01*
X38813665Y-124060000D01*
X39096335Y-124060000D01*
X39249397Y-124029554D01*
X52204701Y-136984859D01*
X52204700Y-154611147D01*
X52200903Y-154649700D01*
X52204700Y-154688253D01*
X52204700Y-154688260D01*
X52216059Y-154803586D01*
X52260946Y-154951559D01*
X52333838Y-155087932D01*
X52431936Y-155207464D01*
X52461890Y-155232047D01*
X52835446Y-155605604D01*
X52805000Y-155758665D01*
X52805000Y-156041335D01*
X52860147Y-156318574D01*
X52968320Y-156579727D01*
X53125363Y-156814759D01*
X53325241Y-157014637D01*
X53557759Y-157170000D01*
X53325241Y-157325363D01*
X53125363Y-157525241D01*
X52968320Y-157760273D01*
X52860147Y-158021426D01*
X52805000Y-158298665D01*
X52805000Y-158581335D01*
X52860147Y-158858574D01*
X52887662Y-158925000D01*
X44098856Y-158925000D01*
X44060300Y-158921203D01*
X44021744Y-158925000D01*
X44021739Y-158925000D01*
X43981326Y-158928980D01*
X43906413Y-158936358D01*
X43758440Y-158981246D01*
X43622067Y-159054138D01*
X43502536Y-159152236D01*
X43477955Y-159182188D01*
X40084770Y-162575374D01*
X39914759Y-162405363D01*
X39682241Y-162250000D01*
X39914759Y-162094637D01*
X40114637Y-161894759D01*
X40271680Y-161659727D01*
X40379853Y-161398574D01*
X40435000Y-161121335D01*
X40435000Y-160838665D01*
X40379853Y-160561426D01*
X40271680Y-160300273D01*
X40114637Y-160065241D01*
X39914759Y-159865363D01*
X39682241Y-159710000D01*
X39914759Y-159554637D01*
X40114637Y-159354759D01*
X40271680Y-159119727D01*
X40379853Y-158858574D01*
X40435000Y-158581335D01*
X40435000Y-158298665D01*
X40379853Y-158021426D01*
X40271680Y-157760273D01*
X40114637Y-157525241D01*
X39914759Y-157325363D01*
X39682241Y-157170000D01*
X39914759Y-157014637D01*
X40114637Y-156814759D01*
X40271680Y-156579727D01*
X40379853Y-156318574D01*
X40435000Y-156041335D01*
X40435000Y-155758665D01*
X40379853Y-155481426D01*
X40271680Y-155220273D01*
X40114637Y-154985241D01*
X39914759Y-154785363D01*
X39682241Y-154630000D01*
X39914759Y-154474637D01*
X40114637Y-154274759D01*
X40271680Y-154039727D01*
X40379853Y-153778574D01*
X40435000Y-153501335D01*
X40435000Y-153218665D01*
X40379853Y-152941426D01*
X40271680Y-152680273D01*
X40114637Y-152445241D01*
X39914759Y-152245363D01*
X39682241Y-152090000D01*
X39914759Y-151934637D01*
X40114637Y-151734759D01*
X40271680Y-151499727D01*
X40379853Y-151238574D01*
X40435000Y-150961335D01*
X40435000Y-150678665D01*
X40379853Y-150401426D01*
X40271680Y-150140273D01*
X40114637Y-149905241D01*
X39914759Y-149705363D01*
X39682241Y-149550000D01*
X39914759Y-149394637D01*
X40114637Y-149194759D01*
X40271680Y-148959727D01*
X40379853Y-148698574D01*
X40435000Y-148421335D01*
X40435000Y-148138665D01*
X40379853Y-147861426D01*
X40271680Y-147600273D01*
X40114637Y-147365241D01*
X39914759Y-147165363D01*
X39682241Y-147010000D01*
X39914759Y-146854637D01*
X40114637Y-146654759D01*
X40271680Y-146419727D01*
X40379853Y-146158574D01*
X40435000Y-145881335D01*
X40435000Y-145598665D01*
X40379853Y-145321426D01*
X40271680Y-145060273D01*
X40114637Y-144825241D01*
X39914759Y-144625363D01*
X39682241Y-144470000D01*
X39914759Y-144314637D01*
X40114637Y-144114759D01*
X40271680Y-143879727D01*
X40379853Y-143618574D01*
X40435000Y-143341335D01*
X40435000Y-143058665D01*
X40379853Y-142781426D01*
X40271680Y-142520273D01*
X40114637Y-142285241D01*
X39914759Y-142085363D01*
X39682241Y-141930000D01*
X39914759Y-141774637D01*
X40114637Y-141574759D01*
X40271680Y-141339727D01*
X40379853Y-141078574D01*
X40435000Y-140801335D01*
X40435000Y-140518665D01*
X40379853Y-140241426D01*
X40271680Y-139980273D01*
X40114637Y-139745241D01*
X39914759Y-139545363D01*
X39679727Y-139388320D01*
X39669135Y-139383933D01*
X39855131Y-139272385D01*
X40063519Y-139083414D01*
X40231037Y-138857420D01*
X40351246Y-138603087D01*
X40391904Y-138469039D01*
X40269915Y-138247000D01*
X39127000Y-138247000D01*
X39127000Y-138267000D01*
X38873000Y-138267000D01*
X38873000Y-138247000D01*
X37730085Y-138247000D01*
X37608096Y-138469039D01*
X37648754Y-138603087D01*
X37768963Y-138857420D01*
X37936481Y-139083414D01*
X38144869Y-139272385D01*
X38330865Y-139383933D01*
X38320273Y-139388320D01*
X38085241Y-139545363D01*
X37885363Y-139745241D01*
X37728320Y-139980273D01*
X37620147Y-140241426D01*
X37565000Y-140518665D01*
X37565000Y-140801335D01*
X37620147Y-141078574D01*
X37728320Y-141339727D01*
X37885363Y-141574759D01*
X38085241Y-141774637D01*
X38317759Y-141930000D01*
X38085241Y-142085363D01*
X37885363Y-142285241D01*
X37728320Y-142520273D01*
X37620147Y-142781426D01*
X37565000Y-143058665D01*
X37565000Y-143341335D01*
X37620147Y-143618574D01*
X37728320Y-143879727D01*
X37885363Y-144114759D01*
X38085241Y-144314637D01*
X38317759Y-144470000D01*
X38085241Y-144625363D01*
X37885363Y-144825241D01*
X37728320Y-145060273D01*
X37620147Y-145321426D01*
X37565000Y-145598665D01*
X37565000Y-145881335D01*
X37620147Y-146158574D01*
X37728320Y-146419727D01*
X37885363Y-146654759D01*
X38085241Y-146854637D01*
X38317759Y-147010000D01*
X38085241Y-147165363D01*
X37885363Y-147365241D01*
X37728320Y-147600273D01*
X37620147Y-147861426D01*
X37565000Y-148138665D01*
X37565000Y-148421335D01*
X37620147Y-148698574D01*
X37728320Y-148959727D01*
X37885363Y-149194759D01*
X38085241Y-149394637D01*
X38317759Y-149550000D01*
X38085241Y-149705363D01*
X37885363Y-149905241D01*
X37728320Y-150140273D01*
X37620147Y-150401426D01*
X37565000Y-150678665D01*
X37565000Y-150961335D01*
X37620147Y-151238574D01*
X37728320Y-151499727D01*
X37885363Y-151734759D01*
X38085241Y-151934637D01*
X38317759Y-152090000D01*
X38085241Y-152245363D01*
X37885363Y-152445241D01*
X37728320Y-152680273D01*
X37620147Y-152941426D01*
X37565000Y-153218665D01*
X37565000Y-153501335D01*
X37620147Y-153778574D01*
X37728320Y-154039727D01*
X37885363Y-154274759D01*
X38085241Y-154474637D01*
X38317759Y-154630000D01*
X38085241Y-154785363D01*
X37885363Y-154985241D01*
X37728320Y-155220273D01*
X37620147Y-155481426D01*
X37565000Y-155758665D01*
X37565000Y-156041335D01*
X37620147Y-156318574D01*
X37728320Y-156579727D01*
X37885363Y-156814759D01*
X38085241Y-157014637D01*
X38317759Y-157170000D01*
X38085241Y-157325363D01*
X37885363Y-157525241D01*
X37728320Y-157760273D01*
X37620147Y-158021426D01*
X37565000Y-158298665D01*
X37565000Y-158581335D01*
X37620147Y-158858574D01*
X37728320Y-159119727D01*
X37885363Y-159354759D01*
X38085241Y-159554637D01*
X38317759Y-159710000D01*
X38085241Y-159865363D01*
X37885363Y-160065241D01*
X37728320Y-160300273D01*
X37620147Y-160561426D01*
X37565000Y-160838665D01*
X37565000Y-161121335D01*
X37620147Y-161398574D01*
X37728320Y-161659727D01*
X37885363Y-161894759D01*
X38085241Y-162094637D01*
X38317759Y-162250000D01*
X38085241Y-162405363D01*
X37885363Y-162605241D01*
X37728320Y-162840273D01*
X37620147Y-163101426D01*
X37565000Y-163378665D01*
X37565000Y-163661335D01*
X37620147Y-163938574D01*
X37728320Y-164199727D01*
X37885363Y-164434759D01*
X38085241Y-164634637D01*
X38317759Y-164790000D01*
X38085241Y-164945363D01*
X37885363Y-165145241D01*
X37728320Y-165380273D01*
X37620147Y-165641426D01*
X37565000Y-165918665D01*
X37565000Y-166201335D01*
X37620147Y-166478574D01*
X37728320Y-166739727D01*
X37885363Y-166974759D01*
X38085241Y-167174637D01*
X38320273Y-167331680D01*
X38581426Y-167439853D01*
X38858665Y-167495000D01*
X39141335Y-167495000D01*
X39418574Y-167439853D01*
X39679727Y-167331680D01*
X39914759Y-167174637D01*
X40084770Y-167004627D01*
X40958253Y-167878110D01*
X40982836Y-167908064D01*
X41102367Y-168006162D01*
X41238740Y-168079054D01*
X41386713Y-168123942D01*
X41461626Y-168131320D01*
X41502039Y-168135300D01*
X41502044Y-168135300D01*
X41540600Y-168139097D01*
X41579156Y-168135300D01*
X54715947Y-168135300D01*
X54754500Y-168139097D01*
X54793053Y-168135300D01*
X54793061Y-168135300D01*
X54908387Y-168123941D01*
X55056360Y-168079054D01*
X55192733Y-168006162D01*
X55312264Y-167908064D01*
X55336847Y-167878110D01*
X56921368Y-166293589D01*
X61735000Y-166293589D01*
X61735000Y-166566411D01*
X61788225Y-166833989D01*
X61892629Y-167086043D01*
X62044201Y-167312886D01*
X62237114Y-167505799D01*
X62463957Y-167657371D01*
X62716011Y-167761775D01*
X62983589Y-167815000D01*
X63256411Y-167815000D01*
X63523989Y-167761775D01*
X63776043Y-167657371D01*
X64002886Y-167505799D01*
X64195799Y-167312886D01*
X64347371Y-167086043D01*
X64451775Y-166833989D01*
X64505000Y-166566411D01*
X64505000Y-166293589D01*
X71845000Y-166293589D01*
X71845000Y-166566411D01*
X71898225Y-166833989D01*
X72002629Y-167086043D01*
X72154201Y-167312886D01*
X72347114Y-167505799D01*
X72573957Y-167657371D01*
X72826011Y-167761775D01*
X73093589Y-167815000D01*
X73366411Y-167815000D01*
X73633989Y-167761775D01*
X73886043Y-167657371D01*
X74112886Y-167505799D01*
X74305799Y-167312886D01*
X74457371Y-167086043D01*
X74561775Y-166833989D01*
X74615000Y-166566411D01*
X74615000Y-166293589D01*
X74561775Y-166026011D01*
X74457371Y-165773957D01*
X74305799Y-165547114D01*
X74112886Y-165354201D01*
X73886043Y-165202629D01*
X73633989Y-165098225D01*
X73366411Y-165045000D01*
X73093589Y-165045000D01*
X72826011Y-165098225D01*
X72573957Y-165202629D01*
X72347114Y-165354201D01*
X72154201Y-165547114D01*
X72002629Y-165773957D01*
X71898225Y-166026011D01*
X71845000Y-166293589D01*
X64505000Y-166293589D01*
X64451775Y-166026011D01*
X64347371Y-165773957D01*
X64195799Y-165547114D01*
X64002886Y-165354201D01*
X63776043Y-165202629D01*
X63523989Y-165098225D01*
X63256411Y-165045000D01*
X62983589Y-165045000D01*
X62716011Y-165098225D01*
X62463957Y-165202629D01*
X62237114Y-165354201D01*
X62044201Y-165547114D01*
X61892629Y-165773957D01*
X61788225Y-166026011D01*
X61735000Y-166293589D01*
X56921368Y-166293589D01*
X58621368Y-164593589D01*
X64275000Y-164593589D01*
X64275000Y-164866411D01*
X64328225Y-165133989D01*
X64432629Y-165386043D01*
X64584201Y-165612886D01*
X64777114Y-165805799D01*
X65003957Y-165957371D01*
X65256011Y-166061775D01*
X65523589Y-166115000D01*
X65796411Y-166115000D01*
X66063989Y-166061775D01*
X66316043Y-165957371D01*
X66542886Y-165805799D01*
X66735799Y-165612886D01*
X66887371Y-165386043D01*
X66991775Y-165133989D01*
X67045000Y-164866411D01*
X67045000Y-164593589D01*
X66991775Y-164326011D01*
X66887371Y-164073957D01*
X66735799Y-163847114D01*
X66542886Y-163654201D01*
X66316043Y-163502629D01*
X66063989Y-163398225D01*
X65796411Y-163345000D01*
X65523589Y-163345000D01*
X65256011Y-163398225D01*
X65003957Y-163502629D01*
X64777114Y-163654201D01*
X64584201Y-163847114D01*
X64432629Y-164073957D01*
X64328225Y-164326011D01*
X64275000Y-164593589D01*
X58621368Y-164593589D01*
X59379510Y-163835447D01*
X59409464Y-163810864D01*
X59507562Y-163691333D01*
X59580454Y-163554960D01*
X59591059Y-163520000D01*
X59625342Y-163406987D01*
X59634948Y-163309446D01*
X59636700Y-163291661D01*
X59636700Y-163291656D01*
X59640497Y-163253100D01*
X59636700Y-163214544D01*
X59636700Y-157869657D01*
X59758321Y-157748036D01*
X59757439Y-157750166D01*
X59685000Y-158114344D01*
X59685000Y-158485656D01*
X59757439Y-158849834D01*
X59899534Y-159192882D01*
X60105825Y-159501618D01*
X60368382Y-159764175D01*
X60677118Y-159970466D01*
X61020166Y-160112561D01*
X61384344Y-160185000D01*
X61755656Y-160185000D01*
X61795667Y-160177041D01*
X61727214Y-160279489D01*
X61556851Y-160690782D01*
X61470000Y-161127409D01*
X61470000Y-161572591D01*
X61556851Y-162009218D01*
X61727214Y-162420511D01*
X61974544Y-162790666D01*
X62289334Y-163105456D01*
X62659489Y-163352786D01*
X63070782Y-163523149D01*
X63507409Y-163610000D01*
X63952591Y-163610000D01*
X64389218Y-163523149D01*
X64800511Y-163352786D01*
X65170666Y-163105456D01*
X65485456Y-162790666D01*
X65732786Y-162420511D01*
X65903149Y-162009218D01*
X65990000Y-161572591D01*
X65990000Y-161127409D01*
X65903149Y-160690782D01*
X65732786Y-160279489D01*
X65485456Y-159909334D01*
X65170666Y-159594544D01*
X64800511Y-159347214D01*
X64389218Y-159176851D01*
X63952591Y-159090000D01*
X63507409Y-159090000D01*
X63262939Y-159138628D01*
X63382561Y-158849834D01*
X63455000Y-158485656D01*
X63455000Y-158114344D01*
X63382561Y-157750166D01*
X63240466Y-157407118D01*
X63034175Y-157098382D01*
X62771618Y-156835825D01*
X62462882Y-156629534D01*
X62119834Y-156487439D01*
X61755656Y-156415000D01*
X61384344Y-156415000D01*
X61020166Y-156487439D01*
X61018036Y-156488321D01*
X63013701Y-154492656D01*
X63013700Y-155752447D01*
X63009903Y-155791000D01*
X63013700Y-155829553D01*
X63013700Y-155829560D01*
X63025059Y-155944886D01*
X63069946Y-156092859D01*
X63142838Y-156229232D01*
X63240936Y-156348764D01*
X63270890Y-156373347D01*
X63656749Y-156759205D01*
X63681336Y-156789164D01*
X63800867Y-156887262D01*
X63937240Y-156960154D01*
X64085213Y-157005042D01*
X64160126Y-157012420D01*
X64200539Y-157016400D01*
X64200544Y-157016400D01*
X64239100Y-157020197D01*
X64277656Y-157016400D01*
X68030947Y-157016400D01*
X68069500Y-157020197D01*
X68108053Y-157016400D01*
X68108061Y-157016400D01*
X68223387Y-157005041D01*
X68371360Y-156960154D01*
X68507733Y-156887262D01*
X68627264Y-156789164D01*
X68651847Y-156759211D01*
X69335215Y-156075843D01*
X69368137Y-156195860D01*
X69615116Y-156311760D01*
X69879960Y-156377250D01*
X70152492Y-156389812D01*
X70422238Y-156348965D01*
X70678832Y-156256277D01*
X70791863Y-156195860D01*
X70857388Y-155956993D01*
X71842612Y-155956993D01*
X71908137Y-156195860D01*
X72155116Y-156311760D01*
X72419960Y-156377250D01*
X72692492Y-156389812D01*
X72962238Y-156348965D01*
X73218832Y-156256277D01*
X73331863Y-156195860D01*
X73397388Y-155956993D01*
X72620000Y-155179605D01*
X71842612Y-155956993D01*
X70857388Y-155956993D01*
X70080000Y-155179605D01*
X70065858Y-155193748D01*
X69886253Y-155014143D01*
X69900395Y-155000000D01*
X70259605Y-155000000D01*
X71036993Y-155777388D01*
X71275860Y-155711863D01*
X71348578Y-155556904D01*
X71363723Y-155598832D01*
X71424140Y-155711863D01*
X71663007Y-155777388D01*
X72440395Y-155000000D01*
X72799605Y-155000000D01*
X73576993Y-155777388D01*
X73815860Y-155711863D01*
X73931760Y-155464884D01*
X73997250Y-155200040D01*
X74009812Y-154927508D01*
X73968965Y-154657762D01*
X73876277Y-154401168D01*
X73815860Y-154288137D01*
X73576993Y-154222612D01*
X72799605Y-155000000D01*
X72440395Y-155000000D01*
X71663007Y-154222612D01*
X71424140Y-154288137D01*
X71351422Y-154443096D01*
X71336277Y-154401168D01*
X71275860Y-154288137D01*
X71036993Y-154222612D01*
X70259605Y-155000000D01*
X69900395Y-155000000D01*
X69886253Y-154985858D01*
X70065858Y-154806253D01*
X70080000Y-154820395D01*
X70857388Y-154043007D01*
X71842612Y-154043007D01*
X72620000Y-154820395D01*
X73397388Y-154043007D01*
X73331863Y-153804140D01*
X73084884Y-153688240D01*
X72820040Y-153622750D01*
X72547508Y-153610188D01*
X72277762Y-153651035D01*
X72021168Y-153743723D01*
X71908137Y-153804140D01*
X71842612Y-154043007D01*
X70857388Y-154043007D01*
X70791863Y-153804140D01*
X70653014Y-153738982D01*
X70698128Y-153684012D01*
X70885116Y-153771760D01*
X71149960Y-153837250D01*
X71422492Y-153849812D01*
X71692238Y-153808965D01*
X71948832Y-153716277D01*
X72061863Y-153655860D01*
X72127388Y-153416993D01*
X73112612Y-153416993D01*
X73178137Y-153655860D01*
X73425116Y-153771760D01*
X73689960Y-153837250D01*
X73962492Y-153849812D01*
X74232238Y-153808965D01*
X74488832Y-153716277D01*
X74601863Y-153655860D01*
X74667388Y-153416993D01*
X73890000Y-152639605D01*
X73112612Y-153416993D01*
X72127388Y-153416993D01*
X71350000Y-152639605D01*
X71335858Y-152653748D01*
X71156253Y-152474143D01*
X71170395Y-152460000D01*
X71529605Y-152460000D01*
X72306993Y-153237388D01*
X72545860Y-153171863D01*
X72618578Y-153016904D01*
X72633723Y-153058832D01*
X72694140Y-153171863D01*
X72933007Y-153237388D01*
X73710395Y-152460000D01*
X74069605Y-152460000D01*
X74846993Y-153237388D01*
X75085860Y-153171863D01*
X75201760Y-152924884D01*
X75267250Y-152660040D01*
X75279812Y-152387508D01*
X75238965Y-152117762D01*
X75146277Y-151861168D01*
X75085860Y-151748137D01*
X74846993Y-151682612D01*
X74069605Y-152460000D01*
X73710395Y-152460000D01*
X72933007Y-151682612D01*
X72694140Y-151748137D01*
X72621422Y-151903096D01*
X72606277Y-151861168D01*
X72545860Y-151748137D01*
X72306993Y-151682612D01*
X71529605Y-152460000D01*
X71170395Y-152460000D01*
X71156253Y-152445858D01*
X71335858Y-152266253D01*
X71350000Y-152280395D01*
X72127388Y-151503007D01*
X73112612Y-151503007D01*
X73890000Y-152280395D01*
X74667388Y-151503007D01*
X74601863Y-151264140D01*
X74354884Y-151148240D01*
X74090040Y-151082750D01*
X73817508Y-151070188D01*
X73547762Y-151111035D01*
X73291168Y-151203723D01*
X73178137Y-151264140D01*
X73112612Y-151503007D01*
X72127388Y-151503007D01*
X72061863Y-151264140D01*
X71814884Y-151148240D01*
X71550040Y-151082750D01*
X71277508Y-151070188D01*
X71007762Y-151111035D01*
X70942262Y-151134695D01*
X77866710Y-144210247D01*
X77896664Y-144185664D01*
X77994762Y-144066133D01*
X78067654Y-143929760D01*
X78071012Y-143918691D01*
X78112542Y-143781787D01*
X78119920Y-143706874D01*
X78123900Y-143666461D01*
X78123900Y-143666456D01*
X78127697Y-143627900D01*
X78123900Y-143589344D01*
X78123900Y-142879957D01*
X78594017Y-142409840D01*
X78633320Y-142504727D01*
X78790363Y-142739759D01*
X78990241Y-142939637D01*
X79120001Y-143026340D01*
X79120000Y-157719842D01*
X78990466Y-157407118D01*
X78784175Y-157098382D01*
X78521618Y-156835825D01*
X78212882Y-156629534D01*
X77869834Y-156487439D01*
X77505656Y-156415000D01*
X77134344Y-156415000D01*
X76770166Y-156487439D01*
X76427118Y-156629534D01*
X76118382Y-156835825D01*
X75855825Y-157098382D01*
X75649534Y-157407118D01*
X75507439Y-157750166D01*
X75435000Y-158114344D01*
X75435000Y-158485656D01*
X75507439Y-158849834D01*
X75627061Y-159138628D01*
X75382591Y-159090000D01*
X74937409Y-159090000D01*
X74500782Y-159176851D01*
X74089489Y-159347214D01*
X73719334Y-159594544D01*
X73404544Y-159909334D01*
X73157214Y-160279489D01*
X72986851Y-160690782D01*
X72900000Y-161127409D01*
X72900000Y-161572591D01*
X72986851Y-162009218D01*
X73157214Y-162420511D01*
X73404544Y-162790666D01*
X73719334Y-163105456D01*
X74089489Y-163352786D01*
X74500782Y-163523149D01*
X74937409Y-163610000D01*
X74953265Y-163610000D01*
X74887114Y-163654201D01*
X74694201Y-163847114D01*
X74542629Y-164073957D01*
X74438225Y-164326011D01*
X74385000Y-164593589D01*
X74385000Y-164866411D01*
X74438225Y-165133989D01*
X74542629Y-165386043D01*
X74694201Y-165612886D01*
X74887114Y-165805799D01*
X75113957Y-165957371D01*
X75366011Y-166061775D01*
X75633589Y-166115000D01*
X75906411Y-166115000D01*
X76173989Y-166061775D01*
X76426043Y-165957371D01*
X76652886Y-165805799D01*
X76845799Y-165612886D01*
X76997371Y-165386043D01*
X77101775Y-165133989D01*
X77155000Y-164866411D01*
X77155000Y-164593589D01*
X77101775Y-164326011D01*
X76997371Y-164073957D01*
X76845799Y-163847114D01*
X76652886Y-163654201D01*
X76426043Y-163502629D01*
X76173989Y-163398225D01*
X76138064Y-163391079D01*
X76230511Y-163352786D01*
X76600666Y-163105456D01*
X76915456Y-162790666D01*
X77162786Y-162420511D01*
X77333149Y-162009218D01*
X77420000Y-161572591D01*
X77420000Y-161127409D01*
X77333149Y-160690782D01*
X77162786Y-160279489D01*
X77094333Y-160177041D01*
X77134344Y-160185000D01*
X77505656Y-160185000D01*
X77869834Y-160112561D01*
X78212882Y-159970466D01*
X78521618Y-159764175D01*
X78784175Y-159501618D01*
X78990466Y-159192882D01*
X79120000Y-158880158D01*
X79120000Y-163366447D01*
X79116203Y-163405000D01*
X79120000Y-163443553D01*
X79120000Y-163443560D01*
X79131359Y-163558886D01*
X79176246Y-163706859D01*
X79249138Y-163843232D01*
X79347236Y-163962764D01*
X79377190Y-163987347D01*
X84386928Y-168997085D01*
X84386928Y-170100000D01*
X84403992Y-170273254D01*
X84454528Y-170439850D01*
X84536595Y-170593386D01*
X84647038Y-170727962D01*
X84781614Y-170838405D01*
X84935150Y-170920472D01*
X85101746Y-170971008D01*
X85275000Y-170988072D01*
X86725000Y-170988072D01*
X86898254Y-170971008D01*
X87064850Y-170920472D01*
X87218386Y-170838405D01*
X87352962Y-170727962D01*
X87463405Y-170593386D01*
X87545472Y-170439850D01*
X87596008Y-170273254D01*
X87613072Y-170100000D01*
X87613072Y-168900000D01*
X87596008Y-168726746D01*
X87545472Y-168560150D01*
X87463405Y-168406614D01*
X87352962Y-168272038D01*
X87218386Y-168161595D01*
X87116663Y-168107223D01*
X87180134Y-168055134D01*
X87365706Y-167829014D01*
X87503599Y-167571034D01*
X87588513Y-167291111D01*
X87617185Y-167000000D01*
X87588513Y-166708889D01*
X87503599Y-166428966D01*
X87365706Y-166170986D01*
X87180134Y-165944866D01*
X86954014Y-165759294D01*
X86936626Y-165750000D01*
X86954014Y-165740706D01*
X87180134Y-165555134D01*
X87365706Y-165329014D01*
X87503599Y-165071034D01*
X87588513Y-164791111D01*
X87617185Y-164500000D01*
X87588513Y-164208889D01*
X87503599Y-163928966D01*
X87365706Y-163670986D01*
X87180134Y-163444866D01*
X86954014Y-163259294D01*
X86936626Y-163250000D01*
X86954014Y-163240706D01*
X87180134Y-163055134D01*
X87365706Y-162829014D01*
X87503599Y-162571034D01*
X87588513Y-162291111D01*
X87617185Y-162000000D01*
X87588513Y-161708889D01*
X87503599Y-161428966D01*
X87365706Y-161170986D01*
X87180134Y-160944866D01*
X86954014Y-160759294D01*
X86928278Y-160745538D01*
X87134429Y-160589049D01*
X87327496Y-160371193D01*
X87474352Y-160119858D01*
X87566476Y-159856890D01*
X87445155Y-159627000D01*
X86127000Y-159627000D01*
X86127000Y-159647000D01*
X85873000Y-159647000D01*
X85873000Y-159627000D01*
X84554845Y-159627000D01*
X84433524Y-159856890D01*
X84525648Y-160119858D01*
X84672504Y-160371193D01*
X84865571Y-160589049D01*
X85071722Y-160745538D01*
X85045986Y-160759294D01*
X84819866Y-160944866D01*
X84634294Y-161170986D01*
X84496401Y-161428966D01*
X84411487Y-161708889D01*
X84382815Y-162000000D01*
X84411487Y-162291111D01*
X84496401Y-162571034D01*
X84634294Y-162829014D01*
X84819866Y-163055134D01*
X85045986Y-163240706D01*
X85063374Y-163250000D01*
X85045986Y-163259294D01*
X84819866Y-163444866D01*
X84634294Y-163670986D01*
X84496401Y-163928966D01*
X84411487Y-164208889D01*
X84382815Y-164500000D01*
X84411487Y-164791111D01*
X84496401Y-165071034D01*
X84634294Y-165329014D01*
X84819866Y-165555134D01*
X85045986Y-165740706D01*
X85063374Y-165750000D01*
X85045986Y-165759294D01*
X84819866Y-165944866D01*
X84634294Y-166170986D01*
X84496401Y-166428966D01*
X84411487Y-166708889D01*
X84403199Y-166793042D01*
X80690000Y-163079843D01*
X80690000Y-159143110D01*
X84433524Y-159143110D01*
X84554845Y-159373000D01*
X85873000Y-159373000D01*
X85873000Y-158173835D01*
X86127000Y-158173835D01*
X86127000Y-159373000D01*
X87445155Y-159373000D01*
X87566476Y-159143110D01*
X87474352Y-158880142D01*
X87327496Y-158628807D01*
X87134429Y-158410951D01*
X86902570Y-158234947D01*
X86640830Y-158107558D01*
X86359267Y-158033680D01*
X86127000Y-158173835D01*
X85873000Y-158173835D01*
X85640733Y-158033680D01*
X85359170Y-158107558D01*
X85097430Y-158234947D01*
X84865571Y-158410951D01*
X84672504Y-158628807D01*
X84525648Y-158880142D01*
X84433524Y-159143110D01*
X80690000Y-159143110D01*
X80690000Y-151197533D01*
X80878363Y-151235000D01*
X81121637Y-151235000D01*
X81360236Y-151187540D01*
X81584992Y-151094443D01*
X81787267Y-150959287D01*
X81959287Y-150787267D01*
X82094443Y-150584992D01*
X82187540Y-150360236D01*
X82235000Y-150121637D01*
X82235000Y-149878363D01*
X82234468Y-149875689D01*
X84325157Y-147785000D01*
X84610768Y-147785000D01*
X84634294Y-147829014D01*
X84819866Y-148055134D01*
X85045986Y-148240706D01*
X85063374Y-148250000D01*
X85045986Y-148259294D01*
X84819866Y-148444866D01*
X84634294Y-148670986D01*
X84496401Y-148928966D01*
X84411487Y-149208889D01*
X84382815Y-149500000D01*
X84411487Y-149791111D01*
X84496401Y-150071034D01*
X84634294Y-150329014D01*
X84819866Y-150555134D01*
X84883337Y-150607223D01*
X84781614Y-150661595D01*
X84647038Y-150772038D01*
X84536595Y-150906614D01*
X84454528Y-151060150D01*
X84403992Y-151226746D01*
X84386928Y-151400000D01*
X84386928Y-152600000D01*
X84403992Y-152773254D01*
X84454528Y-152939850D01*
X84536595Y-153093386D01*
X84647038Y-153227962D01*
X84781614Y-153338405D01*
X84935150Y-153420472D01*
X85101746Y-153471008D01*
X85275000Y-153488072D01*
X86725000Y-153488072D01*
X86898254Y-153471008D01*
X87064850Y-153420472D01*
X87218386Y-153338405D01*
X87352962Y-153227962D01*
X87463405Y-153093386D01*
X87545472Y-152939850D01*
X87596008Y-152773254D01*
X87613072Y-152600000D01*
X87613072Y-151400000D01*
X87596008Y-151226746D01*
X87545472Y-151060150D01*
X87463405Y-150906614D01*
X87352962Y-150772038D01*
X87218386Y-150661595D01*
X87116663Y-150607223D01*
X87180134Y-150555134D01*
X87365706Y-150329014D01*
X87503599Y-150071034D01*
X87588513Y-149791111D01*
X87617185Y-149500000D01*
X87588513Y-149208889D01*
X87503599Y-148928966D01*
X87365706Y-148670986D01*
X87180134Y-148444866D01*
X86954014Y-148259294D01*
X86936626Y-148250000D01*
X86954014Y-148240706D01*
X87180134Y-148055134D01*
X87365706Y-147829014D01*
X87503599Y-147571034D01*
X87588513Y-147291111D01*
X87617185Y-147000000D01*
X87588513Y-146708889D01*
X87503599Y-146428966D01*
X87365706Y-146170986D01*
X87180134Y-145944866D01*
X86954014Y-145759294D01*
X86928278Y-145745538D01*
X87134429Y-145589049D01*
X87327496Y-145371193D01*
X87474352Y-145119858D01*
X87566476Y-144856890D01*
X87445155Y-144627000D01*
X86127000Y-144627000D01*
X86127000Y-144647000D01*
X85873000Y-144647000D01*
X85873000Y-144627000D01*
X84554845Y-144627000D01*
X84433524Y-144856890D01*
X84525648Y-145119858D01*
X84672504Y-145371193D01*
X84865571Y-145589049D01*
X85071722Y-145745538D01*
X85045986Y-145759294D01*
X84819866Y-145944866D01*
X84634294Y-146170986D01*
X84610768Y-146215000D01*
X84038556Y-146215000D01*
X84000000Y-146211203D01*
X83961444Y-146215000D01*
X83961439Y-146215000D01*
X83921026Y-146218980D01*
X83846113Y-146226358D01*
X83698140Y-146271246D01*
X83561767Y-146344138D01*
X83442236Y-146442236D01*
X83417653Y-146472190D01*
X81124311Y-148765532D01*
X81121637Y-148765000D01*
X80878363Y-148765000D01*
X80690000Y-148802467D01*
X80690000Y-144143110D01*
X84433524Y-144143110D01*
X84554845Y-144373000D01*
X85873000Y-144373000D01*
X85873000Y-143173835D01*
X86127000Y-143173835D01*
X86127000Y-144373000D01*
X87445155Y-144373000D01*
X87566476Y-144143110D01*
X87474352Y-143880142D01*
X87327496Y-143628807D01*
X87134429Y-143410951D01*
X86902570Y-143234947D01*
X86640830Y-143107558D01*
X86359267Y-143033680D01*
X86127000Y-143173835D01*
X85873000Y-143173835D01*
X85640733Y-143033680D01*
X85359170Y-143107558D01*
X85097430Y-143234947D01*
X84865571Y-143410951D01*
X84672504Y-143628807D01*
X84525648Y-143880142D01*
X84433524Y-144143110D01*
X80690000Y-144143110D01*
X80690000Y-143026339D01*
X80819759Y-142939637D01*
X81019637Y-142739759D01*
X81176680Y-142504727D01*
X81284853Y-142243574D01*
X81340000Y-141966335D01*
X81340000Y-141683665D01*
X81284853Y-141406426D01*
X81176680Y-141145273D01*
X81019637Y-140910241D01*
X80819759Y-140710363D01*
X80584727Y-140553320D01*
X80489841Y-140514017D01*
X83711816Y-137292042D01*
X83685147Y-137356426D01*
X83630000Y-137633665D01*
X83630000Y-137916335D01*
X83685147Y-138193574D01*
X83793320Y-138454727D01*
X83950363Y-138689759D01*
X84150241Y-138889637D01*
X84385273Y-139046680D01*
X84646426Y-139154853D01*
X84923665Y-139210000D01*
X85206335Y-139210000D01*
X85483574Y-139154853D01*
X85744727Y-139046680D01*
X85979759Y-138889637D01*
X86179637Y-138689759D01*
X86336680Y-138454727D01*
X86444853Y-138193574D01*
X86500000Y-137916335D01*
X86500000Y-137633665D01*
X86444853Y-137356426D01*
X86336680Y-137095273D01*
X86179637Y-136860241D01*
X85979759Y-136660363D01*
X85850000Y-136573661D01*
X85850000Y-136563252D01*
X85853797Y-136524699D01*
X85850000Y-136486146D01*
X85850000Y-136486139D01*
X85838641Y-136370813D01*
X85827038Y-136332561D01*
X85793754Y-136222840D01*
X85783958Y-136204513D01*
X85720862Y-136086467D01*
X85668148Y-136022236D01*
X85647345Y-135996887D01*
X85647342Y-135996884D01*
X85622764Y-135966936D01*
X85592815Y-135942357D01*
X84799344Y-135148887D01*
X84785989Y-135132614D01*
X84923665Y-135160000D01*
X85206335Y-135160000D01*
X85483574Y-135104853D01*
X85744727Y-134996680D01*
X85979759Y-134839637D01*
X86179637Y-134639759D01*
X86336680Y-134404727D01*
X86444853Y-134143574D01*
X86500000Y-133866335D01*
X86500000Y-133583665D01*
X86444853Y-133306426D01*
X86336680Y-133045273D01*
X86179637Y-132810241D01*
X85979759Y-132610363D01*
X85850000Y-132523661D01*
X85850000Y-130876339D01*
X85979759Y-130789637D01*
X86179637Y-130589759D01*
X86336680Y-130354727D01*
X86444853Y-130093574D01*
X86500000Y-129816335D01*
X86500000Y-129533665D01*
X86444853Y-129256426D01*
X86336680Y-128995273D01*
X86179637Y-128760241D01*
X85979759Y-128560363D01*
X85744727Y-128403320D01*
X85483574Y-128295147D01*
X85206335Y-128240000D01*
X84923665Y-128240000D01*
X84646426Y-128295147D01*
X84584700Y-128320715D01*
X84584700Y-125435757D01*
X85647815Y-124372642D01*
X85677764Y-124348064D01*
X85702420Y-124318022D01*
X85726450Y-124288741D01*
X85775862Y-124228533D01*
X85848754Y-124092160D01*
X85884294Y-123975000D01*
X85893641Y-123944188D01*
X85898424Y-123895624D01*
X85905000Y-123828861D01*
X85905000Y-123828854D01*
X85908797Y-123790301D01*
X85905000Y-123751748D01*
X85905000Y-123741339D01*
X86034759Y-123654637D01*
X86234637Y-123454759D01*
X86391680Y-123219727D01*
X86499853Y-122958574D01*
X86555000Y-122681335D01*
X86555000Y-122398665D01*
X86499853Y-122121426D01*
X86391680Y-121860273D01*
X86234637Y-121625241D01*
X86034759Y-121425363D01*
X85900398Y-121335586D01*
X85905000Y-121288861D01*
X85908798Y-121250300D01*
X85905000Y-121211739D01*
X85905000Y-121201339D01*
X86034759Y-121114637D01*
X86234637Y-120914759D01*
X86391680Y-120679727D01*
X86499853Y-120418574D01*
X86555000Y-120141335D01*
X86555000Y-119858665D01*
X86499853Y-119581426D01*
X86391680Y-119320273D01*
X86234637Y-119085241D01*
X86034759Y-118885363D01*
X85799727Y-118728320D01*
X85538574Y-118620147D01*
X85261335Y-118565000D01*
X84978665Y-118565000D01*
X84701426Y-118620147D01*
X84440273Y-118728320D01*
X84205241Y-118885363D01*
X84005363Y-119085241D01*
X83848320Y-119320273D01*
X83740147Y-119581426D01*
X83685000Y-119858665D01*
X83685000Y-120141335D01*
X83740147Y-120418574D01*
X83848320Y-120679727D01*
X83922459Y-120790684D01*
X77604590Y-127108553D01*
X77574636Y-127133136D01*
X77476538Y-127252668D01*
X77403646Y-127389041D01*
X77358759Y-127537014D01*
X77347400Y-127652340D01*
X77347400Y-127652347D01*
X77343603Y-127690900D01*
X77347400Y-127729453D01*
X77347401Y-130172442D01*
X75199397Y-132320446D01*
X75046335Y-132290000D01*
X74763665Y-132290000D01*
X74486426Y-132345147D01*
X74225273Y-132453320D01*
X73990241Y-132610363D01*
X73790363Y-132810241D01*
X73633320Y-133045273D01*
X73525147Y-133306426D01*
X73470000Y-133583665D01*
X73470000Y-133866335D01*
X73525147Y-134143574D01*
X73633320Y-134404727D01*
X73790363Y-134639759D01*
X73990241Y-134839637D01*
X74225273Y-134996680D01*
X74486426Y-135104853D01*
X74763665Y-135160000D01*
X75046335Y-135160000D01*
X75199397Y-135129554D01*
X75397900Y-135328057D01*
X75397900Y-136425934D01*
X75323574Y-136395147D01*
X75046335Y-136340000D01*
X74763665Y-136340000D01*
X74610604Y-136370446D01*
X72555300Y-134315143D01*
X72555300Y-131538560D01*
X72559098Y-131500000D01*
X72543941Y-131346113D01*
X72499054Y-131198140D01*
X72426162Y-131061767D01*
X72328064Y-130942236D01*
X72208533Y-130844138D01*
X72072160Y-130771246D01*
X71924187Y-130726359D01*
X71808861Y-130715000D01*
X71808860Y-130715000D01*
X71770300Y-130711202D01*
X71731739Y-130715000D01*
X71727538Y-130715000D01*
X71718932Y-130698899D01*
X71539608Y-130480392D01*
X71321101Y-130301068D01*
X71071808Y-130167818D01*
X70801309Y-130085764D01*
X70590492Y-130065000D01*
X69649508Y-130065000D01*
X69438691Y-130085764D01*
X69168192Y-130167818D01*
X68918899Y-130301068D01*
X68700392Y-130480392D01*
X68521068Y-130698899D01*
X68387818Y-130948192D01*
X68305764Y-131218691D01*
X68278057Y-131500000D01*
X68305764Y-131781309D01*
X68387818Y-132051808D01*
X68521068Y-132301101D01*
X68700392Y-132519608D01*
X68918899Y-132698932D01*
X69051858Y-132770000D01*
X68918899Y-132841068D01*
X68700392Y-133020392D01*
X68521068Y-133238899D01*
X68387818Y-133488192D01*
X68305764Y-133758691D01*
X68278057Y-134040000D01*
X68305764Y-134321309D01*
X68387818Y-134591808D01*
X68521068Y-134841101D01*
X68700392Y-135059608D01*
X68918899Y-135238932D01*
X69051858Y-135310000D01*
X68918899Y-135381068D01*
X68700392Y-135560392D01*
X68521068Y-135778899D01*
X68387818Y-136028192D01*
X68305764Y-136298691D01*
X68278057Y-136580000D01*
X68305764Y-136861309D01*
X68387818Y-137131808D01*
X68521068Y-137381101D01*
X68700392Y-137599608D01*
X68918899Y-137778932D01*
X69051858Y-137850000D01*
X68918899Y-137921068D01*
X68700392Y-138100392D01*
X68521068Y-138318899D01*
X68387818Y-138568192D01*
X68305764Y-138838691D01*
X68278057Y-139120000D01*
X68305764Y-139401309D01*
X68387818Y-139671808D01*
X68521068Y-139921101D01*
X68700392Y-140139608D01*
X68918899Y-140318932D01*
X69051858Y-140390000D01*
X68918899Y-140461068D01*
X68700392Y-140640392D01*
X68521068Y-140858899D01*
X68387818Y-141108192D01*
X68305764Y-141378691D01*
X68278057Y-141660000D01*
X68305764Y-141941309D01*
X68387818Y-142211808D01*
X68521068Y-142461101D01*
X68700392Y-142679608D01*
X68918899Y-142858932D01*
X69051858Y-142930000D01*
X68918899Y-143001068D01*
X68700392Y-143180392D01*
X68521068Y-143398899D01*
X68387818Y-143648192D01*
X68305764Y-143918691D01*
X68278057Y-144200000D01*
X68305764Y-144481309D01*
X68387818Y-144751808D01*
X68521068Y-145001101D01*
X68700392Y-145219608D01*
X68918899Y-145398932D01*
X69051858Y-145470000D01*
X68918899Y-145541068D01*
X68700392Y-145720392D01*
X68521068Y-145938899D01*
X68387818Y-146188192D01*
X68305764Y-146458691D01*
X68278057Y-146740000D01*
X68305764Y-147021309D01*
X68387818Y-147291808D01*
X68521068Y-147541101D01*
X68700392Y-147759608D01*
X68918899Y-147938932D01*
X69168192Y-148072182D01*
X69438691Y-148154236D01*
X69649508Y-148175000D01*
X69767743Y-148175000D01*
X67012190Y-150930553D01*
X66982236Y-150955136D01*
X66884138Y-151074668D01*
X66822608Y-151189785D01*
X66673989Y-151128225D01*
X66406411Y-151075000D01*
X66133589Y-151075000D01*
X65866011Y-151128225D01*
X65613957Y-151232629D01*
X65540900Y-151281444D01*
X65540900Y-134684156D01*
X65544697Y-134645600D01*
X65540900Y-134607040D01*
X65540900Y-134607039D01*
X65533376Y-134530646D01*
X65529542Y-134491713D01*
X65484654Y-134343740D01*
X65481089Y-134337070D01*
X65411762Y-134207367D01*
X65313664Y-134087836D01*
X65283711Y-134063254D01*
X64732647Y-133512190D01*
X64708064Y-133482236D01*
X64588533Y-133384138D01*
X64452160Y-133311246D01*
X64304187Y-133266359D01*
X64188861Y-133255000D01*
X64188853Y-133255000D01*
X64150300Y-133251203D01*
X64111747Y-133255000D01*
X64107538Y-133255000D01*
X64098932Y-133238899D01*
X63919608Y-133020392D01*
X63806518Y-132927581D01*
X63824482Y-132925812D01*
X63944180Y-132889502D01*
X64054494Y-132830537D01*
X64151185Y-132751185D01*
X64230537Y-132654494D01*
X64289502Y-132544180D01*
X64325812Y-132424482D01*
X64338072Y-132300000D01*
X64338072Y-132263362D01*
X64452160Y-132228754D01*
X64588533Y-132155862D01*
X64708064Y-132057764D01*
X64806162Y-131938233D01*
X64879054Y-131801860D01*
X64923941Y-131653887D01*
X64939098Y-131500000D01*
X64935300Y-131461439D01*
X64935300Y-125779557D01*
X65261202Y-125453655D01*
X65432421Y-125594171D01*
X65633940Y-125701885D01*
X65852600Y-125768215D01*
X66080000Y-125790612D01*
X66307399Y-125768215D01*
X66526059Y-125701885D01*
X66727578Y-125594171D01*
X66898798Y-125453655D01*
X71647958Y-130202816D01*
X71672536Y-130232764D01*
X71702484Y-130257342D01*
X71702487Y-130257345D01*
X71731859Y-130281450D01*
X71792067Y-130330862D01*
X71928440Y-130403754D01*
X72076412Y-130448641D01*
X72090790Y-130450057D01*
X72191739Y-130460000D01*
X72191746Y-130460000D01*
X72230299Y-130463797D01*
X72268852Y-130460000D01*
X73703661Y-130460000D01*
X73790363Y-130589759D01*
X73990241Y-130789637D01*
X74225273Y-130946680D01*
X74486426Y-131054853D01*
X74763665Y-131110000D01*
X75046335Y-131110000D01*
X75323574Y-131054853D01*
X75584727Y-130946680D01*
X75819759Y-130789637D01*
X76019637Y-130589759D01*
X76176680Y-130354727D01*
X76284853Y-130093574D01*
X76340000Y-129816335D01*
X76340000Y-129533665D01*
X76284853Y-129256426D01*
X76176680Y-128995273D01*
X76019637Y-128760241D01*
X75819759Y-128560363D01*
X75584727Y-128403320D01*
X75323574Y-128295147D01*
X75046335Y-128240000D01*
X74763665Y-128240000D01*
X74486426Y-128295147D01*
X74225273Y-128403320D01*
X73990241Y-128560363D01*
X73790363Y-128760241D01*
X73703661Y-128890000D01*
X72555458Y-128890000D01*
X67637647Y-123972190D01*
X67613064Y-123942236D01*
X67493533Y-123844138D01*
X67357160Y-123771246D01*
X67209187Y-123726359D01*
X67093861Y-123715000D01*
X67093853Y-123715000D01*
X67055300Y-123711203D01*
X67037314Y-123712974D01*
X66904212Y-123550788D01*
X66727579Y-123405829D01*
X66576358Y-123325000D01*
X76298661Y-123325000D01*
X76385363Y-123454759D01*
X76585241Y-123654637D01*
X76820273Y-123811680D01*
X77081426Y-123919853D01*
X77358665Y-123975000D01*
X77641335Y-123975000D01*
X77918574Y-123919853D01*
X78179727Y-123811680D01*
X78414759Y-123654637D01*
X78614637Y-123454759D01*
X78771680Y-123219727D01*
X78879853Y-122958574D01*
X78935000Y-122681335D01*
X78935000Y-122398665D01*
X78879853Y-122121426D01*
X78771680Y-121860273D01*
X78614637Y-121625241D01*
X78416039Y-121426643D01*
X78424482Y-121425812D01*
X78544180Y-121389502D01*
X78654494Y-121330537D01*
X78751185Y-121251185D01*
X78830537Y-121154494D01*
X78889502Y-121044180D01*
X78925812Y-120924482D01*
X78938072Y-120800000D01*
X78938072Y-119200000D01*
X78925812Y-119075518D01*
X78889502Y-118955820D01*
X78830537Y-118845506D01*
X78751185Y-118748815D01*
X78654494Y-118669463D01*
X78544180Y-118610498D01*
X78424482Y-118574188D01*
X78300000Y-118561928D01*
X76700000Y-118561928D01*
X76575518Y-118574188D01*
X76455820Y-118610498D01*
X76345506Y-118669463D01*
X76248815Y-118748815D01*
X76169463Y-118845506D01*
X76110498Y-118955820D01*
X76074188Y-119075518D01*
X76061928Y-119200000D01*
X76061928Y-120800000D01*
X76074188Y-120924482D01*
X76110498Y-121044180D01*
X76169463Y-121154494D01*
X76248815Y-121251185D01*
X76345506Y-121330537D01*
X76455820Y-121389502D01*
X76575518Y-121425812D01*
X76583961Y-121426643D01*
X76385363Y-121625241D01*
X76298661Y-121755000D01*
X64018756Y-121755000D01*
X63980200Y-121751203D01*
X63941644Y-121755000D01*
X63941639Y-121755000D01*
X63901226Y-121758980D01*
X63826313Y-121766358D01*
X63678340Y-121811246D01*
X63541967Y-121884138D01*
X63422436Y-121982236D01*
X63397853Y-122012190D01*
X61991981Y-123418062D01*
X61976185Y-123398815D01*
X61879494Y-123319463D01*
X61769180Y-123260498D01*
X61649482Y-123224188D01*
X61525000Y-123211928D01*
X60475000Y-123211928D01*
X60350518Y-123224188D01*
X60230820Y-123260498D01*
X60120506Y-123319463D01*
X60023815Y-123398815D01*
X59944463Y-123495506D01*
X59885498Y-123605820D01*
X59849188Y-123725518D01*
X59836928Y-123850000D01*
X59836928Y-125150000D01*
X59849188Y-125274482D01*
X59885498Y-125394180D01*
X59944463Y-125504494D01*
X60023815Y-125601185D01*
X60120506Y-125680537D01*
X60230820Y-125739502D01*
X60350518Y-125775812D01*
X60445842Y-125785200D01*
X59845998Y-126385045D01*
X49393573Y-115932701D01*
X49533574Y-115904853D01*
X49794727Y-115796680D01*
X50029759Y-115639637D01*
X50229637Y-115439759D01*
X50386680Y-115204727D01*
X50494853Y-114943574D01*
X50550000Y-114666335D01*
X50550000Y-114383665D01*
X50494853Y-114106426D01*
X50386680Y-113845273D01*
X50229637Y-113610241D01*
X50029759Y-113410363D01*
X49794727Y-113253320D01*
X49533574Y-113145147D01*
X49256335Y-113090000D01*
X48973665Y-113090000D01*
X48696426Y-113145147D01*
X48435273Y-113253320D01*
X48200241Y-113410363D01*
X48000363Y-113610241D01*
X47843320Y-113845273D01*
X47735147Y-114106426D01*
X47707296Y-114246438D01*
X47458049Y-113997193D01*
X47433464Y-113967236D01*
X47313933Y-113869138D01*
X47177560Y-113796246D01*
X47029587Y-113751359D01*
X47029586Y-113751359D01*
X47029583Y-113751358D01*
X46981898Y-113746662D01*
X46914261Y-113740000D01*
X46914252Y-113740000D01*
X46875697Y-113736203D01*
X46837144Y-113740000D01*
X40156339Y-113740000D01*
X40069637Y-113610241D01*
X39869759Y-113410363D01*
X39634727Y-113253320D01*
X39373574Y-113145147D01*
X39096335Y-113090000D01*
X38813665Y-113090000D01*
X38536426Y-113145147D01*
X38275273Y-113253320D01*
X38040241Y-113410363D01*
X37840363Y-113610241D01*
X37683320Y-113845273D01*
X37575147Y-114106426D01*
X37520000Y-114383665D01*
X35660000Y-114383665D01*
X35660000Y-110660000D01*
X94340000Y-110660000D01*
X94340001Y-174340000D01*
G36*
X67733748Y-154985858D02*
G01*
X67719605Y-155000000D01*
X67733748Y-155014143D01*
X67554143Y-155193748D01*
X67540000Y-155179605D01*
X67525858Y-155193748D01*
X67346253Y-155014143D01*
X67360395Y-155000000D01*
X67346253Y-154985858D01*
X67525858Y-154806253D01*
X67540000Y-154820395D01*
X67554143Y-154806253D01*
X67733748Y-154985858D01*
G37*
X67733748Y-154985858D02*
X67719605Y-155000000D01*
X67733748Y-155014143D01*
X67554143Y-155193748D01*
X67540000Y-155179605D01*
X67525858Y-155193748D01*
X67346253Y-155014143D01*
X67360395Y-155000000D01*
X67346253Y-154985858D01*
X67525858Y-154806253D01*
X67540000Y-154820395D01*
X67554143Y-154806253D01*
X67733748Y-154985858D01*
G36*
X69003748Y-152445858D02*
G01*
X68989605Y-152460000D01*
X69003748Y-152474143D01*
X68824143Y-152653748D01*
X68810000Y-152639605D01*
X68795858Y-152653748D01*
X68616253Y-152474143D01*
X68630395Y-152460000D01*
X68616253Y-152445858D01*
X68795858Y-152266253D01*
X68810000Y-152280395D01*
X68824143Y-152266253D01*
X69003748Y-152445858D01*
G37*
X69003748Y-152445858D02*
X68989605Y-152460000D01*
X69003748Y-152474143D01*
X68824143Y-152653748D01*
X68810000Y-152639605D01*
X68795858Y-152653748D01*
X68616253Y-152474143D01*
X68630395Y-152460000D01*
X68616253Y-152445858D01*
X68795858Y-152266253D01*
X68810000Y-152280395D01*
X68824143Y-152266253D01*
X69003748Y-152445858D01*
G36*
X62627000Y-146613000D02*
G01*
X62647000Y-146613000D01*
X62647000Y-146867000D01*
X62627000Y-146867000D01*
X62627000Y-148175000D01*
X63027000Y-148175000D01*
X63304514Y-148122650D01*
X63365301Y-148098174D01*
X63365301Y-150878242D01*
X61634700Y-152608843D01*
X61634700Y-148098174D01*
X61695486Y-148122650D01*
X61973000Y-148175000D01*
X62373000Y-148175000D01*
X62373000Y-146867000D01*
X62353000Y-146867000D01*
X62353000Y-146613000D01*
X62373000Y-146613000D01*
X62373000Y-146593000D01*
X62627000Y-146593000D01*
X62627000Y-146613000D01*
G37*
X62627000Y-146613000D02*
X62647000Y-146613000D01*
X62647000Y-146867000D01*
X62627000Y-146867000D01*
X62627000Y-148175000D01*
X63027000Y-148175000D01*
X63304514Y-148122650D01*
X63365301Y-148098174D01*
X63365301Y-150878242D01*
X61634700Y-152608843D01*
X61634700Y-148098174D01*
X61695486Y-148122650D01*
X61973000Y-148175000D01*
X62373000Y-148175000D01*
X62373000Y-146867000D01*
X62353000Y-146867000D01*
X62353000Y-146613000D01*
X62373000Y-146613000D01*
X62373000Y-146593000D01*
X62627000Y-146593000D01*
X62627000Y-146613000D01*
G36*
X73500446Y-137480604D02*
G01*
X73470000Y-137633665D01*
X73470000Y-137916335D01*
X73525147Y-138193574D01*
X73633320Y-138454727D01*
X73790363Y-138689759D01*
X73990241Y-138889637D01*
X74225273Y-139046680D01*
X74486426Y-139154853D01*
X74763665Y-139210000D01*
X75046335Y-139210000D01*
X75323574Y-139154853D01*
X75397901Y-139124066D01*
X75397901Y-140470692D01*
X75391004Y-140467429D01*
X75116816Y-140398700D01*
X74834488Y-140384783D01*
X74554870Y-140426213D01*
X74288708Y-140521397D01*
X74163486Y-140588329D01*
X74091903Y-140832298D01*
X74905000Y-141645395D01*
X74919143Y-141631253D01*
X75098748Y-141810858D01*
X75084605Y-141825000D01*
X75098748Y-141839143D01*
X74919143Y-142018748D01*
X74905000Y-142004605D01*
X74091903Y-142817702D01*
X74163486Y-143061671D01*
X74418996Y-143182571D01*
X74691791Y-143250951D01*
X71818174Y-146124568D01*
X71718932Y-145938899D01*
X71539608Y-145720392D01*
X71321101Y-145541068D01*
X71188142Y-145470000D01*
X71321101Y-145398932D01*
X71539608Y-145219608D01*
X71718932Y-145001101D01*
X71852182Y-144751808D01*
X71934236Y-144481309D01*
X71961943Y-144200000D01*
X71934236Y-143918691D01*
X71852182Y-143648192D01*
X71718932Y-143398899D01*
X71539608Y-143180392D01*
X71321101Y-143001068D01*
X71188142Y-142930000D01*
X71321101Y-142858932D01*
X71539608Y-142679608D01*
X71718932Y-142461101D01*
X71852182Y-142211808D01*
X71934236Y-141941309D01*
X71938746Y-141895512D01*
X73464783Y-141895512D01*
X73506213Y-142175130D01*
X73601397Y-142441292D01*
X73668329Y-142566514D01*
X73912298Y-142638097D01*
X74725395Y-141825000D01*
X73912298Y-141011903D01*
X73668329Y-141083486D01*
X73547429Y-141338996D01*
X73478700Y-141613184D01*
X73464783Y-141895512D01*
X71938746Y-141895512D01*
X71961943Y-141660000D01*
X71934236Y-141378691D01*
X71852182Y-141108192D01*
X71718932Y-140858899D01*
X71539608Y-140640392D01*
X71321101Y-140461068D01*
X71188142Y-140390000D01*
X71321101Y-140318932D01*
X71539608Y-140139608D01*
X71718932Y-139921101D01*
X71852182Y-139671808D01*
X71934236Y-139401309D01*
X71961943Y-139120000D01*
X71934236Y-138838691D01*
X71852182Y-138568192D01*
X71718932Y-138318899D01*
X71539608Y-138100392D01*
X71321101Y-137921068D01*
X71188142Y-137850000D01*
X71321101Y-137778932D01*
X71539608Y-137599608D01*
X71718932Y-137381101D01*
X71852182Y-137131808D01*
X71934236Y-136861309D01*
X71961943Y-136580000D01*
X71934236Y-136298691D01*
X71852182Y-136028192D01*
X71718932Y-135778899D01*
X71539608Y-135560392D01*
X71321101Y-135381068D01*
X71188142Y-135310000D01*
X71280485Y-135260642D01*
X73500446Y-137480604D01*
G37*
X73500446Y-137480604D02*
X73470000Y-137633665D01*
X73470000Y-137916335D01*
X73525147Y-138193574D01*
X73633320Y-138454727D01*
X73790363Y-138689759D01*
X73990241Y-138889637D01*
X74225273Y-139046680D01*
X74486426Y-139154853D01*
X74763665Y-139210000D01*
X75046335Y-139210000D01*
X75323574Y-139154853D01*
X75397901Y-139124066D01*
X75397901Y-140470692D01*
X75391004Y-140467429D01*
X75116816Y-140398700D01*
X74834488Y-140384783D01*
X74554870Y-140426213D01*
X74288708Y-140521397D01*
X74163486Y-140588329D01*
X74091903Y-140832298D01*
X74905000Y-141645395D01*
X74919143Y-141631253D01*
X75098748Y-141810858D01*
X75084605Y-141825000D01*
X75098748Y-141839143D01*
X74919143Y-142018748D01*
X74905000Y-142004605D01*
X74091903Y-142817702D01*
X74163486Y-143061671D01*
X74418996Y-143182571D01*
X74691791Y-143250951D01*
X71818174Y-146124568D01*
X71718932Y-145938899D01*
X71539608Y-145720392D01*
X71321101Y-145541068D01*
X71188142Y-145470000D01*
X71321101Y-145398932D01*
X71539608Y-145219608D01*
X71718932Y-145001101D01*
X71852182Y-144751808D01*
X71934236Y-144481309D01*
X71961943Y-144200000D01*
X71934236Y-143918691D01*
X71852182Y-143648192D01*
X71718932Y-143398899D01*
X71539608Y-143180392D01*
X71321101Y-143001068D01*
X71188142Y-142930000D01*
X71321101Y-142858932D01*
X71539608Y-142679608D01*
X71718932Y-142461101D01*
X71852182Y-142211808D01*
X71934236Y-141941309D01*
X71938746Y-141895512D01*
X73464783Y-141895512D01*
X73506213Y-142175130D01*
X73601397Y-142441292D01*
X73668329Y-142566514D01*
X73912298Y-142638097D01*
X74725395Y-141825000D01*
X73912298Y-141011903D01*
X73668329Y-141083486D01*
X73547429Y-141338996D01*
X73478700Y-141613184D01*
X73464783Y-141895512D01*
X71938746Y-141895512D01*
X71961943Y-141660000D01*
X71934236Y-141378691D01*
X71852182Y-141108192D01*
X71718932Y-140858899D01*
X71539608Y-140640392D01*
X71321101Y-140461068D01*
X71188142Y-140390000D01*
X71321101Y-140318932D01*
X71539608Y-140139608D01*
X71718932Y-139921101D01*
X71852182Y-139671808D01*
X71934236Y-139401309D01*
X71961943Y-139120000D01*
X71934236Y-138838691D01*
X71852182Y-138568192D01*
X71718932Y-138318899D01*
X71539608Y-138100392D01*
X71321101Y-137921068D01*
X71188142Y-137850000D01*
X71321101Y-137778932D01*
X71539608Y-137599608D01*
X71718932Y-137381101D01*
X71852182Y-137131808D01*
X71934236Y-136861309D01*
X71961943Y-136580000D01*
X71934236Y-136298691D01*
X71852182Y-136028192D01*
X71718932Y-135778899D01*
X71539608Y-135560392D01*
X71321101Y-135381068D01*
X71188142Y-135310000D01*
X71280485Y-135260642D01*
X73500446Y-137480604D01*
G36*
X63667000Y-124373000D02*
G01*
X63687000Y-124373000D01*
X63687000Y-124627000D01*
X63667000Y-124627000D01*
X63667000Y-124647000D01*
X63413000Y-124647000D01*
X63413000Y-124627000D01*
X63393000Y-124627000D01*
X63393000Y-124373000D01*
X63413000Y-124373000D01*
X63413000Y-124353000D01*
X63667000Y-124353000D01*
X63667000Y-124373000D01*
G37*
X63667000Y-124373000D02*
X63687000Y-124373000D01*
X63687000Y-124627000D01*
X63667000Y-124627000D01*
X63667000Y-124647000D01*
X63413000Y-124647000D01*
X63413000Y-124627000D01*
X63393000Y-124627000D01*
X63393000Y-124373000D01*
X63413000Y-124373000D01*
X63413000Y-124353000D01*
X63667000Y-124353000D01*
X63667000Y-124373000D01*
M02*
