G04 #@! TF.GenerationSoftware,KiCad,Pcbnew,(5.1.5)-2*
G04 #@! TF.CreationDate,2020-02-28T16:04:00+09:00*
G04 #@! TF.ProjectId,circuit_master_ver.2.0.0,63697263-7569-4745-9f6d-61737465725f,rev?*
G04 #@! TF.SameCoordinates,Original*
G04 #@! TF.FileFunction,Copper,L2,Bot*
G04 #@! TF.FilePolarity,Positive*
%FSLAX46Y46*%
G04 Gerber Fmt 4.6, Leading zero omitted, Abs format (unit mm)*
G04 Created by KiCad (PCBNEW (5.1.5)-2) date 2020-02-28 16:04:00*
%MOMM*%
%LPD*%
G04 APERTURE LIST*
%ADD10R,1.600000X1.600000*%
%ADD11O,1.600000X1.600000*%
%ADD12C,1.600000*%
%ADD13C,0.100000*%
%ADD14C,1.500000*%
%ADD15C,2.500000*%
%ADD16O,1.950000X1.700000*%
%ADD17R,1.500000X1.500000*%
%ADD18R,2.400000X1.600000*%
%ADD19O,2.400000X1.600000*%
%ADD20C,1.200000*%
%ADD21C,0.400000*%
%ADD22C,0.254000*%
G04 APERTURE END LIST*
D10*
X59500000Y-134500000D03*
D11*
X74740000Y-167520000D03*
X59500000Y-137040000D03*
X74740000Y-164980000D03*
X59500000Y-139580000D03*
X74740000Y-162440000D03*
X59500000Y-142120000D03*
X74740000Y-159900000D03*
X59500000Y-144660000D03*
X74740000Y-157360000D03*
X59500000Y-147200000D03*
X74740000Y-154820000D03*
X59500000Y-149740000D03*
X74740000Y-152280000D03*
X59500000Y-152280000D03*
X74740000Y-149740000D03*
X59500000Y-154820000D03*
X74740000Y-147200000D03*
X59500000Y-157360000D03*
X74740000Y-144660000D03*
X59500000Y-159900000D03*
X74740000Y-142120000D03*
X59500000Y-162440000D03*
X74740000Y-139580000D03*
X59500000Y-164980000D03*
X74740000Y-137040000D03*
X59500000Y-167520000D03*
X74740000Y-134500000D03*
X59500000Y-170060000D03*
X74740000Y-170060000D03*
D12*
X39000000Y-125000000D03*
X39000000Y-130000000D03*
G04 #@! TA.AperFunction,ComponentPad*
D13*
G36*
X42024053Y-160251206D02*
G01*
X42048370Y-160254813D01*
X42072216Y-160260786D01*
X42095362Y-160269068D01*
X42117585Y-160279579D01*
X42138670Y-160292217D01*
X42158416Y-160306861D01*
X42176630Y-160323370D01*
X42193139Y-160341584D01*
X42207783Y-160361330D01*
X42220421Y-160382415D01*
X42230932Y-160404638D01*
X42239214Y-160427784D01*
X42245187Y-160451630D01*
X42248794Y-160475947D01*
X42250000Y-160500500D01*
X42250000Y-161499500D01*
X42248794Y-161524053D01*
X42245187Y-161548370D01*
X42239214Y-161572216D01*
X42230932Y-161595362D01*
X42220421Y-161617585D01*
X42207783Y-161638670D01*
X42193139Y-161658416D01*
X42176630Y-161676630D01*
X42158416Y-161693139D01*
X42138670Y-161707783D01*
X42117585Y-161720421D01*
X42095362Y-161730932D01*
X42072216Y-161739214D01*
X42048370Y-161745187D01*
X42024053Y-161748794D01*
X41999500Y-161750000D01*
X41000500Y-161750000D01*
X40975947Y-161748794D01*
X40951630Y-161745187D01*
X40927784Y-161739214D01*
X40904638Y-161730932D01*
X40882415Y-161720421D01*
X40861330Y-161707783D01*
X40841584Y-161693139D01*
X40823370Y-161676630D01*
X40806861Y-161658416D01*
X40792217Y-161638670D01*
X40779579Y-161617585D01*
X40769068Y-161595362D01*
X40760786Y-161572216D01*
X40754813Y-161548370D01*
X40751206Y-161524053D01*
X40750000Y-161499500D01*
X40750000Y-160500500D01*
X40751206Y-160475947D01*
X40754813Y-160451630D01*
X40760786Y-160427784D01*
X40769068Y-160404638D01*
X40779579Y-160382415D01*
X40792217Y-160361330D01*
X40806861Y-160341584D01*
X40823370Y-160323370D01*
X40841584Y-160306861D01*
X40861330Y-160292217D01*
X40882415Y-160279579D01*
X40904638Y-160269068D01*
X40927784Y-160260786D01*
X40951630Y-160254813D01*
X40975947Y-160251206D01*
X41000500Y-160250000D01*
X41999500Y-160250000D01*
X42024053Y-160251206D01*
G37*
G04 #@! TD.AperFunction*
D14*
X42770000Y-158460000D03*
X44040000Y-161000000D03*
X45310000Y-158460000D03*
X46580000Y-161000000D03*
X47850000Y-158460000D03*
X49120000Y-161000000D03*
D15*
X38070000Y-164300000D03*
D14*
X50390000Y-158460000D03*
D15*
X53820000Y-164300000D03*
D14*
X39620000Y-172430000D03*
X42160000Y-170730000D03*
X52270000Y-170730000D03*
X49730000Y-172430000D03*
G04 #@! TA.AperFunction,ComponentPad*
D13*
G36*
X83249504Y-129651204D02*
G01*
X83273773Y-129654804D01*
X83297571Y-129660765D01*
X83320671Y-129669030D01*
X83342849Y-129679520D01*
X83363893Y-129692133D01*
X83383598Y-129706747D01*
X83401777Y-129723223D01*
X83418253Y-129741402D01*
X83432867Y-129761107D01*
X83445480Y-129782151D01*
X83455970Y-129804329D01*
X83464235Y-129827429D01*
X83470196Y-129851227D01*
X83473796Y-129875496D01*
X83475000Y-129900000D01*
X83475000Y-131100000D01*
X83473796Y-131124504D01*
X83470196Y-131148773D01*
X83464235Y-131172571D01*
X83455970Y-131195671D01*
X83445480Y-131217849D01*
X83432867Y-131238893D01*
X83418253Y-131258598D01*
X83401777Y-131276777D01*
X83383598Y-131293253D01*
X83363893Y-131307867D01*
X83342849Y-131320480D01*
X83320671Y-131330970D01*
X83297571Y-131339235D01*
X83273773Y-131345196D01*
X83249504Y-131348796D01*
X83225000Y-131350000D01*
X81775000Y-131350000D01*
X81750496Y-131348796D01*
X81726227Y-131345196D01*
X81702429Y-131339235D01*
X81679329Y-131330970D01*
X81657151Y-131320480D01*
X81636107Y-131307867D01*
X81616402Y-131293253D01*
X81598223Y-131276777D01*
X81581747Y-131258598D01*
X81567133Y-131238893D01*
X81554520Y-131217849D01*
X81544030Y-131195671D01*
X81535765Y-131172571D01*
X81529804Y-131148773D01*
X81526204Y-131124504D01*
X81525000Y-131100000D01*
X81525000Y-129900000D01*
X81526204Y-129875496D01*
X81529804Y-129851227D01*
X81535765Y-129827429D01*
X81544030Y-129804329D01*
X81554520Y-129782151D01*
X81567133Y-129761107D01*
X81581747Y-129741402D01*
X81598223Y-129723223D01*
X81616402Y-129706747D01*
X81636107Y-129692133D01*
X81657151Y-129679520D01*
X81679329Y-129669030D01*
X81702429Y-129660765D01*
X81726227Y-129654804D01*
X81750496Y-129651204D01*
X81775000Y-129650000D01*
X83225000Y-129650000D01*
X83249504Y-129651204D01*
G37*
G04 #@! TD.AperFunction*
D16*
X82500000Y-133000000D03*
X82500000Y-135500000D03*
X82500000Y-138000000D03*
G04 #@! TA.AperFunction,ComponentPad*
D13*
G36*
X83249504Y-144151204D02*
G01*
X83273773Y-144154804D01*
X83297571Y-144160765D01*
X83320671Y-144169030D01*
X83342849Y-144179520D01*
X83363893Y-144192133D01*
X83383598Y-144206747D01*
X83401777Y-144223223D01*
X83418253Y-144241402D01*
X83432867Y-144261107D01*
X83445480Y-144282151D01*
X83455970Y-144304329D01*
X83464235Y-144327429D01*
X83470196Y-144351227D01*
X83473796Y-144375496D01*
X83475000Y-144400000D01*
X83475000Y-145600000D01*
X83473796Y-145624504D01*
X83470196Y-145648773D01*
X83464235Y-145672571D01*
X83455970Y-145695671D01*
X83445480Y-145717849D01*
X83432867Y-145738893D01*
X83418253Y-145758598D01*
X83401777Y-145776777D01*
X83383598Y-145793253D01*
X83363893Y-145807867D01*
X83342849Y-145820480D01*
X83320671Y-145830970D01*
X83297571Y-145839235D01*
X83273773Y-145845196D01*
X83249504Y-145848796D01*
X83225000Y-145850000D01*
X81775000Y-145850000D01*
X81750496Y-145848796D01*
X81726227Y-145845196D01*
X81702429Y-145839235D01*
X81679329Y-145830970D01*
X81657151Y-145820480D01*
X81636107Y-145807867D01*
X81616402Y-145793253D01*
X81598223Y-145776777D01*
X81581747Y-145758598D01*
X81567133Y-145738893D01*
X81554520Y-145717849D01*
X81544030Y-145695671D01*
X81535765Y-145672571D01*
X81529804Y-145648773D01*
X81526204Y-145624504D01*
X81525000Y-145600000D01*
X81525000Y-144400000D01*
X81526204Y-144375496D01*
X81529804Y-144351227D01*
X81535765Y-144327429D01*
X81544030Y-144304329D01*
X81554520Y-144282151D01*
X81567133Y-144261107D01*
X81581747Y-144241402D01*
X81598223Y-144223223D01*
X81616402Y-144206747D01*
X81636107Y-144192133D01*
X81657151Y-144179520D01*
X81679329Y-144169030D01*
X81702429Y-144160765D01*
X81726227Y-144154804D01*
X81750496Y-144151204D01*
X81775000Y-144150000D01*
X83225000Y-144150000D01*
X83249504Y-144151204D01*
G37*
G04 #@! TD.AperFunction*
D16*
X82500000Y-147500000D03*
X82500000Y-150000000D03*
X82500000Y-152500000D03*
X82500000Y-155000000D03*
D14*
X40000000Y-118960000D03*
X40000000Y-116420000D03*
D17*
X40000000Y-121500000D03*
D12*
X43000000Y-143660000D03*
D11*
X43000000Y-133500000D03*
X39000000Y-133500000D03*
D12*
X39000000Y-143660000D03*
D11*
X80500000Y-170160000D03*
D12*
X80500000Y-160000000D03*
X84500000Y-170160000D03*
D11*
X84500000Y-160000000D03*
X53000000Y-133500000D03*
D12*
X53000000Y-143660000D03*
X49000000Y-133500000D03*
D11*
X49000000Y-143660000D03*
D10*
X43000000Y-149000000D03*
D11*
X50620000Y-151540000D03*
X43000000Y-151540000D03*
X50620000Y-149000000D03*
X67120000Y-123500000D03*
X59500000Y-126040000D03*
X67120000Y-126040000D03*
D10*
X59500000Y-123500000D03*
D18*
X53000000Y-130000000D03*
D19*
X45380000Y-114760000D03*
X53000000Y-127460000D03*
X45380000Y-117300000D03*
X53000000Y-124920000D03*
X45380000Y-119840000D03*
X53000000Y-122380000D03*
X45380000Y-122380000D03*
X53000000Y-119840000D03*
X45380000Y-124920000D03*
X53000000Y-117300000D03*
X45380000Y-127460000D03*
X53000000Y-114760000D03*
X45380000Y-130000000D03*
D20*
X82500000Y-115000000D03*
X75000000Y-115000000D03*
X67500000Y-115000000D03*
X60000000Y-115000000D03*
X75000000Y-122500000D03*
X82500000Y-122500000D03*
X69000000Y-130000000D03*
X63000000Y-140000000D03*
X63000000Y-159000000D03*
X72500000Y-136500000D03*
X71000000Y-142500000D03*
X71000000Y-155000000D03*
X70500000Y-165000000D03*
X62000000Y-172500000D03*
X79000000Y-172500000D03*
X83000000Y-164000000D03*
X85500000Y-151000000D03*
X78500000Y-140000000D03*
X86000000Y-138500000D03*
X86000000Y-127000000D03*
X46000000Y-166500000D03*
X55000000Y-155500000D03*
X38000000Y-155500000D03*
X45500000Y-146000000D03*
X50500000Y-137000000D03*
X37500000Y-136500000D03*
X42000000Y-127500000D03*
X59500000Y-129000000D03*
X50500000Y-112500000D03*
X37500000Y-112500000D03*
D21*
X67120000Y-126040000D02*
X59500000Y-133660000D01*
X59500000Y-133660000D02*
X59500000Y-134500000D01*
X67120000Y-123500000D02*
X68800000Y-125180000D01*
X68800000Y-127700002D02*
X59500002Y-137000000D01*
X68800000Y-125180000D02*
X68800000Y-127700002D01*
X75871370Y-162440000D02*
X80500000Y-167068630D01*
X74740000Y-162440000D02*
X75871370Y-162440000D01*
X80500000Y-167068630D02*
X80500000Y-170100000D01*
X84500000Y-169660000D02*
X84500000Y-170100000D01*
X78120000Y-155505000D02*
X81125000Y-152500000D01*
X78120000Y-163280000D02*
X78120000Y-155505000D01*
X78120000Y-163280000D02*
X84500000Y-169660000D01*
X74740000Y-159900000D02*
X78120000Y-163280000D01*
X81125000Y-152500000D02*
X82500000Y-152500000D01*
X40000000Y-115359340D02*
X42659340Y-112700000D01*
X40000000Y-116420000D02*
X40000000Y-115359340D01*
X42659340Y-112700000D02*
X46000000Y-112700000D01*
X52700000Y-122400000D02*
X53000000Y-122400000D01*
X46000000Y-112700000D02*
X46100000Y-112700000D01*
X46100000Y-112700000D02*
X50900000Y-117500000D01*
X50900000Y-117500000D02*
X50900000Y-120300000D01*
X50900000Y-120300000D02*
X53000000Y-122400000D01*
X53400000Y-122380000D02*
X56000000Y-124980000D01*
X53000000Y-122380000D02*
X53400000Y-122380000D01*
X56000000Y-124980000D02*
X56000000Y-141100000D01*
X56000000Y-141100000D02*
X59500000Y-144600000D01*
X82985678Y-128600000D02*
X84800000Y-130414322D01*
X84800000Y-134575000D02*
X83875000Y-135500000D01*
X84800000Y-130414322D02*
X84800000Y-134575000D01*
X83875000Y-135500000D02*
X82500000Y-135500000D01*
X59500000Y-167520000D02*
X65900000Y-161120000D01*
X65900000Y-161120000D02*
X65900000Y-137900000D01*
X82985678Y-128600000D02*
X76100000Y-128600000D01*
X76100000Y-128600000D02*
X75200000Y-128600000D01*
X65900000Y-137900000D02*
X75200000Y-128600000D01*
X59500000Y-170060000D02*
X67400000Y-162160000D01*
X67400000Y-162160000D02*
X67400000Y-138100000D01*
X67400000Y-138100000D02*
X72000000Y-133500000D01*
X72000000Y-133500000D02*
X72500000Y-133000000D01*
X72500000Y-133000000D02*
X82500000Y-133000000D01*
X50620000Y-151540000D02*
X48900000Y-149820000D01*
X48900000Y-149820000D02*
X48900000Y-143600000D01*
X39000000Y-143660000D02*
X39000000Y-139800000D01*
X39000000Y-139800000D02*
X48500000Y-130300000D01*
X48500000Y-130300000D02*
X49800000Y-129000000D01*
X49800000Y-129000000D02*
X49800000Y-126400000D01*
X49800000Y-126400000D02*
X49800000Y-125800000D01*
X49800000Y-125800000D02*
X50700000Y-124900000D01*
X50700000Y-124900000D02*
X50800000Y-124800000D01*
X50800000Y-124800000D02*
X53000000Y-124800000D01*
X43000000Y-143660000D02*
X43000000Y-137575998D01*
X43000000Y-137575998D02*
X43000000Y-137100000D01*
X43000000Y-137100000D02*
X48000000Y-132100000D01*
X48000000Y-132100000D02*
X50100000Y-130000000D01*
X50100000Y-130000000D02*
X53000000Y-130000000D01*
D22*
G36*
X87340000Y-174340000D02*
G01*
X35660000Y-174340000D01*
X35660000Y-172293589D01*
X38235000Y-172293589D01*
X38235000Y-172566411D01*
X38288225Y-172833989D01*
X38392629Y-173086043D01*
X38544201Y-173312886D01*
X38737114Y-173505799D01*
X38963957Y-173657371D01*
X39216011Y-173761775D01*
X39483589Y-173815000D01*
X39756411Y-173815000D01*
X40023989Y-173761775D01*
X40276043Y-173657371D01*
X40502886Y-173505799D01*
X40695799Y-173312886D01*
X40847371Y-173086043D01*
X40951775Y-172833989D01*
X41005000Y-172566411D01*
X41005000Y-172293589D01*
X48345000Y-172293589D01*
X48345000Y-172566411D01*
X48398225Y-172833989D01*
X48502629Y-173086043D01*
X48654201Y-173312886D01*
X48847114Y-173505799D01*
X49073957Y-173657371D01*
X49326011Y-173761775D01*
X49593589Y-173815000D01*
X49866411Y-173815000D01*
X50133989Y-173761775D01*
X50386043Y-173657371D01*
X50612886Y-173505799D01*
X50805799Y-173312886D01*
X50957371Y-173086043D01*
X51061775Y-172833989D01*
X51115000Y-172566411D01*
X51115000Y-172293589D01*
X51061775Y-172026011D01*
X50957371Y-171773957D01*
X50805799Y-171547114D01*
X50612886Y-171354201D01*
X50386043Y-171202629D01*
X50133989Y-171098225D01*
X49866411Y-171045000D01*
X49593589Y-171045000D01*
X49326011Y-171098225D01*
X49073957Y-171202629D01*
X48847114Y-171354201D01*
X48654201Y-171547114D01*
X48502629Y-171773957D01*
X48398225Y-172026011D01*
X48345000Y-172293589D01*
X41005000Y-172293589D01*
X40951775Y-172026011D01*
X40847371Y-171773957D01*
X40695799Y-171547114D01*
X40502886Y-171354201D01*
X40276043Y-171202629D01*
X40023989Y-171098225D01*
X39756411Y-171045000D01*
X39483589Y-171045000D01*
X39216011Y-171098225D01*
X38963957Y-171202629D01*
X38737114Y-171354201D01*
X38544201Y-171547114D01*
X38392629Y-171773957D01*
X38288225Y-172026011D01*
X38235000Y-172293589D01*
X35660000Y-172293589D01*
X35660000Y-170593589D01*
X40775000Y-170593589D01*
X40775000Y-170866411D01*
X40828225Y-171133989D01*
X40932629Y-171386043D01*
X41084201Y-171612886D01*
X41277114Y-171805799D01*
X41503957Y-171957371D01*
X41756011Y-172061775D01*
X42023589Y-172115000D01*
X42296411Y-172115000D01*
X42563989Y-172061775D01*
X42816043Y-171957371D01*
X43042886Y-171805799D01*
X43235799Y-171612886D01*
X43387371Y-171386043D01*
X43491775Y-171133989D01*
X43545000Y-170866411D01*
X43545000Y-170593589D01*
X43491775Y-170326011D01*
X43387371Y-170073957D01*
X43235799Y-169847114D01*
X43042886Y-169654201D01*
X42816043Y-169502629D01*
X42563989Y-169398225D01*
X42296411Y-169345000D01*
X42023589Y-169345000D01*
X41756011Y-169398225D01*
X41503957Y-169502629D01*
X41277114Y-169654201D01*
X41084201Y-169847114D01*
X40932629Y-170073957D01*
X40828225Y-170326011D01*
X40775000Y-170593589D01*
X35660000Y-170593589D01*
X35660000Y-164114344D01*
X36185000Y-164114344D01*
X36185000Y-164485656D01*
X36257439Y-164849834D01*
X36399534Y-165192882D01*
X36605825Y-165501618D01*
X36868382Y-165764175D01*
X37177118Y-165970466D01*
X37520166Y-166112561D01*
X37884344Y-166185000D01*
X38255656Y-166185000D01*
X38295667Y-166177041D01*
X38227214Y-166279489D01*
X38056851Y-166690782D01*
X37970000Y-167127409D01*
X37970000Y-167572591D01*
X38056851Y-168009218D01*
X38227214Y-168420511D01*
X38474544Y-168790666D01*
X38789334Y-169105456D01*
X39159489Y-169352786D01*
X39570782Y-169523149D01*
X40007409Y-169610000D01*
X40452591Y-169610000D01*
X40889218Y-169523149D01*
X41300511Y-169352786D01*
X41670666Y-169105456D01*
X41985456Y-168790666D01*
X42232786Y-168420511D01*
X42403149Y-168009218D01*
X42490000Y-167572591D01*
X42490000Y-167127409D01*
X49400000Y-167127409D01*
X49400000Y-167572591D01*
X49486851Y-168009218D01*
X49657214Y-168420511D01*
X49904544Y-168790666D01*
X50219334Y-169105456D01*
X50589489Y-169352786D01*
X51000782Y-169523149D01*
X51437409Y-169610000D01*
X51453265Y-169610000D01*
X51387114Y-169654201D01*
X51194201Y-169847114D01*
X51042629Y-170073957D01*
X50938225Y-170326011D01*
X50885000Y-170593589D01*
X50885000Y-170866411D01*
X50938225Y-171133989D01*
X51042629Y-171386043D01*
X51194201Y-171612886D01*
X51387114Y-171805799D01*
X51613957Y-171957371D01*
X51866011Y-172061775D01*
X52133589Y-172115000D01*
X52406411Y-172115000D01*
X52673989Y-172061775D01*
X52926043Y-171957371D01*
X53152886Y-171805799D01*
X53345799Y-171612886D01*
X53497371Y-171386043D01*
X53601775Y-171133989D01*
X53655000Y-170866411D01*
X53655000Y-170593589D01*
X53601775Y-170326011D01*
X53497371Y-170073957D01*
X53345799Y-169847114D01*
X53152886Y-169654201D01*
X52926043Y-169502629D01*
X52673989Y-169398225D01*
X52638064Y-169391079D01*
X52730511Y-169352786D01*
X53100666Y-169105456D01*
X53415456Y-168790666D01*
X53662786Y-168420511D01*
X53833149Y-168009218D01*
X53920000Y-167572591D01*
X53920000Y-167127409D01*
X53833149Y-166690782D01*
X53662786Y-166279489D01*
X53594333Y-166177041D01*
X53634344Y-166185000D01*
X54005656Y-166185000D01*
X54369834Y-166112561D01*
X54712882Y-165970466D01*
X55021618Y-165764175D01*
X55284175Y-165501618D01*
X55490466Y-165192882D01*
X55632561Y-164849834D01*
X55705000Y-164485656D01*
X55705000Y-164114344D01*
X55632561Y-163750166D01*
X55490466Y-163407118D01*
X55284175Y-163098382D01*
X55021618Y-162835825D01*
X54712882Y-162629534D01*
X54369834Y-162487439D01*
X54005656Y-162415000D01*
X53634344Y-162415000D01*
X53270166Y-162487439D01*
X52927118Y-162629534D01*
X52618382Y-162835825D01*
X52355825Y-163098382D01*
X52149534Y-163407118D01*
X52007439Y-163750166D01*
X51935000Y-164114344D01*
X51935000Y-164485656D01*
X52007439Y-164849834D01*
X52127061Y-165138628D01*
X51882591Y-165090000D01*
X51437409Y-165090000D01*
X51000782Y-165176851D01*
X50589489Y-165347214D01*
X50219334Y-165594544D01*
X49904544Y-165909334D01*
X49657214Y-166279489D01*
X49486851Y-166690782D01*
X49400000Y-167127409D01*
X42490000Y-167127409D01*
X42403149Y-166690782D01*
X42232786Y-166279489D01*
X41985456Y-165909334D01*
X41670666Y-165594544D01*
X41300511Y-165347214D01*
X40889218Y-165176851D01*
X40452591Y-165090000D01*
X40007409Y-165090000D01*
X39762939Y-165138628D01*
X39882561Y-164849834D01*
X39955000Y-164485656D01*
X39955000Y-164114344D01*
X39882561Y-163750166D01*
X39740466Y-163407118D01*
X39534175Y-163098382D01*
X39271618Y-162835825D01*
X38962882Y-162629534D01*
X38619834Y-162487439D01*
X38255656Y-162415000D01*
X37884344Y-162415000D01*
X37520166Y-162487439D01*
X37177118Y-162629534D01*
X36868382Y-162835825D01*
X36605825Y-163098382D01*
X36399534Y-163407118D01*
X36257439Y-163750166D01*
X36185000Y-164114344D01*
X35660000Y-164114344D01*
X35660000Y-160500500D01*
X40111928Y-160500500D01*
X40111928Y-161499500D01*
X40129002Y-161672852D01*
X40179567Y-161839542D01*
X40261679Y-161993164D01*
X40372185Y-162127815D01*
X40506836Y-162238321D01*
X40660458Y-162320433D01*
X40827148Y-162370998D01*
X41000500Y-162388072D01*
X41999500Y-162388072D01*
X42172852Y-162370998D01*
X42339542Y-162320433D01*
X42493164Y-162238321D01*
X42627815Y-162127815D01*
X42738321Y-161993164D01*
X42757654Y-161956993D01*
X43262612Y-161956993D01*
X43328137Y-162195860D01*
X43575116Y-162311760D01*
X43839960Y-162377250D01*
X44112492Y-162389812D01*
X44382238Y-162348965D01*
X44638832Y-162256277D01*
X44751863Y-162195860D01*
X44817388Y-161956993D01*
X45802612Y-161956993D01*
X45868137Y-162195860D01*
X46115116Y-162311760D01*
X46379960Y-162377250D01*
X46652492Y-162389812D01*
X46922238Y-162348965D01*
X47178832Y-162256277D01*
X47291863Y-162195860D01*
X47357388Y-161956993D01*
X48342612Y-161956993D01*
X48408137Y-162195860D01*
X48655116Y-162311760D01*
X48919960Y-162377250D01*
X49192492Y-162389812D01*
X49462238Y-162348965D01*
X49718832Y-162256277D01*
X49831863Y-162195860D01*
X49897388Y-161956993D01*
X49120000Y-161179605D01*
X48342612Y-161956993D01*
X47357388Y-161956993D01*
X46580000Y-161179605D01*
X45802612Y-161956993D01*
X44817388Y-161956993D01*
X44040000Y-161179605D01*
X43262612Y-161956993D01*
X42757654Y-161956993D01*
X42820433Y-161839542D01*
X42858010Y-161715668D01*
X43083007Y-161777388D01*
X43860395Y-161000000D01*
X44219605Y-161000000D01*
X44996993Y-161777388D01*
X45235860Y-161711863D01*
X45308578Y-161556904D01*
X45323723Y-161598832D01*
X45384140Y-161711863D01*
X45623007Y-161777388D01*
X46400395Y-161000000D01*
X46759605Y-161000000D01*
X47536993Y-161777388D01*
X47775860Y-161711863D01*
X47848578Y-161556904D01*
X47863723Y-161598832D01*
X47924140Y-161711863D01*
X48163007Y-161777388D01*
X48940395Y-161000000D01*
X49299605Y-161000000D01*
X50076993Y-161777388D01*
X50315860Y-161711863D01*
X50431760Y-161464884D01*
X50497250Y-161200040D01*
X50509812Y-160927508D01*
X50468965Y-160657762D01*
X50376277Y-160401168D01*
X50315860Y-160288137D01*
X50076993Y-160222612D01*
X49299605Y-161000000D01*
X48940395Y-161000000D01*
X48163007Y-160222612D01*
X47924140Y-160288137D01*
X47851422Y-160443096D01*
X47836277Y-160401168D01*
X47775860Y-160288137D01*
X47536993Y-160222612D01*
X46759605Y-161000000D01*
X46400395Y-161000000D01*
X45623007Y-160222612D01*
X45384140Y-160288137D01*
X45311422Y-160443096D01*
X45296277Y-160401168D01*
X45235860Y-160288137D01*
X44996993Y-160222612D01*
X44219605Y-161000000D01*
X43860395Y-161000000D01*
X43083007Y-160222612D01*
X42858010Y-160284332D01*
X42820433Y-160160458D01*
X42757655Y-160043007D01*
X43262612Y-160043007D01*
X44040000Y-160820395D01*
X44817388Y-160043007D01*
X45802612Y-160043007D01*
X46580000Y-160820395D01*
X47357388Y-160043007D01*
X48342612Y-160043007D01*
X49120000Y-160820395D01*
X49897388Y-160043007D01*
X49831863Y-159804140D01*
X49584884Y-159688240D01*
X49320040Y-159622750D01*
X49047508Y-159610188D01*
X48777762Y-159651035D01*
X48521168Y-159743723D01*
X48408137Y-159804140D01*
X48342612Y-160043007D01*
X47357388Y-160043007D01*
X47291863Y-159804140D01*
X47044884Y-159688240D01*
X46780040Y-159622750D01*
X46507508Y-159610188D01*
X46237762Y-159651035D01*
X45981168Y-159743723D01*
X45868137Y-159804140D01*
X45802612Y-160043007D01*
X44817388Y-160043007D01*
X44751863Y-159804140D01*
X44504884Y-159688240D01*
X44240040Y-159622750D01*
X43967508Y-159610188D01*
X43697762Y-159651035D01*
X43441168Y-159743723D01*
X43328137Y-159804140D01*
X43262612Y-160043007D01*
X42757655Y-160043007D01*
X42738321Y-160006836D01*
X42627815Y-159872185D01*
X42582246Y-159834787D01*
X42633589Y-159845000D01*
X42906411Y-159845000D01*
X43173989Y-159791775D01*
X43426043Y-159687371D01*
X43652886Y-159535799D01*
X43771692Y-159416993D01*
X44532612Y-159416993D01*
X44598137Y-159655860D01*
X44845116Y-159771760D01*
X45109960Y-159837250D01*
X45382492Y-159849812D01*
X45652238Y-159808965D01*
X45908832Y-159716277D01*
X46021863Y-159655860D01*
X46087388Y-159416993D01*
X47072612Y-159416993D01*
X47138137Y-159655860D01*
X47385116Y-159771760D01*
X47649960Y-159837250D01*
X47922492Y-159849812D01*
X48192238Y-159808965D01*
X48448832Y-159716277D01*
X48561863Y-159655860D01*
X48627388Y-159416993D01*
X49612612Y-159416993D01*
X49678137Y-159655860D01*
X49925116Y-159771760D01*
X50189960Y-159837250D01*
X50462492Y-159849812D01*
X50732238Y-159808965D01*
X50988832Y-159716277D01*
X51101863Y-159655860D01*
X51167388Y-159416993D01*
X50390000Y-158639605D01*
X49612612Y-159416993D01*
X48627388Y-159416993D01*
X47850000Y-158639605D01*
X47072612Y-159416993D01*
X46087388Y-159416993D01*
X45310000Y-158639605D01*
X44532612Y-159416993D01*
X43771692Y-159416993D01*
X43845799Y-159342886D01*
X43997371Y-159116043D01*
X44038511Y-159016721D01*
X44053723Y-159058832D01*
X44114140Y-159171863D01*
X44353007Y-159237388D01*
X45130395Y-158460000D01*
X45489605Y-158460000D01*
X46266993Y-159237388D01*
X46505860Y-159171863D01*
X46578578Y-159016904D01*
X46593723Y-159058832D01*
X46654140Y-159171863D01*
X46893007Y-159237388D01*
X47670395Y-158460000D01*
X48029605Y-158460000D01*
X48806993Y-159237388D01*
X49045860Y-159171863D01*
X49118578Y-159016904D01*
X49133723Y-159058832D01*
X49194140Y-159171863D01*
X49433007Y-159237388D01*
X50210395Y-158460000D01*
X50569605Y-158460000D01*
X51346993Y-159237388D01*
X51585860Y-159171863D01*
X51701760Y-158924884D01*
X51767250Y-158660040D01*
X51779812Y-158387508D01*
X51738965Y-158117762D01*
X51646277Y-157861168D01*
X51585860Y-157748137D01*
X51346993Y-157682612D01*
X50569605Y-158460000D01*
X50210395Y-158460000D01*
X49433007Y-157682612D01*
X49194140Y-157748137D01*
X49121422Y-157903096D01*
X49106277Y-157861168D01*
X49045860Y-157748137D01*
X48806993Y-157682612D01*
X48029605Y-158460000D01*
X47670395Y-158460000D01*
X46893007Y-157682612D01*
X46654140Y-157748137D01*
X46581422Y-157903096D01*
X46566277Y-157861168D01*
X46505860Y-157748137D01*
X46266993Y-157682612D01*
X45489605Y-158460000D01*
X45130395Y-158460000D01*
X44353007Y-157682612D01*
X44114140Y-157748137D01*
X44039836Y-157906477D01*
X43997371Y-157803957D01*
X43845799Y-157577114D01*
X43771692Y-157503007D01*
X44532612Y-157503007D01*
X45310000Y-158280395D01*
X46087388Y-157503007D01*
X47072612Y-157503007D01*
X47850000Y-158280395D01*
X48627388Y-157503007D01*
X49612612Y-157503007D01*
X50390000Y-158280395D01*
X51167388Y-157503007D01*
X51101863Y-157264140D01*
X50854884Y-157148240D01*
X50590040Y-157082750D01*
X50317508Y-157070188D01*
X50047762Y-157111035D01*
X49791168Y-157203723D01*
X49678137Y-157264140D01*
X49612612Y-157503007D01*
X48627388Y-157503007D01*
X48561863Y-157264140D01*
X48314884Y-157148240D01*
X48050040Y-157082750D01*
X47777508Y-157070188D01*
X47507762Y-157111035D01*
X47251168Y-157203723D01*
X47138137Y-157264140D01*
X47072612Y-157503007D01*
X46087388Y-157503007D01*
X46021863Y-157264140D01*
X45774884Y-157148240D01*
X45510040Y-157082750D01*
X45237508Y-157070188D01*
X44967762Y-157111035D01*
X44711168Y-157203723D01*
X44598137Y-157264140D01*
X44532612Y-157503007D01*
X43771692Y-157503007D01*
X43652886Y-157384201D01*
X43426043Y-157232629D01*
X43173989Y-157128225D01*
X42906411Y-157075000D01*
X42633589Y-157075000D01*
X42366011Y-157128225D01*
X42113957Y-157232629D01*
X41887114Y-157384201D01*
X41694201Y-157577114D01*
X41542629Y-157803957D01*
X41438225Y-158056011D01*
X41385000Y-158323589D01*
X41385000Y-158596411D01*
X41438225Y-158863989D01*
X41542629Y-159116043D01*
X41694201Y-159342886D01*
X41887114Y-159535799D01*
X42001317Y-159612107D01*
X41999500Y-159611928D01*
X41000500Y-159611928D01*
X40827148Y-159629002D01*
X40660458Y-159679567D01*
X40506836Y-159761679D01*
X40372185Y-159872185D01*
X40261679Y-160006836D01*
X40179567Y-160160458D01*
X40129002Y-160327148D01*
X40111928Y-160500500D01*
X35660000Y-160500500D01*
X35660000Y-148200000D01*
X41561928Y-148200000D01*
X41561928Y-149800000D01*
X41574188Y-149924482D01*
X41610498Y-150044180D01*
X41669463Y-150154494D01*
X41748815Y-150251185D01*
X41845506Y-150330537D01*
X41955820Y-150389502D01*
X42075518Y-150425812D01*
X42083961Y-150426643D01*
X41885363Y-150625241D01*
X41728320Y-150860273D01*
X41620147Y-151121426D01*
X41565000Y-151398665D01*
X41565000Y-151681335D01*
X41620147Y-151958574D01*
X41728320Y-152219727D01*
X41885363Y-152454759D01*
X42085241Y-152654637D01*
X42320273Y-152811680D01*
X42581426Y-152919853D01*
X42858665Y-152975000D01*
X43141335Y-152975000D01*
X43418574Y-152919853D01*
X43679727Y-152811680D01*
X43914759Y-152654637D01*
X44114637Y-152454759D01*
X44271680Y-152219727D01*
X44379853Y-151958574D01*
X44435000Y-151681335D01*
X44435000Y-151398665D01*
X44379853Y-151121426D01*
X44271680Y-150860273D01*
X44114637Y-150625241D01*
X43916039Y-150426643D01*
X43924482Y-150425812D01*
X44044180Y-150389502D01*
X44154494Y-150330537D01*
X44251185Y-150251185D01*
X44330537Y-150154494D01*
X44389502Y-150044180D01*
X44425812Y-149924482D01*
X44438072Y-149800000D01*
X44438072Y-148200000D01*
X44425812Y-148075518D01*
X44389502Y-147955820D01*
X44330537Y-147845506D01*
X44251185Y-147748815D01*
X44154494Y-147669463D01*
X44044180Y-147610498D01*
X43924482Y-147574188D01*
X43800000Y-147561928D01*
X42200000Y-147561928D01*
X42075518Y-147574188D01*
X41955820Y-147610498D01*
X41845506Y-147669463D01*
X41748815Y-147748815D01*
X41669463Y-147845506D01*
X41610498Y-147955820D01*
X41574188Y-148075518D01*
X41561928Y-148200000D01*
X35660000Y-148200000D01*
X35660000Y-143518665D01*
X37565000Y-143518665D01*
X37565000Y-143801335D01*
X37620147Y-144078574D01*
X37728320Y-144339727D01*
X37885363Y-144574759D01*
X38085241Y-144774637D01*
X38320273Y-144931680D01*
X38581426Y-145039853D01*
X38858665Y-145095000D01*
X39141335Y-145095000D01*
X39418574Y-145039853D01*
X39679727Y-144931680D01*
X39914759Y-144774637D01*
X40114637Y-144574759D01*
X40271680Y-144339727D01*
X40379853Y-144078574D01*
X40435000Y-143801335D01*
X40435000Y-143518665D01*
X40379853Y-143241426D01*
X40271680Y-142980273D01*
X40114637Y-142745241D01*
X39914759Y-142545363D01*
X39835000Y-142492070D01*
X39835000Y-140145867D01*
X42165001Y-137815867D01*
X42165000Y-142492070D01*
X42085241Y-142545363D01*
X41885363Y-142745241D01*
X41728320Y-142980273D01*
X41620147Y-143241426D01*
X41565000Y-143518665D01*
X41565000Y-143801335D01*
X41620147Y-144078574D01*
X41728320Y-144339727D01*
X41885363Y-144574759D01*
X42085241Y-144774637D01*
X42320273Y-144931680D01*
X42581426Y-145039853D01*
X42858665Y-145095000D01*
X43141335Y-145095000D01*
X43418574Y-145039853D01*
X43679727Y-144931680D01*
X43914759Y-144774637D01*
X44114637Y-144574759D01*
X44271680Y-144339727D01*
X44379853Y-144078574D01*
X44435000Y-143801335D01*
X44435000Y-143518665D01*
X47565000Y-143518665D01*
X47565000Y-143801335D01*
X47620147Y-144078574D01*
X47728320Y-144339727D01*
X47885363Y-144574759D01*
X48065001Y-144754397D01*
X48065000Y-149778981D01*
X48060960Y-149820000D01*
X48065000Y-149861018D01*
X48077082Y-149983688D01*
X48124828Y-150141086D01*
X48202364Y-150286145D01*
X48306709Y-150413291D01*
X48338579Y-150439446D01*
X49203715Y-151304582D01*
X49185000Y-151398665D01*
X49185000Y-151681335D01*
X49240147Y-151958574D01*
X49348320Y-152219727D01*
X49505363Y-152454759D01*
X49705241Y-152654637D01*
X49940273Y-152811680D01*
X50201426Y-152919853D01*
X50478665Y-152975000D01*
X50761335Y-152975000D01*
X51038574Y-152919853D01*
X51299727Y-152811680D01*
X51534759Y-152654637D01*
X51734637Y-152454759D01*
X51891680Y-152219727D01*
X51999853Y-151958574D01*
X52055000Y-151681335D01*
X52055000Y-151398665D01*
X51999853Y-151121426D01*
X51891680Y-150860273D01*
X51734637Y-150625241D01*
X51534759Y-150425363D01*
X51302241Y-150270000D01*
X51534759Y-150114637D01*
X51734637Y-149914759D01*
X51891680Y-149679727D01*
X51999853Y-149418574D01*
X52055000Y-149141335D01*
X52055000Y-148858665D01*
X51999853Y-148581426D01*
X51891680Y-148320273D01*
X51734637Y-148085241D01*
X51534759Y-147885363D01*
X51299727Y-147728320D01*
X51038574Y-147620147D01*
X50761335Y-147565000D01*
X50478665Y-147565000D01*
X50201426Y-147620147D01*
X49940273Y-147728320D01*
X49735000Y-147865479D01*
X49735000Y-144894748D01*
X49914759Y-144774637D01*
X50114637Y-144574759D01*
X50271680Y-144339727D01*
X50379853Y-144078574D01*
X50435000Y-143801335D01*
X50435000Y-143518665D01*
X51565000Y-143518665D01*
X51565000Y-143801335D01*
X51620147Y-144078574D01*
X51728320Y-144339727D01*
X51885363Y-144574759D01*
X52085241Y-144774637D01*
X52320273Y-144931680D01*
X52581426Y-145039853D01*
X52858665Y-145095000D01*
X53141335Y-145095000D01*
X53418574Y-145039853D01*
X53679727Y-144931680D01*
X53914759Y-144774637D01*
X54114637Y-144574759D01*
X54271680Y-144339727D01*
X54379853Y-144078574D01*
X54435000Y-143801335D01*
X54435000Y-143518665D01*
X54379853Y-143241426D01*
X54271680Y-142980273D01*
X54114637Y-142745241D01*
X53914759Y-142545363D01*
X53679727Y-142388320D01*
X53418574Y-142280147D01*
X53141335Y-142225000D01*
X52858665Y-142225000D01*
X52581426Y-142280147D01*
X52320273Y-142388320D01*
X52085241Y-142545363D01*
X51885363Y-142745241D01*
X51728320Y-142980273D01*
X51620147Y-143241426D01*
X51565000Y-143518665D01*
X50435000Y-143518665D01*
X50379853Y-143241426D01*
X50271680Y-142980273D01*
X50114637Y-142745241D01*
X49914759Y-142545363D01*
X49679727Y-142388320D01*
X49418574Y-142280147D01*
X49141335Y-142225000D01*
X48858665Y-142225000D01*
X48581426Y-142280147D01*
X48320273Y-142388320D01*
X48085241Y-142545363D01*
X47885363Y-142745241D01*
X47728320Y-142980273D01*
X47620147Y-143241426D01*
X47565000Y-143518665D01*
X44435000Y-143518665D01*
X44379853Y-143241426D01*
X44271680Y-142980273D01*
X44114637Y-142745241D01*
X43914759Y-142545363D01*
X43835000Y-142492070D01*
X43835000Y-137445867D01*
X47577366Y-133703503D01*
X47620147Y-133918574D01*
X47728320Y-134179727D01*
X47885363Y-134414759D01*
X48085241Y-134614637D01*
X48320273Y-134771680D01*
X48581426Y-134879853D01*
X48858665Y-134935000D01*
X49141335Y-134935000D01*
X49418574Y-134879853D01*
X49679727Y-134771680D01*
X49914759Y-134614637D01*
X50114637Y-134414759D01*
X50271680Y-134179727D01*
X50379853Y-133918574D01*
X50435000Y-133641335D01*
X50435000Y-133358665D01*
X51565000Y-133358665D01*
X51565000Y-133641335D01*
X51620147Y-133918574D01*
X51728320Y-134179727D01*
X51885363Y-134414759D01*
X52085241Y-134614637D01*
X52320273Y-134771680D01*
X52581426Y-134879853D01*
X52858665Y-134935000D01*
X53141335Y-134935000D01*
X53418574Y-134879853D01*
X53679727Y-134771680D01*
X53914759Y-134614637D01*
X54114637Y-134414759D01*
X54271680Y-134179727D01*
X54379853Y-133918574D01*
X54435000Y-133641335D01*
X54435000Y-133358665D01*
X54379853Y-133081426D01*
X54271680Y-132820273D01*
X54114637Y-132585241D01*
X53914759Y-132385363D01*
X53679727Y-132228320D01*
X53418574Y-132120147D01*
X53141335Y-132065000D01*
X52858665Y-132065000D01*
X52581426Y-132120147D01*
X52320273Y-132228320D01*
X52085241Y-132385363D01*
X51885363Y-132585241D01*
X51728320Y-132820273D01*
X51620147Y-133081426D01*
X51565000Y-133358665D01*
X50435000Y-133358665D01*
X50379853Y-133081426D01*
X50271680Y-132820273D01*
X50114637Y-132585241D01*
X49914759Y-132385363D01*
X49679727Y-132228320D01*
X49418574Y-132120147D01*
X49203501Y-132077366D01*
X50445868Y-130835000D01*
X51165375Y-130835000D01*
X51174188Y-130924482D01*
X51210498Y-131044180D01*
X51269463Y-131154494D01*
X51348815Y-131251185D01*
X51445506Y-131330537D01*
X51555820Y-131389502D01*
X51675518Y-131425812D01*
X51800000Y-131438072D01*
X54200000Y-131438072D01*
X54324482Y-131425812D01*
X54444180Y-131389502D01*
X54554494Y-131330537D01*
X54651185Y-131251185D01*
X54730537Y-131154494D01*
X54789502Y-131044180D01*
X54825812Y-130924482D01*
X54838072Y-130800000D01*
X54838072Y-129200000D01*
X54825812Y-129075518D01*
X54789502Y-128955820D01*
X54730537Y-128845506D01*
X54651185Y-128748815D01*
X54554494Y-128669463D01*
X54444180Y-128610498D01*
X54324482Y-128574188D01*
X54306518Y-128572419D01*
X54419608Y-128479608D01*
X54598932Y-128261101D01*
X54732182Y-128011808D01*
X54814236Y-127741309D01*
X54841943Y-127460000D01*
X54814236Y-127178691D01*
X54732182Y-126908192D01*
X54598932Y-126658899D01*
X54419608Y-126440392D01*
X54201101Y-126261068D01*
X54068142Y-126190000D01*
X54201101Y-126118932D01*
X54419608Y-125939608D01*
X54598932Y-125721101D01*
X54732182Y-125471808D01*
X54814236Y-125201309D01*
X54834518Y-124995386D01*
X55165000Y-125325868D01*
X55165001Y-141058971D01*
X55160960Y-141100000D01*
X55177082Y-141263688D01*
X55224828Y-141421086D01*
X55224829Y-141421087D01*
X55302365Y-141566146D01*
X55406710Y-141693291D01*
X55438574Y-141719441D01*
X58093669Y-144374537D01*
X58065000Y-144518665D01*
X58065000Y-144801335D01*
X58120147Y-145078574D01*
X58228320Y-145339727D01*
X58385363Y-145574759D01*
X58585241Y-145774637D01*
X58817759Y-145930000D01*
X58585241Y-146085363D01*
X58385363Y-146285241D01*
X58228320Y-146520273D01*
X58120147Y-146781426D01*
X58065000Y-147058665D01*
X58065000Y-147341335D01*
X58120147Y-147618574D01*
X58228320Y-147879727D01*
X58385363Y-148114759D01*
X58585241Y-148314637D01*
X58817759Y-148470000D01*
X58585241Y-148625363D01*
X58385363Y-148825241D01*
X58228320Y-149060273D01*
X58120147Y-149321426D01*
X58065000Y-149598665D01*
X58065000Y-149881335D01*
X58120147Y-150158574D01*
X58228320Y-150419727D01*
X58385363Y-150654759D01*
X58585241Y-150854637D01*
X58817759Y-151010000D01*
X58585241Y-151165363D01*
X58385363Y-151365241D01*
X58228320Y-151600273D01*
X58120147Y-151861426D01*
X58065000Y-152138665D01*
X58065000Y-152421335D01*
X58120147Y-152698574D01*
X58228320Y-152959727D01*
X58385363Y-153194759D01*
X58585241Y-153394637D01*
X58817759Y-153550000D01*
X58585241Y-153705363D01*
X58385363Y-153905241D01*
X58228320Y-154140273D01*
X58120147Y-154401426D01*
X58065000Y-154678665D01*
X58065000Y-154961335D01*
X58120147Y-155238574D01*
X58228320Y-155499727D01*
X58385363Y-155734759D01*
X58585241Y-155934637D01*
X58817759Y-156090000D01*
X58585241Y-156245363D01*
X58385363Y-156445241D01*
X58228320Y-156680273D01*
X58120147Y-156941426D01*
X58065000Y-157218665D01*
X58065000Y-157501335D01*
X58120147Y-157778574D01*
X58228320Y-158039727D01*
X58385363Y-158274759D01*
X58585241Y-158474637D01*
X58817759Y-158630000D01*
X58585241Y-158785363D01*
X58385363Y-158985241D01*
X58228320Y-159220273D01*
X58120147Y-159481426D01*
X58065000Y-159758665D01*
X58065000Y-160041335D01*
X58120147Y-160318574D01*
X58228320Y-160579727D01*
X58385363Y-160814759D01*
X58585241Y-161014637D01*
X58817759Y-161170000D01*
X58585241Y-161325363D01*
X58385363Y-161525241D01*
X58228320Y-161760273D01*
X58120147Y-162021426D01*
X58065000Y-162298665D01*
X58065000Y-162581335D01*
X58120147Y-162858574D01*
X58228320Y-163119727D01*
X58385363Y-163354759D01*
X58585241Y-163554637D01*
X58817759Y-163710000D01*
X58585241Y-163865363D01*
X58385363Y-164065241D01*
X58228320Y-164300273D01*
X58120147Y-164561426D01*
X58065000Y-164838665D01*
X58065000Y-165121335D01*
X58120147Y-165398574D01*
X58228320Y-165659727D01*
X58385363Y-165894759D01*
X58585241Y-166094637D01*
X58817759Y-166250000D01*
X58585241Y-166405363D01*
X58385363Y-166605241D01*
X58228320Y-166840273D01*
X58120147Y-167101426D01*
X58065000Y-167378665D01*
X58065000Y-167661335D01*
X58120147Y-167938574D01*
X58228320Y-168199727D01*
X58385363Y-168434759D01*
X58585241Y-168634637D01*
X58817759Y-168790000D01*
X58585241Y-168945363D01*
X58385363Y-169145241D01*
X58228320Y-169380273D01*
X58120147Y-169641426D01*
X58065000Y-169918665D01*
X58065000Y-170201335D01*
X58120147Y-170478574D01*
X58228320Y-170739727D01*
X58385363Y-170974759D01*
X58585241Y-171174637D01*
X58820273Y-171331680D01*
X59081426Y-171439853D01*
X59358665Y-171495000D01*
X59641335Y-171495000D01*
X59918574Y-171439853D01*
X60179727Y-171331680D01*
X60414759Y-171174637D01*
X60614637Y-170974759D01*
X60771680Y-170739727D01*
X60879853Y-170478574D01*
X60935000Y-170201335D01*
X60935000Y-169918665D01*
X60916285Y-169824582D01*
X67961428Y-162779440D01*
X67993291Y-162753291D01*
X68097636Y-162626146D01*
X68175172Y-162481087D01*
X68222918Y-162323689D01*
X68235000Y-162201019D01*
X68235000Y-162201018D01*
X68239040Y-162160001D01*
X68235000Y-162118982D01*
X68235000Y-139438665D01*
X73305000Y-139438665D01*
X73305000Y-139721335D01*
X73360147Y-139998574D01*
X73468320Y-140259727D01*
X73625363Y-140494759D01*
X73825241Y-140694637D01*
X74057759Y-140850000D01*
X73825241Y-141005363D01*
X73625363Y-141205241D01*
X73468320Y-141440273D01*
X73360147Y-141701426D01*
X73305000Y-141978665D01*
X73305000Y-142261335D01*
X73360147Y-142538574D01*
X73468320Y-142799727D01*
X73625363Y-143034759D01*
X73825241Y-143234637D01*
X74057759Y-143390000D01*
X73825241Y-143545363D01*
X73625363Y-143745241D01*
X73468320Y-143980273D01*
X73360147Y-144241426D01*
X73305000Y-144518665D01*
X73305000Y-144801335D01*
X73360147Y-145078574D01*
X73468320Y-145339727D01*
X73625363Y-145574759D01*
X73825241Y-145774637D01*
X74057759Y-145930000D01*
X73825241Y-146085363D01*
X73625363Y-146285241D01*
X73468320Y-146520273D01*
X73360147Y-146781426D01*
X73305000Y-147058665D01*
X73305000Y-147341335D01*
X73360147Y-147618574D01*
X73468320Y-147879727D01*
X73625363Y-148114759D01*
X73825241Y-148314637D01*
X74057759Y-148470000D01*
X73825241Y-148625363D01*
X73625363Y-148825241D01*
X73468320Y-149060273D01*
X73360147Y-149321426D01*
X73305000Y-149598665D01*
X73305000Y-149881335D01*
X73360147Y-150158574D01*
X73468320Y-150419727D01*
X73625363Y-150654759D01*
X73825241Y-150854637D01*
X74057759Y-151010000D01*
X73825241Y-151165363D01*
X73625363Y-151365241D01*
X73468320Y-151600273D01*
X73360147Y-151861426D01*
X73305000Y-152138665D01*
X73305000Y-152421335D01*
X73360147Y-152698574D01*
X73468320Y-152959727D01*
X73625363Y-153194759D01*
X73825241Y-153394637D01*
X74057759Y-153550000D01*
X73825241Y-153705363D01*
X73625363Y-153905241D01*
X73468320Y-154140273D01*
X73360147Y-154401426D01*
X73305000Y-154678665D01*
X73305000Y-154961335D01*
X73360147Y-155238574D01*
X73468320Y-155499727D01*
X73625363Y-155734759D01*
X73825241Y-155934637D01*
X74057759Y-156090000D01*
X73825241Y-156245363D01*
X73625363Y-156445241D01*
X73468320Y-156680273D01*
X73360147Y-156941426D01*
X73305000Y-157218665D01*
X73305000Y-157501335D01*
X73360147Y-157778574D01*
X73468320Y-158039727D01*
X73625363Y-158274759D01*
X73825241Y-158474637D01*
X74057759Y-158630000D01*
X73825241Y-158785363D01*
X73625363Y-158985241D01*
X73468320Y-159220273D01*
X73360147Y-159481426D01*
X73305000Y-159758665D01*
X73305000Y-160041335D01*
X73360147Y-160318574D01*
X73468320Y-160579727D01*
X73625363Y-160814759D01*
X73825241Y-161014637D01*
X74057759Y-161170000D01*
X73825241Y-161325363D01*
X73625363Y-161525241D01*
X73468320Y-161760273D01*
X73360147Y-162021426D01*
X73305000Y-162298665D01*
X73305000Y-162581335D01*
X73360147Y-162858574D01*
X73468320Y-163119727D01*
X73625363Y-163354759D01*
X73825241Y-163554637D01*
X74057759Y-163710000D01*
X73825241Y-163865363D01*
X73625363Y-164065241D01*
X73468320Y-164300273D01*
X73360147Y-164561426D01*
X73305000Y-164838665D01*
X73305000Y-165121335D01*
X73360147Y-165398574D01*
X73468320Y-165659727D01*
X73625363Y-165894759D01*
X73825241Y-166094637D01*
X74057759Y-166250000D01*
X73825241Y-166405363D01*
X73625363Y-166605241D01*
X73468320Y-166840273D01*
X73360147Y-167101426D01*
X73305000Y-167378665D01*
X73305000Y-167661335D01*
X73360147Y-167938574D01*
X73468320Y-168199727D01*
X73625363Y-168434759D01*
X73825241Y-168634637D01*
X74057759Y-168790000D01*
X73825241Y-168945363D01*
X73625363Y-169145241D01*
X73468320Y-169380273D01*
X73360147Y-169641426D01*
X73305000Y-169918665D01*
X73305000Y-170201335D01*
X73360147Y-170478574D01*
X73468320Y-170739727D01*
X73625363Y-170974759D01*
X73825241Y-171174637D01*
X74060273Y-171331680D01*
X74321426Y-171439853D01*
X74598665Y-171495000D01*
X74881335Y-171495000D01*
X75158574Y-171439853D01*
X75419727Y-171331680D01*
X75654759Y-171174637D01*
X75854637Y-170974759D01*
X76011680Y-170739727D01*
X76119853Y-170478574D01*
X76175000Y-170201335D01*
X76175000Y-169918665D01*
X76119853Y-169641426D01*
X76011680Y-169380273D01*
X75854637Y-169145241D01*
X75654759Y-168945363D01*
X75422241Y-168790000D01*
X75654759Y-168634637D01*
X75854637Y-168434759D01*
X76011680Y-168199727D01*
X76119853Y-167938574D01*
X76175000Y-167661335D01*
X76175000Y-167378665D01*
X76119853Y-167101426D01*
X76011680Y-166840273D01*
X75854637Y-166605241D01*
X75654759Y-166405363D01*
X75422241Y-166250000D01*
X75654759Y-166094637D01*
X75854637Y-165894759D01*
X76011680Y-165659727D01*
X76119853Y-165398574D01*
X76175000Y-165121335D01*
X76175000Y-164838665D01*
X76119853Y-164561426D01*
X76011680Y-164300273D01*
X75854637Y-164065241D01*
X75654759Y-163865363D01*
X75422241Y-163710000D01*
X75654759Y-163554637D01*
X75729949Y-163479447D01*
X79665000Y-167414498D01*
X79665001Y-168992069D01*
X79585241Y-169045363D01*
X79385363Y-169245241D01*
X79228320Y-169480273D01*
X79120147Y-169741426D01*
X79065000Y-170018665D01*
X79065000Y-170301335D01*
X79120147Y-170578574D01*
X79228320Y-170839727D01*
X79385363Y-171074759D01*
X79585241Y-171274637D01*
X79820273Y-171431680D01*
X80081426Y-171539853D01*
X80358665Y-171595000D01*
X80641335Y-171595000D01*
X80918574Y-171539853D01*
X81179727Y-171431680D01*
X81414759Y-171274637D01*
X81614637Y-171074759D01*
X81771680Y-170839727D01*
X81879853Y-170578574D01*
X81935000Y-170301335D01*
X81935000Y-170018665D01*
X81879853Y-169741426D01*
X81771680Y-169480273D01*
X81614637Y-169245241D01*
X81414759Y-169045363D01*
X81335000Y-168992070D01*
X81335000Y-167675868D01*
X83202277Y-169543146D01*
X83120147Y-169741426D01*
X83065000Y-170018665D01*
X83065000Y-170301335D01*
X83120147Y-170578574D01*
X83228320Y-170839727D01*
X83385363Y-171074759D01*
X83585241Y-171274637D01*
X83820273Y-171431680D01*
X84081426Y-171539853D01*
X84358665Y-171595000D01*
X84641335Y-171595000D01*
X84918574Y-171539853D01*
X85179727Y-171431680D01*
X85414759Y-171274637D01*
X85614637Y-171074759D01*
X85771680Y-170839727D01*
X85879853Y-170578574D01*
X85935000Y-170301335D01*
X85935000Y-170018665D01*
X85879853Y-169741426D01*
X85771680Y-169480273D01*
X85614637Y-169245241D01*
X85414759Y-169045363D01*
X85179727Y-168888320D01*
X84918574Y-168780147D01*
X84771825Y-168750956D01*
X78955000Y-162934133D01*
X78955000Y-160992702D01*
X79686903Y-160992702D01*
X79758486Y-161236671D01*
X80013996Y-161357571D01*
X80288184Y-161426300D01*
X80570512Y-161440217D01*
X80850130Y-161398787D01*
X81116292Y-161303603D01*
X81241514Y-161236671D01*
X81313097Y-160992702D01*
X80500000Y-160179605D01*
X79686903Y-160992702D01*
X78955000Y-160992702D01*
X78955000Y-160070512D01*
X79059783Y-160070512D01*
X79101213Y-160350130D01*
X79196397Y-160616292D01*
X79263329Y-160741514D01*
X79507298Y-160813097D01*
X80320395Y-160000000D01*
X80679605Y-160000000D01*
X81492702Y-160813097D01*
X81736671Y-160741514D01*
X81857571Y-160486004D01*
X81891902Y-160349040D01*
X83108091Y-160349040D01*
X83202930Y-160613881D01*
X83347615Y-160855131D01*
X83536586Y-161063519D01*
X83762580Y-161231037D01*
X84016913Y-161351246D01*
X84150961Y-161391904D01*
X84373000Y-161269915D01*
X84373000Y-160127000D01*
X84627000Y-160127000D01*
X84627000Y-161269915D01*
X84849039Y-161391904D01*
X84983087Y-161351246D01*
X85237420Y-161231037D01*
X85463414Y-161063519D01*
X85652385Y-160855131D01*
X85797070Y-160613881D01*
X85891909Y-160349040D01*
X85770624Y-160127000D01*
X84627000Y-160127000D01*
X84373000Y-160127000D01*
X83229376Y-160127000D01*
X83108091Y-160349040D01*
X81891902Y-160349040D01*
X81926300Y-160211816D01*
X81940217Y-159929488D01*
X81898949Y-159650960D01*
X83108091Y-159650960D01*
X83229376Y-159873000D01*
X84373000Y-159873000D01*
X84373000Y-158730085D01*
X84627000Y-158730085D01*
X84627000Y-159873000D01*
X85770624Y-159873000D01*
X85891909Y-159650960D01*
X85797070Y-159386119D01*
X85652385Y-159144869D01*
X85463414Y-158936481D01*
X85237420Y-158768963D01*
X84983087Y-158648754D01*
X84849039Y-158608096D01*
X84627000Y-158730085D01*
X84373000Y-158730085D01*
X84150961Y-158608096D01*
X84016913Y-158648754D01*
X83762580Y-158768963D01*
X83536586Y-158936481D01*
X83347615Y-159144869D01*
X83202930Y-159386119D01*
X83108091Y-159650960D01*
X81898949Y-159650960D01*
X81898787Y-159649870D01*
X81803603Y-159383708D01*
X81736671Y-159258486D01*
X81492702Y-159186903D01*
X80679605Y-160000000D01*
X80320395Y-160000000D01*
X79507298Y-159186903D01*
X79263329Y-159258486D01*
X79142429Y-159513996D01*
X79073700Y-159788184D01*
X79059783Y-160070512D01*
X78955000Y-160070512D01*
X78955000Y-159007298D01*
X79686903Y-159007298D01*
X80500000Y-159820395D01*
X81313097Y-159007298D01*
X81241514Y-158763329D01*
X80986004Y-158642429D01*
X80711816Y-158573700D01*
X80429488Y-158559783D01*
X80149870Y-158601213D01*
X79883708Y-158696397D01*
X79758486Y-158763329D01*
X79686903Y-159007298D01*
X78955000Y-159007298D01*
X78955000Y-155850867D01*
X79448977Y-155356890D01*
X80933524Y-155356890D01*
X81025648Y-155619858D01*
X81172504Y-155871193D01*
X81365571Y-156089049D01*
X81597430Y-156265053D01*
X81859170Y-156392442D01*
X82140733Y-156466320D01*
X82373000Y-156326165D01*
X82373000Y-155127000D01*
X82627000Y-155127000D01*
X82627000Y-156326165D01*
X82859267Y-156466320D01*
X83140830Y-156392442D01*
X83402570Y-156265053D01*
X83634429Y-156089049D01*
X83827496Y-155871193D01*
X83974352Y-155619858D01*
X84066476Y-155356890D01*
X83945155Y-155127000D01*
X82627000Y-155127000D01*
X82373000Y-155127000D01*
X81054845Y-155127000D01*
X80933524Y-155356890D01*
X79448977Y-155356890D01*
X81288705Y-153517164D01*
X81319866Y-153555134D01*
X81545986Y-153740706D01*
X81571722Y-153754462D01*
X81365571Y-153910951D01*
X81172504Y-154128807D01*
X81025648Y-154380142D01*
X80933524Y-154643110D01*
X81054845Y-154873000D01*
X82373000Y-154873000D01*
X82373000Y-154853000D01*
X82627000Y-154853000D01*
X82627000Y-154873000D01*
X83945155Y-154873000D01*
X84066476Y-154643110D01*
X83974352Y-154380142D01*
X83827496Y-154128807D01*
X83634429Y-153910951D01*
X83428278Y-153754462D01*
X83454014Y-153740706D01*
X83680134Y-153555134D01*
X83865706Y-153329014D01*
X84003599Y-153071034D01*
X84088513Y-152791111D01*
X84117185Y-152500000D01*
X84088513Y-152208889D01*
X84003599Y-151928966D01*
X83865706Y-151670986D01*
X83680134Y-151444866D01*
X83454014Y-151259294D01*
X83436626Y-151250000D01*
X83454014Y-151240706D01*
X83680134Y-151055134D01*
X83865706Y-150829014D01*
X84003599Y-150571034D01*
X84088513Y-150291111D01*
X84117185Y-150000000D01*
X84088513Y-149708889D01*
X84003599Y-149428966D01*
X83865706Y-149170986D01*
X83680134Y-148944866D01*
X83454014Y-148759294D01*
X83436626Y-148750000D01*
X83454014Y-148740706D01*
X83680134Y-148555134D01*
X83865706Y-148329014D01*
X84003599Y-148071034D01*
X84088513Y-147791111D01*
X84117185Y-147500000D01*
X84088513Y-147208889D01*
X84003599Y-146928966D01*
X83865706Y-146670986D01*
X83680134Y-146444866D01*
X83616663Y-146392777D01*
X83718386Y-146338405D01*
X83852962Y-146227962D01*
X83963405Y-146093386D01*
X84045472Y-145939850D01*
X84096008Y-145773254D01*
X84113072Y-145600000D01*
X84113072Y-144400000D01*
X84096008Y-144226746D01*
X84045472Y-144060150D01*
X83963405Y-143906614D01*
X83852962Y-143772038D01*
X83718386Y-143661595D01*
X83564850Y-143579528D01*
X83398254Y-143528992D01*
X83225000Y-143511928D01*
X81775000Y-143511928D01*
X81601746Y-143528992D01*
X81435150Y-143579528D01*
X81281614Y-143661595D01*
X81147038Y-143772038D01*
X81036595Y-143906614D01*
X80954528Y-144060150D01*
X80903992Y-144226746D01*
X80886928Y-144400000D01*
X80886928Y-145600000D01*
X80903992Y-145773254D01*
X80954528Y-145939850D01*
X81036595Y-146093386D01*
X81147038Y-146227962D01*
X81281614Y-146338405D01*
X81383337Y-146392777D01*
X81319866Y-146444866D01*
X81134294Y-146670986D01*
X80996401Y-146928966D01*
X80911487Y-147208889D01*
X80882815Y-147500000D01*
X80911487Y-147791111D01*
X80996401Y-148071034D01*
X81134294Y-148329014D01*
X81319866Y-148555134D01*
X81545986Y-148740706D01*
X81563374Y-148750000D01*
X81545986Y-148759294D01*
X81319866Y-148944866D01*
X81134294Y-149170986D01*
X80996401Y-149428966D01*
X80911487Y-149708889D01*
X80882815Y-150000000D01*
X80911487Y-150291111D01*
X80996401Y-150571034D01*
X81134294Y-150829014D01*
X81319866Y-151055134D01*
X81545986Y-151240706D01*
X81563374Y-151250000D01*
X81545986Y-151259294D01*
X81319866Y-151444866D01*
X81141212Y-151662557D01*
X81125000Y-151660960D01*
X81083982Y-151665000D01*
X81083981Y-151665000D01*
X80961311Y-151677082D01*
X80873606Y-151703687D01*
X80803913Y-151724828D01*
X80658854Y-151802364D01*
X80586887Y-151861426D01*
X80531709Y-151906709D01*
X80505563Y-151938568D01*
X77558574Y-154885559D01*
X77526710Y-154911709D01*
X77500562Y-154943571D01*
X77422364Y-155038855D01*
X77344828Y-155183914D01*
X77297082Y-155341312D01*
X77280960Y-155505000D01*
X77285001Y-155546029D01*
X77285000Y-161264132D01*
X76156285Y-160135418D01*
X76175000Y-160041335D01*
X76175000Y-159758665D01*
X76119853Y-159481426D01*
X76011680Y-159220273D01*
X75854637Y-158985241D01*
X75654759Y-158785363D01*
X75422241Y-158630000D01*
X75654759Y-158474637D01*
X75854637Y-158274759D01*
X76011680Y-158039727D01*
X76119853Y-157778574D01*
X76175000Y-157501335D01*
X76175000Y-157218665D01*
X76119853Y-156941426D01*
X76011680Y-156680273D01*
X75854637Y-156445241D01*
X75654759Y-156245363D01*
X75422241Y-156090000D01*
X75654759Y-155934637D01*
X75854637Y-155734759D01*
X76011680Y-155499727D01*
X76119853Y-155238574D01*
X76175000Y-154961335D01*
X76175000Y-154678665D01*
X76119853Y-154401426D01*
X76011680Y-154140273D01*
X75854637Y-153905241D01*
X75654759Y-153705363D01*
X75422241Y-153550000D01*
X75654759Y-153394637D01*
X75854637Y-153194759D01*
X76011680Y-152959727D01*
X76119853Y-152698574D01*
X76175000Y-152421335D01*
X76175000Y-152138665D01*
X76119853Y-151861426D01*
X76011680Y-151600273D01*
X75854637Y-151365241D01*
X75654759Y-151165363D01*
X75422241Y-151010000D01*
X75654759Y-150854637D01*
X75854637Y-150654759D01*
X76011680Y-150419727D01*
X76119853Y-150158574D01*
X76175000Y-149881335D01*
X76175000Y-149598665D01*
X76119853Y-149321426D01*
X76011680Y-149060273D01*
X75854637Y-148825241D01*
X75654759Y-148625363D01*
X75422241Y-148470000D01*
X75654759Y-148314637D01*
X75854637Y-148114759D01*
X76011680Y-147879727D01*
X76119853Y-147618574D01*
X76175000Y-147341335D01*
X76175000Y-147058665D01*
X76119853Y-146781426D01*
X76011680Y-146520273D01*
X75854637Y-146285241D01*
X75654759Y-146085363D01*
X75422241Y-145930000D01*
X75654759Y-145774637D01*
X75854637Y-145574759D01*
X76011680Y-145339727D01*
X76119853Y-145078574D01*
X76175000Y-144801335D01*
X76175000Y-144518665D01*
X76119853Y-144241426D01*
X76011680Y-143980273D01*
X75854637Y-143745241D01*
X75654759Y-143545363D01*
X75422241Y-143390000D01*
X75654759Y-143234637D01*
X75854637Y-143034759D01*
X76011680Y-142799727D01*
X76119853Y-142538574D01*
X76175000Y-142261335D01*
X76175000Y-141978665D01*
X76119853Y-141701426D01*
X76011680Y-141440273D01*
X75854637Y-141205241D01*
X75654759Y-141005363D01*
X75422241Y-140850000D01*
X75654759Y-140694637D01*
X75854637Y-140494759D01*
X76011680Y-140259727D01*
X76119853Y-139998574D01*
X76175000Y-139721335D01*
X76175000Y-139438665D01*
X76119853Y-139161426D01*
X76011680Y-138900273D01*
X75854637Y-138665241D01*
X75654759Y-138465363D01*
X75492418Y-138356890D01*
X80933524Y-138356890D01*
X81025648Y-138619858D01*
X81172504Y-138871193D01*
X81365571Y-139089049D01*
X81597430Y-139265053D01*
X81859170Y-139392442D01*
X82140733Y-139466320D01*
X82373000Y-139326165D01*
X82373000Y-138127000D01*
X82627000Y-138127000D01*
X82627000Y-139326165D01*
X82859267Y-139466320D01*
X83140830Y-139392442D01*
X83402570Y-139265053D01*
X83634429Y-139089049D01*
X83827496Y-138871193D01*
X83974352Y-138619858D01*
X84066476Y-138356890D01*
X83945155Y-138127000D01*
X82627000Y-138127000D01*
X82373000Y-138127000D01*
X81054845Y-138127000D01*
X80933524Y-138356890D01*
X75492418Y-138356890D01*
X75419727Y-138308320D01*
X75409135Y-138303933D01*
X75595131Y-138192385D01*
X75803519Y-138003414D01*
X75971037Y-137777420D01*
X76091246Y-137523087D01*
X76131904Y-137389039D01*
X76009915Y-137167000D01*
X74867000Y-137167000D01*
X74867000Y-137187000D01*
X74613000Y-137187000D01*
X74613000Y-137167000D01*
X73470085Y-137167000D01*
X73348096Y-137389039D01*
X73388754Y-137523087D01*
X73508963Y-137777420D01*
X73676481Y-138003414D01*
X73884869Y-138192385D01*
X74070865Y-138303933D01*
X74060273Y-138308320D01*
X73825241Y-138465363D01*
X73625363Y-138665241D01*
X73468320Y-138900273D01*
X73360147Y-139161426D01*
X73305000Y-139438665D01*
X68235000Y-139438665D01*
X68235000Y-138445867D01*
X72619438Y-134061430D01*
X72619442Y-134061425D01*
X72845868Y-133835000D01*
X73462220Y-133835000D01*
X73360147Y-134081426D01*
X73305000Y-134358665D01*
X73305000Y-134641335D01*
X73360147Y-134918574D01*
X73468320Y-135179727D01*
X73625363Y-135414759D01*
X73825241Y-135614637D01*
X74060273Y-135771680D01*
X74070865Y-135776067D01*
X73884869Y-135887615D01*
X73676481Y-136076586D01*
X73508963Y-136302580D01*
X73388754Y-136556913D01*
X73348096Y-136690961D01*
X73470085Y-136913000D01*
X74613000Y-136913000D01*
X74613000Y-136893000D01*
X74867000Y-136893000D01*
X74867000Y-136913000D01*
X76009915Y-136913000D01*
X76131904Y-136690961D01*
X76091246Y-136556913D01*
X75971037Y-136302580D01*
X75803519Y-136076586D01*
X75595131Y-135887615D01*
X75409135Y-135776067D01*
X75419727Y-135771680D01*
X75654759Y-135614637D01*
X75854637Y-135414759D01*
X76011680Y-135179727D01*
X76119853Y-134918574D01*
X76175000Y-134641335D01*
X76175000Y-134358665D01*
X76119853Y-134081426D01*
X76017780Y-133835000D01*
X81139207Y-133835000D01*
X81319866Y-134055134D01*
X81545986Y-134240706D01*
X81563374Y-134250000D01*
X81545986Y-134259294D01*
X81319866Y-134444866D01*
X81134294Y-134670986D01*
X80996401Y-134928966D01*
X80911487Y-135208889D01*
X80882815Y-135500000D01*
X80911487Y-135791111D01*
X80996401Y-136071034D01*
X81134294Y-136329014D01*
X81319866Y-136555134D01*
X81545986Y-136740706D01*
X81571722Y-136754462D01*
X81365571Y-136910951D01*
X81172504Y-137128807D01*
X81025648Y-137380142D01*
X80933524Y-137643110D01*
X81054845Y-137873000D01*
X82373000Y-137873000D01*
X82373000Y-137853000D01*
X82627000Y-137853000D01*
X82627000Y-137873000D01*
X83945155Y-137873000D01*
X84066476Y-137643110D01*
X83974352Y-137380142D01*
X83827496Y-137128807D01*
X83634429Y-136910951D01*
X83428278Y-136754462D01*
X83454014Y-136740706D01*
X83680134Y-136555134D01*
X83858788Y-136337443D01*
X83875000Y-136339040D01*
X83916018Y-136335000D01*
X83916019Y-136335000D01*
X84038689Y-136322918D01*
X84196087Y-136275172D01*
X84341146Y-136197636D01*
X84468291Y-136093291D01*
X84494445Y-136061422D01*
X85361432Y-135194437D01*
X85393291Y-135168291D01*
X85497636Y-135041146D01*
X85575172Y-134896087D01*
X85622918Y-134738689D01*
X85635000Y-134616019D01*
X85635000Y-134616018D01*
X85639040Y-134575000D01*
X85635000Y-134533982D01*
X85635000Y-130455340D01*
X85639040Y-130414322D01*
X85622918Y-130250634D01*
X85575172Y-130093235D01*
X85497636Y-129948176D01*
X85419439Y-129852892D01*
X85419437Y-129852890D01*
X85393291Y-129821031D01*
X85361433Y-129794886D01*
X83605124Y-128038579D01*
X83578969Y-128006709D01*
X83451824Y-127902364D01*
X83306765Y-127824828D01*
X83149367Y-127777082D01*
X83026697Y-127765000D01*
X83026696Y-127765000D01*
X82985678Y-127760960D01*
X82944660Y-127765000D01*
X75241018Y-127765000D01*
X75199999Y-127760960D01*
X75158981Y-127765000D01*
X75036311Y-127777082D01*
X74878913Y-127824828D01*
X74733854Y-127902364D01*
X74606709Y-128006709D01*
X74580559Y-128038573D01*
X65338574Y-137280559D01*
X65306710Y-137306709D01*
X65280562Y-137338571D01*
X65202364Y-137433855D01*
X65124828Y-137578914D01*
X65077082Y-137736312D01*
X65060960Y-137900000D01*
X65065001Y-137941029D01*
X65065000Y-160774131D01*
X60935000Y-164904132D01*
X60935000Y-164838665D01*
X60879853Y-164561426D01*
X60771680Y-164300273D01*
X60614637Y-164065241D01*
X60414759Y-163865363D01*
X60182241Y-163710000D01*
X60414759Y-163554637D01*
X60614637Y-163354759D01*
X60771680Y-163119727D01*
X60879853Y-162858574D01*
X60935000Y-162581335D01*
X60935000Y-162298665D01*
X60879853Y-162021426D01*
X60771680Y-161760273D01*
X60614637Y-161525241D01*
X60414759Y-161325363D01*
X60182241Y-161170000D01*
X60414759Y-161014637D01*
X60614637Y-160814759D01*
X60771680Y-160579727D01*
X60879853Y-160318574D01*
X60935000Y-160041335D01*
X60935000Y-159758665D01*
X60879853Y-159481426D01*
X60771680Y-159220273D01*
X60614637Y-158985241D01*
X60414759Y-158785363D01*
X60182241Y-158630000D01*
X60414759Y-158474637D01*
X60614637Y-158274759D01*
X60771680Y-158039727D01*
X60879853Y-157778574D01*
X60935000Y-157501335D01*
X60935000Y-157218665D01*
X60879853Y-156941426D01*
X60771680Y-156680273D01*
X60614637Y-156445241D01*
X60414759Y-156245363D01*
X60182241Y-156090000D01*
X60414759Y-155934637D01*
X60614637Y-155734759D01*
X60771680Y-155499727D01*
X60879853Y-155238574D01*
X60935000Y-154961335D01*
X60935000Y-154678665D01*
X60879853Y-154401426D01*
X60771680Y-154140273D01*
X60614637Y-153905241D01*
X60414759Y-153705363D01*
X60182241Y-153550000D01*
X60414759Y-153394637D01*
X60614637Y-153194759D01*
X60771680Y-152959727D01*
X60879853Y-152698574D01*
X60935000Y-152421335D01*
X60935000Y-152138665D01*
X60879853Y-151861426D01*
X60771680Y-151600273D01*
X60614637Y-151365241D01*
X60414759Y-151165363D01*
X60182241Y-151010000D01*
X60414759Y-150854637D01*
X60614637Y-150654759D01*
X60771680Y-150419727D01*
X60879853Y-150158574D01*
X60935000Y-149881335D01*
X60935000Y-149598665D01*
X60879853Y-149321426D01*
X60771680Y-149060273D01*
X60614637Y-148825241D01*
X60414759Y-148625363D01*
X60182241Y-148470000D01*
X60414759Y-148314637D01*
X60614637Y-148114759D01*
X60771680Y-147879727D01*
X60879853Y-147618574D01*
X60935000Y-147341335D01*
X60935000Y-147058665D01*
X60879853Y-146781426D01*
X60771680Y-146520273D01*
X60614637Y-146285241D01*
X60414759Y-146085363D01*
X60182241Y-145930000D01*
X60414759Y-145774637D01*
X60614637Y-145574759D01*
X60771680Y-145339727D01*
X60879853Y-145078574D01*
X60935000Y-144801335D01*
X60935000Y-144518665D01*
X60879853Y-144241426D01*
X60771680Y-143980273D01*
X60614637Y-143745241D01*
X60414759Y-143545363D01*
X60179727Y-143388320D01*
X60169135Y-143383933D01*
X60355131Y-143272385D01*
X60563519Y-143083414D01*
X60731037Y-142857420D01*
X60851246Y-142603087D01*
X60891904Y-142469039D01*
X60769915Y-142247000D01*
X59627000Y-142247000D01*
X59627000Y-142267000D01*
X59373000Y-142267000D01*
X59373000Y-142247000D01*
X59353000Y-142247000D01*
X59353000Y-141993000D01*
X59373000Y-141993000D01*
X59373000Y-141973000D01*
X59627000Y-141973000D01*
X59627000Y-141993000D01*
X60769915Y-141993000D01*
X60891904Y-141770961D01*
X60851246Y-141636913D01*
X60731037Y-141382580D01*
X60563519Y-141156586D01*
X60355131Y-140967615D01*
X60169135Y-140856067D01*
X60179727Y-140851680D01*
X60414759Y-140694637D01*
X60614637Y-140494759D01*
X60771680Y-140259727D01*
X60879853Y-139998574D01*
X60935000Y-139721335D01*
X60935000Y-139438665D01*
X60879853Y-139161426D01*
X60771680Y-138900273D01*
X60614637Y-138665241D01*
X60414759Y-138465363D01*
X60182241Y-138310000D01*
X60414759Y-138154637D01*
X60614637Y-137954759D01*
X60771680Y-137719727D01*
X60879853Y-137458574D01*
X60935000Y-137181335D01*
X60935000Y-136898665D01*
X60909649Y-136771220D01*
X69361427Y-128319443D01*
X69393291Y-128293293D01*
X69497636Y-128166148D01*
X69575172Y-128021089D01*
X69622918Y-127863691D01*
X69635000Y-127741021D01*
X69635000Y-127741011D01*
X69639039Y-127700003D01*
X69635000Y-127658995D01*
X69635000Y-125221018D01*
X69639040Y-125180000D01*
X69633237Y-125121086D01*
X69622918Y-125016311D01*
X69575172Y-124858913D01*
X69497636Y-124713854D01*
X69445126Y-124649870D01*
X69419439Y-124618570D01*
X69419437Y-124618568D01*
X69393291Y-124586709D01*
X69361433Y-124560564D01*
X68536286Y-123735418D01*
X68555000Y-123641335D01*
X68555000Y-123358665D01*
X68499853Y-123081426D01*
X68391680Y-122820273D01*
X68234637Y-122585241D01*
X68034759Y-122385363D01*
X67799727Y-122228320D01*
X67538574Y-122120147D01*
X67261335Y-122065000D01*
X66978665Y-122065000D01*
X66701426Y-122120147D01*
X66440273Y-122228320D01*
X66205241Y-122385363D01*
X66005363Y-122585241D01*
X65848320Y-122820273D01*
X65740147Y-123081426D01*
X65685000Y-123358665D01*
X65685000Y-123641335D01*
X65740147Y-123918574D01*
X65848320Y-124179727D01*
X66005363Y-124414759D01*
X66205241Y-124614637D01*
X66437759Y-124770000D01*
X66205241Y-124925363D01*
X66005363Y-125125241D01*
X65848320Y-125360273D01*
X65740147Y-125621426D01*
X65685000Y-125898665D01*
X65685000Y-126181335D01*
X65703714Y-126275418D01*
X58938579Y-133040554D01*
X58912535Y-133061928D01*
X58700000Y-133061928D01*
X58575518Y-133074188D01*
X58455820Y-133110498D01*
X58345506Y-133169463D01*
X58248815Y-133248815D01*
X58169463Y-133345506D01*
X58110498Y-133455820D01*
X58074188Y-133575518D01*
X58061928Y-133700000D01*
X58061928Y-135300000D01*
X58074188Y-135424482D01*
X58110498Y-135544180D01*
X58169463Y-135654494D01*
X58248815Y-135751185D01*
X58345506Y-135830537D01*
X58455820Y-135889502D01*
X58575518Y-135925812D01*
X58583961Y-135926643D01*
X58385363Y-136125241D01*
X58228320Y-136360273D01*
X58120147Y-136621426D01*
X58065000Y-136898665D01*
X58065000Y-137181335D01*
X58120147Y-137458574D01*
X58228320Y-137719727D01*
X58385363Y-137954759D01*
X58585241Y-138154637D01*
X58817759Y-138310000D01*
X58585241Y-138465363D01*
X58385363Y-138665241D01*
X58228320Y-138900273D01*
X58120147Y-139161426D01*
X58065000Y-139438665D01*
X58065000Y-139721335D01*
X58120147Y-139998574D01*
X58228320Y-140259727D01*
X58385363Y-140494759D01*
X58585241Y-140694637D01*
X58820273Y-140851680D01*
X58830865Y-140856067D01*
X58644869Y-140967615D01*
X58436481Y-141156586D01*
X58268963Y-141382580D01*
X58148754Y-141636913D01*
X58108096Y-141770961D01*
X58230084Y-141992998D01*
X58073865Y-141992998D01*
X56835000Y-140754133D01*
X56835000Y-125021007D01*
X56839039Y-124979999D01*
X56835000Y-124938991D01*
X56835000Y-124938981D01*
X56822918Y-124816311D01*
X56775172Y-124658913D01*
X56697636Y-124513854D01*
X56593291Y-124386709D01*
X56561428Y-124360560D01*
X54900868Y-122700000D01*
X58061928Y-122700000D01*
X58061928Y-124300000D01*
X58074188Y-124424482D01*
X58110498Y-124544180D01*
X58169463Y-124654494D01*
X58248815Y-124751185D01*
X58345506Y-124830537D01*
X58455820Y-124889502D01*
X58575518Y-124925812D01*
X58583961Y-124926643D01*
X58385363Y-125125241D01*
X58228320Y-125360273D01*
X58120147Y-125621426D01*
X58065000Y-125898665D01*
X58065000Y-126181335D01*
X58120147Y-126458574D01*
X58228320Y-126719727D01*
X58385363Y-126954759D01*
X58585241Y-127154637D01*
X58820273Y-127311680D01*
X59081426Y-127419853D01*
X59358665Y-127475000D01*
X59641335Y-127475000D01*
X59918574Y-127419853D01*
X60179727Y-127311680D01*
X60414759Y-127154637D01*
X60614637Y-126954759D01*
X60771680Y-126719727D01*
X60879853Y-126458574D01*
X60935000Y-126181335D01*
X60935000Y-125898665D01*
X60879853Y-125621426D01*
X60771680Y-125360273D01*
X60614637Y-125125241D01*
X60416039Y-124926643D01*
X60424482Y-124925812D01*
X60544180Y-124889502D01*
X60654494Y-124830537D01*
X60751185Y-124751185D01*
X60830537Y-124654494D01*
X60889502Y-124544180D01*
X60925812Y-124424482D01*
X60938072Y-124300000D01*
X60938072Y-122700000D01*
X60925812Y-122575518D01*
X60889502Y-122455820D01*
X60830537Y-122345506D01*
X60751185Y-122248815D01*
X60654494Y-122169463D01*
X60544180Y-122110498D01*
X60424482Y-122074188D01*
X60300000Y-122061928D01*
X58700000Y-122061928D01*
X58575518Y-122074188D01*
X58455820Y-122110498D01*
X58345506Y-122169463D01*
X58248815Y-122248815D01*
X58169463Y-122345506D01*
X58110498Y-122455820D01*
X58074188Y-122575518D01*
X58061928Y-122700000D01*
X54900868Y-122700000D01*
X54818534Y-122617667D01*
X54841943Y-122380000D01*
X54814236Y-122098691D01*
X54732182Y-121828192D01*
X54598932Y-121578899D01*
X54419608Y-121360392D01*
X54201101Y-121181068D01*
X54068142Y-121110000D01*
X54201101Y-121038932D01*
X54419608Y-120859608D01*
X54598932Y-120641101D01*
X54732182Y-120391808D01*
X54814236Y-120121309D01*
X54841943Y-119840000D01*
X54814236Y-119558691D01*
X54732182Y-119288192D01*
X54598932Y-119038899D01*
X54419608Y-118820392D01*
X54201101Y-118641068D01*
X54068142Y-118570000D01*
X54201101Y-118498932D01*
X54419608Y-118319608D01*
X54598932Y-118101101D01*
X54732182Y-117851808D01*
X54814236Y-117581309D01*
X54841943Y-117300000D01*
X54814236Y-117018691D01*
X54732182Y-116748192D01*
X54598932Y-116498899D01*
X54419608Y-116280392D01*
X54201101Y-116101068D01*
X54073259Y-116032735D01*
X54302839Y-115882601D01*
X54504500Y-115684895D01*
X54663715Y-115451646D01*
X54774367Y-115191818D01*
X54791904Y-115109039D01*
X54669915Y-114887000D01*
X53127000Y-114887000D01*
X53127000Y-114907000D01*
X52873000Y-114907000D01*
X52873000Y-114887000D01*
X51330085Y-114887000D01*
X51208096Y-115109039D01*
X51225633Y-115191818D01*
X51336285Y-115451646D01*
X51495500Y-115684895D01*
X51697161Y-115882601D01*
X51926741Y-116032735D01*
X51798899Y-116101068D01*
X51580392Y-116280392D01*
X51401068Y-116498899D01*
X51289150Y-116708282D01*
X48991829Y-114410961D01*
X51208096Y-114410961D01*
X51330085Y-114633000D01*
X52873000Y-114633000D01*
X52873000Y-113325000D01*
X53127000Y-113325000D01*
X53127000Y-114633000D01*
X54669915Y-114633000D01*
X54791904Y-114410961D01*
X54774367Y-114328182D01*
X54663715Y-114068354D01*
X54504500Y-113835105D01*
X54302839Y-113637399D01*
X54066483Y-113482834D01*
X53804514Y-113377350D01*
X53527000Y-113325000D01*
X53127000Y-113325000D01*
X52873000Y-113325000D01*
X52473000Y-113325000D01*
X52195486Y-113377350D01*
X51933517Y-113482834D01*
X51697161Y-113637399D01*
X51495500Y-113835105D01*
X51336285Y-114068354D01*
X51225633Y-114328182D01*
X51208096Y-114410961D01*
X48991829Y-114410961D01*
X46719446Y-112138579D01*
X46693291Y-112106709D01*
X46566146Y-112002364D01*
X46421087Y-111924828D01*
X46263689Y-111877082D01*
X46141019Y-111865000D01*
X46141018Y-111865000D01*
X46100000Y-111860960D01*
X46058982Y-111865000D01*
X42700358Y-111865000D01*
X42659340Y-111860960D01*
X42618322Y-111865000D01*
X42618321Y-111865000D01*
X42495651Y-111877082D01*
X42338253Y-111924828D01*
X42193194Y-112002364D01*
X42066049Y-112106709D01*
X42039903Y-112138568D01*
X39438574Y-114739899D01*
X39406710Y-114766049D01*
X39380562Y-114797911D01*
X39302364Y-114893195D01*
X39224828Y-115038254D01*
X39177082Y-115195652D01*
X39165645Y-115311774D01*
X39117114Y-115344201D01*
X38924201Y-115537114D01*
X38772629Y-115763957D01*
X38668225Y-116016011D01*
X38615000Y-116283589D01*
X38615000Y-116556411D01*
X38668225Y-116823989D01*
X38772629Y-117076043D01*
X38924201Y-117302886D01*
X39117114Y-117495799D01*
X39343957Y-117647371D01*
X39446873Y-117690000D01*
X39343957Y-117732629D01*
X39117114Y-117884201D01*
X38924201Y-118077114D01*
X38772629Y-118303957D01*
X38668225Y-118556011D01*
X38615000Y-118823589D01*
X38615000Y-119096411D01*
X38668225Y-119363989D01*
X38772629Y-119616043D01*
X38924201Y-119842886D01*
X39117114Y-120035799D01*
X39233483Y-120113555D01*
X39125518Y-120124188D01*
X39005820Y-120160498D01*
X38895506Y-120219463D01*
X38798815Y-120298815D01*
X38719463Y-120395506D01*
X38660498Y-120505820D01*
X38624188Y-120625518D01*
X38611928Y-120750000D01*
X38615000Y-121214250D01*
X38773750Y-121373000D01*
X39873000Y-121373000D01*
X39873000Y-121353000D01*
X40127000Y-121353000D01*
X40127000Y-121373000D01*
X41226250Y-121373000D01*
X41385000Y-121214250D01*
X41388072Y-120750000D01*
X41375812Y-120625518D01*
X41339502Y-120505820D01*
X41280537Y-120395506D01*
X41201185Y-120298815D01*
X41104494Y-120219463D01*
X40994180Y-120160498D01*
X40874482Y-120124188D01*
X40766517Y-120113555D01*
X40882886Y-120035799D01*
X41075799Y-119842886D01*
X41227371Y-119616043D01*
X41331775Y-119363989D01*
X41385000Y-119096411D01*
X41385000Y-118823589D01*
X41331775Y-118556011D01*
X41227371Y-118303957D01*
X41075799Y-118077114D01*
X40882886Y-117884201D01*
X40656043Y-117732629D01*
X40553127Y-117690000D01*
X40656043Y-117647371D01*
X40882886Y-117495799D01*
X41075799Y-117302886D01*
X41227371Y-117076043D01*
X41331775Y-116823989D01*
X41385000Y-116556411D01*
X41385000Y-116283589D01*
X41331775Y-116016011D01*
X41227371Y-115763957D01*
X41075799Y-115537114D01*
X41039446Y-115500761D01*
X43005209Y-113535000D01*
X44227669Y-113535000D01*
X44178899Y-113561068D01*
X43960392Y-113740392D01*
X43781068Y-113958899D01*
X43647818Y-114208192D01*
X43565764Y-114478691D01*
X43538057Y-114760000D01*
X43565764Y-115041309D01*
X43647818Y-115311808D01*
X43781068Y-115561101D01*
X43960392Y-115779608D01*
X44178899Y-115958932D01*
X44311858Y-116030000D01*
X44178899Y-116101068D01*
X43960392Y-116280392D01*
X43781068Y-116498899D01*
X43647818Y-116748192D01*
X43565764Y-117018691D01*
X43538057Y-117300000D01*
X43565764Y-117581309D01*
X43647818Y-117851808D01*
X43781068Y-118101101D01*
X43960392Y-118319608D01*
X44178899Y-118498932D01*
X44311858Y-118570000D01*
X44178899Y-118641068D01*
X43960392Y-118820392D01*
X43781068Y-119038899D01*
X43647818Y-119288192D01*
X43565764Y-119558691D01*
X43538057Y-119840000D01*
X43565764Y-120121309D01*
X43647818Y-120391808D01*
X43781068Y-120641101D01*
X43960392Y-120859608D01*
X44178899Y-121038932D01*
X44311858Y-121110000D01*
X44178899Y-121181068D01*
X43960392Y-121360392D01*
X43781068Y-121578899D01*
X43647818Y-121828192D01*
X43565764Y-122098691D01*
X43538057Y-122380000D01*
X43565764Y-122661309D01*
X43647818Y-122931808D01*
X43781068Y-123181101D01*
X43960392Y-123399608D01*
X44178899Y-123578932D01*
X44311858Y-123650000D01*
X44178899Y-123721068D01*
X43960392Y-123900392D01*
X43781068Y-124118899D01*
X43647818Y-124368192D01*
X43565764Y-124638691D01*
X43538057Y-124920000D01*
X43565764Y-125201309D01*
X43647818Y-125471808D01*
X43781068Y-125721101D01*
X43960392Y-125939608D01*
X44178899Y-126118932D01*
X44311858Y-126190000D01*
X44178899Y-126261068D01*
X43960392Y-126440392D01*
X43781068Y-126658899D01*
X43647818Y-126908192D01*
X43565764Y-127178691D01*
X43538057Y-127460000D01*
X43565764Y-127741309D01*
X43647818Y-128011808D01*
X43781068Y-128261101D01*
X43960392Y-128479608D01*
X44178899Y-128658932D01*
X44311858Y-128730000D01*
X44178899Y-128801068D01*
X43960392Y-128980392D01*
X43781068Y-129198899D01*
X43647818Y-129448192D01*
X43565764Y-129718691D01*
X43538057Y-130000000D01*
X43565764Y-130281309D01*
X43647818Y-130551808D01*
X43781068Y-130801101D01*
X43960392Y-131019608D01*
X44178899Y-131198932D01*
X44428192Y-131332182D01*
X44698691Y-131414236D01*
X44909508Y-131435000D01*
X45850492Y-131435000D01*
X46061309Y-131414236D01*
X46267417Y-131351715D01*
X44406043Y-133213089D01*
X44379853Y-133081426D01*
X44271680Y-132820273D01*
X44114637Y-132585241D01*
X43914759Y-132385363D01*
X43679727Y-132228320D01*
X43418574Y-132120147D01*
X43141335Y-132065000D01*
X42858665Y-132065000D01*
X42581426Y-132120147D01*
X42320273Y-132228320D01*
X42085241Y-132385363D01*
X41885363Y-132585241D01*
X41728320Y-132820273D01*
X41620147Y-133081426D01*
X41565000Y-133358665D01*
X41565000Y-133641335D01*
X41620147Y-133918574D01*
X41728320Y-134179727D01*
X41885363Y-134414759D01*
X42085241Y-134614637D01*
X42320273Y-134771680D01*
X42581426Y-134879853D01*
X42713089Y-134906043D01*
X38438574Y-139180559D01*
X38406710Y-139206709D01*
X38325907Y-139305168D01*
X38302364Y-139333855D01*
X38224828Y-139478914D01*
X38177082Y-139636312D01*
X38160960Y-139800000D01*
X38165001Y-139841028D01*
X38165000Y-142492070D01*
X38085241Y-142545363D01*
X37885363Y-142745241D01*
X37728320Y-142980273D01*
X37620147Y-143241426D01*
X37565000Y-143518665D01*
X35660000Y-143518665D01*
X35660000Y-133358665D01*
X37565000Y-133358665D01*
X37565000Y-133641335D01*
X37620147Y-133918574D01*
X37728320Y-134179727D01*
X37885363Y-134414759D01*
X38085241Y-134614637D01*
X38320273Y-134771680D01*
X38581426Y-134879853D01*
X38858665Y-134935000D01*
X39141335Y-134935000D01*
X39418574Y-134879853D01*
X39679727Y-134771680D01*
X39914759Y-134614637D01*
X40114637Y-134414759D01*
X40271680Y-134179727D01*
X40379853Y-133918574D01*
X40435000Y-133641335D01*
X40435000Y-133358665D01*
X40379853Y-133081426D01*
X40271680Y-132820273D01*
X40114637Y-132585241D01*
X39914759Y-132385363D01*
X39679727Y-132228320D01*
X39418574Y-132120147D01*
X39141335Y-132065000D01*
X38858665Y-132065000D01*
X38581426Y-132120147D01*
X38320273Y-132228320D01*
X38085241Y-132385363D01*
X37885363Y-132585241D01*
X37728320Y-132820273D01*
X37620147Y-133081426D01*
X37565000Y-133358665D01*
X35660000Y-133358665D01*
X35660000Y-129858665D01*
X37565000Y-129858665D01*
X37565000Y-130141335D01*
X37620147Y-130418574D01*
X37728320Y-130679727D01*
X37885363Y-130914759D01*
X38085241Y-131114637D01*
X38320273Y-131271680D01*
X38581426Y-131379853D01*
X38858665Y-131435000D01*
X39141335Y-131435000D01*
X39418574Y-131379853D01*
X39679727Y-131271680D01*
X39914759Y-131114637D01*
X40114637Y-130914759D01*
X40271680Y-130679727D01*
X40379853Y-130418574D01*
X40435000Y-130141335D01*
X40435000Y-129858665D01*
X40379853Y-129581426D01*
X40271680Y-129320273D01*
X40114637Y-129085241D01*
X39914759Y-128885363D01*
X39679727Y-128728320D01*
X39418574Y-128620147D01*
X39141335Y-128565000D01*
X38858665Y-128565000D01*
X38581426Y-128620147D01*
X38320273Y-128728320D01*
X38085241Y-128885363D01*
X37885363Y-129085241D01*
X37728320Y-129320273D01*
X37620147Y-129581426D01*
X37565000Y-129858665D01*
X35660000Y-129858665D01*
X35660000Y-125992702D01*
X38186903Y-125992702D01*
X38258486Y-126236671D01*
X38513996Y-126357571D01*
X38788184Y-126426300D01*
X39070512Y-126440217D01*
X39350130Y-126398787D01*
X39616292Y-126303603D01*
X39741514Y-126236671D01*
X39813097Y-125992702D01*
X39000000Y-125179605D01*
X38186903Y-125992702D01*
X35660000Y-125992702D01*
X35660000Y-125070512D01*
X37559783Y-125070512D01*
X37601213Y-125350130D01*
X37696397Y-125616292D01*
X37763329Y-125741514D01*
X38007298Y-125813097D01*
X38820395Y-125000000D01*
X39179605Y-125000000D01*
X39992702Y-125813097D01*
X40236671Y-125741514D01*
X40357571Y-125486004D01*
X40426300Y-125211816D01*
X40440217Y-124929488D01*
X40398787Y-124649870D01*
X40303603Y-124383708D01*
X40236671Y-124258486D01*
X39992702Y-124186903D01*
X39179605Y-125000000D01*
X38820395Y-125000000D01*
X38007298Y-124186903D01*
X37763329Y-124258486D01*
X37642429Y-124513996D01*
X37573700Y-124788184D01*
X37559783Y-125070512D01*
X35660000Y-125070512D01*
X35660000Y-124007298D01*
X38186903Y-124007298D01*
X39000000Y-124820395D01*
X39813097Y-124007298D01*
X39741514Y-123763329D01*
X39486004Y-123642429D01*
X39211816Y-123573700D01*
X38929488Y-123559783D01*
X38649870Y-123601213D01*
X38383708Y-123696397D01*
X38258486Y-123763329D01*
X38186903Y-124007298D01*
X35660000Y-124007298D01*
X35660000Y-122250000D01*
X38611928Y-122250000D01*
X38624188Y-122374482D01*
X38660498Y-122494180D01*
X38719463Y-122604494D01*
X38798815Y-122701185D01*
X38895506Y-122780537D01*
X39005820Y-122839502D01*
X39125518Y-122875812D01*
X39250000Y-122888072D01*
X39714250Y-122885000D01*
X39873000Y-122726250D01*
X39873000Y-121627000D01*
X40127000Y-121627000D01*
X40127000Y-122726250D01*
X40285750Y-122885000D01*
X40750000Y-122888072D01*
X40874482Y-122875812D01*
X40994180Y-122839502D01*
X41104494Y-122780537D01*
X41201185Y-122701185D01*
X41280537Y-122604494D01*
X41339502Y-122494180D01*
X41375812Y-122374482D01*
X41388072Y-122250000D01*
X41385000Y-121785750D01*
X41226250Y-121627000D01*
X40127000Y-121627000D01*
X39873000Y-121627000D01*
X38773750Y-121627000D01*
X38615000Y-121785750D01*
X38611928Y-122250000D01*
X35660000Y-122250000D01*
X35660000Y-111160000D01*
X87340001Y-111160000D01*
X87340000Y-174340000D01*
G37*
X87340000Y-174340000D02*
X35660000Y-174340000D01*
X35660000Y-172293589D01*
X38235000Y-172293589D01*
X38235000Y-172566411D01*
X38288225Y-172833989D01*
X38392629Y-173086043D01*
X38544201Y-173312886D01*
X38737114Y-173505799D01*
X38963957Y-173657371D01*
X39216011Y-173761775D01*
X39483589Y-173815000D01*
X39756411Y-173815000D01*
X40023989Y-173761775D01*
X40276043Y-173657371D01*
X40502886Y-173505799D01*
X40695799Y-173312886D01*
X40847371Y-173086043D01*
X40951775Y-172833989D01*
X41005000Y-172566411D01*
X41005000Y-172293589D01*
X48345000Y-172293589D01*
X48345000Y-172566411D01*
X48398225Y-172833989D01*
X48502629Y-173086043D01*
X48654201Y-173312886D01*
X48847114Y-173505799D01*
X49073957Y-173657371D01*
X49326011Y-173761775D01*
X49593589Y-173815000D01*
X49866411Y-173815000D01*
X50133989Y-173761775D01*
X50386043Y-173657371D01*
X50612886Y-173505799D01*
X50805799Y-173312886D01*
X50957371Y-173086043D01*
X51061775Y-172833989D01*
X51115000Y-172566411D01*
X51115000Y-172293589D01*
X51061775Y-172026011D01*
X50957371Y-171773957D01*
X50805799Y-171547114D01*
X50612886Y-171354201D01*
X50386043Y-171202629D01*
X50133989Y-171098225D01*
X49866411Y-171045000D01*
X49593589Y-171045000D01*
X49326011Y-171098225D01*
X49073957Y-171202629D01*
X48847114Y-171354201D01*
X48654201Y-171547114D01*
X48502629Y-171773957D01*
X48398225Y-172026011D01*
X48345000Y-172293589D01*
X41005000Y-172293589D01*
X40951775Y-172026011D01*
X40847371Y-171773957D01*
X40695799Y-171547114D01*
X40502886Y-171354201D01*
X40276043Y-171202629D01*
X40023989Y-171098225D01*
X39756411Y-171045000D01*
X39483589Y-171045000D01*
X39216011Y-171098225D01*
X38963957Y-171202629D01*
X38737114Y-171354201D01*
X38544201Y-171547114D01*
X38392629Y-171773957D01*
X38288225Y-172026011D01*
X38235000Y-172293589D01*
X35660000Y-172293589D01*
X35660000Y-170593589D01*
X40775000Y-170593589D01*
X40775000Y-170866411D01*
X40828225Y-171133989D01*
X40932629Y-171386043D01*
X41084201Y-171612886D01*
X41277114Y-171805799D01*
X41503957Y-171957371D01*
X41756011Y-172061775D01*
X42023589Y-172115000D01*
X42296411Y-172115000D01*
X42563989Y-172061775D01*
X42816043Y-171957371D01*
X43042886Y-171805799D01*
X43235799Y-171612886D01*
X43387371Y-171386043D01*
X43491775Y-171133989D01*
X43545000Y-170866411D01*
X43545000Y-170593589D01*
X43491775Y-170326011D01*
X43387371Y-170073957D01*
X43235799Y-169847114D01*
X43042886Y-169654201D01*
X42816043Y-169502629D01*
X42563989Y-169398225D01*
X42296411Y-169345000D01*
X42023589Y-169345000D01*
X41756011Y-169398225D01*
X41503957Y-169502629D01*
X41277114Y-169654201D01*
X41084201Y-169847114D01*
X40932629Y-170073957D01*
X40828225Y-170326011D01*
X40775000Y-170593589D01*
X35660000Y-170593589D01*
X35660000Y-164114344D01*
X36185000Y-164114344D01*
X36185000Y-164485656D01*
X36257439Y-164849834D01*
X36399534Y-165192882D01*
X36605825Y-165501618D01*
X36868382Y-165764175D01*
X37177118Y-165970466D01*
X37520166Y-166112561D01*
X37884344Y-166185000D01*
X38255656Y-166185000D01*
X38295667Y-166177041D01*
X38227214Y-166279489D01*
X38056851Y-166690782D01*
X37970000Y-167127409D01*
X37970000Y-167572591D01*
X38056851Y-168009218D01*
X38227214Y-168420511D01*
X38474544Y-168790666D01*
X38789334Y-169105456D01*
X39159489Y-169352786D01*
X39570782Y-169523149D01*
X40007409Y-169610000D01*
X40452591Y-169610000D01*
X40889218Y-169523149D01*
X41300511Y-169352786D01*
X41670666Y-169105456D01*
X41985456Y-168790666D01*
X42232786Y-168420511D01*
X42403149Y-168009218D01*
X42490000Y-167572591D01*
X42490000Y-167127409D01*
X49400000Y-167127409D01*
X49400000Y-167572591D01*
X49486851Y-168009218D01*
X49657214Y-168420511D01*
X49904544Y-168790666D01*
X50219334Y-169105456D01*
X50589489Y-169352786D01*
X51000782Y-169523149D01*
X51437409Y-169610000D01*
X51453265Y-169610000D01*
X51387114Y-169654201D01*
X51194201Y-169847114D01*
X51042629Y-170073957D01*
X50938225Y-170326011D01*
X50885000Y-170593589D01*
X50885000Y-170866411D01*
X50938225Y-171133989D01*
X51042629Y-171386043D01*
X51194201Y-171612886D01*
X51387114Y-171805799D01*
X51613957Y-171957371D01*
X51866011Y-172061775D01*
X52133589Y-172115000D01*
X52406411Y-172115000D01*
X52673989Y-172061775D01*
X52926043Y-171957371D01*
X53152886Y-171805799D01*
X53345799Y-171612886D01*
X53497371Y-171386043D01*
X53601775Y-171133989D01*
X53655000Y-170866411D01*
X53655000Y-170593589D01*
X53601775Y-170326011D01*
X53497371Y-170073957D01*
X53345799Y-169847114D01*
X53152886Y-169654201D01*
X52926043Y-169502629D01*
X52673989Y-169398225D01*
X52638064Y-169391079D01*
X52730511Y-169352786D01*
X53100666Y-169105456D01*
X53415456Y-168790666D01*
X53662786Y-168420511D01*
X53833149Y-168009218D01*
X53920000Y-167572591D01*
X53920000Y-167127409D01*
X53833149Y-166690782D01*
X53662786Y-166279489D01*
X53594333Y-166177041D01*
X53634344Y-166185000D01*
X54005656Y-166185000D01*
X54369834Y-166112561D01*
X54712882Y-165970466D01*
X55021618Y-165764175D01*
X55284175Y-165501618D01*
X55490466Y-165192882D01*
X55632561Y-164849834D01*
X55705000Y-164485656D01*
X55705000Y-164114344D01*
X55632561Y-163750166D01*
X55490466Y-163407118D01*
X55284175Y-163098382D01*
X55021618Y-162835825D01*
X54712882Y-162629534D01*
X54369834Y-162487439D01*
X54005656Y-162415000D01*
X53634344Y-162415000D01*
X53270166Y-162487439D01*
X52927118Y-162629534D01*
X52618382Y-162835825D01*
X52355825Y-163098382D01*
X52149534Y-163407118D01*
X52007439Y-163750166D01*
X51935000Y-164114344D01*
X51935000Y-164485656D01*
X52007439Y-164849834D01*
X52127061Y-165138628D01*
X51882591Y-165090000D01*
X51437409Y-165090000D01*
X51000782Y-165176851D01*
X50589489Y-165347214D01*
X50219334Y-165594544D01*
X49904544Y-165909334D01*
X49657214Y-166279489D01*
X49486851Y-166690782D01*
X49400000Y-167127409D01*
X42490000Y-167127409D01*
X42403149Y-166690782D01*
X42232786Y-166279489D01*
X41985456Y-165909334D01*
X41670666Y-165594544D01*
X41300511Y-165347214D01*
X40889218Y-165176851D01*
X40452591Y-165090000D01*
X40007409Y-165090000D01*
X39762939Y-165138628D01*
X39882561Y-164849834D01*
X39955000Y-164485656D01*
X39955000Y-164114344D01*
X39882561Y-163750166D01*
X39740466Y-163407118D01*
X39534175Y-163098382D01*
X39271618Y-162835825D01*
X38962882Y-162629534D01*
X38619834Y-162487439D01*
X38255656Y-162415000D01*
X37884344Y-162415000D01*
X37520166Y-162487439D01*
X37177118Y-162629534D01*
X36868382Y-162835825D01*
X36605825Y-163098382D01*
X36399534Y-163407118D01*
X36257439Y-163750166D01*
X36185000Y-164114344D01*
X35660000Y-164114344D01*
X35660000Y-160500500D01*
X40111928Y-160500500D01*
X40111928Y-161499500D01*
X40129002Y-161672852D01*
X40179567Y-161839542D01*
X40261679Y-161993164D01*
X40372185Y-162127815D01*
X40506836Y-162238321D01*
X40660458Y-162320433D01*
X40827148Y-162370998D01*
X41000500Y-162388072D01*
X41999500Y-162388072D01*
X42172852Y-162370998D01*
X42339542Y-162320433D01*
X42493164Y-162238321D01*
X42627815Y-162127815D01*
X42738321Y-161993164D01*
X42757654Y-161956993D01*
X43262612Y-161956993D01*
X43328137Y-162195860D01*
X43575116Y-162311760D01*
X43839960Y-162377250D01*
X44112492Y-162389812D01*
X44382238Y-162348965D01*
X44638832Y-162256277D01*
X44751863Y-162195860D01*
X44817388Y-161956993D01*
X45802612Y-161956993D01*
X45868137Y-162195860D01*
X46115116Y-162311760D01*
X46379960Y-162377250D01*
X46652492Y-162389812D01*
X46922238Y-162348965D01*
X47178832Y-162256277D01*
X47291863Y-162195860D01*
X47357388Y-161956993D01*
X48342612Y-161956993D01*
X48408137Y-162195860D01*
X48655116Y-162311760D01*
X48919960Y-162377250D01*
X49192492Y-162389812D01*
X49462238Y-162348965D01*
X49718832Y-162256277D01*
X49831863Y-162195860D01*
X49897388Y-161956993D01*
X49120000Y-161179605D01*
X48342612Y-161956993D01*
X47357388Y-161956993D01*
X46580000Y-161179605D01*
X45802612Y-161956993D01*
X44817388Y-161956993D01*
X44040000Y-161179605D01*
X43262612Y-161956993D01*
X42757654Y-161956993D01*
X42820433Y-161839542D01*
X42858010Y-161715668D01*
X43083007Y-161777388D01*
X43860395Y-161000000D01*
X44219605Y-161000000D01*
X44996993Y-161777388D01*
X45235860Y-161711863D01*
X45308578Y-161556904D01*
X45323723Y-161598832D01*
X45384140Y-161711863D01*
X45623007Y-161777388D01*
X46400395Y-161000000D01*
X46759605Y-161000000D01*
X47536993Y-161777388D01*
X47775860Y-161711863D01*
X47848578Y-161556904D01*
X47863723Y-161598832D01*
X47924140Y-161711863D01*
X48163007Y-161777388D01*
X48940395Y-161000000D01*
X49299605Y-161000000D01*
X50076993Y-161777388D01*
X50315860Y-161711863D01*
X50431760Y-161464884D01*
X50497250Y-161200040D01*
X50509812Y-160927508D01*
X50468965Y-160657762D01*
X50376277Y-160401168D01*
X50315860Y-160288137D01*
X50076993Y-160222612D01*
X49299605Y-161000000D01*
X48940395Y-161000000D01*
X48163007Y-160222612D01*
X47924140Y-160288137D01*
X47851422Y-160443096D01*
X47836277Y-160401168D01*
X47775860Y-160288137D01*
X47536993Y-160222612D01*
X46759605Y-161000000D01*
X46400395Y-161000000D01*
X45623007Y-160222612D01*
X45384140Y-160288137D01*
X45311422Y-160443096D01*
X45296277Y-160401168D01*
X45235860Y-160288137D01*
X44996993Y-160222612D01*
X44219605Y-161000000D01*
X43860395Y-161000000D01*
X43083007Y-160222612D01*
X42858010Y-160284332D01*
X42820433Y-160160458D01*
X42757655Y-160043007D01*
X43262612Y-160043007D01*
X44040000Y-160820395D01*
X44817388Y-160043007D01*
X45802612Y-160043007D01*
X46580000Y-160820395D01*
X47357388Y-160043007D01*
X48342612Y-160043007D01*
X49120000Y-160820395D01*
X49897388Y-160043007D01*
X49831863Y-159804140D01*
X49584884Y-159688240D01*
X49320040Y-159622750D01*
X49047508Y-159610188D01*
X48777762Y-159651035D01*
X48521168Y-159743723D01*
X48408137Y-159804140D01*
X48342612Y-160043007D01*
X47357388Y-160043007D01*
X47291863Y-159804140D01*
X47044884Y-159688240D01*
X46780040Y-159622750D01*
X46507508Y-159610188D01*
X46237762Y-159651035D01*
X45981168Y-159743723D01*
X45868137Y-159804140D01*
X45802612Y-160043007D01*
X44817388Y-160043007D01*
X44751863Y-159804140D01*
X44504884Y-159688240D01*
X44240040Y-159622750D01*
X43967508Y-159610188D01*
X43697762Y-159651035D01*
X43441168Y-159743723D01*
X43328137Y-159804140D01*
X43262612Y-160043007D01*
X42757655Y-160043007D01*
X42738321Y-160006836D01*
X42627815Y-159872185D01*
X42582246Y-159834787D01*
X42633589Y-159845000D01*
X42906411Y-159845000D01*
X43173989Y-159791775D01*
X43426043Y-159687371D01*
X43652886Y-159535799D01*
X43771692Y-159416993D01*
X44532612Y-159416993D01*
X44598137Y-159655860D01*
X44845116Y-159771760D01*
X45109960Y-159837250D01*
X45382492Y-159849812D01*
X45652238Y-159808965D01*
X45908832Y-159716277D01*
X46021863Y-159655860D01*
X46087388Y-159416993D01*
X47072612Y-159416993D01*
X47138137Y-159655860D01*
X47385116Y-159771760D01*
X47649960Y-159837250D01*
X47922492Y-159849812D01*
X48192238Y-159808965D01*
X48448832Y-159716277D01*
X48561863Y-159655860D01*
X48627388Y-159416993D01*
X49612612Y-159416993D01*
X49678137Y-159655860D01*
X49925116Y-159771760D01*
X50189960Y-159837250D01*
X50462492Y-159849812D01*
X50732238Y-159808965D01*
X50988832Y-159716277D01*
X51101863Y-159655860D01*
X51167388Y-159416993D01*
X50390000Y-158639605D01*
X49612612Y-159416993D01*
X48627388Y-159416993D01*
X47850000Y-158639605D01*
X47072612Y-159416993D01*
X46087388Y-159416993D01*
X45310000Y-158639605D01*
X44532612Y-159416993D01*
X43771692Y-159416993D01*
X43845799Y-159342886D01*
X43997371Y-159116043D01*
X44038511Y-159016721D01*
X44053723Y-159058832D01*
X44114140Y-159171863D01*
X44353007Y-159237388D01*
X45130395Y-158460000D01*
X45489605Y-158460000D01*
X46266993Y-159237388D01*
X46505860Y-159171863D01*
X46578578Y-159016904D01*
X46593723Y-159058832D01*
X46654140Y-159171863D01*
X46893007Y-159237388D01*
X47670395Y-158460000D01*
X48029605Y-158460000D01*
X48806993Y-159237388D01*
X49045860Y-159171863D01*
X49118578Y-159016904D01*
X49133723Y-159058832D01*
X49194140Y-159171863D01*
X49433007Y-159237388D01*
X50210395Y-158460000D01*
X50569605Y-158460000D01*
X51346993Y-159237388D01*
X51585860Y-159171863D01*
X51701760Y-158924884D01*
X51767250Y-158660040D01*
X51779812Y-158387508D01*
X51738965Y-158117762D01*
X51646277Y-157861168D01*
X51585860Y-157748137D01*
X51346993Y-157682612D01*
X50569605Y-158460000D01*
X50210395Y-158460000D01*
X49433007Y-157682612D01*
X49194140Y-157748137D01*
X49121422Y-157903096D01*
X49106277Y-157861168D01*
X49045860Y-157748137D01*
X48806993Y-157682612D01*
X48029605Y-158460000D01*
X47670395Y-158460000D01*
X46893007Y-157682612D01*
X46654140Y-157748137D01*
X46581422Y-157903096D01*
X46566277Y-157861168D01*
X46505860Y-157748137D01*
X46266993Y-157682612D01*
X45489605Y-158460000D01*
X45130395Y-158460000D01*
X44353007Y-157682612D01*
X44114140Y-157748137D01*
X44039836Y-157906477D01*
X43997371Y-157803957D01*
X43845799Y-157577114D01*
X43771692Y-157503007D01*
X44532612Y-157503007D01*
X45310000Y-158280395D01*
X46087388Y-157503007D01*
X47072612Y-157503007D01*
X47850000Y-158280395D01*
X48627388Y-157503007D01*
X49612612Y-157503007D01*
X50390000Y-158280395D01*
X51167388Y-157503007D01*
X51101863Y-157264140D01*
X50854884Y-157148240D01*
X50590040Y-157082750D01*
X50317508Y-157070188D01*
X50047762Y-157111035D01*
X49791168Y-157203723D01*
X49678137Y-157264140D01*
X49612612Y-157503007D01*
X48627388Y-157503007D01*
X48561863Y-157264140D01*
X48314884Y-157148240D01*
X48050040Y-157082750D01*
X47777508Y-157070188D01*
X47507762Y-157111035D01*
X47251168Y-157203723D01*
X47138137Y-157264140D01*
X47072612Y-157503007D01*
X46087388Y-157503007D01*
X46021863Y-157264140D01*
X45774884Y-157148240D01*
X45510040Y-157082750D01*
X45237508Y-157070188D01*
X44967762Y-157111035D01*
X44711168Y-157203723D01*
X44598137Y-157264140D01*
X44532612Y-157503007D01*
X43771692Y-157503007D01*
X43652886Y-157384201D01*
X43426043Y-157232629D01*
X43173989Y-157128225D01*
X42906411Y-157075000D01*
X42633589Y-157075000D01*
X42366011Y-157128225D01*
X42113957Y-157232629D01*
X41887114Y-157384201D01*
X41694201Y-157577114D01*
X41542629Y-157803957D01*
X41438225Y-158056011D01*
X41385000Y-158323589D01*
X41385000Y-158596411D01*
X41438225Y-158863989D01*
X41542629Y-159116043D01*
X41694201Y-159342886D01*
X41887114Y-159535799D01*
X42001317Y-159612107D01*
X41999500Y-159611928D01*
X41000500Y-159611928D01*
X40827148Y-159629002D01*
X40660458Y-159679567D01*
X40506836Y-159761679D01*
X40372185Y-159872185D01*
X40261679Y-160006836D01*
X40179567Y-160160458D01*
X40129002Y-160327148D01*
X40111928Y-160500500D01*
X35660000Y-160500500D01*
X35660000Y-148200000D01*
X41561928Y-148200000D01*
X41561928Y-149800000D01*
X41574188Y-149924482D01*
X41610498Y-150044180D01*
X41669463Y-150154494D01*
X41748815Y-150251185D01*
X41845506Y-150330537D01*
X41955820Y-150389502D01*
X42075518Y-150425812D01*
X42083961Y-150426643D01*
X41885363Y-150625241D01*
X41728320Y-150860273D01*
X41620147Y-151121426D01*
X41565000Y-151398665D01*
X41565000Y-151681335D01*
X41620147Y-151958574D01*
X41728320Y-152219727D01*
X41885363Y-152454759D01*
X42085241Y-152654637D01*
X42320273Y-152811680D01*
X42581426Y-152919853D01*
X42858665Y-152975000D01*
X43141335Y-152975000D01*
X43418574Y-152919853D01*
X43679727Y-152811680D01*
X43914759Y-152654637D01*
X44114637Y-152454759D01*
X44271680Y-152219727D01*
X44379853Y-151958574D01*
X44435000Y-151681335D01*
X44435000Y-151398665D01*
X44379853Y-151121426D01*
X44271680Y-150860273D01*
X44114637Y-150625241D01*
X43916039Y-150426643D01*
X43924482Y-150425812D01*
X44044180Y-150389502D01*
X44154494Y-150330537D01*
X44251185Y-150251185D01*
X44330537Y-150154494D01*
X44389502Y-150044180D01*
X44425812Y-149924482D01*
X44438072Y-149800000D01*
X44438072Y-148200000D01*
X44425812Y-148075518D01*
X44389502Y-147955820D01*
X44330537Y-147845506D01*
X44251185Y-147748815D01*
X44154494Y-147669463D01*
X44044180Y-147610498D01*
X43924482Y-147574188D01*
X43800000Y-147561928D01*
X42200000Y-147561928D01*
X42075518Y-147574188D01*
X41955820Y-147610498D01*
X41845506Y-147669463D01*
X41748815Y-147748815D01*
X41669463Y-147845506D01*
X41610498Y-147955820D01*
X41574188Y-148075518D01*
X41561928Y-148200000D01*
X35660000Y-148200000D01*
X35660000Y-143518665D01*
X37565000Y-143518665D01*
X37565000Y-143801335D01*
X37620147Y-144078574D01*
X37728320Y-144339727D01*
X37885363Y-144574759D01*
X38085241Y-144774637D01*
X38320273Y-144931680D01*
X38581426Y-145039853D01*
X38858665Y-145095000D01*
X39141335Y-145095000D01*
X39418574Y-145039853D01*
X39679727Y-144931680D01*
X39914759Y-144774637D01*
X40114637Y-144574759D01*
X40271680Y-144339727D01*
X40379853Y-144078574D01*
X40435000Y-143801335D01*
X40435000Y-143518665D01*
X40379853Y-143241426D01*
X40271680Y-142980273D01*
X40114637Y-142745241D01*
X39914759Y-142545363D01*
X39835000Y-142492070D01*
X39835000Y-140145867D01*
X42165001Y-137815867D01*
X42165000Y-142492070D01*
X42085241Y-142545363D01*
X41885363Y-142745241D01*
X41728320Y-142980273D01*
X41620147Y-143241426D01*
X41565000Y-143518665D01*
X41565000Y-143801335D01*
X41620147Y-144078574D01*
X41728320Y-144339727D01*
X41885363Y-144574759D01*
X42085241Y-144774637D01*
X42320273Y-144931680D01*
X42581426Y-145039853D01*
X42858665Y-145095000D01*
X43141335Y-145095000D01*
X43418574Y-145039853D01*
X43679727Y-144931680D01*
X43914759Y-144774637D01*
X44114637Y-144574759D01*
X44271680Y-144339727D01*
X44379853Y-144078574D01*
X44435000Y-143801335D01*
X44435000Y-143518665D01*
X47565000Y-143518665D01*
X47565000Y-143801335D01*
X47620147Y-144078574D01*
X47728320Y-144339727D01*
X47885363Y-144574759D01*
X48065001Y-144754397D01*
X48065000Y-149778981D01*
X48060960Y-149820000D01*
X48065000Y-149861018D01*
X48077082Y-149983688D01*
X48124828Y-150141086D01*
X48202364Y-150286145D01*
X48306709Y-150413291D01*
X48338579Y-150439446D01*
X49203715Y-151304582D01*
X49185000Y-151398665D01*
X49185000Y-151681335D01*
X49240147Y-151958574D01*
X49348320Y-152219727D01*
X49505363Y-152454759D01*
X49705241Y-152654637D01*
X49940273Y-152811680D01*
X50201426Y-152919853D01*
X50478665Y-152975000D01*
X50761335Y-152975000D01*
X51038574Y-152919853D01*
X51299727Y-152811680D01*
X51534759Y-152654637D01*
X51734637Y-152454759D01*
X51891680Y-152219727D01*
X51999853Y-151958574D01*
X52055000Y-151681335D01*
X52055000Y-151398665D01*
X51999853Y-151121426D01*
X51891680Y-150860273D01*
X51734637Y-150625241D01*
X51534759Y-150425363D01*
X51302241Y-150270000D01*
X51534759Y-150114637D01*
X51734637Y-149914759D01*
X51891680Y-149679727D01*
X51999853Y-149418574D01*
X52055000Y-149141335D01*
X52055000Y-148858665D01*
X51999853Y-148581426D01*
X51891680Y-148320273D01*
X51734637Y-148085241D01*
X51534759Y-147885363D01*
X51299727Y-147728320D01*
X51038574Y-147620147D01*
X50761335Y-147565000D01*
X50478665Y-147565000D01*
X50201426Y-147620147D01*
X49940273Y-147728320D01*
X49735000Y-147865479D01*
X49735000Y-144894748D01*
X49914759Y-144774637D01*
X50114637Y-144574759D01*
X50271680Y-144339727D01*
X50379853Y-144078574D01*
X50435000Y-143801335D01*
X50435000Y-143518665D01*
X51565000Y-143518665D01*
X51565000Y-143801335D01*
X51620147Y-144078574D01*
X51728320Y-144339727D01*
X51885363Y-144574759D01*
X52085241Y-144774637D01*
X52320273Y-144931680D01*
X52581426Y-145039853D01*
X52858665Y-145095000D01*
X53141335Y-145095000D01*
X53418574Y-145039853D01*
X53679727Y-144931680D01*
X53914759Y-144774637D01*
X54114637Y-144574759D01*
X54271680Y-144339727D01*
X54379853Y-144078574D01*
X54435000Y-143801335D01*
X54435000Y-143518665D01*
X54379853Y-143241426D01*
X54271680Y-142980273D01*
X54114637Y-142745241D01*
X53914759Y-142545363D01*
X53679727Y-142388320D01*
X53418574Y-142280147D01*
X53141335Y-142225000D01*
X52858665Y-142225000D01*
X52581426Y-142280147D01*
X52320273Y-142388320D01*
X52085241Y-142545363D01*
X51885363Y-142745241D01*
X51728320Y-142980273D01*
X51620147Y-143241426D01*
X51565000Y-143518665D01*
X50435000Y-143518665D01*
X50379853Y-143241426D01*
X50271680Y-142980273D01*
X50114637Y-142745241D01*
X49914759Y-142545363D01*
X49679727Y-142388320D01*
X49418574Y-142280147D01*
X49141335Y-142225000D01*
X48858665Y-142225000D01*
X48581426Y-142280147D01*
X48320273Y-142388320D01*
X48085241Y-142545363D01*
X47885363Y-142745241D01*
X47728320Y-142980273D01*
X47620147Y-143241426D01*
X47565000Y-143518665D01*
X44435000Y-143518665D01*
X44379853Y-143241426D01*
X44271680Y-142980273D01*
X44114637Y-142745241D01*
X43914759Y-142545363D01*
X43835000Y-142492070D01*
X43835000Y-137445867D01*
X47577366Y-133703503D01*
X47620147Y-133918574D01*
X47728320Y-134179727D01*
X47885363Y-134414759D01*
X48085241Y-134614637D01*
X48320273Y-134771680D01*
X48581426Y-134879853D01*
X48858665Y-134935000D01*
X49141335Y-134935000D01*
X49418574Y-134879853D01*
X49679727Y-134771680D01*
X49914759Y-134614637D01*
X50114637Y-134414759D01*
X50271680Y-134179727D01*
X50379853Y-133918574D01*
X50435000Y-133641335D01*
X50435000Y-133358665D01*
X51565000Y-133358665D01*
X51565000Y-133641335D01*
X51620147Y-133918574D01*
X51728320Y-134179727D01*
X51885363Y-134414759D01*
X52085241Y-134614637D01*
X52320273Y-134771680D01*
X52581426Y-134879853D01*
X52858665Y-134935000D01*
X53141335Y-134935000D01*
X53418574Y-134879853D01*
X53679727Y-134771680D01*
X53914759Y-134614637D01*
X54114637Y-134414759D01*
X54271680Y-134179727D01*
X54379853Y-133918574D01*
X54435000Y-133641335D01*
X54435000Y-133358665D01*
X54379853Y-133081426D01*
X54271680Y-132820273D01*
X54114637Y-132585241D01*
X53914759Y-132385363D01*
X53679727Y-132228320D01*
X53418574Y-132120147D01*
X53141335Y-132065000D01*
X52858665Y-132065000D01*
X52581426Y-132120147D01*
X52320273Y-132228320D01*
X52085241Y-132385363D01*
X51885363Y-132585241D01*
X51728320Y-132820273D01*
X51620147Y-133081426D01*
X51565000Y-133358665D01*
X50435000Y-133358665D01*
X50379853Y-133081426D01*
X50271680Y-132820273D01*
X50114637Y-132585241D01*
X49914759Y-132385363D01*
X49679727Y-132228320D01*
X49418574Y-132120147D01*
X49203501Y-132077366D01*
X50445868Y-130835000D01*
X51165375Y-130835000D01*
X51174188Y-130924482D01*
X51210498Y-131044180D01*
X51269463Y-131154494D01*
X51348815Y-131251185D01*
X51445506Y-131330537D01*
X51555820Y-131389502D01*
X51675518Y-131425812D01*
X51800000Y-131438072D01*
X54200000Y-131438072D01*
X54324482Y-131425812D01*
X54444180Y-131389502D01*
X54554494Y-131330537D01*
X54651185Y-131251185D01*
X54730537Y-131154494D01*
X54789502Y-131044180D01*
X54825812Y-130924482D01*
X54838072Y-130800000D01*
X54838072Y-129200000D01*
X54825812Y-129075518D01*
X54789502Y-128955820D01*
X54730537Y-128845506D01*
X54651185Y-128748815D01*
X54554494Y-128669463D01*
X54444180Y-128610498D01*
X54324482Y-128574188D01*
X54306518Y-128572419D01*
X54419608Y-128479608D01*
X54598932Y-128261101D01*
X54732182Y-128011808D01*
X54814236Y-127741309D01*
X54841943Y-127460000D01*
X54814236Y-127178691D01*
X54732182Y-126908192D01*
X54598932Y-126658899D01*
X54419608Y-126440392D01*
X54201101Y-126261068D01*
X54068142Y-126190000D01*
X54201101Y-126118932D01*
X54419608Y-125939608D01*
X54598932Y-125721101D01*
X54732182Y-125471808D01*
X54814236Y-125201309D01*
X54834518Y-124995386D01*
X55165000Y-125325868D01*
X55165001Y-141058971D01*
X55160960Y-141100000D01*
X55177082Y-141263688D01*
X55224828Y-141421086D01*
X55224829Y-141421087D01*
X55302365Y-141566146D01*
X55406710Y-141693291D01*
X55438574Y-141719441D01*
X58093669Y-144374537D01*
X58065000Y-144518665D01*
X58065000Y-144801335D01*
X58120147Y-145078574D01*
X58228320Y-145339727D01*
X58385363Y-145574759D01*
X58585241Y-145774637D01*
X58817759Y-145930000D01*
X58585241Y-146085363D01*
X58385363Y-146285241D01*
X58228320Y-146520273D01*
X58120147Y-146781426D01*
X58065000Y-147058665D01*
X58065000Y-147341335D01*
X58120147Y-147618574D01*
X58228320Y-147879727D01*
X58385363Y-148114759D01*
X58585241Y-148314637D01*
X58817759Y-148470000D01*
X58585241Y-148625363D01*
X58385363Y-148825241D01*
X58228320Y-149060273D01*
X58120147Y-149321426D01*
X58065000Y-149598665D01*
X58065000Y-149881335D01*
X58120147Y-150158574D01*
X58228320Y-150419727D01*
X58385363Y-150654759D01*
X58585241Y-150854637D01*
X58817759Y-151010000D01*
X58585241Y-151165363D01*
X58385363Y-151365241D01*
X58228320Y-151600273D01*
X58120147Y-151861426D01*
X58065000Y-152138665D01*
X58065000Y-152421335D01*
X58120147Y-152698574D01*
X58228320Y-152959727D01*
X58385363Y-153194759D01*
X58585241Y-153394637D01*
X58817759Y-153550000D01*
X58585241Y-153705363D01*
X58385363Y-153905241D01*
X58228320Y-154140273D01*
X58120147Y-154401426D01*
X58065000Y-154678665D01*
X58065000Y-154961335D01*
X58120147Y-155238574D01*
X58228320Y-155499727D01*
X58385363Y-155734759D01*
X58585241Y-155934637D01*
X58817759Y-156090000D01*
X58585241Y-156245363D01*
X58385363Y-156445241D01*
X58228320Y-156680273D01*
X58120147Y-156941426D01*
X58065000Y-157218665D01*
X58065000Y-157501335D01*
X58120147Y-157778574D01*
X58228320Y-158039727D01*
X58385363Y-158274759D01*
X58585241Y-158474637D01*
X58817759Y-158630000D01*
X58585241Y-158785363D01*
X58385363Y-158985241D01*
X58228320Y-159220273D01*
X58120147Y-159481426D01*
X58065000Y-159758665D01*
X58065000Y-160041335D01*
X58120147Y-160318574D01*
X58228320Y-160579727D01*
X58385363Y-160814759D01*
X58585241Y-161014637D01*
X58817759Y-161170000D01*
X58585241Y-161325363D01*
X58385363Y-161525241D01*
X58228320Y-161760273D01*
X58120147Y-162021426D01*
X58065000Y-162298665D01*
X58065000Y-162581335D01*
X58120147Y-162858574D01*
X58228320Y-163119727D01*
X58385363Y-163354759D01*
X58585241Y-163554637D01*
X58817759Y-163710000D01*
X58585241Y-163865363D01*
X58385363Y-164065241D01*
X58228320Y-164300273D01*
X58120147Y-164561426D01*
X58065000Y-164838665D01*
X58065000Y-165121335D01*
X58120147Y-165398574D01*
X58228320Y-165659727D01*
X58385363Y-165894759D01*
X58585241Y-166094637D01*
X58817759Y-166250000D01*
X58585241Y-166405363D01*
X58385363Y-166605241D01*
X58228320Y-166840273D01*
X58120147Y-167101426D01*
X58065000Y-167378665D01*
X58065000Y-167661335D01*
X58120147Y-167938574D01*
X58228320Y-168199727D01*
X58385363Y-168434759D01*
X58585241Y-168634637D01*
X58817759Y-168790000D01*
X58585241Y-168945363D01*
X58385363Y-169145241D01*
X58228320Y-169380273D01*
X58120147Y-169641426D01*
X58065000Y-169918665D01*
X58065000Y-170201335D01*
X58120147Y-170478574D01*
X58228320Y-170739727D01*
X58385363Y-170974759D01*
X58585241Y-171174637D01*
X58820273Y-171331680D01*
X59081426Y-171439853D01*
X59358665Y-171495000D01*
X59641335Y-171495000D01*
X59918574Y-171439853D01*
X60179727Y-171331680D01*
X60414759Y-171174637D01*
X60614637Y-170974759D01*
X60771680Y-170739727D01*
X60879853Y-170478574D01*
X60935000Y-170201335D01*
X60935000Y-169918665D01*
X60916285Y-169824582D01*
X67961428Y-162779440D01*
X67993291Y-162753291D01*
X68097636Y-162626146D01*
X68175172Y-162481087D01*
X68222918Y-162323689D01*
X68235000Y-162201019D01*
X68235000Y-162201018D01*
X68239040Y-162160001D01*
X68235000Y-162118982D01*
X68235000Y-139438665D01*
X73305000Y-139438665D01*
X73305000Y-139721335D01*
X73360147Y-139998574D01*
X73468320Y-140259727D01*
X73625363Y-140494759D01*
X73825241Y-140694637D01*
X74057759Y-140850000D01*
X73825241Y-141005363D01*
X73625363Y-141205241D01*
X73468320Y-141440273D01*
X73360147Y-141701426D01*
X73305000Y-141978665D01*
X73305000Y-142261335D01*
X73360147Y-142538574D01*
X73468320Y-142799727D01*
X73625363Y-143034759D01*
X73825241Y-143234637D01*
X74057759Y-143390000D01*
X73825241Y-143545363D01*
X73625363Y-143745241D01*
X73468320Y-143980273D01*
X73360147Y-144241426D01*
X73305000Y-144518665D01*
X73305000Y-144801335D01*
X73360147Y-145078574D01*
X73468320Y-145339727D01*
X73625363Y-145574759D01*
X73825241Y-145774637D01*
X74057759Y-145930000D01*
X73825241Y-146085363D01*
X73625363Y-146285241D01*
X73468320Y-146520273D01*
X73360147Y-146781426D01*
X73305000Y-147058665D01*
X73305000Y-147341335D01*
X73360147Y-147618574D01*
X73468320Y-147879727D01*
X73625363Y-148114759D01*
X73825241Y-148314637D01*
X74057759Y-148470000D01*
X73825241Y-148625363D01*
X73625363Y-148825241D01*
X73468320Y-149060273D01*
X73360147Y-149321426D01*
X73305000Y-149598665D01*
X73305000Y-149881335D01*
X73360147Y-150158574D01*
X73468320Y-150419727D01*
X73625363Y-150654759D01*
X73825241Y-150854637D01*
X74057759Y-151010000D01*
X73825241Y-151165363D01*
X73625363Y-151365241D01*
X73468320Y-151600273D01*
X73360147Y-151861426D01*
X73305000Y-152138665D01*
X73305000Y-152421335D01*
X73360147Y-152698574D01*
X73468320Y-152959727D01*
X73625363Y-153194759D01*
X73825241Y-153394637D01*
X74057759Y-153550000D01*
X73825241Y-153705363D01*
X73625363Y-153905241D01*
X73468320Y-154140273D01*
X73360147Y-154401426D01*
X73305000Y-154678665D01*
X73305000Y-154961335D01*
X73360147Y-155238574D01*
X73468320Y-155499727D01*
X73625363Y-155734759D01*
X73825241Y-155934637D01*
X74057759Y-156090000D01*
X73825241Y-156245363D01*
X73625363Y-156445241D01*
X73468320Y-156680273D01*
X73360147Y-156941426D01*
X73305000Y-157218665D01*
X73305000Y-157501335D01*
X73360147Y-157778574D01*
X73468320Y-158039727D01*
X73625363Y-158274759D01*
X73825241Y-158474637D01*
X74057759Y-158630000D01*
X73825241Y-158785363D01*
X73625363Y-158985241D01*
X73468320Y-159220273D01*
X73360147Y-159481426D01*
X73305000Y-159758665D01*
X73305000Y-160041335D01*
X73360147Y-160318574D01*
X73468320Y-160579727D01*
X73625363Y-160814759D01*
X73825241Y-161014637D01*
X74057759Y-161170000D01*
X73825241Y-161325363D01*
X73625363Y-161525241D01*
X73468320Y-161760273D01*
X73360147Y-162021426D01*
X73305000Y-162298665D01*
X73305000Y-162581335D01*
X73360147Y-162858574D01*
X73468320Y-163119727D01*
X73625363Y-163354759D01*
X73825241Y-163554637D01*
X74057759Y-163710000D01*
X73825241Y-163865363D01*
X73625363Y-164065241D01*
X73468320Y-164300273D01*
X73360147Y-164561426D01*
X73305000Y-164838665D01*
X73305000Y-165121335D01*
X73360147Y-165398574D01*
X73468320Y-165659727D01*
X73625363Y-165894759D01*
X73825241Y-166094637D01*
X74057759Y-166250000D01*
X73825241Y-166405363D01*
X73625363Y-166605241D01*
X73468320Y-166840273D01*
X73360147Y-167101426D01*
X73305000Y-167378665D01*
X73305000Y-167661335D01*
X73360147Y-167938574D01*
X73468320Y-168199727D01*
X73625363Y-168434759D01*
X73825241Y-168634637D01*
X74057759Y-168790000D01*
X73825241Y-168945363D01*
X73625363Y-169145241D01*
X73468320Y-169380273D01*
X73360147Y-169641426D01*
X73305000Y-169918665D01*
X73305000Y-170201335D01*
X73360147Y-170478574D01*
X73468320Y-170739727D01*
X73625363Y-170974759D01*
X73825241Y-171174637D01*
X74060273Y-171331680D01*
X74321426Y-171439853D01*
X74598665Y-171495000D01*
X74881335Y-171495000D01*
X75158574Y-171439853D01*
X75419727Y-171331680D01*
X75654759Y-171174637D01*
X75854637Y-170974759D01*
X76011680Y-170739727D01*
X76119853Y-170478574D01*
X76175000Y-170201335D01*
X76175000Y-169918665D01*
X76119853Y-169641426D01*
X76011680Y-169380273D01*
X75854637Y-169145241D01*
X75654759Y-168945363D01*
X75422241Y-168790000D01*
X75654759Y-168634637D01*
X75854637Y-168434759D01*
X76011680Y-168199727D01*
X76119853Y-167938574D01*
X76175000Y-167661335D01*
X76175000Y-167378665D01*
X76119853Y-167101426D01*
X76011680Y-166840273D01*
X75854637Y-166605241D01*
X75654759Y-166405363D01*
X75422241Y-166250000D01*
X75654759Y-166094637D01*
X75854637Y-165894759D01*
X76011680Y-165659727D01*
X76119853Y-165398574D01*
X76175000Y-165121335D01*
X76175000Y-164838665D01*
X76119853Y-164561426D01*
X76011680Y-164300273D01*
X75854637Y-164065241D01*
X75654759Y-163865363D01*
X75422241Y-163710000D01*
X75654759Y-163554637D01*
X75729949Y-163479447D01*
X79665000Y-167414498D01*
X79665001Y-168992069D01*
X79585241Y-169045363D01*
X79385363Y-169245241D01*
X79228320Y-169480273D01*
X79120147Y-169741426D01*
X79065000Y-170018665D01*
X79065000Y-170301335D01*
X79120147Y-170578574D01*
X79228320Y-170839727D01*
X79385363Y-171074759D01*
X79585241Y-171274637D01*
X79820273Y-171431680D01*
X80081426Y-171539853D01*
X80358665Y-171595000D01*
X80641335Y-171595000D01*
X80918574Y-171539853D01*
X81179727Y-171431680D01*
X81414759Y-171274637D01*
X81614637Y-171074759D01*
X81771680Y-170839727D01*
X81879853Y-170578574D01*
X81935000Y-170301335D01*
X81935000Y-170018665D01*
X81879853Y-169741426D01*
X81771680Y-169480273D01*
X81614637Y-169245241D01*
X81414759Y-169045363D01*
X81335000Y-168992070D01*
X81335000Y-167675868D01*
X83202277Y-169543146D01*
X83120147Y-169741426D01*
X83065000Y-170018665D01*
X83065000Y-170301335D01*
X83120147Y-170578574D01*
X83228320Y-170839727D01*
X83385363Y-171074759D01*
X83585241Y-171274637D01*
X83820273Y-171431680D01*
X84081426Y-171539853D01*
X84358665Y-171595000D01*
X84641335Y-171595000D01*
X84918574Y-171539853D01*
X85179727Y-171431680D01*
X85414759Y-171274637D01*
X85614637Y-171074759D01*
X85771680Y-170839727D01*
X85879853Y-170578574D01*
X85935000Y-170301335D01*
X85935000Y-170018665D01*
X85879853Y-169741426D01*
X85771680Y-169480273D01*
X85614637Y-169245241D01*
X85414759Y-169045363D01*
X85179727Y-168888320D01*
X84918574Y-168780147D01*
X84771825Y-168750956D01*
X78955000Y-162934133D01*
X78955000Y-160992702D01*
X79686903Y-160992702D01*
X79758486Y-161236671D01*
X80013996Y-161357571D01*
X80288184Y-161426300D01*
X80570512Y-161440217D01*
X80850130Y-161398787D01*
X81116292Y-161303603D01*
X81241514Y-161236671D01*
X81313097Y-160992702D01*
X80500000Y-160179605D01*
X79686903Y-160992702D01*
X78955000Y-160992702D01*
X78955000Y-160070512D01*
X79059783Y-160070512D01*
X79101213Y-160350130D01*
X79196397Y-160616292D01*
X79263329Y-160741514D01*
X79507298Y-160813097D01*
X80320395Y-160000000D01*
X80679605Y-160000000D01*
X81492702Y-160813097D01*
X81736671Y-160741514D01*
X81857571Y-160486004D01*
X81891902Y-160349040D01*
X83108091Y-160349040D01*
X83202930Y-160613881D01*
X83347615Y-160855131D01*
X83536586Y-161063519D01*
X83762580Y-161231037D01*
X84016913Y-161351246D01*
X84150961Y-161391904D01*
X84373000Y-161269915D01*
X84373000Y-160127000D01*
X84627000Y-160127000D01*
X84627000Y-161269915D01*
X84849039Y-161391904D01*
X84983087Y-161351246D01*
X85237420Y-161231037D01*
X85463414Y-161063519D01*
X85652385Y-160855131D01*
X85797070Y-160613881D01*
X85891909Y-160349040D01*
X85770624Y-160127000D01*
X84627000Y-160127000D01*
X84373000Y-160127000D01*
X83229376Y-160127000D01*
X83108091Y-160349040D01*
X81891902Y-160349040D01*
X81926300Y-160211816D01*
X81940217Y-159929488D01*
X81898949Y-159650960D01*
X83108091Y-159650960D01*
X83229376Y-159873000D01*
X84373000Y-159873000D01*
X84373000Y-158730085D01*
X84627000Y-158730085D01*
X84627000Y-159873000D01*
X85770624Y-159873000D01*
X85891909Y-159650960D01*
X85797070Y-159386119D01*
X85652385Y-159144869D01*
X85463414Y-158936481D01*
X85237420Y-158768963D01*
X84983087Y-158648754D01*
X84849039Y-158608096D01*
X84627000Y-158730085D01*
X84373000Y-158730085D01*
X84150961Y-158608096D01*
X84016913Y-158648754D01*
X83762580Y-158768963D01*
X83536586Y-158936481D01*
X83347615Y-159144869D01*
X83202930Y-159386119D01*
X83108091Y-159650960D01*
X81898949Y-159650960D01*
X81898787Y-159649870D01*
X81803603Y-159383708D01*
X81736671Y-159258486D01*
X81492702Y-159186903D01*
X80679605Y-160000000D01*
X80320395Y-160000000D01*
X79507298Y-159186903D01*
X79263329Y-159258486D01*
X79142429Y-159513996D01*
X79073700Y-159788184D01*
X79059783Y-160070512D01*
X78955000Y-160070512D01*
X78955000Y-159007298D01*
X79686903Y-159007298D01*
X80500000Y-159820395D01*
X81313097Y-159007298D01*
X81241514Y-158763329D01*
X80986004Y-158642429D01*
X80711816Y-158573700D01*
X80429488Y-158559783D01*
X80149870Y-158601213D01*
X79883708Y-158696397D01*
X79758486Y-158763329D01*
X79686903Y-159007298D01*
X78955000Y-159007298D01*
X78955000Y-155850867D01*
X79448977Y-155356890D01*
X80933524Y-155356890D01*
X81025648Y-155619858D01*
X81172504Y-155871193D01*
X81365571Y-156089049D01*
X81597430Y-156265053D01*
X81859170Y-156392442D01*
X82140733Y-156466320D01*
X82373000Y-156326165D01*
X82373000Y-155127000D01*
X82627000Y-155127000D01*
X82627000Y-156326165D01*
X82859267Y-156466320D01*
X83140830Y-156392442D01*
X83402570Y-156265053D01*
X83634429Y-156089049D01*
X83827496Y-155871193D01*
X83974352Y-155619858D01*
X84066476Y-155356890D01*
X83945155Y-155127000D01*
X82627000Y-155127000D01*
X82373000Y-155127000D01*
X81054845Y-155127000D01*
X80933524Y-155356890D01*
X79448977Y-155356890D01*
X81288705Y-153517164D01*
X81319866Y-153555134D01*
X81545986Y-153740706D01*
X81571722Y-153754462D01*
X81365571Y-153910951D01*
X81172504Y-154128807D01*
X81025648Y-154380142D01*
X80933524Y-154643110D01*
X81054845Y-154873000D01*
X82373000Y-154873000D01*
X82373000Y-154853000D01*
X82627000Y-154853000D01*
X82627000Y-154873000D01*
X83945155Y-154873000D01*
X84066476Y-154643110D01*
X83974352Y-154380142D01*
X83827496Y-154128807D01*
X83634429Y-153910951D01*
X83428278Y-153754462D01*
X83454014Y-153740706D01*
X83680134Y-153555134D01*
X83865706Y-153329014D01*
X84003599Y-153071034D01*
X84088513Y-152791111D01*
X84117185Y-152500000D01*
X84088513Y-152208889D01*
X84003599Y-151928966D01*
X83865706Y-151670986D01*
X83680134Y-151444866D01*
X83454014Y-151259294D01*
X83436626Y-151250000D01*
X83454014Y-151240706D01*
X83680134Y-151055134D01*
X83865706Y-150829014D01*
X84003599Y-150571034D01*
X84088513Y-150291111D01*
X84117185Y-150000000D01*
X84088513Y-149708889D01*
X84003599Y-149428966D01*
X83865706Y-149170986D01*
X83680134Y-148944866D01*
X83454014Y-148759294D01*
X83436626Y-148750000D01*
X83454014Y-148740706D01*
X83680134Y-148555134D01*
X83865706Y-148329014D01*
X84003599Y-148071034D01*
X84088513Y-147791111D01*
X84117185Y-147500000D01*
X84088513Y-147208889D01*
X84003599Y-146928966D01*
X83865706Y-146670986D01*
X83680134Y-146444866D01*
X83616663Y-146392777D01*
X83718386Y-146338405D01*
X83852962Y-146227962D01*
X83963405Y-146093386D01*
X84045472Y-145939850D01*
X84096008Y-145773254D01*
X84113072Y-145600000D01*
X84113072Y-144400000D01*
X84096008Y-144226746D01*
X84045472Y-144060150D01*
X83963405Y-143906614D01*
X83852962Y-143772038D01*
X83718386Y-143661595D01*
X83564850Y-143579528D01*
X83398254Y-143528992D01*
X83225000Y-143511928D01*
X81775000Y-143511928D01*
X81601746Y-143528992D01*
X81435150Y-143579528D01*
X81281614Y-143661595D01*
X81147038Y-143772038D01*
X81036595Y-143906614D01*
X80954528Y-144060150D01*
X80903992Y-144226746D01*
X80886928Y-144400000D01*
X80886928Y-145600000D01*
X80903992Y-145773254D01*
X80954528Y-145939850D01*
X81036595Y-146093386D01*
X81147038Y-146227962D01*
X81281614Y-146338405D01*
X81383337Y-146392777D01*
X81319866Y-146444866D01*
X81134294Y-146670986D01*
X80996401Y-146928966D01*
X80911487Y-147208889D01*
X80882815Y-147500000D01*
X80911487Y-147791111D01*
X80996401Y-148071034D01*
X81134294Y-148329014D01*
X81319866Y-148555134D01*
X81545986Y-148740706D01*
X81563374Y-148750000D01*
X81545986Y-148759294D01*
X81319866Y-148944866D01*
X81134294Y-149170986D01*
X80996401Y-149428966D01*
X80911487Y-149708889D01*
X80882815Y-150000000D01*
X80911487Y-150291111D01*
X80996401Y-150571034D01*
X81134294Y-150829014D01*
X81319866Y-151055134D01*
X81545986Y-151240706D01*
X81563374Y-151250000D01*
X81545986Y-151259294D01*
X81319866Y-151444866D01*
X81141212Y-151662557D01*
X81125000Y-151660960D01*
X81083982Y-151665000D01*
X81083981Y-151665000D01*
X80961311Y-151677082D01*
X80873606Y-151703687D01*
X80803913Y-151724828D01*
X80658854Y-151802364D01*
X80586887Y-151861426D01*
X80531709Y-151906709D01*
X80505563Y-151938568D01*
X77558574Y-154885559D01*
X77526710Y-154911709D01*
X77500562Y-154943571D01*
X77422364Y-155038855D01*
X77344828Y-155183914D01*
X77297082Y-155341312D01*
X77280960Y-155505000D01*
X77285001Y-155546029D01*
X77285000Y-161264132D01*
X76156285Y-160135418D01*
X76175000Y-160041335D01*
X76175000Y-159758665D01*
X76119853Y-159481426D01*
X76011680Y-159220273D01*
X75854637Y-158985241D01*
X75654759Y-158785363D01*
X75422241Y-158630000D01*
X75654759Y-158474637D01*
X75854637Y-158274759D01*
X76011680Y-158039727D01*
X76119853Y-157778574D01*
X76175000Y-157501335D01*
X76175000Y-157218665D01*
X76119853Y-156941426D01*
X76011680Y-156680273D01*
X75854637Y-156445241D01*
X75654759Y-156245363D01*
X75422241Y-156090000D01*
X75654759Y-155934637D01*
X75854637Y-155734759D01*
X76011680Y-155499727D01*
X76119853Y-155238574D01*
X76175000Y-154961335D01*
X76175000Y-154678665D01*
X76119853Y-154401426D01*
X76011680Y-154140273D01*
X75854637Y-153905241D01*
X75654759Y-153705363D01*
X75422241Y-153550000D01*
X75654759Y-153394637D01*
X75854637Y-153194759D01*
X76011680Y-152959727D01*
X76119853Y-152698574D01*
X76175000Y-152421335D01*
X76175000Y-152138665D01*
X76119853Y-151861426D01*
X76011680Y-151600273D01*
X75854637Y-151365241D01*
X75654759Y-151165363D01*
X75422241Y-151010000D01*
X75654759Y-150854637D01*
X75854637Y-150654759D01*
X76011680Y-150419727D01*
X76119853Y-150158574D01*
X76175000Y-149881335D01*
X76175000Y-149598665D01*
X76119853Y-149321426D01*
X76011680Y-149060273D01*
X75854637Y-148825241D01*
X75654759Y-148625363D01*
X75422241Y-148470000D01*
X75654759Y-148314637D01*
X75854637Y-148114759D01*
X76011680Y-147879727D01*
X76119853Y-147618574D01*
X76175000Y-147341335D01*
X76175000Y-147058665D01*
X76119853Y-146781426D01*
X76011680Y-146520273D01*
X75854637Y-146285241D01*
X75654759Y-146085363D01*
X75422241Y-145930000D01*
X75654759Y-145774637D01*
X75854637Y-145574759D01*
X76011680Y-145339727D01*
X76119853Y-145078574D01*
X76175000Y-144801335D01*
X76175000Y-144518665D01*
X76119853Y-144241426D01*
X76011680Y-143980273D01*
X75854637Y-143745241D01*
X75654759Y-143545363D01*
X75422241Y-143390000D01*
X75654759Y-143234637D01*
X75854637Y-143034759D01*
X76011680Y-142799727D01*
X76119853Y-142538574D01*
X76175000Y-142261335D01*
X76175000Y-141978665D01*
X76119853Y-141701426D01*
X76011680Y-141440273D01*
X75854637Y-141205241D01*
X75654759Y-141005363D01*
X75422241Y-140850000D01*
X75654759Y-140694637D01*
X75854637Y-140494759D01*
X76011680Y-140259727D01*
X76119853Y-139998574D01*
X76175000Y-139721335D01*
X76175000Y-139438665D01*
X76119853Y-139161426D01*
X76011680Y-138900273D01*
X75854637Y-138665241D01*
X75654759Y-138465363D01*
X75492418Y-138356890D01*
X80933524Y-138356890D01*
X81025648Y-138619858D01*
X81172504Y-138871193D01*
X81365571Y-139089049D01*
X81597430Y-139265053D01*
X81859170Y-139392442D01*
X82140733Y-139466320D01*
X82373000Y-139326165D01*
X82373000Y-138127000D01*
X82627000Y-138127000D01*
X82627000Y-139326165D01*
X82859267Y-139466320D01*
X83140830Y-139392442D01*
X83402570Y-139265053D01*
X83634429Y-139089049D01*
X83827496Y-138871193D01*
X83974352Y-138619858D01*
X84066476Y-138356890D01*
X83945155Y-138127000D01*
X82627000Y-138127000D01*
X82373000Y-138127000D01*
X81054845Y-138127000D01*
X80933524Y-138356890D01*
X75492418Y-138356890D01*
X75419727Y-138308320D01*
X75409135Y-138303933D01*
X75595131Y-138192385D01*
X75803519Y-138003414D01*
X75971037Y-137777420D01*
X76091246Y-137523087D01*
X76131904Y-137389039D01*
X76009915Y-137167000D01*
X74867000Y-137167000D01*
X74867000Y-137187000D01*
X74613000Y-137187000D01*
X74613000Y-137167000D01*
X73470085Y-137167000D01*
X73348096Y-137389039D01*
X73388754Y-137523087D01*
X73508963Y-137777420D01*
X73676481Y-138003414D01*
X73884869Y-138192385D01*
X74070865Y-138303933D01*
X74060273Y-138308320D01*
X73825241Y-138465363D01*
X73625363Y-138665241D01*
X73468320Y-138900273D01*
X73360147Y-139161426D01*
X73305000Y-139438665D01*
X68235000Y-139438665D01*
X68235000Y-138445867D01*
X72619438Y-134061430D01*
X72619442Y-134061425D01*
X72845868Y-133835000D01*
X73462220Y-133835000D01*
X73360147Y-134081426D01*
X73305000Y-134358665D01*
X73305000Y-134641335D01*
X73360147Y-134918574D01*
X73468320Y-135179727D01*
X73625363Y-135414759D01*
X73825241Y-135614637D01*
X74060273Y-135771680D01*
X74070865Y-135776067D01*
X73884869Y-135887615D01*
X73676481Y-136076586D01*
X73508963Y-136302580D01*
X73388754Y-136556913D01*
X73348096Y-136690961D01*
X73470085Y-136913000D01*
X74613000Y-136913000D01*
X74613000Y-136893000D01*
X74867000Y-136893000D01*
X74867000Y-136913000D01*
X76009915Y-136913000D01*
X76131904Y-136690961D01*
X76091246Y-136556913D01*
X75971037Y-136302580D01*
X75803519Y-136076586D01*
X75595131Y-135887615D01*
X75409135Y-135776067D01*
X75419727Y-135771680D01*
X75654759Y-135614637D01*
X75854637Y-135414759D01*
X76011680Y-135179727D01*
X76119853Y-134918574D01*
X76175000Y-134641335D01*
X76175000Y-134358665D01*
X76119853Y-134081426D01*
X76017780Y-133835000D01*
X81139207Y-133835000D01*
X81319866Y-134055134D01*
X81545986Y-134240706D01*
X81563374Y-134250000D01*
X81545986Y-134259294D01*
X81319866Y-134444866D01*
X81134294Y-134670986D01*
X80996401Y-134928966D01*
X80911487Y-135208889D01*
X80882815Y-135500000D01*
X80911487Y-135791111D01*
X80996401Y-136071034D01*
X81134294Y-136329014D01*
X81319866Y-136555134D01*
X81545986Y-136740706D01*
X81571722Y-136754462D01*
X81365571Y-136910951D01*
X81172504Y-137128807D01*
X81025648Y-137380142D01*
X80933524Y-137643110D01*
X81054845Y-137873000D01*
X82373000Y-137873000D01*
X82373000Y-137853000D01*
X82627000Y-137853000D01*
X82627000Y-137873000D01*
X83945155Y-137873000D01*
X84066476Y-137643110D01*
X83974352Y-137380142D01*
X83827496Y-137128807D01*
X83634429Y-136910951D01*
X83428278Y-136754462D01*
X83454014Y-136740706D01*
X83680134Y-136555134D01*
X83858788Y-136337443D01*
X83875000Y-136339040D01*
X83916018Y-136335000D01*
X83916019Y-136335000D01*
X84038689Y-136322918D01*
X84196087Y-136275172D01*
X84341146Y-136197636D01*
X84468291Y-136093291D01*
X84494445Y-136061422D01*
X85361432Y-135194437D01*
X85393291Y-135168291D01*
X85497636Y-135041146D01*
X85575172Y-134896087D01*
X85622918Y-134738689D01*
X85635000Y-134616019D01*
X85635000Y-134616018D01*
X85639040Y-134575000D01*
X85635000Y-134533982D01*
X85635000Y-130455340D01*
X85639040Y-130414322D01*
X85622918Y-130250634D01*
X85575172Y-130093235D01*
X85497636Y-129948176D01*
X85419439Y-129852892D01*
X85419437Y-129852890D01*
X85393291Y-129821031D01*
X85361433Y-129794886D01*
X83605124Y-128038579D01*
X83578969Y-128006709D01*
X83451824Y-127902364D01*
X83306765Y-127824828D01*
X83149367Y-127777082D01*
X83026697Y-127765000D01*
X83026696Y-127765000D01*
X82985678Y-127760960D01*
X82944660Y-127765000D01*
X75241018Y-127765000D01*
X75199999Y-127760960D01*
X75158981Y-127765000D01*
X75036311Y-127777082D01*
X74878913Y-127824828D01*
X74733854Y-127902364D01*
X74606709Y-128006709D01*
X74580559Y-128038573D01*
X65338574Y-137280559D01*
X65306710Y-137306709D01*
X65280562Y-137338571D01*
X65202364Y-137433855D01*
X65124828Y-137578914D01*
X65077082Y-137736312D01*
X65060960Y-137900000D01*
X65065001Y-137941029D01*
X65065000Y-160774131D01*
X60935000Y-164904132D01*
X60935000Y-164838665D01*
X60879853Y-164561426D01*
X60771680Y-164300273D01*
X60614637Y-164065241D01*
X60414759Y-163865363D01*
X60182241Y-163710000D01*
X60414759Y-163554637D01*
X60614637Y-163354759D01*
X60771680Y-163119727D01*
X60879853Y-162858574D01*
X60935000Y-162581335D01*
X60935000Y-162298665D01*
X60879853Y-162021426D01*
X60771680Y-161760273D01*
X60614637Y-161525241D01*
X60414759Y-161325363D01*
X60182241Y-161170000D01*
X60414759Y-161014637D01*
X60614637Y-160814759D01*
X60771680Y-160579727D01*
X60879853Y-160318574D01*
X60935000Y-160041335D01*
X60935000Y-159758665D01*
X60879853Y-159481426D01*
X60771680Y-159220273D01*
X60614637Y-158985241D01*
X60414759Y-158785363D01*
X60182241Y-158630000D01*
X60414759Y-158474637D01*
X60614637Y-158274759D01*
X60771680Y-158039727D01*
X60879853Y-157778574D01*
X60935000Y-157501335D01*
X60935000Y-157218665D01*
X60879853Y-156941426D01*
X60771680Y-156680273D01*
X60614637Y-156445241D01*
X60414759Y-156245363D01*
X60182241Y-156090000D01*
X60414759Y-155934637D01*
X60614637Y-155734759D01*
X60771680Y-155499727D01*
X60879853Y-155238574D01*
X60935000Y-154961335D01*
X60935000Y-154678665D01*
X60879853Y-154401426D01*
X60771680Y-154140273D01*
X60614637Y-153905241D01*
X60414759Y-153705363D01*
X60182241Y-153550000D01*
X60414759Y-153394637D01*
X60614637Y-153194759D01*
X60771680Y-152959727D01*
X60879853Y-152698574D01*
X60935000Y-152421335D01*
X60935000Y-152138665D01*
X60879853Y-151861426D01*
X60771680Y-151600273D01*
X60614637Y-151365241D01*
X60414759Y-151165363D01*
X60182241Y-151010000D01*
X60414759Y-150854637D01*
X60614637Y-150654759D01*
X60771680Y-150419727D01*
X60879853Y-150158574D01*
X60935000Y-149881335D01*
X60935000Y-149598665D01*
X60879853Y-149321426D01*
X60771680Y-149060273D01*
X60614637Y-148825241D01*
X60414759Y-148625363D01*
X60182241Y-148470000D01*
X60414759Y-148314637D01*
X60614637Y-148114759D01*
X60771680Y-147879727D01*
X60879853Y-147618574D01*
X60935000Y-147341335D01*
X60935000Y-147058665D01*
X60879853Y-146781426D01*
X60771680Y-146520273D01*
X60614637Y-146285241D01*
X60414759Y-146085363D01*
X60182241Y-145930000D01*
X60414759Y-145774637D01*
X60614637Y-145574759D01*
X60771680Y-145339727D01*
X60879853Y-145078574D01*
X60935000Y-144801335D01*
X60935000Y-144518665D01*
X60879853Y-144241426D01*
X60771680Y-143980273D01*
X60614637Y-143745241D01*
X60414759Y-143545363D01*
X60179727Y-143388320D01*
X60169135Y-143383933D01*
X60355131Y-143272385D01*
X60563519Y-143083414D01*
X60731037Y-142857420D01*
X60851246Y-142603087D01*
X60891904Y-142469039D01*
X60769915Y-142247000D01*
X59627000Y-142247000D01*
X59627000Y-142267000D01*
X59373000Y-142267000D01*
X59373000Y-142247000D01*
X59353000Y-142247000D01*
X59353000Y-141993000D01*
X59373000Y-141993000D01*
X59373000Y-141973000D01*
X59627000Y-141973000D01*
X59627000Y-141993000D01*
X60769915Y-141993000D01*
X60891904Y-141770961D01*
X60851246Y-141636913D01*
X60731037Y-141382580D01*
X60563519Y-141156586D01*
X60355131Y-140967615D01*
X60169135Y-140856067D01*
X60179727Y-140851680D01*
X60414759Y-140694637D01*
X60614637Y-140494759D01*
X60771680Y-140259727D01*
X60879853Y-139998574D01*
X60935000Y-139721335D01*
X60935000Y-139438665D01*
X60879853Y-139161426D01*
X60771680Y-138900273D01*
X60614637Y-138665241D01*
X60414759Y-138465363D01*
X60182241Y-138310000D01*
X60414759Y-138154637D01*
X60614637Y-137954759D01*
X60771680Y-137719727D01*
X60879853Y-137458574D01*
X60935000Y-137181335D01*
X60935000Y-136898665D01*
X60909649Y-136771220D01*
X69361427Y-128319443D01*
X69393291Y-128293293D01*
X69497636Y-128166148D01*
X69575172Y-128021089D01*
X69622918Y-127863691D01*
X69635000Y-127741021D01*
X69635000Y-127741011D01*
X69639039Y-127700003D01*
X69635000Y-127658995D01*
X69635000Y-125221018D01*
X69639040Y-125180000D01*
X69633237Y-125121086D01*
X69622918Y-125016311D01*
X69575172Y-124858913D01*
X69497636Y-124713854D01*
X69445126Y-124649870D01*
X69419439Y-124618570D01*
X69419437Y-124618568D01*
X69393291Y-124586709D01*
X69361433Y-124560564D01*
X68536286Y-123735418D01*
X68555000Y-123641335D01*
X68555000Y-123358665D01*
X68499853Y-123081426D01*
X68391680Y-122820273D01*
X68234637Y-122585241D01*
X68034759Y-122385363D01*
X67799727Y-122228320D01*
X67538574Y-122120147D01*
X67261335Y-122065000D01*
X66978665Y-122065000D01*
X66701426Y-122120147D01*
X66440273Y-122228320D01*
X66205241Y-122385363D01*
X66005363Y-122585241D01*
X65848320Y-122820273D01*
X65740147Y-123081426D01*
X65685000Y-123358665D01*
X65685000Y-123641335D01*
X65740147Y-123918574D01*
X65848320Y-124179727D01*
X66005363Y-124414759D01*
X66205241Y-124614637D01*
X66437759Y-124770000D01*
X66205241Y-124925363D01*
X66005363Y-125125241D01*
X65848320Y-125360273D01*
X65740147Y-125621426D01*
X65685000Y-125898665D01*
X65685000Y-126181335D01*
X65703714Y-126275418D01*
X58938579Y-133040554D01*
X58912535Y-133061928D01*
X58700000Y-133061928D01*
X58575518Y-133074188D01*
X58455820Y-133110498D01*
X58345506Y-133169463D01*
X58248815Y-133248815D01*
X58169463Y-133345506D01*
X58110498Y-133455820D01*
X58074188Y-133575518D01*
X58061928Y-133700000D01*
X58061928Y-135300000D01*
X58074188Y-135424482D01*
X58110498Y-135544180D01*
X58169463Y-135654494D01*
X58248815Y-135751185D01*
X58345506Y-135830537D01*
X58455820Y-135889502D01*
X58575518Y-135925812D01*
X58583961Y-135926643D01*
X58385363Y-136125241D01*
X58228320Y-136360273D01*
X58120147Y-136621426D01*
X58065000Y-136898665D01*
X58065000Y-137181335D01*
X58120147Y-137458574D01*
X58228320Y-137719727D01*
X58385363Y-137954759D01*
X58585241Y-138154637D01*
X58817759Y-138310000D01*
X58585241Y-138465363D01*
X58385363Y-138665241D01*
X58228320Y-138900273D01*
X58120147Y-139161426D01*
X58065000Y-139438665D01*
X58065000Y-139721335D01*
X58120147Y-139998574D01*
X58228320Y-140259727D01*
X58385363Y-140494759D01*
X58585241Y-140694637D01*
X58820273Y-140851680D01*
X58830865Y-140856067D01*
X58644869Y-140967615D01*
X58436481Y-141156586D01*
X58268963Y-141382580D01*
X58148754Y-141636913D01*
X58108096Y-141770961D01*
X58230084Y-141992998D01*
X58073865Y-141992998D01*
X56835000Y-140754133D01*
X56835000Y-125021007D01*
X56839039Y-124979999D01*
X56835000Y-124938991D01*
X56835000Y-124938981D01*
X56822918Y-124816311D01*
X56775172Y-124658913D01*
X56697636Y-124513854D01*
X56593291Y-124386709D01*
X56561428Y-124360560D01*
X54900868Y-122700000D01*
X58061928Y-122700000D01*
X58061928Y-124300000D01*
X58074188Y-124424482D01*
X58110498Y-124544180D01*
X58169463Y-124654494D01*
X58248815Y-124751185D01*
X58345506Y-124830537D01*
X58455820Y-124889502D01*
X58575518Y-124925812D01*
X58583961Y-124926643D01*
X58385363Y-125125241D01*
X58228320Y-125360273D01*
X58120147Y-125621426D01*
X58065000Y-125898665D01*
X58065000Y-126181335D01*
X58120147Y-126458574D01*
X58228320Y-126719727D01*
X58385363Y-126954759D01*
X58585241Y-127154637D01*
X58820273Y-127311680D01*
X59081426Y-127419853D01*
X59358665Y-127475000D01*
X59641335Y-127475000D01*
X59918574Y-127419853D01*
X60179727Y-127311680D01*
X60414759Y-127154637D01*
X60614637Y-126954759D01*
X60771680Y-126719727D01*
X60879853Y-126458574D01*
X60935000Y-126181335D01*
X60935000Y-125898665D01*
X60879853Y-125621426D01*
X60771680Y-125360273D01*
X60614637Y-125125241D01*
X60416039Y-124926643D01*
X60424482Y-124925812D01*
X60544180Y-124889502D01*
X60654494Y-124830537D01*
X60751185Y-124751185D01*
X60830537Y-124654494D01*
X60889502Y-124544180D01*
X60925812Y-124424482D01*
X60938072Y-124300000D01*
X60938072Y-122700000D01*
X60925812Y-122575518D01*
X60889502Y-122455820D01*
X60830537Y-122345506D01*
X60751185Y-122248815D01*
X60654494Y-122169463D01*
X60544180Y-122110498D01*
X60424482Y-122074188D01*
X60300000Y-122061928D01*
X58700000Y-122061928D01*
X58575518Y-122074188D01*
X58455820Y-122110498D01*
X58345506Y-122169463D01*
X58248815Y-122248815D01*
X58169463Y-122345506D01*
X58110498Y-122455820D01*
X58074188Y-122575518D01*
X58061928Y-122700000D01*
X54900868Y-122700000D01*
X54818534Y-122617667D01*
X54841943Y-122380000D01*
X54814236Y-122098691D01*
X54732182Y-121828192D01*
X54598932Y-121578899D01*
X54419608Y-121360392D01*
X54201101Y-121181068D01*
X54068142Y-121110000D01*
X54201101Y-121038932D01*
X54419608Y-120859608D01*
X54598932Y-120641101D01*
X54732182Y-120391808D01*
X54814236Y-120121309D01*
X54841943Y-119840000D01*
X54814236Y-119558691D01*
X54732182Y-119288192D01*
X54598932Y-119038899D01*
X54419608Y-118820392D01*
X54201101Y-118641068D01*
X54068142Y-118570000D01*
X54201101Y-118498932D01*
X54419608Y-118319608D01*
X54598932Y-118101101D01*
X54732182Y-117851808D01*
X54814236Y-117581309D01*
X54841943Y-117300000D01*
X54814236Y-117018691D01*
X54732182Y-116748192D01*
X54598932Y-116498899D01*
X54419608Y-116280392D01*
X54201101Y-116101068D01*
X54073259Y-116032735D01*
X54302839Y-115882601D01*
X54504500Y-115684895D01*
X54663715Y-115451646D01*
X54774367Y-115191818D01*
X54791904Y-115109039D01*
X54669915Y-114887000D01*
X53127000Y-114887000D01*
X53127000Y-114907000D01*
X52873000Y-114907000D01*
X52873000Y-114887000D01*
X51330085Y-114887000D01*
X51208096Y-115109039D01*
X51225633Y-115191818D01*
X51336285Y-115451646D01*
X51495500Y-115684895D01*
X51697161Y-115882601D01*
X51926741Y-116032735D01*
X51798899Y-116101068D01*
X51580392Y-116280392D01*
X51401068Y-116498899D01*
X51289150Y-116708282D01*
X48991829Y-114410961D01*
X51208096Y-114410961D01*
X51330085Y-114633000D01*
X52873000Y-114633000D01*
X52873000Y-113325000D01*
X53127000Y-113325000D01*
X53127000Y-114633000D01*
X54669915Y-114633000D01*
X54791904Y-114410961D01*
X54774367Y-114328182D01*
X54663715Y-114068354D01*
X54504500Y-113835105D01*
X54302839Y-113637399D01*
X54066483Y-113482834D01*
X53804514Y-113377350D01*
X53527000Y-113325000D01*
X53127000Y-113325000D01*
X52873000Y-113325000D01*
X52473000Y-113325000D01*
X52195486Y-113377350D01*
X51933517Y-113482834D01*
X51697161Y-113637399D01*
X51495500Y-113835105D01*
X51336285Y-114068354D01*
X51225633Y-114328182D01*
X51208096Y-114410961D01*
X48991829Y-114410961D01*
X46719446Y-112138579D01*
X46693291Y-112106709D01*
X46566146Y-112002364D01*
X46421087Y-111924828D01*
X46263689Y-111877082D01*
X46141019Y-111865000D01*
X46141018Y-111865000D01*
X46100000Y-111860960D01*
X46058982Y-111865000D01*
X42700358Y-111865000D01*
X42659340Y-111860960D01*
X42618322Y-111865000D01*
X42618321Y-111865000D01*
X42495651Y-111877082D01*
X42338253Y-111924828D01*
X42193194Y-112002364D01*
X42066049Y-112106709D01*
X42039903Y-112138568D01*
X39438574Y-114739899D01*
X39406710Y-114766049D01*
X39380562Y-114797911D01*
X39302364Y-114893195D01*
X39224828Y-115038254D01*
X39177082Y-115195652D01*
X39165645Y-115311774D01*
X39117114Y-115344201D01*
X38924201Y-115537114D01*
X38772629Y-115763957D01*
X38668225Y-116016011D01*
X38615000Y-116283589D01*
X38615000Y-116556411D01*
X38668225Y-116823989D01*
X38772629Y-117076043D01*
X38924201Y-117302886D01*
X39117114Y-117495799D01*
X39343957Y-117647371D01*
X39446873Y-117690000D01*
X39343957Y-117732629D01*
X39117114Y-117884201D01*
X38924201Y-118077114D01*
X38772629Y-118303957D01*
X38668225Y-118556011D01*
X38615000Y-118823589D01*
X38615000Y-119096411D01*
X38668225Y-119363989D01*
X38772629Y-119616043D01*
X38924201Y-119842886D01*
X39117114Y-120035799D01*
X39233483Y-120113555D01*
X39125518Y-120124188D01*
X39005820Y-120160498D01*
X38895506Y-120219463D01*
X38798815Y-120298815D01*
X38719463Y-120395506D01*
X38660498Y-120505820D01*
X38624188Y-120625518D01*
X38611928Y-120750000D01*
X38615000Y-121214250D01*
X38773750Y-121373000D01*
X39873000Y-121373000D01*
X39873000Y-121353000D01*
X40127000Y-121353000D01*
X40127000Y-121373000D01*
X41226250Y-121373000D01*
X41385000Y-121214250D01*
X41388072Y-120750000D01*
X41375812Y-120625518D01*
X41339502Y-120505820D01*
X41280537Y-120395506D01*
X41201185Y-120298815D01*
X41104494Y-120219463D01*
X40994180Y-120160498D01*
X40874482Y-120124188D01*
X40766517Y-120113555D01*
X40882886Y-120035799D01*
X41075799Y-119842886D01*
X41227371Y-119616043D01*
X41331775Y-119363989D01*
X41385000Y-119096411D01*
X41385000Y-118823589D01*
X41331775Y-118556011D01*
X41227371Y-118303957D01*
X41075799Y-118077114D01*
X40882886Y-117884201D01*
X40656043Y-117732629D01*
X40553127Y-117690000D01*
X40656043Y-117647371D01*
X40882886Y-117495799D01*
X41075799Y-117302886D01*
X41227371Y-117076043D01*
X41331775Y-116823989D01*
X41385000Y-116556411D01*
X41385000Y-116283589D01*
X41331775Y-116016011D01*
X41227371Y-115763957D01*
X41075799Y-115537114D01*
X41039446Y-115500761D01*
X43005209Y-113535000D01*
X44227669Y-113535000D01*
X44178899Y-113561068D01*
X43960392Y-113740392D01*
X43781068Y-113958899D01*
X43647818Y-114208192D01*
X43565764Y-114478691D01*
X43538057Y-114760000D01*
X43565764Y-115041309D01*
X43647818Y-115311808D01*
X43781068Y-115561101D01*
X43960392Y-115779608D01*
X44178899Y-115958932D01*
X44311858Y-116030000D01*
X44178899Y-116101068D01*
X43960392Y-116280392D01*
X43781068Y-116498899D01*
X43647818Y-116748192D01*
X43565764Y-117018691D01*
X43538057Y-117300000D01*
X43565764Y-117581309D01*
X43647818Y-117851808D01*
X43781068Y-118101101D01*
X43960392Y-118319608D01*
X44178899Y-118498932D01*
X44311858Y-118570000D01*
X44178899Y-118641068D01*
X43960392Y-118820392D01*
X43781068Y-119038899D01*
X43647818Y-119288192D01*
X43565764Y-119558691D01*
X43538057Y-119840000D01*
X43565764Y-120121309D01*
X43647818Y-120391808D01*
X43781068Y-120641101D01*
X43960392Y-120859608D01*
X44178899Y-121038932D01*
X44311858Y-121110000D01*
X44178899Y-121181068D01*
X43960392Y-121360392D01*
X43781068Y-121578899D01*
X43647818Y-121828192D01*
X43565764Y-122098691D01*
X43538057Y-122380000D01*
X43565764Y-122661309D01*
X43647818Y-122931808D01*
X43781068Y-123181101D01*
X43960392Y-123399608D01*
X44178899Y-123578932D01*
X44311858Y-123650000D01*
X44178899Y-123721068D01*
X43960392Y-123900392D01*
X43781068Y-124118899D01*
X43647818Y-124368192D01*
X43565764Y-124638691D01*
X43538057Y-124920000D01*
X43565764Y-125201309D01*
X43647818Y-125471808D01*
X43781068Y-125721101D01*
X43960392Y-125939608D01*
X44178899Y-126118932D01*
X44311858Y-126190000D01*
X44178899Y-126261068D01*
X43960392Y-126440392D01*
X43781068Y-126658899D01*
X43647818Y-126908192D01*
X43565764Y-127178691D01*
X43538057Y-127460000D01*
X43565764Y-127741309D01*
X43647818Y-128011808D01*
X43781068Y-128261101D01*
X43960392Y-128479608D01*
X44178899Y-128658932D01*
X44311858Y-128730000D01*
X44178899Y-128801068D01*
X43960392Y-128980392D01*
X43781068Y-129198899D01*
X43647818Y-129448192D01*
X43565764Y-129718691D01*
X43538057Y-130000000D01*
X43565764Y-130281309D01*
X43647818Y-130551808D01*
X43781068Y-130801101D01*
X43960392Y-131019608D01*
X44178899Y-131198932D01*
X44428192Y-131332182D01*
X44698691Y-131414236D01*
X44909508Y-131435000D01*
X45850492Y-131435000D01*
X46061309Y-131414236D01*
X46267417Y-131351715D01*
X44406043Y-133213089D01*
X44379853Y-133081426D01*
X44271680Y-132820273D01*
X44114637Y-132585241D01*
X43914759Y-132385363D01*
X43679727Y-132228320D01*
X43418574Y-132120147D01*
X43141335Y-132065000D01*
X42858665Y-132065000D01*
X42581426Y-132120147D01*
X42320273Y-132228320D01*
X42085241Y-132385363D01*
X41885363Y-132585241D01*
X41728320Y-132820273D01*
X41620147Y-133081426D01*
X41565000Y-133358665D01*
X41565000Y-133641335D01*
X41620147Y-133918574D01*
X41728320Y-134179727D01*
X41885363Y-134414759D01*
X42085241Y-134614637D01*
X42320273Y-134771680D01*
X42581426Y-134879853D01*
X42713089Y-134906043D01*
X38438574Y-139180559D01*
X38406710Y-139206709D01*
X38325907Y-139305168D01*
X38302364Y-139333855D01*
X38224828Y-139478914D01*
X38177082Y-139636312D01*
X38160960Y-139800000D01*
X38165001Y-139841028D01*
X38165000Y-142492070D01*
X38085241Y-142545363D01*
X37885363Y-142745241D01*
X37728320Y-142980273D01*
X37620147Y-143241426D01*
X37565000Y-143518665D01*
X35660000Y-143518665D01*
X35660000Y-133358665D01*
X37565000Y-133358665D01*
X37565000Y-133641335D01*
X37620147Y-133918574D01*
X37728320Y-134179727D01*
X37885363Y-134414759D01*
X38085241Y-134614637D01*
X38320273Y-134771680D01*
X38581426Y-134879853D01*
X38858665Y-134935000D01*
X39141335Y-134935000D01*
X39418574Y-134879853D01*
X39679727Y-134771680D01*
X39914759Y-134614637D01*
X40114637Y-134414759D01*
X40271680Y-134179727D01*
X40379853Y-133918574D01*
X40435000Y-133641335D01*
X40435000Y-133358665D01*
X40379853Y-133081426D01*
X40271680Y-132820273D01*
X40114637Y-132585241D01*
X39914759Y-132385363D01*
X39679727Y-132228320D01*
X39418574Y-132120147D01*
X39141335Y-132065000D01*
X38858665Y-132065000D01*
X38581426Y-132120147D01*
X38320273Y-132228320D01*
X38085241Y-132385363D01*
X37885363Y-132585241D01*
X37728320Y-132820273D01*
X37620147Y-133081426D01*
X37565000Y-133358665D01*
X35660000Y-133358665D01*
X35660000Y-129858665D01*
X37565000Y-129858665D01*
X37565000Y-130141335D01*
X37620147Y-130418574D01*
X37728320Y-130679727D01*
X37885363Y-130914759D01*
X38085241Y-131114637D01*
X38320273Y-131271680D01*
X38581426Y-131379853D01*
X38858665Y-131435000D01*
X39141335Y-131435000D01*
X39418574Y-131379853D01*
X39679727Y-131271680D01*
X39914759Y-131114637D01*
X40114637Y-130914759D01*
X40271680Y-130679727D01*
X40379853Y-130418574D01*
X40435000Y-130141335D01*
X40435000Y-129858665D01*
X40379853Y-129581426D01*
X40271680Y-129320273D01*
X40114637Y-129085241D01*
X39914759Y-128885363D01*
X39679727Y-128728320D01*
X39418574Y-128620147D01*
X39141335Y-128565000D01*
X38858665Y-128565000D01*
X38581426Y-128620147D01*
X38320273Y-128728320D01*
X38085241Y-128885363D01*
X37885363Y-129085241D01*
X37728320Y-129320273D01*
X37620147Y-129581426D01*
X37565000Y-129858665D01*
X35660000Y-129858665D01*
X35660000Y-125992702D01*
X38186903Y-125992702D01*
X38258486Y-126236671D01*
X38513996Y-126357571D01*
X38788184Y-126426300D01*
X39070512Y-126440217D01*
X39350130Y-126398787D01*
X39616292Y-126303603D01*
X39741514Y-126236671D01*
X39813097Y-125992702D01*
X39000000Y-125179605D01*
X38186903Y-125992702D01*
X35660000Y-125992702D01*
X35660000Y-125070512D01*
X37559783Y-125070512D01*
X37601213Y-125350130D01*
X37696397Y-125616292D01*
X37763329Y-125741514D01*
X38007298Y-125813097D01*
X38820395Y-125000000D01*
X39179605Y-125000000D01*
X39992702Y-125813097D01*
X40236671Y-125741514D01*
X40357571Y-125486004D01*
X40426300Y-125211816D01*
X40440217Y-124929488D01*
X40398787Y-124649870D01*
X40303603Y-124383708D01*
X40236671Y-124258486D01*
X39992702Y-124186903D01*
X39179605Y-125000000D01*
X38820395Y-125000000D01*
X38007298Y-124186903D01*
X37763329Y-124258486D01*
X37642429Y-124513996D01*
X37573700Y-124788184D01*
X37559783Y-125070512D01*
X35660000Y-125070512D01*
X35660000Y-124007298D01*
X38186903Y-124007298D01*
X39000000Y-124820395D01*
X39813097Y-124007298D01*
X39741514Y-123763329D01*
X39486004Y-123642429D01*
X39211816Y-123573700D01*
X38929488Y-123559783D01*
X38649870Y-123601213D01*
X38383708Y-123696397D01*
X38258486Y-123763329D01*
X38186903Y-124007298D01*
X35660000Y-124007298D01*
X35660000Y-122250000D01*
X38611928Y-122250000D01*
X38624188Y-122374482D01*
X38660498Y-122494180D01*
X38719463Y-122604494D01*
X38798815Y-122701185D01*
X38895506Y-122780537D01*
X39005820Y-122839502D01*
X39125518Y-122875812D01*
X39250000Y-122888072D01*
X39714250Y-122885000D01*
X39873000Y-122726250D01*
X39873000Y-121627000D01*
X40127000Y-121627000D01*
X40127000Y-122726250D01*
X40285750Y-122885000D01*
X40750000Y-122888072D01*
X40874482Y-122875812D01*
X40994180Y-122839502D01*
X41104494Y-122780537D01*
X41201185Y-122701185D01*
X41280537Y-122604494D01*
X41339502Y-122494180D01*
X41375812Y-122374482D01*
X41388072Y-122250000D01*
X41385000Y-121785750D01*
X41226250Y-121627000D01*
X40127000Y-121627000D01*
X39873000Y-121627000D01*
X38773750Y-121627000D01*
X38615000Y-121785750D01*
X38611928Y-122250000D01*
X35660000Y-122250000D01*
X35660000Y-111160000D01*
X87340001Y-111160000D01*
X87340000Y-174340000D01*
M02*
