M48
; DRILL file {KiCad (5.1.5)-2} date 2020/02/28 16:04:37
; FORMAT={-:-/ absolute / metric / decimal}
; #@! TF.CreationDate,2020-02-28T16:04:37+09:00
; #@! TF.GenerationSoftware,Kicad,Pcbnew,(5.1.5)-2
FMAT,2
METRIC
T1C0.600
T2C0.800
T3C0.900
T4C0.950
T5C1.020
T6C1.600
T7C3.250
%
G90
G05
T1
X37.5Y-112.5
X37.5Y-136.5
X38.0Y-155.5
X42.0Y-127.5
X45.5Y-146.0
X46.0Y-166.5
X50.5Y-112.5
X50.5Y-137.0
X55.0Y-155.5
X59.5Y-129.0
X60.0Y-115.0
X62.0Y-172.5
X63.0Y-140.0
X63.0Y-159.0
X67.5Y-115.0
X69.0Y-130.0
X70.5Y-165.0
X71.0Y-142.5
X71.0Y-155.0
X72.5Y-136.5
X75.0Y-115.0
X75.0Y-122.5
X78.5Y-140.0
X79.0Y-172.5
X82.5Y-115.0
X82.5Y-122.5
X83.0Y-164.0
X85.5Y-151.0
X86.0Y-127.0
X86.0Y-138.5
T2
X53.0Y-133.5
X53.0Y-143.66
X40.0Y-116.42
X40.0Y-118.96
X40.0Y-121.5
X45.38Y-114.76
X45.38Y-117.3
X45.38Y-119.84
X45.38Y-122.38
X45.38Y-124.92
X45.38Y-127.46
X45.38Y-130.0
X53.0Y-114.76
X53.0Y-117.3
X53.0Y-119.84
X53.0Y-122.38
X53.0Y-124.92
X53.0Y-127.46
X53.0Y-130.0
X80.5Y-160.0
X80.5Y-170.16
X39.0Y-133.5
X39.0Y-143.66
X43.0Y-133.5
X43.0Y-143.66
X49.0Y-133.5
X49.0Y-143.66
X84.5Y-160.0
X84.5Y-170.16
X39.0Y-125.0
X39.0Y-130.0
X59.5Y-123.5
X59.5Y-126.04
X67.12Y-123.5
X67.12Y-126.04
X43.0Y-149.0
X43.0Y-151.54
X50.62Y-149.0
X50.62Y-151.54
X59.5Y-134.5
X59.5Y-137.04
X59.5Y-139.58
X59.5Y-142.12
X59.5Y-144.66
X59.5Y-147.2
X59.5Y-149.74
X59.5Y-152.28
X59.5Y-154.82
X59.5Y-157.36
X59.5Y-159.9
X59.5Y-162.44
X59.5Y-164.98
X59.5Y-167.52
X59.5Y-170.06
X74.74Y-134.5
X74.74Y-137.04
X74.74Y-139.58
X74.74Y-142.12
X74.74Y-144.66
X74.74Y-147.2
X74.74Y-149.74
X74.74Y-152.28
X74.74Y-154.82
X74.74Y-157.36
X74.74Y-159.9
X74.74Y-162.44
X74.74Y-164.98
X74.74Y-167.52
X74.74Y-170.06
T3
X41.5Y-161.0
X42.77Y-158.46
X44.04Y-161.0
X45.31Y-158.46
X46.58Y-161.0
X47.85Y-158.46
X49.12Y-161.0
X50.39Y-158.46
T4
X82.5Y-130.5
X82.5Y-133.0
X82.5Y-135.5
X82.5Y-138.0
X82.5Y-145.0
X82.5Y-147.5
X82.5Y-150.0
X82.5Y-152.5
X82.5Y-155.0
T5
X39.62Y-172.43
X42.16Y-170.73
X49.73Y-172.43
X52.27Y-170.73
T6
X38.07Y-164.3
X53.82Y-164.3
T7
X40.23Y-167.35
X51.66Y-167.35
T0
M30
