G04 #@! TF.GenerationSoftware,KiCad,Pcbnew,(5.1.5)-2*
G04 #@! TF.CreationDate,2020-02-28T16:04:00+09:00*
G04 #@! TF.ProjectId,circuit_master_ver.2.0.0,63697263-7569-4745-9f6d-61737465725f,rev?*
G04 #@! TF.SameCoordinates,Original*
G04 #@! TF.FileFunction,Legend,Top*
G04 #@! TF.FilePolarity,Positive*
%FSLAX46Y46*%
G04 Gerber Fmt 4.6, Leading zero omitted, Abs format (unit mm)*
G04 Created by KiCad (PCBNEW (5.1.5)-2) date 2020-02-28 16:04:00*
%MOMM*%
%LPD*%
G04 APERTURE LIST*
%ADD10C,0.150000*%
%ADD11C,0.120000*%
G04 APERTURE END LIST*
D10*
X53404761Y-155666666D02*
X53452380Y-155571428D01*
X53452380Y-155380952D01*
X53404761Y-155285714D01*
X53309523Y-155238095D01*
X53261904Y-155238095D01*
X53166666Y-155285714D01*
X53119047Y-155380952D01*
X53119047Y-155523809D01*
X53071428Y-155619047D01*
X52976190Y-155666666D01*
X52928571Y-155666666D01*
X52833333Y-155619047D01*
X52785714Y-155523809D01*
X52785714Y-155380952D01*
X52833333Y-155285714D01*
X53404761Y-154428571D02*
X53452380Y-154523809D01*
X53452380Y-154714285D01*
X53404761Y-154809523D01*
X53309523Y-154857142D01*
X52928571Y-154857142D01*
X52833333Y-154809523D01*
X52785714Y-154714285D01*
X52785714Y-154523809D01*
X52833333Y-154428571D01*
X52928571Y-154380952D01*
X53023809Y-154380952D01*
X53119047Y-154857142D01*
X53452380Y-153952380D02*
X52785714Y-153952380D01*
X52976190Y-153952380D02*
X52880952Y-153904761D01*
X52833333Y-153857142D01*
X52785714Y-153761904D01*
X52785714Y-153666666D01*
X52785714Y-153428571D02*
X53452380Y-153190476D01*
X52785714Y-152952380D01*
X53452380Y-152428571D02*
X53404761Y-152523809D01*
X53357142Y-152571428D01*
X53261904Y-152619047D01*
X52976190Y-152619047D01*
X52880952Y-152571428D01*
X52833333Y-152523809D01*
X52785714Y-152428571D01*
X52785714Y-152285714D01*
X52833333Y-152190476D01*
X52880952Y-152142857D01*
X52976190Y-152095238D01*
X53261904Y-152095238D01*
X53357142Y-152142857D01*
X53404761Y-152190476D01*
X53452380Y-152285714D01*
X53452380Y-152428571D01*
X53404761Y-150952380D02*
X53452380Y-150857142D01*
X53452380Y-150666666D01*
X53404761Y-150571428D01*
X53309523Y-150523809D01*
X53261904Y-150523809D01*
X53166666Y-150571428D01*
X53119047Y-150666666D01*
X53119047Y-150809523D01*
X53071428Y-150904761D01*
X52976190Y-150952380D01*
X52928571Y-150952380D01*
X52833333Y-150904761D01*
X52785714Y-150809523D01*
X52785714Y-150666666D01*
X52833333Y-150571428D01*
X53404761Y-149714285D02*
X53452380Y-149809523D01*
X53452380Y-150000000D01*
X53404761Y-150095238D01*
X53309523Y-150142857D01*
X52928571Y-150142857D01*
X52833333Y-150095238D01*
X52785714Y-150000000D01*
X52785714Y-149809523D01*
X52833333Y-149714285D01*
X52928571Y-149666666D01*
X53023809Y-149666666D01*
X53119047Y-150142857D01*
X53452380Y-149095238D02*
X53404761Y-149190476D01*
X53309523Y-149238095D01*
X52452380Y-149238095D01*
X53404761Y-148333333D02*
X53452380Y-148428571D01*
X53452380Y-148619047D01*
X53404761Y-148714285D01*
X53309523Y-148761904D01*
X52928571Y-148761904D01*
X52833333Y-148714285D01*
X52785714Y-148619047D01*
X52785714Y-148428571D01*
X52833333Y-148333333D01*
X52928571Y-148285714D01*
X53023809Y-148285714D01*
X53119047Y-148761904D01*
X53404761Y-147428571D02*
X53452380Y-147523809D01*
X53452380Y-147714285D01*
X53404761Y-147809523D01*
X53357142Y-147857142D01*
X53261904Y-147904761D01*
X52976190Y-147904761D01*
X52880952Y-147857142D01*
X52833333Y-147809523D01*
X52785714Y-147714285D01*
X52785714Y-147523809D01*
X52833333Y-147428571D01*
X52785714Y-147142857D02*
X52785714Y-146761904D01*
X52452380Y-147000000D02*
X53309523Y-147000000D01*
X53404761Y-146952380D01*
X53452380Y-146857142D01*
X53452380Y-146761904D01*
X53452380Y-146285714D02*
X53404761Y-146380952D01*
X53357142Y-146428571D01*
X53261904Y-146476190D01*
X52976190Y-146476190D01*
X52880952Y-146428571D01*
X52833333Y-146380952D01*
X52785714Y-146285714D01*
X52785714Y-146142857D01*
X52833333Y-146047619D01*
X52880952Y-146000000D01*
X52976190Y-145952380D01*
X53261904Y-145952380D01*
X53357142Y-146000000D01*
X53404761Y-146047619D01*
X53452380Y-146142857D01*
X53452380Y-146285714D01*
X53452380Y-145523809D02*
X52785714Y-145523809D01*
X52976190Y-145523809D02*
X52880952Y-145476190D01*
X52833333Y-145428571D01*
X52785714Y-145333333D01*
X52785714Y-145238095D01*
X61185714Y-118579761D02*
X61328571Y-118627380D01*
X61566666Y-118627380D01*
X61661904Y-118579761D01*
X61709523Y-118532142D01*
X61757142Y-118436904D01*
X61757142Y-118341666D01*
X61709523Y-118246428D01*
X61661904Y-118198809D01*
X61566666Y-118151190D01*
X61376190Y-118103571D01*
X61280952Y-118055952D01*
X61233333Y-118008333D01*
X61185714Y-117913095D01*
X61185714Y-117817857D01*
X61233333Y-117722619D01*
X61280952Y-117675000D01*
X61376190Y-117627380D01*
X61614285Y-117627380D01*
X61757142Y-117675000D01*
X62090476Y-117960714D02*
X62280952Y-118627380D01*
X62471428Y-118151190D01*
X62661904Y-118627380D01*
X62852380Y-117960714D01*
X63233333Y-118627380D02*
X63233333Y-117960714D01*
X63233333Y-117627380D02*
X63185714Y-117675000D01*
X63233333Y-117722619D01*
X63280952Y-117675000D01*
X63233333Y-117627380D01*
X63233333Y-117722619D01*
X63566666Y-117960714D02*
X63947619Y-117960714D01*
X63709523Y-117627380D02*
X63709523Y-118484523D01*
X63757142Y-118579761D01*
X63852380Y-118627380D01*
X63947619Y-118627380D01*
X64709523Y-118579761D02*
X64614285Y-118627380D01*
X64423809Y-118627380D01*
X64328571Y-118579761D01*
X64280952Y-118532142D01*
X64233333Y-118436904D01*
X64233333Y-118151190D01*
X64280952Y-118055952D01*
X64328571Y-118008333D01*
X64423809Y-117960714D01*
X64614285Y-117960714D01*
X64709523Y-118008333D01*
X65138095Y-118627380D02*
X65138095Y-117627380D01*
X65566666Y-118627380D02*
X65566666Y-118103571D01*
X65519047Y-118008333D01*
X65423809Y-117960714D01*
X65280952Y-117960714D01*
X65185714Y-118008333D01*
X65138095Y-118055952D01*
X59971428Y-120277380D02*
X59971428Y-119277380D01*
X60352380Y-119277380D01*
X60447619Y-119325000D01*
X60495238Y-119372619D01*
X60542857Y-119467857D01*
X60542857Y-119610714D01*
X60495238Y-119705952D01*
X60447619Y-119753571D01*
X60352380Y-119801190D01*
X59971428Y-119801190D01*
X61542857Y-120182142D02*
X61495238Y-120229761D01*
X61352380Y-120277380D01*
X61257142Y-120277380D01*
X61114285Y-120229761D01*
X61019047Y-120134523D01*
X60971428Y-120039285D01*
X60923809Y-119848809D01*
X60923809Y-119705952D01*
X60971428Y-119515476D01*
X61019047Y-119420238D01*
X61114285Y-119325000D01*
X61257142Y-119277380D01*
X61352380Y-119277380D01*
X61495238Y-119325000D01*
X61542857Y-119372619D01*
X61971428Y-119896428D02*
X62733333Y-119896428D01*
X62542857Y-120086904D02*
X62733333Y-119896428D01*
X62542857Y-119705952D01*
X62161904Y-119705952D02*
X61971428Y-119896428D01*
X62161904Y-120086904D01*
X63161904Y-120229761D02*
X63304761Y-120277380D01*
X63542857Y-120277380D01*
X63638095Y-120229761D01*
X63685714Y-120182142D01*
X63733333Y-120086904D01*
X63733333Y-119991666D01*
X63685714Y-119896428D01*
X63638095Y-119848809D01*
X63542857Y-119801190D01*
X63352380Y-119753571D01*
X63257142Y-119705952D01*
X63209523Y-119658333D01*
X63161904Y-119563095D01*
X63161904Y-119467857D01*
X63209523Y-119372619D01*
X63257142Y-119325000D01*
X63352380Y-119277380D01*
X63590476Y-119277380D01*
X63733333Y-119325000D01*
X64542857Y-120229761D02*
X64447619Y-120277380D01*
X64257142Y-120277380D01*
X64161904Y-120229761D01*
X64114285Y-120134523D01*
X64114285Y-119753571D01*
X64161904Y-119658333D01*
X64257142Y-119610714D01*
X64447619Y-119610714D01*
X64542857Y-119658333D01*
X64590476Y-119753571D01*
X64590476Y-119848809D01*
X64114285Y-119944047D01*
X65019047Y-120277380D02*
X65019047Y-119610714D01*
X65019047Y-119801190D02*
X65066666Y-119705952D01*
X65114285Y-119658333D01*
X65209523Y-119610714D01*
X65304761Y-119610714D01*
X65542857Y-119610714D02*
X65780952Y-120277380D01*
X66019047Y-119610714D01*
X66542857Y-120277380D02*
X66447619Y-120229761D01*
X66400000Y-120182142D01*
X66352380Y-120086904D01*
X66352380Y-119801190D01*
X66400000Y-119705952D01*
X66447619Y-119658333D01*
X66542857Y-119610714D01*
X66685714Y-119610714D01*
X66780952Y-119658333D01*
X66828571Y-119705952D01*
X66876190Y-119801190D01*
X66876190Y-120086904D01*
X66828571Y-120182142D01*
X66780952Y-120229761D01*
X66685714Y-120277380D01*
X66542857Y-120277380D01*
D11*
X60770000Y-135770000D02*
X60770000Y-133230000D01*
X60770000Y-133230000D02*
X58100000Y-133230000D01*
X58100000Y-135770000D02*
X58100000Y-174000000D01*
X58100000Y-130560000D02*
X58100000Y-133230000D01*
X73470000Y-133230000D02*
X76140000Y-133230000D01*
X73470000Y-133230000D02*
X73470000Y-171330000D01*
X73470000Y-171330000D02*
X76140000Y-171330000D01*
X60770000Y-135770000D02*
X58100000Y-135770000D01*
X60770000Y-135770000D02*
X60770000Y-171330000D01*
X60770000Y-171330000D02*
X58100000Y-171330000D01*
X58100000Y-174000000D02*
X76140000Y-174000000D01*
X76140000Y-174000000D02*
X76140000Y-130560000D01*
X76140000Y-130560000D02*
X58100000Y-130560000D01*
X40370000Y-125030000D02*
X40370000Y-129970000D01*
X37630000Y-125030000D02*
X37630000Y-129970000D01*
X40370000Y-125030000D02*
X40055000Y-125030000D01*
X37945000Y-125030000D02*
X37630000Y-125030000D01*
X40370000Y-129970000D02*
X40055000Y-129970000D01*
X37945000Y-129970000D02*
X37630000Y-129970000D01*
X41500000Y-156690000D02*
X54060000Y-156690000D01*
X54060000Y-156690000D02*
X54060000Y-162810000D01*
X37830000Y-161000000D02*
X37830000Y-162810000D01*
X37830000Y-165800000D02*
X37830000Y-178210000D01*
X54060000Y-178210000D02*
X37830000Y-178210000D01*
X54060000Y-165790000D02*
X54060000Y-178210000D01*
X84960000Y-127940000D02*
X78990000Y-127940000D01*
X78990000Y-127940000D02*
X78990000Y-140560000D01*
X78990000Y-140560000D02*
X84960000Y-140560000D01*
X84960000Y-140560000D02*
X84960000Y-127940000D01*
X84950000Y-131250000D02*
X84200000Y-131250000D01*
X84200000Y-131250000D02*
X84200000Y-137250000D01*
X84200000Y-137250000D02*
X84950000Y-137250000D01*
X84950000Y-137250000D02*
X84950000Y-131250000D01*
X84950000Y-127950000D02*
X84200000Y-127950000D01*
X84200000Y-127950000D02*
X84200000Y-129750000D01*
X84200000Y-129750000D02*
X84950000Y-129750000D01*
X84950000Y-129750000D02*
X84950000Y-127950000D01*
X84950000Y-138750000D02*
X84200000Y-138750000D01*
X84200000Y-138750000D02*
X84200000Y-140550000D01*
X84200000Y-140550000D02*
X84950000Y-140550000D01*
X84950000Y-140550000D02*
X84950000Y-138750000D01*
X82700000Y-127950000D02*
X82700000Y-128700000D01*
X82700000Y-128700000D02*
X79750000Y-128700000D01*
X79750000Y-128700000D02*
X79750000Y-134250000D01*
X82700000Y-140550000D02*
X82700000Y-139800000D01*
X82700000Y-139800000D02*
X79750000Y-139800000D01*
X79750000Y-139800000D02*
X79750000Y-134250000D01*
X85250000Y-128900000D02*
X85250000Y-127650000D01*
X85250000Y-127650000D02*
X84000000Y-127650000D01*
X84960000Y-142440000D02*
X78990000Y-142440000D01*
X78990000Y-142440000D02*
X78990000Y-157560000D01*
X78990000Y-157560000D02*
X84960000Y-157560000D01*
X84960000Y-157560000D02*
X84960000Y-142440000D01*
X84950000Y-145750000D02*
X84200000Y-145750000D01*
X84200000Y-145750000D02*
X84200000Y-154250000D01*
X84200000Y-154250000D02*
X84950000Y-154250000D01*
X84950000Y-154250000D02*
X84950000Y-145750000D01*
X84950000Y-142450000D02*
X84200000Y-142450000D01*
X84200000Y-142450000D02*
X84200000Y-144250000D01*
X84200000Y-144250000D02*
X84950000Y-144250000D01*
X84950000Y-144250000D02*
X84950000Y-142450000D01*
X84950000Y-155750000D02*
X84200000Y-155750000D01*
X84200000Y-155750000D02*
X84200000Y-157550000D01*
X84200000Y-157550000D02*
X84950000Y-157550000D01*
X84950000Y-157550000D02*
X84950000Y-155750000D01*
X82700000Y-142450000D02*
X82700000Y-143200000D01*
X82700000Y-143200000D02*
X79750000Y-143200000D01*
X79750000Y-143200000D02*
X79750000Y-150000000D01*
X82700000Y-157550000D02*
X82700000Y-156800000D01*
X82700000Y-156800000D02*
X79750000Y-156800000D01*
X79750000Y-156800000D02*
X79750000Y-150000000D01*
X85250000Y-143400000D02*
X85250000Y-142150000D01*
X85250000Y-142150000D02*
X84000000Y-142150000D01*
X41700000Y-120900000D02*
X41700000Y-117050000D01*
X41122045Y-121282631D02*
G75*
G03X41700000Y-120900000I-1122045J2322631D01*
G01*
X38901193Y-121316400D02*
G75*
G02X37400000Y-118960000I1098807J2356400D01*
G01*
X38901193Y-116603600D02*
G75*
G03X37400000Y-118960000I1098807J-2356400D01*
G01*
X41112264Y-116657617D02*
G75*
G02X41700000Y-117050000I-1112264J-2302383D01*
G01*
X41630000Y-141850000D02*
X44370000Y-141850000D01*
X44370000Y-141850000D02*
X44370000Y-135310000D01*
X44370000Y-135310000D02*
X41630000Y-135310000D01*
X41630000Y-135310000D02*
X41630000Y-141850000D01*
X43000000Y-142620000D02*
X43000000Y-141850000D01*
X43000000Y-134540000D02*
X43000000Y-135310000D01*
X39000000Y-134540000D02*
X39000000Y-135310000D01*
X39000000Y-142620000D02*
X39000000Y-141850000D01*
X37630000Y-135310000D02*
X37630000Y-141850000D01*
X40370000Y-135310000D02*
X37630000Y-135310000D01*
X40370000Y-141850000D02*
X40370000Y-135310000D01*
X37630000Y-141850000D02*
X40370000Y-141850000D01*
X80500000Y-169120000D02*
X80500000Y-168350000D01*
X80500000Y-161040000D02*
X80500000Y-161810000D01*
X81870000Y-168350000D02*
X81870000Y-161810000D01*
X79130000Y-168350000D02*
X81870000Y-168350000D01*
X79130000Y-161810000D02*
X79130000Y-168350000D01*
X81870000Y-161810000D02*
X79130000Y-161810000D01*
X83130000Y-168350000D02*
X85870000Y-168350000D01*
X85870000Y-168350000D02*
X85870000Y-161810000D01*
X85870000Y-161810000D02*
X83130000Y-161810000D01*
X83130000Y-161810000D02*
X83130000Y-168350000D01*
X84500000Y-169120000D02*
X84500000Y-168350000D01*
X84500000Y-161040000D02*
X84500000Y-161810000D01*
X53000000Y-134540000D02*
X53000000Y-135310000D01*
X53000000Y-142620000D02*
X53000000Y-141850000D01*
X51630000Y-135310000D02*
X51630000Y-141850000D01*
X54370000Y-135310000D02*
X51630000Y-135310000D01*
X54370000Y-141850000D02*
X54370000Y-135310000D01*
X51630000Y-141850000D02*
X54370000Y-141850000D01*
X50370000Y-135310000D02*
X47630000Y-135310000D01*
X47630000Y-135310000D02*
X47630000Y-141850000D01*
X47630000Y-141850000D02*
X50370000Y-141850000D01*
X50370000Y-141850000D02*
X50370000Y-135310000D01*
X49000000Y-134540000D02*
X49000000Y-135310000D01*
X49000000Y-142620000D02*
X49000000Y-141850000D01*
X41860000Y-146580000D02*
X51760000Y-146580000D01*
X41860000Y-153960000D02*
X51760000Y-153960000D01*
X41860000Y-146580000D02*
X41860000Y-153960000D01*
X51760000Y-146580000D02*
X51760000Y-153960000D01*
X41620000Y-146340000D02*
X43004000Y-146340000D01*
X41620000Y-146340000D02*
X41620000Y-147723000D01*
X44780000Y-148365000D02*
X44780000Y-149635000D01*
X44780000Y-149635000D02*
X48840000Y-149635000D01*
X48840000Y-149635000D02*
X48840000Y-148365000D01*
X48840000Y-148365000D02*
X44780000Y-148365000D01*
X44780000Y-148485000D02*
X46133333Y-148485000D01*
X44780000Y-148605000D02*
X46133333Y-148605000D01*
X44780000Y-148725000D02*
X46133333Y-148725000D01*
X44780000Y-148845000D02*
X46133333Y-148845000D01*
X44780000Y-148965000D02*
X46133333Y-148965000D01*
X44780000Y-149085000D02*
X46133333Y-149085000D01*
X44780000Y-149205000D02*
X46133333Y-149205000D01*
X44780000Y-149325000D02*
X46133333Y-149325000D01*
X44780000Y-149445000D02*
X46133333Y-149445000D01*
X44780000Y-149565000D02*
X46133333Y-149565000D01*
X46133333Y-148365000D02*
X46133333Y-149635000D01*
X44780000Y-150905000D02*
X44780000Y-152175000D01*
X44780000Y-152175000D02*
X48840000Y-152175000D01*
X48840000Y-152175000D02*
X48840000Y-150905000D01*
X48840000Y-150905000D02*
X44780000Y-150905000D01*
X44780000Y-151025000D02*
X46133333Y-151025000D01*
X44780000Y-151145000D02*
X46133333Y-151145000D01*
X44780000Y-151265000D02*
X46133333Y-151265000D01*
X44780000Y-151385000D02*
X46133333Y-151385000D01*
X44780000Y-151505000D02*
X46133333Y-151505000D01*
X44780000Y-151625000D02*
X46133333Y-151625000D01*
X44780000Y-151745000D02*
X46133333Y-151745000D01*
X44780000Y-151865000D02*
X46133333Y-151865000D01*
X44780000Y-151985000D02*
X46133333Y-151985000D01*
X44780000Y-152105000D02*
X46133333Y-152105000D01*
X46133333Y-150905000D02*
X46133333Y-152175000D01*
X62633333Y-125405000D02*
X62633333Y-126675000D01*
X61280000Y-126605000D02*
X62633333Y-126605000D01*
X61280000Y-126485000D02*
X62633333Y-126485000D01*
X61280000Y-126365000D02*
X62633333Y-126365000D01*
X61280000Y-126245000D02*
X62633333Y-126245000D01*
X61280000Y-126125000D02*
X62633333Y-126125000D01*
X61280000Y-126005000D02*
X62633333Y-126005000D01*
X61280000Y-125885000D02*
X62633333Y-125885000D01*
X61280000Y-125765000D02*
X62633333Y-125765000D01*
X61280000Y-125645000D02*
X62633333Y-125645000D01*
X61280000Y-125525000D02*
X62633333Y-125525000D01*
X65340000Y-125405000D02*
X61280000Y-125405000D01*
X65340000Y-126675000D02*
X65340000Y-125405000D01*
X61280000Y-126675000D02*
X65340000Y-126675000D01*
X61280000Y-125405000D02*
X61280000Y-126675000D01*
X62633333Y-122865000D02*
X62633333Y-124135000D01*
X61280000Y-124065000D02*
X62633333Y-124065000D01*
X61280000Y-123945000D02*
X62633333Y-123945000D01*
X61280000Y-123825000D02*
X62633333Y-123825000D01*
X61280000Y-123705000D02*
X62633333Y-123705000D01*
X61280000Y-123585000D02*
X62633333Y-123585000D01*
X61280000Y-123465000D02*
X62633333Y-123465000D01*
X61280000Y-123345000D02*
X62633333Y-123345000D01*
X61280000Y-123225000D02*
X62633333Y-123225000D01*
X61280000Y-123105000D02*
X62633333Y-123105000D01*
X61280000Y-122985000D02*
X62633333Y-122985000D01*
X65340000Y-122865000D02*
X61280000Y-122865000D01*
X65340000Y-124135000D02*
X65340000Y-122865000D01*
X61280000Y-124135000D02*
X65340000Y-124135000D01*
X61280000Y-122865000D02*
X61280000Y-124135000D01*
X58120000Y-120840000D02*
X58120000Y-122223000D01*
X58120000Y-120840000D02*
X59504000Y-120840000D01*
X68260000Y-121080000D02*
X68260000Y-128460000D01*
X58360000Y-121080000D02*
X58360000Y-128460000D01*
X58360000Y-128460000D02*
X68260000Y-128460000D01*
X58360000Y-121080000D02*
X68260000Y-121080000D01*
X48190000Y-131330000D02*
G75*
G02X50190000Y-131330000I1000000J0D01*
G01*
X50190000Y-131330000D02*
X51440000Y-131330000D01*
X51440000Y-131330000D02*
X51440000Y-113430000D01*
X51440000Y-113430000D02*
X46940000Y-113430000D01*
X46940000Y-113430000D02*
X46940000Y-131330000D01*
X46940000Y-131330000D02*
X48190000Y-131330000D01*
X54440000Y-131390000D02*
X54440000Y-113370000D01*
X54440000Y-113370000D02*
X43940000Y-113370000D01*
X43940000Y-113370000D02*
X43940000Y-131390000D01*
X43940000Y-131390000D02*
X54440000Y-131390000D01*
D10*
X66385714Y-129966666D02*
X66861904Y-129966666D01*
X66290476Y-130252380D02*
X66623809Y-129252380D01*
X66957142Y-130252380D01*
X67814285Y-130252380D02*
X67242857Y-130252380D01*
X67528571Y-130252380D02*
X67528571Y-129252380D01*
X67433333Y-129395238D01*
X67338095Y-129490476D01*
X67242857Y-129538095D01*
X41857142Y-127666666D02*
X41904761Y-127714285D01*
X41952380Y-127857142D01*
X41952380Y-127952380D01*
X41904761Y-128095238D01*
X41809523Y-128190476D01*
X41714285Y-128238095D01*
X41523809Y-128285714D01*
X41380952Y-128285714D01*
X41190476Y-128238095D01*
X41095238Y-128190476D01*
X41000000Y-128095238D01*
X40952380Y-127952380D01*
X40952380Y-127857142D01*
X41000000Y-127714285D01*
X41047619Y-127666666D01*
X41952380Y-126714285D02*
X41952380Y-127285714D01*
X41952380Y-127000000D02*
X40952380Y-127000000D01*
X41095238Y-127095238D01*
X41190476Y-127190476D01*
X41238095Y-127285714D01*
X46166666Y-155452380D02*
X46166666Y-156166666D01*
X46119047Y-156309523D01*
X46023809Y-156404761D01*
X45880952Y-156452380D01*
X45785714Y-156452380D01*
X47166666Y-156452380D02*
X46595238Y-156452380D01*
X46880952Y-156452380D02*
X46880952Y-155452380D01*
X46785714Y-155595238D01*
X46690476Y-155690476D01*
X46595238Y-155738095D01*
X85502380Y-134583333D02*
X86216666Y-134583333D01*
X86359523Y-134630952D01*
X86454761Y-134726190D01*
X86502380Y-134869047D01*
X86502380Y-134964285D01*
X85597619Y-134154761D02*
X85550000Y-134107142D01*
X85502380Y-134011904D01*
X85502380Y-133773809D01*
X85550000Y-133678571D01*
X85597619Y-133630952D01*
X85692857Y-133583333D01*
X85788095Y-133583333D01*
X85930952Y-133630952D01*
X86502380Y-134202380D01*
X86502380Y-133583333D01*
X85502380Y-150333333D02*
X86216666Y-150333333D01*
X86359523Y-150380952D01*
X86454761Y-150476190D01*
X86502380Y-150619047D01*
X86502380Y-150714285D01*
X85502380Y-149952380D02*
X85502380Y-149333333D01*
X85883333Y-149666666D01*
X85883333Y-149523809D01*
X85930952Y-149428571D01*
X85978571Y-149380952D01*
X86073809Y-149333333D01*
X86311904Y-149333333D01*
X86407142Y-149380952D01*
X86454761Y-149428571D01*
X86502380Y-149523809D01*
X86502380Y-149809523D01*
X86454761Y-149904761D01*
X86407142Y-149952380D01*
X36987619Y-119055238D02*
X36940000Y-119150476D01*
X36844761Y-119245714D01*
X36701904Y-119388571D01*
X36654285Y-119483809D01*
X36654285Y-119579047D01*
X36892380Y-119531428D02*
X36844761Y-119626666D01*
X36749523Y-119721904D01*
X36559047Y-119769523D01*
X36225714Y-119769523D01*
X36035238Y-119721904D01*
X35940000Y-119626666D01*
X35892380Y-119531428D01*
X35892380Y-119340952D01*
X35940000Y-119245714D01*
X36035238Y-119150476D01*
X36225714Y-119102857D01*
X36559047Y-119102857D01*
X36749523Y-119150476D01*
X36844761Y-119245714D01*
X36892380Y-119340952D01*
X36892380Y-119531428D01*
X36892380Y-118150476D02*
X36892380Y-118721904D01*
X36892380Y-118436190D02*
X35892380Y-118436190D01*
X36035238Y-118531428D01*
X36130476Y-118626666D01*
X36178095Y-118721904D01*
X45652380Y-138746666D02*
X45176190Y-139080000D01*
X45652380Y-139318095D02*
X44652380Y-139318095D01*
X44652380Y-138937142D01*
X44700000Y-138841904D01*
X44747619Y-138794285D01*
X44842857Y-138746666D01*
X44985714Y-138746666D01*
X45080952Y-138794285D01*
X45128571Y-138841904D01*
X45176190Y-138937142D01*
X45176190Y-139318095D01*
X45652380Y-137794285D02*
X45652380Y-138365714D01*
X45652380Y-138080000D02*
X44652380Y-138080000D01*
X44795238Y-138175238D01*
X44890476Y-138270476D01*
X44938095Y-138365714D01*
X37352380Y-138746666D02*
X36876190Y-139080000D01*
X37352380Y-139318095D02*
X36352380Y-139318095D01*
X36352380Y-138937142D01*
X36400000Y-138841904D01*
X36447619Y-138794285D01*
X36542857Y-138746666D01*
X36685714Y-138746666D01*
X36780952Y-138794285D01*
X36828571Y-138841904D01*
X36876190Y-138937142D01*
X36876190Y-139318095D01*
X36447619Y-138365714D02*
X36400000Y-138318095D01*
X36352380Y-138222857D01*
X36352380Y-137984761D01*
X36400000Y-137889523D01*
X36447619Y-137841904D01*
X36542857Y-137794285D01*
X36638095Y-137794285D01*
X36780952Y-137841904D01*
X37352380Y-138413333D01*
X37352380Y-137794285D01*
X78852380Y-165246666D02*
X78376190Y-165580000D01*
X78852380Y-165818095D02*
X77852380Y-165818095D01*
X77852380Y-165437142D01*
X77900000Y-165341904D01*
X77947619Y-165294285D01*
X78042857Y-165246666D01*
X78185714Y-165246666D01*
X78280952Y-165294285D01*
X78328571Y-165341904D01*
X78376190Y-165437142D01*
X78376190Y-165818095D01*
X77852380Y-164913333D02*
X77852380Y-164294285D01*
X78233333Y-164627619D01*
X78233333Y-164484761D01*
X78280952Y-164389523D01*
X78328571Y-164341904D01*
X78423809Y-164294285D01*
X78661904Y-164294285D01*
X78757142Y-164341904D01*
X78804761Y-164389523D01*
X78852380Y-164484761D01*
X78852380Y-164770476D01*
X78804761Y-164865714D01*
X78757142Y-164913333D01*
X87252380Y-165166666D02*
X86776190Y-165500000D01*
X87252380Y-165738095D02*
X86252380Y-165738095D01*
X86252380Y-165357142D01*
X86300000Y-165261904D01*
X86347619Y-165214285D01*
X86442857Y-165166666D01*
X86585714Y-165166666D01*
X86680952Y-165214285D01*
X86728571Y-165261904D01*
X86776190Y-165357142D01*
X86776190Y-165738095D01*
X86585714Y-164309523D02*
X87252380Y-164309523D01*
X86204761Y-164547619D02*
X86919047Y-164785714D01*
X86919047Y-164166666D01*
X55652380Y-138666666D02*
X55176190Y-139000000D01*
X55652380Y-139238095D02*
X54652380Y-139238095D01*
X54652380Y-138857142D01*
X54700000Y-138761904D01*
X54747619Y-138714285D01*
X54842857Y-138666666D01*
X54985714Y-138666666D01*
X55080952Y-138714285D01*
X55128571Y-138761904D01*
X55176190Y-138857142D01*
X55176190Y-139238095D01*
X54652380Y-137761904D02*
X54652380Y-138238095D01*
X55128571Y-138285714D01*
X55080952Y-138238095D01*
X55033333Y-138142857D01*
X55033333Y-137904761D01*
X55080952Y-137809523D01*
X55128571Y-137761904D01*
X55223809Y-137714285D01*
X55461904Y-137714285D01*
X55557142Y-137761904D01*
X55604761Y-137809523D01*
X55652380Y-137904761D01*
X55652380Y-138142857D01*
X55604761Y-138238095D01*
X55557142Y-138285714D01*
X47352380Y-138746666D02*
X46876190Y-139080000D01*
X47352380Y-139318095D02*
X46352380Y-139318095D01*
X46352380Y-138937142D01*
X46400000Y-138841904D01*
X46447619Y-138794285D01*
X46542857Y-138746666D01*
X46685714Y-138746666D01*
X46780952Y-138794285D01*
X46828571Y-138841904D01*
X46876190Y-138937142D01*
X46876190Y-139318095D01*
X46352380Y-137889523D02*
X46352380Y-138080000D01*
X46400000Y-138175238D01*
X46447619Y-138222857D01*
X46590476Y-138318095D01*
X46780952Y-138365714D01*
X47161904Y-138365714D01*
X47257142Y-138318095D01*
X47304761Y-138270476D01*
X47352380Y-138175238D01*
X47352380Y-137984761D01*
X47304761Y-137889523D01*
X47257142Y-137841904D01*
X47161904Y-137794285D01*
X46923809Y-137794285D01*
X46828571Y-137841904D01*
X46780952Y-137889523D01*
X46733333Y-137984761D01*
X46733333Y-138175238D01*
X46780952Y-138270476D01*
X46828571Y-138318095D01*
X46923809Y-138365714D01*
X45476666Y-145984761D02*
X45619523Y-146032380D01*
X45857619Y-146032380D01*
X45952857Y-145984761D01*
X46000476Y-145937142D01*
X46048095Y-145841904D01*
X46048095Y-145746666D01*
X46000476Y-145651428D01*
X45952857Y-145603809D01*
X45857619Y-145556190D01*
X45667142Y-145508571D01*
X45571904Y-145460952D01*
X45524285Y-145413333D01*
X45476666Y-145318095D01*
X45476666Y-145222857D01*
X45524285Y-145127619D01*
X45571904Y-145080000D01*
X45667142Y-145032380D01*
X45905238Y-145032380D01*
X46048095Y-145080000D01*
X46381428Y-145032380D02*
X46619523Y-146032380D01*
X46810000Y-145318095D01*
X47000476Y-146032380D01*
X47238571Y-145032380D01*
X48143333Y-146032380D02*
X47571904Y-146032380D01*
X47857619Y-146032380D02*
X47857619Y-145032380D01*
X47762380Y-145175238D01*
X47667142Y-145270476D01*
X47571904Y-145318095D01*
X57804761Y-126233333D02*
X57852380Y-126090476D01*
X57852380Y-125852380D01*
X57804761Y-125757142D01*
X57757142Y-125709523D01*
X57661904Y-125661904D01*
X57566666Y-125661904D01*
X57471428Y-125709523D01*
X57423809Y-125757142D01*
X57376190Y-125852380D01*
X57328571Y-126042857D01*
X57280952Y-126138095D01*
X57233333Y-126185714D01*
X57138095Y-126233333D01*
X57042857Y-126233333D01*
X56947619Y-126185714D01*
X56900000Y-126138095D01*
X56852380Y-126042857D01*
X56852380Y-125804761D01*
X56900000Y-125661904D01*
X56852380Y-125328571D02*
X57852380Y-125090476D01*
X57138095Y-124900000D01*
X57852380Y-124709523D01*
X56852380Y-124471428D01*
X56947619Y-124138095D02*
X56900000Y-124090476D01*
X56852380Y-123995238D01*
X56852380Y-123757142D01*
X56900000Y-123661904D01*
X56947619Y-123614285D01*
X57042857Y-123566666D01*
X57138095Y-123566666D01*
X57280952Y-123614285D01*
X57852380Y-124185714D01*
X57852380Y-123566666D01*
X48428095Y-111952380D02*
X48428095Y-112761904D01*
X48475714Y-112857142D01*
X48523333Y-112904761D01*
X48618571Y-112952380D01*
X48809047Y-112952380D01*
X48904285Y-112904761D01*
X48951904Y-112857142D01*
X48999523Y-112761904D01*
X48999523Y-111952380D01*
X49999523Y-112952380D02*
X49428095Y-112952380D01*
X49713809Y-112952380D02*
X49713809Y-111952380D01*
X49618571Y-112095238D01*
X49523333Y-112190476D01*
X49428095Y-112238095D01*
M02*
