G04 #@! TF.GenerationSoftware,KiCad,Pcbnew,(5.1.5)-2*
G04 #@! TF.CreationDate,2020-02-28T16:04:00+09:00*
G04 #@! TF.ProjectId,circuit_master_ver.2.0.0,63697263-7569-4745-9f6d-61737465725f,rev?*
G04 #@! TF.SameCoordinates,Original*
G04 #@! TF.FileFunction,Soldermask,Bot*
G04 #@! TF.FilePolarity,Negative*
%FSLAX46Y46*%
G04 Gerber Fmt 4.6, Leading zero omitted, Abs format (unit mm)*
G04 Created by KiCad (PCBNEW (5.1.5)-2) date 2020-02-28 16:04:00*
%MOMM*%
%LPD*%
G04 APERTURE LIST*
%ADD10C,0.100000*%
G04 APERTURE END LIST*
D10*
G36*
X49963642Y-171659781D02*
G01*
X50109414Y-171720162D01*
X50109416Y-171720163D01*
X50240608Y-171807822D01*
X50352178Y-171919392D01*
X50439837Y-172050584D01*
X50439838Y-172050586D01*
X50500219Y-172196358D01*
X50531000Y-172351107D01*
X50531000Y-172508893D01*
X50500219Y-172663642D01*
X50439838Y-172809414D01*
X50439837Y-172809416D01*
X50352178Y-172940608D01*
X50240608Y-173052178D01*
X50109416Y-173139837D01*
X50109415Y-173139838D01*
X50109414Y-173139838D01*
X49963642Y-173200219D01*
X49808893Y-173231000D01*
X49651107Y-173231000D01*
X49496358Y-173200219D01*
X49350586Y-173139838D01*
X49350585Y-173139838D01*
X49350584Y-173139837D01*
X49219392Y-173052178D01*
X49107822Y-172940608D01*
X49020163Y-172809416D01*
X49020162Y-172809414D01*
X48959781Y-172663642D01*
X48929000Y-172508893D01*
X48929000Y-172351107D01*
X48959781Y-172196358D01*
X49020162Y-172050586D01*
X49020163Y-172050584D01*
X49107822Y-171919392D01*
X49219392Y-171807822D01*
X49350584Y-171720163D01*
X49350586Y-171720162D01*
X49496358Y-171659781D01*
X49651107Y-171629000D01*
X49808893Y-171629000D01*
X49963642Y-171659781D01*
G37*
G36*
X39853642Y-171659781D02*
G01*
X39999414Y-171720162D01*
X39999416Y-171720163D01*
X40130608Y-171807822D01*
X40242178Y-171919392D01*
X40329837Y-172050584D01*
X40329838Y-172050586D01*
X40390219Y-172196358D01*
X40421000Y-172351107D01*
X40421000Y-172508893D01*
X40390219Y-172663642D01*
X40329838Y-172809414D01*
X40329837Y-172809416D01*
X40242178Y-172940608D01*
X40130608Y-173052178D01*
X39999416Y-173139837D01*
X39999415Y-173139838D01*
X39999414Y-173139838D01*
X39853642Y-173200219D01*
X39698893Y-173231000D01*
X39541107Y-173231000D01*
X39386358Y-173200219D01*
X39240586Y-173139838D01*
X39240585Y-173139838D01*
X39240584Y-173139837D01*
X39109392Y-173052178D01*
X38997822Y-172940608D01*
X38910163Y-172809416D01*
X38910162Y-172809414D01*
X38849781Y-172663642D01*
X38819000Y-172508893D01*
X38819000Y-172351107D01*
X38849781Y-172196358D01*
X38910162Y-172050586D01*
X38910163Y-172050584D01*
X38997822Y-171919392D01*
X39109392Y-171807822D01*
X39240584Y-171720163D01*
X39240586Y-171720162D01*
X39386358Y-171659781D01*
X39541107Y-171629000D01*
X39698893Y-171629000D01*
X39853642Y-171659781D01*
G37*
G36*
X42393642Y-169959781D02*
G01*
X42539414Y-170020162D01*
X42539416Y-170020163D01*
X42670608Y-170107822D01*
X42782178Y-170219392D01*
X42869837Y-170350584D01*
X42869838Y-170350586D01*
X42930219Y-170496358D01*
X42961000Y-170651107D01*
X42961000Y-170808893D01*
X42930219Y-170963642D01*
X42869838Y-171109414D01*
X42869837Y-171109416D01*
X42782178Y-171240608D01*
X42670608Y-171352178D01*
X42539416Y-171439837D01*
X42539415Y-171439838D01*
X42539414Y-171439838D01*
X42393642Y-171500219D01*
X42238893Y-171531000D01*
X42081107Y-171531000D01*
X41926358Y-171500219D01*
X41780586Y-171439838D01*
X41780585Y-171439838D01*
X41780584Y-171439837D01*
X41649392Y-171352178D01*
X41537822Y-171240608D01*
X41450163Y-171109416D01*
X41450162Y-171109414D01*
X41389781Y-170963642D01*
X41359000Y-170808893D01*
X41359000Y-170651107D01*
X41389781Y-170496358D01*
X41450162Y-170350586D01*
X41450163Y-170350584D01*
X41537822Y-170219392D01*
X41649392Y-170107822D01*
X41780584Y-170020163D01*
X41780586Y-170020162D01*
X41926358Y-169959781D01*
X42081107Y-169929000D01*
X42238893Y-169929000D01*
X42393642Y-169959781D01*
G37*
G36*
X52503642Y-169959781D02*
G01*
X52649414Y-170020162D01*
X52649416Y-170020163D01*
X52780608Y-170107822D01*
X52892178Y-170219392D01*
X52979837Y-170350584D01*
X52979838Y-170350586D01*
X53040219Y-170496358D01*
X53071000Y-170651107D01*
X53071000Y-170808893D01*
X53040219Y-170963642D01*
X52979838Y-171109414D01*
X52979837Y-171109416D01*
X52892178Y-171240608D01*
X52780608Y-171352178D01*
X52649416Y-171439837D01*
X52649415Y-171439838D01*
X52649414Y-171439838D01*
X52503642Y-171500219D01*
X52348893Y-171531000D01*
X52191107Y-171531000D01*
X52036358Y-171500219D01*
X51890586Y-171439838D01*
X51890585Y-171439838D01*
X51890584Y-171439837D01*
X51759392Y-171352178D01*
X51647822Y-171240608D01*
X51560163Y-171109416D01*
X51560162Y-171109414D01*
X51499781Y-170963642D01*
X51469000Y-170808893D01*
X51469000Y-170651107D01*
X51499781Y-170496358D01*
X51560162Y-170350586D01*
X51560163Y-170350584D01*
X51647822Y-170219392D01*
X51759392Y-170107822D01*
X51890584Y-170020163D01*
X51890586Y-170020162D01*
X52036358Y-169959781D01*
X52191107Y-169929000D01*
X52348893Y-169929000D01*
X52503642Y-169959781D01*
G37*
G36*
X80748228Y-169341703D02*
G01*
X80903100Y-169405853D01*
X81042481Y-169498985D01*
X81161015Y-169617519D01*
X81254147Y-169756900D01*
X81318297Y-169911772D01*
X81351000Y-170076184D01*
X81351000Y-170243816D01*
X81318297Y-170408228D01*
X81254147Y-170563100D01*
X81161015Y-170702481D01*
X81042481Y-170821015D01*
X80903100Y-170914147D01*
X80748228Y-170978297D01*
X80583816Y-171011000D01*
X80416184Y-171011000D01*
X80251772Y-170978297D01*
X80096900Y-170914147D01*
X79957519Y-170821015D01*
X79838985Y-170702481D01*
X79745853Y-170563100D01*
X79681703Y-170408228D01*
X79649000Y-170243816D01*
X79649000Y-170076184D01*
X79681703Y-169911772D01*
X79745853Y-169756900D01*
X79838985Y-169617519D01*
X79957519Y-169498985D01*
X80096900Y-169405853D01*
X80251772Y-169341703D01*
X80416184Y-169309000D01*
X80583816Y-169309000D01*
X80748228Y-169341703D01*
G37*
G36*
X84748228Y-169341703D02*
G01*
X84903100Y-169405853D01*
X85042481Y-169498985D01*
X85161015Y-169617519D01*
X85254147Y-169756900D01*
X85318297Y-169911772D01*
X85351000Y-170076184D01*
X85351000Y-170243816D01*
X85318297Y-170408228D01*
X85254147Y-170563100D01*
X85161015Y-170702481D01*
X85042481Y-170821015D01*
X84903100Y-170914147D01*
X84748228Y-170978297D01*
X84583816Y-171011000D01*
X84416184Y-171011000D01*
X84251772Y-170978297D01*
X84096900Y-170914147D01*
X83957519Y-170821015D01*
X83838985Y-170702481D01*
X83745853Y-170563100D01*
X83681703Y-170408228D01*
X83649000Y-170243816D01*
X83649000Y-170076184D01*
X83681703Y-169911772D01*
X83745853Y-169756900D01*
X83838985Y-169617519D01*
X83957519Y-169498985D01*
X84096900Y-169405853D01*
X84251772Y-169341703D01*
X84416184Y-169309000D01*
X84583816Y-169309000D01*
X84748228Y-169341703D01*
G37*
G36*
X59748228Y-169241703D02*
G01*
X59903100Y-169305853D01*
X60042481Y-169398985D01*
X60161015Y-169517519D01*
X60254147Y-169656900D01*
X60318297Y-169811772D01*
X60351000Y-169976184D01*
X60351000Y-170143816D01*
X60318297Y-170308228D01*
X60254147Y-170463100D01*
X60161015Y-170602481D01*
X60042481Y-170721015D01*
X59903100Y-170814147D01*
X59748228Y-170878297D01*
X59583816Y-170911000D01*
X59416184Y-170911000D01*
X59251772Y-170878297D01*
X59096900Y-170814147D01*
X58957519Y-170721015D01*
X58838985Y-170602481D01*
X58745853Y-170463100D01*
X58681703Y-170308228D01*
X58649000Y-170143816D01*
X58649000Y-169976184D01*
X58681703Y-169811772D01*
X58745853Y-169656900D01*
X58838985Y-169517519D01*
X58957519Y-169398985D01*
X59096900Y-169305853D01*
X59251772Y-169241703D01*
X59416184Y-169209000D01*
X59583816Y-169209000D01*
X59748228Y-169241703D01*
G37*
G36*
X74988228Y-169241703D02*
G01*
X75143100Y-169305853D01*
X75282481Y-169398985D01*
X75401015Y-169517519D01*
X75494147Y-169656900D01*
X75558297Y-169811772D01*
X75591000Y-169976184D01*
X75591000Y-170143816D01*
X75558297Y-170308228D01*
X75494147Y-170463100D01*
X75401015Y-170602481D01*
X75282481Y-170721015D01*
X75143100Y-170814147D01*
X74988228Y-170878297D01*
X74823816Y-170911000D01*
X74656184Y-170911000D01*
X74491772Y-170878297D01*
X74336900Y-170814147D01*
X74197519Y-170721015D01*
X74078985Y-170602481D01*
X73985853Y-170463100D01*
X73921703Y-170308228D01*
X73889000Y-170143816D01*
X73889000Y-169976184D01*
X73921703Y-169811772D01*
X73985853Y-169656900D01*
X74078985Y-169517519D01*
X74197519Y-169398985D01*
X74336900Y-169305853D01*
X74491772Y-169241703D01*
X74656184Y-169209000D01*
X74823816Y-169209000D01*
X74988228Y-169241703D01*
G37*
G36*
X40718871Y-165738408D02*
G01*
X41023883Y-165864748D01*
X41298387Y-166048166D01*
X41531834Y-166281613D01*
X41715252Y-166556117D01*
X41841592Y-166861129D01*
X41906000Y-167184928D01*
X41906000Y-167515072D01*
X41841592Y-167838871D01*
X41715252Y-168143883D01*
X41531834Y-168418387D01*
X41298387Y-168651834D01*
X41023883Y-168835252D01*
X40718871Y-168961592D01*
X40556971Y-168993796D01*
X40395073Y-169026000D01*
X40064927Y-169026000D01*
X39903029Y-168993796D01*
X39741129Y-168961592D01*
X39436117Y-168835252D01*
X39161613Y-168651834D01*
X38928166Y-168418387D01*
X38744748Y-168143883D01*
X38618408Y-167838871D01*
X38554000Y-167515072D01*
X38554000Y-167184928D01*
X38618408Y-166861129D01*
X38744748Y-166556117D01*
X38928166Y-166281613D01*
X39161613Y-166048166D01*
X39436117Y-165864748D01*
X39741129Y-165738408D01*
X40064927Y-165674000D01*
X40395073Y-165674000D01*
X40718871Y-165738408D01*
G37*
G36*
X52148871Y-165738408D02*
G01*
X52453883Y-165864748D01*
X52728387Y-166048166D01*
X52961834Y-166281613D01*
X53145252Y-166556117D01*
X53271592Y-166861129D01*
X53336000Y-167184928D01*
X53336000Y-167515072D01*
X53271592Y-167838871D01*
X53145252Y-168143883D01*
X52961834Y-168418387D01*
X52728387Y-168651834D01*
X52453883Y-168835252D01*
X52148871Y-168961592D01*
X51986971Y-168993796D01*
X51825073Y-169026000D01*
X51494927Y-169026000D01*
X51333029Y-168993796D01*
X51171129Y-168961592D01*
X50866117Y-168835252D01*
X50591613Y-168651834D01*
X50358166Y-168418387D01*
X50174748Y-168143883D01*
X50048408Y-167838871D01*
X49984000Y-167515072D01*
X49984000Y-167184928D01*
X50048408Y-166861129D01*
X50174748Y-166556117D01*
X50358166Y-166281613D01*
X50591613Y-166048166D01*
X50866117Y-165864748D01*
X51171129Y-165738408D01*
X51494927Y-165674000D01*
X51825073Y-165674000D01*
X52148871Y-165738408D01*
G37*
G36*
X59748228Y-166701703D02*
G01*
X59903100Y-166765853D01*
X60042481Y-166858985D01*
X60161015Y-166977519D01*
X60254147Y-167116900D01*
X60318297Y-167271772D01*
X60351000Y-167436184D01*
X60351000Y-167603816D01*
X60318297Y-167768228D01*
X60254147Y-167923100D01*
X60161015Y-168062481D01*
X60042481Y-168181015D01*
X59903100Y-168274147D01*
X59748228Y-168338297D01*
X59583816Y-168371000D01*
X59416184Y-168371000D01*
X59251772Y-168338297D01*
X59096900Y-168274147D01*
X58957519Y-168181015D01*
X58838985Y-168062481D01*
X58745853Y-167923100D01*
X58681703Y-167768228D01*
X58649000Y-167603816D01*
X58649000Y-167436184D01*
X58681703Y-167271772D01*
X58745853Y-167116900D01*
X58838985Y-166977519D01*
X58957519Y-166858985D01*
X59096900Y-166765853D01*
X59251772Y-166701703D01*
X59416184Y-166669000D01*
X59583816Y-166669000D01*
X59748228Y-166701703D01*
G37*
G36*
X74988228Y-166701703D02*
G01*
X75143100Y-166765853D01*
X75282481Y-166858985D01*
X75401015Y-166977519D01*
X75494147Y-167116900D01*
X75558297Y-167271772D01*
X75591000Y-167436184D01*
X75591000Y-167603816D01*
X75558297Y-167768228D01*
X75494147Y-167923100D01*
X75401015Y-168062481D01*
X75282481Y-168181015D01*
X75143100Y-168274147D01*
X74988228Y-168338297D01*
X74823816Y-168371000D01*
X74656184Y-168371000D01*
X74491772Y-168338297D01*
X74336900Y-168274147D01*
X74197519Y-168181015D01*
X74078985Y-168062481D01*
X73985853Y-167923100D01*
X73921703Y-167768228D01*
X73889000Y-167603816D01*
X73889000Y-167436184D01*
X73921703Y-167271772D01*
X73985853Y-167116900D01*
X74078985Y-166977519D01*
X74197519Y-166858985D01*
X74336900Y-166765853D01*
X74491772Y-166701703D01*
X74656184Y-166669000D01*
X74823816Y-166669000D01*
X74988228Y-166701703D01*
G37*
G36*
X59748228Y-164161703D02*
G01*
X59903100Y-164225853D01*
X60042481Y-164318985D01*
X60161015Y-164437519D01*
X60254147Y-164576900D01*
X60318297Y-164731772D01*
X60351000Y-164896184D01*
X60351000Y-165063816D01*
X60318297Y-165228228D01*
X60254147Y-165383100D01*
X60161015Y-165522481D01*
X60042481Y-165641015D01*
X59903100Y-165734147D01*
X59748228Y-165798297D01*
X59583816Y-165831000D01*
X59416184Y-165831000D01*
X59251772Y-165798297D01*
X59096900Y-165734147D01*
X58957519Y-165641015D01*
X58838985Y-165522481D01*
X58745853Y-165383100D01*
X58681703Y-165228228D01*
X58649000Y-165063816D01*
X58649000Y-164896184D01*
X58681703Y-164731772D01*
X58745853Y-164576900D01*
X58838985Y-164437519D01*
X58957519Y-164318985D01*
X59096900Y-164225853D01*
X59251772Y-164161703D01*
X59416184Y-164129000D01*
X59583816Y-164129000D01*
X59748228Y-164161703D01*
G37*
G36*
X74988228Y-164161703D02*
G01*
X75143100Y-164225853D01*
X75282481Y-164318985D01*
X75401015Y-164437519D01*
X75494147Y-164576900D01*
X75558297Y-164731772D01*
X75591000Y-164896184D01*
X75591000Y-165063816D01*
X75558297Y-165228228D01*
X75494147Y-165383100D01*
X75401015Y-165522481D01*
X75282481Y-165641015D01*
X75143100Y-165734147D01*
X74988228Y-165798297D01*
X74823816Y-165831000D01*
X74656184Y-165831000D01*
X74491772Y-165798297D01*
X74336900Y-165734147D01*
X74197519Y-165641015D01*
X74078985Y-165522481D01*
X73985853Y-165383100D01*
X73921703Y-165228228D01*
X73889000Y-165063816D01*
X73889000Y-164896184D01*
X73921703Y-164731772D01*
X73985853Y-164576900D01*
X74078985Y-164437519D01*
X74197519Y-164318985D01*
X74336900Y-164225853D01*
X74491772Y-164161703D01*
X74656184Y-164129000D01*
X74823816Y-164129000D01*
X74988228Y-164161703D01*
G37*
G36*
X38449487Y-163048996D02*
G01*
X38686253Y-163147068D01*
X38686255Y-163147069D01*
X38852717Y-163258295D01*
X38899339Y-163289447D01*
X39080553Y-163470661D01*
X39222932Y-163683747D01*
X39321004Y-163920513D01*
X39371000Y-164171861D01*
X39371000Y-164428139D01*
X39321004Y-164679487D01*
X39231245Y-164896184D01*
X39222931Y-164916255D01*
X39080553Y-165129339D01*
X38899339Y-165310553D01*
X38686255Y-165452931D01*
X38686254Y-165452932D01*
X38686253Y-165452932D01*
X38449487Y-165551004D01*
X38198139Y-165601000D01*
X37941861Y-165601000D01*
X37690513Y-165551004D01*
X37453747Y-165452932D01*
X37453746Y-165452932D01*
X37453745Y-165452931D01*
X37240661Y-165310553D01*
X37059447Y-165129339D01*
X36917069Y-164916255D01*
X36908755Y-164896184D01*
X36818996Y-164679487D01*
X36769000Y-164428139D01*
X36769000Y-164171861D01*
X36818996Y-163920513D01*
X36917068Y-163683747D01*
X37059447Y-163470661D01*
X37240661Y-163289447D01*
X37287283Y-163258295D01*
X37453745Y-163147069D01*
X37453747Y-163147068D01*
X37690513Y-163048996D01*
X37941861Y-162999000D01*
X38198139Y-162999000D01*
X38449487Y-163048996D01*
G37*
G36*
X54199487Y-163048996D02*
G01*
X54436253Y-163147068D01*
X54436255Y-163147069D01*
X54602717Y-163258295D01*
X54649339Y-163289447D01*
X54830553Y-163470661D01*
X54972932Y-163683747D01*
X55071004Y-163920513D01*
X55121000Y-164171861D01*
X55121000Y-164428139D01*
X55071004Y-164679487D01*
X54981245Y-164896184D01*
X54972931Y-164916255D01*
X54830553Y-165129339D01*
X54649339Y-165310553D01*
X54436255Y-165452931D01*
X54436254Y-165452932D01*
X54436253Y-165452932D01*
X54199487Y-165551004D01*
X53948139Y-165601000D01*
X53691861Y-165601000D01*
X53440513Y-165551004D01*
X53203747Y-165452932D01*
X53203746Y-165452932D01*
X53203745Y-165452931D01*
X52990661Y-165310553D01*
X52809447Y-165129339D01*
X52667069Y-164916255D01*
X52658755Y-164896184D01*
X52568996Y-164679487D01*
X52519000Y-164428139D01*
X52519000Y-164171861D01*
X52568996Y-163920513D01*
X52667068Y-163683747D01*
X52809447Y-163470661D01*
X52990661Y-163289447D01*
X53037283Y-163258295D01*
X53203745Y-163147069D01*
X53203747Y-163147068D01*
X53440513Y-163048996D01*
X53691861Y-162999000D01*
X53948139Y-162999000D01*
X54199487Y-163048996D01*
G37*
G36*
X59748228Y-161621703D02*
G01*
X59903100Y-161685853D01*
X60042481Y-161778985D01*
X60161015Y-161897519D01*
X60254147Y-162036900D01*
X60318297Y-162191772D01*
X60351000Y-162356184D01*
X60351000Y-162523816D01*
X60318297Y-162688228D01*
X60254147Y-162843100D01*
X60161015Y-162982481D01*
X60042481Y-163101015D01*
X59903100Y-163194147D01*
X59748228Y-163258297D01*
X59583816Y-163291000D01*
X59416184Y-163291000D01*
X59251772Y-163258297D01*
X59096900Y-163194147D01*
X58957519Y-163101015D01*
X58838985Y-162982481D01*
X58745853Y-162843100D01*
X58681703Y-162688228D01*
X58649000Y-162523816D01*
X58649000Y-162356184D01*
X58681703Y-162191772D01*
X58745853Y-162036900D01*
X58838985Y-161897519D01*
X58957519Y-161778985D01*
X59096900Y-161685853D01*
X59251772Y-161621703D01*
X59416184Y-161589000D01*
X59583816Y-161589000D01*
X59748228Y-161621703D01*
G37*
G36*
X74988228Y-161621703D02*
G01*
X75143100Y-161685853D01*
X75282481Y-161778985D01*
X75401015Y-161897519D01*
X75494147Y-162036900D01*
X75558297Y-162191772D01*
X75591000Y-162356184D01*
X75591000Y-162523816D01*
X75558297Y-162688228D01*
X75494147Y-162843100D01*
X75401015Y-162982481D01*
X75282481Y-163101015D01*
X75143100Y-163194147D01*
X74988228Y-163258297D01*
X74823816Y-163291000D01*
X74656184Y-163291000D01*
X74491772Y-163258297D01*
X74336900Y-163194147D01*
X74197519Y-163101015D01*
X74078985Y-162982481D01*
X73985853Y-162843100D01*
X73921703Y-162688228D01*
X73889000Y-162523816D01*
X73889000Y-162356184D01*
X73921703Y-162191772D01*
X73985853Y-162036900D01*
X74078985Y-161897519D01*
X74197519Y-161778985D01*
X74336900Y-161685853D01*
X74491772Y-161621703D01*
X74656184Y-161589000D01*
X74823816Y-161589000D01*
X74988228Y-161621703D01*
G37*
G36*
X49353642Y-160229781D02*
G01*
X49477872Y-160281239D01*
X49499416Y-160290163D01*
X49630608Y-160377822D01*
X49742178Y-160489392D01*
X49829837Y-160620584D01*
X49829838Y-160620586D01*
X49890219Y-160766358D01*
X49921000Y-160921107D01*
X49921000Y-161078893D01*
X49890219Y-161233642D01*
X49829838Y-161379414D01*
X49829837Y-161379416D01*
X49742178Y-161510608D01*
X49630608Y-161622178D01*
X49499416Y-161709837D01*
X49499415Y-161709838D01*
X49499414Y-161709838D01*
X49353642Y-161770219D01*
X49198893Y-161801000D01*
X49041107Y-161801000D01*
X48886358Y-161770219D01*
X48740586Y-161709838D01*
X48740585Y-161709838D01*
X48740584Y-161709837D01*
X48609392Y-161622178D01*
X48497822Y-161510608D01*
X48410163Y-161379416D01*
X48410162Y-161379414D01*
X48349781Y-161233642D01*
X48319000Y-161078893D01*
X48319000Y-160921107D01*
X48349781Y-160766358D01*
X48410162Y-160620586D01*
X48410163Y-160620584D01*
X48497822Y-160489392D01*
X48609392Y-160377822D01*
X48740584Y-160290163D01*
X48762128Y-160281239D01*
X48886358Y-160229781D01*
X49041107Y-160199000D01*
X49198893Y-160199000D01*
X49353642Y-160229781D01*
G37*
G36*
X46813642Y-160229781D02*
G01*
X46937872Y-160281239D01*
X46959416Y-160290163D01*
X47090608Y-160377822D01*
X47202178Y-160489392D01*
X47289837Y-160620584D01*
X47289838Y-160620586D01*
X47350219Y-160766358D01*
X47381000Y-160921107D01*
X47381000Y-161078893D01*
X47350219Y-161233642D01*
X47289838Y-161379414D01*
X47289837Y-161379416D01*
X47202178Y-161510608D01*
X47090608Y-161622178D01*
X46959416Y-161709837D01*
X46959415Y-161709838D01*
X46959414Y-161709838D01*
X46813642Y-161770219D01*
X46658893Y-161801000D01*
X46501107Y-161801000D01*
X46346358Y-161770219D01*
X46200586Y-161709838D01*
X46200585Y-161709838D01*
X46200584Y-161709837D01*
X46069392Y-161622178D01*
X45957822Y-161510608D01*
X45870163Y-161379416D01*
X45870162Y-161379414D01*
X45809781Y-161233642D01*
X45779000Y-161078893D01*
X45779000Y-160921107D01*
X45809781Y-160766358D01*
X45870162Y-160620586D01*
X45870163Y-160620584D01*
X45957822Y-160489392D01*
X46069392Y-160377822D01*
X46200584Y-160290163D01*
X46222128Y-160281239D01*
X46346358Y-160229781D01*
X46501107Y-160199000D01*
X46658893Y-160199000D01*
X46813642Y-160229781D01*
G37*
G36*
X44273642Y-160229781D02*
G01*
X44397872Y-160281239D01*
X44419416Y-160290163D01*
X44550608Y-160377822D01*
X44662178Y-160489392D01*
X44749837Y-160620584D01*
X44749838Y-160620586D01*
X44810219Y-160766358D01*
X44841000Y-160921107D01*
X44841000Y-161078893D01*
X44810219Y-161233642D01*
X44749838Y-161379414D01*
X44749837Y-161379416D01*
X44662178Y-161510608D01*
X44550608Y-161622178D01*
X44419416Y-161709837D01*
X44419415Y-161709838D01*
X44419414Y-161709838D01*
X44273642Y-161770219D01*
X44118893Y-161801000D01*
X43961107Y-161801000D01*
X43806358Y-161770219D01*
X43660586Y-161709838D01*
X43660585Y-161709838D01*
X43660584Y-161709837D01*
X43529392Y-161622178D01*
X43417822Y-161510608D01*
X43330163Y-161379416D01*
X43330162Y-161379414D01*
X43269781Y-161233642D01*
X43239000Y-161078893D01*
X43239000Y-160921107D01*
X43269781Y-160766358D01*
X43330162Y-160620586D01*
X43330163Y-160620584D01*
X43417822Y-160489392D01*
X43529392Y-160377822D01*
X43660584Y-160290163D01*
X43682128Y-160281239D01*
X43806358Y-160229781D01*
X43961107Y-160199000D01*
X44118893Y-160199000D01*
X44273642Y-160229781D01*
G37*
G36*
X42152546Y-160203134D02*
G01*
X42187010Y-160213589D01*
X42218761Y-160230560D01*
X42246597Y-160253403D01*
X42269440Y-160281239D01*
X42286411Y-160312990D01*
X42296866Y-160347454D01*
X42301000Y-160389425D01*
X42301000Y-161610575D01*
X42296866Y-161652546D01*
X42286411Y-161687010D01*
X42269440Y-161718761D01*
X42246597Y-161746597D01*
X42218761Y-161769440D01*
X42187010Y-161786411D01*
X42152546Y-161796866D01*
X42110575Y-161801000D01*
X40889425Y-161801000D01*
X40847454Y-161796866D01*
X40812990Y-161786411D01*
X40781239Y-161769440D01*
X40753403Y-161746597D01*
X40730560Y-161718761D01*
X40713589Y-161687010D01*
X40703134Y-161652546D01*
X40699000Y-161610575D01*
X40699000Y-160389425D01*
X40703134Y-160347454D01*
X40713589Y-160312990D01*
X40730560Y-160281239D01*
X40753403Y-160253403D01*
X40781239Y-160230560D01*
X40812990Y-160213589D01*
X40847454Y-160203134D01*
X40889425Y-160199000D01*
X42110575Y-160199000D01*
X42152546Y-160203134D01*
G37*
G36*
X84748228Y-159181703D02*
G01*
X84903100Y-159245853D01*
X85042481Y-159338985D01*
X85161015Y-159457519D01*
X85254147Y-159596900D01*
X85318297Y-159751772D01*
X85351000Y-159916184D01*
X85351000Y-160083816D01*
X85318297Y-160248228D01*
X85254147Y-160403100D01*
X85161015Y-160542481D01*
X85042481Y-160661015D01*
X84903100Y-160754147D01*
X84748228Y-160818297D01*
X84583816Y-160851000D01*
X84416184Y-160851000D01*
X84251772Y-160818297D01*
X84096900Y-160754147D01*
X83957519Y-160661015D01*
X83838985Y-160542481D01*
X83745853Y-160403100D01*
X83681703Y-160248228D01*
X83649000Y-160083816D01*
X83649000Y-159916184D01*
X83681703Y-159751772D01*
X83745853Y-159596900D01*
X83838985Y-159457519D01*
X83957519Y-159338985D01*
X84096900Y-159245853D01*
X84251772Y-159181703D01*
X84416184Y-159149000D01*
X84583816Y-159149000D01*
X84748228Y-159181703D01*
G37*
G36*
X80748228Y-159181703D02*
G01*
X80903100Y-159245853D01*
X81042481Y-159338985D01*
X81161015Y-159457519D01*
X81254147Y-159596900D01*
X81318297Y-159751772D01*
X81351000Y-159916184D01*
X81351000Y-160083816D01*
X81318297Y-160248228D01*
X81254147Y-160403100D01*
X81161015Y-160542481D01*
X81042481Y-160661015D01*
X80903100Y-160754147D01*
X80748228Y-160818297D01*
X80583816Y-160851000D01*
X80416184Y-160851000D01*
X80251772Y-160818297D01*
X80096900Y-160754147D01*
X79957519Y-160661015D01*
X79838985Y-160542481D01*
X79745853Y-160403100D01*
X79681703Y-160248228D01*
X79649000Y-160083816D01*
X79649000Y-159916184D01*
X79681703Y-159751772D01*
X79745853Y-159596900D01*
X79838985Y-159457519D01*
X79957519Y-159338985D01*
X80096900Y-159245853D01*
X80251772Y-159181703D01*
X80416184Y-159149000D01*
X80583816Y-159149000D01*
X80748228Y-159181703D01*
G37*
G36*
X74988228Y-159081703D02*
G01*
X75143100Y-159145853D01*
X75282481Y-159238985D01*
X75401015Y-159357519D01*
X75494147Y-159496900D01*
X75558297Y-159651772D01*
X75591000Y-159816184D01*
X75591000Y-159983816D01*
X75558297Y-160148228D01*
X75494147Y-160303100D01*
X75401015Y-160442481D01*
X75282481Y-160561015D01*
X75143100Y-160654147D01*
X74988228Y-160718297D01*
X74823816Y-160751000D01*
X74656184Y-160751000D01*
X74491772Y-160718297D01*
X74336900Y-160654147D01*
X74197519Y-160561015D01*
X74078985Y-160442481D01*
X73985853Y-160303100D01*
X73921703Y-160148228D01*
X73889000Y-159983816D01*
X73889000Y-159816184D01*
X73921703Y-159651772D01*
X73985853Y-159496900D01*
X74078985Y-159357519D01*
X74197519Y-159238985D01*
X74336900Y-159145853D01*
X74491772Y-159081703D01*
X74656184Y-159049000D01*
X74823816Y-159049000D01*
X74988228Y-159081703D01*
G37*
G36*
X59748228Y-159081703D02*
G01*
X59903100Y-159145853D01*
X60042481Y-159238985D01*
X60161015Y-159357519D01*
X60254147Y-159496900D01*
X60318297Y-159651772D01*
X60351000Y-159816184D01*
X60351000Y-159983816D01*
X60318297Y-160148228D01*
X60254147Y-160303100D01*
X60161015Y-160442481D01*
X60042481Y-160561015D01*
X59903100Y-160654147D01*
X59748228Y-160718297D01*
X59583816Y-160751000D01*
X59416184Y-160751000D01*
X59251772Y-160718297D01*
X59096900Y-160654147D01*
X58957519Y-160561015D01*
X58838985Y-160442481D01*
X58745853Y-160303100D01*
X58681703Y-160148228D01*
X58649000Y-159983816D01*
X58649000Y-159816184D01*
X58681703Y-159651772D01*
X58745853Y-159496900D01*
X58838985Y-159357519D01*
X58957519Y-159238985D01*
X59096900Y-159145853D01*
X59251772Y-159081703D01*
X59416184Y-159049000D01*
X59583816Y-159049000D01*
X59748228Y-159081703D01*
G37*
G36*
X48083642Y-157689781D02*
G01*
X48229414Y-157750162D01*
X48229416Y-157750163D01*
X48360608Y-157837822D01*
X48472178Y-157949392D01*
X48559837Y-158080584D01*
X48559838Y-158080586D01*
X48620219Y-158226358D01*
X48651000Y-158381107D01*
X48651000Y-158538893D01*
X48620219Y-158693642D01*
X48559838Y-158839414D01*
X48559837Y-158839416D01*
X48472178Y-158970608D01*
X48360608Y-159082178D01*
X48229416Y-159169837D01*
X48229415Y-159169838D01*
X48229414Y-159169838D01*
X48083642Y-159230219D01*
X47928893Y-159261000D01*
X47771107Y-159261000D01*
X47616358Y-159230219D01*
X47470586Y-159169838D01*
X47470585Y-159169838D01*
X47470584Y-159169837D01*
X47339392Y-159082178D01*
X47227822Y-158970608D01*
X47140163Y-158839416D01*
X47140162Y-158839414D01*
X47079781Y-158693642D01*
X47049000Y-158538893D01*
X47049000Y-158381107D01*
X47079781Y-158226358D01*
X47140162Y-158080586D01*
X47140163Y-158080584D01*
X47227822Y-157949392D01*
X47339392Y-157837822D01*
X47470584Y-157750163D01*
X47470586Y-157750162D01*
X47616358Y-157689781D01*
X47771107Y-157659000D01*
X47928893Y-157659000D01*
X48083642Y-157689781D01*
G37*
G36*
X50623642Y-157689781D02*
G01*
X50769414Y-157750162D01*
X50769416Y-157750163D01*
X50900608Y-157837822D01*
X51012178Y-157949392D01*
X51099837Y-158080584D01*
X51099838Y-158080586D01*
X51160219Y-158226358D01*
X51191000Y-158381107D01*
X51191000Y-158538893D01*
X51160219Y-158693642D01*
X51099838Y-158839414D01*
X51099837Y-158839416D01*
X51012178Y-158970608D01*
X50900608Y-159082178D01*
X50769416Y-159169837D01*
X50769415Y-159169838D01*
X50769414Y-159169838D01*
X50623642Y-159230219D01*
X50468893Y-159261000D01*
X50311107Y-159261000D01*
X50156358Y-159230219D01*
X50010586Y-159169838D01*
X50010585Y-159169838D01*
X50010584Y-159169837D01*
X49879392Y-159082178D01*
X49767822Y-158970608D01*
X49680163Y-158839416D01*
X49680162Y-158839414D01*
X49619781Y-158693642D01*
X49589000Y-158538893D01*
X49589000Y-158381107D01*
X49619781Y-158226358D01*
X49680162Y-158080586D01*
X49680163Y-158080584D01*
X49767822Y-157949392D01*
X49879392Y-157837822D01*
X50010584Y-157750163D01*
X50010586Y-157750162D01*
X50156358Y-157689781D01*
X50311107Y-157659000D01*
X50468893Y-157659000D01*
X50623642Y-157689781D01*
G37*
G36*
X45543642Y-157689781D02*
G01*
X45689414Y-157750162D01*
X45689416Y-157750163D01*
X45820608Y-157837822D01*
X45932178Y-157949392D01*
X46019837Y-158080584D01*
X46019838Y-158080586D01*
X46080219Y-158226358D01*
X46111000Y-158381107D01*
X46111000Y-158538893D01*
X46080219Y-158693642D01*
X46019838Y-158839414D01*
X46019837Y-158839416D01*
X45932178Y-158970608D01*
X45820608Y-159082178D01*
X45689416Y-159169837D01*
X45689415Y-159169838D01*
X45689414Y-159169838D01*
X45543642Y-159230219D01*
X45388893Y-159261000D01*
X45231107Y-159261000D01*
X45076358Y-159230219D01*
X44930586Y-159169838D01*
X44930585Y-159169838D01*
X44930584Y-159169837D01*
X44799392Y-159082178D01*
X44687822Y-158970608D01*
X44600163Y-158839416D01*
X44600162Y-158839414D01*
X44539781Y-158693642D01*
X44509000Y-158538893D01*
X44509000Y-158381107D01*
X44539781Y-158226358D01*
X44600162Y-158080586D01*
X44600163Y-158080584D01*
X44687822Y-157949392D01*
X44799392Y-157837822D01*
X44930584Y-157750163D01*
X44930586Y-157750162D01*
X45076358Y-157689781D01*
X45231107Y-157659000D01*
X45388893Y-157659000D01*
X45543642Y-157689781D01*
G37*
G36*
X43003642Y-157689781D02*
G01*
X43149414Y-157750162D01*
X43149416Y-157750163D01*
X43280608Y-157837822D01*
X43392178Y-157949392D01*
X43479837Y-158080584D01*
X43479838Y-158080586D01*
X43540219Y-158226358D01*
X43571000Y-158381107D01*
X43571000Y-158538893D01*
X43540219Y-158693642D01*
X43479838Y-158839414D01*
X43479837Y-158839416D01*
X43392178Y-158970608D01*
X43280608Y-159082178D01*
X43149416Y-159169837D01*
X43149415Y-159169838D01*
X43149414Y-159169838D01*
X43003642Y-159230219D01*
X42848893Y-159261000D01*
X42691107Y-159261000D01*
X42536358Y-159230219D01*
X42390586Y-159169838D01*
X42390585Y-159169838D01*
X42390584Y-159169837D01*
X42259392Y-159082178D01*
X42147822Y-158970608D01*
X42060163Y-158839416D01*
X42060162Y-158839414D01*
X41999781Y-158693642D01*
X41969000Y-158538893D01*
X41969000Y-158381107D01*
X41999781Y-158226358D01*
X42060162Y-158080586D01*
X42060163Y-158080584D01*
X42147822Y-157949392D01*
X42259392Y-157837822D01*
X42390584Y-157750163D01*
X42390586Y-157750162D01*
X42536358Y-157689781D01*
X42691107Y-157659000D01*
X42848893Y-157659000D01*
X43003642Y-157689781D01*
G37*
G36*
X74988228Y-156541703D02*
G01*
X75143100Y-156605853D01*
X75282481Y-156698985D01*
X75401015Y-156817519D01*
X75494147Y-156956900D01*
X75558297Y-157111772D01*
X75591000Y-157276184D01*
X75591000Y-157443816D01*
X75558297Y-157608228D01*
X75494147Y-157763100D01*
X75401015Y-157902481D01*
X75282481Y-158021015D01*
X75143100Y-158114147D01*
X74988228Y-158178297D01*
X74823816Y-158211000D01*
X74656184Y-158211000D01*
X74491772Y-158178297D01*
X74336900Y-158114147D01*
X74197519Y-158021015D01*
X74078985Y-157902481D01*
X73985853Y-157763100D01*
X73921703Y-157608228D01*
X73889000Y-157443816D01*
X73889000Y-157276184D01*
X73921703Y-157111772D01*
X73985853Y-156956900D01*
X74078985Y-156817519D01*
X74197519Y-156698985D01*
X74336900Y-156605853D01*
X74491772Y-156541703D01*
X74656184Y-156509000D01*
X74823816Y-156509000D01*
X74988228Y-156541703D01*
G37*
G36*
X59748228Y-156541703D02*
G01*
X59903100Y-156605853D01*
X60042481Y-156698985D01*
X60161015Y-156817519D01*
X60254147Y-156956900D01*
X60318297Y-157111772D01*
X60351000Y-157276184D01*
X60351000Y-157443816D01*
X60318297Y-157608228D01*
X60254147Y-157763100D01*
X60161015Y-157902481D01*
X60042481Y-158021015D01*
X59903100Y-158114147D01*
X59748228Y-158178297D01*
X59583816Y-158211000D01*
X59416184Y-158211000D01*
X59251772Y-158178297D01*
X59096900Y-158114147D01*
X58957519Y-158021015D01*
X58838985Y-157902481D01*
X58745853Y-157763100D01*
X58681703Y-157608228D01*
X58649000Y-157443816D01*
X58649000Y-157276184D01*
X58681703Y-157111772D01*
X58745853Y-156956900D01*
X58838985Y-156817519D01*
X58957519Y-156698985D01*
X59096900Y-156605853D01*
X59251772Y-156541703D01*
X59416184Y-156509000D01*
X59583816Y-156509000D01*
X59748228Y-156541703D01*
G37*
G36*
X82735442Y-154105518D02*
G01*
X82801627Y-154112037D01*
X82971466Y-154163557D01*
X83127991Y-154247222D01*
X83163729Y-154276552D01*
X83265186Y-154359814D01*
X83348448Y-154461271D01*
X83377778Y-154497009D01*
X83461443Y-154653534D01*
X83512963Y-154823373D01*
X83530359Y-155000000D01*
X83512963Y-155176627D01*
X83461443Y-155346466D01*
X83377778Y-155502991D01*
X83348448Y-155538729D01*
X83265186Y-155640186D01*
X83163729Y-155723448D01*
X83127991Y-155752778D01*
X82971466Y-155836443D01*
X82801627Y-155887963D01*
X82735442Y-155894482D01*
X82669260Y-155901000D01*
X82330740Y-155901000D01*
X82264558Y-155894482D01*
X82198373Y-155887963D01*
X82028534Y-155836443D01*
X81872009Y-155752778D01*
X81836271Y-155723448D01*
X81734814Y-155640186D01*
X81651552Y-155538729D01*
X81622222Y-155502991D01*
X81538557Y-155346466D01*
X81487037Y-155176627D01*
X81469641Y-155000000D01*
X81487037Y-154823373D01*
X81538557Y-154653534D01*
X81622222Y-154497009D01*
X81651552Y-154461271D01*
X81734814Y-154359814D01*
X81836271Y-154276552D01*
X81872009Y-154247222D01*
X82028534Y-154163557D01*
X82198373Y-154112037D01*
X82264558Y-154105518D01*
X82330740Y-154099000D01*
X82669260Y-154099000D01*
X82735442Y-154105518D01*
G37*
G36*
X74988228Y-154001703D02*
G01*
X75143100Y-154065853D01*
X75282481Y-154158985D01*
X75401015Y-154277519D01*
X75494147Y-154416900D01*
X75558297Y-154571772D01*
X75591000Y-154736184D01*
X75591000Y-154903816D01*
X75558297Y-155068228D01*
X75494147Y-155223100D01*
X75401015Y-155362481D01*
X75282481Y-155481015D01*
X75143100Y-155574147D01*
X74988228Y-155638297D01*
X74823816Y-155671000D01*
X74656184Y-155671000D01*
X74491772Y-155638297D01*
X74336900Y-155574147D01*
X74197519Y-155481015D01*
X74078985Y-155362481D01*
X73985853Y-155223100D01*
X73921703Y-155068228D01*
X73889000Y-154903816D01*
X73889000Y-154736184D01*
X73921703Y-154571772D01*
X73985853Y-154416900D01*
X74078985Y-154277519D01*
X74197519Y-154158985D01*
X74336900Y-154065853D01*
X74491772Y-154001703D01*
X74656184Y-153969000D01*
X74823816Y-153969000D01*
X74988228Y-154001703D01*
G37*
G36*
X59748228Y-154001703D02*
G01*
X59903100Y-154065853D01*
X60042481Y-154158985D01*
X60161015Y-154277519D01*
X60254147Y-154416900D01*
X60318297Y-154571772D01*
X60351000Y-154736184D01*
X60351000Y-154903816D01*
X60318297Y-155068228D01*
X60254147Y-155223100D01*
X60161015Y-155362481D01*
X60042481Y-155481015D01*
X59903100Y-155574147D01*
X59748228Y-155638297D01*
X59583816Y-155671000D01*
X59416184Y-155671000D01*
X59251772Y-155638297D01*
X59096900Y-155574147D01*
X58957519Y-155481015D01*
X58838985Y-155362481D01*
X58745853Y-155223100D01*
X58681703Y-155068228D01*
X58649000Y-154903816D01*
X58649000Y-154736184D01*
X58681703Y-154571772D01*
X58745853Y-154416900D01*
X58838985Y-154277519D01*
X58957519Y-154158985D01*
X59096900Y-154065853D01*
X59251772Y-154001703D01*
X59416184Y-153969000D01*
X59583816Y-153969000D01*
X59748228Y-154001703D01*
G37*
G36*
X82735443Y-151605519D02*
G01*
X82801627Y-151612037D01*
X82971466Y-151663557D01*
X83127991Y-151747222D01*
X83163729Y-151776552D01*
X83265186Y-151859814D01*
X83333536Y-151943100D01*
X83377778Y-151997009D01*
X83461443Y-152153534D01*
X83512963Y-152323373D01*
X83530359Y-152500000D01*
X83512963Y-152676627D01*
X83461443Y-152846466D01*
X83377778Y-153002991D01*
X83352209Y-153034147D01*
X83265186Y-153140186D01*
X83163729Y-153223448D01*
X83127991Y-153252778D01*
X82971466Y-153336443D01*
X82801627Y-153387963D01*
X82735443Y-153394481D01*
X82669260Y-153401000D01*
X82330740Y-153401000D01*
X82264557Y-153394481D01*
X82198373Y-153387963D01*
X82028534Y-153336443D01*
X81872009Y-153252778D01*
X81836271Y-153223448D01*
X81734814Y-153140186D01*
X81647791Y-153034147D01*
X81622222Y-153002991D01*
X81538557Y-152846466D01*
X81487037Y-152676627D01*
X81469641Y-152500000D01*
X81487037Y-152323373D01*
X81538557Y-152153534D01*
X81622222Y-151997009D01*
X81666464Y-151943100D01*
X81734814Y-151859814D01*
X81836271Y-151776552D01*
X81872009Y-151747222D01*
X82028534Y-151663557D01*
X82198373Y-151612037D01*
X82264557Y-151605519D01*
X82330740Y-151599000D01*
X82669260Y-151599000D01*
X82735443Y-151605519D01*
G37*
G36*
X74988228Y-151461703D02*
G01*
X75143100Y-151525853D01*
X75282481Y-151618985D01*
X75401015Y-151737519D01*
X75494147Y-151876900D01*
X75558297Y-152031772D01*
X75591000Y-152196184D01*
X75591000Y-152363816D01*
X75558297Y-152528228D01*
X75494147Y-152683100D01*
X75401015Y-152822481D01*
X75282481Y-152941015D01*
X75143100Y-153034147D01*
X74988228Y-153098297D01*
X74823816Y-153131000D01*
X74656184Y-153131000D01*
X74491772Y-153098297D01*
X74336900Y-153034147D01*
X74197519Y-152941015D01*
X74078985Y-152822481D01*
X73985853Y-152683100D01*
X73921703Y-152528228D01*
X73889000Y-152363816D01*
X73889000Y-152196184D01*
X73921703Y-152031772D01*
X73985853Y-151876900D01*
X74078985Y-151737519D01*
X74197519Y-151618985D01*
X74336900Y-151525853D01*
X74491772Y-151461703D01*
X74656184Y-151429000D01*
X74823816Y-151429000D01*
X74988228Y-151461703D01*
G37*
G36*
X59748228Y-151461703D02*
G01*
X59903100Y-151525853D01*
X60042481Y-151618985D01*
X60161015Y-151737519D01*
X60254147Y-151876900D01*
X60318297Y-152031772D01*
X60351000Y-152196184D01*
X60351000Y-152363816D01*
X60318297Y-152528228D01*
X60254147Y-152683100D01*
X60161015Y-152822481D01*
X60042481Y-152941015D01*
X59903100Y-153034147D01*
X59748228Y-153098297D01*
X59583816Y-153131000D01*
X59416184Y-153131000D01*
X59251772Y-153098297D01*
X59096900Y-153034147D01*
X58957519Y-152941015D01*
X58838985Y-152822481D01*
X58745853Y-152683100D01*
X58681703Y-152528228D01*
X58649000Y-152363816D01*
X58649000Y-152196184D01*
X58681703Y-152031772D01*
X58745853Y-151876900D01*
X58838985Y-151737519D01*
X58957519Y-151618985D01*
X59096900Y-151525853D01*
X59251772Y-151461703D01*
X59416184Y-151429000D01*
X59583816Y-151429000D01*
X59748228Y-151461703D01*
G37*
G36*
X43248228Y-150721703D02*
G01*
X43403100Y-150785853D01*
X43542481Y-150878985D01*
X43661015Y-150997519D01*
X43754147Y-151136900D01*
X43818297Y-151291772D01*
X43851000Y-151456184D01*
X43851000Y-151623816D01*
X43818297Y-151788228D01*
X43754147Y-151943100D01*
X43661015Y-152082481D01*
X43542481Y-152201015D01*
X43403100Y-152294147D01*
X43248228Y-152358297D01*
X43083816Y-152391000D01*
X42916184Y-152391000D01*
X42751772Y-152358297D01*
X42596900Y-152294147D01*
X42457519Y-152201015D01*
X42338985Y-152082481D01*
X42245853Y-151943100D01*
X42181703Y-151788228D01*
X42149000Y-151623816D01*
X42149000Y-151456184D01*
X42181703Y-151291772D01*
X42245853Y-151136900D01*
X42338985Y-150997519D01*
X42457519Y-150878985D01*
X42596900Y-150785853D01*
X42751772Y-150721703D01*
X42916184Y-150689000D01*
X43083816Y-150689000D01*
X43248228Y-150721703D01*
G37*
G36*
X50868228Y-150721703D02*
G01*
X51023100Y-150785853D01*
X51162481Y-150878985D01*
X51281015Y-150997519D01*
X51374147Y-151136900D01*
X51438297Y-151291772D01*
X51471000Y-151456184D01*
X51471000Y-151623816D01*
X51438297Y-151788228D01*
X51374147Y-151943100D01*
X51281015Y-152082481D01*
X51162481Y-152201015D01*
X51023100Y-152294147D01*
X50868228Y-152358297D01*
X50703816Y-152391000D01*
X50536184Y-152391000D01*
X50371772Y-152358297D01*
X50216900Y-152294147D01*
X50077519Y-152201015D01*
X49958985Y-152082481D01*
X49865853Y-151943100D01*
X49801703Y-151788228D01*
X49769000Y-151623816D01*
X49769000Y-151456184D01*
X49801703Y-151291772D01*
X49865853Y-151136900D01*
X49958985Y-150997519D01*
X50077519Y-150878985D01*
X50216900Y-150785853D01*
X50371772Y-150721703D01*
X50536184Y-150689000D01*
X50703816Y-150689000D01*
X50868228Y-150721703D01*
G37*
G36*
X82735442Y-149105518D02*
G01*
X82801627Y-149112037D01*
X82971466Y-149163557D01*
X83127991Y-149247222D01*
X83163729Y-149276552D01*
X83265186Y-149359814D01*
X83348448Y-149461271D01*
X83377778Y-149497009D01*
X83461443Y-149653534D01*
X83512963Y-149823373D01*
X83530359Y-150000000D01*
X83512963Y-150176627D01*
X83461443Y-150346466D01*
X83377778Y-150502991D01*
X83348448Y-150538729D01*
X83265186Y-150640186D01*
X83165856Y-150721703D01*
X83127991Y-150752778D01*
X82971466Y-150836443D01*
X82801627Y-150887963D01*
X82735442Y-150894482D01*
X82669260Y-150901000D01*
X82330740Y-150901000D01*
X82264558Y-150894482D01*
X82198373Y-150887963D01*
X82028534Y-150836443D01*
X81872009Y-150752778D01*
X81834144Y-150721703D01*
X81734814Y-150640186D01*
X81651552Y-150538729D01*
X81622222Y-150502991D01*
X81538557Y-150346466D01*
X81487037Y-150176627D01*
X81469641Y-150000000D01*
X81487037Y-149823373D01*
X81538557Y-149653534D01*
X81622222Y-149497009D01*
X81651552Y-149461271D01*
X81734814Y-149359814D01*
X81836271Y-149276552D01*
X81872009Y-149247222D01*
X82028534Y-149163557D01*
X82198373Y-149112037D01*
X82264558Y-149105518D01*
X82330740Y-149099000D01*
X82669260Y-149099000D01*
X82735442Y-149105518D01*
G37*
G36*
X74988228Y-148921703D02*
G01*
X75143100Y-148985853D01*
X75282481Y-149078985D01*
X75401015Y-149197519D01*
X75494147Y-149336900D01*
X75558297Y-149491772D01*
X75591000Y-149656184D01*
X75591000Y-149823816D01*
X75558297Y-149988228D01*
X75494147Y-150143100D01*
X75401015Y-150282481D01*
X75282481Y-150401015D01*
X75143100Y-150494147D01*
X74988228Y-150558297D01*
X74823816Y-150591000D01*
X74656184Y-150591000D01*
X74491772Y-150558297D01*
X74336900Y-150494147D01*
X74197519Y-150401015D01*
X74078985Y-150282481D01*
X73985853Y-150143100D01*
X73921703Y-149988228D01*
X73889000Y-149823816D01*
X73889000Y-149656184D01*
X73921703Y-149491772D01*
X73985853Y-149336900D01*
X74078985Y-149197519D01*
X74197519Y-149078985D01*
X74336900Y-148985853D01*
X74491772Y-148921703D01*
X74656184Y-148889000D01*
X74823816Y-148889000D01*
X74988228Y-148921703D01*
G37*
G36*
X59748228Y-148921703D02*
G01*
X59903100Y-148985853D01*
X60042481Y-149078985D01*
X60161015Y-149197519D01*
X60254147Y-149336900D01*
X60318297Y-149491772D01*
X60351000Y-149656184D01*
X60351000Y-149823816D01*
X60318297Y-149988228D01*
X60254147Y-150143100D01*
X60161015Y-150282481D01*
X60042481Y-150401015D01*
X59903100Y-150494147D01*
X59748228Y-150558297D01*
X59583816Y-150591000D01*
X59416184Y-150591000D01*
X59251772Y-150558297D01*
X59096900Y-150494147D01*
X58957519Y-150401015D01*
X58838985Y-150282481D01*
X58745853Y-150143100D01*
X58681703Y-149988228D01*
X58649000Y-149823816D01*
X58649000Y-149656184D01*
X58681703Y-149491772D01*
X58745853Y-149336900D01*
X58838985Y-149197519D01*
X58957519Y-149078985D01*
X59096900Y-148985853D01*
X59251772Y-148921703D01*
X59416184Y-148889000D01*
X59583816Y-148889000D01*
X59748228Y-148921703D01*
G37*
G36*
X43851000Y-149851000D02*
G01*
X42149000Y-149851000D01*
X42149000Y-148149000D01*
X43851000Y-148149000D01*
X43851000Y-149851000D01*
G37*
G36*
X50868228Y-148181703D02*
G01*
X51023100Y-148245853D01*
X51162481Y-148338985D01*
X51281015Y-148457519D01*
X51374147Y-148596900D01*
X51438297Y-148751772D01*
X51471000Y-148916184D01*
X51471000Y-149083816D01*
X51438297Y-149248228D01*
X51374147Y-149403100D01*
X51281015Y-149542481D01*
X51162481Y-149661015D01*
X51023100Y-149754147D01*
X50868228Y-149818297D01*
X50703816Y-149851000D01*
X50536184Y-149851000D01*
X50371772Y-149818297D01*
X50216900Y-149754147D01*
X50077519Y-149661015D01*
X49958985Y-149542481D01*
X49865853Y-149403100D01*
X49801703Y-149248228D01*
X49769000Y-149083816D01*
X49769000Y-148916184D01*
X49801703Y-148751772D01*
X49865853Y-148596900D01*
X49958985Y-148457519D01*
X50077519Y-148338985D01*
X50216900Y-148245853D01*
X50371772Y-148181703D01*
X50536184Y-148149000D01*
X50703816Y-148149000D01*
X50868228Y-148181703D01*
G37*
G36*
X82735442Y-146605518D02*
G01*
X82801627Y-146612037D01*
X82971466Y-146663557D01*
X83127991Y-146747222D01*
X83163729Y-146776552D01*
X83265186Y-146859814D01*
X83340652Y-146951771D01*
X83377778Y-146997009D01*
X83461443Y-147153534D01*
X83512963Y-147323373D01*
X83530359Y-147500000D01*
X83512963Y-147676627D01*
X83461443Y-147846466D01*
X83377778Y-148002991D01*
X83348448Y-148038729D01*
X83265186Y-148140186D01*
X83163729Y-148223448D01*
X83127991Y-148252778D01*
X82971466Y-148336443D01*
X82801627Y-148387963D01*
X82735442Y-148394482D01*
X82669260Y-148401000D01*
X82330740Y-148401000D01*
X82264558Y-148394482D01*
X82198373Y-148387963D01*
X82028534Y-148336443D01*
X81872009Y-148252778D01*
X81836271Y-148223448D01*
X81734814Y-148140186D01*
X81651552Y-148038729D01*
X81622222Y-148002991D01*
X81538557Y-147846466D01*
X81487037Y-147676627D01*
X81469641Y-147500000D01*
X81487037Y-147323373D01*
X81538557Y-147153534D01*
X81622222Y-146997009D01*
X81659348Y-146951771D01*
X81734814Y-146859814D01*
X81836271Y-146776552D01*
X81872009Y-146747222D01*
X82028534Y-146663557D01*
X82198373Y-146612037D01*
X82264558Y-146605518D01*
X82330740Y-146599000D01*
X82669260Y-146599000D01*
X82735442Y-146605518D01*
G37*
G36*
X59748228Y-146381703D02*
G01*
X59903100Y-146445853D01*
X60042481Y-146538985D01*
X60161015Y-146657519D01*
X60254147Y-146796900D01*
X60318297Y-146951772D01*
X60351000Y-147116184D01*
X60351000Y-147283816D01*
X60318297Y-147448228D01*
X60254147Y-147603100D01*
X60161015Y-147742481D01*
X60042481Y-147861015D01*
X59903100Y-147954147D01*
X59748228Y-148018297D01*
X59583816Y-148051000D01*
X59416184Y-148051000D01*
X59251772Y-148018297D01*
X59096900Y-147954147D01*
X58957519Y-147861015D01*
X58838985Y-147742481D01*
X58745853Y-147603100D01*
X58681703Y-147448228D01*
X58649000Y-147283816D01*
X58649000Y-147116184D01*
X58681703Y-146951772D01*
X58745853Y-146796900D01*
X58838985Y-146657519D01*
X58957519Y-146538985D01*
X59096900Y-146445853D01*
X59251772Y-146381703D01*
X59416184Y-146349000D01*
X59583816Y-146349000D01*
X59748228Y-146381703D01*
G37*
G36*
X74988228Y-146381703D02*
G01*
X75143100Y-146445853D01*
X75282481Y-146538985D01*
X75401015Y-146657519D01*
X75494147Y-146796900D01*
X75558297Y-146951772D01*
X75591000Y-147116184D01*
X75591000Y-147283816D01*
X75558297Y-147448228D01*
X75494147Y-147603100D01*
X75401015Y-147742481D01*
X75282481Y-147861015D01*
X75143100Y-147954147D01*
X74988228Y-148018297D01*
X74823816Y-148051000D01*
X74656184Y-148051000D01*
X74491772Y-148018297D01*
X74336900Y-147954147D01*
X74197519Y-147861015D01*
X74078985Y-147742481D01*
X73985853Y-147603100D01*
X73921703Y-147448228D01*
X73889000Y-147283816D01*
X73889000Y-147116184D01*
X73921703Y-146951772D01*
X73985853Y-146796900D01*
X74078985Y-146657519D01*
X74197519Y-146538985D01*
X74336900Y-146445853D01*
X74491772Y-146381703D01*
X74656184Y-146349000D01*
X74823816Y-146349000D01*
X74988228Y-146381703D01*
G37*
G36*
X83383600Y-144102989D02*
G01*
X83416652Y-144113015D01*
X83447103Y-144129292D01*
X83473799Y-144151201D01*
X83495708Y-144177897D01*
X83511985Y-144208348D01*
X83522011Y-144241400D01*
X83526000Y-144281903D01*
X83526000Y-145718097D01*
X83522011Y-145758600D01*
X83511985Y-145791652D01*
X83495708Y-145822103D01*
X83473799Y-145848799D01*
X83447103Y-145870708D01*
X83416652Y-145886985D01*
X83383600Y-145897011D01*
X83343097Y-145901000D01*
X81656903Y-145901000D01*
X81616400Y-145897011D01*
X81583348Y-145886985D01*
X81552897Y-145870708D01*
X81526201Y-145848799D01*
X81504292Y-145822103D01*
X81488015Y-145791652D01*
X81477989Y-145758600D01*
X81474000Y-145718097D01*
X81474000Y-144281903D01*
X81477989Y-144241400D01*
X81488015Y-144208348D01*
X81504292Y-144177897D01*
X81526201Y-144151201D01*
X81552897Y-144129292D01*
X81583348Y-144113015D01*
X81616400Y-144102989D01*
X81656903Y-144099000D01*
X83343097Y-144099000D01*
X83383600Y-144102989D01*
G37*
G36*
X74988228Y-143841703D02*
G01*
X75143100Y-143905853D01*
X75282481Y-143998985D01*
X75401015Y-144117519D01*
X75494147Y-144256900D01*
X75558297Y-144411772D01*
X75591000Y-144576184D01*
X75591000Y-144743816D01*
X75558297Y-144908228D01*
X75494147Y-145063100D01*
X75401015Y-145202481D01*
X75282481Y-145321015D01*
X75143100Y-145414147D01*
X74988228Y-145478297D01*
X74823816Y-145511000D01*
X74656184Y-145511000D01*
X74491772Y-145478297D01*
X74336900Y-145414147D01*
X74197519Y-145321015D01*
X74078985Y-145202481D01*
X73985853Y-145063100D01*
X73921703Y-144908228D01*
X73889000Y-144743816D01*
X73889000Y-144576184D01*
X73921703Y-144411772D01*
X73985853Y-144256900D01*
X74078985Y-144117519D01*
X74197519Y-143998985D01*
X74336900Y-143905853D01*
X74491772Y-143841703D01*
X74656184Y-143809000D01*
X74823816Y-143809000D01*
X74988228Y-143841703D01*
G37*
G36*
X59748228Y-143841703D02*
G01*
X59903100Y-143905853D01*
X60042481Y-143998985D01*
X60161015Y-144117519D01*
X60254147Y-144256900D01*
X60318297Y-144411772D01*
X60351000Y-144576184D01*
X60351000Y-144743816D01*
X60318297Y-144908228D01*
X60254147Y-145063100D01*
X60161015Y-145202481D01*
X60042481Y-145321015D01*
X59903100Y-145414147D01*
X59748228Y-145478297D01*
X59583816Y-145511000D01*
X59416184Y-145511000D01*
X59251772Y-145478297D01*
X59096900Y-145414147D01*
X58957519Y-145321015D01*
X58838985Y-145202481D01*
X58745853Y-145063100D01*
X58681703Y-144908228D01*
X58649000Y-144743816D01*
X58649000Y-144576184D01*
X58681703Y-144411772D01*
X58745853Y-144256900D01*
X58838985Y-144117519D01*
X58957519Y-143998985D01*
X59096900Y-143905853D01*
X59251772Y-143841703D01*
X59416184Y-143809000D01*
X59583816Y-143809000D01*
X59748228Y-143841703D01*
G37*
G36*
X49248228Y-142841703D02*
G01*
X49403100Y-142905853D01*
X49542481Y-142998985D01*
X49661015Y-143117519D01*
X49754147Y-143256900D01*
X49818297Y-143411772D01*
X49851000Y-143576184D01*
X49851000Y-143743816D01*
X49818297Y-143908228D01*
X49754147Y-144063100D01*
X49661015Y-144202481D01*
X49542481Y-144321015D01*
X49403100Y-144414147D01*
X49248228Y-144478297D01*
X49083816Y-144511000D01*
X48916184Y-144511000D01*
X48751772Y-144478297D01*
X48596900Y-144414147D01*
X48457519Y-144321015D01*
X48338985Y-144202481D01*
X48245853Y-144063100D01*
X48181703Y-143908228D01*
X48149000Y-143743816D01*
X48149000Y-143576184D01*
X48181703Y-143411772D01*
X48245853Y-143256900D01*
X48338985Y-143117519D01*
X48457519Y-142998985D01*
X48596900Y-142905853D01*
X48751772Y-142841703D01*
X48916184Y-142809000D01*
X49083816Y-142809000D01*
X49248228Y-142841703D01*
G37*
G36*
X53248228Y-142841703D02*
G01*
X53403100Y-142905853D01*
X53542481Y-142998985D01*
X53661015Y-143117519D01*
X53754147Y-143256900D01*
X53818297Y-143411772D01*
X53851000Y-143576184D01*
X53851000Y-143743816D01*
X53818297Y-143908228D01*
X53754147Y-144063100D01*
X53661015Y-144202481D01*
X53542481Y-144321015D01*
X53403100Y-144414147D01*
X53248228Y-144478297D01*
X53083816Y-144511000D01*
X52916184Y-144511000D01*
X52751772Y-144478297D01*
X52596900Y-144414147D01*
X52457519Y-144321015D01*
X52338985Y-144202481D01*
X52245853Y-144063100D01*
X52181703Y-143908228D01*
X52149000Y-143743816D01*
X52149000Y-143576184D01*
X52181703Y-143411772D01*
X52245853Y-143256900D01*
X52338985Y-143117519D01*
X52457519Y-142998985D01*
X52596900Y-142905853D01*
X52751772Y-142841703D01*
X52916184Y-142809000D01*
X53083816Y-142809000D01*
X53248228Y-142841703D01*
G37*
G36*
X39248228Y-142841703D02*
G01*
X39403100Y-142905853D01*
X39542481Y-142998985D01*
X39661015Y-143117519D01*
X39754147Y-143256900D01*
X39818297Y-143411772D01*
X39851000Y-143576184D01*
X39851000Y-143743816D01*
X39818297Y-143908228D01*
X39754147Y-144063100D01*
X39661015Y-144202481D01*
X39542481Y-144321015D01*
X39403100Y-144414147D01*
X39248228Y-144478297D01*
X39083816Y-144511000D01*
X38916184Y-144511000D01*
X38751772Y-144478297D01*
X38596900Y-144414147D01*
X38457519Y-144321015D01*
X38338985Y-144202481D01*
X38245853Y-144063100D01*
X38181703Y-143908228D01*
X38149000Y-143743816D01*
X38149000Y-143576184D01*
X38181703Y-143411772D01*
X38245853Y-143256900D01*
X38338985Y-143117519D01*
X38457519Y-142998985D01*
X38596900Y-142905853D01*
X38751772Y-142841703D01*
X38916184Y-142809000D01*
X39083816Y-142809000D01*
X39248228Y-142841703D01*
G37*
G36*
X43248228Y-142841703D02*
G01*
X43403100Y-142905853D01*
X43542481Y-142998985D01*
X43661015Y-143117519D01*
X43754147Y-143256900D01*
X43818297Y-143411772D01*
X43851000Y-143576184D01*
X43851000Y-143743816D01*
X43818297Y-143908228D01*
X43754147Y-144063100D01*
X43661015Y-144202481D01*
X43542481Y-144321015D01*
X43403100Y-144414147D01*
X43248228Y-144478297D01*
X43083816Y-144511000D01*
X42916184Y-144511000D01*
X42751772Y-144478297D01*
X42596900Y-144414147D01*
X42457519Y-144321015D01*
X42338985Y-144202481D01*
X42245853Y-144063100D01*
X42181703Y-143908228D01*
X42149000Y-143743816D01*
X42149000Y-143576184D01*
X42181703Y-143411772D01*
X42245853Y-143256900D01*
X42338985Y-143117519D01*
X42457519Y-142998985D01*
X42596900Y-142905853D01*
X42751772Y-142841703D01*
X42916184Y-142809000D01*
X43083816Y-142809000D01*
X43248228Y-142841703D01*
G37*
G36*
X74988228Y-141301703D02*
G01*
X75143100Y-141365853D01*
X75282481Y-141458985D01*
X75401015Y-141577519D01*
X75494147Y-141716900D01*
X75558297Y-141871772D01*
X75591000Y-142036184D01*
X75591000Y-142203816D01*
X75558297Y-142368228D01*
X75494147Y-142523100D01*
X75401015Y-142662481D01*
X75282481Y-142781015D01*
X75143100Y-142874147D01*
X74988228Y-142938297D01*
X74823816Y-142971000D01*
X74656184Y-142971000D01*
X74491772Y-142938297D01*
X74336900Y-142874147D01*
X74197519Y-142781015D01*
X74078985Y-142662481D01*
X73985853Y-142523100D01*
X73921703Y-142368228D01*
X73889000Y-142203816D01*
X73889000Y-142036184D01*
X73921703Y-141871772D01*
X73985853Y-141716900D01*
X74078985Y-141577519D01*
X74197519Y-141458985D01*
X74336900Y-141365853D01*
X74491772Y-141301703D01*
X74656184Y-141269000D01*
X74823816Y-141269000D01*
X74988228Y-141301703D01*
G37*
G36*
X59748228Y-141301703D02*
G01*
X59903100Y-141365853D01*
X60042481Y-141458985D01*
X60161015Y-141577519D01*
X60254147Y-141716900D01*
X60318297Y-141871772D01*
X60351000Y-142036184D01*
X60351000Y-142203816D01*
X60318297Y-142368228D01*
X60254147Y-142523100D01*
X60161015Y-142662481D01*
X60042481Y-142781015D01*
X59903100Y-142874147D01*
X59748228Y-142938297D01*
X59583816Y-142971000D01*
X59416184Y-142971000D01*
X59251772Y-142938297D01*
X59096900Y-142874147D01*
X58957519Y-142781015D01*
X58838985Y-142662481D01*
X58745853Y-142523100D01*
X58681703Y-142368228D01*
X58649000Y-142203816D01*
X58649000Y-142036184D01*
X58681703Y-141871772D01*
X58745853Y-141716900D01*
X58838985Y-141577519D01*
X58957519Y-141458985D01*
X59096900Y-141365853D01*
X59251772Y-141301703D01*
X59416184Y-141269000D01*
X59583816Y-141269000D01*
X59748228Y-141301703D01*
G37*
G36*
X74988228Y-138761703D02*
G01*
X75143100Y-138825853D01*
X75282481Y-138918985D01*
X75401015Y-139037519D01*
X75494147Y-139176900D01*
X75558297Y-139331772D01*
X75591000Y-139496184D01*
X75591000Y-139663816D01*
X75558297Y-139828228D01*
X75494147Y-139983100D01*
X75401015Y-140122481D01*
X75282481Y-140241015D01*
X75143100Y-140334147D01*
X74988228Y-140398297D01*
X74823816Y-140431000D01*
X74656184Y-140431000D01*
X74491772Y-140398297D01*
X74336900Y-140334147D01*
X74197519Y-140241015D01*
X74078985Y-140122481D01*
X73985853Y-139983100D01*
X73921703Y-139828228D01*
X73889000Y-139663816D01*
X73889000Y-139496184D01*
X73921703Y-139331772D01*
X73985853Y-139176900D01*
X74078985Y-139037519D01*
X74197519Y-138918985D01*
X74336900Y-138825853D01*
X74491772Y-138761703D01*
X74656184Y-138729000D01*
X74823816Y-138729000D01*
X74988228Y-138761703D01*
G37*
G36*
X59748228Y-138761703D02*
G01*
X59903100Y-138825853D01*
X60042481Y-138918985D01*
X60161015Y-139037519D01*
X60254147Y-139176900D01*
X60318297Y-139331772D01*
X60351000Y-139496184D01*
X60351000Y-139663816D01*
X60318297Y-139828228D01*
X60254147Y-139983100D01*
X60161015Y-140122481D01*
X60042481Y-140241015D01*
X59903100Y-140334147D01*
X59748228Y-140398297D01*
X59583816Y-140431000D01*
X59416184Y-140431000D01*
X59251772Y-140398297D01*
X59096900Y-140334147D01*
X58957519Y-140241015D01*
X58838985Y-140122481D01*
X58745853Y-139983100D01*
X58681703Y-139828228D01*
X58649000Y-139663816D01*
X58649000Y-139496184D01*
X58681703Y-139331772D01*
X58745853Y-139176900D01*
X58838985Y-139037519D01*
X58957519Y-138918985D01*
X59096900Y-138825853D01*
X59251772Y-138761703D01*
X59416184Y-138729000D01*
X59583816Y-138729000D01*
X59748228Y-138761703D01*
G37*
G36*
X82735442Y-137105518D02*
G01*
X82801627Y-137112037D01*
X82971466Y-137163557D01*
X83127991Y-137247222D01*
X83163729Y-137276552D01*
X83265186Y-137359814D01*
X83333536Y-137443100D01*
X83377778Y-137497009D01*
X83461443Y-137653534D01*
X83512963Y-137823373D01*
X83530359Y-138000000D01*
X83512963Y-138176627D01*
X83461443Y-138346466D01*
X83377778Y-138502991D01*
X83348448Y-138538729D01*
X83265186Y-138640186D01*
X83163729Y-138723448D01*
X83127991Y-138752778D01*
X82971466Y-138836443D01*
X82801627Y-138887963D01*
X82735443Y-138894481D01*
X82669260Y-138901000D01*
X82330740Y-138901000D01*
X82264557Y-138894481D01*
X82198373Y-138887963D01*
X82028534Y-138836443D01*
X81872009Y-138752778D01*
X81836271Y-138723448D01*
X81734814Y-138640186D01*
X81651552Y-138538729D01*
X81622222Y-138502991D01*
X81538557Y-138346466D01*
X81487037Y-138176627D01*
X81469641Y-138000000D01*
X81487037Y-137823373D01*
X81538557Y-137653534D01*
X81622222Y-137497009D01*
X81666464Y-137443100D01*
X81734814Y-137359814D01*
X81836271Y-137276552D01*
X81872009Y-137247222D01*
X82028534Y-137163557D01*
X82198373Y-137112037D01*
X82264558Y-137105518D01*
X82330740Y-137099000D01*
X82669260Y-137099000D01*
X82735442Y-137105518D01*
G37*
G36*
X74988228Y-136221703D02*
G01*
X75143100Y-136285853D01*
X75282481Y-136378985D01*
X75401015Y-136497519D01*
X75494147Y-136636900D01*
X75558297Y-136791772D01*
X75591000Y-136956184D01*
X75591000Y-137123816D01*
X75558297Y-137288228D01*
X75494147Y-137443100D01*
X75401015Y-137582481D01*
X75282481Y-137701015D01*
X75143100Y-137794147D01*
X74988228Y-137858297D01*
X74823816Y-137891000D01*
X74656184Y-137891000D01*
X74491772Y-137858297D01*
X74336900Y-137794147D01*
X74197519Y-137701015D01*
X74078985Y-137582481D01*
X73985853Y-137443100D01*
X73921703Y-137288228D01*
X73889000Y-137123816D01*
X73889000Y-136956184D01*
X73921703Y-136791772D01*
X73985853Y-136636900D01*
X74078985Y-136497519D01*
X74197519Y-136378985D01*
X74336900Y-136285853D01*
X74491772Y-136221703D01*
X74656184Y-136189000D01*
X74823816Y-136189000D01*
X74988228Y-136221703D01*
G37*
G36*
X59748228Y-136221703D02*
G01*
X59903100Y-136285853D01*
X60042481Y-136378985D01*
X60161015Y-136497519D01*
X60254147Y-136636900D01*
X60318297Y-136791772D01*
X60351000Y-136956184D01*
X60351000Y-137123816D01*
X60318297Y-137288228D01*
X60254147Y-137443100D01*
X60161015Y-137582481D01*
X60042481Y-137701015D01*
X59903100Y-137794147D01*
X59748228Y-137858297D01*
X59583816Y-137891000D01*
X59416184Y-137891000D01*
X59251772Y-137858297D01*
X59096900Y-137794147D01*
X58957519Y-137701015D01*
X58838985Y-137582481D01*
X58745853Y-137443100D01*
X58681703Y-137288228D01*
X58649000Y-137123816D01*
X58649000Y-136956184D01*
X58681703Y-136791772D01*
X58745853Y-136636900D01*
X58838985Y-136497519D01*
X58957519Y-136378985D01*
X59096900Y-136285853D01*
X59251772Y-136221703D01*
X59416184Y-136189000D01*
X59583816Y-136189000D01*
X59748228Y-136221703D01*
G37*
G36*
X82735443Y-134605519D02*
G01*
X82801627Y-134612037D01*
X82971466Y-134663557D01*
X83127991Y-134747222D01*
X83163729Y-134776552D01*
X83265186Y-134859814D01*
X83348448Y-134961271D01*
X83377778Y-134997009D01*
X83461443Y-135153534D01*
X83512963Y-135323373D01*
X83530359Y-135500000D01*
X83512963Y-135676627D01*
X83461443Y-135846466D01*
X83377778Y-136002991D01*
X83348448Y-136038729D01*
X83265186Y-136140186D01*
X83165856Y-136221703D01*
X83127991Y-136252778D01*
X82971466Y-136336443D01*
X82801627Y-136387963D01*
X82735442Y-136394482D01*
X82669260Y-136401000D01*
X82330740Y-136401000D01*
X82264558Y-136394482D01*
X82198373Y-136387963D01*
X82028534Y-136336443D01*
X81872009Y-136252778D01*
X81834144Y-136221703D01*
X81734814Y-136140186D01*
X81651552Y-136038729D01*
X81622222Y-136002991D01*
X81538557Y-135846466D01*
X81487037Y-135676627D01*
X81469641Y-135500000D01*
X81487037Y-135323373D01*
X81538557Y-135153534D01*
X81622222Y-134997009D01*
X81651552Y-134961271D01*
X81734814Y-134859814D01*
X81836271Y-134776552D01*
X81872009Y-134747222D01*
X82028534Y-134663557D01*
X82198373Y-134612037D01*
X82264557Y-134605519D01*
X82330740Y-134599000D01*
X82669260Y-134599000D01*
X82735443Y-134605519D01*
G37*
G36*
X60351000Y-135351000D02*
G01*
X58649000Y-135351000D01*
X58649000Y-133649000D01*
X60351000Y-133649000D01*
X60351000Y-135351000D01*
G37*
G36*
X74988228Y-133681703D02*
G01*
X75143100Y-133745853D01*
X75282481Y-133838985D01*
X75401015Y-133957519D01*
X75494147Y-134096900D01*
X75558297Y-134251772D01*
X75591000Y-134416184D01*
X75591000Y-134583816D01*
X75558297Y-134748228D01*
X75494147Y-134903100D01*
X75401015Y-135042481D01*
X75282481Y-135161015D01*
X75143100Y-135254147D01*
X74988228Y-135318297D01*
X74823816Y-135351000D01*
X74656184Y-135351000D01*
X74491772Y-135318297D01*
X74336900Y-135254147D01*
X74197519Y-135161015D01*
X74078985Y-135042481D01*
X73985853Y-134903100D01*
X73921703Y-134748228D01*
X73889000Y-134583816D01*
X73889000Y-134416184D01*
X73921703Y-134251772D01*
X73985853Y-134096900D01*
X74078985Y-133957519D01*
X74197519Y-133838985D01*
X74336900Y-133745853D01*
X74491772Y-133681703D01*
X74656184Y-133649000D01*
X74823816Y-133649000D01*
X74988228Y-133681703D01*
G37*
G36*
X39248228Y-132681703D02*
G01*
X39403100Y-132745853D01*
X39542481Y-132838985D01*
X39661015Y-132957519D01*
X39754147Y-133096900D01*
X39818297Y-133251772D01*
X39851000Y-133416184D01*
X39851000Y-133583816D01*
X39818297Y-133748228D01*
X39754147Y-133903100D01*
X39661015Y-134042481D01*
X39542481Y-134161015D01*
X39403100Y-134254147D01*
X39248228Y-134318297D01*
X39083816Y-134351000D01*
X38916184Y-134351000D01*
X38751772Y-134318297D01*
X38596900Y-134254147D01*
X38457519Y-134161015D01*
X38338985Y-134042481D01*
X38245853Y-133903100D01*
X38181703Y-133748228D01*
X38149000Y-133583816D01*
X38149000Y-133416184D01*
X38181703Y-133251772D01*
X38245853Y-133096900D01*
X38338985Y-132957519D01*
X38457519Y-132838985D01*
X38596900Y-132745853D01*
X38751772Y-132681703D01*
X38916184Y-132649000D01*
X39083816Y-132649000D01*
X39248228Y-132681703D01*
G37*
G36*
X43248228Y-132681703D02*
G01*
X43403100Y-132745853D01*
X43542481Y-132838985D01*
X43661015Y-132957519D01*
X43754147Y-133096900D01*
X43818297Y-133251772D01*
X43851000Y-133416184D01*
X43851000Y-133583816D01*
X43818297Y-133748228D01*
X43754147Y-133903100D01*
X43661015Y-134042481D01*
X43542481Y-134161015D01*
X43403100Y-134254147D01*
X43248228Y-134318297D01*
X43083816Y-134351000D01*
X42916184Y-134351000D01*
X42751772Y-134318297D01*
X42596900Y-134254147D01*
X42457519Y-134161015D01*
X42338985Y-134042481D01*
X42245853Y-133903100D01*
X42181703Y-133748228D01*
X42149000Y-133583816D01*
X42149000Y-133416184D01*
X42181703Y-133251772D01*
X42245853Y-133096900D01*
X42338985Y-132957519D01*
X42457519Y-132838985D01*
X42596900Y-132745853D01*
X42751772Y-132681703D01*
X42916184Y-132649000D01*
X43083816Y-132649000D01*
X43248228Y-132681703D01*
G37*
G36*
X53248228Y-132681703D02*
G01*
X53403100Y-132745853D01*
X53542481Y-132838985D01*
X53661015Y-132957519D01*
X53754147Y-133096900D01*
X53818297Y-133251772D01*
X53851000Y-133416184D01*
X53851000Y-133583816D01*
X53818297Y-133748228D01*
X53754147Y-133903100D01*
X53661015Y-134042481D01*
X53542481Y-134161015D01*
X53403100Y-134254147D01*
X53248228Y-134318297D01*
X53083816Y-134351000D01*
X52916184Y-134351000D01*
X52751772Y-134318297D01*
X52596900Y-134254147D01*
X52457519Y-134161015D01*
X52338985Y-134042481D01*
X52245853Y-133903100D01*
X52181703Y-133748228D01*
X52149000Y-133583816D01*
X52149000Y-133416184D01*
X52181703Y-133251772D01*
X52245853Y-133096900D01*
X52338985Y-132957519D01*
X52457519Y-132838985D01*
X52596900Y-132745853D01*
X52751772Y-132681703D01*
X52916184Y-132649000D01*
X53083816Y-132649000D01*
X53248228Y-132681703D01*
G37*
G36*
X49248228Y-132681703D02*
G01*
X49403100Y-132745853D01*
X49542481Y-132838985D01*
X49661015Y-132957519D01*
X49754147Y-133096900D01*
X49818297Y-133251772D01*
X49851000Y-133416184D01*
X49851000Y-133583816D01*
X49818297Y-133748228D01*
X49754147Y-133903100D01*
X49661015Y-134042481D01*
X49542481Y-134161015D01*
X49403100Y-134254147D01*
X49248228Y-134318297D01*
X49083816Y-134351000D01*
X48916184Y-134351000D01*
X48751772Y-134318297D01*
X48596900Y-134254147D01*
X48457519Y-134161015D01*
X48338985Y-134042481D01*
X48245853Y-133903100D01*
X48181703Y-133748228D01*
X48149000Y-133583816D01*
X48149000Y-133416184D01*
X48181703Y-133251772D01*
X48245853Y-133096900D01*
X48338985Y-132957519D01*
X48457519Y-132838985D01*
X48596900Y-132745853D01*
X48751772Y-132681703D01*
X48916184Y-132649000D01*
X49083816Y-132649000D01*
X49248228Y-132681703D01*
G37*
G36*
X82735443Y-132105519D02*
G01*
X82801627Y-132112037D01*
X82971466Y-132163557D01*
X83127991Y-132247222D01*
X83163729Y-132276552D01*
X83265186Y-132359814D01*
X83348448Y-132461271D01*
X83377778Y-132497009D01*
X83461443Y-132653534D01*
X83512963Y-132823373D01*
X83530359Y-133000000D01*
X83512963Y-133176627D01*
X83461443Y-133346466D01*
X83377778Y-133502991D01*
X83348448Y-133538729D01*
X83265186Y-133640186D01*
X83163729Y-133723448D01*
X83127991Y-133752778D01*
X82971466Y-133836443D01*
X82801627Y-133887963D01*
X82735443Y-133894481D01*
X82669260Y-133901000D01*
X82330740Y-133901000D01*
X82264557Y-133894481D01*
X82198373Y-133887963D01*
X82028534Y-133836443D01*
X81872009Y-133752778D01*
X81836271Y-133723448D01*
X81734814Y-133640186D01*
X81651552Y-133538729D01*
X81622222Y-133502991D01*
X81538557Y-133346466D01*
X81487037Y-133176627D01*
X81469641Y-133000000D01*
X81487037Y-132823373D01*
X81538557Y-132653534D01*
X81622222Y-132497009D01*
X81651552Y-132461271D01*
X81734814Y-132359814D01*
X81836271Y-132276552D01*
X81872009Y-132247222D01*
X82028534Y-132163557D01*
X82198373Y-132112037D01*
X82264557Y-132105519D01*
X82330740Y-132099000D01*
X82669260Y-132099000D01*
X82735443Y-132105519D01*
G37*
G36*
X83383600Y-129602989D02*
G01*
X83416652Y-129613015D01*
X83447103Y-129629292D01*
X83473799Y-129651201D01*
X83495708Y-129677897D01*
X83511985Y-129708348D01*
X83522011Y-129741400D01*
X83526000Y-129781903D01*
X83526000Y-131218097D01*
X83522011Y-131258600D01*
X83511985Y-131291652D01*
X83495708Y-131322103D01*
X83473799Y-131348799D01*
X83447103Y-131370708D01*
X83416652Y-131386985D01*
X83383600Y-131397011D01*
X83343097Y-131401000D01*
X81656903Y-131401000D01*
X81616400Y-131397011D01*
X81583348Y-131386985D01*
X81552897Y-131370708D01*
X81526201Y-131348799D01*
X81504292Y-131322103D01*
X81488015Y-131291652D01*
X81477989Y-131258600D01*
X81474000Y-131218097D01*
X81474000Y-129781903D01*
X81477989Y-129741400D01*
X81488015Y-129708348D01*
X81504292Y-129677897D01*
X81526201Y-129651201D01*
X81552897Y-129629292D01*
X81583348Y-129613015D01*
X81616400Y-129602989D01*
X81656903Y-129599000D01*
X83343097Y-129599000D01*
X83383600Y-129602989D01*
G37*
G36*
X54251000Y-130851000D02*
G01*
X51749000Y-130851000D01*
X51749000Y-129149000D01*
X54251000Y-129149000D01*
X54251000Y-130851000D01*
G37*
G36*
X45946823Y-129161313D02*
G01*
X46107242Y-129209976D01*
X46174361Y-129245852D01*
X46255078Y-129288996D01*
X46384659Y-129395341D01*
X46491004Y-129524922D01*
X46491005Y-129524924D01*
X46570024Y-129672758D01*
X46618687Y-129833177D01*
X46635117Y-130000000D01*
X46618687Y-130166823D01*
X46570024Y-130327242D01*
X46529477Y-130403100D01*
X46491004Y-130475078D01*
X46384659Y-130604659D01*
X46255078Y-130711004D01*
X46255076Y-130711005D01*
X46107242Y-130790024D01*
X45946823Y-130838687D01*
X45821804Y-130851000D01*
X44938196Y-130851000D01*
X44813177Y-130838687D01*
X44652758Y-130790024D01*
X44504924Y-130711005D01*
X44504922Y-130711004D01*
X44375341Y-130604659D01*
X44268996Y-130475078D01*
X44230523Y-130403100D01*
X44189976Y-130327242D01*
X44141313Y-130166823D01*
X44124883Y-130000000D01*
X44141313Y-129833177D01*
X44189976Y-129672758D01*
X44268995Y-129524924D01*
X44268996Y-129524922D01*
X44375341Y-129395341D01*
X44504922Y-129288996D01*
X44585639Y-129245852D01*
X44652758Y-129209976D01*
X44813177Y-129161313D01*
X44938196Y-129149000D01*
X45821804Y-129149000D01*
X45946823Y-129161313D01*
G37*
G36*
X39248228Y-129181703D02*
G01*
X39403100Y-129245853D01*
X39542481Y-129338985D01*
X39661015Y-129457519D01*
X39754147Y-129596900D01*
X39818297Y-129751772D01*
X39851000Y-129916184D01*
X39851000Y-130083816D01*
X39818297Y-130248228D01*
X39754147Y-130403100D01*
X39661015Y-130542481D01*
X39542481Y-130661015D01*
X39403100Y-130754147D01*
X39248228Y-130818297D01*
X39083816Y-130851000D01*
X38916184Y-130851000D01*
X38751772Y-130818297D01*
X38596900Y-130754147D01*
X38457519Y-130661015D01*
X38338985Y-130542481D01*
X38245853Y-130403100D01*
X38181703Y-130248228D01*
X38149000Y-130083816D01*
X38149000Y-129916184D01*
X38181703Y-129751772D01*
X38245853Y-129596900D01*
X38338985Y-129457519D01*
X38457519Y-129338985D01*
X38596900Y-129245853D01*
X38751772Y-129181703D01*
X38916184Y-129149000D01*
X39083816Y-129149000D01*
X39248228Y-129181703D01*
G37*
G36*
X45946823Y-126621313D02*
G01*
X46107242Y-126669976D01*
X46239906Y-126740886D01*
X46255078Y-126748996D01*
X46384659Y-126855341D01*
X46491004Y-126984922D01*
X46491005Y-126984924D01*
X46570024Y-127132758D01*
X46618687Y-127293177D01*
X46635117Y-127460000D01*
X46618687Y-127626823D01*
X46570024Y-127787242D01*
X46499114Y-127919906D01*
X46491004Y-127935078D01*
X46384659Y-128064659D01*
X46255078Y-128171004D01*
X46255076Y-128171005D01*
X46107242Y-128250024D01*
X45946823Y-128298687D01*
X45821804Y-128311000D01*
X44938196Y-128311000D01*
X44813177Y-128298687D01*
X44652758Y-128250024D01*
X44504924Y-128171005D01*
X44504922Y-128171004D01*
X44375341Y-128064659D01*
X44268996Y-127935078D01*
X44260886Y-127919906D01*
X44189976Y-127787242D01*
X44141313Y-127626823D01*
X44124883Y-127460000D01*
X44141313Y-127293177D01*
X44189976Y-127132758D01*
X44268995Y-126984924D01*
X44268996Y-126984922D01*
X44375341Y-126855341D01*
X44504922Y-126748996D01*
X44520094Y-126740886D01*
X44652758Y-126669976D01*
X44813177Y-126621313D01*
X44938196Y-126609000D01*
X45821804Y-126609000D01*
X45946823Y-126621313D01*
G37*
G36*
X53566823Y-126621313D02*
G01*
X53727242Y-126669976D01*
X53859906Y-126740886D01*
X53875078Y-126748996D01*
X54004659Y-126855341D01*
X54111004Y-126984922D01*
X54111005Y-126984924D01*
X54190024Y-127132758D01*
X54238687Y-127293177D01*
X54255117Y-127460000D01*
X54238687Y-127626823D01*
X54190024Y-127787242D01*
X54119114Y-127919906D01*
X54111004Y-127935078D01*
X54004659Y-128064659D01*
X53875078Y-128171004D01*
X53875076Y-128171005D01*
X53727242Y-128250024D01*
X53566823Y-128298687D01*
X53441804Y-128311000D01*
X52558196Y-128311000D01*
X52433177Y-128298687D01*
X52272758Y-128250024D01*
X52124924Y-128171005D01*
X52124922Y-128171004D01*
X51995341Y-128064659D01*
X51888996Y-127935078D01*
X51880886Y-127919906D01*
X51809976Y-127787242D01*
X51761313Y-127626823D01*
X51744883Y-127460000D01*
X51761313Y-127293177D01*
X51809976Y-127132758D01*
X51888995Y-126984924D01*
X51888996Y-126984922D01*
X51995341Y-126855341D01*
X52124922Y-126748996D01*
X52140094Y-126740886D01*
X52272758Y-126669976D01*
X52433177Y-126621313D01*
X52558196Y-126609000D01*
X53441804Y-126609000D01*
X53566823Y-126621313D01*
G37*
G36*
X67368228Y-125221703D02*
G01*
X67523100Y-125285853D01*
X67662481Y-125378985D01*
X67781015Y-125497519D01*
X67874147Y-125636900D01*
X67938297Y-125791772D01*
X67971000Y-125956184D01*
X67971000Y-126123816D01*
X67938297Y-126288228D01*
X67874147Y-126443100D01*
X67781015Y-126582481D01*
X67662481Y-126701015D01*
X67523100Y-126794147D01*
X67368228Y-126858297D01*
X67203816Y-126891000D01*
X67036184Y-126891000D01*
X66871772Y-126858297D01*
X66716900Y-126794147D01*
X66577519Y-126701015D01*
X66458985Y-126582481D01*
X66365853Y-126443100D01*
X66301703Y-126288228D01*
X66269000Y-126123816D01*
X66269000Y-125956184D01*
X66301703Y-125791772D01*
X66365853Y-125636900D01*
X66458985Y-125497519D01*
X66577519Y-125378985D01*
X66716900Y-125285853D01*
X66871772Y-125221703D01*
X67036184Y-125189000D01*
X67203816Y-125189000D01*
X67368228Y-125221703D01*
G37*
G36*
X59748228Y-125221703D02*
G01*
X59903100Y-125285853D01*
X60042481Y-125378985D01*
X60161015Y-125497519D01*
X60254147Y-125636900D01*
X60318297Y-125791772D01*
X60351000Y-125956184D01*
X60351000Y-126123816D01*
X60318297Y-126288228D01*
X60254147Y-126443100D01*
X60161015Y-126582481D01*
X60042481Y-126701015D01*
X59903100Y-126794147D01*
X59748228Y-126858297D01*
X59583816Y-126891000D01*
X59416184Y-126891000D01*
X59251772Y-126858297D01*
X59096900Y-126794147D01*
X58957519Y-126701015D01*
X58838985Y-126582481D01*
X58745853Y-126443100D01*
X58681703Y-126288228D01*
X58649000Y-126123816D01*
X58649000Y-125956184D01*
X58681703Y-125791772D01*
X58745853Y-125636900D01*
X58838985Y-125497519D01*
X58957519Y-125378985D01*
X59096900Y-125285853D01*
X59251772Y-125221703D01*
X59416184Y-125189000D01*
X59583816Y-125189000D01*
X59748228Y-125221703D01*
G37*
G36*
X39248228Y-124181703D02*
G01*
X39403100Y-124245853D01*
X39542481Y-124338985D01*
X39661015Y-124457519D01*
X39754147Y-124596900D01*
X39818297Y-124751772D01*
X39851000Y-124916184D01*
X39851000Y-125083816D01*
X39818297Y-125248228D01*
X39754147Y-125403100D01*
X39661015Y-125542481D01*
X39542481Y-125661015D01*
X39403100Y-125754147D01*
X39248228Y-125818297D01*
X39083816Y-125851000D01*
X38916184Y-125851000D01*
X38751772Y-125818297D01*
X38596900Y-125754147D01*
X38457519Y-125661015D01*
X38338985Y-125542481D01*
X38245853Y-125403100D01*
X38181703Y-125248228D01*
X38149000Y-125083816D01*
X38149000Y-124916184D01*
X38181703Y-124751772D01*
X38245853Y-124596900D01*
X38338985Y-124457519D01*
X38457519Y-124338985D01*
X38596900Y-124245853D01*
X38751772Y-124181703D01*
X38916184Y-124149000D01*
X39083816Y-124149000D01*
X39248228Y-124181703D01*
G37*
G36*
X45946823Y-124081313D02*
G01*
X46107242Y-124129976D01*
X46204016Y-124181703D01*
X46255078Y-124208996D01*
X46384659Y-124315341D01*
X46491004Y-124444922D01*
X46491005Y-124444924D01*
X46570024Y-124592758D01*
X46570025Y-124592761D01*
X46571281Y-124596903D01*
X46618687Y-124753177D01*
X46635117Y-124920000D01*
X46618687Y-125086823D01*
X46570024Y-125247242D01*
X46549386Y-125285853D01*
X46491004Y-125395078D01*
X46384659Y-125524659D01*
X46255078Y-125631004D01*
X46255076Y-125631005D01*
X46107242Y-125710024D01*
X45946823Y-125758687D01*
X45821804Y-125771000D01*
X44938196Y-125771000D01*
X44813177Y-125758687D01*
X44652758Y-125710024D01*
X44504924Y-125631005D01*
X44504922Y-125631004D01*
X44375341Y-125524659D01*
X44268996Y-125395078D01*
X44210614Y-125285853D01*
X44189976Y-125247242D01*
X44141313Y-125086823D01*
X44124883Y-124920000D01*
X44141313Y-124753177D01*
X44188719Y-124596903D01*
X44189975Y-124592761D01*
X44189976Y-124592758D01*
X44268995Y-124444924D01*
X44268996Y-124444922D01*
X44375341Y-124315341D01*
X44504922Y-124208996D01*
X44555984Y-124181703D01*
X44652758Y-124129976D01*
X44813177Y-124081313D01*
X44938196Y-124069000D01*
X45821804Y-124069000D01*
X45946823Y-124081313D01*
G37*
G36*
X53566823Y-124081313D02*
G01*
X53727242Y-124129976D01*
X53824016Y-124181703D01*
X53875078Y-124208996D01*
X54004659Y-124315341D01*
X54111004Y-124444922D01*
X54111005Y-124444924D01*
X54190024Y-124592758D01*
X54190025Y-124592761D01*
X54191281Y-124596903D01*
X54238687Y-124753177D01*
X54255117Y-124920000D01*
X54238687Y-125086823D01*
X54190024Y-125247242D01*
X54169386Y-125285853D01*
X54111004Y-125395078D01*
X54004659Y-125524659D01*
X53875078Y-125631004D01*
X53875076Y-125631005D01*
X53727242Y-125710024D01*
X53566823Y-125758687D01*
X53441804Y-125771000D01*
X52558196Y-125771000D01*
X52433177Y-125758687D01*
X52272758Y-125710024D01*
X52124924Y-125631005D01*
X52124922Y-125631004D01*
X51995341Y-125524659D01*
X51888996Y-125395078D01*
X51830614Y-125285853D01*
X51809976Y-125247242D01*
X51761313Y-125086823D01*
X51744883Y-124920000D01*
X51761313Y-124753177D01*
X51808719Y-124596903D01*
X51809975Y-124592761D01*
X51809976Y-124592758D01*
X51888995Y-124444924D01*
X51888996Y-124444922D01*
X51995341Y-124315341D01*
X52124922Y-124208996D01*
X52175984Y-124181703D01*
X52272758Y-124129976D01*
X52433177Y-124081313D01*
X52558196Y-124069000D01*
X53441804Y-124069000D01*
X53566823Y-124081313D01*
G37*
G36*
X60351000Y-124351000D02*
G01*
X58649000Y-124351000D01*
X58649000Y-122649000D01*
X60351000Y-122649000D01*
X60351000Y-124351000D01*
G37*
G36*
X67368228Y-122681703D02*
G01*
X67523100Y-122745853D01*
X67662481Y-122838985D01*
X67781015Y-122957519D01*
X67874147Y-123096900D01*
X67938297Y-123251772D01*
X67971000Y-123416184D01*
X67971000Y-123583816D01*
X67938297Y-123748228D01*
X67874147Y-123903100D01*
X67781015Y-124042481D01*
X67662481Y-124161015D01*
X67523100Y-124254147D01*
X67368228Y-124318297D01*
X67203816Y-124351000D01*
X67036184Y-124351000D01*
X66871772Y-124318297D01*
X66716900Y-124254147D01*
X66577519Y-124161015D01*
X66458985Y-124042481D01*
X66365853Y-123903100D01*
X66301703Y-123748228D01*
X66269000Y-123583816D01*
X66269000Y-123416184D01*
X66301703Y-123251772D01*
X66365853Y-123096900D01*
X66458985Y-122957519D01*
X66577519Y-122838985D01*
X66716900Y-122745853D01*
X66871772Y-122681703D01*
X67036184Y-122649000D01*
X67203816Y-122649000D01*
X67368228Y-122681703D01*
G37*
G36*
X45946823Y-121541313D02*
G01*
X46107242Y-121589976D01*
X46239906Y-121660886D01*
X46255078Y-121668996D01*
X46384659Y-121775341D01*
X46491004Y-121904922D01*
X46491005Y-121904924D01*
X46570024Y-122052758D01*
X46618687Y-122213177D01*
X46635117Y-122380000D01*
X46618687Y-122546823D01*
X46570024Y-122707242D01*
X46549386Y-122745853D01*
X46491004Y-122855078D01*
X46384659Y-122984659D01*
X46255078Y-123091004D01*
X46255076Y-123091005D01*
X46107242Y-123170024D01*
X45946823Y-123218687D01*
X45821804Y-123231000D01*
X44938196Y-123231000D01*
X44813177Y-123218687D01*
X44652758Y-123170024D01*
X44504924Y-123091005D01*
X44504922Y-123091004D01*
X44375341Y-122984659D01*
X44268996Y-122855078D01*
X44210614Y-122745853D01*
X44189976Y-122707242D01*
X44141313Y-122546823D01*
X44124883Y-122380000D01*
X44141313Y-122213177D01*
X44189976Y-122052758D01*
X44268995Y-121904924D01*
X44268996Y-121904922D01*
X44375341Y-121775341D01*
X44504922Y-121668996D01*
X44520094Y-121660886D01*
X44652758Y-121589976D01*
X44813177Y-121541313D01*
X44938196Y-121529000D01*
X45821804Y-121529000D01*
X45946823Y-121541313D01*
G37*
G36*
X53566823Y-121541313D02*
G01*
X53727242Y-121589976D01*
X53859906Y-121660886D01*
X53875078Y-121668996D01*
X54004659Y-121775341D01*
X54111004Y-121904922D01*
X54111005Y-121904924D01*
X54190024Y-122052758D01*
X54238687Y-122213177D01*
X54255117Y-122380000D01*
X54238687Y-122546823D01*
X54190024Y-122707242D01*
X54169386Y-122745853D01*
X54111004Y-122855078D01*
X54004659Y-122984659D01*
X53875078Y-123091004D01*
X53875076Y-123091005D01*
X53727242Y-123170024D01*
X53566823Y-123218687D01*
X53441804Y-123231000D01*
X52558196Y-123231000D01*
X52433177Y-123218687D01*
X52272758Y-123170024D01*
X52124924Y-123091005D01*
X52124922Y-123091004D01*
X51995341Y-122984659D01*
X51888996Y-122855078D01*
X51830614Y-122745853D01*
X51809976Y-122707242D01*
X51761313Y-122546823D01*
X51744883Y-122380000D01*
X51761313Y-122213177D01*
X51809976Y-122052758D01*
X51888995Y-121904924D01*
X51888996Y-121904922D01*
X51995341Y-121775341D01*
X52124922Y-121668996D01*
X52140094Y-121660886D01*
X52272758Y-121589976D01*
X52433177Y-121541313D01*
X52558196Y-121529000D01*
X53441804Y-121529000D01*
X53566823Y-121541313D01*
G37*
G36*
X40801000Y-122301000D02*
G01*
X39199000Y-122301000D01*
X39199000Y-120699000D01*
X40801000Y-120699000D01*
X40801000Y-122301000D01*
G37*
G36*
X53566823Y-119001313D02*
G01*
X53727242Y-119049976D01*
X53859906Y-119120886D01*
X53875078Y-119128996D01*
X54004659Y-119235341D01*
X54111004Y-119364922D01*
X54111005Y-119364924D01*
X54190024Y-119512758D01*
X54238687Y-119673177D01*
X54255117Y-119840000D01*
X54238687Y-120006823D01*
X54190024Y-120167242D01*
X54119114Y-120299906D01*
X54111004Y-120315078D01*
X54004659Y-120444659D01*
X53875078Y-120551004D01*
X53875076Y-120551005D01*
X53727242Y-120630024D01*
X53566823Y-120678687D01*
X53441804Y-120691000D01*
X52558196Y-120691000D01*
X52433177Y-120678687D01*
X52272758Y-120630024D01*
X52124924Y-120551005D01*
X52124922Y-120551004D01*
X51995341Y-120444659D01*
X51888996Y-120315078D01*
X51880886Y-120299906D01*
X51809976Y-120167242D01*
X51761313Y-120006823D01*
X51744883Y-119840000D01*
X51761313Y-119673177D01*
X51809976Y-119512758D01*
X51888995Y-119364924D01*
X51888996Y-119364922D01*
X51995341Y-119235341D01*
X52124922Y-119128996D01*
X52140094Y-119120886D01*
X52272758Y-119049976D01*
X52433177Y-119001313D01*
X52558196Y-118989000D01*
X53441804Y-118989000D01*
X53566823Y-119001313D01*
G37*
G36*
X45946823Y-119001313D02*
G01*
X46107242Y-119049976D01*
X46239906Y-119120886D01*
X46255078Y-119128996D01*
X46384659Y-119235341D01*
X46491004Y-119364922D01*
X46491005Y-119364924D01*
X46570024Y-119512758D01*
X46618687Y-119673177D01*
X46635117Y-119840000D01*
X46618687Y-120006823D01*
X46570024Y-120167242D01*
X46499114Y-120299906D01*
X46491004Y-120315078D01*
X46384659Y-120444659D01*
X46255078Y-120551004D01*
X46255076Y-120551005D01*
X46107242Y-120630024D01*
X45946823Y-120678687D01*
X45821804Y-120691000D01*
X44938196Y-120691000D01*
X44813177Y-120678687D01*
X44652758Y-120630024D01*
X44504924Y-120551005D01*
X44504922Y-120551004D01*
X44375341Y-120444659D01*
X44268996Y-120315078D01*
X44260886Y-120299906D01*
X44189976Y-120167242D01*
X44141313Y-120006823D01*
X44124883Y-119840000D01*
X44141313Y-119673177D01*
X44189976Y-119512758D01*
X44268995Y-119364924D01*
X44268996Y-119364922D01*
X44375341Y-119235341D01*
X44504922Y-119128996D01*
X44520094Y-119120886D01*
X44652758Y-119049976D01*
X44813177Y-119001313D01*
X44938196Y-118989000D01*
X45821804Y-118989000D01*
X45946823Y-119001313D01*
G37*
G36*
X40233642Y-118189781D02*
G01*
X40379414Y-118250162D01*
X40379416Y-118250163D01*
X40510608Y-118337822D01*
X40622178Y-118449392D01*
X40709837Y-118580584D01*
X40709838Y-118580586D01*
X40770219Y-118726358D01*
X40801000Y-118881107D01*
X40801000Y-119038893D01*
X40770219Y-119193642D01*
X40709838Y-119339414D01*
X40709837Y-119339416D01*
X40622178Y-119470608D01*
X40510608Y-119582178D01*
X40379416Y-119669837D01*
X40379415Y-119669838D01*
X40379414Y-119669838D01*
X40233642Y-119730219D01*
X40078893Y-119761000D01*
X39921107Y-119761000D01*
X39766358Y-119730219D01*
X39620586Y-119669838D01*
X39620585Y-119669838D01*
X39620584Y-119669837D01*
X39489392Y-119582178D01*
X39377822Y-119470608D01*
X39290163Y-119339416D01*
X39290162Y-119339414D01*
X39229781Y-119193642D01*
X39199000Y-119038893D01*
X39199000Y-118881107D01*
X39229781Y-118726358D01*
X39290162Y-118580586D01*
X39290163Y-118580584D01*
X39377822Y-118449392D01*
X39489392Y-118337822D01*
X39620584Y-118250163D01*
X39620586Y-118250162D01*
X39766358Y-118189781D01*
X39921107Y-118159000D01*
X40078893Y-118159000D01*
X40233642Y-118189781D01*
G37*
G36*
X45946823Y-116461313D02*
G01*
X46107242Y-116509976D01*
X46239906Y-116580886D01*
X46255078Y-116588996D01*
X46384659Y-116695341D01*
X46491004Y-116824922D01*
X46491005Y-116824924D01*
X46570024Y-116972758D01*
X46618687Y-117133177D01*
X46635117Y-117300000D01*
X46618687Y-117466823D01*
X46570024Y-117627242D01*
X46499114Y-117759906D01*
X46491004Y-117775078D01*
X46384659Y-117904659D01*
X46255078Y-118011004D01*
X46255076Y-118011005D01*
X46107242Y-118090024D01*
X45946823Y-118138687D01*
X45821804Y-118151000D01*
X44938196Y-118151000D01*
X44813177Y-118138687D01*
X44652758Y-118090024D01*
X44504924Y-118011005D01*
X44504922Y-118011004D01*
X44375341Y-117904659D01*
X44268996Y-117775078D01*
X44260886Y-117759906D01*
X44189976Y-117627242D01*
X44141313Y-117466823D01*
X44124883Y-117300000D01*
X44141313Y-117133177D01*
X44189976Y-116972758D01*
X44268995Y-116824924D01*
X44268996Y-116824922D01*
X44375341Y-116695341D01*
X44504922Y-116588996D01*
X44520094Y-116580886D01*
X44652758Y-116509976D01*
X44813177Y-116461313D01*
X44938196Y-116449000D01*
X45821804Y-116449000D01*
X45946823Y-116461313D01*
G37*
G36*
X53566823Y-116461313D02*
G01*
X53727242Y-116509976D01*
X53859906Y-116580886D01*
X53875078Y-116588996D01*
X54004659Y-116695341D01*
X54111004Y-116824922D01*
X54111005Y-116824924D01*
X54190024Y-116972758D01*
X54238687Y-117133177D01*
X54255117Y-117300000D01*
X54238687Y-117466823D01*
X54190024Y-117627242D01*
X54119114Y-117759906D01*
X54111004Y-117775078D01*
X54004659Y-117904659D01*
X53875078Y-118011004D01*
X53875076Y-118011005D01*
X53727242Y-118090024D01*
X53566823Y-118138687D01*
X53441804Y-118151000D01*
X52558196Y-118151000D01*
X52433177Y-118138687D01*
X52272758Y-118090024D01*
X52124924Y-118011005D01*
X52124922Y-118011004D01*
X51995341Y-117904659D01*
X51888996Y-117775078D01*
X51880886Y-117759906D01*
X51809976Y-117627242D01*
X51761313Y-117466823D01*
X51744883Y-117300000D01*
X51761313Y-117133177D01*
X51809976Y-116972758D01*
X51888995Y-116824924D01*
X51888996Y-116824922D01*
X51995341Y-116695341D01*
X52124922Y-116588996D01*
X52140094Y-116580886D01*
X52272758Y-116509976D01*
X52433177Y-116461313D01*
X52558196Y-116449000D01*
X53441804Y-116449000D01*
X53566823Y-116461313D01*
G37*
G36*
X40233642Y-115649781D02*
G01*
X40379414Y-115710162D01*
X40379416Y-115710163D01*
X40510608Y-115797822D01*
X40622178Y-115909392D01*
X40709837Y-116040584D01*
X40709838Y-116040586D01*
X40770219Y-116186358D01*
X40801000Y-116341107D01*
X40801000Y-116498893D01*
X40770219Y-116653642D01*
X40709838Y-116799414D01*
X40709837Y-116799416D01*
X40622178Y-116930608D01*
X40510608Y-117042178D01*
X40379416Y-117129837D01*
X40379415Y-117129838D01*
X40379414Y-117129838D01*
X40233642Y-117190219D01*
X40078893Y-117221000D01*
X39921107Y-117221000D01*
X39766358Y-117190219D01*
X39620586Y-117129838D01*
X39620585Y-117129838D01*
X39620584Y-117129837D01*
X39489392Y-117042178D01*
X39377822Y-116930608D01*
X39290163Y-116799416D01*
X39290162Y-116799414D01*
X39229781Y-116653642D01*
X39199000Y-116498893D01*
X39199000Y-116341107D01*
X39229781Y-116186358D01*
X39290162Y-116040586D01*
X39290163Y-116040584D01*
X39377822Y-115909392D01*
X39489392Y-115797822D01*
X39620584Y-115710163D01*
X39620586Y-115710162D01*
X39766358Y-115649781D01*
X39921107Y-115619000D01*
X40078893Y-115619000D01*
X40233642Y-115649781D01*
G37*
G36*
X45946823Y-113921313D02*
G01*
X46107242Y-113969976D01*
X46239906Y-114040886D01*
X46255078Y-114048996D01*
X46384659Y-114155341D01*
X46491004Y-114284922D01*
X46491005Y-114284924D01*
X46570024Y-114432758D01*
X46618687Y-114593177D01*
X46635117Y-114760000D01*
X46618687Y-114926823D01*
X46570024Y-115087242D01*
X46499114Y-115219906D01*
X46491004Y-115235078D01*
X46384659Y-115364659D01*
X46255078Y-115471004D01*
X46255076Y-115471005D01*
X46107242Y-115550024D01*
X45946823Y-115598687D01*
X45821804Y-115611000D01*
X44938196Y-115611000D01*
X44813177Y-115598687D01*
X44652758Y-115550024D01*
X44504924Y-115471005D01*
X44504922Y-115471004D01*
X44375341Y-115364659D01*
X44268996Y-115235078D01*
X44260886Y-115219906D01*
X44189976Y-115087242D01*
X44141313Y-114926823D01*
X44124883Y-114760000D01*
X44141313Y-114593177D01*
X44189976Y-114432758D01*
X44268995Y-114284924D01*
X44268996Y-114284922D01*
X44375341Y-114155341D01*
X44504922Y-114048996D01*
X44520094Y-114040886D01*
X44652758Y-113969976D01*
X44813177Y-113921313D01*
X44938196Y-113909000D01*
X45821804Y-113909000D01*
X45946823Y-113921313D01*
G37*
G36*
X53566823Y-113921313D02*
G01*
X53727242Y-113969976D01*
X53859906Y-114040886D01*
X53875078Y-114048996D01*
X54004659Y-114155341D01*
X54111004Y-114284922D01*
X54111005Y-114284924D01*
X54190024Y-114432758D01*
X54238687Y-114593177D01*
X54255117Y-114760000D01*
X54238687Y-114926823D01*
X54190024Y-115087242D01*
X54119114Y-115219906D01*
X54111004Y-115235078D01*
X54004659Y-115364659D01*
X53875078Y-115471004D01*
X53875076Y-115471005D01*
X53727242Y-115550024D01*
X53566823Y-115598687D01*
X53441804Y-115611000D01*
X52558196Y-115611000D01*
X52433177Y-115598687D01*
X52272758Y-115550024D01*
X52124924Y-115471005D01*
X52124922Y-115471004D01*
X51995341Y-115364659D01*
X51888996Y-115235078D01*
X51880886Y-115219906D01*
X51809976Y-115087242D01*
X51761313Y-114926823D01*
X51744883Y-114760000D01*
X51761313Y-114593177D01*
X51809976Y-114432758D01*
X51888995Y-114284924D01*
X51888996Y-114284922D01*
X51995341Y-114155341D01*
X52124922Y-114048996D01*
X52140094Y-114040886D01*
X52272758Y-113969976D01*
X52433177Y-113921313D01*
X52558196Y-113909000D01*
X53441804Y-113909000D01*
X53566823Y-113921313D01*
G37*
M02*
