G04 #@! TF.GenerationSoftware,KiCad,Pcbnew,(5.1.5)-2*
G04 #@! TF.CreationDate,2019-12-07T22:10:36+09:00*
G04 #@! TF.ProjectId,circuit_master_ver.0.1.0,63697263-7569-4745-9f6d-61737465725f,rev?*
G04 #@! TF.SameCoordinates,Original*
G04 #@! TF.FileFunction,Legend,Top*
G04 #@! TF.FilePolarity,Positive*
%FSLAX46Y46*%
G04 Gerber Fmt 4.6, Leading zero omitted, Abs format (unit mm)*
G04 Created by KiCad (PCBNEW (5.1.5)-2) date 2019-12-07 22:10:36*
%MOMM*%
%LPD*%
G04 APERTURE LIST*
%ADD10C,0.120000*%
%ADD11C,0.150000*%
G04 APERTURE END LIST*
D10*
X62570000Y-144400000D02*
X62200000Y-145300000D01*
X65520000Y-144400000D02*
X62570000Y-144400000D01*
X65850000Y-145300000D02*
X65520000Y-144400000D01*
X65970000Y-146850000D02*
X66000000Y-146700000D01*
X62120000Y-146850000D02*
X65970000Y-146850000D01*
X37770000Y-133770000D02*
X37770000Y-131230000D01*
X37770000Y-131230000D02*
X35100000Y-131230000D01*
X35100000Y-133770000D02*
X35100000Y-172000000D01*
X35100000Y-128560000D02*
X35100000Y-131230000D01*
X50470000Y-131230000D02*
X53140000Y-131230000D01*
X50470000Y-131230000D02*
X50470000Y-169330000D01*
X50470000Y-169330000D02*
X53140000Y-169330000D01*
X37770000Y-133770000D02*
X35100000Y-133770000D01*
X37770000Y-133770000D02*
X37770000Y-169330000D01*
X37770000Y-169330000D02*
X35100000Y-169330000D01*
X35100000Y-172000000D02*
X53140000Y-172000000D01*
X53140000Y-172000000D02*
X53140000Y-128560000D01*
X53140000Y-128560000D02*
X35100000Y-128560000D01*
X69030000Y-144630000D02*
X73970000Y-144630000D01*
X69030000Y-147370000D02*
X73970000Y-147370000D01*
X69030000Y-144630000D02*
X69030000Y-144945000D01*
X69030000Y-147055000D02*
X69030000Y-147370000D01*
X73970000Y-144630000D02*
X73970000Y-144945000D01*
X73970000Y-147055000D02*
X73970000Y-147370000D01*
X39000000Y-103190000D02*
X51560000Y-103190000D01*
X51560000Y-103190000D02*
X51560000Y-109310000D01*
X35330000Y-107500000D02*
X35330000Y-109310000D01*
X35330000Y-112300000D02*
X35330000Y-124710000D01*
X51560000Y-124710000D02*
X35330000Y-124710000D01*
X51560000Y-112290000D02*
X51560000Y-124710000D01*
X62940000Y-168540000D02*
X62940000Y-174510000D01*
X62940000Y-174510000D02*
X75560000Y-174510000D01*
X75560000Y-174510000D02*
X75560000Y-168540000D01*
X75560000Y-168540000D02*
X62940000Y-168540000D01*
X66250000Y-168550000D02*
X66250000Y-169300000D01*
X66250000Y-169300000D02*
X72250000Y-169300000D01*
X72250000Y-169300000D02*
X72250000Y-168550000D01*
X72250000Y-168550000D02*
X66250000Y-168550000D01*
X62950000Y-168550000D02*
X62950000Y-169300000D01*
X62950000Y-169300000D02*
X64750000Y-169300000D01*
X64750000Y-169300000D02*
X64750000Y-168550000D01*
X64750000Y-168550000D02*
X62950000Y-168550000D01*
X73750000Y-168550000D02*
X73750000Y-169300000D01*
X73750000Y-169300000D02*
X75550000Y-169300000D01*
X75550000Y-169300000D02*
X75550000Y-168550000D01*
X75550000Y-168550000D02*
X73750000Y-168550000D01*
X62950000Y-170800000D02*
X63700000Y-170800000D01*
X63700000Y-170800000D02*
X63700000Y-173750000D01*
X63700000Y-173750000D02*
X69250000Y-173750000D01*
X75550000Y-170800000D02*
X74800000Y-170800000D01*
X74800000Y-170800000D02*
X74800000Y-173750000D01*
X74800000Y-173750000D02*
X69250000Y-173750000D01*
X63900000Y-168250000D02*
X62650000Y-168250000D01*
X62650000Y-168250000D02*
X62650000Y-169500000D01*
X72620000Y-153500000D02*
X71850000Y-153500000D01*
X64540000Y-153500000D02*
X65310000Y-153500000D01*
X71850000Y-152130000D02*
X65310000Y-152130000D01*
X71850000Y-154870000D02*
X71850000Y-152130000D01*
X65310000Y-154870000D02*
X71850000Y-154870000D01*
X65310000Y-152130000D02*
X65310000Y-154870000D01*
X65310000Y-157130000D02*
X65310000Y-159870000D01*
X65310000Y-159870000D02*
X71850000Y-159870000D01*
X71850000Y-159870000D02*
X71850000Y-157130000D01*
X71850000Y-157130000D02*
X65310000Y-157130000D01*
X64540000Y-158500000D02*
X65310000Y-158500000D01*
X72620000Y-158500000D02*
X71850000Y-158500000D01*
X72620000Y-163500000D02*
X71850000Y-163500000D01*
X64540000Y-163500000D02*
X65310000Y-163500000D01*
X71850000Y-162130000D02*
X65310000Y-162130000D01*
X71850000Y-164870000D02*
X71850000Y-162130000D01*
X65310000Y-164870000D02*
X71850000Y-164870000D01*
X65310000Y-162130000D02*
X65310000Y-164870000D01*
X65810000Y-115130000D02*
X65810000Y-117870000D01*
X65810000Y-117870000D02*
X72350000Y-117870000D01*
X72350000Y-117870000D02*
X72350000Y-115130000D01*
X72350000Y-115130000D02*
X65810000Y-115130000D01*
X65040000Y-116500000D02*
X65810000Y-116500000D01*
X73120000Y-116500000D02*
X72350000Y-116500000D01*
X69310000Y-121670000D02*
G75*
G02X67310000Y-121670000I-1000000J0D01*
G01*
X67310000Y-121670000D02*
X66060000Y-121670000D01*
X66060000Y-121670000D02*
X66060000Y-139570000D01*
X66060000Y-139570000D02*
X70560000Y-139570000D01*
X70560000Y-139570000D02*
X70560000Y-121670000D01*
X70560000Y-121670000D02*
X69310000Y-121670000D01*
X63060000Y-121610000D02*
X63060000Y-139630000D01*
X63060000Y-139630000D02*
X73560000Y-139630000D01*
X73560000Y-139630000D02*
X73560000Y-121610000D01*
X73560000Y-121610000D02*
X63060000Y-121610000D01*
D11*
X63944761Y-144197619D02*
X63849523Y-144150000D01*
X63754285Y-144054761D01*
X63611428Y-143911904D01*
X63516190Y-143864285D01*
X63420952Y-143864285D01*
X63468571Y-144102380D02*
X63373333Y-144054761D01*
X63278095Y-143959523D01*
X63230476Y-143769047D01*
X63230476Y-143435714D01*
X63278095Y-143245238D01*
X63373333Y-143150000D01*
X63468571Y-143102380D01*
X63659047Y-143102380D01*
X63754285Y-143150000D01*
X63849523Y-143245238D01*
X63897142Y-143435714D01*
X63897142Y-143769047D01*
X63849523Y-143959523D01*
X63754285Y-144054761D01*
X63659047Y-144102380D01*
X63468571Y-144102380D01*
X64849523Y-144102380D02*
X64278095Y-144102380D01*
X64563809Y-144102380D02*
X64563809Y-143102380D01*
X64468571Y-143245238D01*
X64373333Y-143340476D01*
X64278095Y-143388095D01*
X43405714Y-127586666D02*
X43881904Y-127586666D01*
X43310476Y-127872380D02*
X43643809Y-126872380D01*
X43977142Y-127872380D01*
X44834285Y-127872380D02*
X44262857Y-127872380D01*
X44548571Y-127872380D02*
X44548571Y-126872380D01*
X44453333Y-127015238D01*
X44358095Y-127110476D01*
X44262857Y-127158095D01*
X71333333Y-143857142D02*
X71285714Y-143904761D01*
X71142857Y-143952380D01*
X71047619Y-143952380D01*
X70904761Y-143904761D01*
X70809523Y-143809523D01*
X70761904Y-143714285D01*
X70714285Y-143523809D01*
X70714285Y-143380952D01*
X70761904Y-143190476D01*
X70809523Y-143095238D01*
X70904761Y-143000000D01*
X71047619Y-142952380D01*
X71142857Y-142952380D01*
X71285714Y-143000000D01*
X71333333Y-143047619D01*
X72285714Y-143952380D02*
X71714285Y-143952380D01*
X72000000Y-143952380D02*
X72000000Y-142952380D01*
X71904761Y-143095238D01*
X71809523Y-143190476D01*
X71714285Y-143238095D01*
X43666666Y-101952380D02*
X43666666Y-102666666D01*
X43619047Y-102809523D01*
X43523809Y-102904761D01*
X43380952Y-102952380D01*
X43285714Y-102952380D01*
X44666666Y-102952380D02*
X44095238Y-102952380D01*
X44380952Y-102952380D02*
X44380952Y-101952380D01*
X44285714Y-102095238D01*
X44190476Y-102190476D01*
X44095238Y-102238095D01*
X68916666Y-166902380D02*
X68916666Y-167616666D01*
X68869047Y-167759523D01*
X68773809Y-167854761D01*
X68630952Y-167902380D01*
X68535714Y-167902380D01*
X69345238Y-166997619D02*
X69392857Y-166950000D01*
X69488095Y-166902380D01*
X69726190Y-166902380D01*
X69821428Y-166950000D01*
X69869047Y-166997619D01*
X69916666Y-167092857D01*
X69916666Y-167188095D01*
X69869047Y-167330952D01*
X69297619Y-167902380D01*
X69916666Y-167902380D01*
X68413333Y-151582380D02*
X68080000Y-151106190D01*
X67841904Y-151582380D02*
X67841904Y-150582380D01*
X68222857Y-150582380D01*
X68318095Y-150630000D01*
X68365714Y-150677619D01*
X68413333Y-150772857D01*
X68413333Y-150915714D01*
X68365714Y-151010952D01*
X68318095Y-151058571D01*
X68222857Y-151106190D01*
X67841904Y-151106190D01*
X69365714Y-151582380D02*
X68794285Y-151582380D01*
X69080000Y-151582380D02*
X69080000Y-150582380D01*
X68984761Y-150725238D01*
X68889523Y-150820476D01*
X68794285Y-150868095D01*
X68413333Y-156582380D02*
X68080000Y-156106190D01*
X67841904Y-156582380D02*
X67841904Y-155582380D01*
X68222857Y-155582380D01*
X68318095Y-155630000D01*
X68365714Y-155677619D01*
X68413333Y-155772857D01*
X68413333Y-155915714D01*
X68365714Y-156010952D01*
X68318095Y-156058571D01*
X68222857Y-156106190D01*
X67841904Y-156106190D01*
X68794285Y-155677619D02*
X68841904Y-155630000D01*
X68937142Y-155582380D01*
X69175238Y-155582380D01*
X69270476Y-155630000D01*
X69318095Y-155677619D01*
X69365714Y-155772857D01*
X69365714Y-155868095D01*
X69318095Y-156010952D01*
X68746666Y-156582380D01*
X69365714Y-156582380D01*
X68413333Y-161582380D02*
X68080000Y-161106190D01*
X67841904Y-161582380D02*
X67841904Y-160582380D01*
X68222857Y-160582380D01*
X68318095Y-160630000D01*
X68365714Y-160677619D01*
X68413333Y-160772857D01*
X68413333Y-160915714D01*
X68365714Y-161010952D01*
X68318095Y-161058571D01*
X68222857Y-161106190D01*
X67841904Y-161106190D01*
X68746666Y-160582380D02*
X69365714Y-160582380D01*
X69032380Y-160963333D01*
X69175238Y-160963333D01*
X69270476Y-161010952D01*
X69318095Y-161058571D01*
X69365714Y-161153809D01*
X69365714Y-161391904D01*
X69318095Y-161487142D01*
X69270476Y-161534761D01*
X69175238Y-161582380D01*
X68889523Y-161582380D01*
X68794285Y-161534761D01*
X68746666Y-161487142D01*
X68913333Y-114582380D02*
X68580000Y-114106190D01*
X68341904Y-114582380D02*
X68341904Y-113582380D01*
X68722857Y-113582380D01*
X68818095Y-113630000D01*
X68865714Y-113677619D01*
X68913333Y-113772857D01*
X68913333Y-113915714D01*
X68865714Y-114010952D01*
X68818095Y-114058571D01*
X68722857Y-114106190D01*
X68341904Y-114106190D01*
X69770476Y-113915714D02*
X69770476Y-114582380D01*
X69532380Y-113534761D02*
X69294285Y-114249047D01*
X69913333Y-114249047D01*
X67548095Y-120122380D02*
X67548095Y-120931904D01*
X67595714Y-121027142D01*
X67643333Y-121074761D01*
X67738571Y-121122380D01*
X67929047Y-121122380D01*
X68024285Y-121074761D01*
X68071904Y-121027142D01*
X68119523Y-120931904D01*
X68119523Y-120122380D01*
X69119523Y-121122380D02*
X68548095Y-121122380D01*
X68833809Y-121122380D02*
X68833809Y-120122380D01*
X68738571Y-120265238D01*
X68643333Y-120360476D01*
X68548095Y-120408095D01*
M02*
