M48
; DRILL file {KiCad (5.1.5)-2} date 2019/12/07 22:11:26
; FORMAT={-:-/ absolute / metric / decimal}
; #@! TF.CreationDate,2019-12-07T22:11:26+09:00
; #@! TF.GenerationSoftware,Kicad,Pcbnew,(5.1.5)-2
FMAT,2
METRIC
T1C0.600
T2C0.750
T3C0.800
T4C0.900
T5C0.950
T6C1.020
T7C1.600
T8C3.250
%
G90
G05
T1
X33.0Y-146.5
X34.0Y-176.0
X35.0Y-105.0
X35.0Y-125.0
X44.0Y-139.0
X47.0Y-123.5
X54.0Y-105.0
X54.5Y-176.0
X60.0Y-142.5
X60.5Y-156.5
X68.0Y-105.0
X68.0Y-165.0
X68.5Y-119.0
X70.5Y-150.5
X76.0Y-176.0
X77.0Y-130.5
X77.5Y-155.5
T2
X61.5Y-146.0
X64.04Y-146.0
X66.58Y-146.0
T3
X63.5Y-158.5
X73.66Y-158.5
X64.0Y-116.5
X74.16Y-116.5
X63.5Y-153.5
X73.66Y-153.5
X69.0Y-146.0
X74.0Y-146.0
X36.5Y-132.5
X36.5Y-135.04
X36.5Y-137.58
X36.5Y-140.12
X36.5Y-142.66
X36.5Y-145.2
X36.5Y-147.74
X36.5Y-150.28
X36.5Y-152.82
X36.5Y-155.36
X36.5Y-157.9
X36.5Y-160.44
X36.5Y-162.98
X36.5Y-165.52
X36.5Y-168.06
X51.74Y-132.5
X51.74Y-135.04
X51.74Y-137.58
X51.74Y-140.12
X51.74Y-142.66
X51.74Y-145.2
X51.74Y-147.74
X51.74Y-150.28
X51.74Y-152.82
X51.74Y-155.36
X51.74Y-157.9
X51.74Y-160.44
X51.74Y-162.98
X51.74Y-165.52
X51.74Y-168.06
X64.5Y-123.0
X64.5Y-125.54
X64.5Y-128.08
X64.5Y-130.62
X64.5Y-133.16
X64.5Y-135.7
X64.5Y-138.24
X72.12Y-123.0
X72.12Y-125.54
X72.12Y-128.08
X72.12Y-130.62
X72.12Y-133.16
X72.12Y-135.7
X72.12Y-138.24
X63.5Y-163.5
X73.66Y-163.5
T4
X39.0Y-107.5
X40.27Y-104.96
X41.54Y-107.5
X42.81Y-104.96
X44.08Y-107.5
X45.35Y-104.96
X46.62Y-107.5
X47.89Y-104.96
T5
X65.5Y-171.0
X68.0Y-171.0
X70.5Y-171.0
X73.0Y-171.0
T6
X37.12Y-118.93
X39.66Y-117.23
X47.23Y-118.93
X49.77Y-117.23
T7
X35.57Y-110.8
X51.32Y-110.8
T8
X37.73Y-113.85
X49.16Y-113.85
T0
M30
