G04 #@! TF.GenerationSoftware,KiCad,Pcbnew,(5.1.5)-2*
G04 #@! TF.CreationDate,2019-12-07T22:10:36+09:00*
G04 #@! TF.ProjectId,circuit_master_ver.0.1.0,63697263-7569-4745-9f6d-61737465725f,rev?*
G04 #@! TF.SameCoordinates,Original*
G04 #@! TF.FileFunction,Soldermask,Top*
G04 #@! TF.FilePolarity,Negative*
%FSLAX46Y46*%
G04 Gerber Fmt 4.6, Leading zero omitted, Abs format (unit mm)*
G04 Created by KiCad (PCBNEW (5.1.5)-2) date 2019-12-07 22:10:36*
%MOMM*%
%LPD*%
G04 APERTURE LIST*
%ADD10C,0.100000*%
G04 APERTURE END LIST*
D10*
G36*
X68176626Y-169987037D02*
G01*
X68346465Y-170038557D01*
X68346467Y-170038558D01*
X68502989Y-170122221D01*
X68640186Y-170234814D01*
X68723448Y-170336271D01*
X68752778Y-170372009D01*
X68836443Y-170528534D01*
X68887963Y-170698373D01*
X68901000Y-170830742D01*
X68901000Y-171169257D01*
X68887963Y-171301626D01*
X68836443Y-171471466D01*
X68752778Y-171627991D01*
X68723448Y-171663729D01*
X68640186Y-171765186D01*
X68545250Y-171843097D01*
X68502991Y-171877778D01*
X68346466Y-171961443D01*
X68176627Y-172012963D01*
X68000000Y-172030359D01*
X67823374Y-172012963D01*
X67653535Y-171961443D01*
X67497010Y-171877778D01*
X67359815Y-171765185D01*
X67247222Y-171627991D01*
X67163557Y-171471466D01*
X67112037Y-171301627D01*
X67099000Y-171169258D01*
X67099000Y-170830743D01*
X67112037Y-170698374D01*
X67163557Y-170528535D01*
X67247222Y-170372010D01*
X67247223Y-170372009D01*
X67359814Y-170234814D01*
X67461271Y-170151552D01*
X67497009Y-170122222D01*
X67653534Y-170038557D01*
X67823373Y-169987037D01*
X68000000Y-169969641D01*
X68176626Y-169987037D01*
G37*
G36*
X70676626Y-169987037D02*
G01*
X70846465Y-170038557D01*
X70846467Y-170038558D01*
X71002989Y-170122221D01*
X71140186Y-170234814D01*
X71223448Y-170336271D01*
X71252778Y-170372009D01*
X71336443Y-170528534D01*
X71387963Y-170698373D01*
X71401000Y-170830742D01*
X71401000Y-171169257D01*
X71387963Y-171301626D01*
X71336443Y-171471466D01*
X71252778Y-171627991D01*
X71223448Y-171663729D01*
X71140186Y-171765186D01*
X71045250Y-171843097D01*
X71002991Y-171877778D01*
X70846466Y-171961443D01*
X70676627Y-172012963D01*
X70500000Y-172030359D01*
X70323374Y-172012963D01*
X70153535Y-171961443D01*
X69997010Y-171877778D01*
X69859815Y-171765185D01*
X69747222Y-171627991D01*
X69663557Y-171471466D01*
X69612037Y-171301627D01*
X69599000Y-171169258D01*
X69599000Y-170830743D01*
X69612037Y-170698374D01*
X69663557Y-170528535D01*
X69747222Y-170372010D01*
X69747223Y-170372009D01*
X69859814Y-170234814D01*
X69961271Y-170151552D01*
X69997009Y-170122222D01*
X70153534Y-170038557D01*
X70323373Y-169987037D01*
X70500000Y-169969641D01*
X70676626Y-169987037D01*
G37*
G36*
X73176626Y-169987037D02*
G01*
X73346465Y-170038557D01*
X73346467Y-170038558D01*
X73502989Y-170122221D01*
X73640186Y-170234814D01*
X73723448Y-170336271D01*
X73752778Y-170372009D01*
X73836443Y-170528534D01*
X73887963Y-170698373D01*
X73901000Y-170830742D01*
X73901000Y-171169257D01*
X73887963Y-171301626D01*
X73836443Y-171471466D01*
X73752778Y-171627991D01*
X73723448Y-171663729D01*
X73640186Y-171765186D01*
X73545250Y-171843097D01*
X73502991Y-171877778D01*
X73346466Y-171961443D01*
X73176627Y-172012963D01*
X73000000Y-172030359D01*
X72823374Y-172012963D01*
X72653535Y-171961443D01*
X72497010Y-171877778D01*
X72359815Y-171765185D01*
X72247222Y-171627991D01*
X72163557Y-171471466D01*
X72112037Y-171301627D01*
X72099000Y-171169258D01*
X72099000Y-170830743D01*
X72112037Y-170698374D01*
X72163557Y-170528535D01*
X72247222Y-170372010D01*
X72247223Y-170372009D01*
X72359814Y-170234814D01*
X72461271Y-170151552D01*
X72497009Y-170122222D01*
X72653534Y-170038557D01*
X72823373Y-169987037D01*
X73000000Y-169969641D01*
X73176626Y-169987037D01*
G37*
G36*
X66258600Y-169977989D02*
G01*
X66291652Y-169988015D01*
X66322103Y-170004292D01*
X66348799Y-170026201D01*
X66370708Y-170052897D01*
X66386985Y-170083348D01*
X66397011Y-170116400D01*
X66401000Y-170156903D01*
X66401000Y-171843097D01*
X66397011Y-171883600D01*
X66386985Y-171916652D01*
X66370708Y-171947103D01*
X66348799Y-171973799D01*
X66322103Y-171995708D01*
X66291652Y-172011985D01*
X66258600Y-172022011D01*
X66218097Y-172026000D01*
X64781903Y-172026000D01*
X64741400Y-172022011D01*
X64708348Y-172011985D01*
X64677897Y-171995708D01*
X64651201Y-171973799D01*
X64629292Y-171947103D01*
X64613015Y-171916652D01*
X64602989Y-171883600D01*
X64599000Y-171843097D01*
X64599000Y-170156903D01*
X64602989Y-170116400D01*
X64613015Y-170083348D01*
X64629292Y-170052897D01*
X64651201Y-170026201D01*
X64677897Y-170004292D01*
X64708348Y-169988015D01*
X64741400Y-169977989D01*
X64781903Y-169974000D01*
X66218097Y-169974000D01*
X66258600Y-169977989D01*
G37*
G36*
X51988228Y-167241703D02*
G01*
X52143100Y-167305853D01*
X52282481Y-167398985D01*
X52401015Y-167517519D01*
X52494147Y-167656900D01*
X52558297Y-167811772D01*
X52591000Y-167976184D01*
X52591000Y-168143816D01*
X52558297Y-168308228D01*
X52494147Y-168463100D01*
X52401015Y-168602481D01*
X52282481Y-168721015D01*
X52143100Y-168814147D01*
X51988228Y-168878297D01*
X51823816Y-168911000D01*
X51656184Y-168911000D01*
X51491772Y-168878297D01*
X51336900Y-168814147D01*
X51197519Y-168721015D01*
X51078985Y-168602481D01*
X50985853Y-168463100D01*
X50921703Y-168308228D01*
X50889000Y-168143816D01*
X50889000Y-167976184D01*
X50921703Y-167811772D01*
X50985853Y-167656900D01*
X51078985Y-167517519D01*
X51197519Y-167398985D01*
X51336900Y-167305853D01*
X51491772Y-167241703D01*
X51656184Y-167209000D01*
X51823816Y-167209000D01*
X51988228Y-167241703D01*
G37*
G36*
X36748228Y-167241703D02*
G01*
X36903100Y-167305853D01*
X37042481Y-167398985D01*
X37161015Y-167517519D01*
X37254147Y-167656900D01*
X37318297Y-167811772D01*
X37351000Y-167976184D01*
X37351000Y-168143816D01*
X37318297Y-168308228D01*
X37254147Y-168463100D01*
X37161015Y-168602481D01*
X37042481Y-168721015D01*
X36903100Y-168814147D01*
X36748228Y-168878297D01*
X36583816Y-168911000D01*
X36416184Y-168911000D01*
X36251772Y-168878297D01*
X36096900Y-168814147D01*
X35957519Y-168721015D01*
X35838985Y-168602481D01*
X35745853Y-168463100D01*
X35681703Y-168308228D01*
X35649000Y-168143816D01*
X35649000Y-167976184D01*
X35681703Y-167811772D01*
X35745853Y-167656900D01*
X35838985Y-167517519D01*
X35957519Y-167398985D01*
X36096900Y-167305853D01*
X36251772Y-167241703D01*
X36416184Y-167209000D01*
X36583816Y-167209000D01*
X36748228Y-167241703D01*
G37*
G36*
X51988228Y-164701703D02*
G01*
X52143100Y-164765853D01*
X52282481Y-164858985D01*
X52401015Y-164977519D01*
X52494147Y-165116900D01*
X52558297Y-165271772D01*
X52591000Y-165436184D01*
X52591000Y-165603816D01*
X52558297Y-165768228D01*
X52494147Y-165923100D01*
X52401015Y-166062481D01*
X52282481Y-166181015D01*
X52143100Y-166274147D01*
X51988228Y-166338297D01*
X51823816Y-166371000D01*
X51656184Y-166371000D01*
X51491772Y-166338297D01*
X51336900Y-166274147D01*
X51197519Y-166181015D01*
X51078985Y-166062481D01*
X50985853Y-165923100D01*
X50921703Y-165768228D01*
X50889000Y-165603816D01*
X50889000Y-165436184D01*
X50921703Y-165271772D01*
X50985853Y-165116900D01*
X51078985Y-164977519D01*
X51197519Y-164858985D01*
X51336900Y-164765853D01*
X51491772Y-164701703D01*
X51656184Y-164669000D01*
X51823816Y-164669000D01*
X51988228Y-164701703D01*
G37*
G36*
X36748228Y-164701703D02*
G01*
X36903100Y-164765853D01*
X37042481Y-164858985D01*
X37161015Y-164977519D01*
X37254147Y-165116900D01*
X37318297Y-165271772D01*
X37351000Y-165436184D01*
X37351000Y-165603816D01*
X37318297Y-165768228D01*
X37254147Y-165923100D01*
X37161015Y-166062481D01*
X37042481Y-166181015D01*
X36903100Y-166274147D01*
X36748228Y-166338297D01*
X36583816Y-166371000D01*
X36416184Y-166371000D01*
X36251772Y-166338297D01*
X36096900Y-166274147D01*
X35957519Y-166181015D01*
X35838985Y-166062481D01*
X35745853Y-165923100D01*
X35681703Y-165768228D01*
X35649000Y-165603816D01*
X35649000Y-165436184D01*
X35681703Y-165271772D01*
X35745853Y-165116900D01*
X35838985Y-164977519D01*
X35957519Y-164858985D01*
X36096900Y-164765853D01*
X36251772Y-164701703D01*
X36416184Y-164669000D01*
X36583816Y-164669000D01*
X36748228Y-164701703D01*
G37*
G36*
X63748228Y-162681703D02*
G01*
X63903100Y-162745853D01*
X64042481Y-162838985D01*
X64161015Y-162957519D01*
X64254147Y-163096900D01*
X64318297Y-163251772D01*
X64351000Y-163416184D01*
X64351000Y-163583816D01*
X64318297Y-163748228D01*
X64254147Y-163903100D01*
X64161015Y-164042481D01*
X64042481Y-164161015D01*
X63903100Y-164254147D01*
X63748228Y-164318297D01*
X63583816Y-164351000D01*
X63416184Y-164351000D01*
X63251772Y-164318297D01*
X63096900Y-164254147D01*
X62957519Y-164161015D01*
X62838985Y-164042481D01*
X62745853Y-163903100D01*
X62681703Y-163748228D01*
X62649000Y-163583816D01*
X62649000Y-163416184D01*
X62681703Y-163251772D01*
X62745853Y-163096900D01*
X62838985Y-162957519D01*
X62957519Y-162838985D01*
X63096900Y-162745853D01*
X63251772Y-162681703D01*
X63416184Y-162649000D01*
X63583816Y-162649000D01*
X63748228Y-162681703D01*
G37*
G36*
X73908228Y-162681703D02*
G01*
X74063100Y-162745853D01*
X74202481Y-162838985D01*
X74321015Y-162957519D01*
X74414147Y-163096900D01*
X74478297Y-163251772D01*
X74511000Y-163416184D01*
X74511000Y-163583816D01*
X74478297Y-163748228D01*
X74414147Y-163903100D01*
X74321015Y-164042481D01*
X74202481Y-164161015D01*
X74063100Y-164254147D01*
X73908228Y-164318297D01*
X73743816Y-164351000D01*
X73576184Y-164351000D01*
X73411772Y-164318297D01*
X73256900Y-164254147D01*
X73117519Y-164161015D01*
X72998985Y-164042481D01*
X72905853Y-163903100D01*
X72841703Y-163748228D01*
X72809000Y-163583816D01*
X72809000Y-163416184D01*
X72841703Y-163251772D01*
X72905853Y-163096900D01*
X72998985Y-162957519D01*
X73117519Y-162838985D01*
X73256900Y-162745853D01*
X73411772Y-162681703D01*
X73576184Y-162649000D01*
X73743816Y-162649000D01*
X73908228Y-162681703D01*
G37*
G36*
X36748228Y-162161703D02*
G01*
X36903100Y-162225853D01*
X37042481Y-162318985D01*
X37161015Y-162437519D01*
X37254147Y-162576900D01*
X37318297Y-162731772D01*
X37351000Y-162896184D01*
X37351000Y-163063816D01*
X37318297Y-163228228D01*
X37254147Y-163383100D01*
X37161015Y-163522481D01*
X37042481Y-163641015D01*
X36903100Y-163734147D01*
X36748228Y-163798297D01*
X36583816Y-163831000D01*
X36416184Y-163831000D01*
X36251772Y-163798297D01*
X36096900Y-163734147D01*
X35957519Y-163641015D01*
X35838985Y-163522481D01*
X35745853Y-163383100D01*
X35681703Y-163228228D01*
X35649000Y-163063816D01*
X35649000Y-162896184D01*
X35681703Y-162731772D01*
X35745853Y-162576900D01*
X35838985Y-162437519D01*
X35957519Y-162318985D01*
X36096900Y-162225853D01*
X36251772Y-162161703D01*
X36416184Y-162129000D01*
X36583816Y-162129000D01*
X36748228Y-162161703D01*
G37*
G36*
X51988228Y-162161703D02*
G01*
X52143100Y-162225853D01*
X52282481Y-162318985D01*
X52401015Y-162437519D01*
X52494147Y-162576900D01*
X52558297Y-162731772D01*
X52591000Y-162896184D01*
X52591000Y-163063816D01*
X52558297Y-163228228D01*
X52494147Y-163383100D01*
X52401015Y-163522481D01*
X52282481Y-163641015D01*
X52143100Y-163734147D01*
X51988228Y-163798297D01*
X51823816Y-163831000D01*
X51656184Y-163831000D01*
X51491772Y-163798297D01*
X51336900Y-163734147D01*
X51197519Y-163641015D01*
X51078985Y-163522481D01*
X50985853Y-163383100D01*
X50921703Y-163228228D01*
X50889000Y-163063816D01*
X50889000Y-162896184D01*
X50921703Y-162731772D01*
X50985853Y-162576900D01*
X51078985Y-162437519D01*
X51197519Y-162318985D01*
X51336900Y-162225853D01*
X51491772Y-162161703D01*
X51656184Y-162129000D01*
X51823816Y-162129000D01*
X51988228Y-162161703D01*
G37*
G36*
X36748228Y-159621703D02*
G01*
X36903100Y-159685853D01*
X37042481Y-159778985D01*
X37161015Y-159897519D01*
X37254147Y-160036900D01*
X37318297Y-160191772D01*
X37351000Y-160356184D01*
X37351000Y-160523816D01*
X37318297Y-160688228D01*
X37254147Y-160843100D01*
X37161015Y-160982481D01*
X37042481Y-161101015D01*
X36903100Y-161194147D01*
X36748228Y-161258297D01*
X36583816Y-161291000D01*
X36416184Y-161291000D01*
X36251772Y-161258297D01*
X36096900Y-161194147D01*
X35957519Y-161101015D01*
X35838985Y-160982481D01*
X35745853Y-160843100D01*
X35681703Y-160688228D01*
X35649000Y-160523816D01*
X35649000Y-160356184D01*
X35681703Y-160191772D01*
X35745853Y-160036900D01*
X35838985Y-159897519D01*
X35957519Y-159778985D01*
X36096900Y-159685853D01*
X36251772Y-159621703D01*
X36416184Y-159589000D01*
X36583816Y-159589000D01*
X36748228Y-159621703D01*
G37*
G36*
X51988228Y-159621703D02*
G01*
X52143100Y-159685853D01*
X52282481Y-159778985D01*
X52401015Y-159897519D01*
X52494147Y-160036900D01*
X52558297Y-160191772D01*
X52591000Y-160356184D01*
X52591000Y-160523816D01*
X52558297Y-160688228D01*
X52494147Y-160843100D01*
X52401015Y-160982481D01*
X52282481Y-161101015D01*
X52143100Y-161194147D01*
X51988228Y-161258297D01*
X51823816Y-161291000D01*
X51656184Y-161291000D01*
X51491772Y-161258297D01*
X51336900Y-161194147D01*
X51197519Y-161101015D01*
X51078985Y-160982481D01*
X50985853Y-160843100D01*
X50921703Y-160688228D01*
X50889000Y-160523816D01*
X50889000Y-160356184D01*
X50921703Y-160191772D01*
X50985853Y-160036900D01*
X51078985Y-159897519D01*
X51197519Y-159778985D01*
X51336900Y-159685853D01*
X51491772Y-159621703D01*
X51656184Y-159589000D01*
X51823816Y-159589000D01*
X51988228Y-159621703D01*
G37*
G36*
X73908228Y-157681703D02*
G01*
X74063100Y-157745853D01*
X74202481Y-157838985D01*
X74321015Y-157957519D01*
X74414147Y-158096900D01*
X74478297Y-158251772D01*
X74511000Y-158416184D01*
X74511000Y-158583816D01*
X74478297Y-158748228D01*
X74414147Y-158903100D01*
X74321015Y-159042481D01*
X74202481Y-159161015D01*
X74063100Y-159254147D01*
X73908228Y-159318297D01*
X73743816Y-159351000D01*
X73576184Y-159351000D01*
X73411772Y-159318297D01*
X73256900Y-159254147D01*
X73117519Y-159161015D01*
X72998985Y-159042481D01*
X72905853Y-158903100D01*
X72841703Y-158748228D01*
X72809000Y-158583816D01*
X72809000Y-158416184D01*
X72841703Y-158251772D01*
X72905853Y-158096900D01*
X72998985Y-157957519D01*
X73117519Y-157838985D01*
X73256900Y-157745853D01*
X73411772Y-157681703D01*
X73576184Y-157649000D01*
X73743816Y-157649000D01*
X73908228Y-157681703D01*
G37*
G36*
X63748228Y-157681703D02*
G01*
X63903100Y-157745853D01*
X64042481Y-157838985D01*
X64161015Y-157957519D01*
X64254147Y-158096900D01*
X64318297Y-158251772D01*
X64351000Y-158416184D01*
X64351000Y-158583816D01*
X64318297Y-158748228D01*
X64254147Y-158903100D01*
X64161015Y-159042481D01*
X64042481Y-159161015D01*
X63903100Y-159254147D01*
X63748228Y-159318297D01*
X63583816Y-159351000D01*
X63416184Y-159351000D01*
X63251772Y-159318297D01*
X63096900Y-159254147D01*
X62957519Y-159161015D01*
X62838985Y-159042481D01*
X62745853Y-158903100D01*
X62681703Y-158748228D01*
X62649000Y-158583816D01*
X62649000Y-158416184D01*
X62681703Y-158251772D01*
X62745853Y-158096900D01*
X62838985Y-157957519D01*
X62957519Y-157838985D01*
X63096900Y-157745853D01*
X63251772Y-157681703D01*
X63416184Y-157649000D01*
X63583816Y-157649000D01*
X63748228Y-157681703D01*
G37*
G36*
X51988228Y-157081703D02*
G01*
X52143100Y-157145853D01*
X52282481Y-157238985D01*
X52401015Y-157357519D01*
X52494147Y-157496900D01*
X52558297Y-157651772D01*
X52591000Y-157816184D01*
X52591000Y-157983816D01*
X52558297Y-158148228D01*
X52494147Y-158303100D01*
X52401015Y-158442481D01*
X52282481Y-158561015D01*
X52143100Y-158654147D01*
X51988228Y-158718297D01*
X51823816Y-158751000D01*
X51656184Y-158751000D01*
X51491772Y-158718297D01*
X51336900Y-158654147D01*
X51197519Y-158561015D01*
X51078985Y-158442481D01*
X50985853Y-158303100D01*
X50921703Y-158148228D01*
X50889000Y-157983816D01*
X50889000Y-157816184D01*
X50921703Y-157651772D01*
X50985853Y-157496900D01*
X51078985Y-157357519D01*
X51197519Y-157238985D01*
X51336900Y-157145853D01*
X51491772Y-157081703D01*
X51656184Y-157049000D01*
X51823816Y-157049000D01*
X51988228Y-157081703D01*
G37*
G36*
X36748228Y-157081703D02*
G01*
X36903100Y-157145853D01*
X37042481Y-157238985D01*
X37161015Y-157357519D01*
X37254147Y-157496900D01*
X37318297Y-157651772D01*
X37351000Y-157816184D01*
X37351000Y-157983816D01*
X37318297Y-158148228D01*
X37254147Y-158303100D01*
X37161015Y-158442481D01*
X37042481Y-158561015D01*
X36903100Y-158654147D01*
X36748228Y-158718297D01*
X36583816Y-158751000D01*
X36416184Y-158751000D01*
X36251772Y-158718297D01*
X36096900Y-158654147D01*
X35957519Y-158561015D01*
X35838985Y-158442481D01*
X35745853Y-158303100D01*
X35681703Y-158148228D01*
X35649000Y-157983816D01*
X35649000Y-157816184D01*
X35681703Y-157651772D01*
X35745853Y-157496900D01*
X35838985Y-157357519D01*
X35957519Y-157238985D01*
X36096900Y-157145853D01*
X36251772Y-157081703D01*
X36416184Y-157049000D01*
X36583816Y-157049000D01*
X36748228Y-157081703D01*
G37*
G36*
X36748228Y-154541703D02*
G01*
X36903100Y-154605853D01*
X37042481Y-154698985D01*
X37161015Y-154817519D01*
X37254147Y-154956900D01*
X37318297Y-155111772D01*
X37351000Y-155276184D01*
X37351000Y-155443816D01*
X37318297Y-155608228D01*
X37254147Y-155763100D01*
X37161015Y-155902481D01*
X37042481Y-156021015D01*
X36903100Y-156114147D01*
X36748228Y-156178297D01*
X36583816Y-156211000D01*
X36416184Y-156211000D01*
X36251772Y-156178297D01*
X36096900Y-156114147D01*
X35957519Y-156021015D01*
X35838985Y-155902481D01*
X35745853Y-155763100D01*
X35681703Y-155608228D01*
X35649000Y-155443816D01*
X35649000Y-155276184D01*
X35681703Y-155111772D01*
X35745853Y-154956900D01*
X35838985Y-154817519D01*
X35957519Y-154698985D01*
X36096900Y-154605853D01*
X36251772Y-154541703D01*
X36416184Y-154509000D01*
X36583816Y-154509000D01*
X36748228Y-154541703D01*
G37*
G36*
X51988228Y-154541703D02*
G01*
X52143100Y-154605853D01*
X52282481Y-154698985D01*
X52401015Y-154817519D01*
X52494147Y-154956900D01*
X52558297Y-155111772D01*
X52591000Y-155276184D01*
X52591000Y-155443816D01*
X52558297Y-155608228D01*
X52494147Y-155763100D01*
X52401015Y-155902481D01*
X52282481Y-156021015D01*
X52143100Y-156114147D01*
X51988228Y-156178297D01*
X51823816Y-156211000D01*
X51656184Y-156211000D01*
X51491772Y-156178297D01*
X51336900Y-156114147D01*
X51197519Y-156021015D01*
X51078985Y-155902481D01*
X50985853Y-155763100D01*
X50921703Y-155608228D01*
X50889000Y-155443816D01*
X50889000Y-155276184D01*
X50921703Y-155111772D01*
X50985853Y-154956900D01*
X51078985Y-154817519D01*
X51197519Y-154698985D01*
X51336900Y-154605853D01*
X51491772Y-154541703D01*
X51656184Y-154509000D01*
X51823816Y-154509000D01*
X51988228Y-154541703D01*
G37*
G36*
X73908228Y-152681703D02*
G01*
X74063100Y-152745853D01*
X74202481Y-152838985D01*
X74321015Y-152957519D01*
X74414147Y-153096900D01*
X74478297Y-153251772D01*
X74511000Y-153416184D01*
X74511000Y-153583816D01*
X74478297Y-153748228D01*
X74414147Y-153903100D01*
X74321015Y-154042481D01*
X74202481Y-154161015D01*
X74063100Y-154254147D01*
X73908228Y-154318297D01*
X73743816Y-154351000D01*
X73576184Y-154351000D01*
X73411772Y-154318297D01*
X73256900Y-154254147D01*
X73117519Y-154161015D01*
X72998985Y-154042481D01*
X72905853Y-153903100D01*
X72841703Y-153748228D01*
X72809000Y-153583816D01*
X72809000Y-153416184D01*
X72841703Y-153251772D01*
X72905853Y-153096900D01*
X72998985Y-152957519D01*
X73117519Y-152838985D01*
X73256900Y-152745853D01*
X73411772Y-152681703D01*
X73576184Y-152649000D01*
X73743816Y-152649000D01*
X73908228Y-152681703D01*
G37*
G36*
X63748228Y-152681703D02*
G01*
X63903100Y-152745853D01*
X64042481Y-152838985D01*
X64161015Y-152957519D01*
X64254147Y-153096900D01*
X64318297Y-153251772D01*
X64351000Y-153416184D01*
X64351000Y-153583816D01*
X64318297Y-153748228D01*
X64254147Y-153903100D01*
X64161015Y-154042481D01*
X64042481Y-154161015D01*
X63903100Y-154254147D01*
X63748228Y-154318297D01*
X63583816Y-154351000D01*
X63416184Y-154351000D01*
X63251772Y-154318297D01*
X63096900Y-154254147D01*
X62957519Y-154161015D01*
X62838985Y-154042481D01*
X62745853Y-153903100D01*
X62681703Y-153748228D01*
X62649000Y-153583816D01*
X62649000Y-153416184D01*
X62681703Y-153251772D01*
X62745853Y-153096900D01*
X62838985Y-152957519D01*
X62957519Y-152838985D01*
X63096900Y-152745853D01*
X63251772Y-152681703D01*
X63416184Y-152649000D01*
X63583816Y-152649000D01*
X63748228Y-152681703D01*
G37*
G36*
X36748228Y-152001703D02*
G01*
X36903100Y-152065853D01*
X37042481Y-152158985D01*
X37161015Y-152277519D01*
X37254147Y-152416900D01*
X37318297Y-152571772D01*
X37351000Y-152736184D01*
X37351000Y-152903816D01*
X37318297Y-153068228D01*
X37254147Y-153223100D01*
X37161015Y-153362481D01*
X37042481Y-153481015D01*
X36903100Y-153574147D01*
X36748228Y-153638297D01*
X36583816Y-153671000D01*
X36416184Y-153671000D01*
X36251772Y-153638297D01*
X36096900Y-153574147D01*
X35957519Y-153481015D01*
X35838985Y-153362481D01*
X35745853Y-153223100D01*
X35681703Y-153068228D01*
X35649000Y-152903816D01*
X35649000Y-152736184D01*
X35681703Y-152571772D01*
X35745853Y-152416900D01*
X35838985Y-152277519D01*
X35957519Y-152158985D01*
X36096900Y-152065853D01*
X36251772Y-152001703D01*
X36416184Y-151969000D01*
X36583816Y-151969000D01*
X36748228Y-152001703D01*
G37*
G36*
X51988228Y-152001703D02*
G01*
X52143100Y-152065853D01*
X52282481Y-152158985D01*
X52401015Y-152277519D01*
X52494147Y-152416900D01*
X52558297Y-152571772D01*
X52591000Y-152736184D01*
X52591000Y-152903816D01*
X52558297Y-153068228D01*
X52494147Y-153223100D01*
X52401015Y-153362481D01*
X52282481Y-153481015D01*
X52143100Y-153574147D01*
X51988228Y-153638297D01*
X51823816Y-153671000D01*
X51656184Y-153671000D01*
X51491772Y-153638297D01*
X51336900Y-153574147D01*
X51197519Y-153481015D01*
X51078985Y-153362481D01*
X50985853Y-153223100D01*
X50921703Y-153068228D01*
X50889000Y-152903816D01*
X50889000Y-152736184D01*
X50921703Y-152571772D01*
X50985853Y-152416900D01*
X51078985Y-152277519D01*
X51197519Y-152158985D01*
X51336900Y-152065853D01*
X51491772Y-152001703D01*
X51656184Y-151969000D01*
X51823816Y-151969000D01*
X51988228Y-152001703D01*
G37*
G36*
X51988228Y-149461703D02*
G01*
X52143100Y-149525853D01*
X52282481Y-149618985D01*
X52401015Y-149737519D01*
X52494147Y-149876900D01*
X52558297Y-150031772D01*
X52591000Y-150196184D01*
X52591000Y-150363816D01*
X52558297Y-150528228D01*
X52494147Y-150683100D01*
X52401015Y-150822481D01*
X52282481Y-150941015D01*
X52143100Y-151034147D01*
X51988228Y-151098297D01*
X51823816Y-151131000D01*
X51656184Y-151131000D01*
X51491772Y-151098297D01*
X51336900Y-151034147D01*
X51197519Y-150941015D01*
X51078985Y-150822481D01*
X50985853Y-150683100D01*
X50921703Y-150528228D01*
X50889000Y-150363816D01*
X50889000Y-150196184D01*
X50921703Y-150031772D01*
X50985853Y-149876900D01*
X51078985Y-149737519D01*
X51197519Y-149618985D01*
X51336900Y-149525853D01*
X51491772Y-149461703D01*
X51656184Y-149429000D01*
X51823816Y-149429000D01*
X51988228Y-149461703D01*
G37*
G36*
X36748228Y-149461703D02*
G01*
X36903100Y-149525853D01*
X37042481Y-149618985D01*
X37161015Y-149737519D01*
X37254147Y-149876900D01*
X37318297Y-150031772D01*
X37351000Y-150196184D01*
X37351000Y-150363816D01*
X37318297Y-150528228D01*
X37254147Y-150683100D01*
X37161015Y-150822481D01*
X37042481Y-150941015D01*
X36903100Y-151034147D01*
X36748228Y-151098297D01*
X36583816Y-151131000D01*
X36416184Y-151131000D01*
X36251772Y-151098297D01*
X36096900Y-151034147D01*
X35957519Y-150941015D01*
X35838985Y-150822481D01*
X35745853Y-150683100D01*
X35681703Y-150528228D01*
X35649000Y-150363816D01*
X35649000Y-150196184D01*
X35681703Y-150031772D01*
X35745853Y-149876900D01*
X35838985Y-149737519D01*
X35957519Y-149618985D01*
X36096900Y-149525853D01*
X36251772Y-149461703D01*
X36416184Y-149429000D01*
X36583816Y-149429000D01*
X36748228Y-149461703D01*
G37*
G36*
X51988228Y-146921703D02*
G01*
X52143100Y-146985853D01*
X52282481Y-147078985D01*
X52401015Y-147197519D01*
X52494147Y-147336900D01*
X52558297Y-147491772D01*
X52591000Y-147656184D01*
X52591000Y-147823816D01*
X52558297Y-147988228D01*
X52494147Y-148143100D01*
X52401015Y-148282481D01*
X52282481Y-148401015D01*
X52143100Y-148494147D01*
X51988228Y-148558297D01*
X51823816Y-148591000D01*
X51656184Y-148591000D01*
X51491772Y-148558297D01*
X51336900Y-148494147D01*
X51197519Y-148401015D01*
X51078985Y-148282481D01*
X50985853Y-148143100D01*
X50921703Y-147988228D01*
X50889000Y-147823816D01*
X50889000Y-147656184D01*
X50921703Y-147491772D01*
X50985853Y-147336900D01*
X51078985Y-147197519D01*
X51197519Y-147078985D01*
X51336900Y-146985853D01*
X51491772Y-146921703D01*
X51656184Y-146889000D01*
X51823816Y-146889000D01*
X51988228Y-146921703D01*
G37*
G36*
X36748228Y-146921703D02*
G01*
X36903100Y-146985853D01*
X37042481Y-147078985D01*
X37161015Y-147197519D01*
X37254147Y-147336900D01*
X37318297Y-147491772D01*
X37351000Y-147656184D01*
X37351000Y-147823816D01*
X37318297Y-147988228D01*
X37254147Y-148143100D01*
X37161015Y-148282481D01*
X37042481Y-148401015D01*
X36903100Y-148494147D01*
X36748228Y-148558297D01*
X36583816Y-148591000D01*
X36416184Y-148591000D01*
X36251772Y-148558297D01*
X36096900Y-148494147D01*
X35957519Y-148401015D01*
X35838985Y-148282481D01*
X35745853Y-148143100D01*
X35681703Y-147988228D01*
X35649000Y-147823816D01*
X35649000Y-147656184D01*
X35681703Y-147491772D01*
X35745853Y-147336900D01*
X35838985Y-147197519D01*
X35957519Y-147078985D01*
X36096900Y-146985853D01*
X36251772Y-146921703D01*
X36416184Y-146889000D01*
X36583816Y-146889000D01*
X36748228Y-146921703D01*
G37*
G36*
X69248228Y-145181703D02*
G01*
X69403100Y-145245853D01*
X69542481Y-145338985D01*
X69661015Y-145457519D01*
X69754147Y-145596900D01*
X69818297Y-145751772D01*
X69851000Y-145916184D01*
X69851000Y-146083816D01*
X69818297Y-146248228D01*
X69754147Y-146403100D01*
X69661015Y-146542481D01*
X69542481Y-146661015D01*
X69403100Y-146754147D01*
X69248228Y-146818297D01*
X69083816Y-146851000D01*
X68916184Y-146851000D01*
X68751772Y-146818297D01*
X68596900Y-146754147D01*
X68457519Y-146661015D01*
X68338985Y-146542481D01*
X68245853Y-146403100D01*
X68181703Y-146248228D01*
X68149000Y-146083816D01*
X68149000Y-145916184D01*
X68181703Y-145751772D01*
X68245853Y-145596900D01*
X68338985Y-145457519D01*
X68457519Y-145338985D01*
X68596900Y-145245853D01*
X68751772Y-145181703D01*
X68916184Y-145149000D01*
X69083816Y-145149000D01*
X69248228Y-145181703D01*
G37*
G36*
X74248228Y-145181703D02*
G01*
X74403100Y-145245853D01*
X74542481Y-145338985D01*
X74661015Y-145457519D01*
X74754147Y-145596900D01*
X74818297Y-145751772D01*
X74851000Y-145916184D01*
X74851000Y-146083816D01*
X74818297Y-146248228D01*
X74754147Y-146403100D01*
X74661015Y-146542481D01*
X74542481Y-146661015D01*
X74403100Y-146754147D01*
X74248228Y-146818297D01*
X74083816Y-146851000D01*
X73916184Y-146851000D01*
X73751772Y-146818297D01*
X73596900Y-146754147D01*
X73457519Y-146661015D01*
X73338985Y-146542481D01*
X73245853Y-146403100D01*
X73181703Y-146248228D01*
X73149000Y-146083816D01*
X73149000Y-145916184D01*
X73181703Y-145751772D01*
X73245853Y-145596900D01*
X73338985Y-145457519D01*
X73457519Y-145338985D01*
X73596900Y-145245853D01*
X73751772Y-145181703D01*
X73916184Y-145149000D01*
X74083816Y-145149000D01*
X74248228Y-145181703D01*
G37*
G36*
X66692916Y-145307334D02*
G01*
X66801492Y-145340271D01*
X66801495Y-145340272D01*
X66837601Y-145359571D01*
X66901557Y-145393756D01*
X66989264Y-145465736D01*
X67061244Y-145553443D01*
X67095429Y-145617400D01*
X67114728Y-145653506D01*
X67114729Y-145653509D01*
X67147666Y-145762085D01*
X67156000Y-145846703D01*
X67156000Y-146153298D01*
X67147666Y-146237916D01*
X67114729Y-146346491D01*
X67114728Y-146346495D01*
X67095429Y-146382601D01*
X67061244Y-146446557D01*
X66989264Y-146534264D01*
X66901556Y-146606244D01*
X66837600Y-146640429D01*
X66801494Y-146659728D01*
X66801491Y-146659729D01*
X66692915Y-146692666D01*
X66580000Y-146703787D01*
X66467084Y-146692666D01*
X66358508Y-146659729D01*
X66358505Y-146659728D01*
X66322399Y-146640429D01*
X66258443Y-146606244D01*
X66170736Y-146534264D01*
X66098756Y-146446556D01*
X66045273Y-146346495D01*
X66045272Y-146346494D01*
X66045271Y-146346491D01*
X66012334Y-146237915D01*
X66004000Y-146153297D01*
X66004000Y-145846702D01*
X66012334Y-145762084D01*
X66045271Y-145653508D01*
X66045272Y-145653506D01*
X66045272Y-145653505D01*
X66098756Y-145553445D01*
X66098757Y-145553443D01*
X66170737Y-145465736D01*
X66258444Y-145393756D01*
X66322400Y-145359571D01*
X66358506Y-145340272D01*
X66358509Y-145340271D01*
X66467085Y-145307334D01*
X66580000Y-145296213D01*
X66692916Y-145307334D01*
G37*
G36*
X64152916Y-145307334D02*
G01*
X64261492Y-145340271D01*
X64261495Y-145340272D01*
X64297601Y-145359571D01*
X64361557Y-145393756D01*
X64449264Y-145465736D01*
X64521244Y-145553443D01*
X64555429Y-145617400D01*
X64574728Y-145653506D01*
X64574729Y-145653509D01*
X64607666Y-145762085D01*
X64616000Y-145846703D01*
X64616000Y-146153298D01*
X64607666Y-146237916D01*
X64574729Y-146346491D01*
X64574728Y-146346495D01*
X64555429Y-146382601D01*
X64521244Y-146446557D01*
X64449264Y-146534264D01*
X64361556Y-146606244D01*
X64297600Y-146640429D01*
X64261494Y-146659728D01*
X64261491Y-146659729D01*
X64152915Y-146692666D01*
X64040000Y-146703787D01*
X63927084Y-146692666D01*
X63818508Y-146659729D01*
X63818505Y-146659728D01*
X63782399Y-146640429D01*
X63718443Y-146606244D01*
X63630736Y-146534264D01*
X63558756Y-146446556D01*
X63505273Y-146346495D01*
X63505272Y-146346494D01*
X63505271Y-146346491D01*
X63472334Y-146237915D01*
X63464000Y-146153297D01*
X63464000Y-145846702D01*
X63472334Y-145762084D01*
X63505271Y-145653508D01*
X63505272Y-145653506D01*
X63505272Y-145653505D01*
X63558756Y-145553445D01*
X63558757Y-145553443D01*
X63630737Y-145465736D01*
X63718444Y-145393756D01*
X63782400Y-145359571D01*
X63818506Y-145340272D01*
X63818509Y-145340271D01*
X63927085Y-145307334D01*
X64040000Y-145296213D01*
X64152916Y-145307334D01*
G37*
G36*
X62076000Y-146701000D02*
G01*
X60924000Y-146701000D01*
X60924000Y-145299000D01*
X62076000Y-145299000D01*
X62076000Y-146701000D01*
G37*
G36*
X36748228Y-144381703D02*
G01*
X36903100Y-144445853D01*
X37042481Y-144538985D01*
X37161015Y-144657519D01*
X37254147Y-144796900D01*
X37318297Y-144951772D01*
X37351000Y-145116184D01*
X37351000Y-145283816D01*
X37318297Y-145448228D01*
X37254147Y-145603100D01*
X37161015Y-145742481D01*
X37042481Y-145861015D01*
X36903100Y-145954147D01*
X36748228Y-146018297D01*
X36583816Y-146051000D01*
X36416184Y-146051000D01*
X36251772Y-146018297D01*
X36096900Y-145954147D01*
X35957519Y-145861015D01*
X35838985Y-145742481D01*
X35745853Y-145603100D01*
X35681703Y-145448228D01*
X35649000Y-145283816D01*
X35649000Y-145116184D01*
X35681703Y-144951772D01*
X35745853Y-144796900D01*
X35838985Y-144657519D01*
X35957519Y-144538985D01*
X36096900Y-144445853D01*
X36251772Y-144381703D01*
X36416184Y-144349000D01*
X36583816Y-144349000D01*
X36748228Y-144381703D01*
G37*
G36*
X51988228Y-144381703D02*
G01*
X52143100Y-144445853D01*
X52282481Y-144538985D01*
X52401015Y-144657519D01*
X52494147Y-144796900D01*
X52558297Y-144951772D01*
X52591000Y-145116184D01*
X52591000Y-145283816D01*
X52558297Y-145448228D01*
X52494147Y-145603100D01*
X52401015Y-145742481D01*
X52282481Y-145861015D01*
X52143100Y-145954147D01*
X51988228Y-146018297D01*
X51823816Y-146051000D01*
X51656184Y-146051000D01*
X51491772Y-146018297D01*
X51336900Y-145954147D01*
X51197519Y-145861015D01*
X51078985Y-145742481D01*
X50985853Y-145603100D01*
X50921703Y-145448228D01*
X50889000Y-145283816D01*
X50889000Y-145116184D01*
X50921703Y-144951772D01*
X50985853Y-144796900D01*
X51078985Y-144657519D01*
X51197519Y-144538985D01*
X51336900Y-144445853D01*
X51491772Y-144381703D01*
X51656184Y-144349000D01*
X51823816Y-144349000D01*
X51988228Y-144381703D01*
G37*
G36*
X51988228Y-141841703D02*
G01*
X52143100Y-141905853D01*
X52282481Y-141998985D01*
X52401015Y-142117519D01*
X52494147Y-142256900D01*
X52558297Y-142411772D01*
X52591000Y-142576184D01*
X52591000Y-142743816D01*
X52558297Y-142908228D01*
X52494147Y-143063100D01*
X52401015Y-143202481D01*
X52282481Y-143321015D01*
X52143100Y-143414147D01*
X51988228Y-143478297D01*
X51823816Y-143511000D01*
X51656184Y-143511000D01*
X51491772Y-143478297D01*
X51336900Y-143414147D01*
X51197519Y-143321015D01*
X51078985Y-143202481D01*
X50985853Y-143063100D01*
X50921703Y-142908228D01*
X50889000Y-142743816D01*
X50889000Y-142576184D01*
X50921703Y-142411772D01*
X50985853Y-142256900D01*
X51078985Y-142117519D01*
X51197519Y-141998985D01*
X51336900Y-141905853D01*
X51491772Y-141841703D01*
X51656184Y-141809000D01*
X51823816Y-141809000D01*
X51988228Y-141841703D01*
G37*
G36*
X36748228Y-141841703D02*
G01*
X36903100Y-141905853D01*
X37042481Y-141998985D01*
X37161015Y-142117519D01*
X37254147Y-142256900D01*
X37318297Y-142411772D01*
X37351000Y-142576184D01*
X37351000Y-142743816D01*
X37318297Y-142908228D01*
X37254147Y-143063100D01*
X37161015Y-143202481D01*
X37042481Y-143321015D01*
X36903100Y-143414147D01*
X36748228Y-143478297D01*
X36583816Y-143511000D01*
X36416184Y-143511000D01*
X36251772Y-143478297D01*
X36096900Y-143414147D01*
X35957519Y-143321015D01*
X35838985Y-143202481D01*
X35745853Y-143063100D01*
X35681703Y-142908228D01*
X35649000Y-142743816D01*
X35649000Y-142576184D01*
X35681703Y-142411772D01*
X35745853Y-142256900D01*
X35838985Y-142117519D01*
X35957519Y-141998985D01*
X36096900Y-141905853D01*
X36251772Y-141841703D01*
X36416184Y-141809000D01*
X36583816Y-141809000D01*
X36748228Y-141841703D01*
G37*
G36*
X51988228Y-139301703D02*
G01*
X52143100Y-139365853D01*
X52282481Y-139458985D01*
X52401015Y-139577519D01*
X52494147Y-139716900D01*
X52558297Y-139871772D01*
X52591000Y-140036184D01*
X52591000Y-140203816D01*
X52558297Y-140368228D01*
X52494147Y-140523100D01*
X52401015Y-140662481D01*
X52282481Y-140781015D01*
X52143100Y-140874147D01*
X51988228Y-140938297D01*
X51823816Y-140971000D01*
X51656184Y-140971000D01*
X51491772Y-140938297D01*
X51336900Y-140874147D01*
X51197519Y-140781015D01*
X51078985Y-140662481D01*
X50985853Y-140523100D01*
X50921703Y-140368228D01*
X50889000Y-140203816D01*
X50889000Y-140036184D01*
X50921703Y-139871772D01*
X50985853Y-139716900D01*
X51078985Y-139577519D01*
X51197519Y-139458985D01*
X51336900Y-139365853D01*
X51491772Y-139301703D01*
X51656184Y-139269000D01*
X51823816Y-139269000D01*
X51988228Y-139301703D01*
G37*
G36*
X36748228Y-139301703D02*
G01*
X36903100Y-139365853D01*
X37042481Y-139458985D01*
X37161015Y-139577519D01*
X37254147Y-139716900D01*
X37318297Y-139871772D01*
X37351000Y-140036184D01*
X37351000Y-140203816D01*
X37318297Y-140368228D01*
X37254147Y-140523100D01*
X37161015Y-140662481D01*
X37042481Y-140781015D01*
X36903100Y-140874147D01*
X36748228Y-140938297D01*
X36583816Y-140971000D01*
X36416184Y-140971000D01*
X36251772Y-140938297D01*
X36096900Y-140874147D01*
X35957519Y-140781015D01*
X35838985Y-140662481D01*
X35745853Y-140523100D01*
X35681703Y-140368228D01*
X35649000Y-140203816D01*
X35649000Y-140036184D01*
X35681703Y-139871772D01*
X35745853Y-139716900D01*
X35838985Y-139577519D01*
X35957519Y-139458985D01*
X36096900Y-139365853D01*
X36251772Y-139301703D01*
X36416184Y-139269000D01*
X36583816Y-139269000D01*
X36748228Y-139301703D01*
G37*
G36*
X65066823Y-137401313D02*
G01*
X65227242Y-137449976D01*
X65359906Y-137520886D01*
X65375078Y-137528996D01*
X65504659Y-137635341D01*
X65611004Y-137764922D01*
X65611005Y-137764924D01*
X65690024Y-137912758D01*
X65738687Y-138073177D01*
X65755117Y-138240000D01*
X65738687Y-138406823D01*
X65690024Y-138567242D01*
X65619114Y-138699906D01*
X65611004Y-138715078D01*
X65504659Y-138844659D01*
X65375078Y-138951004D01*
X65375076Y-138951005D01*
X65227242Y-139030024D01*
X65066823Y-139078687D01*
X64941804Y-139091000D01*
X64058196Y-139091000D01*
X63933177Y-139078687D01*
X63772758Y-139030024D01*
X63624924Y-138951005D01*
X63624922Y-138951004D01*
X63495341Y-138844659D01*
X63388996Y-138715078D01*
X63380886Y-138699906D01*
X63309976Y-138567242D01*
X63261313Y-138406823D01*
X63244883Y-138240000D01*
X63261313Y-138073177D01*
X63309976Y-137912758D01*
X63388995Y-137764924D01*
X63388996Y-137764922D01*
X63495341Y-137635341D01*
X63624922Y-137528996D01*
X63640094Y-137520886D01*
X63772758Y-137449976D01*
X63933177Y-137401313D01*
X64058196Y-137389000D01*
X64941804Y-137389000D01*
X65066823Y-137401313D01*
G37*
G36*
X72686823Y-137401313D02*
G01*
X72847242Y-137449976D01*
X72979906Y-137520886D01*
X72995078Y-137528996D01*
X73124659Y-137635341D01*
X73231004Y-137764922D01*
X73231005Y-137764924D01*
X73310024Y-137912758D01*
X73358687Y-138073177D01*
X73375117Y-138240000D01*
X73358687Y-138406823D01*
X73310024Y-138567242D01*
X73239114Y-138699906D01*
X73231004Y-138715078D01*
X73124659Y-138844659D01*
X72995078Y-138951004D01*
X72995076Y-138951005D01*
X72847242Y-139030024D01*
X72686823Y-139078687D01*
X72561804Y-139091000D01*
X71678196Y-139091000D01*
X71553177Y-139078687D01*
X71392758Y-139030024D01*
X71244924Y-138951005D01*
X71244922Y-138951004D01*
X71115341Y-138844659D01*
X71008996Y-138715078D01*
X71000886Y-138699906D01*
X70929976Y-138567242D01*
X70881313Y-138406823D01*
X70864883Y-138240000D01*
X70881313Y-138073177D01*
X70929976Y-137912758D01*
X71008995Y-137764924D01*
X71008996Y-137764922D01*
X71115341Y-137635341D01*
X71244922Y-137528996D01*
X71260094Y-137520886D01*
X71392758Y-137449976D01*
X71553177Y-137401313D01*
X71678196Y-137389000D01*
X72561804Y-137389000D01*
X72686823Y-137401313D01*
G37*
G36*
X36748228Y-136761703D02*
G01*
X36903100Y-136825853D01*
X37042481Y-136918985D01*
X37161015Y-137037519D01*
X37254147Y-137176900D01*
X37318297Y-137331772D01*
X37351000Y-137496184D01*
X37351000Y-137663816D01*
X37318297Y-137828228D01*
X37254147Y-137983100D01*
X37161015Y-138122481D01*
X37042481Y-138241015D01*
X36903100Y-138334147D01*
X36748228Y-138398297D01*
X36583816Y-138431000D01*
X36416184Y-138431000D01*
X36251772Y-138398297D01*
X36096900Y-138334147D01*
X35957519Y-138241015D01*
X35838985Y-138122481D01*
X35745853Y-137983100D01*
X35681703Y-137828228D01*
X35649000Y-137663816D01*
X35649000Y-137496184D01*
X35681703Y-137331772D01*
X35745853Y-137176900D01*
X35838985Y-137037519D01*
X35957519Y-136918985D01*
X36096900Y-136825853D01*
X36251772Y-136761703D01*
X36416184Y-136729000D01*
X36583816Y-136729000D01*
X36748228Y-136761703D01*
G37*
G36*
X51988228Y-136761703D02*
G01*
X52143100Y-136825853D01*
X52282481Y-136918985D01*
X52401015Y-137037519D01*
X52494147Y-137176900D01*
X52558297Y-137331772D01*
X52591000Y-137496184D01*
X52591000Y-137663816D01*
X52558297Y-137828228D01*
X52494147Y-137983100D01*
X52401015Y-138122481D01*
X52282481Y-138241015D01*
X52143100Y-138334147D01*
X51988228Y-138398297D01*
X51823816Y-138431000D01*
X51656184Y-138431000D01*
X51491772Y-138398297D01*
X51336900Y-138334147D01*
X51197519Y-138241015D01*
X51078985Y-138122481D01*
X50985853Y-137983100D01*
X50921703Y-137828228D01*
X50889000Y-137663816D01*
X50889000Y-137496184D01*
X50921703Y-137331772D01*
X50985853Y-137176900D01*
X51078985Y-137037519D01*
X51197519Y-136918985D01*
X51336900Y-136825853D01*
X51491772Y-136761703D01*
X51656184Y-136729000D01*
X51823816Y-136729000D01*
X51988228Y-136761703D01*
G37*
G36*
X65066823Y-134861313D02*
G01*
X65227242Y-134909976D01*
X65359906Y-134980886D01*
X65375078Y-134988996D01*
X65504659Y-135095341D01*
X65611004Y-135224922D01*
X65611005Y-135224924D01*
X65690024Y-135372758D01*
X65738687Y-135533177D01*
X65755117Y-135700000D01*
X65738687Y-135866823D01*
X65690024Y-136027242D01*
X65619114Y-136159906D01*
X65611004Y-136175078D01*
X65504659Y-136304659D01*
X65375078Y-136411004D01*
X65375076Y-136411005D01*
X65227242Y-136490024D01*
X65066823Y-136538687D01*
X64941804Y-136551000D01*
X64058196Y-136551000D01*
X63933177Y-136538687D01*
X63772758Y-136490024D01*
X63624924Y-136411005D01*
X63624922Y-136411004D01*
X63495341Y-136304659D01*
X63388996Y-136175078D01*
X63380886Y-136159906D01*
X63309976Y-136027242D01*
X63261313Y-135866823D01*
X63244883Y-135700000D01*
X63261313Y-135533177D01*
X63309976Y-135372758D01*
X63388995Y-135224924D01*
X63388996Y-135224922D01*
X63495341Y-135095341D01*
X63624922Y-134988996D01*
X63640094Y-134980886D01*
X63772758Y-134909976D01*
X63933177Y-134861313D01*
X64058196Y-134849000D01*
X64941804Y-134849000D01*
X65066823Y-134861313D01*
G37*
G36*
X72686823Y-134861313D02*
G01*
X72847242Y-134909976D01*
X72979906Y-134980886D01*
X72995078Y-134988996D01*
X73124659Y-135095341D01*
X73231004Y-135224922D01*
X73231005Y-135224924D01*
X73310024Y-135372758D01*
X73358687Y-135533177D01*
X73375117Y-135700000D01*
X73358687Y-135866823D01*
X73310024Y-136027242D01*
X73239114Y-136159906D01*
X73231004Y-136175078D01*
X73124659Y-136304659D01*
X72995078Y-136411004D01*
X72995076Y-136411005D01*
X72847242Y-136490024D01*
X72686823Y-136538687D01*
X72561804Y-136551000D01*
X71678196Y-136551000D01*
X71553177Y-136538687D01*
X71392758Y-136490024D01*
X71244924Y-136411005D01*
X71244922Y-136411004D01*
X71115341Y-136304659D01*
X71008996Y-136175078D01*
X71000886Y-136159906D01*
X70929976Y-136027242D01*
X70881313Y-135866823D01*
X70864883Y-135700000D01*
X70881313Y-135533177D01*
X70929976Y-135372758D01*
X71008995Y-135224924D01*
X71008996Y-135224922D01*
X71115341Y-135095341D01*
X71244922Y-134988996D01*
X71260094Y-134980886D01*
X71392758Y-134909976D01*
X71553177Y-134861313D01*
X71678196Y-134849000D01*
X72561804Y-134849000D01*
X72686823Y-134861313D01*
G37*
G36*
X36748228Y-134221703D02*
G01*
X36903100Y-134285853D01*
X37042481Y-134378985D01*
X37161015Y-134497519D01*
X37254147Y-134636900D01*
X37318297Y-134791772D01*
X37351000Y-134956184D01*
X37351000Y-135123816D01*
X37318297Y-135288228D01*
X37254147Y-135443100D01*
X37161015Y-135582481D01*
X37042481Y-135701015D01*
X36903100Y-135794147D01*
X36748228Y-135858297D01*
X36583816Y-135891000D01*
X36416184Y-135891000D01*
X36251772Y-135858297D01*
X36096900Y-135794147D01*
X35957519Y-135701015D01*
X35838985Y-135582481D01*
X35745853Y-135443100D01*
X35681703Y-135288228D01*
X35649000Y-135123816D01*
X35649000Y-134956184D01*
X35681703Y-134791772D01*
X35745853Y-134636900D01*
X35838985Y-134497519D01*
X35957519Y-134378985D01*
X36096900Y-134285853D01*
X36251772Y-134221703D01*
X36416184Y-134189000D01*
X36583816Y-134189000D01*
X36748228Y-134221703D01*
G37*
G36*
X51988228Y-134221703D02*
G01*
X52143100Y-134285853D01*
X52282481Y-134378985D01*
X52401015Y-134497519D01*
X52494147Y-134636900D01*
X52558297Y-134791772D01*
X52591000Y-134956184D01*
X52591000Y-135123816D01*
X52558297Y-135288228D01*
X52494147Y-135443100D01*
X52401015Y-135582481D01*
X52282481Y-135701015D01*
X52143100Y-135794147D01*
X51988228Y-135858297D01*
X51823816Y-135891000D01*
X51656184Y-135891000D01*
X51491772Y-135858297D01*
X51336900Y-135794147D01*
X51197519Y-135701015D01*
X51078985Y-135582481D01*
X50985853Y-135443100D01*
X50921703Y-135288228D01*
X50889000Y-135123816D01*
X50889000Y-134956184D01*
X50921703Y-134791772D01*
X50985853Y-134636900D01*
X51078985Y-134497519D01*
X51197519Y-134378985D01*
X51336900Y-134285853D01*
X51491772Y-134221703D01*
X51656184Y-134189000D01*
X51823816Y-134189000D01*
X51988228Y-134221703D01*
G37*
G36*
X65066823Y-132321313D02*
G01*
X65227242Y-132369976D01*
X65359906Y-132440886D01*
X65375078Y-132448996D01*
X65504659Y-132555341D01*
X65611004Y-132684922D01*
X65611005Y-132684924D01*
X65690024Y-132832758D01*
X65738687Y-132993177D01*
X65755117Y-133160000D01*
X65738687Y-133326823D01*
X65690024Y-133487242D01*
X65619114Y-133619906D01*
X65611004Y-133635078D01*
X65504659Y-133764659D01*
X65375078Y-133871004D01*
X65375076Y-133871005D01*
X65227242Y-133950024D01*
X65066823Y-133998687D01*
X64941804Y-134011000D01*
X64058196Y-134011000D01*
X63933177Y-133998687D01*
X63772758Y-133950024D01*
X63624924Y-133871005D01*
X63624922Y-133871004D01*
X63495341Y-133764659D01*
X63388996Y-133635078D01*
X63380886Y-133619906D01*
X63309976Y-133487242D01*
X63261313Y-133326823D01*
X63244883Y-133160000D01*
X63261313Y-132993177D01*
X63309976Y-132832758D01*
X63388995Y-132684924D01*
X63388996Y-132684922D01*
X63495341Y-132555341D01*
X63624922Y-132448996D01*
X63640094Y-132440886D01*
X63772758Y-132369976D01*
X63933177Y-132321313D01*
X64058196Y-132309000D01*
X64941804Y-132309000D01*
X65066823Y-132321313D01*
G37*
G36*
X72686823Y-132321313D02*
G01*
X72847242Y-132369976D01*
X72979906Y-132440886D01*
X72995078Y-132448996D01*
X73124659Y-132555341D01*
X73231004Y-132684922D01*
X73231005Y-132684924D01*
X73310024Y-132832758D01*
X73358687Y-132993177D01*
X73375117Y-133160000D01*
X73358687Y-133326823D01*
X73310024Y-133487242D01*
X73239114Y-133619906D01*
X73231004Y-133635078D01*
X73124659Y-133764659D01*
X72995078Y-133871004D01*
X72995076Y-133871005D01*
X72847242Y-133950024D01*
X72686823Y-133998687D01*
X72561804Y-134011000D01*
X71678196Y-134011000D01*
X71553177Y-133998687D01*
X71392758Y-133950024D01*
X71244924Y-133871005D01*
X71244922Y-133871004D01*
X71115341Y-133764659D01*
X71008996Y-133635078D01*
X71000886Y-133619906D01*
X70929976Y-133487242D01*
X70881313Y-133326823D01*
X70864883Y-133160000D01*
X70881313Y-132993177D01*
X70929976Y-132832758D01*
X71008995Y-132684924D01*
X71008996Y-132684922D01*
X71115341Y-132555341D01*
X71244922Y-132448996D01*
X71260094Y-132440886D01*
X71392758Y-132369976D01*
X71553177Y-132321313D01*
X71678196Y-132309000D01*
X72561804Y-132309000D01*
X72686823Y-132321313D01*
G37*
G36*
X37351000Y-133351000D02*
G01*
X35649000Y-133351000D01*
X35649000Y-131649000D01*
X37351000Y-131649000D01*
X37351000Y-133351000D01*
G37*
G36*
X51988228Y-131681703D02*
G01*
X52143100Y-131745853D01*
X52282481Y-131838985D01*
X52401015Y-131957519D01*
X52494147Y-132096900D01*
X52558297Y-132251772D01*
X52591000Y-132416184D01*
X52591000Y-132583816D01*
X52558297Y-132748228D01*
X52494147Y-132903100D01*
X52401015Y-133042481D01*
X52282481Y-133161015D01*
X52143100Y-133254147D01*
X51988228Y-133318297D01*
X51823816Y-133351000D01*
X51656184Y-133351000D01*
X51491772Y-133318297D01*
X51336900Y-133254147D01*
X51197519Y-133161015D01*
X51078985Y-133042481D01*
X50985853Y-132903100D01*
X50921703Y-132748228D01*
X50889000Y-132583816D01*
X50889000Y-132416184D01*
X50921703Y-132251772D01*
X50985853Y-132096900D01*
X51078985Y-131957519D01*
X51197519Y-131838985D01*
X51336900Y-131745853D01*
X51491772Y-131681703D01*
X51656184Y-131649000D01*
X51823816Y-131649000D01*
X51988228Y-131681703D01*
G37*
G36*
X65066823Y-129781313D02*
G01*
X65227242Y-129829976D01*
X65359906Y-129900886D01*
X65375078Y-129908996D01*
X65504659Y-130015341D01*
X65611004Y-130144922D01*
X65611005Y-130144924D01*
X65690024Y-130292758D01*
X65738687Y-130453177D01*
X65755117Y-130620000D01*
X65738687Y-130786823D01*
X65690024Y-130947242D01*
X65619114Y-131079906D01*
X65611004Y-131095078D01*
X65504659Y-131224659D01*
X65375078Y-131331004D01*
X65375076Y-131331005D01*
X65227242Y-131410024D01*
X65066823Y-131458687D01*
X64941804Y-131471000D01*
X64058196Y-131471000D01*
X63933177Y-131458687D01*
X63772758Y-131410024D01*
X63624924Y-131331005D01*
X63624922Y-131331004D01*
X63495341Y-131224659D01*
X63388996Y-131095078D01*
X63380886Y-131079906D01*
X63309976Y-130947242D01*
X63261313Y-130786823D01*
X63244883Y-130620000D01*
X63261313Y-130453177D01*
X63309976Y-130292758D01*
X63388995Y-130144924D01*
X63388996Y-130144922D01*
X63495341Y-130015341D01*
X63624922Y-129908996D01*
X63640094Y-129900886D01*
X63772758Y-129829976D01*
X63933177Y-129781313D01*
X64058196Y-129769000D01*
X64941804Y-129769000D01*
X65066823Y-129781313D01*
G37*
G36*
X72686823Y-129781313D02*
G01*
X72847242Y-129829976D01*
X72979906Y-129900886D01*
X72995078Y-129908996D01*
X73124659Y-130015341D01*
X73231004Y-130144922D01*
X73231005Y-130144924D01*
X73310024Y-130292758D01*
X73358687Y-130453177D01*
X73375117Y-130620000D01*
X73358687Y-130786823D01*
X73310024Y-130947242D01*
X73239114Y-131079906D01*
X73231004Y-131095078D01*
X73124659Y-131224659D01*
X72995078Y-131331004D01*
X72995076Y-131331005D01*
X72847242Y-131410024D01*
X72686823Y-131458687D01*
X72561804Y-131471000D01*
X71678196Y-131471000D01*
X71553177Y-131458687D01*
X71392758Y-131410024D01*
X71244924Y-131331005D01*
X71244922Y-131331004D01*
X71115341Y-131224659D01*
X71008996Y-131095078D01*
X71000886Y-131079906D01*
X70929976Y-130947242D01*
X70881313Y-130786823D01*
X70864883Y-130620000D01*
X70881313Y-130453177D01*
X70929976Y-130292758D01*
X71008995Y-130144924D01*
X71008996Y-130144922D01*
X71115341Y-130015341D01*
X71244922Y-129908996D01*
X71260094Y-129900886D01*
X71392758Y-129829976D01*
X71553177Y-129781313D01*
X71678196Y-129769000D01*
X72561804Y-129769000D01*
X72686823Y-129781313D01*
G37*
G36*
X65066823Y-127241313D02*
G01*
X65227242Y-127289976D01*
X65359906Y-127360886D01*
X65375078Y-127368996D01*
X65504659Y-127475341D01*
X65611004Y-127604922D01*
X65611005Y-127604924D01*
X65690024Y-127752758D01*
X65738687Y-127913177D01*
X65755117Y-128080000D01*
X65738687Y-128246823D01*
X65690024Y-128407242D01*
X65619114Y-128539906D01*
X65611004Y-128555078D01*
X65504659Y-128684659D01*
X65375078Y-128791004D01*
X65375076Y-128791005D01*
X65227242Y-128870024D01*
X65066823Y-128918687D01*
X64941804Y-128931000D01*
X64058196Y-128931000D01*
X63933177Y-128918687D01*
X63772758Y-128870024D01*
X63624924Y-128791005D01*
X63624922Y-128791004D01*
X63495341Y-128684659D01*
X63388996Y-128555078D01*
X63380886Y-128539906D01*
X63309976Y-128407242D01*
X63261313Y-128246823D01*
X63244883Y-128080000D01*
X63261313Y-127913177D01*
X63309976Y-127752758D01*
X63388995Y-127604924D01*
X63388996Y-127604922D01*
X63495341Y-127475341D01*
X63624922Y-127368996D01*
X63640094Y-127360886D01*
X63772758Y-127289976D01*
X63933177Y-127241313D01*
X64058196Y-127229000D01*
X64941804Y-127229000D01*
X65066823Y-127241313D01*
G37*
G36*
X72686823Y-127241313D02*
G01*
X72847242Y-127289976D01*
X72979906Y-127360886D01*
X72995078Y-127368996D01*
X73124659Y-127475341D01*
X73231004Y-127604922D01*
X73231005Y-127604924D01*
X73310024Y-127752758D01*
X73358687Y-127913177D01*
X73375117Y-128080000D01*
X73358687Y-128246823D01*
X73310024Y-128407242D01*
X73239114Y-128539906D01*
X73231004Y-128555078D01*
X73124659Y-128684659D01*
X72995078Y-128791004D01*
X72995076Y-128791005D01*
X72847242Y-128870024D01*
X72686823Y-128918687D01*
X72561804Y-128931000D01*
X71678196Y-128931000D01*
X71553177Y-128918687D01*
X71392758Y-128870024D01*
X71244924Y-128791005D01*
X71244922Y-128791004D01*
X71115341Y-128684659D01*
X71008996Y-128555078D01*
X71000886Y-128539906D01*
X70929976Y-128407242D01*
X70881313Y-128246823D01*
X70864883Y-128080000D01*
X70881313Y-127913177D01*
X70929976Y-127752758D01*
X71008995Y-127604924D01*
X71008996Y-127604922D01*
X71115341Y-127475341D01*
X71244922Y-127368996D01*
X71260094Y-127360886D01*
X71392758Y-127289976D01*
X71553177Y-127241313D01*
X71678196Y-127229000D01*
X72561804Y-127229000D01*
X72686823Y-127241313D01*
G37*
G36*
X72686823Y-124701313D02*
G01*
X72847242Y-124749976D01*
X72979906Y-124820886D01*
X72995078Y-124828996D01*
X73124659Y-124935341D01*
X73231004Y-125064922D01*
X73231005Y-125064924D01*
X73310024Y-125212758D01*
X73358687Y-125373177D01*
X73375117Y-125540000D01*
X73358687Y-125706823D01*
X73310024Y-125867242D01*
X73239114Y-125999906D01*
X73231004Y-126015078D01*
X73124659Y-126144659D01*
X72995078Y-126251004D01*
X72995076Y-126251005D01*
X72847242Y-126330024D01*
X72686823Y-126378687D01*
X72561804Y-126391000D01*
X71678196Y-126391000D01*
X71553177Y-126378687D01*
X71392758Y-126330024D01*
X71244924Y-126251005D01*
X71244922Y-126251004D01*
X71115341Y-126144659D01*
X71008996Y-126015078D01*
X71000886Y-125999906D01*
X70929976Y-125867242D01*
X70881313Y-125706823D01*
X70864883Y-125540000D01*
X70881313Y-125373177D01*
X70929976Y-125212758D01*
X71008995Y-125064924D01*
X71008996Y-125064922D01*
X71115341Y-124935341D01*
X71244922Y-124828996D01*
X71260094Y-124820886D01*
X71392758Y-124749976D01*
X71553177Y-124701313D01*
X71678196Y-124689000D01*
X72561804Y-124689000D01*
X72686823Y-124701313D01*
G37*
G36*
X65066823Y-124701313D02*
G01*
X65227242Y-124749976D01*
X65359906Y-124820886D01*
X65375078Y-124828996D01*
X65504659Y-124935341D01*
X65611004Y-125064922D01*
X65611005Y-125064924D01*
X65690024Y-125212758D01*
X65738687Y-125373177D01*
X65755117Y-125540000D01*
X65738687Y-125706823D01*
X65690024Y-125867242D01*
X65619114Y-125999906D01*
X65611004Y-126015078D01*
X65504659Y-126144659D01*
X65375078Y-126251004D01*
X65375076Y-126251005D01*
X65227242Y-126330024D01*
X65066823Y-126378687D01*
X64941804Y-126391000D01*
X64058196Y-126391000D01*
X63933177Y-126378687D01*
X63772758Y-126330024D01*
X63624924Y-126251005D01*
X63624922Y-126251004D01*
X63495341Y-126144659D01*
X63388996Y-126015078D01*
X63380886Y-125999906D01*
X63309976Y-125867242D01*
X63261313Y-125706823D01*
X63244883Y-125540000D01*
X63261313Y-125373177D01*
X63309976Y-125212758D01*
X63388995Y-125064924D01*
X63388996Y-125064922D01*
X63495341Y-124935341D01*
X63624922Y-124828996D01*
X63640094Y-124820886D01*
X63772758Y-124749976D01*
X63933177Y-124701313D01*
X64058196Y-124689000D01*
X64941804Y-124689000D01*
X65066823Y-124701313D01*
G37*
G36*
X65751000Y-123851000D02*
G01*
X63249000Y-123851000D01*
X63249000Y-122149000D01*
X65751000Y-122149000D01*
X65751000Y-123851000D01*
G37*
G36*
X72686823Y-122161313D02*
G01*
X72847242Y-122209976D01*
X72979906Y-122280886D01*
X72995078Y-122288996D01*
X73124659Y-122395341D01*
X73231004Y-122524922D01*
X73231005Y-122524924D01*
X73310024Y-122672758D01*
X73358687Y-122833177D01*
X73375117Y-123000000D01*
X73358687Y-123166823D01*
X73310024Y-123327242D01*
X73239114Y-123459906D01*
X73231004Y-123475078D01*
X73124659Y-123604659D01*
X72995078Y-123711004D01*
X72995076Y-123711005D01*
X72847242Y-123790024D01*
X72686823Y-123838687D01*
X72561804Y-123851000D01*
X71678196Y-123851000D01*
X71553177Y-123838687D01*
X71392758Y-123790024D01*
X71244924Y-123711005D01*
X71244922Y-123711004D01*
X71115341Y-123604659D01*
X71008996Y-123475078D01*
X71000886Y-123459906D01*
X70929976Y-123327242D01*
X70881313Y-123166823D01*
X70864883Y-123000000D01*
X70881313Y-122833177D01*
X70929976Y-122672758D01*
X71008995Y-122524924D01*
X71008996Y-122524922D01*
X71115341Y-122395341D01*
X71244922Y-122288996D01*
X71260094Y-122280886D01*
X71392758Y-122209976D01*
X71553177Y-122161313D01*
X71678196Y-122149000D01*
X72561804Y-122149000D01*
X72686823Y-122161313D01*
G37*
G36*
X37353642Y-118159781D02*
G01*
X37499414Y-118220162D01*
X37499416Y-118220163D01*
X37630608Y-118307822D01*
X37742178Y-118419392D01*
X37829837Y-118550584D01*
X37829838Y-118550586D01*
X37890219Y-118696358D01*
X37921000Y-118851107D01*
X37921000Y-119008893D01*
X37890219Y-119163642D01*
X37829838Y-119309414D01*
X37829837Y-119309416D01*
X37742178Y-119440608D01*
X37630608Y-119552178D01*
X37499416Y-119639837D01*
X37499415Y-119639838D01*
X37499414Y-119639838D01*
X37353642Y-119700219D01*
X37198893Y-119731000D01*
X37041107Y-119731000D01*
X36886358Y-119700219D01*
X36740586Y-119639838D01*
X36740585Y-119639838D01*
X36740584Y-119639837D01*
X36609392Y-119552178D01*
X36497822Y-119440608D01*
X36410163Y-119309416D01*
X36410162Y-119309414D01*
X36349781Y-119163642D01*
X36319000Y-119008893D01*
X36319000Y-118851107D01*
X36349781Y-118696358D01*
X36410162Y-118550586D01*
X36410163Y-118550584D01*
X36497822Y-118419392D01*
X36609392Y-118307822D01*
X36740584Y-118220163D01*
X36740586Y-118220162D01*
X36886358Y-118159781D01*
X37041107Y-118129000D01*
X37198893Y-118129000D01*
X37353642Y-118159781D01*
G37*
G36*
X47463642Y-118159781D02*
G01*
X47609414Y-118220162D01*
X47609416Y-118220163D01*
X47740608Y-118307822D01*
X47852178Y-118419392D01*
X47939837Y-118550584D01*
X47939838Y-118550586D01*
X48000219Y-118696358D01*
X48031000Y-118851107D01*
X48031000Y-119008893D01*
X48000219Y-119163642D01*
X47939838Y-119309414D01*
X47939837Y-119309416D01*
X47852178Y-119440608D01*
X47740608Y-119552178D01*
X47609416Y-119639837D01*
X47609415Y-119639838D01*
X47609414Y-119639838D01*
X47463642Y-119700219D01*
X47308893Y-119731000D01*
X47151107Y-119731000D01*
X46996358Y-119700219D01*
X46850586Y-119639838D01*
X46850585Y-119639838D01*
X46850584Y-119639837D01*
X46719392Y-119552178D01*
X46607822Y-119440608D01*
X46520163Y-119309416D01*
X46520162Y-119309414D01*
X46459781Y-119163642D01*
X46429000Y-119008893D01*
X46429000Y-118851107D01*
X46459781Y-118696358D01*
X46520162Y-118550586D01*
X46520163Y-118550584D01*
X46607822Y-118419392D01*
X46719392Y-118307822D01*
X46850584Y-118220163D01*
X46850586Y-118220162D01*
X46996358Y-118159781D01*
X47151107Y-118129000D01*
X47308893Y-118129000D01*
X47463642Y-118159781D01*
G37*
G36*
X39893642Y-116459781D02*
G01*
X40039414Y-116520162D01*
X40039416Y-116520163D01*
X40170608Y-116607822D01*
X40282178Y-116719392D01*
X40301445Y-116748228D01*
X40369838Y-116850586D01*
X40430219Y-116996358D01*
X40461000Y-117151107D01*
X40461000Y-117308893D01*
X40430219Y-117463642D01*
X40369838Y-117609414D01*
X40369837Y-117609416D01*
X40282178Y-117740608D01*
X40170608Y-117852178D01*
X40039416Y-117939837D01*
X40039415Y-117939838D01*
X40039414Y-117939838D01*
X39893642Y-118000219D01*
X39738893Y-118031000D01*
X39581107Y-118031000D01*
X39426358Y-118000219D01*
X39280586Y-117939838D01*
X39280585Y-117939838D01*
X39280584Y-117939837D01*
X39149392Y-117852178D01*
X39037822Y-117740608D01*
X38950163Y-117609416D01*
X38950162Y-117609414D01*
X38889781Y-117463642D01*
X38859000Y-117308893D01*
X38859000Y-117151107D01*
X38889781Y-116996358D01*
X38950162Y-116850586D01*
X39018555Y-116748228D01*
X39037822Y-116719392D01*
X39149392Y-116607822D01*
X39280584Y-116520163D01*
X39280586Y-116520162D01*
X39426358Y-116459781D01*
X39581107Y-116429000D01*
X39738893Y-116429000D01*
X39893642Y-116459781D01*
G37*
G36*
X50003642Y-116459781D02*
G01*
X50149414Y-116520162D01*
X50149416Y-116520163D01*
X50280608Y-116607822D01*
X50392178Y-116719392D01*
X50411445Y-116748228D01*
X50479838Y-116850586D01*
X50540219Y-116996358D01*
X50571000Y-117151107D01*
X50571000Y-117308893D01*
X50540219Y-117463642D01*
X50479838Y-117609414D01*
X50479837Y-117609416D01*
X50392178Y-117740608D01*
X50280608Y-117852178D01*
X50149416Y-117939837D01*
X50149415Y-117939838D01*
X50149414Y-117939838D01*
X50003642Y-118000219D01*
X49848893Y-118031000D01*
X49691107Y-118031000D01*
X49536358Y-118000219D01*
X49390586Y-117939838D01*
X49390585Y-117939838D01*
X49390584Y-117939837D01*
X49259392Y-117852178D01*
X49147822Y-117740608D01*
X49060163Y-117609416D01*
X49060162Y-117609414D01*
X48999781Y-117463642D01*
X48969000Y-117308893D01*
X48969000Y-117151107D01*
X48999781Y-116996358D01*
X49060162Y-116850586D01*
X49128555Y-116748228D01*
X49147822Y-116719392D01*
X49259392Y-116607822D01*
X49390584Y-116520163D01*
X49390586Y-116520162D01*
X49536358Y-116459781D01*
X49691107Y-116429000D01*
X49848893Y-116429000D01*
X50003642Y-116459781D01*
G37*
G36*
X74408228Y-115681703D02*
G01*
X74563100Y-115745853D01*
X74702481Y-115838985D01*
X74821015Y-115957519D01*
X74914147Y-116096900D01*
X74978297Y-116251772D01*
X75011000Y-116416184D01*
X75011000Y-116583816D01*
X74978297Y-116748228D01*
X74914147Y-116903100D01*
X74821015Y-117042481D01*
X74702481Y-117161015D01*
X74563100Y-117254147D01*
X74408228Y-117318297D01*
X74243816Y-117351000D01*
X74076184Y-117351000D01*
X73911772Y-117318297D01*
X73756900Y-117254147D01*
X73617519Y-117161015D01*
X73498985Y-117042481D01*
X73405853Y-116903100D01*
X73341703Y-116748228D01*
X73309000Y-116583816D01*
X73309000Y-116416184D01*
X73341703Y-116251772D01*
X73405853Y-116096900D01*
X73498985Y-115957519D01*
X73617519Y-115838985D01*
X73756900Y-115745853D01*
X73911772Y-115681703D01*
X74076184Y-115649000D01*
X74243816Y-115649000D01*
X74408228Y-115681703D01*
G37*
G36*
X64248228Y-115681703D02*
G01*
X64403100Y-115745853D01*
X64542481Y-115838985D01*
X64661015Y-115957519D01*
X64754147Y-116096900D01*
X64818297Y-116251772D01*
X64851000Y-116416184D01*
X64851000Y-116583816D01*
X64818297Y-116748228D01*
X64754147Y-116903100D01*
X64661015Y-117042481D01*
X64542481Y-117161015D01*
X64403100Y-117254147D01*
X64248228Y-117318297D01*
X64083816Y-117351000D01*
X63916184Y-117351000D01*
X63751772Y-117318297D01*
X63596900Y-117254147D01*
X63457519Y-117161015D01*
X63338985Y-117042481D01*
X63245853Y-116903100D01*
X63181703Y-116748228D01*
X63149000Y-116583816D01*
X63149000Y-116416184D01*
X63181703Y-116251772D01*
X63245853Y-116096900D01*
X63338985Y-115957519D01*
X63457519Y-115838985D01*
X63596900Y-115745853D01*
X63751772Y-115681703D01*
X63916184Y-115649000D01*
X64083816Y-115649000D01*
X64248228Y-115681703D01*
G37*
G36*
X49486971Y-112206204D02*
G01*
X49648871Y-112238408D01*
X49953883Y-112364748D01*
X50228387Y-112548166D01*
X50461834Y-112781613D01*
X50645252Y-113056117D01*
X50771592Y-113361129D01*
X50836000Y-113684928D01*
X50836000Y-114015072D01*
X50771592Y-114338871D01*
X50645252Y-114643883D01*
X50461834Y-114918387D01*
X50228387Y-115151834D01*
X49953883Y-115335252D01*
X49648871Y-115461592D01*
X49325073Y-115526000D01*
X48994927Y-115526000D01*
X48671129Y-115461592D01*
X48366117Y-115335252D01*
X48091613Y-115151834D01*
X47858166Y-114918387D01*
X47674748Y-114643883D01*
X47548408Y-114338871D01*
X47484000Y-114015072D01*
X47484000Y-113684928D01*
X47548408Y-113361129D01*
X47674748Y-113056117D01*
X47858166Y-112781613D01*
X48091613Y-112548166D01*
X48366117Y-112364748D01*
X48671129Y-112238408D01*
X48833029Y-112206204D01*
X48994927Y-112174000D01*
X49325073Y-112174000D01*
X49486971Y-112206204D01*
G37*
G36*
X38056971Y-112206204D02*
G01*
X38218871Y-112238408D01*
X38523883Y-112364748D01*
X38798387Y-112548166D01*
X39031834Y-112781613D01*
X39215252Y-113056117D01*
X39341592Y-113361129D01*
X39406000Y-113684928D01*
X39406000Y-114015072D01*
X39341592Y-114338871D01*
X39215252Y-114643883D01*
X39031834Y-114918387D01*
X38798387Y-115151834D01*
X38523883Y-115335252D01*
X38218871Y-115461592D01*
X37895073Y-115526000D01*
X37564927Y-115526000D01*
X37241129Y-115461592D01*
X36936117Y-115335252D01*
X36661613Y-115151834D01*
X36428166Y-114918387D01*
X36244748Y-114643883D01*
X36118408Y-114338871D01*
X36054000Y-114015072D01*
X36054000Y-113684928D01*
X36118408Y-113361129D01*
X36244748Y-113056117D01*
X36428166Y-112781613D01*
X36661613Y-112548166D01*
X36936117Y-112364748D01*
X37241129Y-112238408D01*
X37403029Y-112206204D01*
X37564927Y-112174000D01*
X37895073Y-112174000D01*
X38056971Y-112206204D01*
G37*
G36*
X51699487Y-109548996D02*
G01*
X51936253Y-109647068D01*
X51936255Y-109647069D01*
X52149339Y-109789447D01*
X52330553Y-109970661D01*
X52472932Y-110183747D01*
X52571004Y-110420513D01*
X52621000Y-110671861D01*
X52621000Y-110928139D01*
X52571004Y-111179487D01*
X52472932Y-111416253D01*
X52472931Y-111416255D01*
X52330553Y-111629339D01*
X52149339Y-111810553D01*
X51936255Y-111952931D01*
X51936254Y-111952932D01*
X51936253Y-111952932D01*
X51699487Y-112051004D01*
X51448139Y-112101000D01*
X51191861Y-112101000D01*
X50940513Y-112051004D01*
X50703747Y-111952932D01*
X50703746Y-111952932D01*
X50703745Y-111952931D01*
X50490661Y-111810553D01*
X50309447Y-111629339D01*
X50167069Y-111416255D01*
X50167068Y-111416253D01*
X50068996Y-111179487D01*
X50019000Y-110928139D01*
X50019000Y-110671861D01*
X50068996Y-110420513D01*
X50167068Y-110183747D01*
X50309447Y-109970661D01*
X50490661Y-109789447D01*
X50703745Y-109647069D01*
X50703747Y-109647068D01*
X50940513Y-109548996D01*
X51191861Y-109499000D01*
X51448139Y-109499000D01*
X51699487Y-109548996D01*
G37*
G36*
X35949487Y-109548996D02*
G01*
X36186253Y-109647068D01*
X36186255Y-109647069D01*
X36399339Y-109789447D01*
X36580553Y-109970661D01*
X36722932Y-110183747D01*
X36821004Y-110420513D01*
X36871000Y-110671861D01*
X36871000Y-110928139D01*
X36821004Y-111179487D01*
X36722932Y-111416253D01*
X36722931Y-111416255D01*
X36580553Y-111629339D01*
X36399339Y-111810553D01*
X36186255Y-111952931D01*
X36186254Y-111952932D01*
X36186253Y-111952932D01*
X35949487Y-112051004D01*
X35698139Y-112101000D01*
X35441861Y-112101000D01*
X35190513Y-112051004D01*
X34953747Y-111952932D01*
X34953746Y-111952932D01*
X34953745Y-111952931D01*
X34740661Y-111810553D01*
X34559447Y-111629339D01*
X34417069Y-111416255D01*
X34417068Y-111416253D01*
X34318996Y-111179487D01*
X34269000Y-110928139D01*
X34269000Y-110671861D01*
X34318996Y-110420513D01*
X34417068Y-110183747D01*
X34559447Y-109970661D01*
X34740661Y-109789447D01*
X34953745Y-109647069D01*
X34953747Y-109647068D01*
X35190513Y-109548996D01*
X35441861Y-109499000D01*
X35698139Y-109499000D01*
X35949487Y-109548996D01*
G37*
G36*
X44313642Y-106729781D02*
G01*
X44437872Y-106781239D01*
X44459416Y-106790163D01*
X44590608Y-106877822D01*
X44702178Y-106989392D01*
X44789837Y-107120584D01*
X44789838Y-107120586D01*
X44850219Y-107266358D01*
X44881000Y-107421107D01*
X44881000Y-107578893D01*
X44850219Y-107733642D01*
X44789838Y-107879414D01*
X44789837Y-107879416D01*
X44702178Y-108010608D01*
X44590608Y-108122178D01*
X44459416Y-108209837D01*
X44459415Y-108209838D01*
X44459414Y-108209838D01*
X44313642Y-108270219D01*
X44158893Y-108301000D01*
X44001107Y-108301000D01*
X43846358Y-108270219D01*
X43700586Y-108209838D01*
X43700585Y-108209838D01*
X43700584Y-108209837D01*
X43569392Y-108122178D01*
X43457822Y-108010608D01*
X43370163Y-107879416D01*
X43370162Y-107879414D01*
X43309781Y-107733642D01*
X43279000Y-107578893D01*
X43279000Y-107421107D01*
X43309781Y-107266358D01*
X43370162Y-107120586D01*
X43370163Y-107120584D01*
X43457822Y-106989392D01*
X43569392Y-106877822D01*
X43700584Y-106790163D01*
X43722128Y-106781239D01*
X43846358Y-106729781D01*
X44001107Y-106699000D01*
X44158893Y-106699000D01*
X44313642Y-106729781D01*
G37*
G36*
X41773642Y-106729781D02*
G01*
X41897872Y-106781239D01*
X41919416Y-106790163D01*
X42050608Y-106877822D01*
X42162178Y-106989392D01*
X42249837Y-107120584D01*
X42249838Y-107120586D01*
X42310219Y-107266358D01*
X42341000Y-107421107D01*
X42341000Y-107578893D01*
X42310219Y-107733642D01*
X42249838Y-107879414D01*
X42249837Y-107879416D01*
X42162178Y-108010608D01*
X42050608Y-108122178D01*
X41919416Y-108209837D01*
X41919415Y-108209838D01*
X41919414Y-108209838D01*
X41773642Y-108270219D01*
X41618893Y-108301000D01*
X41461107Y-108301000D01*
X41306358Y-108270219D01*
X41160586Y-108209838D01*
X41160585Y-108209838D01*
X41160584Y-108209837D01*
X41029392Y-108122178D01*
X40917822Y-108010608D01*
X40830163Y-107879416D01*
X40830162Y-107879414D01*
X40769781Y-107733642D01*
X40739000Y-107578893D01*
X40739000Y-107421107D01*
X40769781Y-107266358D01*
X40830162Y-107120586D01*
X40830163Y-107120584D01*
X40917822Y-106989392D01*
X41029392Y-106877822D01*
X41160584Y-106790163D01*
X41182128Y-106781239D01*
X41306358Y-106729781D01*
X41461107Y-106699000D01*
X41618893Y-106699000D01*
X41773642Y-106729781D01*
G37*
G36*
X39652546Y-106703134D02*
G01*
X39687010Y-106713589D01*
X39718761Y-106730560D01*
X39746597Y-106753403D01*
X39769440Y-106781239D01*
X39786411Y-106812990D01*
X39796866Y-106847454D01*
X39801000Y-106889425D01*
X39801000Y-108110575D01*
X39796866Y-108152546D01*
X39786411Y-108187010D01*
X39769440Y-108218761D01*
X39746597Y-108246597D01*
X39718761Y-108269440D01*
X39687010Y-108286411D01*
X39652546Y-108296866D01*
X39610575Y-108301000D01*
X38389425Y-108301000D01*
X38347454Y-108296866D01*
X38312990Y-108286411D01*
X38281239Y-108269440D01*
X38253403Y-108246597D01*
X38230560Y-108218761D01*
X38213589Y-108187010D01*
X38203134Y-108152546D01*
X38199000Y-108110575D01*
X38199000Y-106889425D01*
X38203134Y-106847454D01*
X38213589Y-106812990D01*
X38230560Y-106781239D01*
X38253403Y-106753403D01*
X38281239Y-106730560D01*
X38312990Y-106713589D01*
X38347454Y-106703134D01*
X38389425Y-106699000D01*
X39610575Y-106699000D01*
X39652546Y-106703134D01*
G37*
G36*
X46853642Y-106729781D02*
G01*
X46977872Y-106781239D01*
X46999416Y-106790163D01*
X47130608Y-106877822D01*
X47242178Y-106989392D01*
X47329837Y-107120584D01*
X47329838Y-107120586D01*
X47390219Y-107266358D01*
X47421000Y-107421107D01*
X47421000Y-107578893D01*
X47390219Y-107733642D01*
X47329838Y-107879414D01*
X47329837Y-107879416D01*
X47242178Y-108010608D01*
X47130608Y-108122178D01*
X46999416Y-108209837D01*
X46999415Y-108209838D01*
X46999414Y-108209838D01*
X46853642Y-108270219D01*
X46698893Y-108301000D01*
X46541107Y-108301000D01*
X46386358Y-108270219D01*
X46240586Y-108209838D01*
X46240585Y-108209838D01*
X46240584Y-108209837D01*
X46109392Y-108122178D01*
X45997822Y-108010608D01*
X45910163Y-107879416D01*
X45910162Y-107879414D01*
X45849781Y-107733642D01*
X45819000Y-107578893D01*
X45819000Y-107421107D01*
X45849781Y-107266358D01*
X45910162Y-107120586D01*
X45910163Y-107120584D01*
X45997822Y-106989392D01*
X46109392Y-106877822D01*
X46240584Y-106790163D01*
X46262128Y-106781239D01*
X46386358Y-106729781D01*
X46541107Y-106699000D01*
X46698893Y-106699000D01*
X46853642Y-106729781D01*
G37*
G36*
X40503642Y-104189781D02*
G01*
X40649414Y-104250162D01*
X40649416Y-104250163D01*
X40780608Y-104337822D01*
X40892178Y-104449392D01*
X40979837Y-104580584D01*
X40979838Y-104580586D01*
X41040219Y-104726358D01*
X41071000Y-104881107D01*
X41071000Y-105038893D01*
X41040219Y-105193642D01*
X40979838Y-105339414D01*
X40979837Y-105339416D01*
X40892178Y-105470608D01*
X40780608Y-105582178D01*
X40649416Y-105669837D01*
X40649415Y-105669838D01*
X40649414Y-105669838D01*
X40503642Y-105730219D01*
X40348893Y-105761000D01*
X40191107Y-105761000D01*
X40036358Y-105730219D01*
X39890586Y-105669838D01*
X39890585Y-105669838D01*
X39890584Y-105669837D01*
X39759392Y-105582178D01*
X39647822Y-105470608D01*
X39560163Y-105339416D01*
X39560162Y-105339414D01*
X39499781Y-105193642D01*
X39469000Y-105038893D01*
X39469000Y-104881107D01*
X39499781Y-104726358D01*
X39560162Y-104580586D01*
X39560163Y-104580584D01*
X39647822Y-104449392D01*
X39759392Y-104337822D01*
X39890584Y-104250163D01*
X39890586Y-104250162D01*
X40036358Y-104189781D01*
X40191107Y-104159000D01*
X40348893Y-104159000D01*
X40503642Y-104189781D01*
G37*
G36*
X48123642Y-104189781D02*
G01*
X48269414Y-104250162D01*
X48269416Y-104250163D01*
X48400608Y-104337822D01*
X48512178Y-104449392D01*
X48599837Y-104580584D01*
X48599838Y-104580586D01*
X48660219Y-104726358D01*
X48691000Y-104881107D01*
X48691000Y-105038893D01*
X48660219Y-105193642D01*
X48599838Y-105339414D01*
X48599837Y-105339416D01*
X48512178Y-105470608D01*
X48400608Y-105582178D01*
X48269416Y-105669837D01*
X48269415Y-105669838D01*
X48269414Y-105669838D01*
X48123642Y-105730219D01*
X47968893Y-105761000D01*
X47811107Y-105761000D01*
X47656358Y-105730219D01*
X47510586Y-105669838D01*
X47510585Y-105669838D01*
X47510584Y-105669837D01*
X47379392Y-105582178D01*
X47267822Y-105470608D01*
X47180163Y-105339416D01*
X47180162Y-105339414D01*
X47119781Y-105193642D01*
X47089000Y-105038893D01*
X47089000Y-104881107D01*
X47119781Y-104726358D01*
X47180162Y-104580586D01*
X47180163Y-104580584D01*
X47267822Y-104449392D01*
X47379392Y-104337822D01*
X47510584Y-104250163D01*
X47510586Y-104250162D01*
X47656358Y-104189781D01*
X47811107Y-104159000D01*
X47968893Y-104159000D01*
X48123642Y-104189781D01*
G37*
G36*
X45583642Y-104189781D02*
G01*
X45729414Y-104250162D01*
X45729416Y-104250163D01*
X45860608Y-104337822D01*
X45972178Y-104449392D01*
X46059837Y-104580584D01*
X46059838Y-104580586D01*
X46120219Y-104726358D01*
X46151000Y-104881107D01*
X46151000Y-105038893D01*
X46120219Y-105193642D01*
X46059838Y-105339414D01*
X46059837Y-105339416D01*
X45972178Y-105470608D01*
X45860608Y-105582178D01*
X45729416Y-105669837D01*
X45729415Y-105669838D01*
X45729414Y-105669838D01*
X45583642Y-105730219D01*
X45428893Y-105761000D01*
X45271107Y-105761000D01*
X45116358Y-105730219D01*
X44970586Y-105669838D01*
X44970585Y-105669838D01*
X44970584Y-105669837D01*
X44839392Y-105582178D01*
X44727822Y-105470608D01*
X44640163Y-105339416D01*
X44640162Y-105339414D01*
X44579781Y-105193642D01*
X44549000Y-105038893D01*
X44549000Y-104881107D01*
X44579781Y-104726358D01*
X44640162Y-104580586D01*
X44640163Y-104580584D01*
X44727822Y-104449392D01*
X44839392Y-104337822D01*
X44970584Y-104250163D01*
X44970586Y-104250162D01*
X45116358Y-104189781D01*
X45271107Y-104159000D01*
X45428893Y-104159000D01*
X45583642Y-104189781D01*
G37*
G36*
X43043642Y-104189781D02*
G01*
X43189414Y-104250162D01*
X43189416Y-104250163D01*
X43320608Y-104337822D01*
X43432178Y-104449392D01*
X43519837Y-104580584D01*
X43519838Y-104580586D01*
X43580219Y-104726358D01*
X43611000Y-104881107D01*
X43611000Y-105038893D01*
X43580219Y-105193642D01*
X43519838Y-105339414D01*
X43519837Y-105339416D01*
X43432178Y-105470608D01*
X43320608Y-105582178D01*
X43189416Y-105669837D01*
X43189415Y-105669838D01*
X43189414Y-105669838D01*
X43043642Y-105730219D01*
X42888893Y-105761000D01*
X42731107Y-105761000D01*
X42576358Y-105730219D01*
X42430586Y-105669838D01*
X42430585Y-105669838D01*
X42430584Y-105669837D01*
X42299392Y-105582178D01*
X42187822Y-105470608D01*
X42100163Y-105339416D01*
X42100162Y-105339414D01*
X42039781Y-105193642D01*
X42009000Y-105038893D01*
X42009000Y-104881107D01*
X42039781Y-104726358D01*
X42100162Y-104580586D01*
X42100163Y-104580584D01*
X42187822Y-104449392D01*
X42299392Y-104337822D01*
X42430584Y-104250163D01*
X42430586Y-104250162D01*
X42576358Y-104189781D01*
X42731107Y-104159000D01*
X42888893Y-104159000D01*
X43043642Y-104189781D01*
G37*
M02*
